<?xml version="1.0" encoding="UTF-8"?>
<svg width="89px" height="61px" viewBox="0 0 89 61" version="1.1" xmlns="http://www.w3.org/2000/svg" xmlns:xlink="http://www.w3.org/1999/xlink">
    <title>Antwort_Icon</title>
    <defs>
        <polygon id="path-1" points="0.273773375 0.08551115 59.6641549 0.08551115 59.6641549 37.6361132 0.273773375 37.6361132"></polygon>
        <polygon id="path-3" points="0 0.00386746714 58.3111885 0.00386746714 58.3111885 35.8577075 0 35.8577075"></polygon>
    </defs>
    <g id="------00.34-Nächste-Schritte-Optimierung" stroke="none" stroke-width="1" fill="none" fill-rule="evenodd">
        <g id="CUX-Proto_10-Nächste-Schritte_Design_Desktop" transform="translate(-643.000000, -279.000000)">
            <g id="Bot-Antwort-" transform="translate(139.000000, 166.000000)">
                <g id="Group-4" transform="translate(24.500000, 83.000000)">
                    <g id="Part3" transform="translate(463.000000, 0.000000)">
                        <g id="Antwort_Icon" transform="translate(16.695652, 30.260870)">
                            <path d="M85.4627592,31.8735178 L33.066885,31.8735178 C32.4105331,31.8735178 31.8735178,31.3466608 31.8735178,30.7020733 L31.8735178,29.0613053 C31.8735178,28.4167178 32.4105331,27.8893281 33.066885,27.8893281 L85.4627592,27.8893281 C86.1191112,27.8893281 86.6561265,28.4167178 86.6561265,29.0613053 L86.6561265,30.7020733 C86.6561265,31.3466608 86.1191112,31.8735178 85.4627592,31.8735178" id="Fill-1" fill-opacity="0.2" fill="#3F88C5"></path>
                            <path d="M33.3711044,1.14212182 L84.0734341,1.00534805 L85.908505,1.21050871 L86.5881609,2.64663337 L86.6561265,21.7265752 L86.5201953,28.018169 L85.3685864,29.1807461 L81.4907417,29.1807461 L81.5587073,36.8537549 C81.5587073,36.8537549 72.5872495,29.1807461 72.1114904,29.1807461 L30.3996488,29.1807461 L28.8853755,27.8130083 L28.8853755,15.3665946 L29.0213067,2.03115137 L30.3996488,0.996047431 L33.3711044,1.14212182 Z" id="Fill-3" fill="#FFFFFF"></path>
                            <path d="M55.5813363,54.7826087 L3.18546212,54.7826087 C2.52911013,54.7826087 1.99209486,54.2557517 1.99209486,53.6111642 L1.99209486,51.9703962 C1.99209486,51.3258087 2.52911013,50.798419 3.18546212,50.798419 L55.5813363,50.798419 C56.2376883,50.798419 56.7747036,51.3258087 56.7747036,51.9703962 L56.7747036,53.6111642 C56.7747036,54.2557517 56.2376883,54.7826087 55.5813363,54.7826087" id="Fill-5" fill-opacity="0.2" fill="#3F88C5"></path>
                            <g id="Group-9" transform="translate(27.889328, 0.000000)">
                                <mask id="mask-2" fill="white">
                                    <use xlink:href="#path-1"></use>
                                </mask>
                                <g id="Clip-8"></g>
                                <path d="M59.1689457,12.3108104 L59.3745518,17.5140768 L59.5445196,22.717884 L59.6289551,25.3197875 C59.6399208,25.7658745 59.6646023,26.158431 59.6646023,26.649397 C59.6465002,27.1430666 59.5483575,27.6437654 59.3049199,28.1228357 C59.1815562,28.3618302 59.0214576,28.5970397 58.7884373,28.8030508 C58.5587067,29.0063583 58.2313818,29.1799266 57.8580011,29.2064215 L56.5070318,29.2529227 C55.6275859,29.280499 54.74814,29.3129417 53.8686941,29.3237559 L54.5710446,28.6251567 L54.6225832,36.2080942 L54.6324523,37.6361132 L53.5068273,36.740695 L43.9804103,29.156676 L44.4108125,29.3069938 L11.1212625,29.3069938 L2.79832672,29.3069938 L2.53844058,29.3069938 L2.40849752,29.3069938 L2.33886558,29.3064531 L2.22262958,29.2988832 C1.91120484,29.2750919 1.62500112,29.1534318 1.4034948,28.9998697 C0.963223556,28.6830128 0.724720455,28.2807235 0.555849295,27.8876262 C0.394105813,27.4891219 0.308573666,27.0819662 0.282256083,26.6753511 C0.272935272,26.4596073 0.273773375,26.287661 0.273773375,26.1211219 L0.273773375,25.6079867 L0.273773375,21.5045274 L0.273773375,5.08960885 L0.273773375,3.03760885 C0.282256083,2.24817012 0.440709867,1.39438672 1.1002943,0.667129802 C1.26752062,0.48869502 1.49122007,0.322696601 1.76590985,0.213472885 C2.03073054,0.0950570751 2.41946318,0.0939756522 2.52966806,0.0993827668 L3.57030917,0.0993827668 L5.65104312,0.0993827668 L13.9734306,0.0993827668 L30.6182056,0.0993827668 L38.9405931,0.0993827668 C40.3277491,0.111278419 41.714905,0.0685622134 43.102061,0.0934349407 L47.2629806,0.219961423 L55.5853681,0.482747194 L57.666102,0.548173281 C57.7445065,0.548713992 57.8525183,0.555743241 57.9632714,0.572505296 C58.0696383,0.595755889 58.1710707,0.629820711 58.2648271,0.67740332 C58.450695,0.77364996 58.6014728,0.908287115 58.7259331,1.05536063 C58.9704673,1.35329265 59.111376,1.69880727 59.1980047,2.04756617 C59.2868266,2.39524364 59.3027268,2.75914245 59.2868266,3.10465708 L59.2478985,4.13038672 L59.1689457,6.18184601 L59.089993,4.13038672 C59.0428406,3.44746814 59.1026035,2.74616538 58.8948042,2.13083573 C58.7012603,1.52902387 58.2560545,0.918560632 57.666102,1.00237091 L55.5853681,1.06833771 L47.2629806,1.33058277 L43.102061,1.45764996 C41.714905,1.48198198 40.3277491,1.43980648 38.9405931,1.45116142 L30.6182056,1.45116142 L13.9734306,1.45116142 L5.65104312,1.45116142 L3.57030917,1.45116142 L2.52966806,1.45116142 C2.29555122,1.45062071 2.32954477,1.45332427 2.27197505,1.46954561 C2.225371,1.48901123 2.15902876,1.5257796 2.09213823,1.59931636 C1.80867593,1.89616696 1.63322537,2.47526893 1.64473931,3.03760885 L1.64473931,5.08960885 L1.64473931,21.5045274 L1.64473931,25.6079867 L1.64473931,26.1211219 C1.64364275,26.2963124 1.64473931,26.4660958 1.65077042,26.5920816 C1.66831548,26.8678444 1.72807833,27.1376594 1.82402785,27.3750318 C1.91997737,27.6091598 2.06691721,27.8081417 2.1930223,27.8941148 C2.25497828,27.9357496 2.29993748,27.9487266 2.33447931,27.9519709 L2.34818639,27.9546745 L2.40849752,27.9552152 L2.53844058,27.9552152 L2.79832672,27.9552152 L11.1212625,27.9552152 L44.4108125,27.9552152 L44.6531536,27.9552152 L44.8412146,28.1049923 L54.3676316,35.6884705 L53.2518757,36.2205306 L53.1668918,28.6370523 L53.1586676,27.9303425 L53.8686941,27.9384531 C54.74814,27.9487266 55.6275859,27.98171 56.5070318,28.0092863 L57.793852,28.0482175 C57.9216019,28.0703867 58.1776501,27.9076326 58.3448764,27.6113227 C58.5181338,27.3252863 58.6234041,26.9619282 58.6601391,26.5915409 C58.6859084,26.2157464 58.6913912,25.740461 58.708388,25.3197875 L58.7933719,22.717884 L58.9633396,17.5140768 L59.1689457,12.3108104 Z" id="Fill-7" fill="#353A4A" mask="url(#mask-2)"></path>
                            </g>
                            <path d="M0.996047431,48.8302292 L1.80711462,52.1490593 L6.89899447,52.0005924 L6.89899447,57.770751 L14.3337771,52.0005924 L56.4151874,52.0005924 L57.770751,49.7790083 L57.7031621,25.3952253 L57.0948617,24.2893098 C56.9607652,24.0693188 56.1805186,23.9051383 55.9231399,23.9051383 L3.69960474,24.1760632 L1.40158103,24.5824506 L0.996047431,48.8302292 Z" id="Fill-10" fill="#80DD8A"></path>
                            <g id="Group-14" transform="translate(0.000000, 23.905138)">
                                <mask id="mask-4" fill="white">
                                    <use xlink:href="#path-3"></use>
                                </mask>
                                <g id="Clip-13"></g>
                                <path d="M57.8144498,12.2880017 C57.9091296,14.759467 58.0185012,17.2309324 58.0908714,19.7018544 L58.2111257,23.409324 L58.2715249,25.2625156 L58.3019966,26.189383 C58.3156,26.4778745 58.3221296,26.8641598 58.2622746,27.2086111 C58.2051402,27.5606686 58.0990335,27.9132694 57.9167476,28.2539176 C57.7344617,28.5864164 57.4683787,28.9373873 57.0118477,29.1460139 C56.901932,29.1992572 56.7735157,29.2323984 56.6467318,29.2557603 L56.4508424,29.2747757 L56.3343971,29.2780355 L55.8702482,29.2937912 L54.9419505,29.3231293 C53.7045829,29.369853 52.4672153,29.3959313 51.2293036,29.3769158 L43.8040097,29.3660499 L14.1022904,29.3660499 L14.5190993,29.2237056 L7.03667115,35.0092924 L5.94023505,35.8579248 L5.94023505,34.4725134 L5.94023505,28.6869266 L6.62040632,29.3660499 L3.67227194,29.3660499 L2.19766061,29.3660499 C2.12529038,29.36442 2.09971594,29.3687664 1.98871199,29.3627901 C1.8771639,29.3568138 1.76670408,29.3454045 1.66222978,29.3144365 C1.44783979,29.2622798 1.26500975,29.1628562 1.1055776,29.0525666 C0.793787088,28.8243812 0.589191568,28.5472989 0.434656653,28.26913 C0.133204743,27.7084458 0.0134945982,27.1205968 0.00206772069,26.538724 L-0.000111239894,25.0544322 L-0.000111239894,22.1108404 L-0.000111239894,10.3348433 L-0.000111239894,4.44711635 L-0.000111239894,2.97532045 C-0.000111239894,2.4130064 0.0907620553,1.81157485 0.363918841,1.2498041 C0.503217918,0.968918721 0.682783136,0.688033345 0.963013702,0.444092275 C1.10775415,0.324566583 1.26609802,0.209930579 1.46742872,0.133868775 C1.56102029,0.0904048868 1.67202424,0.0675863457 1.77704269,0.0431379087 C1.87335494,0.0273822494 2.02680158,0.0176028746 2.08012701,0.0186894718 L3.5541942,0.0186894718 L15.34782,0.0186894718 L38.9356158,0.0186894718 C39.9183273,0.0176028746 40.9010387,-0.00684556234 41.8837502,0.00945339562 L44.8324287,0.0974677686 L50.7292416,0.287622278 L53.677376,0.382699533 L55.1514432,0.429966511 L55.8887489,0.453871649 L56.2576738,0.46528092 L56.4415921,0.471257204 C56.5145065,0.479949982 56.5972153,0.481036579 56.6695855,0.502768523 C57.2882693,0.669561193 57.5880888,1.20579691 57.759492,1.67955329 C57.9363365,2.16852203 57.9575578,2.69986806 57.9270862,3.1861203 L57.8144498,6.13025541 L57.7018134,3.1861203 C57.6947397,2.69552167 57.6354287,2.22774157 57.4449808,1.80070888 C57.2675921,1.38725864 56.9503602,0.993367158 56.5787146,0.933604312 C56.5335513,0.922195041 56.4905644,0.928171326 56.4415921,0.923824937 L56.2576738,0.929801222 L55.8887489,0.941210492 L55.1514432,0.965115631 L53.677376,1.01292591 L50.7292416,1.10745986 L44.8324287,1.29761437 L41.8837502,1.38562875 C40.9010387,1.402471 39.9183273,1.37802257 38.9356158,1.37693597 L15.34782,1.37693597 L3.5541942,1.37693597 L2.08012701,1.37693597 C1.99905059,1.38128236 2.01918366,1.37802257 1.97347615,1.39432152 C1.94191621,1.4019277 1.90001765,1.43561222 1.85431014,1.46984003 C1.76180685,1.54698843 1.66440632,1.68498627 1.587683,1.84308617 C1.42988327,2.16689213 1.35860132,2.55915372 1.36023373,2.97532045 L1.36023373,4.44711635 L1.36023373,10.3348433 L1.36023373,22.1108404 L1.36023373,25.0544322 L1.36241028,26.5142755 C1.36621924,26.9114268 1.46144321,27.3107513 1.62631673,27.6149985 C1.70793729,27.7649489 1.81077918,27.8850179 1.89675283,27.9474972 C1.93973966,27.9746622 1.9756527,27.9963941 2.00177128,27.9991106 C2.0153747,28.0061735 2.02734572,28.003457 2.0387726,28.0056302 C2.04965534,28.0094333 2.1476,28.0067168 2.19766061,28.0078034 L3.67227194,28.0078034 L6.62040632,28.0078034 L7.3005776,28.0078034 L7.3005776,28.6869266 L7.3005776,34.4725134 L6.20359736,33.9357344 L13.6860256,28.1496043 L13.8699439,28.0078034 L14.1022904,28.0078034 L43.8040097,28.0078034 L51.2293036,27.9963941 C52.4672153,27.9773787 53.7045829,28.003457 54.9419505,28.0496374 L55.8702482,28.0795188 L56.3343971,28.0952745 L56.4856672,28.0985342 C56.5096092,28.0941879 56.5351837,28.096361 56.5645671,28.0822353 C56.6821007,28.0490941 56.8480625,27.9062065 56.9683167,27.7079026 C57.0918358,27.5112285 57.187604,27.2705472 57.2458266,27.0162834 C57.3568306,26.5381807 57.3214617,25.8720966 57.3573747,25.2625156 L57.4177739,23.409324 L57.5385723,19.7018544 C57.6109426,17.2309324 57.71977,14.759467 57.8144498,12.2880017" id="Fill-12" fill="#353A4A" mask="url(#mask-4)"></path>
                            </g>
                            <path d="M13.3273793,42.1442629 L13.3505642,40.8754629 L13.3737491,39.8506216 L13.3737491,39.7838426 L13.3737491,39.5614257 C13.3890173,39.4424084 13.3974996,39.3018495 13.3974996,39.1381333 C13.3974996,39.1085136 13.3737491,39.0713544 13.3273793,39.0271941 C13.2804439,38.9824953 13.257259,38.9458746 13.257259,38.9157164 L13.257259,38.8936362 C13.1786564,38.9232559 13.0384158,38.9377965 12.8365372,38.9377965 C12.6335277,38.9377965 12.3841483,38.9081768 12.088399,38.8489374 C11.9945282,38.8343969 11.7451488,38.7966991 11.3396952,38.7374597 L11.3396952,41.2982167 C11.3396952,41.6843498 11.3628801,42.2928999 11.4098155,43.1238669 C11.4567509,43.9408319 11.4799358,44.5493819 11.4799358,44.9500556 C11.4799358,45.1724725 11.4177323,45.3652698 11.2927598,45.5289859 C11.1683529,45.692702 11.0049274,45.773483 10.8019178,45.773483 C10.5061685,45.773483 10.2958076,45.4988277 10.1708352,44.9500556 C10.0458627,44.3856658 9.98365924,43.6510974 9.98365924,42.7452734 L10.0305946,40.9422419 C10.0458627,40.43763 10.0537795,39.9028599 10.0537795,39.3384702 L10.0537795,38.9604152 L10.0537795,38.6486006 C10.0537795,38.4111045 10.0458627,38.254928 10.0305946,38.181148 L10.0305946,38.0696702 L10.1007149,36.7777131 C10.1007149,36.2138619 10.07753,35.3753553 10.0305946,34.2616549 C9.98365924,33.148493 9.96047431,32.3099864 9.96047431,31.7455966 C9.96047431,31.5673399 10.0221123,31.4117019 10.1476502,31.278144 C10.2720572,31.1445861 10.4281314,31.0778072 10.6147419,31.0778072 C11.1135007,31.0778072 11.3628801,31.5226411 11.3628801,32.4139246 L11.3165103,35.1750185 C11.2854085,36.006524 11.2695749,36.9338897 11.2695749,37.9581925 C11.5031207,38.032511 11.924408,38.0696702 12.5323056,38.0696702 L13.3974996,38.0696702 C13.4286013,37.9808112 13.4438694,37.8914136 13.4438694,37.8020159 C13.4438694,37.0895277 13.3974996,36.0356052 13.3036289,34.6402484 C13.1950555,33.3342892 13.1402033,32.2728271 13.1402033,31.4558622 C13.1402033,31.2932231 13.2063652,31.1558955 13.3392545,31.0444177 C13.4710128,30.93294 13.6310454,30.8774704 13.8182213,30.8774704 C13.9273602,30.8774704 14.0834344,30.9140911 14.2858784,30.9884096 L14.4962393,31.0778072 C14.4962393,33.1856522 14.5742764,35.9989845 14.7297851,39.5167269 L14.9407115,45.1503924 C14.9407115,45.3582688 14.858716,45.5214464 14.6952904,45.6399251 C14.5312994,45.759481 14.3401651,45.8181818 14.1218874,45.8181818 C13.5920268,45.8181818 13.3273793,44.5935422 13.3273793,42.1442629" id="Fill-15" fill="#353A4A"></path>
                            <path d="M21.9660042,40.7788715 C21.9660042,39.4590395 21.8440842,37.7725283 21.6013477,35.7177415 L21.3729546,33.429323 C20.7186692,36.8773842 20.2701583,39.4808593 20.02687,41.2413449 C20.2552631,41.3882295 20.923892,41.5053113 22.0344118,41.5931227 C21.9886228,41.3733281 21.9660042,41.1019111 21.9660042,40.7788715 M22.7642765,45.6643788 C22.5971193,45.5616661 22.5132648,45.3706097 22.5132648,45.091742 C22.5132648,44.6516206 22.4371338,43.9038932 22.2854234,42.8474954 L22.1938456,42.3855542 L19.9358438,42.055064 C19.8448176,42.3930048 19.7151742,43.0747406 19.548017,44.101868 C19.4569908,44.8208571 19.3119005,45.2971675 19.1149529,45.5323956 C19.0084798,45.6643788 18.8556661,45.7303704 18.6587185,45.7303704 C18.4761144,45.7303704 18.3084055,45.6750226 18.1566951,45.5648592 C18.0044331,45.4546958 17.9288538,45.3195195 17.9288538,45.1582658 L17.9746427,45.0475702 L17.9972613,44.9597588 C19.0007564,41.1897225 19.7609632,37.4713086 20.2778817,33.803985 C20.2778817,33.7454441 20.2856051,33.6464567 20.3005003,33.5064906 C20.3159472,33.3675889 20.3313941,33.1653566 20.3462893,32.9013902 C20.3920782,32.3590882 20.4411772,31.9258853 20.4946896,31.603378 C20.548202,31.2808706 20.6353665,31.038724 20.7572864,30.8774704 L21.5329401,30.8774704 C21.7458863,30.8774704 21.9279387,30.9248353 22.0802007,31.0200974 C22.2319111,31.1158916 22.3080421,31.2516002 22.3080421,31.427223 C22.3080421,32.5421617 22.4680275,34.1999346 22.7868951,36.4000095 C23.0914192,38.6596896 23.2431295,40.2434881 23.2431295,41.1530013 C23.2431295,41.2413449 23.281195,41.4685902 23.357326,41.8352694 C23.4334571,42.172678 23.4715226,42.3930048 23.4715226,42.4957176 C23.4715226,42.5984303 23.5471019,43.0380195 23.6999156,43.8155496 C23.8367308,44.5196374 23.9051383,44.9746601 23.9051383,45.1800856 L23.9051383,45.2024376 C23.9051383,45.5249449 23.7832184,45.7303704 23.5399301,45.8181818 C23.1901688,45.8181818 22.9314337,45.7665594 22.7642765,45.6643788" id="Fill-17" fill="#353A4A"></path>
                            <path d="M26.2729561,45.5538199 C26.0407293,45.7003915 25.793758,45.7744768 25.5325687,45.7744768 C25.358267,45.7744768 25.2092417,45.6977266 25.0860193,45.5426272 C24.962797,45.3885937 24.9011858,45.2233675 24.9011858,45.0474816 C24.9011858,43.8130821 24.9517385,42.167749 25.0538972,40.1109494 C25.1407848,37.9219689 25.1844919,36.2835647 25.1844919,35.1962698 L25.1844919,35.0422363 C25.0970777,34.1164367 25.0538972,33.4262176 25.0538972,32.9710461 C25.0538972,31.5751513 25.3071877,30.8774704 25.8158748,30.8774704 C25.9601609,30.8774704 26.087596,30.9318351 26.1966004,31.0421636 C26.3056047,31.152492 26.3598437,31.281475 26.3598437,31.4280467 C26.3598437,31.6044656 26.3382534,31.8837512 26.2945463,32.2653704 C26.2508393,32.6331319 26.229249,32.9118844 26.229249,33.103227 C26.229249,34.0871223 26.2366213,34.9761458 26.2508393,35.7697645 C26.2650572,36.5484596 26.2729561,37.4300213 26.2729561,38.4139166 C26.1997599,38.6345735 26.1639517,38.9431734 26.1639517,39.3397162 L26.1639517,39.6040781 L26.1202446,41.345349 C26.0907555,41.8591491 26.0770641,42.4470346 26.0770641,43.1079393 C26.0770641,44.121149 26.3161366,44.6285533 26.7953347,44.6285533 C26.8242972,44.6285533 26.8716904,44.6253553 26.9369877,44.6173605 C27.002285,44.6098987 27.0928587,44.6067008 27.2087088,44.6067008 C27.3393035,44.5917771 27.5062329,44.5843153 27.7100237,44.5843153 C28.4935916,44.5843153 28.8853755,44.8049722 28.8853755,45.245753 C28.8853755,45.3923246 28.8200782,45.5175768 28.6894835,45.6199104 C28.5588889,45.722777 28.3988051,45.7888675 28.210812,45.8181818 C27.6884335,45.6422959 27.0417794,45.5538199 26.2729561,45.5538199" id="Fill-19" fill="#353A4A"></path>
                            <path d="M33.2452881,45.5538199 C33.0130613,45.7003915 32.76609,45.7744768 32.5049007,45.7744768 C32.330599,45.7744768 32.1815737,45.6977266 32.0583513,45.5426272 C31.935129,45.3885937 31.8735178,45.2233675 31.8735178,45.0474816 C31.8735178,43.8130821 31.9240706,42.167749 32.0262293,40.1109494 C32.1131168,37.9219689 32.1568239,36.2835647 32.1568239,35.1962698 L32.1568239,35.0422363 C32.0694097,34.1164367 32.0262293,33.4262176 32.0262293,32.9710461 C32.0262293,31.5751513 32.2795197,30.8774704 32.7882069,30.8774704 C32.9324929,30.8774704 33.059928,30.9318351 33.1689324,31.0421636 C33.2779368,31.152492 33.3321757,31.281475 33.3321757,31.4280467 C33.3321757,31.6044656 33.3105854,31.8837512 33.2668783,32.2653704 C33.2231713,32.6331319 33.201581,32.9118844 33.201581,33.103227 C33.201581,34.0871223 33.2089533,34.9761458 33.2231713,35.7697645 C33.2373892,36.5484596 33.2452881,37.4300213 33.2452881,38.4139166 C33.1720919,38.6345735 33.1362837,38.9431734 33.1362837,39.3397162 L33.1362837,39.6040781 L33.0925766,41.345349 C33.0630875,41.8591491 33.0493961,42.4470346 33.0493961,43.1079393 C33.0493961,44.121149 33.2884686,44.6285533 33.7676667,44.6285533 C33.7966292,44.6285533 33.8440224,44.6253553 33.9093197,44.6173605 C33.974617,44.6098987 34.0651907,44.6067008 34.1810408,44.6067008 C34.3116355,44.5917771 34.4785649,44.5843153 34.6823557,44.5843153 C35.4659236,44.5843153 35.8577075,44.8049722 35.8577075,45.245753 C35.8577075,45.3923246 35.7924102,45.5175768 35.6618155,45.6199104 C35.5312209,45.722777 35.3711372,45.7888675 35.1831441,45.8181818 C34.6607655,45.6422959 34.0141114,45.5538199 33.2452881,45.5538199" id="Fill-21" fill="#353A4A"></path>
                            <path d="M40.4437026,45.513042 C40.6712345,45.290793 40.8449062,44.9877768 40.9663664,44.6034363 C41.2543537,43.8202731 41.428575,42.9758382 41.4890303,42.0701317 C41.5648743,41.2869685 41.6022466,40.6113091 41.6022466,40.0437108 C41.6022466,39.352455 41.5494856,38.4467485 41.443414,37.3260341 C41.352731,36.1440481 41.3071147,35.2611792 41.3071147,34.6774273 L41.3071147,34.2630081 C41.276887,33.6792563 41.08343,33.1729296 40.7278427,32.7423569 C40.3717058,32.3128983 39.9358778,32.0978904 39.4214579,32.0978904 C38.9059387,32.0978904 38.5651905,32.3970075 38.3986635,32.9957988 C38.2469756,33.4720467 38.1711316,34.0864343 38.1711316,34.8384047 C38.1711316,35.1302806 38.1788259,35.3764813 38.1942146,35.5753357 L38.1942146,36.1969645 L38.1485983,37.2569642 C38.1183706,37.579476 38.102982,37.9326236 38.102982,38.3158499 C38.102982,39.1452454 38.1260649,39.9668427 38.1711316,40.7806417 C38.2321366,41.9319919 38.3832749,43.0527063 38.6256458,44.1427849 C38.8680168,45.2790956 39.2241536,45.847251 39.6940565,45.847251 C39.9666551,45.847251 40.2167203,45.735848 40.4437026,45.513042 M38.6937955,46.434345 C38.3607415,46.1809031 38.0881429,45.8394528 37.8759997,45.4094372 C37.4363245,44.4730948 37.1637259,43.4520861 37.0582039,42.3464112 C36.9219046,41.3025649 36.8537549,40.2971526 36.8537549,39.3290604 C36.8537549,39.1452454 36.8603501,38.9920663 36.8762883,38.8689659 L36.8762883,38.4539897 C36.8762883,38.3776786 36.8680444,38.3392446 36.8537549,38.3392446 L36.8537549,37.9248253 L36.8762883,36.3122666 C36.8911273,35.8215363 36.9515827,35.0378161 37.0582039,33.963334 C37.1340479,33.225846 37.3077195,32.5123097 37.5803181,31.8216109 C37.6863898,31.5146956 37.8226891,31.2801923 37.9897656,31.1186579 C38.1562926,30.9576805 38.3453529,30.8774704 38.5574962,30.8774704 C39.1636983,30.8774704 39.7088955,30.9888734 40.1936374,31.2111224 C40.6783792,31.4339284 41.0878267,31.7447429 41.4208806,32.1441227 C41.7237069,32.5279061 41.9814665,32.9996979 42.1936097,33.5600551 C42.4052034,34.1209693 42.5574409,34.7158614 42.6481239,35.3452884 C42.7388069,35.9897549 42.7844232,36.6732124 42.7844232,37.395104 L42.7844232,37.579476 C42.7844232,38.0551669 42.7915679,38.4851825 42.8069566,38.8689659 L42.8300395,40.1818505 C42.8300395,44.6034363 41.8143899,46.8142292 39.7847395,46.8142292 C39.3906806,46.8142292 39.027399,46.6877868 38.6937955,46.434345" id="Fill-23" fill="#353A4A"></path>
                            <path d="M47.5306037,41.3699994 C47.3963173,40.9764472 47.3291741,40.3940778 47.3291741,39.6223423 C47.3291741,39.3500942 47.343794,38.8363358 47.3735753,38.0794202 C47.403898,37.5195552 47.4185179,36.8987637 47.4185179,36.2181435 L47.3735753,32.4966878 L47.3291741,28.7746832 C47.3291741,28.5326239 47.4260986,28.3240468 47.6199474,28.1505984 C47.8137963,27.9766011 48.0303872,27.8893281 48.2691787,27.8893281 C48.4186264,27.8893281 48.5453321,27.9425701 48.6498372,28.0479565 C48.7543423,28.1544406 48.8063241,28.2905647 48.8063241,28.4568775 C48.8063241,29.7879291 48.7321417,31.5965127 48.582694,33.8804326 C48.4186264,36.4075096 48.3363218,38.2155443 48.3363218,39.3045366 C48.3363218,40.1070098 48.3254923,40.685537 48.3032917,41.040667 C48.2805497,41.3968949 48.2426463,41.6345631 48.1912059,41.7558671 C48.1386826,41.8771712 48.0601684,41.9375488 47.9556633,41.9375488 C47.8067571,41.9375488 47.66489,41.7481827 47.5306037,41.3699994 M47.0492304,45.5684381 C46.892202,45.4021253 46.8142292,45.1979392 46.8142292,44.9558799 C46.8142292,44.6836318 46.903573,44.4454148 47.082802,44.2406798 C47.2620309,44.0364937 47.4780804,43.9344007 47.7320332,43.9344007 C48.0006059,43.9344007 48.2204457,44.0364937 48.3926355,44.2406798 C48.5637423,44.4454148 48.6498372,44.7061362 48.6498372,45.0239419 C48.6498372,45.5530693 48.28434,45.8181818 47.5528042,45.8181818 C47.3735753,45.8181818 47.2057173,45.734751 47.0492304,45.5684381" id="Fill-25" fill="#353A4A"></path>
                            <path d="M50.075641,17.6371082 C49.8934614,17.4417544 49.8023715,17.2213388 49.8023715,16.9726482 C49.8023715,16.7072498 49.9020423,16.4681984 50.1027039,16.2554941 C50.3027055,16.0427897 50.539011,15.9367589 50.8122805,15.9367589 C51.0670679,15.9367589 51.2941324,16.0427897 51.494134,16.2554941 C51.6947957,16.4681984 51.7944664,16.6982532 51.7944664,16.9463012 C51.7944664,17.2296927 51.6895151,17.4636032 51.4809326,17.6506031 C51.27169,17.8363177 51.012282,17.9288538 50.7027086,17.9288538 C50.4664032,17.9288538 50.2565005,17.8318195 50.075641,17.6371082" id="Fill-27" fill="#353A4A"></path>
                            <path d="M56.0519256,17.6371082 C55.869746,17.4417544 55.7786561,17.2213388 55.7786561,16.9726482 C55.7786561,16.7072498 55.8783269,16.4681984 56.0789885,16.2554941 C56.2789901,16.0427897 56.5152956,15.9367589 56.7885651,15.9367589 C57.0433525,15.9367589 57.270417,16.0427897 57.4704186,16.2554941 C57.6710802,16.4681984 57.770751,16.6982532 57.770751,16.9463012 C57.770751,17.2296927 57.6657997,17.4636032 57.4572172,17.6506031 C57.2479746,17.8363177 56.9885666,17.9288538 56.6789932,17.9288538 C56.4426877,17.9288538 56.2327851,17.8318195 56.0519256,17.6371082" id="Fill-29" fill="#353A4A"></path>
                            <path d="M63.0242576,17.6371082 C62.842078,17.4417544 62.7509881,17.2213388 62.7509881,16.9726482 C62.7509881,16.7072498 62.8506589,16.4681984 63.0513205,16.2554941 C63.2513221,16.0427897 63.4876276,15.9367589 63.7608971,15.9367589 C64.0156845,15.9367589 64.242749,16.0427897 64.4427506,16.2554941 C64.6434123,16.4681984 64.743083,16.6982532 64.743083,16.9463012 C64.743083,17.2296927 64.6381317,17.4636032 64.4295492,17.6506031 C64.2203066,17.8363177 63.9608986,17.9288538 63.6513253,17.9288538 C63.4150198,17.9288538 63.2051171,17.8318195 63.0242576,17.6371082" id="Fill-31" fill="#353A4A"></path>
                        </g>
                    </g>
                </g>
            </g>
        </g>
    </g>
</svg>