<?xml version="1.0" encoding="UTF-8"?>
<svg width="61px" height="40px" viewBox="0 0 61 40" version="1.1" xmlns="http://www.w3.org/2000/svg" xmlns:xlink="http://www.w3.org/1999/xlink">
    <title>1C3EF566-75F0-4DDB-94D9-B3CD33F6306A</title>
    <defs>
        <polygon id="path-1" points="0 0.169998866 57.2165606 0.169998866 57.2165606 34.0803383 0 34.0803383"></polygon>
        <polygon id="path-3" points="0.0998716065 0.311863322 57.4531005 0.311863322 57.4531005 35.1096438 0.0998716065 35.1096438"></polygon>
    </defs>
    <g id="------00.34-Nächste-Schritte-Optimierung" stroke="none" stroke-width="1" fill="none" fill-rule="evenodd">
        <g id="CUX-Proto_10-Nächste-Schritte_Design_Desktop" transform="translate(-320.000000, -296.000000)">
            <g id="Bot-Antwort-" transform="translate(139.000000, 166.000000)">
                <g id="Group-4" transform="translate(24.500000, 83.000000)">
                    <g id="PFEIL" transform="translate(156.696970, 47.000000)">
                        <g id="Group-3" transform="translate(0.000000, 4.510218)">
                            <mask id="mask-2" fill="white">
                                <use xlink:href="#path-1"></use>
                            </mask>
                            <g id="Clip-2"></g>
                            <path d="M-5.39540153e-05,21.8710097 L-5.39540153e-05,24.0971185 C-5.39540153e-05,24.8227457 0.454238855,25.4167849 1.00942567,25.4167849 L4.22616406,25.4167849 L5.93488773,25.4167849 L8.63258849,25.4167849 L28.9014934,25.4167849 L28.9014934,28.7344112 L28.9014934,29.6025132 L28.9014934,30.7858582 L28.9014934,32.3810074 C28.9014934,33.7087206 30.5616585,34.5219153 31.8495408,33.8256351 L56.2971842,18.569477 C57.5230194,17.9068037 57.5230194,16.3433682 56.2971842,15.680695 L31.8495408,0.42453688 C30.5616585,-0.271270026 28.9014934,0.541451374 28.9014934,1.86916455 L28.9014934,8.83338701 L1.00942567,8.83338701 C0.454238855,8.83338701 -5.39540153e-05,9.42742624 -5.39540153e-05,10.1530534 L-5.39540153e-05,18.5491234 L-5.39540153e-05,20.4509957" id="Fill-1" fill-opacity="0.2" fill="#3F88C5" mask="url(#mask-2)"></path>
                        </g>
                        <path d="M1.80408739,22.8383284 L1.80408739,25.0880648 C1.80408739,25.8220281 2.26246273,26.4220216 2.82263878,26.4220216 L6.06828465,26.4220216 L7.7923639,26.4220216 L10.5143078,26.4220216 L30.9653609,26.4220216 L30.9653609,29.7755738 L30.9653609,30.6535548 L30.9653609,31.8492356 L30.9653609,33.4621368 C30.9653609,34.8042275 32.6404451,35.6262282 33.9399011,34.9219296 L58.6072452,19.5005655 C59.8440965,18.8311948 59.8440965,17.2503507 58.6072452,16.5809799 L33.9399011,1.15961587 C32.6404451,0.45579574 30.9653609,1.27731794 30.9653609,2.61940867 L30.9653609,9.65904533 L2.82263878,9.65904533 C2.26246273,9.65904533 1.80408739,10.2595173 1.80408739,10.9930022 L1.80408739,19.48047 L1.80408739,21.4029373" id="Fill-4" fill="#FFFFFF"></path>
                        <g id="Group-8" transform="translate(1.804087, 0.000000)">
                            <mask id="mask-4" fill="white">
                                <use xlink:href="#path-3"></use>
                            </mask>
                            <g id="Clip-7"></g>
                            <path d="M0.409728291,22.6005353 L0.41935009,24.3856676 C0.426299167,24.6851704 0.398502858,24.9832471 0.479753608,25.2608815 C0.55512437,25.5370898 0.710142249,25.8090194 0.961912667,25.9730329 C1.0875306,26.0533757 1.23025396,26.099965 1.38634093,26.0942602 L1.88827813,26.0918832 L2.89215253,26.0866538 L4.89936679,26.0771458 L12.9298275,26.0386382 L28.9902143,25.9620986 L29.2131193,25.9611478 L29.2147229,26.1612918 L29.2435883,31.0094353 L29.251072,32.2212335 L29.2542792,32.8273703 L29.2564174,33.130201 C29.2633665,33.2243305 29.2660392,33.3070503 29.2810064,33.3945242 C29.3921917,34.0914627 30.148572,34.6329449 30.930076,34.6139288 C31.1225119,34.6039454 31.316017,34.5787491 31.4945549,34.5102913 C31.5886347,34.4846196 31.6624018,34.4342271 31.7484634,34.3999982 L32.0248229,34.2250505 L33.1323989,33.518604 L35.3470164,32.1052356 L39.7767859,29.2789742 L48.636325,23.6264515 L53.0660945,20.8006656 L55.2812466,19.3872972 L55.8350346,19.0340739 C56.0189179,18.920453 56.1573649,18.8344053 56.2717574,18.7093748 C56.508026,18.4702479 56.6299021,18.1531551 56.6331094,17.8336854 C56.6261603,17.5142156 56.5005424,17.1994999 56.2637392,16.9646516 C56.1482776,16.8415227 56.0108997,16.757852 55.8254128,16.6456573 L55.2689521,16.2962372 L53.0409709,14.9004587 L48.5839397,12.1112787 L39.6693425,6.53196777 L35.2155185,3.73803371 L32.9902101,2.33940278 L31.8778232,1.63961191 L31.6014637,1.4675166 C31.5298348,1.44279573 31.4753113,1.40191121 31.3951296,1.38146894 C31.2459917,1.32442078 31.0856284,1.30683092 30.9263341,1.2987491 C30.2795354,1.29066728 29.6503766,1.7394462 29.5627114,2.3123049 C29.5504168,2.38646752 29.5488132,2.4501713 29.5423987,2.53716976 L29.5418641,2.84000046 L29.5402605,3.44613725 L29.5375878,4.65793543 L29.5258278,9.50560357 L29.5247587,9.98575899 L28.9902143,9.98243118 L18.6809908,9.91730118 L8.37176729,9.83600754 L3.21715553,9.77753317 L1.92836896,9.76279573 C1.72738026,9.76184492 1.46866077,9.7547139 1.31417743,9.75899251 C1.19016313,9.76659894 1.05759612,9.83553214 0.947479968,9.94772687 C0.726178582,10.1759195 0.611786078,10.5177332 0.612320622,10.8595468 L0.590938846,12.0057396 C0.532673505,15.0620952 0.441800955,18.1179754 0.409728291,21.1743311 L0.302819409,21.1743311 C0.270746744,18.1179754 0.179874194,15.0620952 0.121608853,12.0057396 L0.0998716065,10.8595468 C0.0927434552,10.4430951 0.202325059,9.99621782 0.533208049,9.63301114 C0.698382272,9.45568642 0.946410879,9.29357454 1.254843,9.26219805 C1.52852974,9.2474606 1.70065304,9.25411622 1.92836896,9.24888681 L3.21715553,9.23414936 L8.37176729,9.17567499 L18.6809908,9.09438135 L28.9902143,9.02925136 L28.4546008,9.50560357 L28.4428408,4.65793543 L28.4401681,3.44613725 L28.439099,2.84000046 L28.4380299,2.53716976 C28.4433754,2.42259802 28.4487208,2.28283001 28.4706371,2.15827484 C28.637415,1.10335912 29.7540783,0.283767099 30.9407668,0.312291183 C31.2342317,0.323225416 31.5298348,0.366011542 31.8003143,0.46679664 C31.9376922,0.50720576 32.0723974,0.584696189 32.2054989,0.646498372 L32.4856002,0.823347694 L33.5942453,1.52931878 L35.8104664,2.94031015 L40.240236,5.76609611 L49.0933605,11.427176 L53.5199227,14.257716 L55.7345402,15.6720352 L56.2877937,16.0252584 C56.477557,16.1403056 56.7164983,16.2895816 56.8918289,16.4797422 C57.2595954,16.8529323 57.4509623,17.3449727 57.4531005,17.8336854 C57.4472205,18.3219226 57.2521118,18.8115861 56.8832762,19.180973 C56.7074111,19.3697073 56.4695388,19.516131 56.2787064,19.6302273 L55.7222457,19.9791719 L53.4953337,21.3763767 L49.0409751,24.1698353 L40.1333271,29.757228 L35.6789685,32.5511621 L33.4520565,33.9478914 L32.3386005,34.6462561 L32.0584992,34.8207284 C31.9398303,34.8730226 31.8243688,34.941005 31.700889,34.9757093 C31.4592749,35.0650847 31.1973482,35.1007398 30.937025,35.1096438 C29.8855762,35.1278377 28.8961345,34.4004736 28.752342,33.4691622 C28.7330984,33.3579183 28.7293566,33.2376417 28.7240112,33.130201 L28.7261493,32.8273703 L28.7293566,32.2212335 L28.7368402,31.0094353 L28.7662402,26.1612918 L28.9902143,26.3609604 L12.9298275,26.2844208 L4.89936679,26.2459133 L2.89215253,26.2359298 L1.88827813,26.2316512 L1.38634093,26.2292742 C1.20513037,26.2354544 1.01750529,26.1741276 0.875316472,26.0776212 C0.584524313,25.8822312 0.426299167,25.5846299 0.348255683,25.2884548 C0.264866755,24.9846733 0.298543053,24.6794656 0.293732154,24.3856676 L0.302819409,22.6005353 L0.409728291,22.6005353 Z" id="Fill-6" fill="#353A4A" mask="url(#mask-4)"></path>
                        </g>
                    </g>
                </g>
            </g>
        </g>
    </g>
</svg>