<svg width="201" height="200" viewBox="0 0 201 200" fill="none" xmlns="http://www.w3.org/2000/svg">
<path opacity="0.05" d="M100.433 200C155.661 200 200.433 155.228 200.433 100C200.433 44.7715 155.661 0 100.433 0C45.2044 0 0.432892 44.7715 0.432892 100C0.432892 155.228 45.2044 200 100.433 200Z" fill="black"/>
<g opacity="0.05">
<path opacity="0.05" d="M100.384 200C155.612 200 200.384 155.228 200.384 100C200.384 44.7715 155.612 0 100.384 0C45.1552 0 0.383636 44.7715 0.383636 100C0.383636 155.228 45.1552 200 100.384 200Z" fill="black"/>
</g>
<path d="M141.516 69.7314C141.516 77.6368 123.411 84.0418 101.08 84.0418C78.749 84.0418 60.6475 77.6432 60.6475 69.7314C60.6475 61.8196 78.749 55.4211 101.08 55.4211C123.411 55.4211 141.516 61.8132 141.516 69.7314Z" fill="#C3C3C3"/>
<path d="M60.6475 69.7314C60.6475 77.6368 78.749 84.0418 101.08 84.0418C123.411 84.0418 141.516 77.6432 141.516 69.7314L135.635 150.088C135.635 156.749 120.375 162.152 101.547 162.152C82.7193 162.152 67.4588 156.752 67.4588 150.088L60.6475 69.7314Z" fill="#808080"/>
<path d="M68.7353 73.6985C74.2796 77.6912 86.68 80.4714 101.099 80.4714C114.443 80.4714 126.054 78.0911 132.116 74.5719C113.874 65.7579 79.5233 71.555 68.7353 73.6985Z" fill="#464646"/>
<path d="M136.56 69.0148C136.56 62.6898 120.685 57.5614 101.099 57.5614C81.5132 57.5614 65.6384 62.6802 65.6384 69.0148C65.6384 70.6848 66.7517 72.2684 68.7353 73.6985C79.5232 71.555 113.874 65.7579 132.116 74.5719C134.944 72.9307 136.56 71.0303 136.56 69.0148Z" fill="#808080"/>
<path d="M65.1745 42.9375C72.7696 47.3685 85.4419 48.8274 96.0379 50.491C104.676 51.8443 113.173 53.1944 120.352 56.0161C124.703 57.7309 128.709 60.2328 127.554 63.8703C126.793 66.2666 123.6 68.5445 119.917 69.949C117.409 70.8912 114.837 71.6525 112.22 72.2269C115.958 71.9573 119.678 71.4777 123.363 70.7904C128.405 69.8306 133.527 68.0038 136.058 65.7963C139.897 62.4403 137.267 59.6185 133.693 57.5134C127.813 54.055 119.389 51.8443 110.857 49.624C100.376 46.8982 87.4703 44.1436 82.2522 39.0952C79.4177 36.3534 79.0882 32.8246 86.5969 29.7341C93.744 26.7939 101.371 26.3076 108.502 26.5604C91.7093 21.8383 68.3066 28.9215 62.9894 33.3972C58.5584 37.1212 61.0538 40.5348 65.1745 42.9375Z" fill="white"/>
<path d="M136.56 89.5669C136.56 89.5669 157.451 90.9906 157.445 103.666C157.445 104.306 157.512 113.437 157.445 114.064C157.071 117.743 154.786 133.199 133.706 131.359" stroke="#808080" stroke-width="18.1373" stroke-miterlimit="10"/>
<path d="M66.2495 168.394C80.9307 168.394 92.8323 156.492 92.8323 141.811C92.8323 127.13 80.9307 115.228 66.2495 115.228C51.5682 115.228 39.6667 127.13 39.6667 141.811C39.6667 156.492 51.5682 168.394 66.2495 168.394Z" fill="#0A882F"/>
<path d="M65.8207 159.583C62.2969 159.583 58.8522 158.538 55.9223 156.58C52.9923 154.623 50.7087 151.84 49.3602 148.585C48.0117 145.329 47.6589 141.747 48.3463 138.29C49.0338 134.834 50.7307 131.66 53.2224 129.168C55.7141 126.676 58.8888 124.979 62.3449 124.292C65.801 123.604 69.3833 123.957 72.6389 125.306C75.8945 126.654 78.6771 128.938 80.6348 131.868C82.5926 134.798 83.6375 138.242 83.6375 141.766C83.6324 146.49 81.7537 151.019 78.4135 154.359C75.0733 157.699 70.5445 159.578 65.8207 159.583ZM50.2211 142.857C50.3585 144.919 50.9078 146.933 51.8367 148.779L52.7645 150.379C53.9319 152.15 55.447 153.665 57.2179 154.832L58.8175 155.757C60.6622 156.684 62.6733 157.233 64.733 157.372V155.712C64.733 155.423 64.8479 155.145 65.0525 154.941C65.2571 154.736 65.5346 154.621 65.8239 154.621C65.9676 154.62 66.11 154.647 66.2429 154.701C66.3759 154.756 66.4967 154.836 66.5982 154.938C66.6998 155.039 66.7801 155.16 66.8345 155.293C66.8888 155.426 66.9162 155.568 66.9149 155.712V157.372C68.9759 157.232 70.9882 156.682 72.8336 155.754L74.4332 154.826C76.2019 153.659 77.7148 152.145 78.8802 150.376L79.808 148.776C80.7311 146.932 81.2751 144.922 81.4076 142.864H79.76C79.4813 142.849 79.219 142.727 79.027 142.525C78.8351 142.322 78.7281 142.053 78.7281 141.774C78.7281 141.495 78.8351 141.227 79.027 141.024C79.219 140.821 79.4813 140.7 79.76 140.685H81.4236C81.2863 138.622 80.7358 136.609 79.8048 134.763L78.8802 133.163C77.7125 131.394 76.1974 129.88 74.4268 128.713L72.8272 127.789C70.9847 126.862 68.9757 126.313 66.9181 126.173V127.837C66.903 128.115 66.7816 128.378 66.579 128.57C66.3764 128.762 66.1079 128.869 65.8287 128.869C65.5496 128.869 65.2811 128.762 65.0785 128.57C64.8759 128.378 64.7545 128.115 64.7394 127.837V126.173C62.6773 126.313 60.6639 126.863 58.8175 127.792L57.2179 128.72C55.4482 129.887 53.9341 131.402 52.7677 133.173L51.8431 134.773C50.9203 136.617 50.3764 138.627 50.2435 140.685H51.9039C52.1826 140.7 52.4449 140.821 52.6369 141.024C52.8288 141.227 52.9358 141.495 52.9358 141.774C52.9358 142.053 52.8288 142.322 52.6369 142.525C52.4449 142.727 52.1826 142.849 51.9039 142.864L50.2211 142.857ZM69.5863 147.154C69.2943 147.153 69.014 147.039 68.8057 146.834L65.0113 143.04C64.8056 142.831 64.6907 142.549 64.6914 142.256V132.773C64.7066 132.489 64.8301 132.222 65.0363 132.027C65.2425 131.832 65.5158 131.723 65.7999 131.723C66.0841 131.723 66.3574 131.832 66.5636 132.027C66.7698 132.222 66.8933 132.489 66.9085 132.773V141.795L70.3733 145.263C70.5288 145.418 70.6346 145.616 70.6774 145.831C70.7202 146.047 70.698 146.27 70.6136 146.472C70.5293 146.675 70.3866 146.848 70.2036 146.969C70.0207 147.091 69.8058 147.155 69.5863 147.154Z" fill="white"/>
<path d="M65.8207 124.119C69.3126 124.122 72.7254 125.16 75.6275 127.102C78.5296 129.043 80.7907 131.802 82.125 135.029C83.4592 138.256 83.8067 141.806 83.1234 145.231C82.4402 148.655 80.7569 151.8 78.2864 154.268C75.8159 156.736 72.6691 158.416 69.244 159.095C65.8188 159.775 62.2691 159.423 59.0436 158.086C55.8181 156.748 53.0616 154.484 51.1228 151.58C49.184 148.675 48.1498 145.261 48.1511 141.77C48.152 139.45 48.6097 137.154 49.4982 135.012C50.3867 132.869 51.6886 130.923 53.3295 129.284C54.9703 127.645 56.918 126.345 59.0613 125.459C61.2046 124.573 63.5015 124.117 65.8207 124.119ZM65.8207 128.764C65.5746 128.764 65.3388 128.666 65.1645 128.492C64.9901 128.318 64.8914 128.083 64.8897 127.837V126.004C62.7491 126.124 60.6556 126.68 58.7375 127.638L57.1379 128.569C55.3462 129.752 53.8127 131.285 52.6301 133.077L51.6991 134.677C50.7347 136.593 50.1739 138.687 50.0515 140.829H51.8847C52.1217 140.843 52.3445 140.947 52.5074 141.12C52.6704 141.292 52.7611 141.521 52.7611 141.758C52.7611 141.996 52.6704 142.224 52.5074 142.397C52.3445 142.57 52.1217 142.674 51.8847 142.688H50.0515C50.1739 144.83 50.7347 146.924 51.6991 148.84L52.6301 150.44C53.8112 152.23 55.3424 153.762 57.1315 154.944L58.7311 155.875C60.6495 156.837 62.7441 157.396 64.8865 157.52V155.686C64.8874 155.44 64.9858 155.204 65.1603 155.03C65.3348 154.856 65.5712 154.759 65.8175 154.759C65.9399 154.757 66.0612 154.78 66.1746 154.827C66.2879 154.873 66.3909 154.941 66.4775 155.027C66.5642 155.114 66.6328 155.216 66.6793 155.33C66.7258 155.443 66.7494 155.564 66.7485 155.686V157.52C68.8889 157.396 70.9814 156.837 72.8975 155.875L74.4972 154.944C76.2863 153.762 77.8175 152.23 78.9985 150.44L79.9295 148.84C80.8941 146.924 81.4539 144.83 81.574 142.688H79.76C79.6333 142.695 79.5065 142.677 79.3873 142.633C79.2681 142.59 79.159 142.523 79.0667 142.436C78.9744 142.349 78.9009 142.244 78.8506 142.127C78.8004 142.011 78.7744 141.885 78.7744 141.758C78.7744 141.631 78.8004 141.506 78.8506 141.39C78.9009 141.273 78.9744 141.168 79.0667 141.081C79.159 140.994 79.2681 140.927 79.3873 140.883C79.5065 140.84 79.6333 140.822 79.76 140.829H81.59C81.4699 138.687 80.9101 136.593 79.9455 134.677L79.0145 133.077C77.8335 131.287 76.3022 129.755 74.5131 128.573L72.9135 127.642C70.9974 126.68 68.9049 126.12 66.7645 125.997V127.83C66.7645 128.076 66.6668 128.312 66.4928 128.486C66.3188 128.66 66.0828 128.758 65.8367 128.758L65.8207 128.764ZM65.7983 131.826C66.0529 131.826 66.297 131.927 66.477 132.107C66.657 132.287 66.7581 132.531 66.7581 132.786V141.872L70.2773 145.391C70.3896 145.473 70.483 145.578 70.5508 145.699C70.6187 145.82 70.6595 145.954 70.6704 146.092C70.6814 146.231 70.6622 146.37 70.6141 146.5C70.5661 146.63 70.4904 146.748 70.3923 146.847C70.2942 146.945 70.1759 147.02 70.0457 147.068C69.9155 147.116 69.7764 147.136 69.638 147.125C69.4997 147.114 69.3653 147.073 69.2443 147.005C69.1232 146.937 69.0183 146.844 68.9368 146.732L65.1073 142.924C65.0186 142.837 64.9483 142.732 64.9006 142.617C64.8528 142.501 64.8284 142.377 64.8289 142.253V132.773C64.8289 132.519 64.9301 132.274 65.1101 132.095C65.2901 131.915 65.5342 131.813 65.7887 131.813L65.7983 131.826ZM65.8271 123.78C62.2717 123.78 58.796 124.834 55.8398 126.81C52.8835 128.785 50.5794 131.593 49.2188 134.877C47.8582 138.162 47.5022 141.777 48.1958 145.264C48.8894 148.751 50.6016 151.954 53.1156 154.468C55.6297 156.982 58.8329 158.694 62.32 159.388C65.8072 160.082 69.4217 159.726 72.7065 158.365C75.9913 157.004 78.7989 154.7 80.7742 151.744C82.7495 148.788 83.8039 145.312 83.8039 141.757C83.7937 136.993 81.895 132.427 78.5239 129.061C75.1529 125.695 70.5847 123.803 65.8207 123.799L65.8271 123.78ZM58.8975 127.91C60.6713 127.02 62.6009 126.482 64.5794 126.327V127.817C64.5956 128.138 64.7343 128.44 64.9668 128.661C65.1993 128.882 65.5079 129.005 65.8287 129.005C66.1495 129.005 66.4581 128.882 66.6906 128.661C66.9231 128.44 67.0618 128.138 67.078 127.817V126.327C69.0555 126.483 70.9839 127.021 72.7568 127.91L74.3564 128.832C76.106 129.986 77.6026 131.483 78.7554 133.234L79.6768 134.834C80.569 136.607 81.1069 138.537 81.2604 140.515H79.76C79.5906 140.507 79.4212 140.533 79.2622 140.592C79.1032 140.651 78.9578 140.741 78.8348 140.858C78.7119 140.975 78.6141 141.116 78.5472 141.271C78.4803 141.427 78.4458 141.595 78.4458 141.765C78.4458 141.934 78.4803 142.102 78.5472 142.258C78.6141 142.414 78.7119 142.555 78.8348 142.671C78.9578 142.788 79.1032 142.879 79.2622 142.938C79.4212 142.997 79.5906 143.023 79.76 143.014H81.2476C81.0935 144.992 80.5556 146.921 79.664 148.693L78.7426 150.292C77.589 152.042 76.0925 153.54 74.3436 154.695L72.7439 155.616C70.9711 156.506 69.0427 157.043 67.0652 157.2V155.709C67.0665 155.544 67.035 155.381 66.9726 155.229C66.9101 155.077 66.818 154.939 66.7015 154.823C66.5851 154.706 66.4466 154.615 66.2943 154.553C66.142 154.49 65.9788 154.459 65.8143 154.461C65.4831 154.461 65.1654 154.592 64.9309 154.826C64.6964 155.06 64.5642 155.378 64.5634 155.709V157.2C62.5849 157.044 60.6553 156.506 58.8815 155.616L57.2818 154.695C55.5329 153.54 54.0364 152.042 52.8828 150.292L51.9615 148.693C51.0633 146.921 50.5199 144.991 50.3618 143.011H51.8495C52.1699 142.995 52.4718 142.856 52.6928 142.623C52.9139 142.391 53.0372 142.082 53.0372 141.762C53.0372 141.441 52.9139 141.132 52.6928 140.9C52.4718 140.667 52.1699 140.528 51.8495 140.512H50.3906C50.5487 138.533 51.0921 136.604 51.9902 134.834L52.9116 133.234C54.0652 131.484 55.5617 129.987 57.3106 128.832L58.9103 127.91H58.8975ZM65.7887 131.493C65.4493 131.493 65.1238 131.628 64.8838 131.868C64.6438 132.108 64.509 132.434 64.509 132.773V142.253C64.5096 142.589 64.6429 142.912 64.8801 143.152L68.6713 146.943C68.9172 147.133 69.224 147.227 69.5343 147.208C69.8447 147.188 70.1373 147.057 70.3575 146.837C70.5778 146.618 70.7106 146.325 70.7312 146.015C70.7517 145.705 70.6586 145.398 70.4693 145.151L67.0524 141.715V132.757C67.0524 132.418 66.9176 132.092 66.6776 131.852C66.4376 131.612 66.1121 131.477 65.7727 131.477L65.7887 131.493Z" fill="white"/>
</svg>
