<svg width="201" height="200" viewBox="0 0 201 200" fill="none" xmlns="http://www.w3.org/2000/svg">
<path d="M100.933 200C156.161 200 200.933 155.228 200.933 100C200.933 44.7715 156.161 0 100.933 0C45.7045 0 0.932983 44.7715 0.932983 100C0.932983 155.228 45.7045 200 100.933 200Z" fill="black" fill-opacity="0.03"/>
<path d="M142.016 69.7314C142.016 77.6368 123.911 84.0418 101.58 84.0418C79.249 84.0418 61.1475 77.6432 61.1475 69.7314C61.1475 61.8196 79.249 55.4211 101.58 55.4211C123.911 55.4211 142.016 61.8132 142.016 69.7314Z" fill="#999999"/>
<path d="M69.2352 73.6985C74.7796 77.6912 87.18 80.4714 101.599 80.4714C114.943 80.4714 126.553 78.0911 132.616 74.5719C114.374 65.7579 80.0232 71.555 69.2352 73.6985Z" fill="#333333"/>
<path d="M137.06 69.0148C137.06 62.6898 121.185 57.5614 101.599 57.5614C82.0131 57.5614 66.1383 62.6802 66.1383 69.0148C66.1383 70.6848 67.2517 72.2684 69.2352 73.6985C80.0232 71.555 114.374 65.7579 132.616 74.5719C135.444 72.9307 137.06 71.0303 137.06 69.0148Z" fill="#D7D7D7"/>
<path d="M65.6745 42.9375C73.2696 47.3685 85.9419 48.8274 96.5379 50.491C105.176 51.8443 113.673 53.1944 120.852 56.0161C125.203 57.7309 129.209 60.2328 128.054 63.8703C127.293 66.2666 124.1 68.5445 120.417 69.949C117.909 70.8912 115.337 71.6525 112.72 72.2269C116.458 71.9573 120.178 71.4777 123.863 70.7904C128.905 69.8306 134.027 68.0038 136.558 65.7963C140.397 62.4403 137.767 59.6185 134.193 57.5134C128.313 54.055 119.889 51.8443 111.357 49.624C100.876 46.8982 87.9702 44.1436 82.7522 39.0952C79.9176 36.3534 79.5881 32.8246 87.0968 29.7341C94.244 26.7939 101.871 26.3076 109.002 26.5604C92.2093 21.8383 68.8066 28.9215 63.4894 33.3972C59.0584 37.1212 61.5538 40.5348 65.6745 42.9375Z" fill="white"/>
<path d="M66.7494 168.394C81.4307 168.394 93.3322 156.492 93.3322 141.811C93.3322 127.13 81.4307 115.228 66.7494 115.228C52.0681 115.228 40.1666 127.13 40.1666 141.811C40.1666 156.492 52.0681 168.394 66.7494 168.394Z" fill="#0A882F"/>
<path fill-rule="evenodd" clip-rule="evenodd" d="M61.1475 69.7314C61.1475 70.0247 61.1724 70.3159 61.2215 70.6048L61.1475 69.7314ZM141.96 70.487C140.851 78.0467 123.195 84.0418 101.58 84.0418C80.0774 84.0418 62.4964 78.1032 61.2215 70.6048L64.6125 110.611C65.3187 110.563 66.0312 110.539 66.7495 110.539C84.0207 110.539 98.0218 124.54 98.0218 141.811C98.0218 149.277 95.4054 156.132 91.0394 161.509C94.4925 161.926 98.1951 162.152 102.047 162.152C120.875 162.152 136.135 156.749 136.135 150.088L136.859 140.198C142.148 140.589 148.405 139.928 154.188 136.255C157.977 133.848 160.248 130.142 161.583 126.685C162.94 123.17 163.577 119.304 163.719 115.647C163.863 111.971 163.519 108.206 162.699 104.8C161.914 101.539 160.527 97.9203 158.093 95.149C153.012 89.3664 146.541 87.7872 140.713 87.5334L141.96 70.487ZM142.016 69.7314L141.96 70.487C141.997 70.2368 142.016 69.9849 142.016 69.7314ZM139.617 102.515L137.954 125.235C140.883 125.478 143.724 125.131 146.145 123.593C146.302 123.494 146.942 122.959 147.59 121.281C148.216 119.659 148.636 117.494 148.731 115.063C148.825 112.65 148.587 110.27 148.116 108.311C147.609 106.207 146.993 105.242 146.824 105.049C145.383 103.41 143.444 102.61 139.617 102.515Z" fill="#666666"/>
<path d="M66.3209 159.583C62.7971 159.583 59.3524 158.538 56.4225 156.581C53.4925 154.623 51.2089 151.84 49.8604 148.585C48.5119 145.329 48.159 141.747 48.8465 138.291C49.534 134.834 51.2309 131.66 53.7226 129.168C56.2143 126.676 59.3889 124.98 62.8451 124.292C66.3012 123.605 69.8835 123.957 73.1391 125.306C76.3947 126.654 79.1773 128.938 81.135 131.868C83.0928 134.798 84.1377 138.243 84.1377 141.766C84.1326 146.49 82.2539 151.019 78.9137 154.359C75.5735 157.699 71.0447 159.578 66.3209 159.583V159.583ZM50.7213 142.857C50.8586 144.92 51.408 146.933 52.3369 148.779L53.2647 150.379C54.432 152.15 55.9472 153.665 57.7181 154.832L59.3177 155.757C61.1624 156.684 63.1735 157.233 65.2332 157.373V155.712C65.2332 155.423 65.3481 155.145 65.5527 154.941C65.7573 154.736 66.0348 154.621 66.3241 154.621C66.4678 154.62 66.6102 154.647 66.7431 154.702C66.8761 154.756 66.9968 154.836 67.0984 154.938C67.2 155.039 67.2803 155.16 67.3346 155.293C67.389 155.426 67.4164 155.569 67.4151 155.712V157.373C69.4761 157.233 71.4884 156.682 73.3337 155.754L74.9334 154.826C76.702 153.659 78.215 152.145 79.3804 150.376L80.3082 148.776C81.2313 146.932 81.7753 144.922 81.9078 142.864H80.2602C79.9815 142.849 79.7192 142.727 79.5272 142.525C79.3353 142.322 79.2283 142.054 79.2283 141.774C79.2283 141.495 79.3353 141.227 79.5272 141.024C79.7192 140.822 79.9815 140.7 80.2602 140.685H81.9238C81.7865 138.623 81.2359 136.609 80.305 134.763L79.3804 133.164C78.2127 131.394 76.6976 129.88 74.927 128.713L73.3273 127.789C71.4849 126.862 69.4759 126.313 67.4183 126.173V127.837C67.4032 128.116 67.2818 128.378 67.0792 128.57C66.8765 128.762 66.608 128.869 66.3289 128.869C66.0498 128.869 65.7813 128.762 65.5787 128.57C65.376 128.378 65.2547 128.116 65.2396 127.837V126.173C63.1775 126.313 61.1641 126.863 59.3177 127.792L57.7181 128.72C55.9483 129.888 54.4343 131.403 53.2679 133.173L52.3433 134.773C51.4205 136.617 50.8766 138.627 50.7437 140.685H52.4041C52.6828 140.7 52.9451 140.822 53.137 141.024C53.329 141.227 53.436 141.495 53.436 141.774C53.436 142.054 53.329 142.322 53.137 142.525C52.9451 142.727 52.6828 142.849 52.4041 142.864L50.7213 142.857ZM70.0865 147.154C69.7944 147.154 69.5142 147.039 69.3059 146.834L65.5115 143.04C65.3058 142.831 65.1909 142.549 65.1916 142.256V132.773C65.2068 132.49 65.3303 132.223 65.5365 132.027C65.7427 131.832 66.016 131.723 66.3001 131.723C66.5843 131.723 66.8576 131.832 67.0638 132.027C67.27 132.223 67.3934 132.49 67.4087 132.773V141.795L70.8735 145.263C71.029 145.418 71.1348 145.616 71.1776 145.831C71.2204 146.047 71.1982 146.27 71.1138 146.473C71.0295 146.675 70.8868 146.848 70.7038 146.97C70.5209 147.091 70.306 147.155 70.0865 147.154V147.154Z" fill="white"/>
<path d="M66.3207 124.119C69.8126 124.122 73.2254 125.16 76.1275 127.102C79.0296 129.043 81.2907 131.802 82.6249 135.029C83.9592 138.256 84.3066 141.806 83.6234 145.231C82.9401 148.655 81.2568 151.8 78.7863 154.268C76.3159 156.736 73.1691 158.416 69.7439 159.095C66.3188 159.775 62.769 159.423 59.5435 158.086C56.318 156.748 53.5616 154.484 51.6228 151.58C49.684 148.675 48.6498 145.261 48.6511 141.77C48.6519 139.45 49.1097 137.154 49.9982 135.012C50.8867 132.869 52.1886 130.923 53.8294 129.284C55.4703 127.645 57.418 126.345 59.5613 125.459C61.7045 124.573 64.0014 124.117 66.3207 124.119ZM66.3207 128.764C66.0746 128.764 65.8388 128.666 65.6644 128.492C65.4901 128.318 65.3914 128.083 65.3897 127.837V126.004C63.2491 126.124 61.1556 126.68 59.2375 127.638L57.6378 128.569C55.8461 129.752 54.3127 131.285 53.1301 133.077L52.1991 134.677C51.2347 136.593 50.6739 138.687 50.5515 140.829H52.3846C52.6217 140.843 52.8445 140.947 53.0074 141.12C53.1703 141.292 53.2611 141.521 53.2611 141.758C53.2611 141.996 53.1703 142.224 53.0074 142.397C52.8445 142.57 52.6217 142.674 52.3846 142.688H50.5515C50.6739 144.83 51.2347 146.924 52.1991 148.84L53.1301 150.44C54.3111 152.23 55.8424 153.762 57.6315 154.944L59.2311 155.875C61.1494 156.837 63.2441 157.396 65.3865 157.52V155.686C65.3873 155.44 65.4858 155.204 65.6603 155.03C65.8348 154.856 66.0711 154.759 66.3175 154.759C66.4398 154.757 66.5612 154.78 66.6745 154.827C66.7878 154.873 66.8908 154.941 66.9775 155.027C67.0642 155.114 67.1328 155.216 67.1793 155.33C67.2258 155.443 67.2493 155.564 67.2485 155.686V157.52C69.3888 157.396 71.4814 156.837 73.3975 155.875L74.9971 154.944C76.7862 153.762 78.3174 152.23 79.4985 150.44L80.4295 148.84C81.3941 146.924 81.9538 144.83 82.0739 142.688H80.2599C80.1333 142.695 80.0065 142.677 79.8873 142.633C79.768 142.59 79.6589 142.523 79.5667 142.436C79.4744 142.349 79.4008 142.244 79.3506 142.127C79.3003 142.011 79.2744 141.885 79.2744 141.758C79.2744 141.631 79.3003 141.506 79.3506 141.39C79.4008 141.273 79.4744 141.168 79.5667 141.081C79.6589 140.994 79.768 140.927 79.8873 140.883C80.0065 140.84 80.1333 140.822 80.2599 140.829H82.0899C81.9698 138.687 81.4101 136.593 80.4455 134.677L79.5145 133.077C78.3334 131.287 76.8022 129.755 75.0131 128.573L73.4135 127.642C71.4974 126.68 69.4048 126.12 67.2645 125.997V127.83C67.2645 128.076 67.1667 128.312 66.9927 128.486C66.8187 128.66 66.5827 128.758 66.3367 128.758L66.3207 128.764ZM66.2983 131.826C66.5528 131.826 66.797 131.927 66.977 132.107C67.157 132.287 67.2581 132.531 67.2581 132.786V141.872L70.7773 145.391C70.8896 145.473 70.9829 145.578 71.0508 145.699C71.1187 145.82 71.1595 145.954 71.1704 146.092C71.1813 146.231 71.1621 146.37 71.1141 146.5C71.0661 146.63 70.9904 146.748 70.8923 146.847C70.7941 146.945 70.6759 147.02 70.5457 147.068C70.4155 147.116 70.2764 147.136 70.138 147.125C69.9997 147.114 69.8653 147.073 69.7443 147.005C69.6232 146.937 69.5183 146.844 69.4368 146.732L65.6072 142.924C65.5186 142.837 65.4483 142.732 65.4005 142.617C65.3527 142.501 65.3284 142.377 65.3289 142.253V132.773C65.3289 132.519 65.43 132.274 65.61 132.095C65.79 131.915 66.0341 131.813 66.2887 131.813L66.2983 131.826ZM66.3271 123.78C62.7716 123.78 59.296 124.834 56.3397 126.81C53.3835 128.785 51.0794 131.593 49.7187 134.877C48.3581 138.162 48.0021 141.777 48.6958 145.264C49.3894 148.751 51.1015 151.954 53.6156 154.468C56.1297 156.982 59.3329 158.694 62.82 159.388C66.3071 160.082 69.9217 159.726 73.2065 158.365C76.4913 157.004 79.2989 154.7 81.2742 151.744C83.2495 148.788 84.3038 145.312 84.3038 141.757C84.2937 136.993 82.3949 132.427 79.0239 129.061C75.6529 125.695 71.0846 123.803 66.3207 123.799L66.3271 123.78ZM59.3975 127.91C61.1713 127.02 63.1009 126.482 65.0794 126.327V127.817C65.0956 128.138 65.2343 128.44 65.4668 128.661C65.6993 128.882 66.0079 129.005 66.3287 129.005C66.6495 129.005 66.9581 128.882 67.1906 128.661C67.4231 128.44 67.5618 128.138 67.578 127.817V126.327C69.5554 126.483 71.4839 127.021 73.2567 127.91L74.8564 128.832C76.606 129.986 78.1026 131.483 79.2554 133.234L80.1768 134.834C81.069 136.607 81.6069 138.537 81.7604 140.515H80.2599C80.0906 140.507 79.9212 140.533 79.7622 140.592C79.6031 140.651 79.4577 140.741 79.3348 140.858C79.2119 140.975 79.114 141.116 79.0471 141.271C78.9803 141.427 78.9458 141.595 78.9458 141.765C78.9458 141.934 78.9803 142.102 79.0471 142.258C79.114 142.414 79.2119 142.554 79.3348 142.671C79.4577 142.788 79.6031 142.879 79.7622 142.938C79.9212 142.997 80.0906 143.023 80.2599 143.014H81.7476C81.5934 144.992 81.0555 146.921 80.164 148.693L79.2426 150.292C78.089 152.042 76.5925 153.54 74.8436 154.695L73.2439 155.616C71.4711 156.506 69.5426 157.043 67.5652 157.2V155.709C67.5665 155.544 67.535 155.381 67.4725 155.229C67.4101 155.077 67.3179 154.939 67.2015 154.823C67.085 154.706 66.9466 154.615 66.7943 154.553C66.6419 154.49 66.4788 154.459 66.3143 154.461C65.9831 154.461 65.6654 154.592 65.4309 154.826C65.1964 155.06 65.0642 155.378 65.0634 155.709V157.2C63.0849 157.044 61.1553 156.506 59.3815 155.616L57.7818 154.695C56.0329 153.54 54.5364 152.042 53.3828 150.292L52.4614 148.693C51.5633 146.921 51.0199 144.991 50.8618 143.011H52.3494C52.6698 142.995 52.9718 142.856 53.1928 142.623C53.4139 142.391 53.5371 142.082 53.5371 141.762C53.5371 141.441 53.4139 141.132 53.1928 140.9C52.9718 140.667 52.6698 140.528 52.3494 140.512H50.8906C51.0487 138.533 51.5921 136.604 52.4902 134.834L53.4116 133.234C54.5652 131.484 56.0617 129.987 57.8106 128.832L59.4103 127.91H59.3975ZM66.2887 131.493C65.9493 131.493 65.6238 131.628 65.3838 131.868C65.1438 132.108 65.009 132.434 65.009 132.773V142.253C65.0096 142.589 65.1429 142.912 65.3801 143.152L69.1712 146.943C69.4172 147.133 69.724 147.227 70.0343 147.208C70.3446 147.188 70.6373 147.057 70.8575 146.837C71.0778 146.618 71.2106 146.325 71.2311 146.015C71.2517 145.705 71.1586 145.398 70.9692 145.151L67.5524 141.715V132.757C67.5524 132.418 67.4176 132.092 67.1776 131.852C66.9376 131.612 66.6121 131.477 66.2727 131.477L66.2887 131.493Z" fill="white"/>
</svg>
