<svg width="241" height="240" viewBox="0 0 241 240" fill="none" xmlns="http://www.w3.org/2000/svg">
<path opacity="0.05" d="M120.919 240C187.194 240 240.919 186.274 240.919 120C240.919 53.7258 187.194 0 120.919 0C54.6453 0 0.919434 53.7258 0.919434 120C0.919434 186.274 54.6453 240 120.919 240Z" fill="#333333"/>
<path d="M170.219 83.6777C170.219 93.1642 148.493 100.85 121.696 100.85C94.8988 100.85 73.177 93.1719 73.177 83.6777C73.177 74.1835 94.8988 66.5053 121.696 66.5053C148.493 66.5053 170.219 74.1759 170.219 83.6777Z" fill="#999999"/>
<path d="M82.8823 88.4382C89.5355 93.2295 104.416 96.5657 121.719 96.5657C137.732 96.5657 151.664 93.7094 158.939 89.4863C137.049 78.9095 95.8279 85.866 82.8823 88.4382Z" fill="#333333"/>
<path d="M164.272 82.8177C164.272 75.2278 145.222 69.0737 121.719 69.0737C98.2158 69.0737 79.166 75.2163 79.166 82.8177C79.166 84.8218 80.502 86.7221 82.8823 88.4382C95.8278 85.866 137.049 78.9095 158.939 89.4863C162.333 87.5168 164.272 85.2364 164.272 82.8177Z" fill="#D7D7D7"/>
<path d="M78.6094 51.525C87.7235 56.8422 102.93 58.5928 115.645 60.5892C126.011 62.2131 136.208 63.8332 144.823 67.2194C150.044 69.2771 154.851 72.2793 153.465 76.6444C152.551 79.5199 148.72 82.2534 144.301 83.9388C141.291 85.0694 138.204 85.9829 135.064 86.6722C139.55 86.3488 144.014 85.7733 148.436 84.9485C154.486 83.7967 160.632 81.6046 163.669 78.9556C168.276 74.9283 165.12 71.5422 160.832 69.0161C153.776 64.866 143.667 62.2131 133.428 59.5488C120.851 56.2778 105.364 52.9723 99.1027 46.9142C95.7012 43.624 95.3058 39.3895 104.316 35.6809C112.893 32.1527 122.045 31.5692 130.603 31.8725C110.451 26.2059 82.3679 34.7057 75.9873 40.0767C70.6701 44.5454 73.6646 48.6418 78.6094 51.525Z" fill="white"/>
<path d="M164.272 107.48C164.272 107.48 189.342 109.189 189.334 124.399C189.334 125.167 189.415 136.124 189.334 136.877C188.885 141.292 186.144 159.838 160.848 157.631" stroke="#666666" stroke-width="18.1373" stroke-miterlimit="10"/>
<path d="M79.8993 202.073C97.5169 202.073 111.799 187.791 111.799 170.173C111.799 152.556 97.5169 138.274 79.8993 138.274C62.2818 138.274 48 152.556 48 170.173C48 187.791 62.2818 202.073 79.8993 202.073Z" fill="#0A882F"/>
<path fill-rule="evenodd" clip-rule="evenodd" d="M73.177 83.6777C73.177 84.0296 73.2069 84.3791 73.2658 84.7258L73.177 83.6777ZM170.152 84.5845C168.821 93.656 147.635 100.85 121.696 100.85C95.893 100.85 74.7957 93.7239 73.2658 84.7258L77.3351 132.733C78.1825 132.676 79.0375 132.646 79.8994 132.646C100.625 132.646 117.426 149.448 117.426 170.173C117.426 179.133 114.287 187.359 109.047 193.811C113.191 194.311 117.634 194.583 122.256 194.583C144.85 194.583 163.162 188.098 163.162 180.105L170.152 84.5845ZM170.152 84.5845C170.196 84.2842 170.219 83.9819 170.219 83.6777L170.152 84.5845Z" fill="#666666"/>
<path d="M79.3849 191.5C75.1563 191.5 71.0227 190.246 67.5067 187.897C63.9908 185.547 61.2504 182.208 59.6322 178.301C58.014 174.395 57.5906 170.096 58.4156 165.949C59.2405 161.801 61.2768 157.992 64.2669 155.002C67.2569 152.011 71.0665 149.975 75.2138 149.15C79.3612 148.325 83.66 148.749 87.5667 150.367C91.4734 151.985 94.8125 154.725 97.1618 158.241C99.5111 161.757 100.765 165.891 100.765 170.12C100.759 175.788 98.5044 181.223 94.4962 185.231C90.488 189.239 85.0534 191.494 79.3849 191.5ZM60.6653 171.429C60.8301 173.903 61.4894 176.32 62.6041 178.535L63.7174 180.455C65.1182 182.58 66.9364 184.398 69.0615 185.799L70.981 186.908C73.1947 188.02 75.608 188.679 78.0796 188.847V186.854C78.0796 186.507 78.2175 186.174 78.463 185.929C78.7085 185.683 79.0415 185.545 79.3887 185.545C79.5611 185.544 79.732 185.576 79.8915 185.642C80.0511 185.707 80.196 185.803 80.3179 185.925C80.4397 186.047 80.5361 186.192 80.6014 186.352C80.6666 186.511 80.6994 186.682 80.6979 186.854V188.847C83.1711 188.679 85.5858 188.018 87.8003 186.904L89.7198 185.791C91.8422 184.391 93.6578 182.574 95.0562 180.451L96.1696 178.531C97.2774 176.318 97.9301 173.906 98.0891 171.436H96.112C95.7775 171.418 95.4628 171.273 95.2324 171.029C95.0021 170.786 94.8737 170.464 94.8737 170.129C94.8737 169.794 95.0021 169.472 95.2324 169.229C95.4628 168.986 95.7775 168.84 96.112 168.822H98.1083C97.9435 166.347 97.2829 163.93 96.1657 161.716L95.0562 159.796C93.655 157.672 91.8369 155.856 89.7122 154.456L87.7926 153.346C85.5817 152.234 83.1709 151.575 80.7017 151.408V153.404C80.6836 153.738 80.538 154.053 80.2948 154.284C80.0516 154.514 79.7294 154.642 79.3945 154.642C79.0596 154.642 78.7374 154.514 78.4942 154.284C78.251 154.053 78.1054 153.738 78.0873 153.404V151.408C75.6127 151.575 73.1967 152.236 70.981 153.35L69.0615 154.464C66.9378 155.865 65.121 157.683 63.7212 159.808L62.6117 161.727C61.5044 163.94 60.8517 166.353 60.6922 168.822H62.6847C63.0191 168.84 63.3339 168.986 63.5642 169.229C63.7946 169.472 63.9229 169.794 63.9229 170.129C63.9229 170.464 63.7946 170.786 63.5642 171.029C63.3339 171.273 63.0191 171.418 62.6847 171.436L60.6653 171.429ZM83.9036 176.585C83.5531 176.584 83.2168 176.446 82.9668 176.201L78.4136 171.648C78.1668 171.397 78.0288 171.059 78.0297 170.707V159.328C78.048 158.987 78.1961 158.667 78.4436 158.432C78.691 158.198 79.019 158.067 79.3599 158.067C79.7009 158.067 80.0288 158.198 80.2763 158.432C80.5238 158.667 80.6719 158.987 80.6902 159.328V170.154L84.848 174.316C85.0345 174.502 85.1615 174.739 85.2129 174.997C85.2642 175.256 85.2376 175.524 85.1364 175.767C85.0351 176.01 84.8639 176.218 84.6444 176.363C84.4248 176.509 84.167 176.586 83.9036 176.585Z" fill="white"/>
<path d="M79.3848 148.943C83.5751 148.946 87.6705 150.191 91.153 152.522C94.6355 154.852 97.3488 158.163 98.9499 162.035C100.551 165.908 100.968 170.168 100.148 174.277C99.3282 178.386 97.3082 182.16 94.3436 185.122C91.379 188.083 87.6029 190.099 83.4927 190.914C79.3826 191.73 75.1229 191.308 71.2523 189.703C67.3817 188.097 64.074 185.381 61.7474 181.895C59.4208 178.41 58.1798 174.314 58.1813 170.123C58.1823 167.34 58.7316 164.585 59.7978 162.014C60.8641 159.443 62.4263 157.108 64.3953 155.141C66.3644 153.174 68.7016 151.614 71.2735 150.551C73.8455 149.487 76.6017 148.941 79.3848 148.943ZM79.3848 154.517C79.0895 154.516 78.8065 154.399 78.5973 154.19C78.3882 153.982 78.2697 153.699 78.2677 153.404V151.204C75.6989 151.349 73.1867 152.016 70.885 153.166L68.9654 154.283C66.8154 155.702 64.9752 157.542 63.5561 159.693L62.4389 161.612C61.2816 163.912 60.6087 166.425 60.4618 168.995H62.6616C62.9461 169.011 63.2134 169.136 63.4089 169.344C63.6044 169.551 63.7133 169.825 63.7133 170.11C63.7133 170.395 63.6044 170.669 63.4089 170.876C63.2134 171.084 62.9461 171.209 62.6616 171.225H60.4618C60.6087 173.796 61.2816 176.308 62.4389 178.608L63.5561 180.527C64.9734 182.675 66.8109 184.514 68.9578 185.933L70.8773 187.05C73.1794 188.204 75.6929 188.876 78.2638 189.023V186.824C78.2648 186.528 78.383 186.245 78.5924 186.036C78.8018 185.827 79.0854 185.71 79.381 185.71C79.5278 185.709 79.6735 185.737 79.8095 185.792C79.9454 185.847 80.069 185.929 80.173 186.033C80.277 186.136 80.3593 186.26 80.4152 186.396C80.471 186.531 80.4992 186.677 80.4982 186.824V189.023C83.0666 188.876 85.5777 188.204 87.877 187.05L89.7966 185.933C91.9435 184.514 93.7809 182.675 95.1982 180.527L96.3154 178.608C97.4729 176.309 98.1446 173.796 98.2887 171.225H96.1119C95.96 171.234 95.8078 171.212 95.6647 171.16C95.5217 171.108 95.3908 171.027 95.28 170.923C95.1693 170.818 95.081 170.692 95.0207 170.553C94.9604 170.413 94.9293 170.262 94.9293 170.11C94.9293 169.958 94.9604 169.807 95.0207 169.667C95.081 169.528 95.1693 169.402 95.28 169.297C95.3908 169.193 95.5217 169.112 95.6647 169.06C95.8078 169.008 95.96 168.986 96.1119 168.995H98.3079C98.1638 166.425 97.4921 163.911 96.3346 161.612L95.2174 159.693C93.8001 157.545 91.9627 155.706 89.8158 154.287L87.8962 153.17C85.5969 152.016 83.0858 151.344 80.5174 151.197V153.396C80.5174 153.692 80.4001 153.975 80.1913 154.184C79.9825 154.392 79.6993 154.51 79.404 154.51L79.3848 154.517ZM79.358 158.191C79.6634 158.191 79.9564 158.313 80.1724 158.529C80.3884 158.745 80.5097 159.038 80.5097 159.343V170.246L84.7328 174.469C84.8676 174.567 84.9795 174.693 85.061 174.838C85.1424 174.984 85.1914 175.145 85.2045 175.311C85.2176 175.477 85.1946 175.644 85.137 175.8C85.0793 175.956 84.9885 176.098 84.8708 176.216C84.753 176.334 84.6111 176.425 84.4548 176.482C84.2986 176.54 84.1317 176.563 83.9656 176.55C83.7996 176.537 83.6384 176.488 83.4931 176.406C83.3479 176.325 83.222 176.213 83.1242 176.078L78.5287 171.509C78.4223 171.404 78.338 171.278 78.2807 171.14C78.2233 171.001 78.1941 170.853 78.1947 170.703V159.328C78.1947 159.022 78.3161 158.729 78.5321 158.513C78.748 158.297 79.041 158.176 79.3465 158.176L79.358 158.191ZM79.3925 148.536C75.126 148.536 70.9552 149.801 67.4077 152.172C63.8602 154.542 61.0953 157.911 59.4625 161.853C57.8298 165.795 57.4026 170.132 58.2349 174.317C59.0673 178.501 61.1219 182.345 64.1388 185.362C67.1557 188.379 70.9994 190.433 75.184 191.266C79.3686 192.098 83.706 191.671 87.6478 190.038C91.5896 188.405 94.9587 185.64 97.3291 182.093C99.6994 178.545 100.965 174.375 100.965 170.108C100.952 164.391 98.6739 158.913 94.6287 154.873C90.5835 150.834 85.1016 148.563 79.3848 148.559L79.3925 148.536ZM71.077 153.492C73.2056 152.424 75.5211 151.779 77.8953 151.592V153.381C77.9147 153.765 78.0812 154.128 78.3602 154.393C78.6392 154.658 79.0095 154.806 79.3944 154.806C79.7794 154.806 80.1497 154.658 80.4287 154.393C80.7077 154.128 80.8742 153.765 80.8936 153.381V151.592C83.2665 151.779 85.5807 152.425 87.7081 153.492L89.6277 154.598C91.7272 155.983 93.5232 157.78 94.9065 159.881L96.0121 161.8C97.0828 163.928 97.7283 166.244 97.9125 168.619H96.1119C95.9087 168.608 95.7055 168.639 95.5146 168.71C95.3238 168.781 95.1493 168.89 95.0018 169.03C94.8543 169.17 94.7369 169.339 94.6566 169.526C94.5763 169.713 94.535 169.914 94.535 170.118C94.535 170.321 94.5763 170.523 94.6566 170.71C94.7369 170.897 94.8543 171.065 95.0018 171.206C95.1493 171.346 95.3238 171.455 95.5146 171.525C95.7055 171.596 95.9087 171.627 96.1119 171.617H97.8971C97.7121 173.99 97.0667 176.305 95.9968 178.431L94.8911 180.351C93.5068 182.451 91.711 184.248 89.6123 185.634L87.6927 186.739C85.5653 187.807 83.2512 188.452 80.8783 188.64V186.851C80.8798 186.653 80.842 186.457 80.7671 186.275C80.6921 186.092 80.5816 185.926 80.4418 185.787C80.3021 185.648 80.1359 185.537 79.9531 185.463C79.7703 185.389 79.5745 185.351 79.3772 185.353C78.9797 185.353 78.5985 185.511 78.3171 185.792C78.0357 186.072 77.8771 186.453 77.8761 186.851V188.64C75.5019 188.453 73.1864 187.807 71.0578 186.739L69.1382 185.634C67.0395 184.248 65.2437 182.451 63.8594 180.351L62.7537 178.431C61.676 176.305 61.0239 173.989 60.8342 171.613H62.6194C63.0038 171.594 63.3662 171.427 63.6314 171.148C63.8967 170.869 64.0446 170.499 64.0446 170.114C64.0446 169.729 63.8967 169.359 63.6314 169.08C63.3662 168.801 63.0038 168.634 62.6194 168.615H60.8687C61.0584 166.24 61.7105 163.925 62.7883 161.8L63.894 159.881C65.2782 157.781 67.0741 155.984 69.1728 154.598L71.0923 153.492H71.077ZM79.3465 157.792C78.9392 157.792 78.5486 157.954 78.2606 158.242C77.9726 158.53 77.8108 158.921 77.8108 159.328V170.703C77.8115 171.107 77.9715 171.495 78.2561 171.782L82.8055 176.331C83.1006 176.56 83.4688 176.673 83.8412 176.649C84.2136 176.626 84.5647 176.468 84.829 176.204C85.0933 175.941 85.2527 175.591 85.2774 175.218C85.3021 174.846 85.1903 174.477 84.9631 174.181L80.8629 170.058V159.309C80.8629 158.901 80.7011 158.511 80.4131 158.223C80.1251 157.935 79.7345 157.773 79.3273 157.773L79.3465 157.792Z" fill="white"/>
</svg>
