<svg width="59" height="60" viewBox="0 0 59 60" fill="none" xmlns="http://www.w3.org/2000/svg">
<g opacity="0.05">
<path opacity="0.5" d="M29.4754 59.1646C45.5757 59.1646 58.6276 46.1127 58.6276 30.0124C58.6276 13.912 45.5757 0.860107 29.4754 0.860107C13.375 0.860107 0.32312 13.912 0.32312 30.0124C0.32312 46.1127 13.375 59.1646 29.4754 59.1646Z" fill="black"/>
</g>
<path d="M29.4753 49.262C40.1066 49.262 48.725 40.6436 48.725 30.0123C48.725 19.381 40.1066 10.7627 29.4753 10.7627C18.8441 10.7627 10.2257 19.381 10.2257 30.0123C10.2257 40.6436 18.8441 49.262 29.4753 49.262Z" fill="#73BE00"/>
<path d="M25.9793 39.0859L18.0752 29.7107C17.9329 29.5419 17.8252 29.3466 17.7583 29.1361C17.6914 28.9256 17.6666 28.704 17.6854 28.484C17.7042 28.2639 17.7661 28.0497 17.8676 27.8536C17.9691 27.6575 18.1083 27.4833 18.2772 27.3409C18.4461 27.1986 18.6413 27.0909 18.8518 27.024C19.0623 26.9571 19.2839 26.9323 19.5039 26.9511C19.724 26.9698 19.9382 27.0318 20.1343 27.1333C20.3305 27.2348 20.5047 27.374 20.647 27.5429L26.154 34.0694L38.3903 21.4521C38.7037 21.1454 39.1244 20.9733 39.5628 20.9722C40.0013 20.9711 40.4229 21.1412 40.7378 21.4462C41.0528 21.7513 41.2362 22.1672 41.2491 22.6055C41.262 23.0438 41.1033 23.4698 40.8068 23.7928L25.9793 39.0859Z" fill="white"/>
</svg>
