<svg id="Ebene_1" data-name="Ebene 1" xmlns="http://www.w3.org/2000/svg" viewBox="0 0 240 240"><defs><style>.cls-1{fill:#fff;opacity:1;}.cls-2{fill:#80dd8a;opacity:1;}.cls-3{fill:#353a4a;}.cls-4{fill:#3f88c5;fill-rule:evenodd;opacity:0.2;isolation:isolate;}</style></defs><title>_</title><circle class="cls-1" cx="119.82" cy="105.09" r="75.17"/><circle class="cls-2" cx="120.06" cy="105.33" r="67.84"/><path class="cls-3" d="M113.4,111.46c1-.88,2-1.66,2.94-2.52,7.37-6.89,15.8-12.34,24.16-17.9,8.84-5.88,17.68-11.77,26.83-17.17a57.69,57.69,0,0,1,9.24-4.69,10.81,10.81,0,0,1,2.59-.58c.79-.08,1.2.4.93,1.14a13.72,13.72,0,0,1-1.45,2.89,66.49,66.49,0,0,1-7,8.22c-7.25,7.68-15.11,14.74-22.85,21.92-5.23,4.86-10.38,9.8-15.65,14.62-3,2.76-6.15,5.4-9.32,8a26,26,0,0,1-5.54,3.87c-5,2.27-9.81,2.16-14-2.13q-6.57-6.8-13.08-13.62c-.89-.92-1.8-1.83-2.64-2.8a3.31,3.31,0,0,1-.72-1.39,15,15,0,0,1-.38-5,6.82,6.82,0,0,1,3.89-5.72,12.83,12.83,0,0,1,8.07-1,2.37,2.37,0,0,1,1.17.72q5.28,5.43,10.52,10.9C111.92,109.87,112.62,110.64,113.4,111.46Z"/><path class="cls-4" d="M170.17,205.17c0,1.62-22,5.59-49.69,5.59s-50.65-4-50.65-5.59,22.46-2.95,50.17-2.95S170.17,203.54,170.17,205.17Z"/><path class="cls-3" d="M193,84.09c-.53-1.74-1.08-3.48-1.73-5.19-.3-.86-.66-1.7-1-2.55l-.69-1.6c-.18-.44-.39-.88-.59-1.31a1.15,1.15,0,0,0-1.1-.71A.92.92,0,0,0,187,74c.08.18.14.36.23.54l.29.63.51,1.19a71.72,71.72,0,0,1,3.44,10,72.78,72.78,0,0,1,2.43,20.93A73.66,73.66,0,0,1,181.19,147a75.08,75.08,0,0,1-17.33,18A74,74,0,1,1,117.14,31.28,76.93,76.93,0,0,1,139,33.64a74.56,74.56,0,0,1,20.16,8.71c1.6.91,3.06,2,4.58,3.07.77.5,1.45,1.12,2.18,1.67s1.45,1.14,2.16,1.73a77.32,77.32,0,0,1,7.82,7.75l1.38,1.58c.15.19.32.36.46.56l.88,1.15c.07.08.13.17.21.25.73.88,1.53,1.72,2.24,2.63s1.37,1.57,2.08,2.34a3.64,3.64,0,0,0,.63.46l.12-.08a4.37,4.37,0,0,0-.17-.62c-.5-1-1-2.05-1.54-3.06A36.79,36.79,0,0,0,180,58.33c-.35-.47-.69-1-1.09-1.4l-1.8-2L176,53.62l-1.19-1.21c-.8-.79-1.56-1.62-2.39-2.38a76.61,76.61,0,0,0-12.21-9.38c-1.1-.65-2.17-1.38-3.31-2l-3.42-1.79c-2.34-1.06-4.67-2.16-7.1-3a76.7,76.7,0,0,0-30.28-4.57,75.46,75.46,0,0,0-29.62,7.74,76,76,0,0,0-42,75.91,75.29,75.29,0,0,0,9.13,29.14,76.56,76.56,0,0,0,19.86,23.19,75.58,75.58,0,0,0,28,13.7,76.77,76.77,0,0,0,31.11,1.28A75.94,75.94,0,0,0,196,105.7,76.76,76.76,0,0,0,193,84.09Z"/></svg>