<svg width="240" height="240" viewBox="95 0 240 240" fill="none" xmlns="http://www.w3.org/2000/svg">
<g clip-path="url(#clip0_1983_10317)">
<mask id="mask0_1983_10317" style="mask-type:alpha" maskUnits="userSpaceOnUse" x="0" y="0" width="427" height="240">
<rect width="426.667" height="240" fill="#D9D9D9"/>
</mask>
<g mask="url(#mask0_1983_10317)">
<path d="M151.17 105.035L216.72 51.5856L282.918 127.596" stroke="#666666" stroke-width="2.46741" stroke-miterlimit="10"/>
<path d="M216.151 57.3566C218.329 57.3566 220.094 55.5912 220.094 53.4135C220.094 51.2357 218.329 49.4703 216.151 49.4703C213.973 49.4703 212.208 51.2357 212.208 53.4135C212.208 55.5912 213.973 57.3566 216.151 57.3566Z" fill="#666666"/>
<path d="M274.812 190.53L143.749 171.942L150.878 104.152L281.941 122.739L274.812 190.53Z" fill="#0A882F" stroke="#CC0000" stroke-width="12.3371" stroke-linejoin="round"/>
<path d="M273.47 187.976L146.408 169.707L153.135 106.836L280.197 125.105L273.47 187.976Z" fill="white"/>
<path d="M273.47 187.976L146.408 169.707L153.135 106.836L280.197 125.105L273.47 187.976Z" stroke="#D7D7D7" stroke-width="3.70112" stroke-miterlimit="10"/>
<path d="M177.973 151.998C176.269 151.772 174.851 151.237 173.717 150.393C172.601 149.536 171.801 148.436 171.317 147.095C170.835 145.739 170.708 144.201 170.936 142.481C171.164 140.761 171.687 139.317 172.504 138.149C173.321 136.98 174.379 136.136 175.677 135.614C176.994 135.079 178.504 134.925 180.208 135.151C181.06 135.264 181.882 135.483 182.674 135.809C183.467 136.135 184.146 136.54 184.712 137.025C185.08 137.342 185.278 137.691 185.306 138.074C185.336 138.44 185.246 138.767 185.034 139.054C184.825 139.326 184.542 139.493 184.187 139.557C183.834 139.604 183.467 139.461 183.086 139.127C182.646 138.753 182.157 138.46 181.618 138.246C181.079 138.033 180.523 137.888 179.949 137.812C178.292 137.592 176.963 137.929 175.962 138.82C174.962 139.697 174.341 141.057 174.096 142.9C173.852 144.744 174.096 146.226 174.83 147.348C175.564 148.47 176.76 149.141 178.418 149.361C179.006 149.439 179.597 149.447 180.188 149.383C180.782 149.304 181.355 149.144 181.907 148.902C182.36 148.694 182.744 148.658 183.057 148.794C183.37 148.93 183.584 149.156 183.7 149.471C183.833 149.772 183.846 150.089 183.739 150.422C183.632 150.754 183.383 151.029 182.992 151.245C182.312 151.612 181.523 151.862 180.622 151.994C179.739 152.114 178.856 152.115 177.973 151.998Z" fill="#CC0000"/>
<path d="M187.687 153.05C186.68 152.916 186.244 152.338 186.38 151.316L188.158 137.908C188.292 136.901 188.854 136.463 189.846 136.595C190.837 136.726 191.266 137.295 191.132 138.302L189.487 150.711L196.225 151.605C197.093 151.72 197.471 152.196 197.36 153.032C197.247 153.884 196.757 154.253 195.889 154.138L187.687 153.05Z" fill="#CC0000"/>
<path d="M205.652 155.669C204.071 155.459 202.731 154.927 201.631 154.071C200.546 153.218 199.761 152.121 199.277 150.78C198.795 149.423 198.667 147.893 198.893 146.189C199.121 144.469 199.644 143.025 200.461 141.857C201.278 140.688 202.32 139.841 203.588 139.316C204.858 138.775 206.29 138.61 207.886 138.822C209.482 139.034 210.822 139.566 211.907 140.419C212.994 141.257 213.779 142.346 214.263 143.688C214.748 145.029 214.877 146.551 214.651 148.255C214.423 149.975 213.899 151.427 213.08 152.611C212.263 153.779 211.219 154.634 209.95 155.175C208.68 155.716 207.247 155.88 205.652 155.669ZM205.991 153.113C207.493 153.312 208.732 152.948 209.706 152.021C210.68 151.094 211.289 149.709 211.534 147.866C211.78 146.007 211.553 144.51 210.852 143.377C210.167 142.246 209.065 141.579 207.547 141.378C206.044 141.179 204.807 141.535 203.835 142.446C202.863 143.358 202.253 144.743 202.007 146.602C201.762 148.445 201.989 149.942 202.688 151.09C203.387 152.239 204.488 152.913 205.991 153.113Z" fill="#CC0000"/>
<path d="M222.2 157.864C221.162 157.726 220.163 157.475 219.202 157.111C218.257 156.749 217.451 156.288 216.785 155.727C216.459 155.447 216.28 155.132 216.248 154.781C216.216 154.429 216.281 154.115 216.444 153.837C216.625 153.546 216.862 153.364 217.155 153.293C217.466 153.208 217.791 153.306 218.132 153.588C218.761 154.081 219.442 154.471 220.176 154.758C220.911 155.044 221.696 155.243 222.533 155.354C223.757 155.516 224.674 155.433 225.285 155.104C225.898 154.76 226.248 154.262 226.334 153.612C226.406 153.07 226.261 152.617 225.9 152.254C225.553 151.892 224.913 151.547 223.98 151.219L221.495 150.345C218.664 149.339 217.406 147.651 217.721 145.281C217.856 144.259 218.246 143.404 218.889 142.717C219.531 142.03 220.361 141.541 221.377 141.25C222.393 140.959 223.528 140.897 224.783 141.063C225.712 141.186 226.58 141.42 227.386 141.763C228.191 142.106 228.897 142.547 229.504 143.084C229.785 143.342 229.935 143.638 229.954 143.971C229.975 144.29 229.897 144.579 229.721 144.839C229.546 145.084 229.297 145.24 228.973 145.307C228.666 145.361 228.327 145.245 227.955 144.96C227.425 144.558 226.875 144.249 226.304 144.031C225.734 143.814 225.108 143.66 224.427 143.569C223.358 143.428 222.492 143.541 221.828 143.91C221.164 144.28 220.784 144.828 220.687 145.556C220.613 146.114 220.74 146.588 221.066 146.978C221.395 147.353 221.996 147.692 222.87 147.998L225.332 148.868C226.822 149.397 227.893 150.059 228.544 150.855C229.211 151.652 229.467 152.632 229.313 153.794C229.184 154.77 228.806 155.595 228.181 156.269C227.556 156.942 226.727 157.424 225.696 157.712C224.682 157.988 223.517 158.038 222.2 157.864Z" fill="#CC0000"/>
<path d="M232.823 159.036C231.77 158.896 231.313 158.3 231.453 157.246L233.207 144.025C233.346 142.971 233.943 142.514 234.996 142.654L243.292 143.754C244.097 143.861 244.449 144.302 244.346 145.076C244.239 145.882 243.783 146.231 242.977 146.124L235.96 145.194L235.362 149.702L241.868 150.565C242.674 150.671 243.024 151.12 242.92 151.91C242.815 152.7 242.36 153.042 241.554 152.935L235.048 152.072L234.416 156.835L241.433 157.766C242.239 157.873 242.589 158.321 242.485 159.111C242.38 159.902 241.925 160.243 241.119 160.136L232.823 159.036Z" fill="#CC0000"/>
<path d="M246.688 160.875C245.635 160.735 245.178 160.139 245.318 159.085L247.072 145.863C247.211 144.81 247.808 144.353 248.861 144.493L253.369 145.091C256.111 145.454 258.132 146.44 259.432 148.047C260.748 149.656 261.231 151.777 260.882 154.411C260.535 157.029 259.515 158.951 257.824 160.176C256.147 161.404 253.938 161.837 251.196 161.473L246.688 160.875ZM248.409 158.597L251.337 158.985C255.117 159.486 257.261 157.824 257.768 153.998C258.274 150.187 256.637 148.031 252.857 147.529L249.929 147.141L248.409 158.597Z" fill="#CC0000"/>
</g>
</g>
<defs>
<clipPath id="clip0_1983_10317">
<rect width="426.667" height="240" fill="white"/>
</clipPath>
</defs>
</svg>
