<?xml version="1.0" encoding="UTF-8"?>
<svg width="47px" height="74px" viewBox="0 0 47 74" version="1.1" xmlns="http://www.w3.org/2000/svg" xmlns:xlink="http://www.w3.org/1999/xlink">
    <title>Berater Brille</title>
    <defs>
        <polygon id="path-1" points="0 0.543437788 45.0322567 0.543437788 45.0322567 44.1449589 0 44.1449589"></polygon>
    </defs>
    <g id="------00.34-Nächste-Schritte-Optimierung" stroke="none" stroke-width="1" fill="none" fill-rule="evenodd">
        <g id="CUX-Proto_10-Nächste-Schritte_Design_Desktop" transform="translate(-440.000000, -273.000000)">
            <g id="Bot-Antwort-" transform="translate(139.000000, 166.000000)">
                <g id="Group-4" transform="translate(24.500000, 83.000000)">
                    <g id="Part2" transform="translate(239.000000, 0.000000)">
                        <g id="Berater-Brille" transform="translate(37.565217, 24.000000)">
                            <path d="M42.9049391,73.0434783 L3.3256708,73.0434783 C2.00494232,73.0434783 0.924600991,71.9383135 0.924600991,70.5878114 L0.924600991,68.1023372 C0.924600991,66.7512618 2.00494232,65.6466703 3.3256708,65.6466703 L42.9049391,65.6466703 C44.2251072,65.6466703 45.3054485,66.7512618 45.3054485,68.1023372 L45.3054485,70.5878114 C45.3054485,71.9383135 44.2251072,73.0434783 42.9049391,73.0434783" id="Fill-1" fill-opacity="0.2" fill="#3F88C5"></path>
                            <path d="M31.4364337,13.4067144 C31.4364337,20.3009376 26.8829192,25.8888277 21.2658228,25.8888277 C15.6487263,25.8888277 11.0952119,20.3009376 11.0952119,13.4067144 C11.0952119,6.51249116 15.6487263,0.924600991 21.2658228,0.924600991 C26.8829192,0.924600991 31.4364337,6.51249116 31.4364337,13.4067144" id="Fill-3" fill="#FFFFFF"></path>
                            <path d="M30.3418412,13.6259858 C30.294128,10.6437311 29.3387529,7.6620504 27.5600464,5.41402164 C25.8174024,3.15221537 23.2386664,1.69811504 20.638293,1.75552129 C18.0301523,1.80776098 15.6050975,3.38700693 14.0316691,5.64594289 C12.4121918,7.89339759 11.5905248,10.7591176 11.5283866,13.6259858 C11.5023108,16.4928539 12.2246675,19.4090914 13.7964315,21.7793955 C14.5787073,22.9579458 15.5740284,23.9895362 16.7457776,24.7306509 C17.914198,25.4729137 19.2618205,25.9097752 20.638293,25.9344599 C23.4184234,26.0182731 26.0792706,24.3563621 27.7847427,22.0032799 C29.5218387,19.6381424 30.3629238,16.6059442 30.3418412,13.6259858 M30.5116117,13.6259858 C30.456686,16.6375177 29.7043697,19.6656974 28.0749059,22.2168312 C27.2615611,23.4843612 26.2129787,24.6192827 24.9385904,25.448229 C23.6680858,26.2720087 22.1712206,26.7731653 20.638293,26.8127756 C19.1059202,26.8328678 17.5752118,26.3885434 16.2514459,25.5997815 C14.9215771,24.8138899 13.7919931,23.7070974 12.8976466,22.4401415 C11.102296,19.8941743 10.2312514,16.751182 10.1713324,13.6259858 C10.1435921,10.5013636 10.9147717,7.30670571 12.6624091,4.63846319 C13.5478787,3.32271193 14.6802367,2.14473567 16.0506063,1.2991416 C17.4182019,0.45584378 19.0276926,-0.0194799738 20.638293,0.000612213914 C22.2494482,0.0362040892 23.8278698,0.568934094 25.1355464,1.45873098 C26.4471066,2.34910192 27.4973534,3.55233693 28.2996022,4.86981038 C29.8874555,7.5380529 30.5254819,10.6167501 30.5116117,13.6259858" id="Fill-5" fill="#353A4A"></path>
                            <path d="M30.7723008,68.4204733 L5.88641646,68.4204733 C2.64868898,68.4204733 0,66.5477955 0,64.2590306 L3.30179038,30.0502705 C3.30179038,27.7615055 5.95104629,25.8888277 9.18820684,25.8888277 L12.9157604,25.8888277 C12.9157604,25.8888277 17.0764471,28.1581867 21.0636538,28.1581867 C25.0508605,28.1581867 30.1656875,25.8888277 30.1656875,25.8888277 L34.8541845,25.8888277 C38.091912,25.8888277 40.740601,27.7615055 40.740601,30.0502705 L41.1068367,33.4885548 L41.2173877,34.5336243 L41.523529,37.4068519 L44.3808476,64.2590306 C44.3808476,66.5477955 41.7327255,68.4204733 38.494998,68.4204733 L35.8865609,68.4204733" id="Fill-7" fill="#FFFFFF"></path>
                            <g id="Group-11" transform="translate(0.000000, 24.964227)">
                                <mask id="mask-2" fill="white">
                                    <use xlink:href="#path-1"></use>
                                </mask>
                                <g id="Clip-10"></g>
                                <path d="M31.1172545,43.9200264 L14.7297074,44.0668246 L6.53508442,44.1402237 C5.14477347,44.1846045 3.68537171,43.9200264 2.42248233,43.2190366 C1.79330292,42.8679727 1.20546472,42.4093706 0.754675509,41.8090912 C0.301621024,41.2179156 0.00487033572,40.4645791 0.000339790864,39.6850694 L-0.000226527243,39.6691378 L0.00203874518,39.6480853 L3.03410589,5.52035155 L3.0312743,5.58237094 C3.01824898,4.36815647 3.66271899,3.2654631 4.47765074,2.53886897 C5.298812,1.79406731 6.28703709,1.31611972 7.30527705,1.03447204 C7.81552966,0.892794717 8.33710864,0.804602007 8.86151921,0.757376233 C9.12032658,0.734616824 9.39385823,0.72437509 9.64247188,0.722668134 L10.3696243,0.716978282 L13.2793668,0.694218873 L13.4515275,0.692511917 L13.6310503,0.783549553 C14.8871439,1.41967503 16.2757559,1.95850404 17.6547405,2.33574125 C19.0405209,2.71468541 20.4568824,2.94683138 21.8398313,2.87343228 C23.2352391,2.81027492 24.6617944,2.4956261 26.0566359,2.10359528 C27.4480795,1.70473663 28.8491505,1.20118471 30.1618758,0.638458321 L30.3323376,0.565628212 L30.5112941,0.564490242 L33.6611554,0.549696626 L35.2406166,0.543437788 C35.8210927,0.545713729 36.4032677,0.595784429 36.9775143,0.71128843 C38.1243084,0.935468608 39.2501488,1.40032954 40.2106243,2.18382219 C40.6874642,2.57585301 41.1212638,3.05607654 41.4423662,3.6353035 C41.7646012,4.20997858 41.9611136,4.89332983 41.9577157,5.58237094 L41.9526188,5.48848838 C42.2516348,8.33056958 42.5370591,11.1743577 42.7936012,14.0209908 L43.5909771,22.5586141 C43.8690393,25.4029713 44.0983981,28.2530182 44.3373844,31.1019273 C44.5712737,33.9508363 44.8295148,36.7974694 45.0305577,39.6503613 L45.0322567,39.6776726 L45.0322567,39.6850694 C45.0192314,40.6762416 44.5208714,41.5843421 43.8571466,42.2250194 C43.1894576,42.8776455 42.3643321,43.3163331 41.5097581,43.6013947 C40.6512198,43.8847493 39.7496414,44.0065122 38.8571241,43.9871667 L36.2260101,43.9200264 L36.2260101,43.7459169 L38.8559914,43.6782077 C39.7156623,43.6486205 40.5708026,43.4972704 41.3687449,43.1968462 C42.1621565,42.896991 42.9085638,42.4531825 43.4765808,41.8477822 C44.0457305,41.2509167 44.4138373,40.4736829 44.3906183,39.6850694 L44.3923172,39.7192085 C43.9873998,36.888507 43.6396805,34.0509777 43.2670431,31.2168623 C42.900069,28.3816089 42.5234675,25.5480625 42.195003,22.7088262 L41.1744977,14.1956693 C40.8250795,11.35814 40.5039771,8.5183347 40.1970327,5.67739147 L40.1919358,5.63073469 L40.1919358,5.58237094 C40.1919358,4.85065594 39.7615341,4.12007891 39.0802534,3.57783599 C38.4040696,3.02990322 37.5302407,2.6685976 36.6246981,2.4762806 C36.1693783,2.37955311 35.7015996,2.33403429 35.2321218,2.32663748 L33.6611554,2.31867169 L30.5112941,2.30387807 L30.8601461,2.22991 C29.4194328,2.83644825 27.9911785,3.3234996 26.5023282,3.72634114 C25.0168758,4.11837196 23.496878,4.43757267 21.9015599,4.48878134 C20.2926502,4.54738682 18.7228164,4.25606638 17.237364,3.82591355 C15.7394526,3.38779493 14.3310195,2.82165463 12.9288159,2.08538775 L13.2793668,2.17471843 L10.3696243,2.15139003 L9.64247188,2.14570018 C9.40575091,2.14342424 9.19394794,2.14740714 8.96911965,2.16220075 C8.52682521,2.19406393 8.08679604,2.25892824 7.6603585,2.3721563 C6.80918239,2.59121561 5.99878118,2.97983252 5.36960176,3.53573109 C4.73759075,4.08707777 4.32587749,4.82220668 4.32191326,5.58237094 L4.32191326,5.618786 L4.31908167,5.6455283 L0.754109191,39.7214844 L0.756374463,39.6850694 C0.733721739,40.9032668 1.64662653,41.9957184 2.75774265,42.6210331 C3.88414937,43.2702453 5.20253792,43.5462031 6.53508442,43.5268576 L14.7297074,43.6002567 L31.1172545,43.7459169 L31.1172545,43.9200264 Z" id="Fill-9" fill="#353A4A" mask="url(#mask-2)"></path>
                            </g>
                            <path d="M10.2567717,9.42538686 L12.4281357,12.1297435 L12.2770746,12.0500205 C15.115905,11.9223389 17.954176,11.8718892 20.792447,11.7765952 C22.2113028,11.7361108 23.630718,11.651405 25.0495737,11.6489137 C26.468989,11.658879 27.8878447,11.7423392 29.3067005,11.8619238 L28.9379994,12.1334806 C29.1651506,11.643931 29.402932,11.1587412 29.6435109,10.6760428 C29.8997553,10.1995728 30.1347393,9.71376022 30.4083278,9.24600991 L30.5118327,9.29459116 C30.400495,9.83895039 30.2511124,10.3652473 30.1224306,10.9008869 C29.9786428,11.430298 29.8314981,11.9572178 29.6742826,12.4797777 L29.5993115,12.7282896 L29.305022,12.7513345 C27.8856068,12.8640679 26.466751,12.9419225 25.0478953,12.9444139 C23.6284801,12.936317 22.2096243,12.8441372 20.7907686,12.7974244 C17.9524976,12.6896737 15.1142266,12.6267672 12.2765151,12.4853833 L12.1758077,12.4804006 L12.125454,12.4056602 L10.1706109,9.50448711 L10.2567717,9.42538686 Z" id="Fill-12" fill="#353A4A"></path>
                            <path d="M17.7038339,15.7182168 L17.7038339,15.7182168 C15.018035,15.7182168 13.8690149,14.207266 13.8690149,12.2266302 C13.8690149,10.2465973 14.768843,11.4675372 17.4546419,11.4675372 C20.1398706,11.4675372 20.3412218,10.3153317 20.3412218,12.2953646 C20.3412218,14.2753975 20.3896328,15.7182168 17.7038339,15.7182168" id="Fill-14" fill-opacity="0.2" fill="#3F88C5"></path>
                            <path d="M26.0252428,15.7182168 L26.0252428,15.7182168 C23.3394439,15.7182168 22.1904238,14.207266 22.1904238,12.2266302 C22.1904238,10.2465973 23.0902519,11.4675372 25.7760509,11.4675372 C28.4612795,11.4675372 28.6626307,10.3153317 28.6626307,12.2953646 C28.6626307,14.2753975 28.7110417,15.7182168 26.0252428,15.7182168" id="Fill-16" fill-opacity="0.2" fill="#3F88C5"></path>
                            <path d="M18.7579986,10.1505906 C18.9026612,10.32598 19.0279675,10.5211077 19.1288238,10.7325901 C19.3121989,11.118334 19.4166208,11.5559615 19.4166208,12.0200949 C19.4166208,13.5461518 18.2893734,14.7936159 16.9115133,14.7936159 L16.3741224,14.7936159 C14.9962623,14.7936159 13.8690149,13.5461518 13.8690149,12.0200949 C13.8690149,10.4946019 14.9962623,9.24600991 16.3741224,9.24600991 L16.9115133,9.24600991 C17.386251,9.24600991 17.831445,9.39432955 18.2109296,9.65149213" id="Fill-18" fill="#80DD8A"></path>
                            <path d="M19.5358521,10.5491492 C20.0493047,11.0831081 20.3627588,11.8717156 20.3400677,12.6792497 C20.3337353,13.4862103 20.0039225,14.2971856 19.4403383,14.8667036 C19.1574909,15.1494552 18.8197625,15.3725594 18.4514276,15.5147955 C18.2662047,15.5836195 18.0751771,15.6335168 17.8804556,15.6662082 L17.5859987,15.6937378 L17.3253147,15.7052084 C17.0034174,15.7281497 16.5575104,15.732738 16.1791492,15.6157373 C15.7891785,15.5067661 15.4187327,15.3100444 15.0963077,15.0410575 C14.4488192,14.5076721 13.9955244,13.6737555 13.8915674,12.7612649 C13.781278,11.851642 14.0810119,10.8812246 14.6699257,10.2256767 C15.2530348,9.56496699 16.0915509,9.19446484 16.8978773,9.25181812 C17.1047359,9.26156817 17.2546028,9.28909774 17.4356041,9.31318612 C17.5997189,9.33842156 17.8118545,9.36709819 17.9918004,9.4267456 C18.3606631,9.54833454 18.6978637,9.75079159 18.9574924,10.0312491 L18.8989176,10.1339115 C18.5659386,10.0192049 18.2371812,9.95955751 17.91845,9.97332229 C17.7543352,9.97561642 17.6181885,9.99855773 17.4356041,10.0278079 C17.2693784,10.0576316 17.0714907,10.0668081 16.9311224,10.1012201 C16.3474856,10.214206 15.8366715,10.5531639 15.5021094,11.0269019 C15.1622703,11.4954782 14.9802136,12.0695844 14.9891845,12.666632 C14.9881291,13.261959 15.2340375,13.8699037 15.6625304,14.2948914 C15.8762491,14.5053779 16.1311284,14.6711289 16.4081712,14.7755119 C16.695768,14.8850566 16.9543412,14.910292 17.3253147,14.9194686 L17.5849433,14.9309392 L17.8107991,14.9297922 C17.9617215,14.9166009 18.1110607,14.891939 18.2593446,14.8517917 C18.5538015,14.7669089 18.8345381,14.6149227 19.0793912,14.4067303 C19.5764851,14.0000956 19.9252951,13.3583125 19.9975901,12.6557349 C20.0814944,11.9548779 19.8830791,11.2064177 19.4540585,10.6311643 L19.5358521,10.5491492 Z" id="Fill-20" fill="#353A4A"></path>
                            <path d="M28.0040085,10.1505906 C28.1486711,10.32598 28.2739774,10.5211077 28.3748337,10.7325901 C28.5582088,11.118334 28.6626307,11.5559615 28.6626307,12.0200949 C28.6626307,13.5461518 27.5353833,14.7936159 26.1575232,14.7936159 L25.6201323,14.7936159 C24.2422722,14.7936159 23.1150248,13.5461518 23.1150248,12.0200949 C23.1150248,10.4946019 24.2422722,9.24600991 25.6201323,9.24600991 L26.1575232,9.24600991 C26.6322609,9.24600991 27.0774549,9.39432955 27.4569395,9.65149213" id="Fill-22" fill="#80DD8A"></path>
                            <path d="M27.857261,10.5491492 C28.3707136,11.0831081 28.6841677,11.8717156 28.6614766,12.6792497 C28.6551442,13.4862103 28.3253314,14.2971856 27.7617472,14.8667036 C27.4788998,15.1494552 27.1411714,15.3725594 26.7728365,15.5147955 C26.5876136,15.5836195 26.396586,15.6335168 26.2018645,15.6662082 L25.9074076,15.6937378 L25.6467236,15.7052084 C25.3248263,15.7281497 24.8789193,15.732738 24.5005581,15.6157373 C24.1105874,15.5067661 23.7401416,15.3100444 23.4177166,15.0410575 C22.7702281,14.5076721 22.3169334,13.6737555 22.2129764,12.7612649 C22.1026869,11.851642 22.4024208,10.8812246 22.9913346,10.2256767 C23.5744437,9.56496699 24.4129598,9.19446484 25.2192862,9.25181812 C25.4261448,9.26156817 25.5760117,9.28909774 25.757013,9.31318612 C25.9211279,9.33842156 26.1332635,9.36709819 26.3132093,9.4267456 C26.682072,9.54833454 27.0192726,9.75079159 27.2789013,10.0312491 L27.2203265,10.1339115 C26.8873475,10.0192049 26.5585901,9.95955751 26.239859,9.97332229 C26.0757441,9.97561642 25.9395974,9.99855773 25.757013,10.0278079 C25.5907873,10.0576316 25.3928996,10.0668081 25.2525313,10.1012201 C24.6688945,10.214206 24.1580804,10.5531639 23.8235183,11.0269019 C23.4836792,11.4954782 23.3016225,12.0695844 23.3105934,12.666632 C23.309538,13.261959 23.5554465,13.8699037 23.9839393,14.2948914 C24.197658,14.5053779 24.4525373,14.6711289 24.7295801,14.7755119 C25.0171769,14.8850566 25.2757501,14.910292 25.6467236,14.9194686 L25.9063522,14.9309392 L26.1322081,14.9297922 C26.2831304,14.9166009 26.4324697,14.891939 26.5807535,14.8517917 C26.8752104,14.7669089 27.1559471,14.6149227 27.4008001,14.4067303 C27.897894,14.0000956 28.246704,13.3583125 28.318999,12.6557349 C28.4029034,11.9548779 28.204488,11.2064177 27.7754675,10.6311643 L27.857261,10.5491492 Z" id="Fill-24" fill="#353A4A"></path>
                        </g>
                    </g>
                </g>
            </g>
        </g>
    </g>
</svg>