<svg width="240" height="240" viewBox="0 0 240 240" fill="none" xmlns="http://www.w3.org/2000/svg">
<path d="M37.31 197.7V95C37.3151 94.2162 37.4977 93.4437 37.8441 92.7405C38.1905 92.0373 38.6917 91.4218 39.31 90.94L114.94 30.94C116.537 29.6595 118.523 28.9616 120.57 28.9616C122.617 28.9616 124.603 29.6595 126.2 30.94L204.49 91.45C204.909 91.7734 205.249 92.1885 205.483 92.6635C205.717 93.1384 205.839 93.6606 205.84 94.19V196.52C205.84 200.4 204.73 202.65 200.02 202.65L42.16 202.52C41.5245 202.524 40.8945 202.402 40.3062 202.162C39.718 201.921 39.1831 201.567 38.7323 201.119C38.2816 200.671 37.9238 200.138 37.6797 199.551C37.4356 198.965 37.31 198.335 37.31 197.7V197.7Z" fill="white"/>
<g opacity="0.8">
<g opacity="0.2">
<path opacity="0.2" d="M54.58 190.1L44.41 196.73L39.32 200.05C39.2267 200.087 39.1432 200.145 39.0757 200.22C39.0083 200.294 38.9587 200.383 38.9307 200.479C38.9028 200.576 38.8972 200.677 38.9144 200.776C38.9316 200.875 38.9711 200.969 39.03 201.05C39.1547 201.215 39.3304 201.335 39.53 201.39C39.662 201.435 39.8004 201.459 39.94 201.46H40.66H64.94L161.2 201.31H185.26H197.26C198.26 201.31 199.31 201.31 200.13 201.26C200.886 201.225 201.622 201.001 202.27 200.61C203.27 200.01 203.54 198.28 203.5 196.36L203.41 148.23L203.35 110V100.47V94.65C203.339 94.4529 203.292 94.2596 203.21 94.08C203.125 93.8958 203.01 93.7269 202.87 93.58L202.62 93.36L202.1 93L187.1 81.26L127.1 34.26L124.81 32.45L123.67 31.55L123.15 31.17C123 31.0485 122.84 30.9414 122.67 30.85C121.677 30.2484 120.555 29.8919 119.397 29.8102C118.239 29.7285 117.078 29.9238 116.01 30.38C115.665 30.5421 115.331 30.7258 115.01 30.93C114.84 31.03 114.7 31.14 114.54 31.25C114.38 31.36 114.17 31.54 113.99 31.68L109.45 35.33L91.28 49.87L54.88 79.07L45 87L40.07 91L37.7 92.93C37.1452 93.4298 36.7605 94.0907 36.6 94.82C36.5207 95.2282 36.4938 95.6449 36.52 96.06V119.8V170.46C36.52 176.7 36.35 182.97 36.19 189.13C36.1917 190.349 35.9993 191.561 35.62 192.72C33.54 195.09 33.34 193.81 33.34 179.16V108.1C33.34 105.92 33.28 103.73 33.22 101.55L33.15 98.27V96.64C33.1168 96.0238 33.1168 95.4062 33.15 94.79C33.2763 93.6911 33.6637 92.6385 34.28 91.72C34.5831 91.2632 34.9389 90.8437 35.34 90.47C35.53 90.29 35.77 90.1 35.92 89.98L36.39 89.61L40.18 86.61C42.71 84.61 45.24 82.61 47.73 80.61L86.85 49L106.42 33.18L111.31 29.18L111.92 28.69C112.12 28.53 112.33 28.36 112.6 28.17C113.1 27.7854 113.635 27.4505 114.2 27.17C115.88 26.3587 117.741 25.9915 119.603 26.1036C121.466 26.2156 123.269 26.8031 124.84 27.81C125.1 27.98 125.35 28.17 125.6 28.35L126.23 28.84L127.46 29.84L129.93 31.78L169.46 63L189.22 78.57L199.1 86.36L204 90.26L204.62 90.75C204.923 90.9842 205.201 91.249 205.45 91.54C205.94 92.1429 206.282 92.8517 206.45 93.61C206.542 93.9864 206.589 94.3725 206.59 94.76V97.12L206.52 197.9C206.462 199.237 206.059 200.536 205.35 201.67C204.922 202.293 204.367 202.818 203.72 203.21C203.127 203.564 202.483 203.824 201.81 203.98C201.205 204.118 200.589 204.205 199.97 204.24H199.08H40C39.379 204.252 38.7638 204.119 38.2032 203.851C37.6425 203.584 37.1518 203.19 36.77 202.7C36.362 202.171 36.1181 201.533 36.0683 200.867C36.0186 200.2 36.1652 199.534 36.49 198.95C36.6549 198.662 36.8566 198.396 37.09 198.16C37.21 198.04 37.34 197.94 37.47 197.83C37.5756 197.747 37.6858 197.67 37.8 197.6L38.71 197L42.34 194.63L49.59 189.9L64.11 180.42L93.11 161.42C95.4564 159.84 97.8867 158.388 100.39 157.07C101.55 157.2 101.64 158.07 101.53 159.07C101.53 159.21 98.22 161.47 96.38 162.67L54.54 190.05L54.58 190.1Z" fill="#3F88C5"/>
</g>
</g>
<path opacity="0.2" d="M44.07 101.55C45.07 102.55 118.68 151.94 118.68 151.94L192.33 99.62L44.07 101.55Z" fill="#3F88C5"/>
<path opacity="0.2" d="M192.33 213.6C189.59 213.6 186.86 213.6 184.13 213.6C183.31 213.6 182.49 213.43 181.67 213.42C180.85 213.41 179.81 213.19 179.02 213.95C178.84 214.12 178.4 214.04 178.08 214.04C169.66 214.04 161.25 214.04 152.83 214.04C144.1 214.04 135.37 213.91 126.64 213.82C123.74 213.82 120.83 213.62 117.93 213.63C109.16 213.63 100.4 213.76 91.63 213.83C82.51 213.91 73.3833 213.977 64.25 214.03C63.73 214.03 63.25 213.67 62.67 213.61C61.67 213.5 60.61 213.46 59.59 213.45C59.05 213.45 58.52 213.6 57.99 213.6C52.56 213.6 47.13 213.6 41.7 213.6C40.5933 213.575 39.4957 213.393 38.44 213.06C36.25 212.41 35.6 210.79 37.01 208.96C38.4797 207.208 40.0595 205.551 41.74 204C42.1318 203.617 42.6054 203.328 43.125 203.155C43.6447 202.982 44.1969 202.929 44.74 203C48.15 203.2 51.57 203 54.99 203.07C63.97 203.13 72.97 203.203 81.99 203.29C88.45 203.35 94.91 203.45 101.38 203.5C113.63 203.58 125.89 203.68 138.14 203.7C144.82 203.7 151.5 203.57 158.14 203.5L177.53 203.28C183.75 203.21 189.96 203.28 196.17 203.01C198.23 202.93 199.86 203.22 201.34 204.74C202.82 206.26 204.6 207.56 205.5 209.6C206.23 211.25 205.72 212.52 203.96 213C202.723 213.346 201.452 213.554 200.17 213.62C197.55 213.71 194.92 213.62 192.3 213.62L192.33 213.6Z" fill="#3F88C5"/>
<path d="M101.87 158.39C101.02 159.16 100.17 159.94 99.28 160.66C98.39 161.38 97.28 162.21 96.28 162.98L95.99 163.18L64.7 183.88L51.27 192.77L44.56 197.22L41.2 199.44L40.78 199.72C40.6594 199.789 40.5456 199.87 40.44 199.96C40.3007 200.053 40.1927 200.185 40.13 200.34C40.0755 200.487 40.0626 200.645 40.0926 200.799C40.1226 200.952 40.1944 201.095 40.3 201.21C40.434 201.353 40.5969 201.467 40.7779 201.542C40.9588 201.618 41.1538 201.655 41.35 201.65H71.52H145.31H196C197.52 201.65 199.16 201.71 200.47 201.56C201.063 201.546 201.642 201.372 202.145 201.057C202.648 200.742 203.058 200.297 203.33 199.77C203.582 199.169 203.734 198.53 203.78 197.88C203.84 197.19 203.83 196.46 203.83 195.68V186.4V112.94V94.58C203.846 94.2787 203.826 93.9766 203.77 93.68C203.706 93.4298 203.605 93.1905 203.47 92.97C203.332 92.7474 203.156 92.551 202.95 92.39L202.06 91.7L198.43 88.89L191.16 83.28L162.08 60.83L133 38.38L125.73 32.77C125.13 32.31 124.5 31.77 123.97 31.44C123.41 31.0775 122.809 30.7821 122.18 30.56C120.914 30.1266 119.557 30.0233 118.24 30.26C116.915 30.5039 115.674 31.0783 114.63 31.93L111 34.79L103.81 40.5L46.34 86.18L40.27 91L39.51 91.6L39.14 91.9L38.86 92.15C38.5003 92.4923 38.2085 92.8994 38 93.35C37.795 93.8047 37.6731 94.2924 37.64 94.79V192C37.64 192.22 37.64 192.43 37.64 192.65C37.6271 192.81 37.5758 192.964 37.4906 193.1C37.4054 193.236 37.2888 193.35 37.1505 193.431C37.0123 193.513 36.8564 193.56 36.6962 193.568C36.536 193.577 36.3761 193.546 36.23 193.48C35.9957 193.379 35.7976 193.209 35.6619 192.993C35.5262 192.777 35.4593 192.525 35.47 192.27V95.62C35.47 95.3 35.47 94.99 35.47 94.57C35.5869 93.0005 36.303 91.5361 37.47 90.48C37.77 90.2 38.03 90.01 38.28 89.81L39.04 89.21L40.53 88L43.59 85.58L113.59 29.97C115.258 28.7112 117.281 28.0113 119.37 27.97C121.462 27.9224 123.517 28.527 125.25 29.7L134.17 36.56L151.88 50.2L187.25 77.51L195.92 84.21L200.25 87.55L202.42 89.22L203.5 90.06C203.908 90.3711 204.299 90.705 204.67 91.06C205.511 91.9021 205.988 93.0401 206 94.23V113.39V157.19V195.51C206.025 196.468 205.991 197.426 205.9 198.38C205.8 199.473 205.433 200.524 204.83 201.44C204.152 202.394 203.162 203.081 202.03 203.38C201.053 203.647 200.043 203.775 199.03 203.76H160.71H72.96H41.42C40.755 203.764 40.1004 203.595 39.52 203.27C38.8971 202.909 38.4091 202.354 38.13 201.69C37.8488 200.98 37.8488 200.19 38.13 199.48C38.4183 198.867 38.8809 198.352 39.46 198L40.61 197.25L45.18 194.25L81.76 170L89.76 164.69L92.76 162.69C93.28 162.33 93.81 161.98 94.36 161.69C95.61 160.92 96.91 160.2 98.21 159.51C99.3 158.92 100.42 158.4 101.54 157.87C101.759 157.784 101.987 157.723 102.22 157.69L102.31 157.81C102.18 158.015 102.032 158.209 101.87 158.39Z" fill="#353A4A"/>
<path d="M102.37 157.71C102.225 157.952 102.058 158.18 101.87 158.39C101.02 159.16 100.17 159.94 99.28 160.66C98.39 161.38 97.28 162.21 96.28 162.98L95.99 163.18L64.7 183.88L51.27 192.77L44.56 197.22L41.2 199.44L40.78 199.72C40.6594 199.789 40.5456 199.87 40.44 199.96C40.3007 200.053 40.1927 200.185 40.13 200.34C40.0755 200.487 40.0626 200.645 40.0926 200.799C40.1226 200.952 40.1944 201.095 40.3 201.21C40.434 201.353 40.5969 201.467 40.7779 201.542C40.9588 201.618 41.1538 201.655 41.35 201.65H71.52H145.31H196C197.52 201.65 199.16 201.71 200.47 201.56C201.063 201.546 201.642 201.372 202.145 201.057C202.648 200.742 203.058 200.297 203.33 199.77C203.582 199.169 203.734 198.53 203.78 197.88C203.84 197.19 203.83 196.46 203.83 195.68V186.4V112.94V94.58C203.846 94.2787 203.826 93.9766 203.77 93.68C203.706 93.4298 203.605 93.1905 203.47 92.97C203.332 92.7474 203.156 92.551 202.95 92.39L202.06 91.7L198.43 88.89L191.16 83.28L162.08 60.83L133 38.38L125.73 32.77C125.13 32.31 124.5 31.77 123.97 31.44C123.41 31.0775 122.809 30.7821 122.18 30.56C120.914 30.1266 119.557 30.0233 118.24 30.26C116.915 30.5039 115.674 31.0783 114.63 31.93L111 34.79L103.81 40.5L46.34 86.18L40.27 91L39.51 91.6L39.14 91.9L38.86 92.15C38.5003 92.4923 38.2085 92.8994 38 93.35C37.795 93.8047 37.6731 94.2924 37.64 94.79V192C37.64 192.22 37.64 192.43 37.64 192.65C37.6271 192.81 37.5758 192.964 37.4906 193.1C37.4054 193.236 37.2888 193.35 37.1505 193.431C37.0123 193.513 36.8564 193.56 36.6962 193.568C36.536 193.577 36.3761 193.546 36.23 193.48C35.9957 193.379 35.7976 193.209 35.6619 192.993C35.5262 192.777 35.4593 192.525 35.47 192.27V95.62C35.47 95.3 35.47 94.99 35.47 94.57C35.5869 93.0005 36.303 91.5361 37.47 90.48C37.77 90.2 38.03 90.01 38.28 89.81L39.04 89.21L40.53 88L43.59 85.58L113.59 29.97C115.258 28.7112 117.281 28.0113 119.37 27.97C121.462 27.9224 123.517 28.527 125.25 29.7L134.17 36.56L151.88 50.2L187.25 77.51L195.92 84.21L200.25 87.55L202.42 89.22L203.5 90.06C203.908 90.3711 204.299 90.705 204.67 91.06C205.511 91.9021 205.988 93.0401 206 94.23V113.39V157.19V195.51C206.025 196.468 205.991 197.426 205.9 198.38C205.8 199.473 205.433 200.524 204.83 201.44C204.152 202.394 203.162 203.081 202.03 203.38C201.053 203.647 200.043 203.775 199.03 203.76H160.71H72.96H41.42C40.755 203.764 40.1004 203.595 39.52 203.27C38.8971 202.909 38.4091 202.354 38.13 201.69C37.8488 200.98 37.8488 200.19 38.13 199.48C38.4183 198.867 38.8809 198.352 39.46 198L40.61 197.25L45.18 194.25L81.76 170L89.76 164.69L92.76 162.69C93.28 162.33 93.81 161.98 94.36 161.69C95.61 160.92 96.91 160.2 98.21 159.51C99.3 158.92 100.42 158.4 101.54 157.87C101.759 157.784 101.987 157.723 102.22 157.69L102.37 157.71Z" fill="#353A4A"/>
<g opacity="0.8">
<g opacity="0.2">
<path opacity="0.2" d="M189.37 193.87C187.98 192.98 186.62 192.06 185.21 191.2C179.64 187.8 174.06 184.39 168.47 181.02C164.04 178.35 159.53 175.8 155.16 173.02C152.48 171.33 150.05 169.26 147.44 167.47C144.6 165.47 141.68 163.72 138.82 161.8C138.297 161.4 137.848 160.913 137.49 160.36C137.431 160.044 137.488 159.718 137.65 159.44C139.14 156.68 139.41 156.5 140.65 157.31C142.65 158.61 144.7 159.93 146.74 161.21C147.12 161.44 147.67 161.4 148.04 161.66C148.58 162.03 148.96 162.66 149.51 162.99C160.957 170.43 172.42 177.857 183.9 185.27C187.9 187.82 191.9 190.27 195.8 192.85C196.06 193.01 196.38 193.5 196.26 193.74C195.7 194.731 195.079 195.686 194.4 196.6C194.31 196.73 193.88 196.6 193.7 196.51C192.26 195.62 190.84 194.69 189.41 193.77L189.37 193.87Z" fill="#3F88C5"/>
</g>
</g>
<path d="M194.44 194.35C193.39 193.88 192.34 193.41 191.32 192.89C190.3 192.37 189.09 191.67 187.98 191.05L187.68 190.86L185.18 189.26L178.29 184.86L168 178.32L157.76 171.81L147.53 165.29L139.92 160.42L138.71 159.65L138.18 159.27C138.052 159.172 137.949 159.045 137.88 158.899C137.812 158.753 137.78 158.593 137.787 158.432C137.794 158.271 137.839 158.114 137.92 157.974C138.001 157.834 138.114 157.716 138.25 157.63C138.46 157.489 138.707 157.413 138.96 157.413C139.213 157.413 139.46 157.489 139.67 157.63L141.11 158.57L148.6 163.36L161.04 171.3L173.24 179.07L185.45 186.86C186.26 187.38 187.45 188.09 188.5 188.8C189.71 189.64 190.88 190.54 192.04 191.45C193.04 192.21 193.95 193.03 194.88 193.84C195.046 194.007 195.193 194.192 195.32 194.39L195.25 194.52C194.975 194.489 194.704 194.432 194.44 194.35V194.35Z" fill="#353A4A"/>
<path d="M195.27 194.53C194.988 194.497 194.71 194.437 194.44 194.35C193.39 193.88 192.34 193.41 191.32 192.89C190.3 192.37 189.09 191.67 187.98 191.05L187.68 190.86L185.18 189.26L178.29 184.86L168 178.32L157.76 171.81L147.53 165.29L139.92 160.42L138.71 159.65L138.18 159.27C138.052 159.172 137.949 159.045 137.88 158.899C137.812 158.753 137.78 158.593 137.787 158.432C137.794 158.271 137.839 158.114 137.92 157.974C138.001 157.834 138.114 157.716 138.25 157.63C138.46 157.489 138.707 157.413 138.96 157.413C139.213 157.413 139.46 157.489 139.67 157.63L141.11 158.57L148.6 163.36L161.04 171.3L173.24 179.07L185.45 186.86C186.26 187.38 187.45 188.09 188.5 188.8C189.71 189.64 190.88 190.54 192.04 191.45C193.04 192.21 193.95 193.03 194.88 193.84C195.046 194.007 195.193 194.192 195.32 194.39L195.27 194.53Z" fill="#353A4A"/>
<path d="M118.68 151.94L63.45 114.15V49.23C63.45 48.2009 63.8588 47.214 64.5864 46.4864C65.3141 45.7588 66.301 45.35 67.33 45.35H171C172.029 45.35 173.016 45.7588 173.744 46.4864C174.471 47.214 174.88 48.2009 174.88 49.23V110.28" fill="white"/>
<path d="M174.65 96.89C174.47 95.75 174.3 94.62 174.19 93.47C174.08 92.32 174.01 90.94 173.93 89.67C173.93 89.55 173.93 89.43 173.93 89.31V56.13V49.13C173.913 48.6065 173.752 48.0978 173.465 47.6601C173.177 47.2225 172.774 46.8729 172.3 46.65C171.986 46.4999 171.647 46.4084 171.3 46.38H161.53H139L94.14 46.45H71.71H67.51C67.1704 46.4398 66.8317 46.4906 66.51 46.6C66.046 46.7567 65.6342 47.0386 65.3202 47.4144C65.0061 47.7902 64.8019 48.2455 64.73 48.73C64.7177 48.9031 64.7177 49.0769 64.73 49.25V50V61.21V96.06C64.73 96.28 64.73 96.5 64.73 96.71C64.7171 96.8699 64.6659 97.0244 64.5807 97.1603C64.4955 97.2963 64.3788 97.4098 64.2406 97.4912C64.1023 97.5725 63.9465 97.6195 63.7863 97.628C63.626 97.6365 63.4661 97.6063 63.32 97.54C63.0847 97.4423 62.8848 97.275 62.7472 97.0605C62.6095 96.8461 62.5408 96.5946 62.55 96.34C62.55 84.8067 62.55 73.2767 62.55 61.75V49.84C62.5141 49.1676 62.5782 48.4936 62.74 47.84C62.9421 47.1491 63.293 46.5109 63.7681 45.9702C64.2432 45.4295 64.8309 44.9993 65.49 44.71C66.1453 44.4352 66.8494 44.2957 67.56 44.3H76H103.3L156.79 44.24H170.18H171C171.359 44.2414 171.718 44.2783 172.07 44.35C172.793 44.5032 173.476 44.8101 174.07 45.25C174.653 45.6855 175.135 46.2431 175.48 46.884C175.825 47.5248 176.027 48.2333 176.07 48.96V55.72V82.52V87.03C176.07 87.66 176.07 88.3 176.07 88.94C176.01 90.41 175.9 91.88 175.76 93.35C175.64 94.58 175.46 95.81 175.29 97.03C175.236 97.2637 175.159 97.4915 175.06 97.71H174.91C174.796 97.4463 174.708 97.1715 174.65 96.89V96.89Z" fill="#353A4A"/>
<path d="M174.94 97.68C174.817 97.427 174.72 97.1624 174.65 96.89C174.47 95.75 174.3 94.62 174.19 93.47C174.08 92.32 174.01 90.94 173.93 89.67C173.93 89.55 173.93 89.43 173.93 89.31V56.13V49.13C173.913 48.6065 173.752 48.0978 173.465 47.6601C173.177 47.2225 172.774 46.8729 172.3 46.65C171.986 46.4999 171.647 46.4084 171.3 46.38H161.53H139L94.14 46.45H71.71H67.51C67.1704 46.4398 66.8317 46.4906 66.51 46.6C66.046 46.7567 65.6342 47.0386 65.3202 47.4144C65.0061 47.7902 64.8019 48.2455 64.73 48.73C64.7177 48.9031 64.7177 49.0769 64.73 49.25V50V61.21V96.06C64.73 96.28 64.73 96.5 64.73 96.71C64.7171 96.8699 64.6659 97.0244 64.5807 97.1603C64.4955 97.2963 64.3788 97.4098 64.2406 97.4912C64.1023 97.5725 63.9465 97.6195 63.7863 97.628C63.626 97.6365 63.4661 97.6063 63.32 97.54C63.0847 97.4423 62.8848 97.275 62.7472 97.0605C62.6095 96.8461 62.5408 96.5946 62.55 96.34C62.55 84.8067 62.55 73.2767 62.55 61.75V49.84C62.5141 49.1676 62.5782 48.4936 62.74 47.84C62.9421 47.1491 63.293 46.5109 63.7681 45.9702C64.2432 45.4295 64.8309 44.9993 65.49 44.71C66.1453 44.4352 66.8494 44.2957 67.56 44.3H76H103.3L156.79 44.24H170.18H171C171.359 44.2414 171.718 44.2783 172.07 44.35C172.793 44.5032 173.476 44.8101 174.07 45.25C174.653 45.6855 175.135 46.2431 175.48 46.884C175.825 47.5248 176.027 48.2333 176.07 48.96V55.72V82.52V87.03C176.07 87.66 176.07 88.3 176.07 88.94C176.01 90.41 175.9 91.88 175.76 93.35C175.64 94.58 175.46 95.81 175.29 97.03C175.236 97.2637 175.159 97.4915 175.06 97.71L174.94 97.68Z" fill="#353A4A"/>
<g opacity="0.2">
<path opacity="0.2" fill-rule="evenodd" clip-rule="evenodd" d="M128.42 144.43L76.67 110.1C76.67 110.1 56.19 109.99 70.55 119.24C76 122.8 110.7 145.29 116.11 149C116.27 149.58 123.75 148.88 125.26 147.4L128.42 144.43Z" fill="#3F88C5"/>
</g>
<path d="M44.85 101.83C45.85 102.33 46.85 102.83 47.91 103.39C48.97 103.95 50.1 104.67 51.19 105.32L51.49 105.51L74.65 121.13L105.58 141.86L109.43 144.43L111.35 145.72L112.35 146.36C112.66 146.56 112.94 146.74 113.26 146.91C115.128 147.924 117.25 148.374 119.369 148.208C121.488 148.041 123.513 147.264 125.2 145.97L128.97 143.28L136.52 137.9L166.69 116.38L190.35 99.53L190.9 99.18C191.038 99.0986 191.193 99.0515 191.353 99.0427C191.513 99.0338 191.673 99.0634 191.819 99.1291C191.965 99.1948 192.093 99.2945 192.192 99.42C192.292 99.5454 192.359 99.6929 192.39 99.85C192.446 100.098 192.426 100.357 192.331 100.593C192.236 100.829 192.072 101.03 191.86 101.17L190.46 102.17L168.3 117.91L131.56 144.09L127.06 147.3C126.68 147.57 126.33 147.83 125.92 148.11C125.51 148.39 125.08 148.65 124.64 148.89C123.754 149.36 122.818 149.729 121.85 149.99C119.89 150.509 117.837 150.571 115.85 150.17C114.867 149.964 113.909 149.655 112.99 149.25C112.109 148.821 111.263 148.323 110.46 147.76L92.1 135.46L55.34 110.76L52.15 108.62C51.62 108.28 51.09 107.92 50.57 107.54C49.39 106.67 48.23 105.75 47.1 104.8C46.1 104 45.25 103.17 44.32 102.3C44.1567 102.117 44.0157 101.916 43.9 101.7L44 101.59C44.2895 101.646 44.5738 101.727 44.85 101.83V101.83Z" fill="#353A4A"/>
<path d="M44 101.59C44.2793 101.648 44.5536 101.728 44.82 101.83C45.82 102.33 46.82 102.83 47.88 103.39C48.94 103.95 50.07 104.67 51.16 105.32L51.46 105.51L74.62 121.13L105.55 141.86L109.4 144.43L111.32 145.72L112.32 146.36C112.63 146.56 112.91 146.74 113.23 146.91C115.098 147.924 117.22 148.374 119.339 148.208C121.458 148.041 123.483 147.264 125.17 145.97L128.94 143.28L136.49 137.9L166.66 116.38L190.32 99.53L190.87 99.18C191.008 99.0986 191.163 99.0515 191.323 99.0427C191.483 99.0338 191.643 99.0634 191.789 99.1291C191.935 99.1948 192.063 99.2945 192.162 99.42C192.262 99.5454 192.329 99.6929 192.36 99.85C192.416 100.098 192.396 100.357 192.301 100.593C192.206 100.829 192.042 101.03 191.83 101.17L190.43 102.17L168.3 117.91L131.56 144.09L127.06 147.3C126.68 147.57 126.33 147.83 125.92 148.11C125.51 148.39 125.08 148.65 124.64 148.89C123.754 149.36 122.818 149.729 121.85 149.99C119.89 150.509 117.837 150.571 115.85 150.17C114.867 149.964 113.909 149.655 112.99 149.25C112.109 148.821 111.263 148.323 110.46 147.76L92.1 135.46L55.34 110.76L52.15 108.62C51.62 108.28 51.09 107.92 50.57 107.54C49.39 106.67 48.23 105.75 47.1 104.8C46.1 104 45.25 103.17 44.32 102.3C44.1567 102.117 44.0157 101.916 43.9 101.7L44 101.59Z" fill="#353A4A"/>
<path d="M118.24 112.66C132.594 112.66 144.23 101.418 144.23 87.55C144.23 73.6821 132.594 62.44 118.24 62.44C103.886 62.44 92.25 73.6821 92.25 87.55C92.25 101.418 103.886 112.66 118.24 112.66Z" fill="#80DD8A"/>
<path d="M139.91 101.62C139.438 102.688 138.883 103.718 138.25 104.7C137.512 105.768 136.686 106.771 135.78 107.7L135.51 107.96C135.1 108.33 134.68 108.69 134.26 109.05L133.6 109.55L133.27 109.81L133.08 109.94L132.79 110.14C129.693 112.285 126.145 113.691 122.42 114.25C121.48 114.35 120.54 114.47 119.6 114.49C118.655 114.502 117.71 114.458 116.77 114.36C114.635 114.127 112.537 113.636 110.52 112.9C109.518 112.521 108.537 112.091 107.58 111.61L106.16 110.88L104.79 110.04C103.87 109.51 103.04 108.82 102.17 108.21C101.3 107.6 100.5 106.87 99.77 106.09C98.2215 104.61 96.8369 102.967 95.64 101.19C93.2319 97.5988 91.8489 93.4188 91.64 89.1C91.5917 88.0233 91.6084 86.9447 91.69 85.87C91.7998 84.8012 91.97 83.7395 92.2 82.69C92.6606 80.61 93.376 78.5948 94.33 76.69C97.134 70.8256 101.898 66.1249 107.8 63.4C109.769 62.5396 111.834 61.9153 113.95 61.54C117.094 60.9481 120.314 60.8805 123.48 61.34C126.7 61.7645 129.789 62.8873 132.53 64.63C132.95 64.93 133.39 65.2 133.79 65.52C133.97 65.67 134.13 65.84 134.3 66C134.425 66.1074 134.52 66.2459 134.575 66.4015C134.629 66.5571 134.642 66.7244 134.612 66.8866C134.581 67.0487 134.509 67.2 134.401 67.3252C134.294 67.4504 134.156 67.5452 134 67.6C133.775 67.7058 133.524 67.7442 133.277 67.7105C133.03 67.6768 132.799 67.5724 132.61 67.41C132.203 67.0483 131.772 66.7143 131.32 66.41C128.895 64.868 126.167 63.8653 123.32 63.47C120.44 63.035 117.507 63.0755 114.64 63.59C112.268 63.9854 109.967 64.7266 107.81 65.79C105.649 66.9094 103.657 68.3265 101.89 70C98.3775 73.3272 95.8308 77.5428 94.52 82.2C93.2765 86.7371 93.5396 91.5553 95.27 95.93C96.1854 98.0811 97.3861 100.099 98.84 101.93C100.338 103.754 102.039 105.402 103.91 106.84C105.789 108.273 107.838 109.469 110.01 110.4C112.157 111.348 114.437 111.962 116.77 112.22C121.438 112.728 126.144 111.696 130.17 109.28C130.615 109.028 131.046 108.751 131.46 108.45C131.766 108.247 132.059 108.026 132.34 107.79C132.83 107.43 133.28 107.03 133.76 106.65C134.84 105.76 135.9 104.82 136.92 103.81C137.75 102.95 138.62 102.1 139.4 101.16C139.574 100.998 139.761 100.85 139.96 100.72L140.09 100.8C140.056 101.078 139.996 101.353 139.91 101.62Z" fill="white"/>
<path d="M140.09 100.8C140.056 101.078 139.996 101.353 139.91 101.62C139.438 102.688 138.883 103.718 138.25 104.7C137.512 105.768 136.686 106.771 135.78 107.7L135.51 107.96C135.1 108.33 134.68 108.69 134.26 109.05L133.6 109.55L133.27 109.81L133.08 109.94L132.79 110.14C129.693 112.285 126.145 113.691 122.42 114.25C121.48 114.35 120.54 114.47 119.6 114.49C118.655 114.502 117.71 114.458 116.77 114.36C114.635 114.127 112.537 113.636 110.52 112.9C109.518 112.521 108.537 112.091 107.58 111.61L106.16 110.88L104.79 110.04C103.87 109.51 103.04 108.82 102.17 108.21C101.3 107.6 100.5 106.87 99.77 106.09C98.2215 104.61 96.8369 102.967 95.64 101.19C93.2319 97.5988 91.8489 93.4188 91.64 89.1C91.5917 88.0233 91.6084 86.9447 91.69 85.87C91.7998 84.8012 91.97 83.7395 92.2 82.69C92.6606 80.61 93.376 78.5948 94.33 76.69C97.134 70.8256 101.898 66.1249 107.8 63.4C109.769 62.5396 111.834 61.9153 113.95 61.54C117.094 60.9481 120.314 60.8805 123.48 61.34C126.7 61.7645 129.789 62.8873 132.53 64.63C132.95 64.93 133.39 65.2 133.79 65.52C133.97 65.67 134.13 65.84 134.3 66C134.425 66.1074 134.52 66.2459 134.575 66.4015C134.629 66.5571 134.642 66.7244 134.612 66.8866C134.581 67.0487 134.509 67.2 134.401 67.3252C134.294 67.4504 134.156 67.5452 134 67.6C133.775 67.7058 133.524 67.7442 133.277 67.7105C133.03 67.6768 132.799 67.5724 132.61 67.41C132.203 67.0483 131.772 66.7143 131.32 66.41C128.895 64.868 126.167 63.8653 123.32 63.47C120.44 63.035 117.507 63.0755 114.64 63.59C112.268 63.9854 109.967 64.7266 107.81 65.79C105.649 66.9094 103.657 68.3265 101.89 70C98.3775 73.3272 95.8308 77.5428 94.52 82.2C93.2765 86.7371 93.5396 91.5553 95.27 95.93C96.1854 98.0811 97.3861 100.099 98.84 101.93C100.338 103.754 102.039 105.402 103.91 106.84C105.789 108.273 107.838 109.469 110.01 110.4C112.157 111.348 114.437 111.962 116.77 112.22C121.438 112.728 126.144 111.696 130.17 109.28C130.615 109.028 131.046 108.751 131.46 108.45C131.766 108.247 132.059 108.026 132.34 107.79C132.83 107.43 133.28 107.03 133.76 106.65C134.84 105.76 135.9 104.82 136.92 103.81C137.75 102.95 138.62 102.1 139.4 101.16C139.574 100.998 139.761 100.85 139.96 100.72L140.09 100.8Z" fill="#41474F"/>
<path d="M118.22 90.85C118.84 90.32 119.43 89.85 119.98 89.34C124.39 85.22 129.44 81.96 134.44 78.63C139.73 75.11 145.02 71.63 150.5 68.35C152.256 67.253 154.107 66.3159 156.03 65.55C156.53 65.3677 157.051 65.25 157.58 65.2C158.05 65.2 158.3 65.44 158.13 65.88C157.914 66.4893 157.625 67.0702 157.27 67.61C156.015 69.3599 154.621 71.0053 153.1 72.53C148.76 77.13 144.1 81.35 139.43 85.65C136.3 88.56 133.21 91.52 130.06 94.4C128.25 96.05 126.38 97.63 124.48 99.18C123.48 100.091 122.367 100.87 121.17 101.5C118.17 102.85 115.3 102.79 112.81 100.22C110.32 97.65 107.59 94.79 104.99 92.07C104.45 91.52 103.91 90.97 103.41 90.39C103.199 90.1537 103.052 89.8683 102.98 89.56C102.731 88.5807 102.653 87.5658 102.75 86.56C102.797 85.8337 103.038 85.1333 103.448 84.5318C103.858 83.9303 104.421 83.4497 105.08 83.14C106.579 82.4101 108.274 82.1889 109.91 82.51C110.181 82.5862 110.424 82.739 110.61 82.95C112.71 85.11 114.807 87.2833 116.9 89.47C117.34 89.9 117.76 90.36 118.22 90.85Z" fill="#353A4A"/>
</svg>