<svg id="Ebene_1" data-name="Ebene 1" xmlns="http://www.w3.org/2000/svg" viewBox="0 0 240 240"><defs><style>.cls-1{fill:#fff;}.cls-2{opacity:0.8;}.cls-3{fill:#9ac0e0;}.cls-4{fill:none;}.cls-5,.cls-7{opacity:0.2;}.cls-6,.cls-7,.cls-9{fill:#3f88c5;}.cls-8{fill:#353a4a;}.cls-9{fill-rule:evenodd;}.cls-10{fill:#80dd8a;}.cls-11{fill:#41474f;}</style></defs><title>_</title><path class="cls-1" d="M37.31,197.7V95a5.19,5.19,0,0,1,2-4.06l75.63-60a9,9,0,0,1,11.26,0l78.29,60.51a3.47,3.47,0,0,1,1.35,2.74V196.52c0,3.88-1.11,6.13-5.82,6.13l-157.86-.13A4.82,4.82,0,0,1,37.31,197.7Z"/><g class="cls-2"><line class="cls-3" x1="205.01" y1="111.99" x2="205.04" y2="144.13"/><path class="cls-4" d="M36.89,193.66V95.78c0-.25,0-.34,0-.49a2.76,2.76,0,0,1,.06-.4,3.22,3.22,0,0,1,.73-1.45,5.07,5.07,0,0,1,.72-.64l1-.83L55.67,78.84,88.14,52.58l16.24-13.13,8.11-6.57,2-1.63a7,7,0,0,1,1.78-1,7.34,7.34,0,0,1,4.07-.36,6.88,6.88,0,0,1,1.94.68,10.65,10.65,0,0,1,1.85,1.29l4.1,3.23,8.2,6.46,16.41,12.92,32.81,25.84,16.41,12.92.46.36.21.21a1.82,1.82,0,0,1,.28.51l.06.28V195.51a22.14,22.14,0,0,1-.07,2.39,4.48,4.48,0,0,1-.48,1.7,2,2,0,0,1-1.06.81,6.06,6.06,0,0,1-1.95.32l-10.37,0H40.4a1.9,1.9,0,0,1-.67-.05l-.1,0h0l1.77-1.15,8.74-5.7L67.62,182.4l35-22.82-2.07-3.19-35,22.82L48.05,190.62l-8.74,5.7-1.1.72-.54.35-.15.1-.26.2a2.85,2.85,0,0,0-.48.44,3.64,3.64,0,0,0-1,2.31,3.78,3.78,0,0,0,.74,2.42,4,4,0,0,0,.93.91,4.21,4.21,0,0,0,1.06.53,5.54,5.54,0,0,0,1.9.25H189.18l10.5,0a9.82,9.82,0,0,0,3.17-.56,5.92,5.92,0,0,0,3-2.38,8.08,8.08,0,0,0,1-3.26,25.5,25.5,0,0,0,.09-2.82V94.66c0-.17,0-.34,0-.51a5.46,5.46,0,0,0-.22-1,5.34,5.34,0,0,0-1-1.77,6,6,0,0,0-.71-.72l-.57-.45L188,77.31l-32.8-25.84-16.4-12.91-8.2-6.46-4.11-3.23a15.19,15.19,0,0,0-2.44-1.67,10.5,10.5,0,0,0-3-1,11,11,0,0,0-6.18.55,10.85,10.85,0,0,0-2.75,1.55l-2,1.64L102,36.47,85.77,49.6,53.3,75.87,37.07,89l-1,.82a7.79,7.79,0,0,0-1.21,1.11,7,7,0,0,0-1.6,3.15,6.58,6.58,0,0,0-.13.89c0,.29,0,.63,0,.81v97.88Z"/><g class="cls-5"><path class="cls-6" d="M54.58,190.1l-10.17,6.63-5.09,3.32a.66.66,0,0,0-.29,1,.94.94,0,0,0,.5.34,1.3,1.3,0,0,0,.41.07h.72l24.28,0,96.26-.15,24.06,0,12,0c1,0,2.05,0,2.87-.05a4.55,4.55,0,0,0,2.14-.65c1-.6,1.27-2.33,1.23-4.25l-.09-48.13L203.35,110l0-9.53V94.65a1.59,1.59,0,0,0-.14-.57,1.85,1.85,0,0,0-.34-.5l-.25-.22L202.1,93l-15-11.74-60-47-2.29-1.81-1.14-.9-.52-.38a3.08,3.08,0,0,0-.48-.32,7.31,7.31,0,0,0-6.66-.47,9.06,9.06,0,0,0-1,.55c-.17.1-.31.21-.47.32s-.37.29-.55.43l-4.54,3.65L91.28,49.87l-36.4,29.2L45,87l-4.93,4-2.37,1.93a3.58,3.58,0,0,0-1.1,1.89,4.89,4.89,0,0,0-.08,1.24V119.8l0,50.66c0,6.24-.17,12.51-.33,18.67a11.49,11.49,0,0,1-.57,3.59c-2.08,2.37-2.28,1.09-2.28-13.56V108.1c0-2.18-.06-4.37-.12-6.55l-.07-3.28,0-1.63a17.22,17.22,0,0,1,0-1.85,6.93,6.93,0,0,1,1.13-3.07,7,7,0,0,1,1.06-1.25c.19-.18.43-.37.58-.49l.47-.37,3.79-3c2.53-2,5.06-4,7.55-6L86.85,49l19.57-15.82,4.89-4,.61-.49c.2-.16.41-.33.68-.52a9.69,9.69,0,0,1,1.6-1,10.92,10.92,0,0,1,10.64.64c.26.17.51.36.76.54l.63.49,1.23,1,2.47,1.94L169.46,63l19.76,15.57,9.88,7.79L204,90.26l.62.49a5.6,5.6,0,0,1,.83.79,5,5,0,0,1,1,2.07,4.89,4.89,0,0,1,.14,1.15v2.36l-.07,100.78a7.74,7.74,0,0,1-1.17,3.77,5.32,5.32,0,0,1-1.63,1.54,6.66,6.66,0,0,1-1.91.77,11.15,11.15,0,0,1-1.84.26l-.89,0H40a4,4,0,0,1-3.23-1.54,3.42,3.42,0,0,1-.28-3.75,3.83,3.83,0,0,1,.6-.79c.12-.12.25-.22.38-.33a3.62,3.62,0,0,1,.33-.23l.91-.6,3.63-2.37,7.25-4.73,14.52-9.48,29-19a78.45,78.45,0,0,1,7.28-4.35c1.16.13,1.25,1,1.14,2,0,.14-3.31,2.4-5.15,3.6L54.54,190.05Z"/></g></g><path class="cls-7" d="M44.07,101.55c1,1,74.61,50.39,74.61,50.39l73.65-52.32Z"/><path class="cls-7" d="M192.33,213.6c-2.74,0-5.47,0-8.2,0-.82,0-1.64-.17-2.46-.18s-1.86-.23-2.65.53c-.18.17-.62.09-.94.09-8.42,0-16.83,0-25.25,0-8.73,0-17.46-.13-26.19-.22-2.9,0-5.81-.2-8.71-.19-8.77,0-17.53.13-26.3.2q-13.68.12-27.38.2c-.52,0-1-.36-1.58-.42-1-.11-2.06-.15-3.08-.16-.54,0-1.07.15-1.6.15-5.43,0-10.86,0-16.29,0a11.71,11.71,0,0,1-3.26-.54c-2.19-.65-2.84-2.27-1.43-4.1A53.81,53.81,0,0,1,41.74,204a3.62,3.62,0,0,1,3-1c3.41.2,6.83,0,10.25.07q13.47.09,27,.22c6.46.06,12.92.16,19.39.21,12.25.08,24.51.18,36.76.2,6.68,0,13.36-.13,20-.2l19.39-.22c6.22-.07,12.43,0,18.64-.27,2.06-.08,3.69.21,5.17,1.73s3.26,2.82,4.16,4.86c.73,1.65.22,2.92-1.54,3.4a17.44,17.44,0,0,1-3.79.62c-2.62.09-5.25,0-7.87,0Z"/><path class="cls-8" d="M101.87,158.39c-.85.77-1.7,1.55-2.59,2.27s-2,1.55-3,2.32l-.29.2L64.7,183.88l-13.43,8.89-6.71,4.45-3.36,2.22-.42.28a2.23,2.23,0,0,0-.34.24.83.83,0,0,0-.31.38.85.85,0,0,0,.17.87,1.39,1.39,0,0,0,1.05.44H71.52l73.79,0H196c1.52,0,3.16.06,4.47-.09a3.31,3.31,0,0,0,2.86-1.79,6,6,0,0,0,.45-1.89c.06-.69.05-1.42.05-2.2V186.4l0-73.46V94.58a3.8,3.8,0,0,0-.06-.9,2.61,2.61,0,0,0-.3-.71,2.21,2.21,0,0,0-.52-.58l-.89-.69-3.63-2.81-7.27-5.61L162.08,60.83,133,38.38l-7.27-5.61c-.6-.46-1.23-1-1.76-1.33a8.5,8.5,0,0,0-1.79-.88,7.87,7.87,0,0,0-3.94-.3,8,8,0,0,0-3.61,1.67L111,34.79l-7.19,5.71L46.34,86.18,40.27,91l-.76.6-.37.3-.28.25a3.94,3.94,0,0,0-.86,1.2,4.18,4.18,0,0,0-.36,1.44V192c0,.22,0,.43,0,.65a1,1,0,0,1-1.41.83,1.26,1.26,0,0,1-.76-1.21V95.62c0-.32,0-.63,0-1.05a6.13,6.13,0,0,1,2-4.09c.3-.28.56-.47.81-.67l.76-.6L40.53,88l3.06-2.42,70-55.61a9.92,9.92,0,0,1,5.78-2,10.08,10.08,0,0,1,5.88,1.73l8.92,6.86L151.88,50.2l35.37,27.31,8.67,6.7,4.33,3.34,2.17,1.67,1.08.84a13.69,13.69,0,0,1,1.17,1A4.55,4.55,0,0,1,206,94.23v19.16l0,43.8v38.32a23.75,23.75,0,0,1-.1,2.87,6.67,6.67,0,0,1-1.07,3.06,5,5,0,0,1-2.8,1.94,10.8,10.8,0,0,1-3,.38H160.71l-87.75,0H41.42a3.85,3.85,0,0,1-1.9-.49,3.31,3.31,0,0,1-1.39-1.58,3,3,0,0,1,0-2.21A3.45,3.45,0,0,1,39.46,198l1.15-.75,4.57-3L81.76,170l8-5.31,3-2c.52-.36,1.05-.71,1.6-1,1.25-.77,2.55-1.49,3.85-2.18,1.09-.59,2.21-1.11,3.33-1.64a3,3,0,0,1,.68-.18l.09.12A4.42,4.42,0,0,1,101.87,158.39Z"/><path class="cls-8" d="M102.37,157.71a4.42,4.42,0,0,1-.5.68c-.85.77-1.7,1.55-2.59,2.27s-2,1.55-3,2.32l-.29.2L64.7,183.88l-13.43,8.89-6.71,4.45-3.36,2.22-.42.28a2.23,2.23,0,0,0-.34.24.83.83,0,0,0-.31.38.85.85,0,0,0,.17.87,1.39,1.39,0,0,0,1.05.44H71.52l73.79,0H196c1.52,0,3.16.06,4.47-.09a3.31,3.31,0,0,0,2.86-1.79,6,6,0,0,0,.45-1.89c.06-.69.05-1.42.05-2.2V186.4l0-73.46V94.58a3.8,3.8,0,0,0-.06-.9,2.61,2.61,0,0,0-.3-.71,2.21,2.21,0,0,0-.52-.58l-.89-.69-3.63-2.81-7.27-5.61L162.08,60.83,133,38.38l-7.27-5.61c-.6-.46-1.23-1-1.76-1.33a8.5,8.5,0,0,0-1.79-.88,7.87,7.87,0,0,0-3.94-.3,8,8,0,0,0-3.61,1.67L111,34.79l-7.19,5.71L46.34,86.18,40.27,91l-.76.6-.37.3-.28.25a3.94,3.94,0,0,0-.86,1.2,4.18,4.18,0,0,0-.36,1.44V192c0,.22,0,.43,0,.65a1,1,0,0,1-1.41.83,1.26,1.26,0,0,1-.76-1.21V95.62c0-.32,0-.63,0-1.05a6.13,6.13,0,0,1,2-4.09c.3-.28.56-.47.81-.67l.76-.6L40.53,88l3.06-2.42,70-55.61a9.92,9.92,0,0,1,5.78-2,10.08,10.08,0,0,1,5.88,1.73l8.92,6.86L151.88,50.2l35.37,27.31,8.67,6.7,4.33,3.34,2.17,1.67,1.08.84a13.69,13.69,0,0,1,1.17,1A4.55,4.55,0,0,1,206,94.23v19.16l0,43.8v38.32a23.75,23.75,0,0,1-.1,2.87,6.67,6.67,0,0,1-1.07,3.06,5,5,0,0,1-2.8,1.94,10.8,10.8,0,0,1-3,.38H160.71l-87.75,0H41.42a3.85,3.85,0,0,1-1.9-.49,3.31,3.31,0,0,1-1.39-1.58,3,3,0,0,1,0-2.21A3.45,3.45,0,0,1,39.46,198l1.15-.75,4.57-3L81.76,170l8-5.31,3-2c.52-.36,1.05-.71,1.6-1,1.25-.77,2.55-1.49,3.85-2.18,1.09-.59,2.21-1.11,3.33-1.64a3,3,0,0,1,.68-.18Z"/><g class="cls-2"><line class="cls-3" x1="166.65" y1="177.05" x2="169.42" y2="178.78"/><rect class="cls-4" x="163.8" y="143.05" width="5.71" height="68" transform="translate(-72.43 221.29) rotate(-57.22)"/><g class="cls-5"><path class="cls-6" d="M189.37,193.87c-1.39-.89-2.75-1.81-4.16-2.67-5.57-3.4-11.15-6.81-16.74-10.18-4.43-2.67-8.94-5.22-13.31-8-2.68-1.69-5.11-3.76-7.72-5.55-2.84-2-5.76-3.75-8.62-5.67a5.75,5.75,0,0,1-1.33-1.44,1.34,1.34,0,0,1,.16-.92c1.49-2.76,1.76-2.94,3-2.13,2,1.3,4.05,2.62,6.09,3.9.38.23.93.19,1.3.45.54.37.92,1,1.47,1.33q17.17,11.16,34.39,22.28c4,2.55,8,5,11.9,7.58.26.16.58.65.46.89a27.41,27.41,0,0,1-1.86,2.86c-.09.13-.52,0-.7-.09-1.44-.89-2.86-1.82-4.29-2.74Z"/></g></g><path class="cls-8" d="M194.44,194.35c-1.05-.47-2.1-.94-3.12-1.46s-2.23-1.22-3.34-1.84l-.3-.19-2.5-1.6-6.89-4.4L168,178.32l-10.24-6.51-10.23-6.52-7.61-4.87-1.21-.77-.53-.38a1,1,0,0,1,.07-1.64,1.27,1.27,0,0,1,1.42,0l1.44.94,7.49,4.79,12.44,7.94,12.2,7.77,12.21,7.79c.81.52,2,1.23,3.05,1.94,1.21.84,2.38,1.74,3.54,2.65,1,.76,1.91,1.58,2.84,2.39a3.32,3.32,0,0,1,.44.55l-.07.13A4.36,4.36,0,0,1,194.44,194.35Z"/><path class="cls-8" d="M195.27,194.53a4.36,4.36,0,0,1-.83-.18c-1.05-.47-2.1-.94-3.12-1.46s-2.23-1.22-3.34-1.84l-.3-.19-2.5-1.6-6.89-4.4L168,178.32l-10.24-6.51-10.23-6.52-7.61-4.87-1.21-.77-.53-.38a1,1,0,0,1,.07-1.64,1.27,1.27,0,0,1,1.42,0l1.44.94,7.49,4.79,12.44,7.94,12.2,7.77,12.21,7.79c.81.52,2,1.23,3.05,1.94,1.21.84,2.38,1.74,3.54,2.65,1,.76,1.91,1.58,2.84,2.39a3.32,3.32,0,0,1,.44.55Z"/><path class="cls-1" d="M118.68,151.94,63.45,114.15V49.23a3.88,3.88,0,0,1,3.88-3.88H171a3.88,3.88,0,0,1,3.88,3.88v61.05"/><path class="cls-8" d="M174.65,96.89c-.18-1.14-.35-2.27-.46-3.42s-.18-2.53-.26-3.8c0-.12,0-.24,0-.36l0-33.18v-7a2.84,2.84,0,0,0-1.63-2.48,2.86,2.86,0,0,0-1-.27h-9.77l-22.53,0-44.86.07-22.43,0h-4.2a2.84,2.84,0,0,0-1,.15,2.66,2.66,0,0,0-1.78,2.13,3.67,3.67,0,0,0,0,.52V50l0,11.21,0,34.85c0,.22,0,.44,0,.65a1,1,0,0,1-1.41.83,1.25,1.25,0,0,1-.77-1.2q0-17.3,0-34.59V49.84a6.81,6.81,0,0,1,.19-2,4.93,4.93,0,0,1,2.75-3.13,5.27,5.27,0,0,1,2.07-.41H76l27.3,0,53.49-.06,13.39,0H171a5.47,5.47,0,0,1,1.07.11,5.16,5.16,0,0,1,2,.9,5,5,0,0,1,2,3.71l0,6.76,0,26.8,0,4.51c0,.63,0,1.27,0,1.91-.06,1.47-.17,2.94-.31,4.41-.12,1.23-.3,2.46-.47,3.68a3.63,3.63,0,0,1-.23.68h-.15A4.2,4.2,0,0,1,174.65,96.89Z"/><path class="cls-8" d="M174.94,97.68a4.2,4.2,0,0,1-.29-.79c-.18-1.14-.35-2.27-.46-3.42s-.18-2.53-.26-3.8c0-.12,0-.24,0-.36l0-33.18v-7a2.84,2.84,0,0,0-1.63-2.48,2.86,2.86,0,0,0-1-.27h-9.77l-22.53,0-44.86.07-22.43,0h-4.2a2.84,2.84,0,0,0-1,.15,2.66,2.66,0,0,0-1.78,2.13,3.67,3.67,0,0,0,0,.52V50l0,11.21,0,34.85c0,.22,0,.44,0,.65a1,1,0,0,1-1.41.83,1.25,1.25,0,0,1-.77-1.2q0-17.3,0-34.59V49.84a6.81,6.81,0,0,1,.19-2,4.93,4.93,0,0,1,2.75-3.13,5.27,5.27,0,0,1,2.07-.41H76l27.3,0,53.49-.06,13.39,0H171a5.47,5.47,0,0,1,1.07.11,5.16,5.16,0,0,1,2,.9,5,5,0,0,1,2,3.71l0,6.76,0,26.8,0,4.51c0,.63,0,1.27,0,1.91-.06,1.47-.17,2.94-.31,4.41-.12,1.23-.3,2.46-.47,3.68a3.63,3.63,0,0,1-.23.68Z"/><g class="cls-5"><path class="cls-9" d="M128.42,144.43,76.67,110.1s-20.48-.11-6.12,9.14C76,122.8,110.7,145.29,116.11,149c.16.58,7.64-.12,9.15-1.6Z"/></g><path class="cls-8" d="M44.85,101.83c1,.5,2,1,3.06,1.56s2.19,1.28,3.28,1.93l.3.19,23.16,15.62,30.93,20.73,3.85,2.57,1.92,1.29,1,.64c.31.2.59.38.91.55a11,11,0,0,0,11.94-.94l3.77-2.69,7.55-5.38,30.17-21.52,23.66-16.85.55-.35a1,1,0,0,1,1.49.67,1.25,1.25,0,0,1-.53,1.32l-1.4,1L168.3,117.91l-36.74,26.18-4.5,3.21c-.38.27-.73.53-1.14.81s-.84.54-1.28.78a13.38,13.38,0,0,1-2.79,1.1,13.23,13.23,0,0,1-6,.18,14.45,14.45,0,0,1-2.86-.92,18.53,18.53,0,0,1-2.53-1.49l-18.36-12.3-36.76-24.7-3.19-2.14c-.53-.34-1.06-.7-1.58-1.08-1.18-.87-2.34-1.79-3.47-2.74-1-.8-1.85-1.63-2.78-2.5a3.08,3.08,0,0,1-.42-.6l.1-.11A5.33,5.33,0,0,1,44.85,101.83Z"/><path class="cls-8" d="M44,101.59a5.33,5.33,0,0,1,.82.24c1,.5,2,1,3.06,1.56s2.19,1.28,3.28,1.93l.3.19,23.16,15.62,30.93,20.73,3.85,2.57,1.92,1.29,1,.64c.31.2.59.38.91.55a11,11,0,0,0,11.94-.94l3.77-2.69,7.55-5.38,30.17-21.52,23.66-16.85.55-.35a1,1,0,0,1,1.49.67,1.25,1.25,0,0,1-.53,1.32l-1.4,1L168.3,117.91l-36.74,26.18-4.5,3.21c-.38.27-.73.53-1.14.81s-.84.54-1.28.78a13.38,13.38,0,0,1-2.79,1.1,13.23,13.23,0,0,1-6,.18,14.45,14.45,0,0,1-2.86-.92,18.53,18.53,0,0,1-2.53-1.49l-18.36-12.3-36.76-24.7-3.19-2.14c-.53-.34-1.06-.7-1.58-1.08-1.18-.87-2.34-1.79-3.47-2.74-1-.8-1.85-1.63-2.78-2.5a3.08,3.08,0,0,1-.42-.6Z"/><ellipse class="cls-10" cx="118.24" cy="87.55" rx="25.99" ry="25.11"/><path class="cls-1" d="M139.91,101.62a22.35,22.35,0,0,1-1.66,3.08,23.11,23.11,0,0,1-2.47,3l-.27.26c-.41.37-.83.73-1.25,1.09l-.66.5-.33.26-.19.13-.29.2a24.63,24.63,0,0,1-10.37,4.11c-.94.1-1.88.22-2.82.24a24.27,24.27,0,0,1-2.83-.13,26.68,26.68,0,0,1-6.25-1.46,30.79,30.79,0,0,1-2.94-1.29l-1.42-.73-1.37-.84c-.92-.53-1.75-1.22-2.62-1.83s-1.67-1.34-2.4-2.12a29.86,29.86,0,0,1-4.13-4.9,23.77,23.77,0,0,1-4-12.09,26.79,26.79,0,0,1,.05-3.23,28.44,28.44,0,0,1,.51-3.18,25.91,25.91,0,0,1,2.13-6,27.89,27.89,0,0,1,13.47-13.29,27.25,27.25,0,0,1,6.15-1.86,29,29,0,0,1,9.53-.2,22.3,22.3,0,0,1,9.05,3.29c.42.3.86.57,1.26.89.18.15.34.32.51.48A.94.94,0,0,1,134,67.6a1.29,1.29,0,0,1-1.39-.19,12.25,12.25,0,0,0-1.29-1,20.05,20.05,0,0,0-8-2.94,26.63,26.63,0,0,0-8.68.12,24.59,24.59,0,0,0-6.83,2.2A26,26,0,0,0,101.89,70a26.81,26.81,0,0,0-7.37,12.2,21.72,21.72,0,0,0,.75,13.73,26.05,26.05,0,0,0,3.57,6,31,31,0,0,0,5.07,4.91,28.7,28.7,0,0,0,6.1,3.56,23,23,0,0,0,6.76,1.82,21.52,21.52,0,0,0,13.4-2.94,13.47,13.47,0,0,0,1.29-.83,9.75,9.75,0,0,0,.88-.66c.49-.36.94-.76,1.42-1.14,1.08-.89,2.14-1.83,3.16-2.84.83-.86,1.7-1.71,2.48-2.65a4.19,4.19,0,0,1,.56-.44l.13.08A4.43,4.43,0,0,1,139.91,101.62Z"/><path class="cls-11" d="M140.09,100.8a4.43,4.43,0,0,1-.18.82,22.35,22.35,0,0,1-1.66,3.08,23.11,23.11,0,0,1-2.47,3l-.27.26c-.41.37-.83.73-1.25,1.09l-.66.5-.33.26-.19.13-.29.2a24.63,24.63,0,0,1-10.37,4.11c-.94.1-1.88.22-2.82.24a24.27,24.27,0,0,1-2.83-.13,26.68,26.68,0,0,1-6.25-1.46,30.79,30.79,0,0,1-2.94-1.29l-1.42-.73-1.37-.84c-.92-.53-1.75-1.22-2.62-1.83s-1.67-1.34-2.4-2.12a29.86,29.86,0,0,1-4.13-4.9,23.77,23.77,0,0,1-4-12.09,26.79,26.79,0,0,1,.05-3.23,28.44,28.44,0,0,1,.51-3.18,25.91,25.91,0,0,1,2.13-6,27.89,27.89,0,0,1,13.47-13.29,27.25,27.25,0,0,1,6.15-1.86,29,29,0,0,1,9.53-.2,22.3,22.3,0,0,1,9.05,3.29c.42.3.86.57,1.26.89.18.15.34.32.51.48A.94.94,0,0,1,134,67.6a1.29,1.29,0,0,1-1.39-.19,12.25,12.25,0,0,0-1.29-1,20.05,20.05,0,0,0-8-2.94,26.63,26.63,0,0,0-8.68.12,24.59,24.59,0,0,0-6.83,2.2A26,26,0,0,0,101.89,70a26.81,26.81,0,0,0-7.37,12.2,21.72,21.72,0,0,0,.75,13.73,26.05,26.05,0,0,0,3.57,6,31,31,0,0,0,5.07,4.91,28.7,28.7,0,0,0,6.1,3.56,23,23,0,0,0,6.76,1.82,21.52,21.52,0,0,0,13.4-2.94,13.47,13.47,0,0,0,1.29-.83,9.75,9.75,0,0,0,.88-.66c.49-.36.94-.76,1.42-1.14,1.08-.89,2.14-1.83,3.16-2.84.83-.86,1.7-1.71,2.48-2.65a4.19,4.19,0,0,1,.56-.44Z"/><path class="cls-8" d="M118.22,90.85c.62-.53,1.21-1,1.76-1.51,4.41-4.12,9.46-7.38,14.46-10.71,5.29-3.52,10.58-7,16.06-10.28a34.57,34.57,0,0,1,5.53-2.8,6.23,6.23,0,0,1,1.55-.35c.47,0,.72.24.55.68a8,8,0,0,1-.86,1.73,39.88,39.88,0,0,1-4.17,4.92c-4.34,4.6-9,8.82-13.67,13.12-3.13,2.91-6.22,5.87-9.37,8.75-1.81,1.65-3.68,3.23-5.58,4.78a15.93,15.93,0,0,1-3.31,2.32c-3,1.35-5.87,1.29-8.36-1.28s-5.22-5.43-7.82-8.15c-.54-.55-1.08-1.1-1.58-1.68a1.89,1.89,0,0,1-.43-.83,8.77,8.77,0,0,1-.23-3,4.07,4.07,0,0,1,2.33-3.42,7.66,7.66,0,0,1,4.83-.63,1.46,1.46,0,0,1,.7.44q3.15,3.24,6.29,6.52C117.34,89.9,117.76,90.36,118.22,90.85Z"/></svg>