<svg id="Ebene_1" data-name="Ebene 1" xmlns="http://www.w3.org/2000/svg" viewBox="0 0 240 240"><defs><style>.cls-1{fill:#fff;}.cls-2{opacity:0.8;}.cls-3{fill:#9ac0e0;}.cls-4{fill:none;}.cls-5,.cls-7{opacity:0.2;}.cls-6,.cls-7,.cls-9{fill:#3f88c5;}.cls-8{fill:#353a4a;}.cls-9{fill-rule:evenodd;}.cls-10{fill:#80dd8a;}</style></defs><title>_</title><path class="cls-1" d="M43.48,201l14-85.92a4.38,4.38,0,0,1,2.2-3.14L131.16,72a7.65,7.65,0,0,1,9.42,1.56l57.26,61.32a2.91,2.91,0,0,1,.75,2.47l-14,85.61c-.53,3.25-1.77,5-5.7,4.33L46.85,205.68A4.1,4.1,0,0,1,43.48,201Z"/><g class="cls-2"><line class="cls-3" x1="195.53" y1="151.98" x2="191.17" y2="178.89"/><path class="cls-4" d="M43.81,197.57l11.4-69.93,1.42-8.74.36-2.19.18-1.09a2.64,2.64,0,0,1,.18-.69,2.61,2.61,0,0,1,.78-1.05c.25-.22,1-.62,1.66-1l15.4-8.75L106,86.66l15.4-8.75,7.71-4.37L131,72.45l.47-.26.38-.19a5.89,5.89,0,0,1,.8-.29A6.08,6.08,0,0,1,139,73.58l3,3.29,5.94,6.57,11.88,13.14,23.77,26.28L195.41,136l.37.41a1.73,1.73,0,0,1,.17.21,1.15,1.15,0,0,1,.17.41,1,1,0,0,1,0,.46l-.18,1.09-.71,4.37-1.42,8.75-11.4,69.93-.18,1.08a9,9,0,0,1-.2.93,3.66,3.66,0,0,1-.59,1.34,1.46,1.46,0,0,1-.89.53,5,5,0,0,1-1.61,0l-8.66-1.4-17.48-2.85-35-5.7-69.92-11.4-2.57-.42,1.59-.7L55,199.5l16.13-7.13,32.24-14.26L102,174.92,69.41,189.33l-16.28,7.2L45,200.14l-1,.45-.51.22a2.84,2.84,0,0,0-.39.23,2.31,2.31,0,0,0-.42.34,3.26,3.26,0,0,0-1,1.8,3.29,3.29,0,0,0,.3,2,3.51,3.51,0,0,0,1.45,1.53,3.55,3.55,0,0,0,1,.4l.27.07.16,0,.27,0,2.19.36L117.26,219l35,5.7,17.48,2.85,4.38.71,2.18.35,1.09.18.55.09.63.09a8.32,8.32,0,0,0,2.79-.1,5,5,0,0,0,2.82-1.73,7.18,7.18,0,0,0,1.25-2.64,11.42,11.42,0,0,0,.26-1.24l.19-1.1,11.4-69.93,1.42-8.74.71-4.38.18-1.09a4.59,4.59,0,0,0,0-1.73,4.67,4.67,0,0,0-.68-1.63,4,4,0,0,0-.52-.65l-.37-.41L186.08,120.5,162.32,94.23,150.44,81.09l-5.94-6.56-3-3.29a10.36,10.36,0,0,0-2-1.74,9.59,9.59,0,0,0-7.8-1.14,10.64,10.64,0,0,0-1.27.46l-.62.31-.5.28-1.92,1.09-7.7,4.37L104.3,83.62,73.49,101.11l-15.4,8.75-1,.54a8.35,8.35,0,0,0-1.18.76,6.12,6.12,0,0,0-1.83,2.46,6.46,6.46,0,0,0-.39,1.44l-.18,1.09-.35,2.19-1.43,8.74L40.37,197Z"/><g class="cls-5"><path class="cls-6" d="M59.11,197l-9.39,4.15L45,203.24a.55.55,0,0,0-.33.76.69.69,0,0,0,.31.32l.22.07.62.1,20.32,3.3,80.62,13L166.93,224,177,225.65l1.26.2a9.41,9.41,0,0,0,1.12.13,3.43,3.43,0,0,0,1.79-.28,2.2,2.2,0,0,0,1-1.22,10.12,10.12,0,0,0,.52-2.18L189.18,182l5.12-31.91,1.27-8,.64-4c.14-.82.15-.91,0-1.26a1.25,1.25,0,0,0-.22-.41l-.58-.65-10.88-11.95L141.12,76l-1.66-1.83-.41-.46-.38-.4a6,6,0,0,0-6.2-1.52,5.27,5.27,0,0,0-.88.37c-.28.13-.7.38-1,.57l-4.31,2.43L109,84.82l-34.5,19.39-9.35,5.29-4.68,2.64-2.26,1.29a3,3,0,0,0-1.15,1.37,2.16,2.16,0,0,0-.14.43c0,.07,0,.14,0,.23l0,.33-.22,1.32-.43,2.66-.87,5.3-1.73,10.6-6.94,42.42c-.86,5.22-1.86,10.45-2.84,15.58a9,9,0,0,1-1,2.92c-2.2,1.68-2.21.58-.21-11.69l9.69-59.49c.29-1.83.54-3.67.79-5.51.12-.92.25-1.84.38-2.75l.2-1.37.11-.69.07-.41a3.59,3.59,0,0,1,.12-.47,6,6,0,0,1,1.41-2.46,7.75,7.75,0,0,1,2.09-1.47l3.59-2c2.39-1.3,4.78-2.61,7.15-3.95L105.29,83.3l18.57-10.53,4.64-2.64,1.16-.66a10.28,10.28,0,0,1,1.41-.66,9.19,9.19,0,0,1,3.11-.6,9.3,9.3,0,0,1,5.93,2,10.89,10.89,0,0,1,1.16,1.08l.9,1,1.79,2,28.62,31.66,14.31,15.84,7.16,7.91,3.58,4a13.61,13.61,0,0,1,1,1.2,4.48,4.48,0,0,1,.72,2.89l-.07.41-.05.33-.21,1.32-13.81,84.37a7,7,0,0,1-1.42,3.05,5,5,0,0,1-1.58,1.15,5.84,5.84,0,0,1-1.75.44,11.2,11.2,0,0,1-3-.2l-2.63-.43-10.54-1.72L143.2,223l-42.14-6.87-29-4.73L57.52,209l-7.25-1.18-3.63-.59L44.82,207a3.57,3.57,0,0,1-2.61-1.83,3,3,0,0,1,.17-3.07,3.2,3.2,0,0,1,1.2-1l.84-.38,3.38-1.49,6.74-3,13.5-6,27-12a60.55,60.55,0,0,1,6.72-2.64c1,.31.95,1.1.75,1.94,0,.12-3.09,1.57-4.78,2.32L59.08,197Z"/></g></g><path class="cls-7" d="M62.25,121.45c.68,1,55.56,52.34,55.56,52.34l68.77-33.74Z"/><path class="cls-7" d="M171,235.43c-2.29-.37-4.58-.73-6.86-1.12-.69-.12-1.35-.37-2-.49s-1.53-.45-2.29.08c-.18.12-.53,0-.8-.05-7.05-1.14-14.09-2.27-21.13-3.44Q127,228.57,116,226.66c-2.42-.43-4.83-1-7.26-1.36-7.34-1.16-14.69-2.28-22-3.41q-11.47-1.78-22.94-3.57c-.44-.07-.83-.45-1.27-.57-.84-.23-1.7-.4-2.56-.55-.44-.08-.91,0-1.35-.09-4.55-.73-9.1-1.45-13.63-2.24a9.81,9.81,0,0,1-2.66-.89c-1.74-.85-2.06-2.29-.63-3.63a45.67,45.67,0,0,1,4.63-3.5,3.06,3.06,0,0,1,2.69-.44c2.82.63,5.71,1,8.56,1.45l22.52,3.86c5.4.93,10.8,1.9,16.2,2.82,10.24,1.74,20.48,3.5,30.73,5.19,5.59.92,11.2,1.71,16.8,2.56l16.26,2.47c5.21.78,10.4,1.66,15.63,2.31a5.19,5.19,0,0,1,4.09,2.15c1,1.5,2.35,2.8,2.82,4.64a1.87,1.87,0,0,1-1.75,2.63,14.22,14.22,0,0,1-3.26,0c-2.2-.28-4.39-.69-6.59-1.05Z"/><path class="cls-1" d="M102.82,176.94c-.88.57-1.76,1.14-2.67,1.66s-2.05,1.1-3.08,1.65l-.3.14L67.66,193.51l-12.43,5.6L49,201.91l-3.11,1.4a.68.68,0,0,0-.45.55.77.77,0,0,0,.33.68c.22.21.54.24,1.18.34l1.68.28,3.37.54,6.72,1.1L72.2,209l61.63,10,30.82,5,7.71,1.25,3.85.63,1.93.31a8.25,8.25,0,0,0,1.74.15,2.49,2.49,0,0,0,2.38-1.35,11.67,11.67,0,0,0,.87-3.46l1.25-7.7,10-61.37,2.5-15.34a2,2,0,0,0-.2-1.25,1.06,1.06,0,0,0-.17-.26,2.34,2.34,0,0,0-.25-.29l-.66-.71-2.66-2.84-5.3-5.68-21.23-22.71L145.15,80.68,139.84,75c-.45-.48-.89-1-1.28-1.33a6.84,6.84,0,0,0-1.37-1,6.65,6.65,0,0,0-6.43.2l-3.39,1.9-6.79,3.79L66.32,109l-5.72,3.2c-2.17,1-2.74,1.87-3,4.28l-2.11,12.93-4.21,25.88-6.66,41c0,.19-.09.39-.13.58a.9.9,0,0,1-1.39.54,1.17,1.17,0,0,1-.52-1.2L49,156.81l4.24-26.08,2.13-13,.26-1.63.13-.81.07-.41c0-.15.06-.32.1-.48a5.32,5.32,0,0,1,2.27-3.16L64,107.93,130.09,71A8.62,8.62,0,0,1,140,72.25c.66.64,1.14,1.19,1.69,1.77l1.61,1.73,3.23,3.45L159.42,93l25.83,27.63,12.67,13.57a3.88,3.88,0,0,1,.94,2.86,6.24,6.24,0,0,1-.09.66l-.09.57-.19,1.14-.74,4.58-1.49,9.14-5.95,36.59-3,18.29-1.49,9.14-.74,4.58c-.28,1.45-.35,3.22-1.52,4.84a4.23,4.23,0,0,1-2.5,1.58,7.49,7.49,0,0,1-2.66.06l-4.61-.74L164.67,226l-18.29-3-73.3-11.92-18.33-3-4.58-.74L47.88,207l-1.15-.19-.57-.09-.36-.07a3.24,3.24,0,0,1-.41-.13,2.87,2.87,0,0,1-1.91-2.88,2.56,2.56,0,0,1,.89-1.71,3.5,3.5,0,0,1,.75-.48l.53-.24,4.24-1.9,33.85-15.26,7.42-3.35L94,179.43c.53-.24,1.06-.49,1.6-.7,1.25-.51,2.52-1,3.8-1.41,1.07-.36,2.16-.67,3.25-1a3.39,3.39,0,0,1,.64-.06l.06.12A3.18,3.18,0,0,1,102.82,176.94Z"/><path class="cls-8" d="M103.37,176.39a3.18,3.18,0,0,1-.55.55c-.88.57-1.76,1.14-2.67,1.66s-2.05,1.1-3.08,1.65l-.3.14L67.66,193.51l-12.43,5.6L49,201.91l-3.11,1.4a.68.68,0,0,0-.45.55.77.77,0,0,0,.33.68c.22.21.54.24,1.18.34l1.68.28,3.37.54,6.72,1.1L72.2,209l61.63,10,30.82,5,7.71,1.25,3.85.63,1.93.31a8.25,8.25,0,0,0,1.74.15,2.49,2.49,0,0,0,2.38-1.35,11.67,11.67,0,0,0,.87-3.46l1.25-7.7,10-61.37,2.5-15.34a2,2,0,0,0-.2-1.25,1.06,1.06,0,0,0-.17-.26,2.34,2.34,0,0,0-.25-.29l-.66-.71-2.66-2.84-5.3-5.68-21.23-22.71L145.15,80.68,139.84,75c-.45-.48-.89-1-1.28-1.33a6.84,6.84,0,0,0-1.37-1,6.65,6.65,0,0,0-6.43.2l-3.39,1.9-6.79,3.79L66.32,109l-5.72,3.2c-2.17,1-2.74,1.87-3,4.28l-2.11,12.93-4.21,25.88-6.66,41c0,.19-.09.39-.13.58a.9.9,0,0,1-1.39.54,1.17,1.17,0,0,1-.52-1.2L49,156.81l4.24-26.08,2.13-13,.26-1.63.13-.81.07-.41c0-.15.06-.32.1-.48a5.32,5.32,0,0,1,2.27-3.16L64,107.93,130.09,71A8.62,8.62,0,0,1,140,72.25c.66.64,1.14,1.19,1.69,1.77l1.61,1.73,3.23,3.45L159.42,93l25.83,27.63,12.67,13.57a3.88,3.88,0,0,1,.94,2.86,6.24,6.24,0,0,1-.09.66l-.09.57-.19,1.14-.74,4.58-1.49,9.14-5.95,36.59-3,18.29-1.49,9.14-.74,4.58c-.28,1.45-.35,3.22-1.52,4.84a4.23,4.23,0,0,1-2.5,1.58,7.49,7.49,0,0,1-2.66.06l-4.61-.74L164.67,226l-18.29-3-73.3-11.92-18.33-3-4.58-.74L47.88,207l-1.15-.19-.57-.09-.36-.07a3.24,3.24,0,0,1-.41-.13,2.87,2.87,0,0,1-1.91-2.88,2.56,2.56,0,0,1,.89-1.71,3.5,3.5,0,0,1,.75-.48l.53-.24,4.24-1.9,33.85-15.26,7.42-3.35L94,179.43c.53-.24,1.06-.49,1.6-.7,1.25-.51,2.52-1,3.8-1.41,1.07-.36,2.16-.67,3.25-1a3.39,3.39,0,0,1,.64-.06Z"/><g class="cls-2"><line class="cls-3" x1="154.53" y1="201.35" x2="156.62" y2="203.17"/><rect class="cls-4" x="151.92" y="172.52" width="5.23" height="57.66" transform="translate(-98.49 181.27) rotate(-47.96)"/><g class="cls-5"><path class="cls-6" d="M171.16,218.62c-1-.94-2-1.9-3.12-2.8q-6.3-5.41-12.64-10.79c-3.35-2.83-6.79-5.55-10.07-8.46-2-1.78-3.75-3.86-5.68-5.72-2.1-2-4.31-3.93-6.43-5.93a4.54,4.54,0,0,1-.9-1.41,1.31,1.31,0,0,1,.3-.79c1.76-2.26,2-2.4,3-1.55,1.51,1.37,3,2.75,4.56,4.1.28.24.77.27,1,.53s.62,1,1,1.34q12.85,11.69,25.74,23.33c3,2.68,6,5.3,8.93,8,.19.17.38.63.23.83a24.05,24.05,0,0,1-2.1,2.31c-.1.1-.45,0-.59-.15-1.08-1-2.14-1.92-3.21-2.88Z"/></g></g><path class="cls-1" d="M175.37,219.59c-.88-.58-1.76-1.15-2.6-1.78s-1.83-1.43-2.75-2.15l-.25-.22-2-1.81q-2.52-2.26-5.05-4.52l-7.55-6.73-7.51-6.69-7.51-6.7-5.59-5-1-.88-.42-.42a.91.91,0,0,1,.3-1.47,1.16,1.16,0,0,1,1.29.22l1.16,1.06,5.49,4.92,9.14,8.15,8.95,8,9,8c.56.5,1.58,1.36,2.39,2.14,1,.94,1.91,1.92,2.82,2.92.76.83,1.49,1.71,2.21,2.57a3.2,3.2,0,0,1,.32.57l-.09.11A4.17,4.17,0,0,1,175.37,219.59Z"/><path class="cls-8" d="M176.09,219.88a4.17,4.17,0,0,1-.72-.29c-.88-.58-1.76-1.15-2.6-1.78s-1.83-1.43-2.75-2.15l-.25-.22-2-1.81q-2.52-2.26-5.05-4.52l-7.55-6.73-7.51-6.69-7.51-6.7-5.59-5-1-.88-.42-.42a.91.91,0,0,1,.3-1.47,1.16,1.16,0,0,1,1.29.22l1.16,1.06,5.49,4.92,9.14,8.15,8.95,8,9,8c.56.5,1.58,1.36,2.39,2.14,1,.94,1.91,1.92,2.82,2.92.76.83,1.49,1.71,2.21,2.57a3.2,3.2,0,0,1,.32.57Z"/><path class="cls-1" d="M117.81,173.79,76.75,134.64l8.86-54.33a3.28,3.28,0,0,1,3.77-2.71l86.76,14.14a3.28,3.28,0,0,1,2.71,3.77l-8.32,51.08"/><path class="cls-8" d="M172.14,135.3c0-1.05,0-2.1.09-3.15s.22-2.32.33-3.48c0-.1,0-.21,0-.32l4.51-27.82.75-4.69c0-.18.08-.42.09-.56a3,3,0,0,0,0-.42,2.47,2.47,0,0,0-.2-.82,2.34,2.34,0,0,0-1.17-1.19,2.74,2.74,0,0,0-.4-.15l-.21,0-.29,0-1.17-.19L172.19,92l-4.69-.75-18.75-3-37.33-6-18.66-3-2.33-.38-1.17-.18a2.2,2.2,0,0,0-.81,0,2.15,2.15,0,0,0-1.33.8,2.24,2.24,0,0,0-.37.7,2.49,2.49,0,0,0-.09.42l-.1.58-1.5,9.33-4.72,29.1c0,.2-.09.39-.12.59a.9.9,0,0,1-1.4.53,1.12,1.12,0,0,1-.51-1.19q2.34-14.46,4.69-28.9L83.92,85l.46-2.84.23-1.42A5.6,5.6,0,0,1,85,79.06a4.19,4.19,0,0,1,4.55-2.37l1.42.22,5.68.92L119.4,81.5l44.51,7.2,11.14,1.8,1.44.24a4.32,4.32,0,0,1,3.44,3.91,4.13,4.13,0,0,1,0,.93l-.12.72-.22,1.39-.45,2.79-3.61,22.3c-.19,1.26-.39,2.53-.59,3.8-.08.58-.17,1.15-.29,1.72-.26,1.33-.58,2.64-.93,3.95-.28,1.09-.63,2.17-1,3.26a2.89,2.89,0,0,1-.31.57l-.13,0A3.44,3.44,0,0,1,172.14,135.3Z"/><path class="cls-8" d="M172.3,136.06a3.44,3.44,0,0,1-.16-.76c0-1.05,0-2.1.09-3.15s.22-2.32.33-3.48c0-.1,0-.21,0-.32l4.51-27.82.75-4.69c0-.18.08-.42.09-.56a3,3,0,0,0,0-.42,2.47,2.47,0,0,0-.2-.82,2.34,2.34,0,0,0-1.17-1.19,2.74,2.74,0,0,0-.4-.15l-.21,0-.29,0-1.17-.19L172.19,92l-4.69-.75-18.75-3-37.33-6-18.66-3-2.33-.38-1.17-.18a2.2,2.2,0,0,0-.81,0,2.15,2.15,0,0,0-1.33.8,2.24,2.24,0,0,0-.37.7,2.49,2.49,0,0,0-.09.42l-.1.58-1.5,9.33-4.72,29.1c0,.2-.09.39-.12.59a.9.9,0,0,1-1.4.53,1.12,1.12,0,0,1-.51-1.19q2.34-14.46,4.69-28.9L83.92,85l.46-2.84.23-1.42A5.6,5.6,0,0,1,85,79.06a4.19,4.19,0,0,1,4.55-2.37l1.42.22,5.68.92L119.4,81.5l44.51,7.2,11.14,1.8,1.44.24a4.32,4.32,0,0,1,3.44,3.91,4.13,4.13,0,0,1,0,.93l-.12.72-.22,1.39-.45,2.79-3.61,22.3c-.19,1.26-.39,2.53-.59,3.8-.08.58-.17,1.15-.29,1.72-.26,1.33-.58,2.64-.93,3.95-.28,1.09-.63,2.17-1,3.26a2.89,2.89,0,0,1-.31.57Z"/><g class="cls-5"><path class="cls-9" d="M127,168.84,88.37,133.05s-17.13-2.89-6.37,6.81c4,3.72,30,27.28,34.06,31.12.06.51,6.41.94,7.88-.09Z"/></g><path class="cls-1" d="M62.91,121.82c.86.6,1.71,1.21,2.54,1.86s1.79,1.48,2.69,2.22l.24.22,17.29,16.26,22.89,21.41,2.86,2.66c1,.86,1.91,1.86,2.81,2.52a9.23,9.23,0,0,0,6.66,1.67,9.8,9.8,0,0,0,1.7-.41,11.79,11.79,0,0,0,1.67-.73l3.5-1.72,7-3.45,28-13.8,22-10.85.55-.23a.89.89,0,0,1,1.24.82,1.13,1.13,0,0,1-.68,1.11l-1.41.69L164,152.17,129.9,169,125.72,171l-1,.51c-.37.16-.76.36-1.16.5a11,11,0,0,1-2.47.61,11.22,11.22,0,0,1-9.31-3.16l-13.59-12.7-27.21-25.5L68.54,129c-.43-.39-.86-.79-1.26-1.21-1-1-1.86-2-2.74-3-.75-.85-1.44-1.74-2.14-2.66a3.06,3.06,0,0,1-.3-.6l.11-.09A4.57,4.57,0,0,1,62.91,121.82Z"/><path class="cls-8" d="M62.21,121.48a4.57,4.57,0,0,1,.7.34c.86.6,1.71,1.21,2.54,1.86s1.79,1.48,2.69,2.22l.24.22,17.29,16.26,22.89,21.41,2.86,2.66c1,.86,1.91,1.86,2.81,2.52a9.23,9.23,0,0,0,6.66,1.67,9.8,9.8,0,0,0,1.7-.41,11.79,11.79,0,0,0,1.67-.73l3.5-1.72,7-3.45,28-13.8,22-10.85.55-.23a.89.89,0,0,1,1.24.82,1.13,1.13,0,0,1-.68,1.11l-1.41.69L164,152.17,129.9,169,125.72,171l-1,.51c-.37.16-.76.36-1.16.5a11,11,0,0,1-2.47.61,11.22,11.22,0,0,1-9.31-3.16l-13.59-12.7-27.21-25.5L68.54,129c-.43-.39-.86-.79-1.26-1.21-1-1-1.86-2-2.74-3-.75-.85-1.44-1.74-2.14-2.66a3.06,3.06,0,0,1-.3-.6Z"/><ellipse class="cls-10" cx="128.06" cy="122.62" rx="21.29" ry="22.03" transform="translate(-13.56 229.29) rotate(-80.74)"/><path class="cls-1" d="M144.25,137.4a19.6,19.6,0,0,1-2,2.52,21.34,21.34,0,0,1-2.74,2.35l-.28.18c-.43.27-.87.52-1.33.76-.22.12-.45.24-.68.34l-.8.37a20.58,20.58,0,0,1-4.53,1.37,19.92,19.92,0,0,1-9.39-.53,25.69,25.69,0,0,1-15.47-14.14,22.12,22.12,0,0,1-1.52-5.19,19.75,19.75,0,0,1,0-5.43,20.42,20.42,0,0,1,1.4-5.23,23.93,23.93,0,0,1,1.17-2.45,25.76,25.76,0,0,1,1.46-2.27,24.65,24.65,0,0,1,8-7.12,23.39,23.39,0,0,1,5-2,22.76,22.76,0,0,1,5.37-.72,24.68,24.68,0,0,1,8,1.09,19.38,19.38,0,0,1,7.11,3.9c.35.32.69.64,1,1,.14.17.26.34.39.51a.86.86,0,0,1-.5,1.41,1.17,1.17,0,0,1-1.22-.36,14.43,14.43,0,0,0-1-1,17.09,17.09,0,0,0-6.27-3.44,22.39,22.39,0,0,0-7.18-1,21.21,21.21,0,0,0-5.94.9,21.89,21.89,0,0,0-5.4,2.61,22.71,22.71,0,0,0-7.78,9,18.14,18.14,0,0,0-1.39,11.41,22.38,22.38,0,0,0,5.46,10.29,26.5,26.5,0,0,0,4.48,3.85,21.84,21.84,0,0,0,5.28,2.56,18.09,18.09,0,0,0,11.45-.23,21.46,21.46,0,0,0,3.53-1.66,29,29,0,0,0,3.3-2c.89-.63,1.8-1.28,2.65-2a3.36,3.36,0,0,1,.56-.31l.11.09A4,4,0,0,1,144.25,137.4Z"/><path class="cls-8" d="M144.54,136.68a4,4,0,0,1-.29.72,19.6,19.6,0,0,1-2,2.52,21.34,21.34,0,0,1-2.74,2.35l-.28.18c-.43.27-.87.52-1.33.76-.22.12-.45.24-.68.34l-.8.37a20.58,20.58,0,0,1-4.53,1.37,19.92,19.92,0,0,1-9.39-.53,25.69,25.69,0,0,1-15.47-14.14,22.12,22.12,0,0,1-1.52-5.19,19.75,19.75,0,0,1,0-5.43,20.42,20.42,0,0,1,1.4-5.23,23.93,23.93,0,0,1,1.17-2.45,25.76,25.76,0,0,1,1.46-2.27,24.65,24.65,0,0,1,8-7.12,23.39,23.39,0,0,1,5-2,22.76,22.76,0,0,1,5.37-.72,24.68,24.68,0,0,1,8,1.09,19.38,19.38,0,0,1,7.11,3.9c.35.32.69.64,1,1,.14.17.26.34.39.51a.86.86,0,0,1-.5,1.41,1.17,1.17,0,0,1-1.22-.36,14.43,14.43,0,0,0-1-1,17.09,17.09,0,0,0-6.27-3.44,22.39,22.39,0,0,0-7.18-1,21.21,21.21,0,0,0-5.94.9,21.89,21.89,0,0,0-5.4,2.61,22.71,22.71,0,0,0-7.78,9,18.14,18.14,0,0,0-1.39,11.41,22.38,22.38,0,0,0,5.46,10.29,26.5,26.5,0,0,0,4.48,3.85,21.84,21.84,0,0,0,5.28,2.56,18.09,18.09,0,0,0,11.45-.23,21.46,21.46,0,0,0,3.53-1.66,29,29,0,0,0,3.3-2c.89-.63,1.8-1.28,2.65-2a3.36,3.36,0,0,1,.56-.31Z"/><path class="cls-1" d="M149.75,4.15c.07,1,.13,2.1.13,3.15s-.08,2.33-.14,3.5l0,.33-.32,2.71c-.3,2.41-.63,4.83-1,7.24q-.78,5.39-1.78,10.75c-.67,3.56-1.42,7.1-2.29,10.63s-1.85,7-3,10.47a73.68,73.68,0,0,1-3,7.59l-.59,1.21c-.09.18-.2.35-.31.53a.89.89,0,0,1-1.5.06,1.16,1.16,0,0,1-.1-1.29c.24-.45.46-.91.69-1.38a68.1,68.1,0,0,0,2.91-7.25,129.61,129.61,0,0,0,3.54-12.58c1-4.16,1.8-8.36,2.52-12.58s1.34-8.47,1.87-12.73c.11-.84.21-2.13.39-3.24.2-1.33.45-2.66.71-4,.22-1.1.5-2.2.74-3.3a1.88,1.88,0,0,1,.12-.3l.07-.15,0-.07,0,0v0h0s0,0,.05,0l.08,0c.08,0,.06-.09.07,0a.09.09,0,0,0,.1,0c.06,0,0,0-.06,0l0,0s0,0,0,0,0,.05,0,0,0,0,0,0v0l0,0,0,.1.07.18A1.61,1.61,0,0,1,149.75,4.15Z"/><path class="cls-8" d="M149.63,3.43l0,0s0,0,0,0,0,.05,0,0,0,0,0,0v0l0,0,0,.1.07.18a1.61,1.61,0,0,1,.08.38c.07,1,.13,2.1.13,3.15s-.08,2.33-.14,3.5l0,.33-.32,2.71c-.3,2.41-.63,4.83-1,7.24q-.78,5.39-1.78,10.75c-.67,3.56-1.42,7.1-2.29,10.63s-1.85,7-3,10.47a73.68,73.68,0,0,1-3,7.59l-.59,1.21c-.09.18-.2.35-.31.53a.89.89,0,0,1-1.5.06,1.16,1.16,0,0,1-.1-1.29c.24-.45.46-.91.69-1.38a68.1,68.1,0,0,0,2.91-7.25,129.61,129.61,0,0,0,3.54-12.58c1-4.16,1.8-8.36,2.52-12.58s1.34-8.47,1.87-12.73c.11-.84.21-2.13.39-3.24.2-1.33.45-2.66.71-4,.22-1.1.5-2.2.74-3.3a1.88,1.88,0,0,1,.12-.3l.07-.15,0-.07,0,0v0h0s0,0,.05,0l.08,0c.08,0,.06-.09.07,0a.09.09,0,0,0,.1,0C149.75,3.49,149.66,3.43,149.63,3.43Z"/><path class="cls-1" d="M163,34.17c.16,1,.31,2.08.41,3.13s.13,2.33.17,3.5v.33l-.13,3.77-.08,2c-.06,1.48-.14,3-.23,4.45s-.2,3-.32,4.43-.26,3-.41,4.43L162,63.45l-.18,1.31c0,.2-.07.39-.11.59a.9.9,0,0,1-1.38.57,1.16,1.16,0,0,1-.54-1.19l.22-1.55c.14-1.06.26-2.13.37-3.2.19-1.78.36-3.56.5-5.34s.26-3.49.36-5.23.18-3.51.23-5.26v-1c0-.58,0-1.16.07-1.74.09-1.34.22-2.68.37-4,.11-1.12.29-2.24.44-3.36a2.75,2.75,0,0,1,.21-.61h.13A3.43,3.43,0,0,1,163,34.17Z"/><path class="cls-8" d="M162.69,33.44a3.43,3.43,0,0,1,.28.73c.16,1,.31,2.08.41,3.13s.13,2.33.17,3.5v.33l-.13,3.77-.08,2c-.06,1.48-.14,3-.23,4.45s-.2,3-.32,4.43-.26,3-.41,4.43L162,63.45l-.18,1.31c0,.2-.07.39-.11.59a.9.9,0,0,1-1.38.57,1.16,1.16,0,0,1-.54-1.19l.22-1.55c.14-1.06.26-2.13.37-3.2.19-1.78.36-3.56.5-5.34s.26-3.49.36-5.23.18-3.51.23-5.26v-1c0-.58,0-1.16.07-1.74.09-1.34.22-2.68.37-4,.11-1.12.29-2.24.44-3.36a2.75,2.75,0,0,1,.21-.61Z"/><path class="cls-1" d="M129.09,31.32l.31,1.57c.06.53.08,1.07.11,1.6a25.26,25.26,0,0,1-.18,3.58l-.07.33L129,39.86c-.06.25-.1.5-.17.74l-.16.57-.22.79c-.14.53-.28,1-.46,1.57l-.59,1.78-.66,1.75c-.47,1.15-.94,2.3-1.48,3.41s-1.09,2.23-1.68,3.33c-.43.81-.9,1.61-1.38,2.4l-.71,1.14c-.11.17-.24.32-.36.49a.89.89,0,0,1-1.5-.09,1.2,1.2,0,0,1,0-1.3c.29-.42.56-.86.83-1.3.46-.75.9-1.51,1.32-2.29.71-1.28,1.35-2.6,2-3.92s1.15-2.63,1.64-4,.93-2.69,1.28-4.07c0-.18,0-.14.22-.86.11-.56.23-1.11.37-1.66s.29-1.27.43-1.91a18.61,18.61,0,0,0,.38-1.92l.27-1.63.16-1.65a3.73,3.73,0,0,1,.18-.63l.14,0A3.69,3.69,0,0,1,129.09,31.32Z"/><path class="cls-8" d="M128.79,30.61a3.69,3.69,0,0,1,.3.71l.31,1.57c.06.53.08,1.07.11,1.6a25.26,25.26,0,0,1-.18,3.58l-.07.33L129,39.86c-.06.25-.1.5-.17.74l-.16.57-.22.79c-.14.53-.28,1-.46,1.57l-.59,1.78-.66,1.75c-.47,1.15-.94,2.3-1.48,3.41s-1.09,2.23-1.68,3.33c-.43.81-.9,1.61-1.38,2.4l-.71,1.14c-.11.17-.24.32-.36.49a.89.89,0,0,1-1.5-.09,1.2,1.2,0,0,1,0-1.3c.29-.42.56-.86.83-1.3.46-.75.9-1.51,1.32-2.29.71-1.28,1.35-2.6,2-3.92s1.15-2.63,1.64-4,.93-2.69,1.28-4.07c0-.18,0-.14.22-.86.11-.56.23-1.11.37-1.66s.29-1.27.43-1.91a18.61,18.61,0,0,0,.38-1.92l.27-1.63.16-1.65a3.73,3.73,0,0,1,.18-.63Z"/><path class="cls-8" d="M127.26,125.61c.6-.36,1.17-.68,1.71-1a94.25,94.25,0,0,1,13.81-7.1c5-2.26,10-4.52,15.11-6.51a30.65,30.65,0,0,1,5.11-1.62,5.68,5.68,0,0,1,1.37-.07c.41,0,.58.3.37.65a6.63,6.63,0,0,1-1,1.36,33.1,33.1,0,0,1-4.23,3.6c-4.34,3.32-8.94,6.25-13.48,9.27-3.08,2-6.12,4.13-9.21,6.14-1.77,1.16-3.59,2.24-5.42,3.29a13.34,13.34,0,0,1-3.14,1.51c-2.77.74-5.19.28-6.94-2.25l-5.53-8c-.38-.54-.77-1.08-1.11-1.65a1.63,1.63,0,0,1-.25-.77,7.84,7.84,0,0,1,.23-2.6,3.5,3.5,0,0,1,2.46-2.59,6.64,6.64,0,0,1,4.2.14,1.2,1.2,0,0,1,.53.47c1.5,2.14,3,4.29,4.46,6.43Z"/></svg>