<svg width="164" height="145" viewBox="0 0 164 145" fill="none" xmlns="http://www.w3.org/2000/svg">
<path d="M0.317017 25.125C0.317017 11.3179 11.5099 0.125 25.317 0.125H138.695C152.502 0.125 163.695 11.3179 163.695 25.125V87.625C163.695 101.432 152.502 112.625 138.695 112.625H137.419V142.358C137.419 143.778 135.757 144.548 134.674 143.629L98.1358 112.625H25.317C11.5099 112.625 0.317017 101.432 0.317017 87.625V25.125Z" fill="white"/>
<path d="M90.1266 58.4524L106.283 42.3084C107.363 41.2327 107.971 39.7717 107.975 38.2467C107.979 36.7218 107.377 35.2578 106.303 34.1768C105.228 33.0959 103.768 32.4865 102.245 32.4828C100.722 32.4791 99.2591 33.0813 98.1792 34.157L82.023 50.3294L65.8781 34.157C65.3434 33.6217 64.7086 33.1972 64.01 32.9075C63.3114 32.6178 62.5626 32.4688 61.8064 32.4688C61.0503 32.4688 60.3015 32.6178 59.6029 32.9075C58.9043 33.1972 58.2695 33.6217 57.7348 34.157C57.2001 34.6922 56.776 35.3276 56.4866 36.0269C56.1972 36.7262 56.0483 37.4758 56.0483 38.2327C56.0483 38.9896 56.1972 39.7391 56.4866 40.4384C56.776 41.1378 57.2001 41.7732 57.7348 42.3084L73.891 58.4751L57.7348 74.6419C56.6602 75.7228 56.0586 77.1868 56.0623 78.7118C56.066 80.2367 56.6748 81.6978 57.7546 82.7734C58.8345 83.8491 60.297 84.4513 61.8205 84.4476C63.3439 84.4439 64.8035 83.8345 65.8781 82.7536L82.0286 66.5812L98.1792 82.7536C99.2738 83.7247 100.698 84.2409 102.16 84.1968C103.621 84.1527 105.012 83.5516 106.046 82.5164C107.08 81.4811 107.681 80.0896 107.725 78.6262C107.769 77.1627 107.253 75.7376 106.283 74.6419L90.1266 58.4524Z" fill="#CC0000"/>
</svg>
