<svg width="357" height="200" viewBox="0 0 357 200" fill="none" xmlns="http://www.w3.org/2000/svg">
<mask id="mask0_1980_10008" style="mask-type:alpha" maskUnits="userSpaceOnUse" x="0" y="0" width="357" height="200">
<rect x="0.944336" width="355.556" height="200" fill="#D9D9D9"/>
</mask>
<g mask="url(#mask0_1980_10008)">
<path d="M159.024 118.469C159.024 118.469 139.879 122.823 155.253 131.233C155.253 131.233 190.936 139.067 217.624 129.494C217.624 129.494 237.642 128.912 235.61 120.21C235.61 120.21 235.03 108.026 209.213 108.896C209.213 108.896 207.217 89.5293 169.059 96.5224C168.292 96.6607 167.543 96.8843 166.825 97.189C162.681 98.9576 149.683 105.771 159.024 118.469Z" fill="white"/>
<path d="M34.8577 150.135C34.8577 150.135 15.7128 154.486 31.0863 162.9C31.0863 162.9 66.7698 170.734 93.4573 161.158C93.4573 161.158 113.476 160.579 111.443 151.877C111.443 151.877 110.864 139.692 85.0469 140.563C85.0469 140.563 83.0501 121.196 44.8925 128.189C44.1251 128.325 43.3756 128.548 42.6585 128.853C38.5149 130.624 25.5164 137.437 34.8577 150.135Z" fill="white"/>
<path fill-rule="evenodd" clip-rule="evenodd" d="M184.889 86.2561L186.179 86.8453L180.43 99.4378L186.181 112.27L184.887 112.85L178.874 99.4324L184.889 86.2561Z" fill="#666666"/>
<path fill-rule="evenodd" clip-rule="evenodd" d="M180.184 99.8938C179.493 100.708 178.577 101.298 177.55 101.589C176.524 101.88 175.435 101.86 174.421 101.531C172.951 101.066 171.297 100.922 169.989 100.9C169.338 100.889 168.783 100.908 168.392 100.93C168.197 100.941 168.042 100.953 167.938 100.961C167.886 100.965 167.847 100.969 167.821 100.972L167.793 100.974L167.786 100.975L167.785 100.975C167.785 100.975 167.786 100.975 167.71 100.27C167.635 99.5645 167.635 99.5645 167.635 99.5645L167.637 99.5643L167.64 99.564L167.65 99.563L167.686 99.5594C167.718 99.5564 167.763 99.5523 167.821 99.5475C167.937 99.5378 168.104 99.5254 168.313 99.5138C168.732 99.4905 169.322 99.4702 170.012 99.4818C171.384 99.5048 173.194 99.654 174.851 100.179L174.857 100.181C175.604 100.424 176.407 100.439 177.163 100.225C177.919 100.01 178.594 99.5756 179.102 98.9763L180.184 99.8938Z" fill="#666666"/>
<path d="M184.672 84.641V113.304C184.672 113.304 218.401 111.332 230.039 113.304C230.039 113.304 267.659 115.935 268.822 113.304L260.678 100.393L268.822 84.629C268.822 84.629 251.751 87.0942 230.039 84.629C230.039 84.6411 212.399 81.4072 184.672 84.641Z" fill="#0A882F"/>
<path fill-rule="evenodd" clip-rule="evenodd" d="M227.657 86.9587L227.648 86.9574L227.522 86.9388C227.406 86.9217 227.233 86.8963 227.003 86.8646C226.544 86.8012 225.862 86.7125 224.968 86.6138C223.179 86.4163 220.54 86.1783 217.13 86.0197C210.312 85.7026 200.414 85.7031 188.073 86.9802L187.437 87.0461V110.566L188.184 110.527L188.146 109.818C188.184 110.527 188.184 110.527 188.184 110.527L188.512 110.51C188.727 110.499 189.045 110.483 189.452 110.463C190.267 110.424 191.444 110.369 192.888 110.309C195.777 110.187 199.736 110.042 204.016 109.945C212.603 109.751 222.401 109.754 227.493 110.52L227.515 110.523L227.538 110.525L227.598 109.818C227.538 110.525 227.538 110.525 227.538 110.525L227.54 110.525L227.919 110.557C228.167 110.577 228.531 110.607 228.994 110.644C229.921 110.718 231.246 110.822 232.838 110.939C236.023 111.175 240.281 111.468 244.573 111.696C248.863 111.924 253.197 112.088 256.53 112.065C258.193 112.054 259.628 111.996 260.689 111.872C261.217 111.81 261.681 111.729 262.044 111.618C262.226 111.563 262.407 111.493 262.567 111.399C262.718 111.311 262.914 111.164 263.033 110.925L263.209 110.574L256.782 100.052L263.213 88.0951L261.958 88.1573L261.948 88.1578L261.916 88.1593L261.788 88.1651C261.674 88.1701 261.503 88.1771 261.279 88.1854C260.83 88.202 260.167 88.2236 259.31 88.2435C257.596 88.2832 255.109 88.3159 252.021 88.2879C245.844 88.2317 237.265 87.9322 227.661 86.959L227.657 86.9587ZM260.781 89.622C260.388 89.6348 259.907 89.6486 259.343 89.6617C257.615 89.7017 255.113 89.7346 252.008 89.7064C245.802 89.65 237.186 89.3493 227.535 88.3722C227.532 88.3719 227.529 88.3717 227.528 88.3716C227.511 88.3701 227.495 88.3682 227.49 88.3675C227.476 88.3658 227.46 88.3635 227.445 88.3614L227.314 88.3421C227.201 88.3254 227.033 88.3007 226.809 88.2698C226.361 88.208 225.693 88.121 224.812 88.0238C223.051 87.8294 220.442 87.5939 217.064 87.4368C210.427 87.1281 200.823 87.1222 188.856 88.3263V109.072C189.01 109.064 189.186 109.056 189.384 109.046C190.202 109.007 191.381 108.952 192.829 108.891C195.724 108.77 199.692 108.624 203.984 108.527C212.529 108.334 222.44 108.33 227.681 109.113L228.036 109.143C228.283 109.163 228.646 109.193 229.108 109.23C230.032 109.304 231.353 109.407 232.943 109.525C236.122 109.76 240.37 110.052 244.649 110.279C248.931 110.507 253.231 110.669 256.52 110.647C258.168 110.635 259.541 110.578 260.524 110.463C260.879 110.421 261.168 110.374 261.393 110.323L255.147 100.097L260.781 89.622Z" fill="white"/>
<path d="M196.1 103.75C195.965 103.753 195.831 103.728 195.706 103.677C195.582 103.625 195.469 103.548 195.376 103.45C195.204 103.238 195.121 102.968 195.145 102.696L195.403 93.6249C195.393 93.349 195.492 93.0802 195.68 92.8773C195.891 92.7141 196.152 92.629 196.418 92.6367C196.685 92.6444 196.941 92.7442 197.142 92.9193C197.229 93.0247 197.295 93.1464 197.335 93.2773C197.375 93.4082 197.389 93.5457 197.376 93.682L197.271 97.3152L202.862 97.4743L202.964 93.8411C202.955 93.5655 203.054 93.2973 203.24 93.0935C203.34 93.0052 203.458 92.9383 203.585 92.897C203.712 92.8557 203.846 92.8408 203.979 92.8533C204.112 92.8475 204.246 92.8697 204.37 92.9183C204.495 92.9669 204.608 93.0408 204.702 93.1355C204.79 93.2409 204.856 93.3626 204.896 93.4935C204.936 93.6244 204.95 93.7619 204.937 93.8982L204.675 102.969C204.685 103.242 204.586 103.507 204.402 103.708C204.193 103.876 203.931 103.964 203.663 103.957C203.395 103.949 203.139 103.846 202.94 103.666C202.766 103.455 202.682 103.184 202.706 102.912L202.814 99.1228L197.223 98.9636L197.115 102.753C197.123 103.024 197.027 103.288 196.848 103.492C196.749 103.586 196.631 103.657 196.502 103.702C196.373 103.746 196.236 103.763 196.1 103.75Z" fill="white"/>
<path d="M207.126 104.065C206.916 104.069 206.71 104.004 206.54 103.879C206.396 103.765 206.304 103.599 206.282 103.417C206.263 103.197 206.307 102.976 206.408 102.78L210.732 93.8862C210.839 93.6353 211.014 93.419 211.236 93.2616C211.433 93.1379 211.662 93.0771 211.894 93.0875C212.122 93.0933 212.344 93.1664 212.531 93.2977C212.741 93.4704 212.902 93.6964 212.996 93.9522L216.818 103.077C216.92 103.278 216.956 103.506 216.923 103.729C216.895 103.908 216.797 104.069 216.65 104.176C216.478 104.285 216.276 104.335 216.074 104.32C215.832 104.328 215.596 104.247 215.41 104.092C215.227 103.908 215.089 103.686 215.005 103.441L214.071 101.09L214.888 101.651L208.39 101.465L209.237 100.948L208.183 103.245C208.081 103.484 207.934 103.7 207.75 103.882C207.572 104.019 207.35 104.084 207.126 104.065ZM211.801 95.3575L209.498 100.423L209.111 99.9185L214.254 100.066L213.855 100.549L211.831 95.3575H211.801Z" fill="white"/>
<path d="M219.482 104.293C219.346 104.296 219.211 104.271 219.085 104.219C218.959 104.168 218.845 104.091 218.75 103.993C218.573 103.782 218.487 103.51 218.509 103.236L218.765 94.3516C218.759 94.2163 218.78 94.0811 218.828 93.9543C218.875 93.8274 218.948 93.7113 219.041 93.613C219.253 93.4534 219.514 93.3707 219.779 93.3784C220.045 93.386 220.3 93.4835 220.503 93.655C220.59 93.7588 220.656 93.8789 220.695 94.0084C220.735 94.1379 220.748 94.274 220.734 94.4087L220.5 102.633L224.965 102.759C225.199 102.752 225.426 102.836 225.599 102.993C225.674 103.077 225.731 103.176 225.767 103.282C225.803 103.389 225.816 103.503 225.806 103.615C225.814 103.732 225.795 103.849 225.751 103.958C225.708 104.066 225.64 104.164 225.553 104.243C225.467 104.322 225.364 104.38 225.251 104.414C225.139 104.448 225.021 104.456 224.905 104.438L219.482 104.293Z" fill="white"/>
<path d="M228.135 104.543C228 104.546 227.864 104.521 227.739 104.47C227.613 104.418 227.5 104.341 227.406 104.242C227.317 104.139 227.25 104.02 227.208 103.89C227.166 103.761 227.151 103.624 227.163 103.489L227.418 94.6038C227.412 94.468 227.433 94.3324 227.481 94.205C227.528 94.0776 227.601 93.961 227.694 93.8622C227.908 93.7072 228.168 93.6273 228.432 93.6349C228.697 93.6425 228.951 93.7372 229.156 93.9042C229.244 94.0078 229.31 94.1278 229.35 94.2573C229.39 94.3868 229.404 94.523 229.391 94.6579L229.153 102.882L233.621 103.011C233.736 103.006 233.851 103.024 233.96 103.064C234.068 103.104 234.167 103.164 234.252 103.242C234.327 103.327 234.384 103.426 234.42 103.533C234.455 103.641 234.469 103.754 234.459 103.867C234.462 103.98 234.442 104.093 234.401 104.199C234.359 104.305 234.298 104.401 234.219 104.483C234.131 104.559 234.028 104.616 233.917 104.652C233.806 104.688 233.689 104.7 233.573 104.69L228.135 104.543Z" fill="white"/>
<path d="M240.074 105.038C239.111 105.032 238.168 104.765 237.344 104.266C236.572 103.785 235.957 103.091 235.573 102.267C235.15 101.336 234.958 100.318 235.011 99.297C235.023 98.5139 235.17 97.7388 235.446 97.0059C235.693 96.3618 236.069 95.7752 236.551 95.2824C237.026 94.8045 237.6 94.4366 238.233 94.2045C238.924 93.9541 239.658 93.8419 240.392 93.8742C241.356 93.8781 242.3 94.1416 243.127 94.6369C243.894 95.1151 244.506 95.8042 244.89 96.6216C245.314 97.5487 245.507 98.5643 245.454 99.5822C245.441 100.368 245.293 101.146 245.016 101.882C244.77 102.531 244.394 103.123 243.911 103.621C243.439 104.103 242.865 104.474 242.232 104.708C241.541 104.957 240.808 105.069 240.074 105.038V105.038ZM240.122 103.345C240.722 103.379 241.318 103.235 241.836 102.93C242.33 102.614 242.719 102.158 242.953 101.621C243.237 100.963 243.385 100.254 243.388 99.5372C243.425 98.3061 243.177 97.3432 242.647 96.6486C242.374 96.3008 242.024 96.0217 241.624 95.834C241.224 95.6462 240.786 95.555 240.344 95.5677C239.747 95.5333 239.153 95.6742 238.635 95.973C238.138 96.2802 237.746 96.7316 237.512 97.2672C237.224 97.9304 237.075 98.6458 237.074 99.369C237.04 100.592 237.29 101.555 237.825 102.258C238.096 102.605 238.444 102.883 238.841 103.072C239.239 103.261 239.675 103.354 240.116 103.345H240.122Z" fill="white"/>
<path d="M248.031 105.188C247.876 105.191 247.722 105.162 247.579 105.102C247.436 105.042 247.306 104.953 247.2 104.84C247.096 104.727 247.016 104.594 246.964 104.45C246.912 104.306 246.89 104.152 246.899 103.999C246.899 103.85 246.928 103.702 246.987 103.565C247.045 103.427 247.131 103.303 247.239 103.2C247.352 103.095 247.486 103.015 247.631 102.963C247.777 102.912 247.931 102.89 248.085 102.9C248.237 102.893 248.389 102.918 248.53 102.974C248.671 103.03 248.798 103.116 248.903 103.225C249.008 103.335 249.089 103.466 249.139 103.609C249.189 103.753 249.207 103.905 249.193 104.056C249.197 104.362 249.081 104.658 248.869 104.879C248.76 104.987 248.628 105.071 248.484 105.124C248.339 105.178 248.185 105.199 248.031 105.188V105.188ZM248.122 101.984C248.037 101.987 247.952 101.971 247.875 101.937C247.797 101.902 247.729 101.851 247.674 101.786C247.559 101.634 247.497 101.448 247.497 101.258L247.197 95.3635C247.179 95.2026 247.194 95.04 247.241 94.8852C247.288 94.7304 247.366 94.5867 247.47 94.4627C247.581 94.3466 247.717 94.2573 247.868 94.2016C248.019 94.146 248.181 94.1254 248.341 94.1414C248.498 94.1344 248.655 94.1642 248.799 94.2283C248.942 94.2924 249.069 94.3891 249.169 94.5107C249.264 94.6427 249.332 94.7921 249.368 94.9503C249.405 95.1085 249.41 95.2724 249.383 95.4325L248.752 101.303C248.75 101.493 248.682 101.676 248.56 101.822C248.503 101.88 248.435 101.924 248.359 101.952C248.283 101.98 248.202 101.991 248.122 101.984V101.984Z" fill="white"/>
<path d="M110.675 100.738L110.12 100.861L109.951 100.318L107.444 92.3218C107.394 92.1781 107.374 92.0252 107.387 91.8733C107.401 91.7215 107.446 91.5742 107.521 91.4414C107.596 91.3086 107.698 91.1934 107.821 91.1034C107.944 91.0134 108.085 90.9507 108.234 90.9196C108.234 90.9196 109.276 90.5682 109.594 92.0125L110.618 100.228L110.918 101.501L113.57 109.641C113.57 109.641 113.498 110.647 112.6 110.791C112.6 110.791 111.558 110.851 111.429 110.007L110.12 100.861" fill="#333333"/>
<path d="M113.459 97.7296L110.96 100.798C110.96 100.798 111.756 104.891 126.19 108.071H140.624C140.624 108.071 141.873 108.641 154.376 104.434L168.933 101.06L169.038 87.7278H165.51C165.51 87.7278 158.237 87.5266 156.874 97.9127H141.861L139.618 95.5977L117.626 95.4416L113.459 97.7296Z" fill="#666666"/>
<path d="M120.506 88.4394H139.257L130.393 85.8241H121.641C121.641 85.8241 118.233 86.848 120.506 88.4394Z" fill="#666666"/>
<path d="M126.187 100.714L122.89 88.4394" stroke="#666666" stroke-width="2.12786" stroke-miterlimit="10" stroke-linecap="round"/>
<path d="M133.234 100.714L129.49 88.4394" stroke="#666666" stroke-width="2.12786" stroke-miterlimit="10" stroke-linecap="round"/>
<path d="M110.474 101.933C111.079 101.933 111.57 101.443 111.57 100.837C111.57 100.232 111.079 99.7413 110.474 99.7413C109.869 99.7413 109.378 100.232 109.378 100.837C109.378 101.443 109.869 101.933 110.474 101.933Z" fill="#666666"/>
<path fill-rule="evenodd" clip-rule="evenodd" d="M169.05 102.118L111.585 102.61L111.555 99.0641L169.019 98.5717L169.05 102.118Z" fill="white"/>
<path d="M144.542 97.9127C145.374 97.9127 146.049 97.1021 146.049 96.1021C146.049 95.1022 145.374 94.2915 144.542 94.2915C143.71 94.2915 143.035 95.1022 143.035 96.1021C143.035 97.1021 143.71 97.9127 144.542 97.9127Z" fill="#D99068"/>
<path d="M141.302 95.4416H146.049C146.049 95.4416 146.248 93.1686 144.548 93.1115C144.548 93.1115 142.96 93.1505 143.047 94.5318L141.545 94.9011L141.302 95.4416Z" fill="#0A882F"/>
<path d="M81.8622 44.7657C81.8622 44.7657 63.6902 48.8943 78.283 56.8934C78.283 56.8934 112.153 64.3279 137.483 55.2419C137.483 55.2419 156.484 54.6894 154.556 46.4292C154.556 46.4292 154.004 34.863 129.499 35.6917C129.499 35.6917 127.604 17.3065 91.3866 23.9453C90.6575 24.0752 89.9454 24.2867 89.2637 24.5759C85.3332 26.2454 72.9954 32.7101 81.8622 44.7657Z" fill="white"/>
<path d="M278.677 47.0927C278.677 47.0927 293.303 50.4136 281.556 56.8243C281.556 56.8243 254.319 62.8025 233.949 55.4941C233.949 55.4941 218.672 55.0527 220.221 48.4109C220.221 48.4109 220.663 39.1027 240.369 39.7752C240.369 39.7752 241.891 24.9902 271.02 30.3289C271.606 30.4333 272.178 30.6035 272.725 30.8364C275.887 32.2026 285.796 37.4002 278.677 47.0927Z" fill="white"/>
<path d="M330.343 152.093C330.343 152.093 344.969 155.414 333.223 161.824C333.223 161.824 305.986 167.803 285.616 160.494C285.616 160.494 270.338 160.053 271.888 153.411C271.888 153.411 272.329 144.103 292.035 144.775C292.035 144.775 293.558 129.99 322.686 135.329C323.272 135.433 323.844 135.604 324.392 135.836C327.554 137.203 337.462 142.4 330.343 152.093Z" fill="white"/>
</g>
</svg>
