<svg id="Ebene_1" data-name="Ebene 1" xmlns="http://www.w3.org/2000/svg" xmlns:xlink="http://www.w3.org/1999/xlink" viewBox="0 0 240 240"><defs><style>.cls-1{fill:#fff;}.cls-1,.cls-10,.cls-3,.cls-4,.cls-5,.cls-7,.cls-9{fill-rule:evenodd;}.cls-2,.cls-5{fill:#353a4a;}.cls-3{fill:#41474f;}.cls-4{fill:#fffffe;}.cls-6{mask:url(#mask);}.cls-7{fill:#3f88c5;opacity:0.2;isolation:isolate;}.cls-8{mask:url(#mask-2);}.cls-9{fill:#445363;}.cls-10{fill:#febd50;}</style><mask id="mask" x="28.81" y="191.23" width="200.4" height="34.21" maskUnits="userSpaceOnUse"><g id="mask-60"><path id="path-59" class="cls-1" d="M220.23,191.23s20,6.85.36,9.12c-7.14,1-14.64,1.85-22.12,2.86a1.73,1.73,0,0,1-.79.61c-16,2.15-40.68,5.24-68.42,8.85-27.53,3.84-52.33,7.44-68.32,9.59-.35-.07-.56-.29-.91-.37-7.49,1-15,2.14-22.1,3.11-19.35,2.85-1.89-8.92-1.89-8.92l92.11-11.68"/></g></mask><mask id="mask-2" x="28.81" y="191.23" width="200.4" height="34.21" maskUnits="userSpaceOnUse"><g id="mask-60-2" data-name="mask-60"><path id="path-59-2" data-name="path-59" class="cls-1" d="M220.23,191.23s20,6.85.36,9.12c-7.14,1-14.64,1.85-22.12,2.86a1.73,1.73,0,0,1-.79.61c-16,2.15-40.68,5.24-68.42,8.85-27.53,3.84-52.33,7.44-68.32,9.59-.35-.07-.56-.29-.91-.37-7.49,1-15,2.14-22.1,3.11-19.35,2.85-1.89-8.92-1.89-8.92l92.11-11.68"/></g></mask></defs><title>_</title><ellipse class="cls-2" cx="95.05" cy="19.31" rx="4.76" ry="4.62"/><path class="cls-2" d="M96,17.86a1.25,1.25,0,0,0-1-.7,1.29,1.29,0,0,0-1.17.48l-.14.17-.21.27-60.73,85a2.2,2.2,0,0,0-.17.25l-.5.79c-.4.64-.8,1.27-1.18,1.93-.5.85-.94,1.72-1.37,2.56a2.47,2.47,0,0,0-.18.59,1.06,1.06,0,0,1,0,.19l-.09.34.67.45.42-.28a1.91,1.91,0,0,0,.41-.32l.28-.29c.63-.65,1.25-1.31,1.85-2,.95-1.09,1.71-2,2.38-2.87.41-.54.68-.92,1.09-1.51l1.3-1.84L85.34,34.28,95.06,20.7l.83-1.16A1.52,1.52,0,0,0,96,17.86Z"/><path class="cls-3" d="M96.93,19.77l81.78,62.07"/><path class="cls-4" d="M178.06,81.6c-.84-.46-1.68-.92-2.5-1.42s-1.78-1.16-2.66-1.75a2,2,0,0,1-.25-.18l-13-9.82L143.23,56,126.87,43.68,110.5,31.33,98.33,22.12l-1-.73L97,21a.83.83,0,0,1,.16-1.36,1.06,1.06,0,0,1,1.19.1l1.14.87,12,9.07,59,44.53c1.68,1.28,2.22,1.62,3.12,2.35s1.87,1.6,2.78,2.44c.76.69,1.48,1.43,2.21,2.17a2.85,2.85,0,0,1,.34.49l-.08.1a3.13,3.13,0,0,1-.68-.2"/><path class="cls-2" d="M179.14,81.29a2.19,2.19,0,0,0-.31-.43l-.28-.28c-.64-.64-1.28-1.29-2-1.9-1.07-1-2-1.77-2.81-2.46-.52-.43-.93-.73-1.51-1.16-.42-.3-.92-.67-1.62-1.2L111.71,29.33l-12-9.07L98.6,19.4a1.54,1.54,0,0,0-1.69-.16,1.25,1.25,0,0,0-.72,1,1.3,1.3,0,0,0,.45,1.18l.16.14.28.22,75.34,56.91.21.15.76.51c.64.42,1.27.85,1.91,1.24.83.51,1.7,1,2.53,1.44h0a2,2,0,0,0,.59.19l.19,0,.32.09.48-.64Z"/><path class="cls-4" d="M229.2,187.29c.23,1.64-.65,3.11-1.94,3.28L32.64,215.2c-1.86.25-3.62-1.46-3.94-3.82L12.6,92c-.66-4.85,4.67-4.49,11.07-5.35l16-2.17L202.86,61.72a5.87,5.87,0,0,1,6.58,4.79L229.2,187.29"/><path class="cls-4" d="M38.22,84.74c-.92.27-1.84.54-2.77.76s-2.08.43-3.12.64l-.3,0-4.71.64c-2.61.35-5.26.74-7.9,1a38.14,38.14,0,0,0-3.82.56c-1.19.29-2.37.73-2.78,1.56s-.22,2-.05,3.38L28.65,210.8a8,8,0,0,0,.17,1,4.45,4.45,0,0,0,.34.88A3.36,3.36,0,0,0,30.34,214a2.21,2.21,0,0,0,.76.29,1.72,1.72,0,0,0,.39,0l.19,0,.28,0,4.51-.57,18-2.29,143.92-18.28,18-2.28,9-1.13.56-.08.48-.06a1,1,0,0,0,.52-.3,2.08,2.08,0,0,0,.56-1.41,2.87,2.87,0,0,0,0-.42c0-.14,0-.36-.08-.53l-6.06-39.12L210.08,67.2a4,4,0,0,0-5.2-3.87l-17.94,2.33-35.89,4.65-108.11,14c-.18,0-.36,0-.55.05a.82.82,0,0,1-.83-1.08,1,1,0,0,1,.91-.76L149.09,68.72l43.67-5.66,10.92-1.42,1.37-.18a8.13,8.13,0,0,1,1.53-.09,5.66,5.66,0,0,1,4.91,3.68,4.56,4.56,0,0,1,.22.78l.08.4.05.34,10.79,77.69c.5,3.64,1.11,7.26,1.66,10.89l4.81,31.09a13.8,13.8,0,0,1,.19,1.44,3.93,3.93,0,0,1-1.3,3.13,3.13,3.13,0,0,1-.83.49,3.67,3.67,0,0,1-.86.18l-1.34.17-5.35.68-64.21,8.15L69.79,211.34l-21.44,2.72-10.73,1.36-5.36.68-.33.05-.45,0a4.43,4.43,0,0,1-.9-.1,4.25,4.25,0,0,1-1.57-.76,5.55,5.55,0,0,1-1.82-2.66,5.12,5.12,0,0,1-.2-.77l-.07-.39-.05-.33L11.12,94.69,10.76,92a4.62,4.62,0,0,1,.69-3.28,5.21,5.21,0,0,1,2.73-1.81A18.54,18.54,0,0,1,17,86.3c1.61-.23,3.18-.36,4.73-.55l4.68-.63,3.48-.48c.52-.08,1.05-.16,1.58-.21,1.23-.12,2.46-.19,3.69-.24,1,0,2.07,0,3.1,0a3.06,3.06,0,0,1,.59.11l0,.13a3.45,3.45,0,0,1-.63.33"/><path class="cls-5" d="M38.85,84.41a3.45,3.45,0,0,1-.63.33c-.92.27-1.84.54-2.77.76s-2.08.43-3.12.64l-.3,0-4.71.64c-2.61.35-5.26.74-7.9,1a38.14,38.14,0,0,0-3.82.56c-1.19.29-2.37.73-2.78,1.56s-.22,2-.05,3.38L28.65,210.8a8,8,0,0,0,.17,1,4.45,4.45,0,0,0,.34.88A3.36,3.36,0,0,0,30.34,214a2.21,2.21,0,0,0,.76.29,1.72,1.72,0,0,0,.39,0l.19,0,.28,0,4.51-.57,18-2.29,143.92-18.28,18-2.28,9-1.13.56-.08.48-.06a1,1,0,0,0,.52-.3,2.08,2.08,0,0,0,.56-1.41,2.87,2.87,0,0,0,0-.42c0-.14,0-.36-.08-.53l-6.06-39.12L210.08,67.2a4,4,0,0,0-5.2-3.87l-17.94,2.33-35.89,4.65-108.11,14c-.18,0-.36,0-.55.05a.82.82,0,0,1-.83-1.08,1,1,0,0,1,.91-.76L149.09,68.72l43.67-5.66,10.92-1.42,1.37-.18a8.13,8.13,0,0,1,1.53-.09,5.66,5.66,0,0,1,4.91,3.68,4.56,4.56,0,0,1,.22.78l.08.4.05.34,10.79,77.69c.5,3.64,1.11,7.26,1.66,10.89l4.81,31.09a13.8,13.8,0,0,1,.19,1.44,3.93,3.93,0,0,1-1.3,3.13,3.13,3.13,0,0,1-.83.49,3.67,3.67,0,0,1-.86.18l-1.34.17-5.35.68-64.21,8.15L69.79,211.34l-21.44,2.72-10.73,1.36-5.36.68-.33.05-.45,0a4.43,4.43,0,0,1-.9-.1,4.25,4.25,0,0,1-1.57-.76,5.55,5.55,0,0,1-1.82-2.66,5.12,5.12,0,0,1-.2-.77l-.07-.39-.05-.33L11.12,94.69,10.76,92a4.62,4.62,0,0,1,.69-3.28,5.21,5.21,0,0,1,2.73-1.81A18.54,18.54,0,0,1,17,86.3c1.61-.23,3.18-.36,4.73-.55l4.68-.63,3.48-.48c.52-.08,1.05-.16,1.58-.21,1.23-.12,2.46-.19,3.69-.24,1,0,2.07,0,3.1,0a3.06,3.06,0,0,1,.59.11l0,.13"/><g class="cls-6"><path class="cls-7" d="M32.87,225.44c-10.71,0,3.17-9.36,3.17-9.36l92.11-11.68,28.61-4.09,41.45-5.26,21.4-2.72,2.63-.33c4.52,1.85,13.94,6.55-1.65,8.35-7.14,1-14.64,1.85-22.12,2.86a1.73,1.73,0,0,1-.79.61c-16,2.15-40.68,5.24-68.42,8.85-27.53,3.84-52.33,7.44-68.32,9.59-.35-.07-.56-.29-.91-.37-7.49,1-15,2.14-22.1,3.11a35.3,35.3,0,0,1-5.06.44"/></g><g class="cls-8"><path class="cls-9" d="M156.76,200.31l63.47-9.08s.84.29,2,.77l-2.63.33-21.4,2.72-41.45,5.26"/></g><path class="cls-4" d="M93.5,15.05a4.88,4.88,0,0,0-1.61,1.55,4.28,4.28,0,0,0-.76,2.2l0,.22a3.85,3.85,0,0,0,0,1c0,.16.06.32.11.47l.07.24.06.13a3.71,3.71,0,0,0,.26.53,4.09,4.09,0,0,0,.75.91,4,4,0,0,0,4.93.32,3.94,3.94,0,0,0,1.51-2.08,3.71,3.71,0,0,0,.1-1.9,3.19,3.19,0,0,0-.23-.8c0-.11-.09-.24-.15-.35a.75.75,0,0,1,.56-1,.85.85,0,0,1,.93.52,5.08,5.08,0,0,1,.42,1.32,5.48,5.48,0,0,1-2.92,5.93,5.51,5.51,0,0,1-4.27.28,5.6,5.6,0,0,1-3.21-2.89,5.15,5.15,0,0,1-.32-.8,5,5,0,0,1-.2-1.58A5.06,5.06,0,0,1,90.94,16a4.85,4.85,0,0,1,2.47-1.4,2.34,2.34,0,0,1,.53,0l0,.1a5,5,0,0,1-.46.37"/><path class="cls-5" d="M94,14.68a5,5,0,0,1-.46.37,4.88,4.88,0,0,0-1.61,1.55,4.28,4.28,0,0,0-.76,2.2l0,.22a3.85,3.85,0,0,0,0,1c0,.16.06.32.11.47l.07.24.06.13a3.71,3.71,0,0,0,.26.53,4.09,4.09,0,0,0,.75.91,4,4,0,0,0,4.93.32,3.94,3.94,0,0,0,1.51-2.08,3.71,3.71,0,0,0,.1-1.9,3.19,3.19,0,0,0-.23-.8c0-.11-.09-.24-.15-.35a.75.75,0,0,1,.56-1,.85.85,0,0,1,.93.52,5.08,5.08,0,0,1,.42,1.32,5.48,5.48,0,0,1-2.92,5.93,5.51,5.51,0,0,1-4.27.28,5.6,5.6,0,0,1-3.21-2.89,5.15,5.15,0,0,1-.32-.8,5,5,0,0,1-.2-1.58A5.06,5.06,0,0,1,90.94,16a4.85,4.85,0,0,1,2.47-1.4,2.34,2.34,0,0,1,.53,0l0,.1"/><path class="cls-10" d="M207.51,156.65l-168.31,23a8.74,8.74,0,0,1-9.82-7.45l-4.26-31.16a8.74,8.74,0,0,1,7.45-9.82l168.31-23a8.74,8.74,0,0,1,9.82,7.45L215,146.83a8.75,8.75,0,0,1-7.45,9.82"/><path class="cls-2" d="M43.3,156.23l-.08-.11a1.31,1.31,0,0,0-.46-.35l-.12-.05h-.13a11.09,11.09,0,0,0-2,.27l-.35.07a9.93,9.93,0,0,1-1,.19,1,1,0,0,0-.8.61,1,1,0,0,0,.22,1.05.9.9,0,0,0,.86.31l1.75-.26a6,6,0,0,0,.68-.15l.08,0c0,.13.08.26.11.38.13.72.34,2.64.51,4.18.11,1.06.22,2,.27,2.33a17.71,17.71,0,0,1-.45,3.32,2,2,0,0,1-1,1.38,1.06,1.06,0,0,1-1.2-.38,1.39,1.39,0,0,0-.21-.21c-.7-.52-1.58-2.46-2.37-5.21-.25-.76-.47-1.5-.63-2.18-.35-1.89-.55-3-.73-4.2l-.56-3.9A18.56,18.56,0,0,1,35.4,151c0-.57,0-1.13,0-1.66-.08-2.68-.15-4.79.87-6.63a2.09,2.09,0,0,1,.64-.69,1.72,1.72,0,0,1,1.73.38l.31.31.23.46a6.27,6.27,0,0,1,.35.76l.18.51,0,.6.21.93a.94.94,0,0,0,.57.76,1,1,0,0,0,.92-.13,1,1,0,0,0,.35-.93,7.56,7.56,0,0,0-.17-.94l-.18-.92c-.59-2-1.35-3.92-4.23-3.85a2.8,2.8,0,0,0-2.37,1.23A6.7,6.7,0,0,0,34,143l-.1.21a4,4,0,0,0-.37,1l-.07.6a12.77,12.77,0,0,0-.08,2.61,42.58,42.58,0,0,0,.29,5.48l.11.69c0,.43.07.81.12,1.18l0,.18a24.91,24.91,0,0,0,.38,2.81c.08.46.16.92.22,1.38a45.5,45.5,0,0,0,1.17,5,7.52,7.52,0,0,0,.42,1c.1.22.2.45.27.65a16.63,16.63,0,0,0,.56,1.75,9.75,9.75,0,0,0,1.2,2.21l1.43,1.63,0-.31a2.63,2.63,0,0,0,.61.28,2.28,2.28,0,0,0,.64.1,2.92,2.92,0,0,0,.66-.09l.21-.05a3.33,3.33,0,0,0,2.56-2.89,14.58,14.58,0,0,0,.33-5.26C44.08,159,43.7,157,43.3,156.23Z"/><path class="cls-2" d="M58,167l-1.37.15-1.91.34-.66.12-1.2.09c-.1-.62-.22-1.17-.29-1.48l0-.19c-.15-.74-.28-1.45-.42-2.43,0-.32-.11-.69-.18-1.08s-.14-.86-.21-1.3l-.48-3c-.22-2.57-.55-5.49-1-8.69l-.3-2.15a15.42,15.42,0,0,0-.34-1.77c-.1-.69-.24-1.37-.38-2l0-.1a25.07,25.07,0,0,1-.51-2.73l-.09-1.48v-.1a.94.94,0,0,0-.86-.77,1.06,1.06,0,0,0-1,.77l0,.13.1.95a20,20,0,0,0,.36,3.15c.1.69.35,2.08.52,2.72l.69,4.76c.15,1.08.34,2.42.52,3.33l.15,1,.11,1.32.13.9c.06.56.13,1.12.19,1.69.13,1.13.26,2.27.42,3.38.09.63.21,1.49.34,2.1l.16,1.11c.06.4.14.75.22,1.11a10.27,10.27,0,0,1,.31,2,1.36,1.36,0,0,0,.36.75l.22.22,4.16-.69,1.44-.17a8,8,0,0,0,1-.1,1.07,1.07,0,0,0,.72-.42.91.91,0,0,0,.18-.69A1,1,0,0,0,58,167Z"/><path class="cls-2" d="M70.94,165.05l-.11,0-4,.75-1.72.09c-.14-1-.3-1.89-.46-2.76L64.44,162c0-.13,0-.27-.08-.4s0-.21-.06-.27c-.16-2.09-.48-4.24-.78-6.32L63.36,154c.66-.11,1.58-.29,2.4-.44s1.39-.27,1.66-.31a.93.93,0,0,0,.8-.91,1,1,0,0,0-.74-1l-.11,0h-.11c-.48.07-1.24.23-1.85.37L63.5,152,63,152c-.06-.42-.12-.95-.18-1.49-.13-1.09-.26-2.21-.39-2.81l-.06-.44a10.54,10.54,0,0,0-.27-1.38,10.51,10.51,0,0,1-.24-1.26l0-.17c-.11-1.15-.27-2.19-.41-3.11l-.11-.78c0-.2,0-.4-.05-.6a4.17,4.17,0,0,0-.09-.88l-.06-.44.17,0,4.51-.77,1-.06.16,0a.91.91,0,0,0,.76-.69,1,1,0,0,0-.37-1l-.15-.11H67a10.12,10.12,0,0,0-2.36.2c-.53.11-1.16.18-1.76.25a10.94,10.94,0,0,0-2.62.51l-.53.12a.84.84,0,0,0-.66,1v.1a5.81,5.81,0,0,0,.2,1.72l.59,3.8c.16,1.3.23,1.71.37,2.52l.2,1.17c0,.18.07.53.13,1,.23,1.77.44,3.4.56,3.85.18,1.23.3,2.14.41,3s.18,1.35.28,2.08l.4,2.75c.13,1.42.19,1.8.28,2.44.06.38.13.86.24,1.71l0,.35a10.8,10.8,0,0,0,.64,3.05l.06.11a.83.83,0,0,0,.74.38h.1c1.4-.09,3-.36,4.56-.62l2-.32a1.25,1.25,0,0,0,.83-.48,1,1,0,0,0,.14-.77C71.81,165.35,71.51,165.12,70.94,165.05Z"/><path class="cls-2" d="M78.42,159.35c-.28-1.91-.57-3.82-.85-5.74-.1-.71-.22-1.42-.35-2.14-.21-1.22-.43-2.48-.54-3.74-.09-1-.22-1.74-.36-2.48-.08-.43-.16-.87-.23-1.35s-.16-1-.24-1.53-.17-1-.24-1.53c-.24-1.62-.47-3.52-.69-5.28a.93.93,0,0,0-.8-.71.88.88,0,0,0-.79.37,1,1,0,0,0-.29.89l.09.62c.08,1.18.25,2.37.43,3.52l.12.88c.32,2.17.65,4.42,1,6.61.1.69.2,1.37.33,2,0,.3.08.6.12.9.09.63.17,1.28.3,2s.18,1.24.25,1.88.14,1.28.25,1.84l.54,3.48c.26,1.84.52,3.32.87,5.23a3.66,3.66,0,0,0,.11.45.91.91,0,0,0,.88.76h0a1,1,0,0,0,.89-.92v-.12C79,163.27,78.71,161.31,78.42,159.35Z"/><path class="cls-2" d="M92.44,156.61a.9.9,0,0,0-1.09.38,1,1,0,0,0-.15.77,2.89,2.89,0,0,1,0,.44,10.36,10.36,0,0,1-.09,2.17l0,.11a4,4,0,0,1-.18.59c-.45,1-.91,1.48-1.45,1.55l-.11,0a1.39,1.39,0,0,1-.94-.07,10.7,10.7,0,0,1-1.89-3.86c-.21-.9-.45-1.79-.69-2.65-.17-.59-.33-1.18-.48-1.78a31.67,31.67,0,0,1-.88-3.87,54.81,54.81,0,0,1-.78-6.85c0-.53-.07-1-.11-1.56a3,3,0,0,1,0-.31c0-.13,0-.27,0-.32,0-1,0-2,.15-3.13a5.43,5.43,0,0,1,.64-2.28,1.93,1.93,0,0,1,1.09-.82,2.4,2.4,0,0,1,1.82.47,5.22,5.22,0,0,1,1.08,1.9,3.53,3.53,0,0,0,.08.4,1.89,1.89,0,0,1,0,.23l0,.11a4.1,4.1,0,0,1,.1.48h0a.88.88,0,0,0,.93.82.94.94,0,0,0,.88-.92v-.12a8.18,8.18,0,0,0-1-3.14A4.5,4.5,0,0,0,85.89,133H85.8c-2.21,0-3.83,2.35-4,4.59a48.83,48.83,0,0,0,.63,12c.09.43.16.87.23,1.31a16.76,16.76,0,0,0,.49,2.33c.3,1.73,1,4.24,1.22,5l.2.64c0,.1,0,.2.07.3a2.21,2.21,0,0,1,0,.25l0,.1c.06.18.11.37.15.53a3.27,3.27,0,0,0,.2.66,9.93,9.93,0,0,0,1,1.94l.39.65a2.7,2.7,0,0,0,1.73,1.15,2.66,2.66,0,0,0,.83.14,4.22,4.22,0,0,0,3.18-1.88,4,4,0,0,0,.65-1.45,8.8,8.8,0,0,0,.42-2.79l-.12-.84A1.1,1.1,0,0,0,92.44,156.61Z"/><path class="cls-2" d="M107.12,154.74c-.14-1-.32-2-.47-3-.13-.77-.25-1.48-.33-2l-.18-1.2c-.11-.52-.21-1.24-.31-1.94l-.83-5.75c-.13-1-.26-1.92-.48-3-.28-1.57-.54-3.16-.7-4.26-.07-.48-.13-.76-.17-.94a.61.61,0,0,0,0-.14l-.08-.86a1.14,1.14,0,0,0-.21-.53.86.86,0,0,0-.33-.27.79.79,0,0,0-.63-.16.94.94,0,0,0-.73.74l0,.13,1.51,9.55c.09.65.15,1.24.21,1.83.09.78.17,1.58.32,2.43,0,.13,0,.26,0,.38l0,.2c-1.28.23-2.8.41-4.17.56l-1,.12,0-.46c-.12-1.08-.34-2.57-.48-3.56-.37-2.57-.71-4.43-1.23-7.16l-.13-.81c-.09-.62-.19-1.26-.25-2.09l0-.28-.12-.09a.78.78,0,0,0-.86-.43,1,1,0,0,0-.71.33,1.08,1.08,0,0,0-.24.88c.28,1.67.58,3.26.89,4.91l.12.69.12.73c0,.32.12.76.12.88a9.61,9.61,0,0,0,.22,1.76c.06.34.13.71.19,1.11.11.76.25,1.72.47,3l0,.54c0,.41,0,.83.1,1.19a8.15,8.15,0,0,0,.24,1.34l.09.42c0,.46.06,1,.14,1.52l.27,2.46c0,.51.12,1,.2,1.46q.06.36.12.75c.11.72.26,1.54.41,2.31l.19,1c.07.33.09.59.12.83a6.2,6.2,0,0,0,.23,1.25c0,.16,0,.32.07.48a4.1,4.1,0,0,0,.16.84l0,.11a1,1,0,0,0,.84.51,1,1,0,0,0,.3-.05,1,1,0,0,0,.61-1.08l-.42-2.39c-.09-.62-.19-1.25-.29-1.82s-.14-.88-.19-1.23c-.11-.76-.23-1.7-.35-2.57-.17-1.38-.28-2.24-.35-2.52a10.62,10.62,0,0,1-.11-1.08c0-.18,0-.35-.07-.52a9.18,9.18,0,0,0-.16-1.07l0-.13.81-.1a12.35,12.35,0,0,0,1.69-.25c.45-.09.89-.17,1.3-.21s.93-.14,1.4-.19l1.51,8.63.63,4,.12.59a.89.89,0,0,0,1,.82,1,1,0,0,0,.91-.92v-.15C107.84,158.6,107.59,156.87,107.12,154.74Z"/><path class="cls-2" d="M132.72,156.13l-.1,0-.1,0-.55.06-.68.07-2.11.43-1.74.17h0c0-1,0-2.46.06-2.84a7.31,7.31,0,0,0,0-1.08c0-.38.09-1.16.18-1.91s.16-1.46.17-1.8l.17-1.67.06-4.34,0-.52c0-.35.1-.68.16-1a12,12,0,0,0,.19-1.34c.06-.47.08-.89.1-1.32l.29-6.65.17-1.57a9.66,9.66,0,0,0,.27-2.78c-.05-.38-.28-.64-.78-.8a3.75,3.75,0,0,0-1.35.08l-.36.06c-.56.08-1.08.12-1.55.17a8.77,8.77,0,0,0-2,.31c-.46.07-1.14.25-1.36.71a.89.89,0,0,0-.08.93,1,1,0,0,0,1.13.53l.78-.19a10.11,10.11,0,0,1,1.34-.28,11.37,11.37,0,0,1,1.54-.13l.63-.08a2,2,0,0,1,0,.43c0,.22,0,.45-.08.66s-.07.51-.08.71c-.07.75-.09,1.47-.12,2.2l-.25,3.7c-.12,1.58-.25,3.16-.4,4.78-.12,1.25-.15,2.5-.18,3.72,0,.79,0,1.59-.08,2.39,0,.23,0,.47-.06.7a9,9,0,0,0-.08,1.14l-.18,2.92-.1,1.06-.17,4.07a.9.9,0,0,0,.19.82,1,1,0,0,0,.85.33h.26l0-.61h0l.17.61a8.73,8.73,0,0,0,1-.14l.42-.06.69-.1c.53-.06,1.1-.13,1.56-.23l.24-.05c.69-.13,1.32-.26,2-.35a.94.94,0,0,0,.84-.93A1,1,0,0,0,132.72,156.13Z"/><path class="cls-2" d="M146.2,144.12c-.14-.69-.24-1.39-.34-2.07-.34-2.37-.83-5.37-1-6.55-.5-3.2-1-6.5-1.45-9.79l0-.11a1,1,0,0,0-1.15-.66,1,1,0,0,0-.69,1.13c.27,1.93.66,4.58,1,6.48.1.95.19,1.86.32,2.73a25.73,25.73,0,0,0,.45,2.59,6.53,6.53,0,0,1,.13.87c0,.12,0,.24.05.34s0,.33.07.48a6.9,6.9,0,0,1,.12.83c0,.59.14,1.27.29,2.31l.19,1.31c.07.53.2,1.09.32,1.65.08.36.17.73.23,1.07a3.13,3.13,0,0,0,.11.46v1.18a12.08,12.08,0,0,1-.16,5.1l-.16.33a3.55,3.55,0,0,1-1.38.85,1.77,1.77,0,0,1-.92,0,3.6,3.6,0,0,1-1.15-1.26,4.38,4.38,0,0,1-.33-.54,2.68,2.68,0,0,0-.25-.59l-.23-.57-.06-.24a38.74,38.74,0,0,1-.78-3.88c0-.15,0-.3-.08-.46a4.13,4.13,0,0,1-.09-.44,3.08,3.08,0,0,1-.05-.47c0-.16,0-.31,0-.45s-.09-.68-.13-1.09-.11-.88-.15-1.15c-.05-.53-.15-1.08-.25-1.61-.06-.35-.13-.71-.18-1.08s-.07-.51-.1-.76c-.06-.49-.12-1-.22-1.46l0-.1c-.13-.66-.26-1.29-.37-2s-.26-1.81-.34-2.65c-.05-.38-.1-.77-.14-1.14s-.09-.72-.13-1c-.09-.61-.2-1.37-.3-1.8l-.35-2.93a.92.92,0,0,0-.22-.58.79.79,0,0,0-.69-.39,1,1,0,0,0-.72.28,1.13,1.13,0,0,0-.26.88c.23,1.58.38,3.27.52,4.76s.37,2.92.59,4.36l.21,1.43.25,1.18c0,.17,0,.37.06.57a8.3,8.3,0,0,0,.13,1.06c.05.2.09.4.13.6a12.37,12.37,0,0,1,.26,1.5c.12.82.2,1.69.28,2.53.07.65.17,1.32.28,2,.05.31.1.63.14.94a22.36,22.36,0,0,0,1.27,5,8.13,8.13,0,0,0,1.49,2.41,4,4,0,0,0,1.06.94,3.57,3.57,0,0,0,1.65.41,3.71,3.71,0,0,0,.47,0,3.88,3.88,0,0,0,1.75-.73,4.88,4.88,0,0,0,1.57-2.46,17.51,17.51,0,0,0,.07-6.51C146.56,146.08,146.38,145.08,146.2,144.12Z"/><path class="cls-2" d="M161.45,151.64a3.64,3.64,0,0,1-.48-.49L160.2,150c-.4-.58-.83-1.08-1.23-1.56-.29-.33-.58-.67-.86-1-.54-.7-1-1.24-1.57-1.9l-.36-.44c-.31-.37-.74-.86-1.18-1.33,1.1-.59,3.14-1.88,3.81-3.52a14.07,14.07,0,0,0,.94-5.52,15.85,15.85,0,0,0-1-4.95,11.06,11.06,0,0,0-1.74-3.29c-.12-.13-.23-.25-.33-.38a6.15,6.15,0,0,0-1.18-1.15,5.42,5.42,0,0,0-2.77-1.23h-.08a3.12,3.12,0,0,0-.9-.1,3.7,3.7,0,0,0-1.2,0l.07.61-.09-.61h0c-.75.11-1.22.58-1.14,1.15l.09.65c.09.66.18,1.34.33,2l.17,1.19c0,.2.06.46.09.75s.08.7.12,1c.22,1.79.44,3.31.65,4.81a6.65,6.65,0,0,0,0,.84,41.75,41.75,0,0,0,.75,5.2l.14.7c.23,1.34.47,2.72.67,4.06.1.75.19,1.52.28,2.3.13,1.09.26,2.21.45,3.33s.28,1.68.36,2.51a.87.87,0,0,0,.49.75,1,1,0,0,0,.38.08,1,1,0,0,0,.62-.21,1,1,0,0,0,.39-.92,1.39,1.39,0,0,1,0-.44v-.25c-.13-.91-.29-1.66-.42-2.32a16.89,16.89,0,0,1-.43-3l-.28-1.95.25.3c.35.39.64.73.77.9l.8.9,1.34,1.78c.77,1.08,1.38,1.86,2.16,2.77a2.63,2.63,0,0,0,.45.52l.19.17.08.43.23,0,.21.22a1.12,1.12,0,0,0,1.41-.19.9.9,0,0,0,0-1.17A5.65,5.65,0,0,0,161.45,151.64Zm-9.37-21.82-.66-4.34.21,0a5.45,5.45,0,0,1,3.53,1.82l.54.81a13.3,13.3,0,0,1,1.76,4.33,22.5,22.5,0,0,1,.33,2.24,13,13,0,0,1-.8,4.86c-.38.93-1.43,1.8-3.2,2.65-.08-.37-.17-.85-.26-1.32-.19-.93-.37-1.87-.39-2l-.1-.68c0-.19,0-.44-.08-.72s-.09-.72-.14-1.07a2.17,2.17,0,0,1,0-.44v-.06Z"/><path class="cls-2" d="M165.25,120.07a.55.55,0,0,0,.19,0h.18l.12,0a1.35,1.35,0,0,0,.42-.13l.39-.33a1.24,1.24,0,0,0,.3-1.13.84.84,0,0,0-.28-.54,1,1,0,0,0-1-.44,1.4,1.4,0,0,0-1.33,1.14,1.2,1.2,0,0,0,.2,1.05A1.11,1.11,0,0,0,165.25,120.07Z"/><path class="cls-2" d="M167.56,118.68a1.48,1.48,0,0,0,1.41.91H169a1.79,1.79,0,0,0,.77-.39l.12-.13a1.18,1.18,0,0,0,.24-1.21,1.27,1.27,0,0,0-1.29-.9,1.13,1.13,0,0,0-.93.44,1.12,1.12,0,0,0-.4,1.18Z"/><path class="cls-2" d="M175,140c-.14-.7-.24-1.4-.34-2.07-.32-2.24-.78-5.06-1-6.55-.51-3.2-1-6.5-1.46-9.79l0-.11a1,1,0,0,0-1.16-.66.94.94,0,0,0-.7,1.08c.27,1.82.66,4.57,1,6.48v.13c.1.92.19,1.8.31,2.65a25.36,25.36,0,0,0,.46,2.59,8.7,8.7,0,0,1,.13.87,3.18,3.18,0,0,0,0,.34c0,.17.05.32.08.47s.09.53.11.84c0,.56.13,1.21.28,2.2l.2,1.42c.08.54.21,1.11.33,1.66.08.36.16.72.22,1.05a2,2,0,0,0,.12.47v1.18a11.73,11.73,0,0,1-.16,5.1l-.16.33a3.48,3.48,0,0,1-1.38.85,1.77,1.77,0,0,1-.92,0,3.69,3.69,0,0,1-1.14-1.26,2.7,2.7,0,0,1-.33-.54,3,3,0,0,0-.26-.59l-.23-.57-.06-.25a36.43,36.43,0,0,1-.77-3.87c0-.15-.06-.3-.09-.46s-.05-.24-.09-.44A3.08,3.08,0,0,1,168,142c0-.16,0-.31,0-.46s-.08-.68-.13-1.1-.11-.86-.15-1.14c0-.52-.15-1.07-.24-1.6-.07-.35-.13-.72-.19-1.08l-.09-.74c-.07-.5-.13-1-.24-1.54s-.27-1.31-.36-2c-.13-.86-.27-1.84-.36-2.7-.05-.38-.09-.77-.14-1.14s-.08-.72-.13-1c-.1-.69-.2-1.4-.3-1.8l-.34-2.94a1.1,1.1,0,0,0-.22-.58.79.79,0,0,0-.7-.38,1,1,0,0,0-.71.28,1.15,1.15,0,0,0-.27.88c.23,1.58.39,3.27.53,4.76s.37,2.94.58,4.39l.21,1.4.25,1.18a4.71,4.71,0,0,1,.06.58,8.09,8.09,0,0,0,.14,1.05c0,.2.08.41.13.6a15.13,15.13,0,0,1,.25,1.5c.12.82.21,1.69.29,2.53.06.65.17,1.31.27,2l.15,1a21.25,21.25,0,0,0,1.27,5,7.68,7.68,0,0,0,1.49,2.42,3.94,3.94,0,0,0,1,.94,3.56,3.56,0,0,0,2.12.38,3.88,3.88,0,0,0,1.75-.73,4.86,4.86,0,0,0,1.57-2.46,17.3,17.3,0,0,0,.07-6.51C175.39,141.92,175.2,140.92,175,140Z"/><path class="cls-2" d="M189.75,142.56a.9.9,0,0,0-1.09.38,1,1,0,0,0-.15.78,2.65,2.65,0,0,1,0,.44,10.28,10.28,0,0,1-.09,2.16l0,.11a6,6,0,0,1-.19.6c-.45,1-.91,1.47-1.45,1.55h-.11a1.45,1.45,0,0,1-.94-.06,10.88,10.88,0,0,1-1.89-3.86c-.21-.9-.45-1.79-.69-2.65-.16-.59-.33-1.18-.48-1.79a31.25,31.25,0,0,1-.88-3.87,56.82,56.82,0,0,1-.78-6.85c0-.53-.07-1-.11-1.56a3,3,0,0,1,0-.31c0-.14,0-.27,0-.32,0-1,.05-2,.15-3.13a5.38,5.38,0,0,1,.64-2.27,1.9,1.9,0,0,1,1.09-.83,2.36,2.36,0,0,1,1.81.47,5.08,5.08,0,0,1,1.09,1.9c0,.15.05.28.08.41a1.74,1.74,0,0,1,0,.22l0,.12a1.88,1.88,0,0,1,.1.47.91.91,0,0,0,.93.82.94.94,0,0,0,.88-.92v-.12a8.29,8.29,0,0,0-1-3.14A4.54,4.54,0,0,0,183.2,119c-2.22-.07-3.92,2.33-4.06,4.6a48.83,48.83,0,0,0,.63,12c.09.42.16.86.23,1.3a17.23,17.23,0,0,0,.49,2.34c.3,1.73,1,4.23,1.22,5l.2.64c0,.1,0,.2.07.31a2,2,0,0,1,.05.24l0,.1c.06.19.1.37.14.54a3.16,3.16,0,0,0,.2.65,9.93,9.93,0,0,0,1,1.94c.13.21.25.41.39.66a2.75,2.75,0,0,0,1.74,1.14,2.29,2.29,0,0,0,.82.14,4.22,4.22,0,0,0,3.18-1.88,3.77,3.77,0,0,0,.65-1.45,8.8,8.8,0,0,0,.42-2.79l-.12-.84A1.1,1.1,0,0,0,189.75,142.56Z"/><path class="cls-2" d="M204.69,146.75a3.39,3.39,0,0,0-.58-1.13l-.29-.57-.09-.13a1.28,1.28,0,0,1-.14-.23l-1.43-2.63a17.71,17.71,0,0,0-1-1.5c-.49-.72-1.09-1.62-1.76-2.79a3.27,3.27,0,0,1-.18-.33c-.08-.16-.18-.33-.26-.46-.23-.46-.47-.93-.77-1.43l-1.42-2.27c.08-.32.18-.63.27-.95.2-.7.41-1.42.57-2.18a10,10,0,0,1,.32-1.34l.55-2.23.13-.39a10.53,10.53,0,0,0,.44-1.51c.14-.72.27-1.53.35-2.19l.18-.65a11.23,11.23,0,0,0,.35-1.39c0-.14.05-.28.08-.42a6.3,6.3,0,0,0,.65-2.63l0-.14a.89.89,0,0,0-.85-.73,1,1,0,0,0-1,.81.92.92,0,0,1-.09.28,2.44,2.44,0,0,0-.12.35l-.41,1.51a9.87,9.87,0,0,0-.49,2l-.24,1.34-.61,2.75a22.06,22.06,0,0,0-1.07,4.29l-.19.62c0-.17-.07-.34-.12-.49l-.64-3.37-.21-1.31c-.08-.44-.15-.88-.21-1.31l-.31-3.27c0-.33-.08-.66-.11-1s-.05-.68-.1-1v-.12a.93.93,0,0,0-.19-.55.91.91,0,0,0-.86-.43,1,1,0,0,0-.91.8l0,.1v.12c.17,1.14.3,2.33.42,3.48.16,1.54.33,3.14.6,4.7l1.3,7.28a12.63,12.63,0,0,0,.21,1.76,5.66,5.66,0,0,0,.15.76c.07.45.16.89.26,1.33s.18.86.24,1.28l.32,3a29.09,29.09,0,0,0,.6,4.3l.3,1.65.06.19a1,1,0,0,0,.85.54l.17,0a.85.85,0,0,0,.68-.75,2.3,2.3,0,0,0,0-.76l-.56-3.89c0-.27-.07-.58-.11-.9s-.08-.7-.12-.95a29.58,29.58,0,0,0-.42-3.77c0-.06,0-.13,0-.2a3.2,3.2,0,0,0-.06-.46c.77,1.26,1.57,2.57,2,3.29.23.39.47.76.71,1.13l.47.71a10.24,10.24,0,0,0,.81,1.32l.53-.31-.52.32,1.57,2.88.54.79a1,1,0,0,0,1.11.46.9.9,0,0,0,.61-.94Z"/></svg>