<svg id="Ebene_1" data-name="Ebene 1" xmlns="http://www.w3.org/2000/svg" viewBox="0 0 240 240"><defs><style>.cls-1,.cls-4{fill:#3f88c5;}.cls-1{fill-rule:evenodd;}.cls-1,.cls-3{opacity:0.2;}.cls-2{fill:#fff;}.cls-5{fill:#353a4a;}.cls-6{fill:#f88;}</style></defs><title>_</title><path class="cls-1" d="M189.72,211.79l-70.66,1-70.53-.28s-14.3,8.25.56,8c5.48,0,11.21-.17,17-.2.26.11.39.32.65.43,12.26-.06,31.29-.38,52.41-.6,21.25,0,40.15.12,52.41.06a1.28,1.28,0,0,0,.65-.44c5.73,0,11.47.05,16.94,0C204.1,220,189.72,211.79,189.72,211.79Z"/><path class="cls-1" d="M209.89,72.67,120,75,29.8,72.89S27,80.77,37.17,81.8c6.45.65,13.27-.16,20.06-.2.31.09.46.28.77.37,14.51-.08,37-.38,62-.6,25.15,0,47.53,0,62,0a1.64,1.64,0,0,0,.77-.38c6.79,0,13.58.24,20.06,0C213,80.55,209.89,72.67,209.89,72.67Z"/><rect class="cls-2" x="57.14" y="72.47" width="12.25" height="140.27"/><rect class="cls-2" x="168.88" y="72.47" width="12.05" height="139.89"/><g class="cls-3"><path class="cls-2" d="M170.26,76c.29,1.87.57,3.75.76,5.63.2,2.09.29,4.18.43,6.28,0,.19,0,.39,0,.59v4.9l.05,17.33q0,12.92.11,25.83l.1,25.73q.06,12.86.11,25.72,0,9.59,0,19.16v2.37c0,.36,0,.72,0,1.08a1.62,1.62,0,0,1-2.33,1.36,2.09,2.09,0,0,1-1.26-2v-2.83l0-18.85L168.11,157,168,126.31l-.1-30.73,0-2.21c0-1.41-.05-2.82,0-4.23.08-2.43.27-4.87.5-7.29.19-2,.49-4,.77-6.08a6.62,6.62,0,0,1,.38-1.11h.25A6.73,6.73,0,0,1,170.26,76Z"/><path class="cls-4" d="M169.77,74.66a6.73,6.73,0,0,1,.49,1.31c.29,1.87.57,3.75.76,5.63.2,2.09.29,4.18.43,6.28,0,.19,0,.39,0,.59v4.9l.05,17.33q0,12.92.11,25.83l.1,25.73q.06,12.86.11,25.72,0,9.59,0,19.16v2.37c0,.36,0,.72,0,1.08a1.62,1.62,0,0,1-2.33,1.36,2.09,2.09,0,0,1-1.26-2v-2.83l0-18.85L168.11,157,168,126.31l-.1-30.73,0-2.21c0-1.41-.05-2.82,0-4.23.08-2.43.27-4.87.5-7.29.19-2,.49-4,.77-6.08a6.62,6.62,0,0,1,.38-1.11Z"/></g><g class="cls-3"><path class="cls-2" d="M58.65,73.77c.29,1.88.57,3.75.76,5.64.2,2.08.29,4.18.43,6.27,0,.2,0,.4,0,.6v4.9l0,17.75q0,13.25.1,26.48l.11,26.36q.06,13.18.11,26.36,0,9.83,0,19.63v2.38c0,.36,0,.72-.05,1.07a1.63,1.63,0,0,1-2.33,1.37,2.08,2.08,0,0,1-1.26-2v-2.83l0-19.31-.11-32.08-.11-31.44-.1-31.49,0-2.26c0-1.41-.06-2.83,0-4.23.09-2.44.28-4.87.51-7.29.19-2,.49-4.06.77-6.08a6.62,6.62,0,0,1,.38-1.11h.25A6.41,6.41,0,0,1,58.65,73.77Z"/><path class="cls-4" d="M58.16,72.47a6.41,6.41,0,0,1,.49,1.3c.29,1.88.57,3.75.76,5.64.2,2.08.29,4.18.43,6.27,0,.2,0,.4,0,.6v4.9l0,17.75q0,13.25.1,26.48l.11,26.36q.06,13.18.11,26.36,0,9.83,0,19.63v2.38c0,.36,0,.72-.05,1.07a1.63,1.63,0,0,1-2.33,1.37,2.08,2.08,0,0,1-1.26-2v-2.83l0-19.31-.11-32.08-.11-31.44-.1-31.49,0-2.26c0-1.41-.06-2.83,0-4.23.09-2.44.28-4.87.51-7.29.19-2,.49-4.06.77-6.08a6.62,6.62,0,0,1,.38-1.11Z"/></g><path class="cls-2" d="M69,66.91c.19,1.22.37,2.44.49,3.66s.19,2.72.28,4.08c0,.13,0,.26,0,.39q0,11.53,0,23.08,0,14.84.07,29.67L70,157.34q0,14.76.07,29.54,0,11,0,22v1.55c0,.23,0,.46,0,.7a1,1,0,0,1-1.51.88,1.36,1.36,0,0,1-.82-1.29v-1.84l0-21.64-.07-36-.07-35.23-.07-35.29c0-3.12-.07-3.77,0-5.29s.18-3.16.33-4.74c.13-1.32.32-2.63.5-4a4.11,4.11,0,0,1,.25-.72h.16A4.62,4.62,0,0,1,69,66.91Z"/><path class="cls-5" d="M68.67,66.06a4.62,4.62,0,0,1,.32.85c.19,1.22.37,2.44.49,3.66s.19,2.72.28,4.08c0,.13,0,.26,0,.39q0,11.53,0,23.08,0,14.84.07,29.67L70,157.34q0,14.76.07,29.54,0,11,0,22v1.55c0,.23,0,.46,0,.7a1,1,0,0,1-1.51.88,1.36,1.36,0,0,1-.82-1.29v-1.84l0-21.64-.07-36-.07-35.23-.07-35.29c0-3.12-.07-3.77,0-5.29s.18-3.16.33-4.74c.13-1.32.32-2.63.5-4a4.11,4.11,0,0,1,.25-.72Z"/><path class="cls-2" d="M57.64,65.65c.18,1.22.37,2.43.49,3.66s.19,2.72.28,4.08c0,.13,0,.26,0,.38l0,23.41q0,15.06.07,30.15l.08,30,.06,30,0,22.36v1.54c0,.23,0,.47,0,.7a1,1,0,0,1-1.51.88,1.34,1.34,0,0,1-.82-1.29v-1.83l0-22-.07-36.53-.07-35.79L56.1,79.54c0-3.18-.07-3.81,0-5.33s.18-3.16.33-4.74c.12-1.32.32-2.63.5-4a4.11,4.11,0,0,1,.25-.72h.16A4.62,4.62,0,0,1,57.64,65.65Z"/><path class="cls-5" d="M57.32,64.8a4.62,4.62,0,0,1,.32.85c.18,1.22.37,2.43.49,3.66s.19,2.72.28,4.08c0,.13,0,.26,0,.38l0,23.41q0,15.06.07,30.15l.08,30,.06,30,0,22.36v1.54c0,.23,0,.47,0,.7a1,1,0,0,1-1.51.88,1.34,1.34,0,0,1-.82-1.29v-1.83l0-22-.07-36.53-.07-35.79L56.1,79.54c0-3.18-.07-3.81,0-5.33s.18-3.16.33-4.74c.12-1.32.32-2.63.5-4a4.11,4.11,0,0,1,.25-.72Z"/><path class="cls-2" d="M168.51,65.65c.19,1.22.38,2.43.49,3.66s.2,2.72.29,4.08v.38c0,7.81,0,15.6,0,23.41q0,15.06.07,30.15l.07,30q0,15,.07,30l0,22.36v1.54c0,.23,0,.47,0,.7a1.06,1.06,0,0,1-1.52.88,1.33,1.33,0,0,1-.81-1.29v-1.83q0-11,0-22l-.08-36.53-.06-35.79L167,79.54c0-3.18-.07-3.81,0-5.33s.18-3.16.32-4.74c.13-1.32.32-2.63.51-4a4.06,4.06,0,0,1,.24-.72h.16A4,4,0,0,1,168.51,65.65Z"/><path class="cls-5" d="M168.19,64.8a4,4,0,0,1,.32.85c.19,1.22.38,2.43.49,3.66s.2,2.72.29,4.08v.38c0,7.81,0,15.6,0,23.41q0,15.06.07,30.15l.07,30q0,15,.07,30l0,22.36v1.54c0,.23,0,.47,0,.7a1.06,1.06,0,0,1-1.52.88,1.33,1.33,0,0,1-.81-1.29v-1.83q0-11,0-22l-.08-36.53-.06-35.79L167,79.54c0-3.18-.07-3.81,0-5.33s.18-3.16.32-4.74c.13-1.32.32-2.63.51-4a4.06,4.06,0,0,1,.24-.72Z"/><path class="cls-2" d="M181.37,65.65c.19,1.22.37,2.43.49,3.66s.19,2.72.28,4.08c0,.13,0,.26,0,.38,0,7.81,0,15.6,0,23.41q0,15.06.07,30.15l.07,30q0,15,.07,30l0,22.36v1.54c0,.23,0,.47,0,.7a1.06,1.06,0,0,1-1.52.88,1.36,1.36,0,0,1-.82-1.29v-1.83l0-22L180,151.19l-.07-35.79-.07-35.86c0-3.18-.06-3.81,0-5.33s.18-3.16.33-4.74c.13-1.32.32-2.63.51-4a4.06,4.06,0,0,1,.24-.72h.16A4,4,0,0,1,181.37,65.65Z"/><path class="cls-5" d="M181.05,64.8a4,4,0,0,1,.32.85c.19,1.22.37,2.43.49,3.66s.19,2.72.28,4.08c0,.13,0,.26,0,.38,0,7.81,0,15.6,0,23.41q0,15.06.07,30.15l.07,30q0,15,.07,30l0,22.36v1.54c0,.23,0,.47,0,.7a1.06,1.06,0,0,1-1.52.88,1.36,1.36,0,0,1-.82-1.29v-1.83l0-22L180,151.19l-.07-35.79-.07-35.86c0-3.18-.06-3.81,0-5.33s.18-3.16.33-4.74c.13-1.32.32-2.63.51-4a4.06,4.06,0,0,1,.24-.72Z"/><path class="cls-2" d="M154.16,75.13H35.87a6.63,6.63,0,0,1-6.61-6.61V27.12a6.63,6.63,0,0,1,6.61-6.6H204a6.63,6.63,0,0,1,6.61,6.6v41.4A6.63,6.63,0,0,1,204,75.13H156"/><path class="cls-2" d="M156.87,74.87c1.21-.18,2.43-.37,3.66-.49s2.72-.19,4.08-.28H165l26.74,0h12.34a6.12,6.12,0,0,0,1.14-.13,5.58,5.58,0,0,0,4.3-4.85l0-.58V28.34c0-.5,0-1.11,0-1.51a5.62,5.62,0,0,0-.22-1.29A5.51,5.51,0,0,0,208,23.3a5.4,5.4,0,0,0-2.19-1.39,7.25,7.25,0,0,0-2.76-.3H184.12l-50.33,0-50.11,0-25.06,0H35.91l-.64,0a5.34,5.34,0,0,0-1.24.3,5.41,5.41,0,0,0-3.34,3.61,5.33,5.33,0,0,0-.19,1.25c0,.44,0,1,0,1.53V44.12l0,24.93a5.42,5.42,0,0,0,2.67,4.1,5.32,5.32,0,0,0,2.4.71c.92,0,2,0,3.07,0H51.21l25.05,0,76.2,0c.23,0,.46,0,.7,0a1,1,0,0,1,.88,1.51,1.34,1.34,0,0,1-1.29.82l-75.28,0L47,76.22H39.35c-1.29,0-2.48,0-3.86,0a7.58,7.58,0,0,1-4.13-1.45,7.75,7.75,0,0,1-2.67-3.47,7.36,7.36,0,0,1-.49-2.16,9.62,9.62,0,0,1,0-1V59.5l0-30.49V27.1a8.68,8.68,0,0,1,.33-2.2,7.8,7.8,0,0,1,6.44-5.45A10.52,10.52,0,0,1,36,19.39H54.11l119.51-.07,29.93,0H204l.55,0a10,10,0,0,1,1.1.15,8.33,8.33,0,0,1,2.07.78,7.82,7.82,0,0,1,3.9,5.15,8.12,8.12,0,0,1,.17,1.1c0,.37,0,.74,0,1V68.72a7.87,7.87,0,0,1-4.7,7,7.58,7.58,0,0,1-2.14.6,8.29,8.29,0,0,1-1.09.07H176.79l-9.32,0c-.68,0-1.36,0-2,0-1.58-.06-3.16-.18-4.74-.33-1.32-.13-2.64-.32-3.95-.5a3.84,3.84,0,0,1-.72-.25v-.16A4.36,4.36,0,0,1,156.87,74.87Z"/><path class="cls-5" d="M156,75.19a4.36,4.36,0,0,1,.85-.32c1.21-.18,2.43-.37,3.66-.49s2.72-.19,4.08-.28H165l26.74,0h12.34a6.12,6.12,0,0,0,1.14-.13,5.58,5.58,0,0,0,4.3-4.85l0-.58V28.34c0-.5,0-1.11,0-1.51a5.62,5.62,0,0,0-.22-1.29A5.51,5.51,0,0,0,208,23.3a5.4,5.4,0,0,0-2.19-1.39,7.25,7.25,0,0,0-2.76-.3H184.12l-50.33,0-50.11,0-25.06,0H35.91l-.64,0a5.34,5.34,0,0,0-1.24.3,5.41,5.41,0,0,0-3.34,3.61,5.33,5.33,0,0,0-.19,1.25c0,.44,0,1,0,1.53V44.12l0,24.93a5.42,5.42,0,0,0,2.67,4.1,5.32,5.32,0,0,0,2.4.71c.92,0,2,0,3.07,0H51.21l25.05,0,76.2,0c.23,0,.46,0,.7,0a1,1,0,0,1,.88,1.51,1.34,1.34,0,0,1-1.29.82l-75.28,0L47,76.22H39.35c-1.29,0-2.48,0-3.86,0a7.58,7.58,0,0,1-4.13-1.45,7.75,7.75,0,0,1-2.67-3.47,7.36,7.36,0,0,1-.49-2.16,9.62,9.62,0,0,1,0-1V59.5l0-30.49V27.1a8.68,8.68,0,0,1,.33-2.2,7.8,7.8,0,0,1,6.44-5.45A10.52,10.52,0,0,1,36,19.39H54.11l119.51-.07,29.93,0H204l.55,0a10,10,0,0,1,1.1.15,8.33,8.33,0,0,1,2.07.78,7.82,7.82,0,0,1,3.9,5.15,8.12,8.12,0,0,1,.17,1.1c0,.37,0,.74,0,1V68.72a7.87,7.87,0,0,1-4.7,7,7.58,7.58,0,0,1-2.14.6,8.29,8.29,0,0,1-1.09.07H176.79l-9.32,0c-.68,0-1.36,0-2,0-1.58-.06-3.16-.18-4.74-.33-1.32-.13-2.64-.32-3.95-.5a3.84,3.84,0,0,1-.72-.25Z"/><rect class="cls-6" x="32.47" y="24.01" width="174.93" height="47.63" rx="4.56"/><path class="cls-2" d="M193.76,212.66c-1.22.19-2.44.37-3.66.49s-2.72.19-4.08.28h-.39l-23.58,0-30.42.07-30.28.07-30.29.07-22.55,0H47l-.69,0a1.06,1.06,0,0,1-.89-1.52,1.33,1.33,0,0,1,1.29-.81h1.84l22.19,0,36.85-.07,36.11-.07,36.18-.06c3.22,0,3.83-.07,5.36,0s3.16.17,4.73.32c1.32.13,2.64.32,3.95.51a3.8,3.8,0,0,1,.72.24v.16A4.21,4.21,0,0,1,193.76,212.66Z"/><path class="cls-5" d="M194.61,212.34a4.21,4.21,0,0,1-.85.32c-1.22.19-2.44.37-3.66.49s-2.72.19-4.08.28h-.39l-23.58,0-30.42.07-30.28.07-30.29.07-22.55,0H47l-.69,0a1.06,1.06,0,0,1-.89-1.52,1.33,1.33,0,0,1,1.29-.81h1.84l22.19,0,36.85-.07,36.11-.07,36.18-.06c3.22,0,3.83-.07,5.36,0s3.16.17,4.73.32c1.32.13,2.64.32,3.95.51a3.8,3.8,0,0,1,.72.24Z"/><path class="cls-5" d="M48.5,47.07a10,10,0,0,0,.43-1.1,2.76,2.76,0,0,0,.14-.34c.08-.18.18-.44.32-.77l.81-2,.18-.36a6.57,6.57,0,0,0,.55-1.26,9.2,9.2,0,0,0,.35-1.38c.07-.31.13-.61.2-.86l.18-.46.08-.15a7.94,7.94,0,0,0,.5-1.25l.11-.36a4.94,4.94,0,0,0,.93-2.3,1,1,0,0,0-.73-1.1c-.24-.08-.82-.18-1.13.65a1.64,1.64,0,0,1-.12.3l-.23.39a11,11,0,0,1-.53,1.29c-.21.45-.46,1.08-.7,1.7l-.12.4v-.08l-1.14,3.59a22.92,22.92,0,0,0-1.48,3.65l-.1-3V41.2c0-.16,0-.42,0-.7s0-.66,0-.9L47,36.43c0-.26,0-.58,0-.85s0-.32,0-.48,0-.33,0-.48V34.5a1.21,1.21,0,0,0,0-.23.62.62,0,0,1,0-.15c0-.52-.45-.65-.72-.72l-.07,0a1.05,1.05,0,0,0-.87.17.88.88,0,0,0-.37.65c0,1,0,2.12-.08,3.28,0,1.38,0,3.48,0,4.87L45.15,49a11.44,11.44,0,0,0,0,1.66,3.56,3.56,0,0,0,0,.7,9.17,9.17,0,0,0,0,1.19,9.05,9.05,0,0,1,.08,1.12l-.12,2.71h0a16.57,16.57,0,0,0-.12,2c0,.7,0,1.43.07,1.92s.08,1.1.08,1.61a.85.85,0,0,0,.8.84h0l.17,0a1,1,0,0,0,.65-.25A.59.59,0,0,0,47,62l.12-.69V56.94c0-.13,0-.26,0-.39a3.15,3.15,0,0,0,0-.44,25.12,25.12,0,0,0,.12-3.26l1.53,3.57.31.65.19.43c.13.31.29.67.42,1l.18.41.81,2.27.38.81c.44.84.94.85,1.29.72s.8-.56.61-1.08a3,3,0,0,0-.35-1.08l-.34-1-.73-1.92L51.4,57c0-.09-.07-.18-.11-.27a7.92,7.92,0,0,0-.57-1.23l-.06-.12c-.27-.57-.66-1.41-1.08-2.5l-.12-.36L49.23,52c0-.13-.09-.26-.14-.39s-.21-.55-.32-.89l-.22-.45-.71-1.74.37-.76C48.3,47.56,48.4,47.31,48.5,47.07Z"/><path class="cls-5" d="M66.77,33.92l-.3-.19,0,0a10.46,10.46,0,0,0-2.15-.12,10.88,10.88,0,0,1-1.18,0h-.4a11.57,11.57,0,0,0-2.35.11l-.59,0c-.7.13-.76.39-.8.84a7.85,7.85,0,0,0,0,1.82v.23c0,.39,0,1,0,1.53s0,1.2,0,1.6a23.52,23.52,0,0,0,0,2.38v2.3c0,1.14,0,3.06,0,3.52v7c-.08,1.28-.08,1.66-.08,2.23v1.87A14,14,0,0,0,59,61.92l.08.13c.23.33.35.51.72.51h0a19.59,19.59,0,0,0,2.16.08h.2c.59,0,1.36,0,1.91,0h0c.25,0,.49,0,.72,0a5.26,5.26,0,0,1,1,0,1.14,1.14,0,0,0,1-.24,1.15,1.15,0,0,0,.24-1c0-.62-.27-.7-.64-.77l-.23,0h0l-3.79.11L61,60.51c0-1,0-1.43,0-2.33,0-.15,0-.31,0-.48s0-.34,0-.51a1.36,1.36,0,0,0,0-.2.77.77,0,0,1,0-.15v-.26c.12-1.89.12-3.94.12-5.75v-.78c.58,0,1.37,0,2-.08l.57,0,.92,0h0a.89.89,0,0,0,.94-.92,1.19,1.19,0,0,0-.19-.87.77.77,0,0,0-.52-.24c-.32,0-1.29,0-1.84,0l-.17,0h-.06l-1.49,0H61c0-.35,0-.76,0-1.21V43.83a15.41,15.41,0,0,0-.08-1.71,7,7,0,0,1,0-1.16v-.14c0-.42,0-1,0-1.42V37.28a2.3,2.3,0,0,1,0-.48,7,7,0,0,0,0-.9v-.19l0,0,4.05-.11.85.08h.17c.72-.06.84-.22.92-.55a.83.83,0,0,1,0-.15A.81.81,0,0,0,66.77,33.92Z"/><path class="cls-5" d="M75.26,56.71V51.39c0-.6,0-1.29,0-2s0-1.31,0-1.94c0-.45,0-.92,0-1.42,0-.21,0-.42,0-.62s0-.38,0-.57,0-.4,0-.63,0-.46,0-.63,0-.39,0-.6,0-.45,0-.66,0-.44,0-.66,0-.47,0-.72V39.6c0-1.52,0-3.76.08-5.22a1,1,0,0,0-.36-.72,1.51,1.51,0,0,0-1.2,0,.81.81,0,0,0-.51.88v.62c-.08,1.09-.08,2.69-.08,3.64v.73c0,1.86,0,4.4.06,6.31,0,.61,0,1.41,0,1.84v.77c0,.18,0,.38,0,.57,0,.4,0,.82,0,1.24a15.7,15.7,0,0,1,0,1.67v1.69l0,3.13c0,1.49,0,3,.06,4.51v.28a2.32,2.32,0,0,0,0,.47.92.92,0,0,0,.26.74,1,1,0,0,0,.64.21l.26,0,.12,0c.29,0,.63-.12.71-.87s0-1.78,0-2.68S75.26,57.59,75.26,56.71Z"/><path class="cls-5" d="M91.49,57.54V56.38c0-.61,0-1.48,0-2.06l-.11-3.83L91.25,45V42.42l0-1.65c0-1.27,0-2.74-.07-3.87L91,34.4c-.12-.86-.64-.88-1-.88H90a.89.89,0,0,0-.86,1c0,1.06,0,2.66,0,3.83,0,.77,0,2.31.07,3.1l0,.73c0,.24,0,.49,0,.74s0,.5,0,.75,0,.51,0,.77c0,.51,0,1,0,1.46l.12,1.56V49c0,1.5.05,3.42.07,4.17,0,.32,0,.67,0,1s0,.71,0,1.06v.22l-.62-2.11a9.4,9.4,0,0,1-.31-1l-.14-.5A12,12,0,0,1,88,50.67l-.15-.53-.34-1-.8-3-1.18-4a12.62,12.62,0,0,1-.42-1.34c-.15-.51-.3-1-.46-1.42h0A2.67,2.67,0,0,1,84.6,39c0-.11,0-.22,0-.3a6.48,6.48,0,0,0-.38-1.51l-.23-.72L83.82,36a8.41,8.41,0,0,1-.27-1c-.06-.21-.11-.44-.18-.68a1,1,0,0,0-1.14-.79c-.31.05-.61.77-.76,1.2v0c0,.37,0,.88,0,1.26v4.42a11.13,11.13,0,0,0,0,1.63.71.71,0,0,0,0,.14.88.88,0,0,1,0,.16v.21a7.79,7.79,0,0,0,0,1c0,.09,0,.19,0,.29s0,.22,0,.31a11.49,11.49,0,0,0,0,1.66c0,.88.07,2,.07,2.68,0,.89,0,2.56,0,3.86,0,.15,0,.32,0,.49s0,.35,0,.51v2c0,.21,0,.43,0,.66,0,.46,0,.94,0,1.37v1.84l.11,2.61a.9.9,0,0,0,.86.88h.12a1,1,0,0,0,1-.75v-.15c0-.6,0-1.23-.07-1.88s0-1.23,0-1.83V55.88c0-.13,0-.25,0-.37s0-.26,0-.39v-.77c0-.12,0-.24,0-.37s0-.26,0-.4v-4.2a17.94,17.94,0,0,0,0-1.94v-.1c0-.24-.07-1.06-.07-1.68v-.77c0-.14,0-.29,0-.45a8.34,8.34,0,0,0,0-1,1.56,1.56,0,0,0,0-.2,2.66,2.66,0,0,1,0-.3v-.29l0,.1.19.6a.22.22,0,0,0,.08.14l.07.34.27.8c.07.28.16.56.24.84s.17.59.25.89a4.84,4.84,0,0,1,.19.84H85l-.1,0c.07.18.13.43.21.7s.22.8.32,1.08l0,.08a1.18,1.18,0,0,0,.3.68l.11.44.15.5,1.14,4.36.23.93c.07.19.14.4.23.62.14.39.31.85.53,1.48a8.48,8.48,0,0,0,.26.82,3.09,3.09,0,0,0,.19.59l.08.24.23.71a4.61,4.61,0,0,0,.31,1.13c.13.35.59,1,1,1h0c.74,0,1.06-.39,1.12-.72a19.6,19.6,0,0,0,.2-3.13c0-.18,0-.37,0-.57S91.49,57.75,91.49,57.54Z"/><path class="cls-5" d="M112.9,58c.07-.39.1-.58.11-.65s.06-.33.1-.54c.06-.38.15-.85.24-1.28s.18-.63.27-.91.16-.51.19-.66l.31-1.31c.1-.64.21-1.33.33-2s.23-1.42.33-2.06l.12-.47a3.62,3.62,0,0,1,.14-.55,1.7,1.7,0,0,0,.08-.3,15.26,15.26,0,0,0,.62-2.56l1.16-6,.31-1.45c.05-.19.11-.39.17-.59a8.09,8.09,0,0,0,.45-1.86c0-.51-.31-.73-.71-1a3.16,3.16,0,0,0-1-.12h-.53c-.5,0-1,0-1.41,0a9.89,9.89,0,0,0-1.89,0h-.14c-.9.06-1.56.11-1.56,1a1.14,1.14,0,0,0,.93,1l1,.08.2,0c.32,0,.61,0,1.07-.06a8.18,8.18,0,0,1,1.1.06l.22,0,.16,0a.36.36,0,0,0,.14,0h.1v0a.83.83,0,0,0-.08.24,1.31,1.31,0,0,1-.17.43l-.17.61c-.09.38-.16.83-.22,1.26,0,.27-.08.54-.13.78a4.37,4.37,0,0,1-.09.5c0,.14-.07.28-.09.43v.06c-.07.32-.14.65-.22,1s-.2.84-.28,1.26l-.27,1.11L113,47c-.27,1.06-.46,2.32-.62,3.41-.1.64-.23,1.21-.37,1.82l-.06.25a7.12,7.12,0,0,1-.15.76l-.73,3.55-.23.93-.69,3.62a1,1,0,0,0,.08.91,1.43,1.43,0,0,0,1.11.45h3.61c.59,0,1.21-.08,1.81-.08h0a1.08,1.08,0,0,0,.86-.3,1,1,0,0,0,.16-.8c0-.29-.1-.88-.83-.93h-.61l-.27,0-.31,0h0l-2,.11c-.23,0-.47,0-.7,0l-.64,0c.09-.67.29-1.9.4-2.34Z"/><path class="cls-5" d="M132.16,50c0-1.58,0-4.57-.07-6.39,0-3.08-.07-6.08-.06-9a1,1,0,0,0-1.09-1h0a.87.87,0,0,0-.67.21,1.3,1.3,0,0,0-.26.92v.06c0,1.56,0,4.17,0,5.79,0,.84,0,1.73,0,2.54s0,2.14.07,2.82v2.25c0,.5,0,1.15,0,2.08v1.18c0,.53,0,1.12.08,1.59s.07.72.07.9v.48l-.12.94a11,11,0,0,1-.78,4.51l-.14.17a2.78,2.78,0,0,1-1.27.58,1.29,1.29,0,0,1-.69-.13,4.83,4.83,0,0,1-.77-1.17l-.26-.59-.12-.51-.14-.48a.5.5,0,0,0,0-.12.52.52,0,0,1,0-.14,27.57,27.57,0,0,1-.18-3.51V51.35c0-.22,0-.43,0-.61s0-.32,0-.46V48.9c0-.17,0-.35,0-.52s0-.34,0-.51v-2c0-.38,0-.83,0-1.27s0-.77,0-1.07v-.83c0-.61,0-1.24,0-1.73l0-6.28c0-.74-.24-1.08-.8-1.13a1.13,1.13,0,0,0-.85.12,1.22,1.22,0,0,0-.38.86c0,.94,0,2-.07,2.92,0,.5,0,1,0,1.47,0,1.27,0,2.48,0,3.76l0,1.57.08,1.57a2,2,0,0,1,0,.25,2.46,2.46,0,0,0,0,.28v1c0,.11,0,.23,0,.33a1.11,1.11,0,0,1,0,.17v.5a6.59,6.59,0,0,1,0,.89c0,.67,0,1.59,0,2.23,0,.4,0,.82,0,1.23,0,.2,0,.39,0,.58v.88a18.78,18.78,0,0,0,.45,4.67,8.27,8.27,0,0,0,1.06,2.38l.11.15a4.51,4.51,0,0,0,.76.88,3.84,3.84,0,0,0,1.91.64h0a3.63,3.63,0,0,0,1.74-.47,4.77,4.77,0,0,0,1.75-2,16,16,0,0,0,.9-5.87v-.06c0-.82,0-1.76,0-2.59C132.16,51.2,132.16,50.58,132.16,50Z"/><path class="cls-5" d="M145.71,33.76l-.3,0h0c-.88,0-2,0-2.69.07-.5,0-.93,0-1.46,0h-2.59a.18.18,0,0,0-.11,0,1.37,1.37,0,0,0-1,.29.81.81,0,0,0-.25.61,1.33,1.33,0,0,0,.35,1,.85.85,0,0,0,.7.18h2.47l0,3.27v3.49c0,.65,0,1.37,0,2.06v.5c0,.1,0,.22,0,.32a1.15,1.15,0,0,1,0,.14c0,.81-.05,2-.05,2.8,0,.48,0,1.22,0,1.76l.11,2.42c0,.48,0,1,0,1.44v2.14c0,.57-.08,1.18-.08,1.77s0,1.22,0,1.72a.51.51,0,0,0,0,.16.14.14,0,0,1,0,.07,3.77,3.77,0,0,0,.07.69v.27c.07,1.48.27,1.91.92,2l.27,0c.49,0,.71-.25.91-.92v0c0-.15,0-.29,0-.42s0-.2,0-.27a2.68,2.68,0,0,0,0-.65,1.23,1.23,0,0,1,0-.34,2,2,0,0,0,0-.23,1.5,1.5,0,0,1,0-.22,7.07,7.07,0,0,1,0-.87,6.34,6.34,0,0,1,0-.9v-.69c0-.17,0-.34,0-.5s0-.58,0-.87a19.25,19.25,0,0,0,0-2.15c0-.12,0-.23,0-.34a3,3,0,0,1,0-.31V52.14c0-.19,0-.36,0-.54s0-.37,0-.57V49.76c0-.32,0-.65,0-1,0-.19,0-.39,0-.59V45.37a10,10,0,0,0,0-1.09c0-.37-.07-.76-.07-1l-.06-7.44,1.63,0,1,0h0c.92,0,1.08-.41,1.13-.85A1,1,0,0,0,145.71,33.76Z"/><path class="cls-5" d="M158.19,37.05l0,0-.1-.2a1.85,1.85,0,0,0-.11-.24l-.09-.12a7.28,7.28,0,0,0-.85-1.09A5.22,5.22,0,0,0,154.63,34a3,3,0,0,1-.36-.12,2.14,2.14,0,0,0-.43-.14,2.17,2.17,0,0,0-.93-.13h-.23c-.51,0-1.32.29-1.32,1.06v.61c0,.61,0,1.3,0,1.84v1.68c0,.09,0,.26,0,.43s0,.35,0,.45c0,1.61,0,3.47,0,4.82v0c0,.09,0,.15,0,.22a2.72,2.72,0,0,0-.05.55c0,.61,0,1.36,0,2,0,.39,0,.86,0,1.33s0,1,0,1.38a3.25,3.25,0,0,0,0,.33,2.48,2.48,0,0,1,0,.29c0,1.15.07,2.45.07,3.71v0c0,.68,0,1.26,0,2,0,1.11-.08,2.11,0,3.07,0,.28,0,.62,0,.91s0,.41,0,.55,0,.3,0,.45,0,.34,0,.56a1,1,0,0,0,1.06.92c.39,0,1-.09,1-.94,0-.07,0-.14,0-.2a.42.42,0,0,1,0-.16v-.06c0-.91,0-2-.07-2.53,0-.24,0-.47,0-.7s0-.48,0-.75,0-.37,0-.56,0-.42,0-.66V55l.44.71.61.91,1,1.76c.67,1.27,1.1,2,1.58,2.82l.53.67.32.52a1.07,1.07,0,0,0,.78.44,1.43,1.43,0,0,0,.41-.09l.14,0a.83.83,0,0,0,.52-.5,1.15,1.15,0,0,0-.15-1,4.9,4.9,0,0,0-.55-.79,1.57,1.57,0,0,1-.19-.27,2.36,2.36,0,0,0-.13-.2L158,58.87l-1.53-2.6-1.1-1.8-.35-.66-.7-1a7.38,7.38,0,0,0,3.7-2.63,13.22,13.22,0,0,0,1.59-4.84v-.06c0-.4.07-.81.07-1.25a20.61,20.61,0,0,0-.38-3.82A10,10,0,0,0,158.19,37.05Zm-4.76-1.41h.11a5.08,5.08,0,0,1,2.65,2l.42.83a14.42,14.42,0,0,1,1,4c0,.18,0,.51,0,.83s0,.6,0,.74,0,.36,0,.53,0,.29,0,.42a12.43,12.43,0,0,1-1.33,4.15A5.25,5.25,0,0,1,153.32,51c0-.12,0-.24,0-.37s0-.42,0-.64c0-.63,0-1.25,0-1.58V46.84c0-.13,0-.28,0-.44s0-.36,0-.52l.16-6.47Z"/><path class="cls-5" d="M168,56.85V51.53c0-.6,0-1.29,0-2s0-1.31,0-1.94c0-.45,0-.92,0-1.42,0-.21,0-.42,0-.61s0-.39,0-.58,0-.4,0-.63,0-.46,0-.63,0-.39,0-.6,0-.45,0-.66,0-.44,0-.66,0-.47,0-.72V39.74c0-1.52,0-3.76.08-5.22a1,1,0,0,0-.36-.71,1.55,1.55,0,0,0-1.2,0,.81.81,0,0,0-.51.88v.62c-.08,1.1-.08,2.69-.08,3.64v.73c0,1.86,0,4.4.07,6.32,0,.6,0,1.41,0,1.83v.77c0,.19,0,.38,0,.57,0,.4,0,.82,0,1.24a13.44,13.44,0,0,1,0,1.67v1.69l0,3.14c0,1.48,0,3,.06,4.51v.28a2.42,2.42,0,0,0,0,.47.91.91,0,0,0,.26.73.93.93,0,0,0,.64.21l.26,0,.12,0c.3,0,.64-.11.72-.87s0-1.78,0-2.68S168,57.73,168,56.85Z"/><path class="cls-5" d="M181.16,33.81l-.31,0h0c-.69,0-1.57,0-2.69.07-.53,0-1,0-1.56,0h-2.49a.16.16,0,0,0-.11,0,1.38,1.38,0,0,0-1.05.3.8.8,0,0,0-.24.6,1.3,1.3,0,0,0,.35,1,.84.84,0,0,0,.7.17h2.47l0,3.27v3.49c0,.64,0,1.37,0,2.06v.5c0,.09,0,.22,0,.32a.78.78,0,0,1,0,.13c0,.82,0,2.06,0,2.8,0,.49,0,1.22,0,1.77l.11,2.41c0,.48,0,1,0,1.45v2.13c0,.55-.08,1.19-.08,1.77s0,1.23,0,1.72a.51.51,0,0,0,0,.16.17.17,0,0,1,0,.07,3.44,3.44,0,0,0,.08.69V61c.07,1.47.27,1.9.92,2l.27,0c.48,0,.71-.24.91-.92v0c0-.15,0-.3,0-.43a2.54,2.54,0,0,0,0-.26,2.37,2.37,0,0,0,0-.66,1.23,1.23,0,0,1,0-.34c0-.06,0-.14,0-.23a1.49,1.49,0,0,1,0-.21,5.39,5.39,0,0,1,0-.88,8.44,8.44,0,0,1,0-.9v-.69c0-.17,0-.33,0-.49a8.61,8.61,0,0,1,0-.88c0-.65,0-1.5,0-2.15,0-.12,0-.23,0-.34a3,3,0,0,1,0-.31V52.2c0-.19,0-.37,0-.55s0-.37,0-.56V49.82c0-.32,0-.66,0-1V45.42a10.11,10.11,0,0,0,0-1.09c0-.37-.07-.75-.07-1l-.07-7.45,1.63,0,1,0h0c.91,0,1.08-.41,1.13-.85A1,1,0,0,0,181.16,33.81Z"/><path class="cls-5" d="M195.4,33.83l-.31,0h0c-.88,0-1.95,0-2.69.07-.55,0-1,0-1.56,0h-2.49a.24.24,0,0,0-.11,0,1.44,1.44,0,0,0-1.05.3.8.8,0,0,0-.24.6,1.29,1.29,0,0,0,.35,1,.88.88,0,0,0,.7.18h2.47l0,3.27v3.49c0,.64,0,1.37,0,2.06v.5c0,.09,0,.22,0,.32a.78.78,0,0,1,0,.13c0,.82,0,2.06,0,2.8,0,.49,0,1.23,0,1.77l.11,2.42c0,.47,0,1,0,1.44V56.3c0,.55-.08,1.19-.08,1.77s0,1.23,0,1.73a.44.44,0,0,0,0,.15.19.19,0,0,1,0,.08,3.42,3.42,0,0,0,.08.68V61c.07,1.47.27,1.9.92,2a1.32,1.32,0,0,0,.27,0c.48,0,.71-.24.91-.91v0c0-.15,0-.3,0-.42s0-.2,0-.27a2.82,2.82,0,0,0,0-.66,1.23,1.23,0,0,1,0-.34,2,2,0,0,0,0-.22,1.64,1.64,0,0,1,0-.22,5.39,5.39,0,0,1,0-.88,8.34,8.34,0,0,1,0-.9v-.69c0-.17,0-.33,0-.49a8.61,8.61,0,0,1,0-.88c0-.65,0-1.5,0-2.15a3.25,3.25,0,0,0,0-.33c0-.11,0-.21,0-.32V52.22c0-.19,0-.37,0-.55s0-.37,0-.56V49.84c0-.32,0-.66,0-1,0-.19,0-.39,0-.59v-2.8a10.11,10.11,0,0,0,0-1.09c0-.37-.07-.75-.07-1l-.07-7.45,1.63,0,1,0h0c.91,0,1.08-.4,1.13-.84A1,1,0,0,0,195.4,33.83Z"/></svg>