<svg width="240" height="240" viewBox="0 0 240 240" fill="none" xmlns="http://www.w3.org/2000/svg">
<g clip-path="url(#clip0_337_3937)">
<path opacity="0.05" d="M119.998 239.996C186.271 239.996 239.996 186.271 239.996 119.998C239.996 53.7249 186.271 0 119.998 0C53.7249 0 0 53.7249 0 119.998C0 186.271 53.7249 239.996 119.998 239.996Z" fill="#333333"/>
<mask id="mask0_337_3937" style="mask-type:alpha" maskUnits="userSpaceOnUse" x="0" y="0" width="240" height="240">
<path d="M119.998 240C186.271 240 239.996 186.37 239.996 120.214C239.996 54.0576 186.271 0.42746 119.998 0.42746C53.7249 0.42746 0 54.0576 0 120.214C0 186.37 53.7249 240 119.998 240Z" fill="black"/>
</mask>
<g mask="url(#mask0_337_3937)">
<path d="M63.5759 183.244V57.789C63.5759 53.5557 66.6832 50.1691 70.5186 50.1691H244.187C247.997 50.1691 251.129 53.5896 251.129 57.789V183.248L63.5759 183.244Z" fill="#333333"/>
<path d="M72.4363 60.8328H242.269V174.112H72.4363V60.8328Z" fill="white"/>
<path d="M47.8958 196.003H266.81C273.071 196.003 278.151 190.296 278.151 183.256H36.5547C36.5547 190.288 41.6304 196.003 47.8958 196.003Z" fill="#999999"/>
<path d="M115.621 115.451H180.043C180.911 115.433 181.736 115.074 182.339 114.451C182.942 113.827 183.275 112.991 183.265 112.124V78.418C183.276 77.5504 182.944 76.7135 182.34 76.0901C181.737 75.4666 180.911 75.1074 180.043 75.0907H96.4775C95.6099 75.1074 94.7842 75.4666 94.1806 76.0901C93.577 76.7135 93.2446 77.5504 93.2559 78.418V112.124C93.2457 112.991 93.5785 113.827 94.1818 114.451C94.7852 115.074 95.6102 115.433 96.4775 115.451H102.603L112.606 121.865L112.835 115.286L115.621 115.451Z" fill="#D7D7D7"/>
<path d="M172.059 85.3141H104.047V88.1039H172.059V85.3141Z" fill="white"/>
<path d="M172.059 91.6218H104.047V94.4116H172.059V91.6218Z" fill="white"/>
<path d="M148.111 97.9337H104.047V100.723H148.111V97.9337Z" fill="white"/>
<path d="M200.448 137.702H135.89C135.021 137.686 134.194 137.327 133.589 136.704C132.983 136.08 132.649 135.243 132.66 134.374V100.668C132.649 99.7996 132.983 98.9621 133.589 98.3387C134.194 97.7153 135.021 97.3566 135.89 97.341H219.638C220.506 97.3566 221.334 97.7153 221.939 98.3387C222.544 98.9621 222.878 99.7996 222.868 100.668V134.374C222.878 135.243 222.544 136.08 221.939 136.704C221.334 137.327 220.506 137.686 219.638 137.702H213.499L203.479 144.115L203.25 137.536L200.448 137.702Z" fill="#0A882F"/>
<path d="M210.049 108.153H144.648V111.396H210.049V108.153Z" fill="white"/>
<path d="M210.049 115.485H144.648V118.728H210.049V115.485Z" fill="white"/>
<path d="M187.024 122.821H144.648V126.064H187.024V122.821Z" fill="white"/>
<path d="M196.003 164.558C195.22 164.556 194.454 164.322 193.804 163.886C193.153 163.449 192.647 162.83 192.348 162.106C192.05 161.382 191.972 160.585 192.126 159.817C192.28 159.049 192.658 158.344 193.213 157.791C193.767 157.237 194.473 156.861 195.242 156.709C196.01 156.556 196.806 156.635 197.53 156.935C198.253 157.236 198.872 157.743 199.307 158.395C199.742 159.046 199.974 159.812 199.974 160.595C199.973 161.116 199.87 161.632 199.67 162.113C199.47 162.594 199.178 163.031 198.809 163.399C198.44 163.767 198.003 164.059 197.521 164.257C197.04 164.456 196.524 164.558 196.003 164.558Z" fill="#666666"/>
<path d="M206.032 164.558C205.248 164.556 204.483 164.322 203.833 163.886C203.182 163.449 202.676 162.83 202.377 162.106C202.078 161.382 202.001 160.585 202.155 159.817C202.309 159.049 202.687 158.344 203.241 157.791C203.796 157.237 204.502 156.861 205.27 156.709C206.039 156.556 206.835 156.635 207.559 156.935C208.282 157.236 208.9 157.743 209.335 158.395C209.77 159.046 210.003 159.812 210.003 160.595C210.002 161.116 209.899 161.632 209.699 162.113C209.499 162.594 209.207 163.031 208.838 163.399C208.469 163.767 208.032 164.059 207.55 164.257C207.069 164.456 206.553 164.558 206.032 164.558Z" fill="#666666"/>
<path d="M215.815 164.558C215.032 164.556 214.266 164.322 213.616 163.886C212.965 163.449 212.459 162.83 212.16 162.106C211.862 161.382 211.784 160.585 211.938 159.817C212.092 159.049 212.47 158.344 213.025 157.791C213.579 157.237 214.285 156.861 215.054 156.709C215.822 156.556 216.618 156.635 217.342 156.935C218.065 157.236 218.684 157.743 219.119 158.395C219.554 159.046 219.786 159.812 219.786 160.595C219.784 161.647 219.364 162.655 218.62 163.398C217.875 164.141 216.867 164.558 215.815 164.558Z" fill="#666666"/>
</g>
</g>
<defs>
<clipPath id="clip0_337_3937">
<rect width="240" height="240" fill="white"/>
</clipPath>
</defs>
</svg>
