<svg width="201" height="200" viewBox="0 0 201 200" fill="none" xmlns="http://www.w3.org/2000/svg">
<g clip-path="url(#clip0_337_3937)">
<path d="M100.995 199.996C156.222 199.996 200.993 155.226 200.993 99.9982C200.993 44.7707 156.222 0 100.995 0C45.7673 0 0.996582 44.7707 0.996582 99.9982C0.996582 155.226 45.7673 199.996 100.995 199.996Z" fill="black" fill-opacity="0.03"/>
<mask id="mask0_337_3937" style="mask-type:alpha" maskUnits="userSpaceOnUse" x="0" y="0" width="201" height="200">
<path d="M100.995 200C156.222 200 200.993 155.308 200.993 100.178C200.993 45.048 156.222 0.356216 100.995 0.356216C45.7673 0.356216 0.996582 45.048 0.996582 100.178C0.996582 155.308 45.7673 200 100.995 200Z" fill="black"/>
</mask>
<g mask="url(#mask0_337_3937)">
<path d="M53.9763 152.703V48.1575C53.9763 44.6298 56.5657 41.8075 59.7619 41.8075H204.485C207.66 41.8075 210.271 44.658 210.271 48.1575V152.707L53.9763 152.703Z" fill="#333333"/>
<path d="M61.3601 50.694H202.887V145.094H61.3601V50.694Z" fill="white"/>
<path d="M40.9096 163.336H223.338C228.555 163.336 232.789 158.58 232.789 152.714H31.4587C31.4587 158.573 35.6885 163.336 40.9096 163.336Z" fill="#999999"/>
<path d="M97.3469 96.2093H151.033C151.755 96.1945 152.443 95.8948 152.946 95.3755C153.448 94.8562 153.726 94.1593 153.717 93.4365V65.3484C153.727 64.6253 153.45 63.9279 152.947 63.4084C152.444 62.8889 151.756 62.5895 151.033 62.5755H81.3943C80.6714 62.5895 79.9833 62.8889 79.4803 63.4084C78.9773 63.9279 78.7003 64.6253 78.7097 65.3484V93.4365C78.7012 94.1593 78.9785 94.8562 79.4813 95.3755C79.9841 95.8948 80.6717 96.1945 81.3943 96.2093H86.499L94.8352 101.554L95.0257 96.0717L97.3469 96.2093Z" fill="#D7D7D7"/>
<path d="M144.379 71.0951H87.7019V73.4199H144.379V71.0951Z" fill="white"/>
<path d="M144.379 76.3515H87.7019V78.6763H144.379V76.3515Z" fill="white"/>
<path d="M124.422 81.6114H87.7019V83.9362H124.422V81.6114Z" fill="white"/>
<path d="M168.036 114.751H114.238C113.514 114.738 112.824 114.439 112.32 113.92C111.816 113.4 111.538 112.702 111.546 111.978V83.8904C111.538 83.1664 111.816 82.4684 112.32 81.9489C112.824 81.4294 113.514 81.1305 114.238 81.1175H184.028C184.752 81.1305 185.441 81.4294 185.945 81.9489C186.45 82.4684 186.728 83.1664 186.719 83.8904V111.978C186.728 112.702 186.45 113.4 185.945 113.92C185.441 114.439 184.752 114.738 184.028 114.751H178.912L170.562 120.096L170.372 114.614L168.036 114.751Z" fill="#0A882F"/>
<path d="M176.037 90.1274H121.537V92.8297H176.037V90.1274Z" fill="white"/>
<path d="M176.037 96.2375H121.537V98.9398H176.037V96.2375Z" fill="white"/>
<path d="M156.85 102.351H121.537V105.053H156.85V102.351Z" fill="white"/>
<path d="M164.332 137.131C163.68 137.13 163.042 136.935 162.5 136.572C161.958 136.208 161.536 135.692 161.287 135.088C161.038 134.485 160.973 133.821 161.102 133.181C161.23 132.541 161.545 131.953 162.007 131.492C162.469 131.031 163.057 130.717 163.698 130.59C164.338 130.464 165.002 130.529 165.605 130.78C166.208 131.03 166.723 131.453 167.085 131.996C167.448 132.539 167.641 133.177 167.641 133.829C167.641 134.264 167.555 134.693 167.388 135.094C167.222 135.495 166.978 135.859 166.671 136.166C166.363 136.472 165.999 136.716 165.598 136.881C165.196 137.047 164.766 137.132 164.332 137.131V137.131Z" fill="#666666"/>
<path d="M172.69 137.131C172.037 137.13 171.399 136.935 170.857 136.572C170.315 136.208 169.893 135.692 169.644 135.088C169.395 134.485 169.331 133.821 169.459 133.181C169.587 132.541 169.902 131.953 170.364 131.492C170.826 131.031 171.415 130.717 172.055 130.59C172.695 130.464 173.359 130.529 173.962 130.78C174.565 131.03 175.08 131.453 175.443 131.996C175.805 132.539 175.999 133.177 175.999 133.829C175.998 134.264 175.912 134.693 175.746 135.094C175.579 135.495 175.335 135.859 175.028 136.166C174.721 136.472 174.356 136.716 173.955 136.881C173.554 137.047 173.124 137.132 172.69 137.131V137.131Z" fill="#666666"/>
<path d="M180.842 137.131C180.19 137.13 179.552 136.935 179.01 136.572C178.468 136.208 178.046 135.692 177.797 135.088C177.548 134.485 177.483 133.821 177.612 133.181C177.74 132.541 178.055 131.953 178.517 131.492C178.979 131.031 179.567 130.717 180.208 130.59C180.848 130.464 181.512 130.529 182.115 130.78C182.718 131.03 183.233 131.453 183.595 131.996C183.958 132.539 184.151 133.177 184.151 133.829C184.149 134.706 183.8 135.546 183.18 136.165C182.559 136.784 181.719 137.131 180.842 137.131V137.131Z" fill="#666666"/>
</g>
</g>
<defs>
<clipPath id="clip0_337_3937">
<rect width="200" height="200" fill="white" transform="translate(0.996582)"/>
</clipPath>
</defs>
</svg>
