<svg width="79" height="85" viewBox="0 0 79 85" fill="none" xmlns="http://www.w3.org/2000/svg">
<path d="M21.3083 15.2719H68.8803C70.9482 15.2716 72.9619 15.933 74.627 17.1592C76.6149 18.6179 78.9062 21.3925 78.8956 24.1724C78.8833 27.7584 78.8956 57.8115 78.8956 57.8115H14.6902V25.9046C14.6902 25.9046 13.9476 18.9443 21.3083 15.2719Z" fill="#C3C3C3"/>
<path d="M14.6779 57.8115H30.1877V24.1724C30.1877 24.1724 28.9988 16.3443 25.8291 15.2719H20.4264C20.4264 15.2719 14.3551 16.9687 14.6796 25.9046L14.6779 57.8115Z" fill="#464646"/>
<path d="M51.8235 83.3032C49.8444 83.8324 48.6485 84.3615 42.392 85.0001V57.8115H51.8235V83.3032Z" fill="#808080"/>
<path d="M46.0221 28.7074C48.026 28.7074 49.6504 27.083 49.6504 25.0791C49.6504 23.0753 48.026 21.4508 46.0221 21.4508C44.0182 21.4508 42.3938 23.0753 42.3938 25.0791C42.3938 27.083 44.0182 28.7074 46.0221 28.7074Z" fill="#EDEDED"/>
<path d="M47.5743 23.3875H0.120483V52.6821H47.5743V23.3875Z" fill="#B9B9B9"/>
<path fill-rule="evenodd" clip-rule="evenodd" d="M0.120483 23.3875V52.6821H4.36792L14.1857 39.5923L0.120483 23.3875Z" fill="white"/>
<path fill-rule="evenodd" clip-rule="evenodd" d="M47.5743 23.3875L33.4844 39.363L43.5068 52.6821H47.5743V23.3875Z" fill="white"/>
<path d="M3.01678 23.3875H44.4946L31.6059 38.0277L28.0675 41.5872C27.1644 42.4956 25.3829 42.9983 24.1164 42.9983H23.1974C21.8586 42.9983 19.9924 42.4163 19.0999 41.3967L16.1401 38.0348L3.01678 23.3875Z" fill="white" stroke="#B9B9B9" stroke-width="0.1" stroke-miterlimit="10"/>
<path d="M15.4522 40.947L6.63275 52.6822H41.1696L31.9851 40.947C31.9851 40.947 29.7979 43.5805 28.8454 44.1873C28.0635 44.6518 27.222 45.0079 26.3442 45.2456C25.4197 45.4436 24.4793 45.5575 23.5343 45.586C22.5758 45.5232 21.6283 45.3456 20.7121 45.0569C20.123 44.8293 19.1563 44.3919 18.6607 43.9985C17.8458 43.33 15.4522 40.947 15.4522 40.947Z" fill="white" stroke="#B9B9B9" stroke-width="0.1" stroke-miterlimit="10"/>
<path d="M30.1877 57.8115H62.7649L52.0828 21.5072H30.1877V57.8115Z" fill="#C3C3C3"/>
<path d="M33.9218 28.755C33.9214 29.882 34.2443 30.9855 34.8522 31.9345C35.46 32.8836 36.3273 33.6383 37.3512 34.1093C38.3751 34.5803 39.5126 34.7477 40.6287 34.5917C41.7449 34.4357 42.7929 33.9628 43.6484 33.2291C44.5039 32.4954 45.131 31.5318 45.4553 30.4524C45.7797 29.3731 45.7876 28.2234 45.4782 27.1397C45.1688 26.056 44.5551 25.0837 43.7098 24.3383C42.8645 23.5929 41.8231 23.1056 40.7092 22.9342V11.3296H62.8725C63.1097 11.3296 63.3371 11.2353 63.5048 11.0676C63.6725 10.8999 63.7668 10.6725 63.7668 10.4353V1.10785C63.7668 0.870504 63.6726 0.642856 63.5049 0.474864C63.3373 0.306872 63.1098 0.212259 62.8725 0.211792H39.8132C39.5759 0.212259 39.3484 0.306872 39.1807 0.474864C39.0131 0.642856 38.9189 0.870504 38.9189 1.10785V22.9395C37.5293 23.1536 36.262 23.8574 35.3457 24.9238C34.4293 25.9902 33.9243 27.349 33.9218 28.755Z" fill="#73BE00"/>
<path d="M66.111 4.69564H71.6161C71.8968 4.69564 72.166 4.58414 72.3644 4.38566C72.5629 4.18719 72.6744 3.918 72.6744 3.63731C72.6744 3.35662 72.5629 3.08743 72.3644 2.88896C72.166 2.69048 71.8968 2.57898 71.6161 2.57898H66.111C65.8303 2.57898 65.5611 2.69048 65.3627 2.88896C65.1642 3.08743 65.0527 3.35662 65.0527 3.63731C65.0527 3.918 65.1642 4.18719 65.3627 4.38566C65.5611 4.58414 65.8303 4.69564 66.111 4.69564Z" fill="#73BE00"/>
<path d="M66.111 9.07003H71.6161C71.8968 9.07003 72.166 8.95853 72.3644 8.76005C72.5629 8.56158 72.6744 8.29239 72.6744 8.0117C72.6744 7.73102 72.5629 7.46182 72.3644 7.26335C72.166 7.06487 71.8968 6.95337 71.6161 6.95337H66.111C65.8303 6.95337 65.5611 7.06487 65.3627 7.26335C65.1642 7.46182 65.0527 7.73102 65.0527 8.0117C65.0527 8.29239 65.1642 8.56158 65.3627 8.76005C65.5611 8.95853 65.8303 9.07003 66.111 9.07003Z" fill="#73BE00"/>
<path d="M44.8297 3.36743L46.6095 6.28314H46.6254V3.36743H47.9941V8.72436H46.77L44.9444 5.74339H44.9126V8.72436H43.5509V3.36743H44.8297Z" fill="white"/>
<path d="M52.6419 3.36743V4.57922H50.5253V5.40119H52.335V6.59358H50.5235V7.51962H52.7054V8.72788H49.1371V3.36743H52.6419Z" fill="white"/>
<path d="M53.5874 6.96047V3.36743H54.965V6.87227C54.965 7.47729 55.286 7.6625 55.7305 7.6625C56.175 7.6625 56.4555 7.41202 56.4555 6.91284V3.36743H57.8207V7.07159C57.8207 8.15815 56.9511 8.8196 55.6864 8.8196C54.293 8.82137 53.5874 8.25693 53.5874 6.96047Z" fill="white"/>
</svg>
