<svg width="201" height="200" viewBox="0 0 201 200" fill="none" xmlns="http://www.w3.org/2000/svg">
<g clip-path="url(#clip0_51_1234)">
<path opacity="0.05" d="M100.498 199.996C155.726 199.996 200.496 155.226 200.496 99.9982C200.496 44.7707 155.726 0 100.498 0C45.2707 0 0.5 44.7707 0.5 99.9982C0.5 155.226 45.2707 199.996 100.498 199.996Z" fill="black"/>
<mask id="mask0_51_1234" style="mask-type:alpha" maskUnits="userSpaceOnUse" x="0" y="0" width="201" height="200">
<path d="M100.498 200C155.726 200 200.496 155.308 200.496 100.178C200.496 45.048 155.726 0.356216 100.498 0.356216C45.2707 0.356216 0.5 45.048 0.5 100.178C0.5 155.308 45.2707 200 100.498 200Z" fill="black"/>
</mask>
<g mask="url(#mask0_51_1234)">
<path d="M53.4801 152.703V48.1575C53.4801 44.6298 56.0695 41.8075 59.2657 41.8075H203.989C207.164 41.8075 209.775 44.658 209.775 48.1575V152.707L53.4801 152.703Z" fill="#464646"/>
<path d="M60.8636 50.694H202.391V145.094H60.8636V50.694Z" fill="white"/>
<path d="M40.4132 163.336H222.841C228.059 163.336 232.292 158.58 232.292 152.714H30.9623C30.9623 158.573 35.1921 163.336 40.4132 163.336Z" fill="#B9B9B9"/>
<path d="M96.8505 96.2093H150.536C151.259 96.1945 151.946 95.8948 152.449 95.3755C152.952 94.8562 153.229 94.1593 153.221 93.4365V65.3484C153.23 64.6253 152.953 63.9279 152.45 63.4084C151.947 62.8889 151.259 62.5895 150.536 62.5755H80.8979C80.1749 62.5895 79.4868 62.8889 78.9838 63.4084C78.4808 63.9279 78.2038 64.6253 78.2132 65.3484V93.4365C78.2047 94.1593 78.482 94.8562 78.9848 95.3755C79.4876 95.8948 80.1752 96.1945 80.8979 96.2093H86.0026L94.3387 101.554L94.5292 96.0717L96.8505 96.2093Z" fill="#C3C3C3"/>
<path d="M143.883 71.0951H87.2056V73.4199H143.883V71.0951Z" fill="white"/>
<path d="M143.883 76.3515H87.2056V78.6763H143.883V76.3515Z" fill="white"/>
<path d="M123.926 81.6114H87.2056V83.9362H123.926V81.6114Z" fill="white"/>
<path d="M167.54 114.751H113.741C113.018 114.738 112.328 114.439 111.824 113.92C111.32 113.4 111.041 112.702 111.05 111.978V83.8904C111.041 83.1664 111.32 82.4684 111.824 81.9489C112.328 81.4294 113.018 81.1305 113.741 81.1175H183.531C184.255 81.1305 184.945 81.4294 185.449 81.9489C185.953 82.4684 186.232 83.1664 186.223 83.8904V111.978C186.232 112.702 185.953 113.4 185.449 113.92C184.945 114.439 184.255 114.738 183.531 114.751H178.416L170.066 120.096L169.875 114.614L167.54 114.751Z" fill="#0A882F"/>
<path d="M175.541 90.1274H121.04V92.8297H175.541V90.1274Z" fill="white"/>
<path d="M175.541 96.2375H121.04V98.9398H175.541V96.2375Z" fill="white"/>
<path d="M156.353 102.351H121.04V105.053H156.353V102.351Z" fill="white"/>
<path d="M163.836 137.131C163.183 137.13 162.545 136.935 162.003 136.572C161.461 136.208 161.039 135.692 160.79 135.088C160.541 134.485 160.477 133.821 160.605 133.181C160.733 132.541 161.048 131.953 161.511 131.492C161.973 131.031 162.561 130.717 163.201 130.59C163.842 130.464 164.505 130.529 165.108 130.78C165.711 131.03 166.226 131.453 166.589 131.996C166.951 132.539 167.145 133.177 167.145 133.829C167.144 134.264 167.058 134.693 166.892 135.094C166.725 135.495 166.482 135.859 166.174 136.166C165.867 136.472 165.502 136.716 165.101 136.881C164.7 137.047 164.27 137.132 163.836 137.131Z" fill="#808080"/>
<path d="M172.193 137.131C171.54 137.13 170.903 136.935 170.361 136.572C169.818 136.208 169.396 135.692 169.148 135.088C168.899 134.485 168.834 133.821 168.963 133.181C169.091 132.541 169.406 131.953 169.868 131.492C170.33 131.031 170.918 130.717 171.559 130.59C172.199 130.464 172.862 130.529 173.465 130.78C174.068 131.03 174.584 131.453 174.946 131.996C175.309 132.539 175.502 133.177 175.502 133.829C175.502 134.264 175.416 134.693 175.249 135.094C175.083 135.495 174.839 135.859 174.532 136.166C174.224 136.472 173.86 136.716 173.458 136.881C173.057 137.047 172.627 137.132 172.193 137.131Z" fill="#808080"/>
<path d="M180.346 137.131C179.693 137.13 179.055 136.935 178.513 136.572C177.971 136.208 177.549 135.692 177.3 135.088C177.051 134.485 176.987 133.821 177.115 133.181C177.243 132.541 177.558 131.953 178.021 131.492C178.483 131.031 179.071 130.717 179.711 130.59C180.352 130.464 181.015 130.529 181.618 130.78C182.221 131.03 182.736 131.453 183.099 131.996C183.461 132.539 183.655 133.177 183.655 133.829C183.653 134.706 183.304 135.546 182.683 136.165C182.063 136.784 181.222 137.131 180.346 137.131Z" fill="#808080"/>
</g>
</g>
<defs>
<clipPath id="clip0_51_1234">
<rect width="200" height="200" fill="white" transform="translate(0.5)"/>
</clipPath>
</defs>
</svg>
