<svg
	width="168"
	height="90"
	viewBox="0 0 168 90"
	fill="none"
	xmlns="http://www.w3.org/2000/svg"
>
	<path
		opacity="0.2"
		fill-rule="evenodd"
		clip-rule="evenodd"
		d="M166.312 71.1556C166.195 70.9316 166.027 70.8017 165.849 70.7983L86.3729 71.4513L12.0789 70.9831H11.9394C11.6017 71.1186 9.99414 69.5418 8.45996 70.3672C8.21038 70.5027 8.04888 73.1267 8.04888 73.5579V75.6028C8.04454 76.1332 8.2911 76.5742 8.60677 76.6007C9.61977 76.7116 10.9191 76.7609 12.556 76.7362C18.3037 76.7362 24.3009 76.6623 30.3569 76.6623C30.4007 76.6501 30.4453 76.6501 30.489 76.6623C30.7019 76.7362 30.834 76.8471 31.0469 76.9333H31.1717C44.0985 76.9333 64.1383 76.7855 86.3729 76.6993C108.776 76.7855 128.706 76.9333 141.633 76.9333C141.832 76.8905 142.029 76.8163 142.22 76.7116C142.284 76.6585 142.354 76.6291 142.426 76.6253C148.438 76.6253 154.449 76.7116 160.19 76.6993C168.514 76.7485 166.965 72.4491 166.312 71.1556Z"
		fill="#3F88C5"
	/>
	<path
		d="M52.5601 71.7936H10.5923C7.93674 71.7936 5.78003 69.2144 5.78003 66.062V7.7942C5.78003 4.61887 7.93674 2.06256 10.5923 2.06256H162.053C164.709 2.06256 166.866 4.63033 166.866 7.7942V66.0391C166.866 69.2144 164.709 71.7707 162.053 71.7707H152.517L155.965 87.143L137.955 71.7707H62.3973"
		fill="white"
	/>
	<path
		d="M62.78 71.3149C63.5175 71.1319 64.2551 70.9603 65.0517 70.8459C65.8482 70.7315 66.7333 70.6514 67.5741 70.5714H138.063C138.168 70.5542 138.274 70.5542 138.38 70.5714L138.667 70.8116L139.936 71.8869L142.451 74.0146L152.504 82.5254L154.805 84.4815L155.019 84.6531H155.071C155.071 84.6531 155.071 84.6531 155.071 84.5844L155.026 84.4014L153.433 77.3663L152.408 72.7906L151.973 70.8573L151.914 70.6171C151.914 70.5485 151.855 70.4341 151.914 70.4684H160.551C161.468 70.5191 162.387 70.4809 163.302 70.354C164.114 70.1572 164.878 69.6281 165.514 68.8212C166.122 68.0964 166.49 66.9893 166.518 65.8012V43.6091V8.09023C166.65 5.60792 165.146 3.75476 163.516 3.25143C163.096 3.11991 162.668 3.05855 162.24 3.06841H146.589H123.783L78.2023 3.13704H32.5917H9.83804C9.01411 3.211 8.2153 3.60431 7.51473 4.28097C6.86423 4.87092 6.38393 5.82458 6.17238 6.94631C6.13292 7.21657 6.11313 7.49283 6.11337 7.76993V65.8126C6.11966 66.0355 6.13692 66.2573 6.165 66.4761C6.32283 67.3958 6.67955 68.2035 7.17545 68.764C7.71746 69.4028 8.34509 69.8446 9.01197 70.0566C9.354 70.1696 9.70228 70.2309 10.0519 70.2396H51.2741C51.4216 70.2396 51.5617 70.2396 51.7092 70.2396C51.9272 70.2582 52.1246 70.4454 52.2345 70.738C52.3444 71.0305 52.3521 71.3892 52.255 71.6924C52.1207 72.1862 51.8038 72.5002 51.4585 72.4817H10.1552C9.25646 72.4808 8.36668 72.2048 7.53686 71.6695C6.67363 71.147 5.91698 70.2738 5.34631 69.1415C5.06565 68.522 4.86066 67.828 4.74151 67.0938C4.6838 66.7188 4.65166 66.3354 4.64563 65.9499C4.64563 65.5839 4.64563 65.3093 4.64563 64.989V8.01016C4.64563 7.80425 4.64563 7.54115 4.64563 7.25517C4.6546 6.97707 4.68178 6.70111 4.72676 6.43154C4.80768 5.9025 4.93682 5.39406 5.11029 4.92156C5.45363 4.01186 5.92202 3.23072 6.48215 2.63372C7.57004 1.49382 8.8572 0.898912 10.1699 0.929268H41.3613H96.8773H151.257H162.321C162.634 0.928044 162.947 0.954779 163.258 1.00934C163.892 1.12572 164.513 1.37988 165.101 1.76433C166.368 2.53934 167.361 4.11691 167.83 6.09981C167.939 6.62497 167.996 7.17258 168 7.72418V22.1376V64.3027V65.7097C168 65.9156 168 66.2588 168 66.5333C168 66.8079 167.934 67.0938 167.889 67.3798C167.686 68.4496 167.308 69.4192 166.79 70.1939C165.799 71.6364 164.523 72.5189 163.169 72.6991C162.49 72.7906 161.923 72.6991 161.333 72.7677H153.957C153.957 72.7677 153.905 72.7677 153.957 72.7677L154.879 76.8401L156.044 82.0106L156.87 85.6826L157.438 88.1764L157.711 89.4118L156.974 88.7712L143.166 77.1489L140.069 74.5293L138.52 73.2138C138.284 73.0194 137.9 72.6876 137.989 72.7791H69.3516C68.9312 72.7791 68.5108 72.7791 68.083 72.7791C67.1021 72.7219 66.1285 72.5961 65.1328 72.4588C64.3141 72.3445 63.5028 72.15 62.6915 71.9784C62.5369 71.9207 62.3863 71.8402 62.2416 71.7382V71.5895C62.4129 71.4632 62.5938 71.371 62.78 71.3149Z"
		fill="white"
	/>
	<path
		d="M62.2563 71.6238C62.4219 71.4875 62.5978 71.3837 62.78 71.3149C63.5175 71.1319 64.2551 70.9603 65.0517 70.8459C65.8482 70.7315 66.7333 70.6514 67.5741 70.5714H138.063C138.168 70.5542 138.274 70.5542 138.38 70.5714L138.667 70.8116L139.936 71.8869L142.451 74.0146L152.504 82.5254L154.805 84.4815L155.019 84.6531H155.071C155.071 84.6531 155.071 84.6531 155.071 84.5844L155.026 84.4014L153.433 77.3663L152.408 72.7906L151.973 70.8573L151.914 70.6171C151.914 70.5485 151.855 70.4341 151.914 70.4684H160.551C161.468 70.5191 162.387 70.4809 163.302 70.354C164.114 70.1572 164.878 69.6281 165.514 68.8212C166.122 68.0964 166.49 66.9893 166.518 65.8012V43.6091V8.09023C166.65 5.60792 165.146 3.75476 163.516 3.25143C163.096 3.11991 162.668 3.05855 162.24 3.06841H146.589H123.783L78.2023 3.13704H32.5917H9.83804C9.01411 3.211 8.2153 3.60431 7.51473 4.28097C6.86423 4.87092 6.38393 5.82458 6.17238 6.94631C6.13292 7.21657 6.11313 7.49283 6.11337 7.76993V65.8126C6.11966 66.0355 6.13692 66.2573 6.165 66.4761C6.32283 67.3958 6.67955 68.2035 7.17545 68.764C7.71746 69.4028 8.34509 69.8446 9.01197 70.0566C9.354 70.1696 9.70228 70.2309 10.0519 70.2396H51.2741C51.4216 70.2396 51.5617 70.2396 51.7092 70.2396C51.9272 70.2582 52.1246 70.4454 52.2345 70.738C52.3444 71.0305 52.3521 71.3892 52.255 71.6924C52.1207 72.1862 51.8038 72.5002 51.4585 72.4817H10.1552C9.25646 72.4808 8.36668 72.2048 7.53686 71.6695C6.67363 71.147 5.91698 70.2738 5.34631 69.1415C5.06565 68.522 4.86066 67.828 4.74151 67.0938C4.6838 66.7188 4.65166 66.3354 4.64563 65.9499C4.64563 65.5839 4.64563 65.3093 4.64563 64.989V8.01016C4.64563 7.80425 4.64563 7.54115 4.64563 7.25517C4.6546 6.97707 4.68178 6.70111 4.72676 6.43154C4.80768 5.9025 4.93682 5.39406 5.11029 4.92156C5.45363 4.01186 5.92202 3.23072 6.48215 2.63372C7.57004 1.49382 8.8572 0.898912 10.1699 0.929268H41.3613H96.8773H151.257H162.321C162.634 0.928044 162.947 0.954779 163.258 1.00934C163.892 1.12572 164.513 1.37988 165.101 1.76433C166.368 2.53934 167.361 4.11691 167.83 6.09981C167.939 6.62497 167.996 7.17258 168 7.72418V22.1376V64.3027V65.7097C168 65.9156 168 66.2588 168 66.5333C168 66.8079 167.934 67.0938 167.889 67.3798C167.686 68.4496 167.308 69.4192 166.79 70.1939C165.799 71.6364 164.523 72.5189 163.169 72.6991C162.49 72.7906 161.923 72.6991 161.333 72.7677H153.957C153.957 72.7677 153.905 72.7677 153.957 72.7677L154.879 76.8401L156.044 82.0106L156.87 85.6826L157.438 88.1764L157.711 89.4118L156.974 88.7712L143.166 77.1489L140.069 74.5293L138.52 73.2138C138.284 73.0194 137.9 72.6876 137.989 72.7791H69.3516C68.9312 72.7791 68.5108 72.7791 68.083 72.7791C67.1021 72.7219 66.1285 72.5961 65.1328 72.4588C64.3141 72.3445 63.5028 72.15 62.6915 71.9784C62.5369 71.9207 62.3863 71.8402 62.2416 71.7382L62.2563 71.6238Z"
		fill="#353A4A"
	/>
	<path
		fill-rule="evenodd"
		clip-rule="evenodd"
		d="M141.511 21.9464C141.511 20.9742 140.961 20.9742 140.487 20.9742H140.5C139.95 20.923 139.439 21.0254 139.362 22.2917V23.2767C139.337 23.7027 139.337 24.1298 139.362 24.5559C139.503 27.306 139.503 30.0051 139.503 32.7553C139.503 34.61 139.503 36.4776 139.413 38.3324C139.413 38.5655 139.402 38.8042 139.39 39.0444C139.368 39.529 139.345 40.0195 139.413 40.4814C139.515 41.1721 139.515 41.914 139.515 42.5664V45.3678V48.2459C139.515 49.3203 140.014 49.4099 140.487 49.4099C140.961 49.4099 141.613 49.4099 141.613 48.4377V45.4061V42.6687C141.658 41.8464 141.658 41.0223 141.613 40.2C141.511 39.6627 141.511 39.0359 141.511 38.3836C141.511 36.759 141.524 34.7635 141.613 33.1262C141.703 31.4889 141.703 29.9155 141.703 28.2782C141.703 26.3211 141.651 24.1337 141.511 21.9464ZM141.856 53.9253L141.767 53.6951C141.691 53.4049 141.497 53.1597 141.232 53.0188C140.967 52.8779 140.655 52.8541 140.372 52.9532C139.541 52.9915 139.029 54.7184 139.029 54.7184C139.203 55.2075 139.596 55.5865 140.091 55.7417H140.423C140.603 55.7417 141.165 55.6522 141.165 55.6522C141.559 55.5029 141.828 55.138 141.856 54.7184C141.926 54.4587 141.926 54.185 141.856 53.9253Z"
		fill="#353A4A"
	/>
	<path
		d="M52.6556 47.8131C51.6139 50.1738 49.9613 52.214 47.8684 53.7234C47.7673 53.8054 47.6612 53.8811 47.5508 53.9502C46.6374 54.5162 45.6727 54.9948 44.6694 55.3796C42.9498 56.0578 41.1281 56.4413 39.281 56.514C37.4392 56.5509 35.6037 56.2865 33.8472 55.7313C31.2425 54.9304 28.8269 53.6107 26.7458 51.8516C24.6253 50.1258 22.8869 47.9779 21.641 45.5443C21.0141 44.3162 20.5489 43.0122 20.257 41.6646C19.9856 40.3099 19.8828 38.9267 19.9507 37.5467C20.1099 34.804 20.8854 32.1324 22.2195 29.7307C23.5594 27.3524 25.3697 25.272 27.5399 23.6162C28.633 22.7767 29.8209 22.0685 31.0792 21.5062C32.3372 20.9352 33.6532 20.5016 35.0043 20.213C37.0032 19.8258 39.0486 19.7378 41.0734 19.9521C43.1423 20.1499 45.1533 20.747 46.995 21.7104L47.6983 22.1075L48.3789 22.5612C48.5827 22.6974 48.7727 22.8532 48.9461 23.0263C49.2556 23.236 49.416 23.6057 49.3577 23.975C49.2994 24.3442 49.0329 24.6465 48.6739 24.7506C48.2227 24.9722 47.6843 24.9149 47.2899 24.6032C46.8585 24.2853 46.4034 24.0009 45.9286 23.7524C42.7222 22.1873 39.0842 21.74 35.5942 22.4818C29.6992 23.6481 24.8834 27.8879 22.9796 33.5877C22.5087 34.9402 22.2374 36.3542 22.1742 37.785C22.0926 39.1988 22.2421 40.6165 22.6166 41.9823C22.984 43.3561 23.5618 44.6648 24.3295 45.8619C25.0839 47.1077 25.9951 48.2514 27.0408 49.2651C31.1473 53.2809 37.2504 55.5724 42.7182 53.8028C43.1038 53.6883 43.4826 53.5519 43.8526 53.3944C44.5943 53.084 45.3177 52.7318 46.0194 52.3394C47.2639 51.6751 48.4317 50.8762 49.502 49.9571C50.4397 49.1709 51.3193 48.3179 52.1338 47.4047C52.3106 47.2422 52.5003 47.0942 52.701 46.9623L52.8371 47.0417C52.8055 47.3048 52.7446 47.5635 52.6556 47.8131Z"
		fill="white"
	/>
	<path
		d="M106.617 21.719L106.277 21.5035C105.471 21.3743 104.653 21.3287 103.838 21.3673C103.392 21.3916 102.945 21.3916 102.499 21.3673H102.045C101.155 21.3182 100.262 21.3601 99.3795 21.4921H98.7102C97.9161 21.6396 97.848 21.9345 97.8026 22.445C97.7226 23.1309 97.7226 23.8238 97.8026 24.5096V24.7706C97.8026 25.213 97.8026 25.905 97.8026 26.5062C97.8026 27.1074 97.8026 27.8675 97.8026 28.3212C97.7571 29.2206 97.7571 30.1217 97.8026 31.0211V33.6303C97.8026 34.9235 97.8026 37.1015 97.8026 37.6234V45.5642C97.7119 47.0162 97.7119 47.4473 97.7119 48.0939V50.2153C97.6297 51.3045 97.6601 52.3993 97.8026 53.4824L97.8934 53.6298C98.1543 54.0042 98.2904 54.2084 98.7102 54.2084C99.5246 54.2837 100.343 54.314 101.16 54.2991H101.387C102.057 54.2991 102.93 54.2991 103.554 54.2991C103.838 54.2991 104.11 54.2991 104.371 54.2991C104.748 54.2631 105.128 54.2631 105.505 54.2991C105.905 54.3938 106.326 54.2927 106.64 54.0269C106.904 53.7126 107.005 53.2924 106.912 52.8925C106.912 52.1891 106.606 52.0984 106.186 52.019H105.925L101.626 52.1438L100.071 51.8828C100.071 50.7484 100.071 50.2606 100.071 49.2397C100.071 49.0695 100.071 48.888 100.071 48.6952C100.071 48.5023 100.071 48.3095 100.071 48.1166C100.077 48.0411 100.077 47.9653 100.071 47.8897C100.066 47.8332 100.066 47.7762 100.071 47.7196V47.4246C100.208 45.2806 100.208 42.9551 100.208 40.9018V40.017C100.866 40.017 101.762 40.017 102.476 39.9262H103.123H104.167C104.45 39.9423 104.727 39.8384 104.93 39.6398C105.133 39.4412 105.243 39.1663 105.233 38.8826C105.292 38.5381 105.214 38.1843 105.017 37.8956C104.863 37.7324 104.652 37.6349 104.428 37.6234C104.065 37.6234 102.964 37.6234 102.34 37.6234H102.147H102.079H100.389H100.071C100.071 37.2263 100.071 36.7612 100.071 36.2507V32.961C100.077 32.3132 100.047 31.6656 99.9807 31.0211C99.9443 30.5832 99.9443 30.1431 99.9807 29.7052V29.5464C99.9807 29.07 99.9807 28.412 99.9807 27.9355V25.5306C99.9617 25.3496 99.9617 25.1671 99.9807 24.9861C100.003 24.6461 100.003 24.3051 99.9807 23.9651V23.7496L104.575 23.6248L105.539 23.7156H105.732C106.549 23.6475 106.685 23.466 106.776 23.0916C106.771 23.035 106.771 22.9781 106.776 22.9215C107.032 22.5377 106.965 22.023 106.617 21.719Z"
		fill="#353A4A"
	/>
	<path
		d="M87.514 48.5992V47.2833C87.514 46.5913 87.514 45.6044 87.514 44.9464L87.3892 40.6017L87.2417 34.3738V31.447V29.5752C87.2417 28.1345 87.2417 26.467 87.1623 25.1851L86.9581 22.3491C86.822 21.3735 86.2321 21.3508 85.8237 21.3508C85.5388 21.3582 85.2703 21.4857 85.0845 21.7018C84.8986 21.9178 84.8128 22.2024 84.8481 22.4852C84.8481 23.6877 84.8481 25.5027 84.8481 26.83C84.8481 27.7035 84.8481 29.4505 84.9275 30.3466V31.1747C84.9275 31.447 84.9275 31.7306 84.9275 32.0142C84.9275 32.2978 84.9275 32.5814 84.9275 32.865C84.9275 33.1486 84.9275 33.4436 84.9275 33.7385C84.9275 34.3171 84.9275 34.8729 84.9275 35.3947L85.0636 37.1644V38.9114C85.0636 40.613 85.1204 42.7911 85.143 43.6419C85.143 44.0049 85.143 44.4019 85.143 44.7763C85.143 45.1506 85.143 45.5817 85.143 45.9787V46.2283L84.4397 43.8347C84.3015 43.4634 84.1841 43.0847 84.0881 42.7003L83.9292 42.1331C83.7821 41.6973 83.6572 41.2543 83.5549 40.8059L83.3847 40.2046L82.999 39.0702L82.0915 35.667L80.7529 31.1294C80.566 30.6319 80.4069 30.1244 80.2764 29.6093C80.1063 29.0307 79.9361 28.4749 79.7546 27.9984C79.7254 27.8563 79.7065 27.7122 79.6979 27.5673C79.6979 27.4426 79.6979 27.3178 79.6979 27.227C79.6236 26.6408 79.4788 26.0656 79.2668 25.5141L79.0059 24.6973L78.8131 24.1641C78.6878 23.7926 78.5855 23.4138 78.5068 23.0297C78.4387 22.7915 78.382 22.5306 78.3026 22.2583C78.1824 21.6606 77.6112 21.2648 77.0094 21.3621C76.6577 21.4189 76.3174 22.2356 76.1472 22.7234C76.1472 23.1432 76.1472 23.7217 76.1472 24.1528V29.1669C76.102 29.7824 76.102 30.4004 76.1472 31.0159C76.142 31.0687 76.142 31.1219 76.1472 31.1747C76.1527 31.2351 76.1527 31.2959 76.1472 31.3563V31.5945C76.1229 31.9722 76.1229 32.3511 76.1472 32.7289C76.1472 32.831 76.1472 32.9444 76.1472 33.0579C76.1472 33.1713 76.1472 33.3074 76.1472 33.4095C76.1018 34.0364 76.1018 34.6658 76.1472 35.2926C76.1472 36.2909 76.2266 37.5615 76.2266 38.3328C76.2266 39.3425 76.2266 41.2369 76.2266 42.7117C76.2266 42.8818 76.2266 43.0747 76.2266 43.2675C76.2266 43.4604 76.2266 43.6646 76.2266 43.8461V46.1149C76.2266 46.3531 76.2266 46.6027 76.2266 46.8636C76.2266 47.3854 76.2266 47.9299 76.2266 48.4177V50.505L76.3514 53.4658C76.3628 54.0036 76.7896 54.4403 77.327 54.4641H77.4631C77.9938 54.4809 78.4651 54.1274 78.5975 53.6133V53.4431C78.5975 52.7625 78.5975 52.0478 78.5181 51.3104C78.4387 50.5731 78.5181 49.9151 78.5181 49.2345V46.7161C78.5181 46.5686 78.5181 46.4325 78.5181 46.2964C78.5181 46.1602 78.5181 46.0014 78.5181 45.854V44.9805C78.5181 44.8443 78.5181 44.7082 78.5181 44.5607C78.5181 44.4133 78.5181 44.2658 78.5181 44.107V39.3425C78.5578 38.6094 78.5578 37.8748 78.5181 37.1417V37.0283C78.5181 36.756 78.4387 35.8258 78.4387 35.1225V34.249C78.4387 34.0902 78.4387 33.92 78.4387 33.7385C78.4614 33.3607 78.4614 32.9819 78.4387 32.6041C78.4436 32.5286 78.4436 32.4528 78.4387 32.3772C78.4323 32.2639 78.4323 32.1502 78.4387 32.0369V31.7079V31.8214L78.6542 32.502C78.6633 32.5645 78.6957 32.6213 78.745 32.6608L78.8244 33.0465L79.1307 33.954C79.2101 34.2717 79.3122 34.5893 79.403 34.9069C79.4937 35.2246 79.5958 35.5762 79.6866 35.9166C79.7866 36.2272 79.8587 36.5461 79.9021 36.8695H80.1517H80.0382C80.1176 37.0737 80.1857 37.3573 80.2764 37.6635C80.3672 37.9698 80.526 38.5711 80.6395 38.8887V38.9795C80.6668 39.2665 80.7862 39.5371 80.9798 39.7509L81.1046 40.25L81.2747 40.8172L82.5679 45.7632L82.8289 46.8182C82.9083 47.0337 82.9877 47.272 83.0898 47.5215C83.2486 47.9639 83.4414 48.4858 83.691 49.2004C83.7735 49.5153 83.872 49.8258 83.986 50.1307C84.0352 50.3604 84.1074 50.5847 84.2015 50.8L84.2922 51.0722L84.5532 51.8776C84.6154 52.3182 84.7336 52.7489 84.9048 53.1595C85.0523 53.5566 85.5741 54.2939 86.0392 54.2939C86.8787 54.2939 87.2417 53.8515 87.3098 53.4772C87.4801 52.3016 87.556 51.1142 87.5366 49.9265C87.5366 49.7223 87.5366 49.5067 87.5366 49.2799C87.5366 49.053 87.514 48.8374 87.514 48.5992Z"
		fill="#353A4A"
	/>
	<path
		fill-rule="evenodd"
		clip-rule="evenodd"
		d="M60.047 51.9807C53.5136 49.5612 49.3352 49.2026 42.6523 46.112C41.4267 49.4365 34.1176 69.1492 32.3125 63.0455C31.5608 60.5043 31.4408 51.7872 30.2666 48.5506C0.312259 42.9432 9.65793 45.5856 28.6551 35.6939C26.4085 31.302 18.4251 17.0058 19.724 15.357C21.7844 12.7443 34.9266 23.4283 39.318 24.6312C63.1703 6.87022 49.2291 26.5792 47.5262 33.0427C58.2397 44.8824 53.661 39.1615 61.8837 50.4122L61.8929 50.4214L61.9021 50.4359L61.9113 50.4451L61.9205 50.4597L61.9297 50.4689L61.9283 50.4702L61.9624 50.5203L61.9715 50.5348L61.9794 50.5427L61.9768 50.5454L61.9938 50.5704L62.003 50.5849L62.0095 50.5968L62.0239 50.6219L62.0317 50.6377L62.0382 50.6496L62.0447 50.6642L62.0513 50.676L62.0578 50.6906L62.0616 50.7025L62.0681 50.717L62.0733 50.7302L62.0798 50.7448L62.0837 50.7567L62.0889 50.7725L62.0928 50.7844L62.0979 50.8003L62.1018 50.8122L62.107 50.8281L62.1109 50.84L62.116 50.8558L62.1199 50.8678L62.1238 50.885L62.1276 50.8969L62.1315 50.9141L62.134 50.9247L62.1365 50.9406L62.1378 50.9525L62.1416 50.9697L62.1428 50.9816L62.1453 50.9975L62.1466 51.0094L62.149 51.0386L62.1515 51.0545L62.1527 51.0664C62.1551 51.0956 62.1562 51.1234 62.156 51.1526L62.1572 51.1698L62.157 51.1831L62.1569 51.199L62.1581 51.2109L62.158 51.2268L62.1566 51.2388L62.1551 51.256L62.1537 51.268L62.1522 51.2852L62.1508 51.2972L62.1493 51.3144L62.1479 51.3264L62.1437 51.3543L62.1422 51.3715L62.1394 51.3821L62.1367 51.3981L62.1352 51.41L62.1284 51.4379L62.1242 51.4552L62.1215 51.4658L62.1174 51.4831L62.1146 51.4937L62.1105 51.511L62.1064 51.523L62.101 51.5389L62.0969 51.5509L62.0915 51.5669L62.0874 51.5788L62.082 51.5948L62.0779 51.6068L62.0711 51.6214L62.067 51.6334L62.0603 51.648L62.0562 51.66L62.0427 51.6866L62.036 51.7013L62.0306 51.7119L62.0225 51.7279L62.0171 51.7386L62.009 51.7546L62.0023 51.7666L61.9955 51.7812L61.9888 51.7932L61.9794 51.8079L61.9726 51.8199L61.9632 51.8345L61.9552 51.8425L61.9471 51.8585L61.9378 51.8679C61.923 51.8932 61.9042 51.9172 61.8854 51.9413L61.864 51.9627L61.8546 51.9773L61.7249 52.1071L61.7115 52.1151L61.6995 52.1272L61.6875 52.1339L61.6755 52.1459L61.6635 52.1527L61.6141 52.1862L61.5995 52.1957L61.5901 52.205L61.5635 52.2185L61.5488 52.2279L61.5381 52.2333L61.5368 52.2346L61.5115 52.2468L61.4955 52.2549L61.4849 52.2603L61.4702 52.267L61.4569 52.2724L61.4409 52.2805L61.4303 52.2859L61.4143 52.294L61.4023 52.2981L61.3864 52.3035L61.3744 52.3076L61.3584 52.3131L61.3465 52.3171L61.3305 52.3226L61.3185 52.3267L61.3026 52.3321L61.2906 52.3362L61.2747 52.3416L61.2627 52.3457L61.2467 52.3511L61.2361 52.3539L61.2188 52.358L61.2082 52.3607L61.1909 52.3649L61.1803 52.3676L61.1643 52.3704L61.1511 52.3732L61.1351 52.376L61.1232 52.3774L61.0953 52.3816L61.078 52.3831L61.0661 52.3845C61.0369 52.3874 61.0077 52.3903 60.9798 52.3892L60.9626 52.3907L60.952 52.3908L60.9334 52.3909L60.9215 52.3897L60.9029 52.3898L60.891 52.3886L60.8737 52.3901L60.8618 52.3889L60.8446 52.3877L60.8327 52.3865L60.8154 52.3853L60.8035 52.3841L60.7757 52.3803L60.7598 52.3778L60.7479 52.3766L60.732 52.374L60.7214 52.3715L60.6923 52.3664L60.6764 52.3639L60.6645 52.36L60.6486 52.3549L60.6367 52.351L60.6208 52.3458L60.6089 52.3419L60.593 52.3368L60.5811 52.3329L60.5653 52.3277L60.5534 52.3238L60.5375 52.3187L60.5256 52.3148L60.5097 52.3096L60.4992 52.3044L60.482 52.2979L60.4714 52.2927L60.445 52.2797L60.4292 52.2718L60.4186 52.2666L60.4041 52.2601L60.3922 52.2536L60.3763 52.2458L60.3658 52.2405L60.3513 52.2314L60.3407 52.2262L60.3262 52.217L60.3156 52.2118L60.3011 52.2026L60.2919 52.1934L60.276 52.1856L60.2668 52.1764C60.2404 52.1607 60.218 52.1437 60.1943 52.1253L60.1825 52.1135L60.1706 52.1069L60.1285 52.0648L60.114 52.0557L60.0496 51.9912L60.0431 51.9794L60.047 51.9807ZM57.3212 48.5888C52.9724 43.2904 45.167 33.9764 45.1228 33.868C44.9072 33.3287 48.8039 24.0141 50.2523 20.2117C47.7753 21.4341 43.8021 24.2738 42.736 25.0347C35.4473 30.243 33.2682 22.5724 23.1047 18.1466C25.6863 23.0687 30.2715 33.3648 31.2023 35.4164C32.5629 38.414 20.9282 40.9563 15.5689 43.512C32.7134 45.8777 33.6266 43.5863 34.4584 59.2531C37.0195 54.0356 40.7564 44.3258 41.164 43.955C42.1208 43.0876 51.4731 46.3678 57.3212 48.5888Z"
		fill="#353A4A"
	/>
	<path
		fill-rule="evenodd"
		clip-rule="evenodd"
		d="M57.3212 48.5888C52.9724 43.2904 45.167 33.9764 45.1228 33.868C44.9072 33.3288 48.8039 24.0141 50.2523 20.2117C47.7753 21.4341 43.8021 24.2738 42.736 25.0347C35.4473 30.2431 33.2682 22.5724 23.1047 18.1466C25.6863 23.0687 30.2715 33.3648 31.2023 35.4164C32.5629 38.414 20.9282 40.9563 15.5689 43.512C32.7134 45.8777 33.6266 43.5863 34.4584 59.2532C37.0195 54.0357 40.7564 44.3258 41.164 43.955C42.1208 43.0876 51.4731 46.3678 57.3212 48.5888Z"
		fill="#4FCC5C"
	/>
	<path
		d="M124.325 40.0367C124.325 38.2444 124.325 34.8525 124.246 32.7879C124.246 29.2939 124.166 25.8907 124.178 22.5782C124.179 22.2588 124.046 21.9536 123.81 21.7377C123.575 21.5218 123.259 21.4151 122.941 21.4438C122.666 21.4129 122.39 21.4994 122.181 21.682C121.954 21.9798 121.849 22.353 121.886 22.7257V22.7938C121.886 24.5634 121.886 27.5242 121.886 29.362C121.886 30.3149 121.886 31.3245 121.886 32.2434C121.886 33.1622 121.886 34.671 121.966 35.4424V37.9948C121.966 38.562 121.966 39.2994 121.966 40.3544V41.693C121.966 42.2942 121.966 42.9635 122.056 43.4967C122.147 44.0298 122.136 44.3134 122.136 44.5176V45.0621L122 46.1285C122.067 47.877 121.765 49.6202 121.115 51.2446L120.956 51.4375C120.54 51.7758 120.044 52.0023 119.515 52.0955C119.246 52.1196 118.975 52.0686 118.733 51.948C118.379 51.5504 118.084 51.1032 117.859 50.6207L117.564 49.9514L117.428 49.3729L117.269 48.8284C117.275 48.7832 117.275 48.7374 117.269 48.6922C117.262 48.6395 117.262 48.5861 117.269 48.5334C117.117 47.2119 117.048 45.8819 117.065 44.5517V41.5682C117.065 41.3186 117.065 41.0804 117.065 40.8762C117.065 40.672 117.065 40.5132 117.065 40.3544V38.7889C117.065 38.596 117.065 38.3918 117.065 38.199C117.065 38.0061 117.065 37.8133 117.065 37.6204V35.3516C117.065 34.9206 117.065 34.4101 117.065 33.9109C117.065 33.4118 117.065 33.0374 117.065 32.6971V31.7556C117.065 31.0636 117.065 30.3489 117.065 29.793V22.669C117.065 21.8295 116.793 21.4438 116.158 21.3871C115.831 21.3039 115.484 21.3528 115.193 21.5232C114.925 21.7778 114.77 22.1291 114.762 22.4988C114.762 23.5652 114.762 24.7676 114.683 25.8113C114.683 26.3785 114.683 26.9457 114.683 27.4789C114.683 28.9195 114.683 30.2922 114.683 31.7442V33.5252L114.774 35.3063C114.78 35.4007 114.78 35.4954 114.774 35.5899C114.768 35.6956 114.768 35.8017 114.774 35.9075V37.0419C114.774 37.1667 114.774 37.3028 114.774 37.4162C114.779 37.4804 114.779 37.5449 114.774 37.6091V38.1763C114.796 38.5125 114.796 38.8498 114.774 39.1859C114.774 39.946 114.774 40.9896 114.774 41.7156C114.774 42.1694 114.774 42.6459 114.774 43.111C114.774 43.3378 114.774 43.5534 114.774 43.7689V44.7672C114.722 46.5475 114.893 48.3273 115.284 50.0649C115.54 51.0227 115.946 51.934 116.487 52.7648L116.611 52.9349C116.854 53.3035 117.144 53.639 117.473 53.9332C118.118 54.3637 118.866 54.6143 119.64 54.6592C120.333 54.6503 121.011 54.4669 121.614 54.126C122.477 53.5731 123.166 52.7863 123.599 51.8572C124.352 49.7207 124.698 47.4622 124.62 45.1983V45.1302C124.62 44.2 124.62 43.1336 124.62 42.1921C124.325 41.398 124.325 40.6947 124.325 40.0367Z"
		fill="#353A4A"
	/>
</svg>
