<svg width="240" height="240" viewBox="0 0 240 240" fill="none" xmlns="http://www.w3.org/2000/svg">
<g clip-path="url(#clip0_1949_10969)">
<path d="M119.998 239.996C186.271 239.996 239.996 186.271 239.996 119.998C239.996 53.7249 186.271 0 119.998 0C53.7249 0 0 53.7249 0 119.998C0 186.271 53.7249 239.996 119.998 239.996Z" fill="black" fill-opacity="0.05"/>
<mask id="mask0_1949_10969" style="mask-type:alpha" maskUnits="userSpaceOnUse" x="0" y="0" width="240" height="240">
<path d="M119.998 239.996C186.271 239.996 239.996 186.271 239.996 119.998C239.996 53.7249 186.271 0 119.998 0C53.7249 0 0 53.7249 0 119.998C0 186.271 53.7249 239.996 119.998 239.996Z" fill="black"/>
</mask>
<g mask="url(#mask0_1949_10969)">
<path d="M58.9337 67.1548H173.107C178.069 67.1541 182.902 68.7414 186.899 71.6844C191.67 75.1854 197.169 81.8444 197.143 88.5161C197.114 97.1225 197.143 169.25 197.143 169.25H43.0502V92.6732C43.0502 92.6732 41.268 75.9685 58.9337 67.1548Z" fill="#D7D7D7"/>
<path d="M43.0206 169.25H80.2443V92.6733C80.2443 74.5024 73.2476 66.8448 61.194 67.0024C47.2954 67.1841 43.0249 76.0024 43.0249 92.6733L43.0206 169.25Z" fill="#333333"/>
<path d="M132.17 244.5C127.42 245.77 124.55 247.04 109.535 248.572V169.25H132.17V244.5Z" fill="#666666"/>
<path d="M118.247 99.4C123.056 99.4 126.955 95.5013 126.955 90.6921C126.955 85.8828 123.056 81.9841 118.247 81.9841C113.437 81.9841 109.539 85.8828 109.539 90.6921C109.539 95.5013 113.437 99.4 118.247 99.4Z" fill="#D7D7D7"/>
<path fill-rule="evenodd" clip-rule="evenodd" d="M121.972 86.6323L88.1564 124.974L112.21 156.939H121.972V86.6323Z" fill="white"/>
<path d="M80.2443 169.25H158.43L132.793 82.1196H80.2443V169.25Z" fill="#D7D7D7"/>
<path d="M103.338 85.5024C100.633 85.5015 97.9849 86.2764 95.7073 87.7352C93.4296 89.1941 91.6181 91.2756 90.4878 93.7329C89.3574 96.1903 88.9557 98.9202 89.3301 101.599C89.7045 104.278 90.8395 106.793 92.6003 108.846C94.3611 110.899 96.6739 112.404 99.2643 113.183C101.855 113.961 104.614 113.98 107.215 113.238C109.816 112.495 112.149 111.022 113.938 108.994C115.727 106.965 116.897 104.466 117.308 101.792L145.159 101.792L145.159 154.984C145.159 155.553 145.385 156.099 145.788 156.502C146.19 156.904 146.736 157.13 147.305 157.13L169.691 157.13C170.261 157.13 170.807 156.904 171.21 156.502C171.614 156.1 171.841 155.554 171.842 154.984L171.842 99.6417C171.841 99.0721 171.614 98.5262 171.21 98.1238C170.807 97.7214 170.261 97.4954 169.691 97.4954L117.295 97.4954C116.781 94.1603 115.092 91.1188 112.533 88.9196C109.974 86.7204 106.713 85.5084 103.338 85.5024Z" fill="#0A882F"/>
</g>
</g>
<defs>
<clipPath id="clip0_1949_10969">
<rect width="240" height="240" fill="white"/>
</clipPath>
</defs>
</svg>
