<svg width="200" height="200" viewBox="0 0 200 200" fill="none" xmlns="http://www.w3.org/2000/svg">
<g clip-path="url(#clip0_1949_10969)">
<path d="M99.9982 199.996C155.226 199.996 199.996 155.226 199.996 99.9982C199.996 44.7707 155.226 0 99.9982 0C44.7707 0 0 44.7707 0 99.9982C0 155.226 44.7707 199.996 99.9982 199.996Z" fill="black" fill-opacity="0.03"/>
<mask id="mask0_1949_10969" style="mask-type:alpha" maskUnits="userSpaceOnUse" x="0" y="0" width="200" height="200">
<path d="M99.9982 199.996C155.226 199.996 199.996 155.226 199.996 99.9982C199.996 44.7707 155.226 0 99.9982 0C44.7707 0 0 44.7707 0 99.9982C0 155.226 44.7707 199.996 99.9982 199.996Z" fill="black"/>
</mask>
<g mask="url(#mask0_1949_10969)">
<path d="M49.1114 55.9623H144.255C148.391 55.9618 152.419 57.2845 155.749 59.737C159.725 62.6545 164.307 68.2037 164.286 73.7634C164.261 80.9354 164.286 141.042 164.286 141.042H35.8752V77.2277C35.8752 77.2277 34.39 63.3071 49.1114 55.9623Z" fill="#D7D7D7"/>
<path d="M35.8506 141.042H66.8703V77.2277C66.8703 62.0853 61.0397 55.704 50.995 55.8353C39.4129 55.9867 35.8541 63.3353 35.8541 77.2277L35.8506 141.042Z" fill="#333333"/>
<path d="M110.142 203.75C106.184 204.808 103.792 205.867 91.2789 207.144V141.042H110.142V203.75Z" fill="#666666"/>
<path d="M86.1151 71.252C83.8611 71.2512 81.6542 71.897 79.7561 73.1127C77.858 74.3284 76.3485 76.063 75.4065 78.1108C74.4646 80.1585 74.1298 82.4335 74.4418 84.6659C74.7538 86.8982 75.6996 88.9942 77.1669 90.7052C78.6343 92.4162 80.5616 93.6704 82.7203 94.319C84.8789 94.9677 87.1784 94.9836 89.3458 94.3648C91.5132 93.746 93.4577 92.5185 94.9485 90.8279C96.4393 89.1374 97.4139 87.0546 97.7568 84.8268L120.966 84.8268L120.966 129.153C120.966 129.628 121.154 130.083 121.49 130.418C121.825 130.753 122.28 130.942 122.755 130.942L141.409 130.942C141.884 130.942 142.339 130.754 142.675 130.418C143.011 130.083 143.201 129.628 143.202 129.153L143.202 83.0347C143.201 82.5601 143.011 82.1051 142.675 81.7698C142.339 81.4345 141.884 81.2462 141.409 81.2462L97.7462 81.2462C97.3179 78.4669 95.9104 75.9323 93.7776 74.0997C91.6448 72.267 88.9271 71.257 86.1151 71.252V71.252Z" fill="#0A882F"/>
</g>
</g>
<defs>
<clipPath id="clip0_1949_10969">
<rect width="200" height="200" fill="white"/>
</clipPath>
</defs>
</svg>
