<svg width="156" height="156" viewBox="0 0 156 156" fill="none" xmlns="http://www.w3.org/2000/svg">
<g clip-path="url(#clip0_1068_17725)">
<path d="M77.9986 155.997C121.076 155.997 155.997 121.076 155.997 77.9986C155.997 34.9212 121.076 0 77.9986 0C34.9212 0 0 34.9212 0 77.9986C0 121.076 34.9212 155.997 77.9986 155.997Z" fill="black" fill-opacity="0.03"/>
<mask id="mask0_1068_17725" style="mask-type:alpha" maskUnits="userSpaceOnUse" x="0" y="0" width="156" height="156">
<path d="M77.9986 155.997C121.076 155.997 155.997 121.076 155.997 77.9986C155.997 34.9212 121.076 0 77.9986 0C34.9212 0 0 34.9212 0 77.9986C0 121.076 34.9212 155.997 77.9986 155.997Z" fill="black"/>
</mask>
<g mask="url(#mask0_1068_17725)">
<path d="M66.282 60.8088H450.345C452.618 60.8088 454.461 62.6512 454.461 64.9241V83.1098C454.461 85.3827 452.618 87.2251 450.345 87.2251H66.282C64.0092 87.2251 62.1667 85.3827 62.1667 83.1098V64.9241C62.1667 62.6512 64.0092 60.8088 66.282 60.8088Z" fill="white" stroke="#D7D7D7" stroke-width="0.833333"/>
<path d="M77.54 77.6571C77.2766 77.6571 77.0686 77.5739 76.916 77.4075C76.7774 77.2273 76.708 76.9915 76.708 76.7003C76.708 76.0625 76.8259 75.4662 77.0616 74.9115C77.3112 74.3569 77.7272 73.7537 78.3096 73.1019C78.7534 72.6166 79.0584 72.2006 79.2248 71.8539C79.4051 71.5073 79.4952 71.1398 79.4952 70.7515C79.4952 70.2939 79.3288 69.9334 78.996 69.6699C78.6632 69.4065 78.1918 69.2747 77.5816 69.2747C77.027 69.2747 76.5208 69.351 76.0632 69.5035C75.6195 69.6422 75.1688 69.8433 74.7112 70.1067C74.3368 70.3286 74.004 70.4049 73.7128 70.3355C73.4355 70.2523 73.2344 70.0859 73.1096 69.8363C72.9848 69.5867 72.964 69.3094 73.0472 69.0043C73.1304 68.6993 73.3523 68.4289 73.7128 68.1931C74.2814 67.8187 74.9331 67.5345 75.668 67.3403C76.403 67.1323 77.0963 67.0283 77.748 67.0283C78.6216 67.0283 79.3843 67.1739 80.036 67.4651C80.7016 67.7563 81.2147 68.1585 81.5752 68.6715C81.9496 69.1846 82.1368 69.7878 82.1368 70.4811C82.1368 71.119 81.9912 71.7153 81.7 72.2699C81.4227 72.8246 80.9235 73.4278 80.2024 74.0795C79.5507 74.6758 79.1 75.1889 78.8504 75.6187C78.6008 76.0486 78.4414 76.5062 78.372 76.9915C78.3582 77.1857 78.275 77.3451 78.1224 77.4699C77.9838 77.5947 77.7896 77.6571 77.54 77.6571ZM77.4984 82.0043C77.027 82.0043 76.6456 81.8587 76.3544 81.5675C76.0771 81.2763 75.9384 80.9019 75.9384 80.4443C75.9384 80.0006 76.0771 79.6401 76.3544 79.3627C76.6456 79.0715 77.027 78.9259 77.4984 78.9259C77.9838 78.9259 78.3582 79.0715 78.6216 79.3627C78.899 79.6401 79.0376 80.0006 79.0376 80.4443C79.0376 80.9019 78.899 81.2763 78.6216 81.5675C78.3582 81.8587 77.9838 82.0043 77.4984 82.0043Z" fill="#333333"/>
<path opacity="0.7" d="M90.1106 101.882H65.585C56.7082 94.2845 59.1929 93.4287 51.103 87.4026V62.8743C58.1638 54.6826 57.8253 54.6826 65.585 48.395H90.1106C99.5625 55.6291 98.7068 57.1728 104.593 62.8743V87.4026C96.8989 97.1132 97.3337 95.6548 90.1106 101.882Z" fill="white"/>
<path d="M61.5703 105.197C59.2149 104.146 55.5304 103.951 53.5135 104.515C51.4965 105.079 44.1716 105.943 43.0104 106.892C41.8492 107.842 29.6565 120.062 27.0507 122.808C24.4449 125.554 33.1401 126.853 33.1401 126.853L52.2394 119.385" fill="#E2A88A"/>
<path d="M46.7252 117.514L49.2017 119.531C49.2976 119.611 49.4084 119.671 49.5277 119.708C49.647 119.745 49.7724 119.758 49.8967 119.746C50.021 119.734 50.1417 119.698 50.252 119.639C50.3622 119.581 50.4597 119.501 50.539 119.404L65.8052 100.773L61.8593 97.5425L46.5876 116.168C46.5079 116.266 46.4483 116.378 46.4121 116.498C46.376 116.619 46.3642 116.745 46.3772 116.871C46.3903 116.996 46.428 117.117 46.4882 117.227C46.5484 117.338 46.6299 117.435 46.7279 117.514" fill="#666666"/>
<path d="M50.2224 68.8647L53.0126 69.5251C51.902 74.3296 52.2303 79.3548 53.9565 83.974C55.4237 87.9286 57.8448 91.4596 61.0049 94.2534C64.1649 97.0472 67.9661 99.0173 72.0706 99.9887C76.7963 101.125 81.7497 100.87 86.334 99.2559C90.9183 97.6413 94.938 94.7357 97.9088 90.889C100.493 87.5038 102.177 83.5186 102.802 79.306C103.428 75.0934 102.975 70.7909 101.486 66.8009C100.02 62.8458 97.5992 59.3145 94.4389 56.5209C91.2786 53.7274 87.4768 51.7583 83.3717 50.789C78.6485 49.6552 73.6982 49.9109 69.117 51.5254C64.5358 53.1398 60.5189 56.0442 57.5501 59.8887C55.3644 62.7357 53.8185 66.0207 53.0181 69.5195L50.228 68.8564L47.435 68.1932C48.5804 63.1938 50.9636 58.5623 54.3658 54.724C57.7679 50.8858 62.0799 47.9639 66.9058 46.2267C72.5993 44.1677 78.7713 43.8214 84.6595 45.2306C89.6906 46.4225 94.3496 48.8382 98.2229 52.2631C102.096 55.6881 105.064 60.0164 106.863 64.8637C108.976 70.5287 109.378 76.6901 108.018 82.5817C106.876 87.5833 104.493 92.2172 101.091 96.0572C97.6886 99.8971 93.3752 102.82 88.5476 104.556C82.8541 106.616 76.682 106.962 70.7939 105.553C65.7636 104.361 61.1052 101.946 57.232 98.5219C53.3589 95.098 50.3907 90.7711 48.5907 85.925C46.4764 80.2602 46.0726 74.0992 47.4295 68.207L50.2224 68.8647Z" fill="#666666"/>
<path d="M51.5571 112.679C51.5571 112.679 53.8657 112.022 54.8425 111.188C55.8194 110.354 61.9776 103.921 64.5944 107.572C67.2113 111.224 59.1406 115.406 59.1406 115.406C59.1406 115.406 54.1876 119.63 53.3126 120.695C52.4376 121.76 49.331 126.809 46.062 127.434C42.793 128.058 40.2009 126.369 36.654 128.917L32.0615 119.751C32.0615 119.751 46.8324 105.489 51.5571 112.679Z" fill="#E2A88A"/>
<path d="M48.4915 122.027C46.802 123.141 39.8017 129.976 36.2273 136.685C32.9611 133.818 25.771 127.728 25.771 127.728C25.771 127.728 33.1372 119.25 36.3374 116.419" fill="#E2A88A"/>
<path d="M1.94995 146.885C7.87153 140.765 28.3164 119.847 28.3164 119.847L43.1754 131.267L17.9701 159.207C12.3402 156.001 6.36912 151.678 1.94995 146.885Z" fill="#CC0000"/>
</g>
</g>
<defs>
<clipPath id="clip0_1068_17725">
<rect width="156" height="156" fill="white"/>
</clipPath>
</defs>
</svg>
