<svg id="Ebene_1" data-name="Ebene 1" xmlns="http://www.w3.org/2000/svg" xmlns:xlink="http://www.w3.org/1999/xlink" viewBox="0 0 240 240"><defs><style>.cls-1,.cls-10{fill:#fff;}.cls-1,.cls-7,.cls-8{fill-rule:evenodd;}.cls-11,.cls-2,.cls-3{fill:#3f88c5;}.cls-2{opacity:0.2;}.cls-11,.cls-3{opacity:0.2;}.cls-3{isolation:isolate;}.cls-4{fill:#353a4a;}.cls-5{fill:#4c505e;}.cls-6{mask:url(#mask);}.cls-7{fill:#cbdee4;}.cls-8{fill:#445363;}.cls-9{fill:#f88;}.cls-12{mask:url(#mask-3);}</style><mask id="mask" x="-10.11" y="-5.29" width="259.34" height="261.73" maskUnits="userSpaceOnUse"><g id="mask-16"><path id="path-15" class="cls-1" d="M249.22,125.57c0-72.28-58.05-130.86-129.66-130.86S-10.11,53.29-10.11,125.57,47.94,256.43,119.56,256.43,249.22,197.84,249.22,125.57Z"/></g></mask><mask id="mask-3" x="-10.41" y="-6.78" width="261.02" height="261.02" maskUnits="userSpaceOnUse"><g id="mask-16-3" data-name="mask-16"><path id="path-15-3" data-name="path-15" class="cls-1" d="M250.61,123.73A130.51,130.51,0,1,0,120.1,254.24,130.51,130.51,0,0,0,250.61,123.73Z"/></g></mask></defs><title>_</title><path class="cls-2" d="M58.39,36.71l-.09.34c-.13.62-.28,1.23-.45,1.85a25.9,25.9,0,0,1-2.48,6.21,16.31,16.31,0,0,1-3.89,4.72,12.3,12.3,0,0,1-8.92,2.73,9,9,0,0,1-2.66-.73,9.69,9.69,0,0,1-1.12-.61l-1.74-1L36.41,53l.8.52a11.92,11.92,0,0,0,3,1.43l.25.07.83.2.43.07c.27,0,.54.09.78.11.41,0,.83.06,1.25.06A14.81,14.81,0,0,0,47.15,55a15.36,15.36,0,0,0,4.72-2,16.85,16.85,0,0,0,3.8-3.39,23,23,0,0,0,3.49-5.81l.09-.23c.08-.18.16-.36.21-.51.29-.75.57-1.56.88-2.58s.53-2,.71-3l0-.23Z"/><path class="cls-2" d="M191.43,119.92H188.1l-12.15,0q-8.62,0-17.27-.06c-3.35,0-6.7,0-10.06.06l-11.07,0a2.77,2.77,0,0,1-.48-.11.94.94,0,0,0-.28-.06h-5.21c-1.57,0-3.14.06-4.7.05a3.77,3.77,0,0,1-2.24-.68,2,2,0,0,1-.74-1.83c.07-.34.19-.68.29-1a.29.29,0,0,1,.33-.22H129l4.76,0c2.49,0,5,0,7.47.06l6.16.06,6.07.06,6.1.06,6.21.06c.68,0,1.35.06,2,.06l8.25-.06,7.38-.06,8.63-.06,8-.06,6.43,0a1,1,0,0,1,.51.12c.85.51,1.71,1,2.54,1.57a1.7,1.7,0,0,1,.54.62.59.59,0,0,1-.36.93,5,5,0,0,1-1.41.31c-1.74.06-3.49.07-5.23.07-2,0-4.09,0-6.13-.05C195,120.17,193,119.76,191.43,119.92Z"/><path class="cls-3" d="M62.5,23.44a128.08,128.08,0,0,0-3.07-12.57l-.32-1.08-1,.53L56.86,11l-.65.36.2.71c.43,1.46,1.08,3.76,1.72,6.39.5,2.07.9,3.93,1.18,5.52a31.48,31.48,0,0,1,.46,3.46,1.34,1.34,0,0,0-.17.31,1.65,1.65,0,0,0-.09.33l-3,1.2h3.26l0,0a1.7,1.7,0,0,0,.5.5,1.8,1.8,0,0,0,.93.27h0a2.28,2.28,0,0,0,.44,0,1.82,1.82,0,0,0,.86-.52,1.76,1.76,0,0,0,.45-.85A1.92,1.92,0,0,0,63,28.1,27.83,27.83,0,0,0,62.5,23.44Z"/><path class="cls-2" d="M205.43,172.94a33.1,33.1,0,0,0-2.27-7.66,78.4,78.4,0,0,0-4.28-8.32l-.61-1.06a1.85,1.85,0,0,0-1.73-.93,1.55,1.55,0,0,0-1.32.8,1.58,1.58,0,0,0,0,1.56l.07.15c.05.1.1.2.16.3l.51.88a72.92,72.92,0,0,1,4.15,8.08c1.49,3.56,1.59,9.6,1.46,11.41s-2.39,9-3.47,10.63c-.59.89-1.2,1.77-1.82,2.66s-1.16,1.67-1.73,2.53l-.84,1.28c-.28.41-.58.82-.88,1.22-.58.77-1.21,1.56-1.9,2.41-1.92,2.34-3.72,4.35-5.51,6.17-.48.49-1,1-1.53,1.49l-.16.15a31.42,31.42,0,0,1-3.62,2.13c-.51.28-.93.5-1.15.64l-.41.29,0,.46a1.38,1.38,0,0,0,.7,1.12l.07.06.14.65.81,0,.31,0h.06a1.57,1.57,0,0,0,.33,0,9.86,9.86,0,0,0,2.79-1.24,21.17,21.17,0,0,0,2.71-2c.49-.43.94-.89,1.39-1.36l.76-.78c1.67-1.76,3.32-3.63,5-5.72.94-1.16,1.69-2.11,2.35-3l.58-.82.53-.8c.33-.51.67-1,1-1.51l1-1.47c1.08-1.54,2.19-3.14,3.19-4.83a24,24,0,0,0,3.05-7.37A22.13,22.13,0,0,0,205.43,172.94Z"/><path class="cls-2" d="M172,215.28l-.45.06a1.65,1.65,0,0,0-.46.08c-.49.18-1,.34-1.48.51l-1,.32-3,.95-1,.34c-.51.18-1.06.38-1.92.63a78.14,78.14,0,0,1-8.69,2c-1.47.27-2.95.52-4.44.76l-.23,0c-1.44.24-2.8.46-4.18.59a21.28,21.28,0,0,1-2.17.11,44.37,44.37,0,0,1-6.53-.63,64.53,64.53,0,0,1-8.73-1.66,32.2,32.2,0,0,1-8.09-3.64c-1.22-.74-2.44-1.57-3.75-2.53-.56-.42-1.16-.87-1.73-1.37-.17-.14-.32-.3-.48-.46l-.27-.27c-.24-.26-.48-.53-.71-.8a17.07,17.07,0,0,1-1.46-2.13,22.79,22.79,0,0,1-1.17-2.37,40.91,40.91,0,0,1-1.74-5.12l-.32-1.17a1.35,1.35,0,0,0-1.08-1,1.13,1.13,0,0,0-1.15.41,1.17,1.17,0,0,0-.23,1l0,.16c0,.1,0,.21.07.31l.28,1a45.87,45.87,0,0,0,1.69,5.06l.16.34a33.79,33.79,0,0,0,3,5.19l.06.08a17.18,17.18,0,0,0,3,2.79c1.14.85,2.18,1.58,3.18,2.23a39.52,39.52,0,0,0,6.92,3.67,38.25,38.25,0,0,0,7.55,2.06c1.32.24,2.66.44,3.79.6l.66.09c.86.13,1.72.25,2.62.36,1.12.06,2.27.1,3.54.11h0c2.08,0,4.19-.12,6.3-.33,1.94-.3,4-.64,6.14-1,1.4-.26,2.64-.51,3.83-.78l2.87-.79,1.27-.44,2.8-1,1.25-.53,2.71-1.16c.42-.2.84-.42,1.25-.63l.68-.35.35-.24a1.74,1.74,0,0,0,.38-.39l.32-.37Z"/><path class="cls-2" d="M121.94,175c0-.14,0-.28-.08-.41l-.08-.34-2.11-.07,0,.46a15.19,15.19,0,0,1-1.43,5.62,11.8,11.8,0,0,1-3,4.17,10.94,10.94,0,0,1-2.78,1.52,26.81,26.81,0,0,1-8.65,2l-.46,0,.13,2.31.46,0a29.48,29.48,0,0,0,9.4-2.13,11.52,11.52,0,0,0,7-6.88,17.65,17.65,0,0,0,1.62-6.11V175Z"/><path class="cls-2" d="M208.13,221.06a21.61,21.61,0,0,0-4.48-2.95,24.89,24.89,0,0,0-3.83-1.27l-.22-.05a32.94,32.94,0,0,1-7.77-2.87l-.29-.16-.25.22-.87,1.71,1.19.47c.84.33,1.7.64,2.55,1l2.72.94a71.23,71.23,0,0,1,7.58,2.93c.93.45,1.78.91,2.59,1.39l.3.19,1.18-1.18Z"/><path class="cls-2" d="M96.15,183.88a25,25,0,0,1-5.82-8.7,76.66,76.66,0,0,1-3.7-12l-3.48-14.25-1.67.4.24,1.81c.16,1.3.34,2.6.55,3.93l2.11,8.65a77.93,77.93,0,0,0,3.82,12.4,30.29,30.29,0,0,0,3.85,6.72,19.28,19.28,0,0,0,2.59,2.77l.43.39,1.08.81,0-.87c0-.56.06-1.11.11-1.66l0-.22Z"/><path class="cls-4" d="M78.69,152.94l-1.91,0c0-3.58-.08-7.28-1.4-10.59-1.39-3.51-4.23-5.95-7.23-6.23l.18-1.91c3.71.34,7.18,3.26,8.83,7.43C78.61,145.32,78.66,149.37,78.69,152.94Z"/><path class="cls-5" d="M76.75,153V153c0-3.57-.09-7.26-1.4-10.56-1.39-3.5-4.21-5.93-7.2-6.21h0l.18-2h0c3.72.34,7.2,3.27,8.86,7.45,1.45,3.66,1.5,7.71,1.53,11.28v0h0Zm-8.56-16.87c3,.29,5.82,2.73,7.22,6.24,1.31,3.31,1.36,7,1.4,10.57l1.85,0c0-3.56-.08-7.59-1.53-11.23-1.64-4.15-5.09-7.05-8.78-7.41Z"/><path class="cls-4" d="M79.64,155.18l-1.91,0c0-.9,0-1.8,0-2.7A254.5,254.5,0,0,0,75.88,126c-.44-4.19-.89-8.53-1.25-12.91l1.91-.15c.36,4.35.81,8.68,1.25,12.86.64,6.15,1.27,12.08,1.61,18.1A33,33,0,0,1,91.9,127.1L93,128.68a31.37,31.37,0,0,0-13.32,23.86C79.66,153.42,79.66,154.3,79.64,155.18Z"/><path class="cls-5" d="M77.7,155.23v0c0-.89,0-1.8,0-2.7A254.69,254.69,0,0,0,75.85,126v-.13c-.44-4.15-.89-8.44-1.24-12.77v0h0l1.94-.16v0c.35,4.34.81,8.65,1.24,12.81l0,.27c.64,6.08,1.24,11.83,1.58,17.73a33,33,0,0,1,12.47-16.64h0l0,0,1.1,1.61,0,0a31.36,31.36,0,0,0-13.31,23.83c0,.89,0,1.78,0,2.64v0h0Zm-3-42.14c.35,4.32.8,8.6,1.24,12.74V126a254.31,254.31,0,0,1,1.86,26.53c0,.89,0,1.79,0,2.67l1.86,0c0-.85,0-1.73,0-2.61a31.42,31.42,0,0,1,13.31-23.86l-1-1.54a32.93,32.93,0,0,0-12.48,16.74l0,.14v-.15c-.34-6-1-11.75-1.59-17.89l0-.26c-.43-4.16-.88-8.46-1.23-12.78Z"/><path class="cls-1" d="M209.13,223.51c-3.87-2.33-20-8.17-20-8.17s12-11.56,16.79-19.65c7.39-12.5,8-25.58,1.9-37.83-4.37-8.72-11.83-13.43-21-13.26-11.88.21-24.79,9.06-30,20.58-4.53,9.93-5,20.13-1.32,29.5,3.15,8.06,9.32,15.38,17.55,21-21.07,11.67-45.1,9.49-57.53,1.2-5.08-3.4-9.42-11.19-11.33-19.6a34.53,34.53,0,0,0,8.31-.89c8.91-2,15-8.06,16.42-16.19,1.17-6.92-1.49-13.7-6.64-16.86-4.88-3-11-1.3-17,3s-9.23,11.5-9.65,20.79c-.08-.05-.61-.8-.69-.86-7.41-5.39-11.09-17.49-12.7-37l-8.54.7c1.83,22.27,7,35.85,16.49,42.76a24,24,0,0,0,5.53,3c1.82,11.69,7.77,22.75,15.34,27.8,20.06,13.38,50.29,8.77,68.55-2.36a9.53,9.53,0,0,1,4.14.41l19.55,7.92S212.84,225.74,209.13,223.51Zm-92.28-53.25S126,174.5,118.59,184c0,0-3.76,5.7-14.16,6.14l-1.49-4.45S105.17,167.07,116.85,170.26ZM181,210.71l-1.55.17S154.38,197.81,162,172.8c0,0,6.81-22.13,26.48-19.61,0,0,16.68-3.53,14.86,27.62C203.37,180.81,199.2,198.47,181,210.71Z"/><g class="cls-6"><path id="Fill-42" class="cls-7" d="M120.94,177.08c0-.13-.06-.26-.08-.39H121c0,.12,0,.25,0,.38"/></g><g class="cls-6"><path id="Fill-44" class="cls-8" d="M191.1,216.41l0-.06h0l-.05,0"/></g><path class="cls-9" d="M185.39,116.7h22.86c1.44,0,2.62-2.43,2.62-5.42V56.34c0-3-1.18-5.42-2.62-5.42H125.76c-1.45,0-2.63,2.43-2.63,5.42v54.94c0,3,1.18,5.42,2.63,5.42H131l-.7,10.78,8.63-10.78H180"/><path class="cls-10" d="M179.29,116.92c-1,.16-2.08.32-3.13.42s-2.32.17-3.48.24H139.32a.1.1,0,0,0,0,0l-.09.11-.42.52-1.68,2.11-3.37,4.21-2.62,3.28-1.53,1.91-.38.48s0,.05,0,0v-.23l0-.3.08-1.22.68-10.59,0-.3v-.05h-4a2.76,2.76,0,0,1-.78-.09,2.49,2.49,0,0,1-.75-.36,3.44,3.44,0,0,1-1-1,8.93,8.93,0,0,1-1.22-4.54V98.85l0-34V56.44a9.83,9.83,0,0,1,1-4.56,4.73,4.73,0,0,1,.77-1.09,2.76,2.76,0,0,1,1.4-.81l.46,0h1.85l16.9,0,33.81,0h29.58a4.16,4.16,0,0,1,.67,0,2.42,2.42,0,0,1,.87.29,3.58,3.58,0,0,1,1.12,1,7.22,7.22,0,0,1,1,2.28,10.84,10.84,0,0,1,.34,2.31c0,.8,0,1.44,0,2.16v51c0,2.26.31,5-1.39,7.56a3.89,3.89,0,0,1-.91.9,2.71,2.71,0,0,1-1.45.46H186.84c-.2,0-.4,0-.6,0a.9.9,0,0,1-.75-1.29,1.14,1.14,0,0,1,1.1-.7h21.74a1,1,0,0,0,.17-.07,2.29,2.29,0,0,0,.77-1,5.86,5.86,0,0,0,.5-1.48,15.43,15.43,0,0,0,.2-3.39V88.33l0-20.57V56.2a9.08,9.08,0,0,0-.09-1.17,6.9,6.9,0,0,0-.61-2.17,2.63,2.63,0,0,0-.55-.77,1.2,1.2,0,0,0-.26-.19l-.11,0c-.05,0,0,0-.14,0H205.6l-41.15,0-20.15,0H125.75s0,0-.08,0a1.12,1.12,0,0,0-.48.39,5,5,0,0,0-.82,1.89,9.41,9.41,0,0,0-.23,2.27V71.6l0,20.16v19.56a8.15,8.15,0,0,0,.67,3.35,2,2,0,0,0,.77.94.41.41,0,0,0,.12,0h6c.14,0,.38-.06.3.16l-.52,8.22v.16l0,0,.94-1.17,4.89-6.12.89-1.11c.07-.18.28-.08.42-.11h25.12l6.56,0H172c1.35,0,2.7.16,4,.28,1.13.11,2.25.28,3.37.43a3.23,3.23,0,0,1,.62.21v.14A3.93,3.93,0,0,1,179.29,116.92Z"/><path class="cls-4" d="M180,116.65a3.93,3.93,0,0,1-.72.27c-1,.16-2.08.32-3.13.42s-2.32.17-3.48.24H139.32a.1.1,0,0,0,0,0l-.09.11-.42.52-1.68,2.11-3.37,4.21-2.62,3.28-1.53,1.91-.38.48s0,.05,0,0v-.23l0-.3.08-1.22.68-10.59,0-.3v-.05h-4a2.76,2.76,0,0,1-.78-.09,2.49,2.49,0,0,1-.75-.36,3.44,3.44,0,0,1-1-1,8.93,8.93,0,0,1-1.22-4.54V98.85l0-34V56.44a9.83,9.83,0,0,1,1-4.56,4.73,4.73,0,0,1,.77-1.09,2.76,2.76,0,0,1,1.4-.81l.46,0h1.85l16.9,0,33.81,0h29.58a4.16,4.16,0,0,1,.67,0,2.42,2.42,0,0,1,.87.29,3.58,3.58,0,0,1,1.12,1,7.22,7.22,0,0,1,1,2.28,10.84,10.84,0,0,1,.34,2.31c0,.8,0,1.44,0,2.16v51c0,2.26.31,5-1.39,7.56a3.89,3.89,0,0,1-.91.9,2.71,2.71,0,0,1-1.45.46H186.84c-.2,0-.4,0-.6,0a.9.9,0,0,1-.75-1.29,1.14,1.14,0,0,1,1.1-.7h21.74a1,1,0,0,0,.17-.07,2.29,2.29,0,0,0,.77-1,5.86,5.86,0,0,0,.5-1.48,15.43,15.43,0,0,0,.2-3.39V88.33l0-20.57V56.2a9.08,9.08,0,0,0-.09-1.17,6.9,6.9,0,0,0-.61-2.17,2.63,2.63,0,0,0-.55-.77,1.2,1.2,0,0,0-.26-.19l-.11,0c-.05,0,0,0-.14,0H205.6l-41.15,0-20.15,0H125.75s0,0-.08,0a1.12,1.12,0,0,0-.48.39,5,5,0,0,0-.82,1.89,9.41,9.41,0,0,0-.23,2.27V71.6l0,20.16v19.56a8.15,8.15,0,0,0,.67,3.35,2,2,0,0,0,.77.94.41.41,0,0,0,.12,0h6c.14,0,.38-.06.3.16l-.52,8.22v.16l0,0,.94-1.17,4.89-6.12.89-1.11c.07-.18.28-.08.42-.11h25.12l6.56,0H172c1.35,0,2.7.16,4,.28,1.13.11,2.25.28,3.37.43a3.23,3.23,0,0,1,.62.21Z"/><path class="cls-10" d="M69.23,42c.08.09.15.18.23.26,7,8.08,8,38.11,4.71,60.87l9.15-.72c.24-26.48,2.14-55.89-6.81-66.25A27.67,27.67,0,0,0,71,31.26,58.43,58.43,0,0,0,67.6,6.59l-8,4.89M59.29,11a49.82,49.82,0,0,1,2.56,16.21,39.21,39.21,0,0,0-9.64-1.13c-10.6,0-19.13,5.31-22.81,14.24-3.14,7.61-1.89,16,3.1,21,4.74,4.7,12,5.48,19.88,2.14S66.32,52.48,69.23,42c0,0,2.27-8.38,1.88-14.46M60.84,37c-1.1,5.23-4.14,14.49-12.1,17.86-2.48,1-7.05,2.43-9.68-.18-2.26-2.23-2.7-6.78-1-10.8,1-2.55,4.54-8.48,14.18-8.47a28.83,28.83,0,0,1,8.72,1.23C60.89,36.76,60.87,36.88,60.84,37Z"/><path class="cls-10" d="M103.57,189.1A19.48,19.48,0,0,1,103,186a22.65,22.65,0,0,1,0-3.59l0-.33a26.2,26.2,0,0,1,.58-2.77,15.44,15.44,0,0,1,3.73-6.88,13.56,13.56,0,0,1,2.37-1.84,11.42,11.42,0,0,1,2.67-1.31,9.41,9.41,0,0,1,3-.57,7.09,7.09,0,0,1,3.12.66A6.45,6.45,0,0,1,121,171.4a9.29,9.29,0,0,1,1.33,2.79,12.12,12.12,0,0,1,.19,6,12.35,12.35,0,0,1-2.65,5.36,13.33,13.33,0,0,1-4.79,3.55,19.06,19.06,0,0,1-4.15,1.32,27.31,27.31,0,0,1-4.25.56c-.46,0-.92,0-1.38,0-.21,0-.42,0-.63,0a.89.89,0,0,1-.7-1.34,1.21,1.21,0,0,1,1.11-.64c.5,0,1,0,1.5,0a24.25,24.25,0,0,0,3.88-.51,17.3,17.3,0,0,0,3.68-1.14,11.28,11.28,0,0,0,4.8-3.84,10.35,10.35,0,0,0,1.86-5.78,8.36,8.36,0,0,0-1.71-5.49,4.57,4.57,0,0,0-1-.85,4.87,4.87,0,0,0-1.25-.52,5.85,5.85,0,0,0-2.79,0,9.89,9.89,0,0,0-2.79,1.1l-1.28.8-1.13,1a13,13,0,0,0-3,5.22,31.09,31.09,0,0,0-.72,3c-.24,1.27-.47,2.55-.6,3.86-.12,1.1-.25,2.2-.29,3.32a4.28,4.28,0,0,1-.13.64h-.14A3.52,3.52,0,0,1,103.57,189.1Z"/><path class="cls-4" d="M103.92,189.8a3.52,3.52,0,0,1-.35-.7A19.48,19.48,0,0,1,103,186a22.65,22.65,0,0,1,0-3.59l0-.33a26.2,26.2,0,0,1,.58-2.77,15.44,15.44,0,0,1,3.73-6.88,13.56,13.56,0,0,1,2.37-1.84,11.42,11.42,0,0,1,2.67-1.31,9.41,9.41,0,0,1,3-.57,7.09,7.09,0,0,1,3.12.66A6.45,6.45,0,0,1,121,171.4a9.29,9.29,0,0,1,1.33,2.79,12.12,12.12,0,0,1,.19,6,12.35,12.35,0,0,1-2.65,5.36,13.33,13.33,0,0,1-4.79,3.55,19.06,19.06,0,0,1-4.15,1.32,27.31,27.31,0,0,1-4.25.56c-.46,0-.92,0-1.38,0-.21,0-.42,0-.63,0a.89.89,0,0,1-.7-1.34,1.21,1.21,0,0,1,1.11-.64c.5,0,1,0,1.5,0a24.25,24.25,0,0,0,3.88-.51,17.3,17.3,0,0,0,3.68-1.14,11.28,11.28,0,0,0,4.8-3.84,10.35,10.35,0,0,0,1.86-5.78,8.36,8.36,0,0,0-1.71-5.49,4.57,4.57,0,0,0-1-.85,4.87,4.87,0,0,0-1.25-.52,5.85,5.85,0,0,0-2.79,0,9.89,9.89,0,0,0-2.79,1.1l-1.28.8-1.13,1a13,13,0,0,0-3,5.22,31.09,31.09,0,0,0-.72,3c-.24,1.27-.47,2.55-.6,3.86-.12,1.1-.25,2.2-.29,3.32a4.28,4.28,0,0,1-.13.64Z"/><path class="cls-10" d="M181.29,211c.74-.75,1.46-1.51,2.21-2.23l2.5-2.39a2.5,2.5,0,0,1,.24-.22l1.08-1,1.27-1.19a67.68,67.68,0,0,0,4.81-5.07,46,46,0,0,0,7.43-11.68,29.1,29.1,0,0,0,2.29-15.38,29.74,29.74,0,0,0-2.06-7.56,21.38,21.38,0,0,0-4-6.58,12.12,12.12,0,0,0-6.44-3.58,13.51,13.51,0,0,0-3.76-.23c-.64.07-1.27.09-1.9.19s-1.27.22-1.88.41A28,28,0,0,0,170,162.65a26.07,26.07,0,0,0-4.32,6.41,31.85,31.85,0,0,0-2.4,7.42,31,31,0,0,0,1.18,15.41,27.88,27.88,0,0,0,6.46,11.27,32.24,32.24,0,0,0,5.12,4.13c.92.63,1.87,1.22,2.83,1.81l1.3.8c.18.1.33.22.5.33a.89.89,0,0,1,0,1.49,1.12,1.12,0,0,1-1.3,0l-1.35-.82a40.45,40.45,0,0,1-9.5-7.42,30.34,30.34,0,0,1-5.83-10.63A35.33,35.33,0,0,1,160.8,183a31.4,31.4,0,0,1,1.26-10,36.42,36.42,0,0,1,1.78-4.73,27.65,27.65,0,0,1,2.59-4.39,32.76,32.76,0,0,1,3.33-3.83,33.6,33.6,0,0,1,3.9-3.23,28.18,28.18,0,0,1,9-4.24,17.8,17.8,0,0,1,10.07.1,15.27,15.27,0,0,1,7.86,6.36,23.75,23.75,0,0,1,1.25,2.19l1,2.25.88,2.32c.23.8.5,1.59.69,2.39a30.15,30.15,0,0,1,.79,9.93,33.59,33.59,0,0,1-2.44,9.63,52.21,52.21,0,0,1-11.18,16.09c-.5.52-1,1-1.52,1.52l-.93.89c-.42.41-.86.81-1.32,1.18a39.52,39.52,0,0,1-3.31,2.42c-1,.62-2,1.19-3,1.73a4.08,4.08,0,0,1-.62.2l-.08-.11A3.62,3.62,0,0,1,181.29,211Z"/><path class="cls-4" d="M180.87,211.65a3.62,3.62,0,0,1,.42-.65c.74-.75,1.46-1.51,2.21-2.23l2.5-2.39a2.5,2.5,0,0,1,.24-.22l1.08-1,1.27-1.19a67.68,67.68,0,0,0,4.81-5.07,46,46,0,0,0,7.43-11.68,29.1,29.1,0,0,0,2.29-15.38,29.74,29.74,0,0,0-2.06-7.56,21.38,21.38,0,0,0-4-6.58,12.12,12.12,0,0,0-6.44-3.58,13.51,13.51,0,0,0-3.76-.23c-.64.07-1.27.09-1.9.19s-1.27.22-1.88.41A28,28,0,0,0,170,162.65a26.07,26.07,0,0,0-4.32,6.41,31.85,31.85,0,0,0-2.4,7.42,31,31,0,0,0,1.18,15.41,27.88,27.88,0,0,0,6.46,11.27,32.24,32.24,0,0,0,5.12,4.13c.92.63,1.87,1.22,2.83,1.81l1.3.8c.18.1.33.22.5.33a.89.89,0,0,1,0,1.49,1.12,1.12,0,0,1-1.3,0l-1.35-.82a40.45,40.45,0,0,1-9.5-7.42,30.34,30.34,0,0,1-5.83-10.63A35.33,35.33,0,0,1,160.8,183a31.4,31.4,0,0,1,1.26-10,36.42,36.42,0,0,1,1.78-4.73,27.65,27.65,0,0,1,2.59-4.39,32.76,32.76,0,0,1,3.33-3.83,33.6,33.6,0,0,1,3.9-3.23,28.18,28.18,0,0,1,9-4.24,17.8,17.8,0,0,1,10.07.1,15.27,15.27,0,0,1,7.86,6.36,23.75,23.75,0,0,1,1.25,2.19l1,2.25.88,2.32c.23.8.5,1.59.69,2.39a30.15,30.15,0,0,1,.79,9.93,33.59,33.59,0,0,1-2.44,9.63,52.21,52.21,0,0,1-11.18,16.09c-.5.52-1,1-1.52,1.52l-.93.89c-.42.41-.86.81-1.32,1.18a39.52,39.52,0,0,1-3.31,2.42c-1,.62-2,1.19-3,1.73a4.08,4.08,0,0,1-.62.2Z"/><path class="cls-10" d="M184,222.5a24.22,24.22,0,0,1-3-1c-1.08-.46-2.13-1-3.18-1.51l-.29-.16-3-1.77a49.18,49.18,0,0,1-8.42-6.54,44,44,0,0,1-11.59-17.77,36.76,36.76,0,0,1-1.84-12.13,39.92,39.92,0,0,1,2.11-12.07,37,37,0,0,1,5.61-10.91,40.78,40.78,0,0,1,8.88-8.47,37.75,37.75,0,0,1,11.06-5.25,27.18,27.18,0,0,1,12.3-.55,21.91,21.91,0,0,1,10.94,5.77,29.76,29.76,0,0,1,6.73,10.29,40.44,40.44,0,0,1,2.94,11.88,39.47,39.47,0,0,1-1,12.21,52.7,52.7,0,0,1-11.5,21.3,77.23,77.23,0,0,1-7.17,7.3c-.63.57-1.28,1.12-1.93,1.67l-.55.46.47.17c.78.29,1.56.56,2.35.82,3.15,1.06,6.43,1.95,9.62,3.31a28.85,28.85,0,0,1,4.63,2.44l.82.55.59.44.48.4a.89.89,0,0,1-.22,1.49,1.18,1.18,0,0,1-1.28-.13q-.54-.42-1.11-.81l-.2-.14-.51-.33c-.35-.22-.7-.42-1.06-.63-.71-.4-1.44-.78-2.19-1.12a94.1,94.1,0,0,0-9.5-3.33l-2.43-.83-1.26-.45-2.11-.83-.53-.21-.26-.1-.14-.05s-.12,0,0-.07l.87-.72,1.75-1.43c.65-.54,1.28-1.09,1.92-1.64a75.52,75.52,0,0,0,7.09-7.11,57.53,57.53,0,0,0,8-11.8,47,47,0,0,0,2.7-6.59,42.29,42.29,0,0,0,1.5-6.94,35.44,35.44,0,0,0-1.13-14,33.69,33.69,0,0,0-6.37-12.5,20.48,20.48,0,0,0-11.52-6.77,23.12,23.12,0,0,0-6.8-.29,31,31,0,0,0-6.7,1.55,38,38,0,0,0-6.24,3,42.57,42.57,0,0,0-5.58,4.13,38.3,38.3,0,0,0-4.71,5.07,33.25,33.25,0,0,0-3.59,5.89A40.6,40.6,0,0,0,154.76,179a34.75,34.75,0,0,0,1.47,13.71,38.74,38.74,0,0,0,6.51,12.2,50.57,50.57,0,0,0,10,9.66l1.24.88,1.3.8,1.35.79c.51.29,1,.58,1.49.89,1.14.72,2.25,1.47,3.36,2.22.93.61,1.84,1.28,2.78,1.85a3.67,3.67,0,0,1,.49.41l-.05.13A3.39,3.39,0,0,1,184,222.5Z"/><path class="cls-4" d="M184.75,222.51a3.39,3.39,0,0,1-.78,0,24.22,24.22,0,0,1-3-1c-1.08-.46-2.13-1-3.18-1.51l-.29-.16-3-1.77a49.18,49.18,0,0,1-8.42-6.54,44,44,0,0,1-11.59-17.77,36.76,36.76,0,0,1-1.84-12.13,39.92,39.92,0,0,1,2.11-12.07,37,37,0,0,1,5.61-10.91,40.78,40.78,0,0,1,8.88-8.47,37.75,37.75,0,0,1,11.06-5.25,27.18,27.18,0,0,1,12.3-.55,21.91,21.91,0,0,1,10.94,5.77,29.76,29.76,0,0,1,6.73,10.29,40.44,40.44,0,0,1,2.94,11.88,39.47,39.47,0,0,1-1,12.21,52.7,52.7,0,0,1-11.5,21.3,77.23,77.23,0,0,1-7.17,7.3c-.63.57-1.28,1.12-1.93,1.67l-.55.46.47.17c.78.29,1.56.56,2.35.82,3.15,1.06,6.43,1.95,9.62,3.31a28.85,28.85,0,0,1,4.63,2.44l.82.55.59.44.48.4a.89.89,0,0,1-.22,1.49,1.18,1.18,0,0,1-1.28-.13q-.54-.42-1.11-.81l-.2-.14-.51-.33c-.35-.22-.7-.42-1.06-.63-.71-.4-1.44-.78-2.19-1.12a94.1,94.1,0,0,0-9.5-3.33l-2.43-.83-1.26-.45-2.11-.83-.53-.21-.26-.1-.14-.05s-.12,0,0-.07l.87-.72,1.75-1.43c.65-.54,1.28-1.09,1.92-1.64a75.52,75.52,0,0,0,7.09-7.11,57.53,57.53,0,0,0,8-11.8,47,47,0,0,0,2.7-6.59,42.29,42.29,0,0,0,1.5-6.94,35.44,35.44,0,0,0-1.13-14,33.69,33.69,0,0,0-6.37-12.5,20.48,20.48,0,0,0-11.52-6.77,23.12,23.12,0,0,0-6.8-.29,31,31,0,0,0-6.7,1.55,38,38,0,0,0-6.24,3,42.57,42.57,0,0,0-5.58,4.13,38.3,38.3,0,0,0-4.71,5.07,33.25,33.25,0,0,0-3.59,5.89A40.6,40.6,0,0,0,154.76,179a34.75,34.75,0,0,0,1.47,13.71,38.74,38.74,0,0,0,6.51,12.2,50.57,50.57,0,0,0,10,9.66l1.24.88,1.3.8,1.35.79c.51.29,1,.58,1.49.89,1.14.72,2.25,1.47,3.36,2.22.93.61,1.84,1.28,2.78,1.85a3.67,3.67,0,0,1,.49.41Z"/><path class="cls-10" d="M96.7,198.75a18.9,18.9,0,0,1-1-3,34.51,34.51,0,0,1-.58-3.5c0-.11,0-.22,0-.33L95,190.4l0-.74,0-1.17A37.78,37.78,0,0,1,96,179.57a28.08,28.08,0,0,1,3.49-8.33,22.73,22.73,0,0,1,6.29-6.56,19.52,19.52,0,0,1,9.76-3.68,13.24,13.24,0,0,1,9.91,3.52,16.92,16.92,0,0,1,4.93,9.26,20.68,20.68,0,0,1-.78,10.41,20,20,0,0,1-5.53,8.34,23.08,23.08,0,0,1-8.69,4.86,34.36,34.36,0,0,1-5.24,1.16c-.89.12-1.78.22-2.67.27l-1.16.06c-.12,0-.11,0-.15,0l.06.24.29,1c.22.82.49,1.62.77,2.42a39.38,39.38,0,0,0,2,4.69,27.86,27.86,0,0,0,5.53,7.84,15.08,15.08,0,0,0,1.81,1.49c.66.43,1.37.83,2.05,1.26s1.44.73,2.16,1.11c.36.17.72.37,1.09.52l1.14.45c1.49.65,3.07,1.08,4.62,1.58s3.16.82,4.79,1a57.15,57.15,0,0,0,9.78.84,63.12,63.12,0,0,0,16.4-2.21c1.33-.37,2.67-.72,4-1.22s2.62-.89,3.88-1.47,2.56-1.06,3.77-1.73l1.39-.72c.17-.09.36-.16.53-.24a.93.93,0,0,1,1.29.79,1.12,1.12,0,0,1-.65,1.12l-1.28.65-1.66.85-2,.85-2,.85-2,.73-2,.72c-.69.21-1.38.39-2.08.59a65,65,0,0,1-17,2.44,60.52,60.52,0,0,1-12.3-1.16,45.07,45.07,0,0,1-11.72-4.08c-.94-.45-1.81-1.06-2.71-1.58a15.71,15.71,0,0,1-1.32-.92c-.41-.35-.83-.68-1.21-1.05a26.53,26.53,0,0,1-4-4.9,42.81,42.81,0,0,1-5-11.39l-.11-.39-.13-.5-.33-1.36-.17-.68-.08-.34,0-.17h.18l1.5,0h1.22l.76,0,1.53-.13a33.67,33.67,0,0,0,6-1.22,24.36,24.36,0,0,0,3.88-1.6,21.08,21.08,0,0,0,3.48-2.32,18.08,18.08,0,0,0,5-6.57,19,19,0,0,0,1.59-8.11,16.94,16.94,0,0,0-2.2-7.89,11.82,11.82,0,0,0-8.77-6,16,16,0,0,0-10.55,3.07,21.24,21.24,0,0,0-7.35,8.53,30.78,30.78,0,0,0-2.83,11.13c-.06.86-.11,1.68-.09,2.54v1l0,.43c0,.57,0,1.13,0,1.71,0,1.33,0,2.65.06,4,0,1.11.08,2.21.2,3.32a3.49,3.49,0,0,1,0,.64l-.13,0A2.79,2.79,0,0,1,96.7,198.75Z"/><path class="cls-4" d="M97.15,199.38a2.79,2.79,0,0,1-.45-.63,18.9,18.9,0,0,1-1-3,34.51,34.51,0,0,1-.58-3.5c0-.11,0-.22,0-.33L95,190.4l0-.74,0-1.17A37.78,37.78,0,0,1,96,179.57a28.08,28.08,0,0,1,3.49-8.33,22.73,22.73,0,0,1,6.29-6.56,19.52,19.52,0,0,1,9.76-3.68,13.24,13.24,0,0,1,9.91,3.52,16.92,16.92,0,0,1,4.93,9.26,20.68,20.68,0,0,1-.78,10.41,20,20,0,0,1-5.53,8.34,23.08,23.08,0,0,1-8.69,4.86,34.36,34.36,0,0,1-5.24,1.16c-.89.12-1.78.22-2.67.27l-1.16.06c-.12,0-.11,0-.15,0l.06.24.29,1c.22.82.49,1.62.77,2.42a39.38,39.38,0,0,0,2,4.69,27.86,27.86,0,0,0,5.53,7.84,15.08,15.08,0,0,0,1.81,1.49c.66.43,1.37.83,2.05,1.26s1.44.73,2.16,1.11c.36.17.72.37,1.09.52l1.14.45c1.49.65,3.07,1.08,4.62,1.58s3.16.82,4.79,1a57.15,57.15,0,0,0,9.78.84,63.12,63.12,0,0,0,16.4-2.21c1.33-.37,2.67-.72,4-1.22s2.62-.89,3.88-1.47,2.56-1.06,3.77-1.73l1.39-.72c.17-.09.36-.16.53-.24a.93.93,0,0,1,1.29.79,1.12,1.12,0,0,1-.65,1.12l-1.28.65-1.66.85-2,.85-2,.85-2,.73-2,.72c-.69.21-1.38.39-2.08.59a65,65,0,0,1-17,2.44,60.52,60.52,0,0,1-12.3-1.16,45.07,45.07,0,0,1-11.72-4.08c-.94-.45-1.81-1.06-2.71-1.58a15.71,15.71,0,0,1-1.32-.92c-.41-.35-.83-.68-1.21-1.05a26.53,26.53,0,0,1-4-4.9,42.81,42.81,0,0,1-5-11.39l-.11-.39-.13-.5-.33-1.36-.17-.68-.08-.34,0-.17h.18l1.5,0h1.22l.76,0,1.53-.13a33.67,33.67,0,0,0,6-1.22,24.36,24.36,0,0,0,3.88-1.6,21.08,21.08,0,0,0,3.48-2.32,18.08,18.08,0,0,0,5-6.57,19,19,0,0,0,1.59-8.11,16.94,16.94,0,0,0-2.2-7.89,11.82,11.82,0,0,0-8.77-6,16,16,0,0,0-10.55,3.07,21.24,21.24,0,0,0-7.35,8.53,30.78,30.78,0,0,0-2.83,11.13c-.06.86-.11,1.68-.09,2.54v1l0,.43c0,.57,0,1.13,0,1.71,0,1.33,0,2.65.06,4,0,1.11.08,2.21.2,3.32a3.49,3.49,0,0,1,0,.64Z"/><path class="cls-10" d="M202.94,229.73c-1-.42-1.92-.75-2.9-1.07s-2.16-.71-3.27-1l-.31-.1-3.15-1c-2.71-.86-5.43-1.77-8.08-2.85-.66-.28-1.33-.54-2-.85l-1.78-.82c-.08,0-.07,0-.22.07l-.91.56-1.87,1.07c-.63.35-1.24.73-1.88,1.06l-1.94.94c-.64.31-1.28.65-1.94.93l-2,.83a80,80,0,0,1-18.95,5.15,69,69,0,0,1-19.67.11,50.91,50.91,0,0,1-18.59-6.29l-2.13-1.27a11.91,11.91,0,0,1-1-.72c-.34-.25-.69-.49-1-.77a29.69,29.69,0,0,1-3.58-3.51,41,41,0,0,1-5.44-8.29,50.64,50.64,0,0,1-3.57-9.2c-.44-1.59-.83-3.19-1.12-4.81l-.16-.87a0,0,0,0,0,0,0l-.33-.14a22.77,22.77,0,0,1-2.27-1.12,27.61,27.61,0,0,1-7.66-6.48,38.5,38.5,0,0,1-5.2-8.47A72.06,72.06,0,0,1,75.09,165c-.51-2.71-1-5.42-1.3-8.14-.16-1.37-.36-2.73-.47-4.09l-.15-1.59c0-.2,0-.4,0-.6a.89.89,0,0,1,1.22-.86,1.16,1.16,0,0,1,.8,1l.12,1.4.18,1.76.24,2c.32,2.71.75,5.4,1.26,8.07a71.1,71.1,0,0,0,4.67,15.54,36.08,36.08,0,0,0,6.19,9.62,10.61,10.61,0,0,0,1,1l1,1c.75.58,1.45,1.22,2.24,1.74a22.91,22.91,0,0,0,2.43,1.45c.42.22.84.42,1.27.61l.86.35.62.26.12.67.29,1.64c.08.48.2.94.3,1.42.19.94.45,1.87.7,2.8a51.87,51.87,0,0,0,1.88,5.47,42.85,42.85,0,0,0,5.66,10,29.5,29.5,0,0,0,3.81,4.08c.36.29.69.61,1.06.89l1.12.81,2.42,1.45,1.21.73a13.5,13.5,0,0,0,1.27.61l2.55,1.2c.86.39,1.77.65,2.65,1a24.13,24.13,0,0,0,2.69.88,49.72,49.72,0,0,0,5.53,1.26c.93.15,1.85.36,2.8.45l2.82.28c.48,0,.95.1,1.42.12l1.42,0,2.84.08,2.85-.11c.95,0,1.9-.06,2.84-.19l2.84-.29c.94-.08,1.88-.29,2.82-.43s1.88-.28,2.81-.49l2.78-.63c.94-.19,1.85-.46,2.76-.73l2.75-.79,2.69-.94,1.35-.47,1.31-.55,2.63-1.1,2.56-1.25c.42-.22.86-.41,1.27-.64l1.24-.7c.82-.48,1.65-.93,2.46-1.43l.74-.47.6-.38c.05,0,.1-.08.15-.07l.16.07.33.15,1.59.73c.86.41,1.73.79,2.61,1.15q2.64,1.06,5.36,2l2.41.77,1.33.41c.56.17,1.12.34,1.67.55a27.64,27.64,0,0,1,3.77,1.71,16.82,16.82,0,0,1,2.85,2,3,3,0,0,1,.4.53l-.07.11A4.12,4.12,0,0,1,202.94,229.73Z"/><path class="cls-4" d="M203.69,229.91a4.12,4.12,0,0,1-.75-.18c-1-.42-1.92-.75-2.9-1.07s-2.16-.71-3.27-1l-.31-.1-3.15-1c-2.71-.86-5.43-1.77-8.08-2.85-.66-.28-1.33-.54-2-.85l-1.78-.82c-.08,0-.07,0-.22.07l-.91.56-1.87,1.07c-.63.35-1.24.73-1.88,1.06l-1.94.94c-.64.31-1.28.65-1.94.93l-2,.83a80,80,0,0,1-18.95,5.15,69,69,0,0,1-19.67.11,50.91,50.91,0,0,1-18.59-6.29l-2.13-1.27a11.91,11.91,0,0,1-1-.72c-.34-.25-.69-.49-1-.77a29.69,29.69,0,0,1-3.58-3.51,41,41,0,0,1-5.44-8.29,50.64,50.64,0,0,1-3.57-9.2c-.44-1.59-.83-3.19-1.12-4.81l-.16-.87a0,0,0,0,0,0,0l-.33-.14a22.77,22.77,0,0,1-2.27-1.12,27.61,27.61,0,0,1-7.66-6.48,38.5,38.5,0,0,1-5.2-8.47A72.06,72.06,0,0,1,75.09,165c-.51-2.71-1-5.42-1.3-8.14-.16-1.37-.36-2.73-.47-4.09l-.15-1.59c0-.2,0-.4,0-.6a.89.89,0,0,1,1.22-.86,1.16,1.16,0,0,1,.8,1l.12,1.4.18,1.76.24,2c.32,2.71.75,5.4,1.26,8.07a71.1,71.1,0,0,0,4.67,15.54,36.08,36.08,0,0,0,6.19,9.62,10.61,10.61,0,0,0,1,1l1,1c.75.58,1.45,1.22,2.24,1.74a22.91,22.91,0,0,0,2.43,1.45c.42.22.84.42,1.27.61l.86.35.62.26.12.67.29,1.64c.08.48.2.94.3,1.42.19.94.45,1.87.7,2.8a51.87,51.87,0,0,0,1.88,5.47,42.85,42.85,0,0,0,5.66,10,29.5,29.5,0,0,0,3.81,4.08c.36.29.69.61,1.06.89l1.12.81,2.42,1.45,1.21.73a13.5,13.5,0,0,0,1.27.61l2.55,1.2c.86.39,1.77.65,2.65,1a24.13,24.13,0,0,0,2.69.88,49.72,49.72,0,0,0,5.53,1.26c.93.15,1.85.36,2.8.45l2.82.28c.48,0,.95.1,1.42.12l1.42,0,2.84.08,2.85-.11c.95,0,1.9-.06,2.84-.19l2.84-.29c.94-.08,1.88-.29,2.82-.43s1.88-.28,2.81-.49l2.78-.63c.94-.19,1.85-.46,2.76-.73l2.75-.79,2.69-.94,1.35-.47,1.31-.55,2.63-1.1,2.56-1.25c.42-.22.86-.41,1.27-.64l1.24-.7c.82-.48,1.65-.93,2.46-1.43l.74-.47.6-.38c.05,0,.1-.08.15-.07l.16.07.33.15,1.59.73c.86.41,1.73.79,2.61,1.15q2.64,1.06,5.36,2l2.41.77,1.33.41c.56.17,1.12.34,1.67.55a27.64,27.64,0,0,1,3.77,1.71,16.82,16.82,0,0,1,2.85,2,3,3,0,0,1,.4.53Z"/><path class="cls-10" d="M71.35,28.22a19.84,19.84,0,0,1,.35,3.17c0,1.18-.07,2.36-.15,3.54,0,.11,0,.22,0,.33-.07.49-.15,1-.23,1.47L71,38.43c-.21,1.06-.44,2.1-.7,3.15s-.58,2.09-.92,3.11a37.76,37.76,0,0,1-6.07,11.47,27.13,27.13,0,0,1-12,8.76,25.39,25.39,0,0,1-7.4,1.52,17,17,0,0,1-7.53-1.37,15.22,15.22,0,0,1-6-4.78,18,18,0,0,1-3.15-6.94,23,23,0,0,1,1.9-14.78A23,23,0,0,1,39.5,27.91,28.91,28.91,0,0,1,54.1,25a40.72,40.72,0,0,1,6.22.71l.4.08s0,0,0,0l0-1.34c-.07-1.5-.21-3-.41-4.48s-.48-2.95-.82-4.41c-.09-.36-.17-.72-.27-1.08L59,13.7c-.09-.33-.18-.66-.29-1l-.15-.57a.91.91,0,0,1,1-1.11,1.13,1.13,0,0,1,1,.84q.24.76.45,1.53a50.15,50.15,0,0,1,1.46,7.75c.14,1.31.24,2.62.29,3.93,0,.44,0,1.86,0,3,.13.45-.29.21-.55.17L61.34,28l-.86-.2-.55-.11a38.49,38.49,0,0,0-5.57-.66,30.25,30.25,0,0,0-8.51.68,22.86,22.86,0,0,0-7.75,3.33,22.12,22.12,0,0,0-3.25,2.69A21.32,21.32,0,0,0,32.22,37a22,22,0,0,0-3.17,7.78,23.63,23.63,0,0,0-.38,4.11A20.74,20.74,0,0,0,29.13,53a15.49,15.49,0,0,0,3.66,7.14,13.24,13.24,0,0,0,3.12,2.51,13.91,13.91,0,0,0,3.74,1.43,18.09,18.09,0,0,0,8.11-.19,25.7,25.7,0,0,0,7.63-3.22,25.17,25.17,0,0,0,6.15-5.55A37.44,37.44,0,0,0,68.59,40c.14-.6.26-1.21.38-1.82l.13-.74.08-.42.29-1.69c.26-1.31.53-2.6.75-3.91.19-1.09.4-2.18.51-3.29a2.94,2.94,0,0,1,.19-.62h.14A3.39,3.39,0,0,1,71.35,28.22Z"/><path class="cls-4" d="M71.06,27.5a3.39,3.39,0,0,1,.29.72,19.84,19.84,0,0,1,.35,3.17c0,1.18-.07,2.36-.15,3.54,0,.11,0,.22,0,.33-.07.49-.15,1-.23,1.47L71,38.43c-.21,1.06-.44,2.1-.7,3.15s-.58,2.09-.92,3.11a37.76,37.76,0,0,1-6.07,11.47,27.13,27.13,0,0,1-12,8.76,25.39,25.39,0,0,1-7.4,1.52,17,17,0,0,1-7.53-1.37,15.22,15.22,0,0,1-6-4.78,18,18,0,0,1-3.15-6.94,23,23,0,0,1,1.9-14.78A23,23,0,0,1,39.5,27.91,28.91,28.91,0,0,1,54.1,25a40.72,40.72,0,0,1,6.22.71l.4.08s0,0,0,0l0-1.34c-.07-1.5-.21-3-.41-4.48s-.48-2.95-.82-4.41c-.09-.36-.17-.72-.27-1.08L59,13.7c-.09-.33-.18-.66-.29-1l-.15-.57a.91.91,0,0,1,1-1.11,1.13,1.13,0,0,1,1,.84q.24.76.45,1.53a50.15,50.15,0,0,1,1.46,7.75c.14,1.31.24,2.62.29,3.93,0,.44,0,1.86,0,3,.13.45-.29.21-.55.17L61.34,28l-.86-.2-.55-.11a38.49,38.49,0,0,0-5.57-.66,30.25,30.25,0,0,0-8.51.68,22.86,22.86,0,0,0-7.75,3.33,22.12,22.12,0,0,0-3.25,2.69A21.32,21.32,0,0,0,32.22,37a22,22,0,0,0-3.17,7.78,23.63,23.63,0,0,0-.38,4.11A20.74,20.74,0,0,0,29.13,53a15.49,15.49,0,0,0,3.66,7.14,13.24,13.24,0,0,0,3.12,2.51,13.91,13.91,0,0,0,3.74,1.43,18.09,18.09,0,0,0,8.11-.19,25.7,25.7,0,0,0,7.63-3.22,25.17,25.17,0,0,0,6.15-5.55A37.44,37.44,0,0,0,68.59,40c.14-.6.26-1.21.38-1.82l.13-.74.08-.42.29-1.69c.26-1.31.53-2.6.75-3.91.19-1.09.4-2.18.51-3.29a2.94,2.94,0,0,1,.19-.62Z"/><path class="cls-10" d="M68.06,7.2a26,26,0,0,1,1.39,2.86c.45,1.09.78,2.22,1.13,3.35,0,.11,0,.22.08.33L71,15.19l.28,1.57c.24,1.48.44,3,.58,4.45a62.46,62.46,0,0,1,.19,9l0,.53s0,.08,0,.1l.73.53c.7.52,1.38,1.07,2,1.66a24,24,0,0,1,3.53,3.91,23.54,23.54,0,0,1,2.47,4.64,41.82,41.82,0,0,1,1.68,4.91,97.1,97.1,0,0,1,2.91,20.15,188.1,188.1,0,0,1-.11,20.29c-.3,5-.76,10-1.41,15l-.17,1.31c0,.2-.08.39-.11.59a.9.9,0,0,1-1.39.57,1.17,1.17,0,0,1-.54-1.19l.22-1.54c.64-4.87,1.08-9.76,1.37-14.66a177.52,177.52,0,0,0-.14-24.41,96.89,96.89,0,0,0-1.63-11.79,40.82,40.82,0,0,0-3.73-11.07,18.27,18.27,0,0,0-3.48-4.52,24.5,24.5,0,0,0-2.17-1.91c-.39-.31-.73-.57-1.19-.89L70.27,32l-.3-.2a1.09,1.09,0,0,1,0-.36L70,30.27a60.6,60.6,0,0,0-.53-11.81c-.3-2-.52-2.74-.72-3.94s-.46-2.61-.71-3.91c-.21-1.1-.39-2.2-.64-3.3a3.4,3.4,0,0,1,0-.64l.13-.06A4.69,4.69,0,0,1,68.06,7.2Z"/><path class="cls-4" d="M67.55,6.61a4.69,4.69,0,0,1,.51.59,26,26,0,0,1,1.39,2.86c.45,1.09.78,2.22,1.13,3.35,0,.11,0,.22.08.33L71,15.19l.28,1.57c.24,1.48.44,3,.58,4.45a62.46,62.46,0,0,1,.19,9l0,.53s0,.08,0,.1l.73.53c.7.52,1.38,1.07,2,1.66a24,24,0,0,1,3.53,3.91,23.54,23.54,0,0,1,2.47,4.64,41.82,41.82,0,0,1,1.68,4.91,97.1,97.1,0,0,1,2.91,20.15,188.1,188.1,0,0,1-.11,20.29c-.3,5-.76,10-1.41,15l-.17,1.31c0,.2-.08.39-.11.59a.9.9,0,0,1-1.39.57,1.17,1.17,0,0,1-.54-1.19l.22-1.54c.64-4.87,1.08-9.76,1.37-14.66a177.52,177.52,0,0,0-.14-24.41,96.89,96.89,0,0,0-1.63-11.79,40.82,40.82,0,0,0-3.73-11.07,18.27,18.27,0,0,0-3.48-4.52,24.5,24.5,0,0,0-2.17-1.91c-.39-.31-.73-.57-1.19-.89L70.27,32l-.3-.2a1.09,1.09,0,0,1,0-.36L70,30.27a60.6,60.6,0,0,0-.53-11.81c-.3-2-.52-2.74-.72-3.94s-.46-2.61-.71-3.91c-.21-1.1-.39-2.2-.64-3.3a3.4,3.4,0,0,1,0-.64Z"/><path class="cls-4" d="M143.91,104.63a2.77,2.77,0,0,1-1.31.26l-.94,0-1.36-.42a7.3,7.3,0,0,1-3-3.3,27.47,27.47,0,0,1-1.36-6c0-.47,0-1.41-.1-2.09,0-1.31-.16-2.94-.16-3.77,0-.32-.05-.89-.05-1.16v-.94c0-1,0-3.45,0-4.55V80.12c0-.26-.06-.52-.06-.78V78.6a27.57,27.57,0,0,1,.48-5.18,19.46,19.46,0,0,1,2-5.71l.36-.47c.84-1,1.84-2.15,3.78-2,2.2,0,4.6,3.51,5.44,5.71a20.08,20.08,0,0,1,.79,3.66v1l.15,1.52a18.06,18.06,0,0,1,.16,2.51V81l.05,1c0,.52.06,2.25.11,2.88V89.6c0,.42,0,.79,0,1.21a47.83,47.83,0,0,1-.32,5.34l-.37,1.93c-.41,2.41-1.57,5.4-4.18,6.55Zm2.1-9.16c.21-1.21.31-2.67.37-3.56a7.32,7.32,0,0,1,.1-1c0-1.68.1-4.61.1-6.29-.05-.94-.2-2.77-.26-3.71,0-.42,0-1,0-1.52a3.61,3.61,0,0,0-.11-.68L146,77.08l-.16-1.46a10.34,10.34,0,0,1-.1-1.42,9.61,9.61,0,0,0-1.36-4.13,7.91,7.91,0,0,0-2-2.31,1.88,1.88,0,0,0-.68.11l-.31,0A15.89,15.89,0,0,0,140,69a11.11,11.11,0,0,0-1.26,3.45v0l-.21.68a39.28,39.28,0,0,0-.63,7.75c.16,1,.16,4.82.16,5.92v6c.11.89.31,2.1.42,3l.31,2.51a14.3,14.3,0,0,0,.89,2l.42.84a2.83,2.83,0,0,0,2.2,1.31c1.42,0,2-1.21,2.57-2.25a7.65,7.65,0,0,0,.84-2.73Z"/><path class="cls-4" d="M164.34,104.63a2.8,2.8,0,0,1-1.31.26l-.95,0-1.36-.42a7.23,7.23,0,0,1-3-3.3,26.9,26.9,0,0,1-1.36-6c0-.47-.06-1.41-.11-2.09-.05-1.31-.16-2.94-.16-3.77,0-.32-.05-.89-.05-1.16v-.94c0-1,0-3.45-.05-4.55V80.12c0-.26,0-.52,0-.78V78.6a27.57,27.57,0,0,1,.47-5.18,19.46,19.46,0,0,1,2-5.71l.37-.47c.83-1,1.83-2.15,3.77-2,2.2,0,4.61,3.51,5.44,5.71a20.08,20.08,0,0,1,.79,3.66v1l.16,1.52a19.81,19.81,0,0,1,.15,2.51V81l.06,1c0,.52,0,2.25.1,2.88V89.6c0,.42-.05.79-.05,1.21a47.83,47.83,0,0,1-.32,5.34l-.36,1.93c-.42,2.41-1.57,5.4-4.19,6.55Zm2.09-9.16a33.73,33.73,0,0,0,.37-3.56,7.32,7.32,0,0,1,.1-1c0-1.68.11-4.61.11-6.29-.06-.94-.21-2.77-.26-3.71,0-.42-.06-1-.06-1.52a4.46,4.46,0,0,0-.1-.68l-.16-1.58-.16-1.46a10.34,10.34,0,0,1-.1-1.42,9.48,9.48,0,0,0-1.36-4.13,8,8,0,0,0-2-2.31,1.84,1.84,0,0,0-.68.11l-.32,0a15.89,15.89,0,0,0-1.36,1,11.11,11.11,0,0,0-1.26,3.45v0l-.21.68a38.52,38.52,0,0,0-.62,7.75c.15,1,.15,4.82.15,5.92v6c.11.89.32,2.1.42,3l.32,2.51a12.35,12.35,0,0,0,.89,2l.42.84a2.83,2.83,0,0,0,2.19,1.31c1.42,0,2-1.21,2.57-2.25a7.65,7.65,0,0,0,.84-2.73Z"/><path class="cls-4" d="M178.32,65.51c.94-.21,1.25.26,1.36,1a23.19,23.19,0,0,0-.05,2.72v.94c.15,3.15.15,6.5.15,9.64,0,1.36,0,3.19-.05,4.45v.47a6.41,6.41,0,0,0,1.1.06c1.15,0,2.36,0,3.56,0,.84,0,.89,0,1.63,0v-.63a27.39,27.39,0,0,1,0-3c.05-.47.05-1.78.05-2.25L186,67.08c.21-1.31.16-1.52,1.26-1.62.47,0,1.1.26,1.2,1.36l0,1.05v.26c0,.26,0,.58,0,1.15,0,1.63,0,4.14.06,5.71v0c.05,1.36.05,2.83.05,4v7.17c0,.89,0,1.79.05,2.47V90c0,.68,0,1.52,0,2.51s.06,2.57.06,3.62c.15,2.62.15,5.08.15,7.8a1,1,0,0,1-1.2,1c-.58,0-1.15-.21-1.15-1.26l-.06-.78-.05-3.77V98l-.31-10.74h-1.68a15.08,15.08,0,0,0-1.62.06,14.71,14.71,0,0,1-2.1,0c-.21,0-.52-.06-.94-.06V89.5a10,10,0,0,0,0,1.2v3.09c0,1.1-.05,2.31-.05,3.2v1.62c0,.68.05,1.47.05,2.2l0,3c0,1.1-.58,1.37-1.2,1.31-.42,0-1.05-.15-1.16-.94a7.33,7.33,0,0,1-.05-1.1v-.52c0-.58,0-1.21,0-1.63v-2.3c-.05-.84-.11-2.1-.11-2.88V93c0-.89.11-2,.11-3,0-.58,0-1.42,0-2a3.34,3.34,0,0,1,0-.37c0-.47-.05-1.2,0-1.73a13.77,13.77,0,0,1,0-1.46c0-.21.05-.37.05-.58-.05-1.36-.05-2.93-.05-3.77,0-.47,0-1.2,0-1.62,0-.74,0-1.68,0-2.2V73.68c0-2-.16-4.77-.16-6.86C177.16,65.67,177.69,65.56,178.32,65.51Z"/><path class="cls-4" d="M199.79,102.64l.1.26a1.6,1.6,0,0,1,.05.89,1.24,1.24,0,0,1-.78,1s-.63.11-.84.11H198a1.88,1.88,0,0,1-1.2-1.16s.58-1.93,1.52-2A1.22,1.22,0,0,1,199.79,102.64Zm-1.42-36.82c.53,0,1.15,0,1.15,1.1.16,2.47.21,4.93.21,7.13,0,1.83,0,3.61-.1,5.44s-.11,4.09-.11,5.92c0,.73.06,1.36.11,2a25.84,25.84,0,0,1,.05,2.78v3.09c0,1.1-.05,2.3-.05,3.4s-.73,1.1-1.26,1.1-1.1-.1-1.1-1.31.06-2.14.06-3.24V90.12c0-.73-.06-1.57-.11-2.35s-.05-1.63-.05-2.41c.1-2.1.1-4.19.1-6.29,0-3.09-.05-6.12-.15-9.21a14.36,14.36,0,0,1,0-1.52v-1.1C197.17,65.88,197.74,65.77,198.37,65.82Z"/><path class="cls-10" d="M82.41,149.67c.26,1,.51,2,.71,3.06s.43,2.28.65,3.41c0,.11,0,.21,0,.32l.4,2.67c.26,1.4.47,2.82.79,4.21.22,1,.44,2.08.72,3.1s.53,2.05.84,3.06a52.82,52.82,0,0,0,2.14,5.92,34.92,34.92,0,0,0,3,5.45,22.13,22.13,0,0,0,2.9,3.48,8,8,0,0,0,.92.83c.14.12.27.25.42.37a1,1,0,0,1-.2,1.49,1.13,1.13,0,0,1-1.32-.15l-.63-.52c-.21-.19-.39-.39-.59-.58A24.25,24.25,0,0,1,90,182.05,37.29,37.29,0,0,1,86.36,175a59,59,0,0,1-2.4-7.39c-.66-2.5-1.16-5-1.61-7.58-.07-.28-.33-1.8-.45-2.89-.16-1.35-.18-2.72-.22-4.08,0-1.13.06-2.27.11-3.41a3.6,3.6,0,0,1,.15-.63h.14A3.72,3.72,0,0,1,82.41,149.67Z"/><path class="cls-4" d="M82.08,149a3.72,3.72,0,0,1,.33.7c.26,1,.51,2,.71,3.06s.43,2.28.65,3.41c0,.11,0,.21,0,.32l.4,2.67c.26,1.4.47,2.82.79,4.21.22,1,.44,2.08.72,3.1s.53,2.05.84,3.06a52.82,52.82,0,0,0,2.14,5.92,34.92,34.92,0,0,0,3,5.45,22.13,22.13,0,0,0,2.9,3.48,8,8,0,0,0,.92.83c.14.12.27.25.42.37a1,1,0,0,1-.2,1.49,1.13,1.13,0,0,1-1.32-.15l-.63-.52c-.21-.19-.39-.39-.59-.58A24.25,24.25,0,0,1,90,182.05,37.29,37.29,0,0,1,86.36,175a59,59,0,0,1-2.4-7.39c-.66-2.5-1.16-5-1.61-7.58-.07-.28-.33-1.8-.45-2.89-.16-1.35-.18-2.72-.22-4.08,0-1.13.06-2.27.11-3.41a3.6,3.6,0,0,1,.15-.63Z"/><path class="cls-10" d="M73.81,103.31c0-1,0-2.1,0-3.15.06-1.45.1-2.35.15-3.47,0-.11,0-.22,0-.33l.24-2.69q.31-3.8.47-7.59c.16-3.78.2-7.56.14-11.34s-.26-7.52-.6-11.25a87,87,0,0,0-1.7-11.07,30.68,30.68,0,0,0-2.68-7.65c-.18-.37-.42-.68-.63-1l-.3-.44a1,1,0,0,1,.54-1.39,1.13,1.13,0,0,1,1.27.47,15,15,0,0,1,.88,1.41,33.06,33.06,0,0,1,2.85,8.05,93.88,93.88,0,0,1,2,13.81c.34,4.53.46,9.06.43,13.6s-.22,9.08-.56,13.61c-.07.91-.12,2.19-.28,3.33-.17,1.34-.43,2.68-.71,4-.24,1.11-.55,2.21-.86,3.3a4.48,4.48,0,0,1-.29.58l-.14,0A3.38,3.38,0,0,1,73.81,103.31Z"/><path class="cls-4" d="M74,104.06a3.38,3.38,0,0,1-.17-.75c0-1,0-2.1,0-3.15.06-1.45.1-2.35.15-3.47,0-.11,0-.22,0-.33l.24-2.69q.31-3.8.47-7.59c.16-3.78.2-7.56.14-11.34s-.26-7.52-.6-11.25a87,87,0,0,0-1.7-11.07,30.68,30.68,0,0,0-2.68-7.65c-.18-.37-.42-.68-.63-1l-.3-.44a1,1,0,0,1,.54-1.39,1.13,1.13,0,0,1,1.27.47,15,15,0,0,1,.88,1.41,33.06,33.06,0,0,1,2.85,8.05,93.88,93.88,0,0,1,2,13.81c.34,4.53.46,9.06.43,13.6s-.22,9.08-.56,13.61c-.07.91-.12,2.19-.28,3.33-.17,1.34-.43,2.68-.71,4-.24,1.11-.55,2.21-.86,3.3a4.48,4.48,0,0,1-.29.58Z"/><path class="cls-10" d="M60.51,36.75c-1-.15-2.06-.22-3.08-.29s-2.27-.14-3.4-.12h-.32a25.79,25.79,0,0,0-2.64,0,20.63,20.63,0,0,0-2.08.21A19.16,19.16,0,0,0,47,37a13.12,13.12,0,0,0-3.7,1.76,12.44,12.44,0,0,0-4,4.56A12.18,12.18,0,0,0,38,49.22a6.71,6.71,0,0,0,2.13,5.05c1.37,1.06,3.46,1,5.41.56a17.11,17.11,0,0,0,2.9-1c.45-.24.92-.44,1.36-.69s.87-.52,1.27-.83a17.58,17.58,0,0,0,4.21-4.43,29.33,29.33,0,0,0,3.82-8.51c.12-.41.22-.82.32-1.24l.17-.55A.9.9,0,0,1,61,37.14a1.14,1.14,0,0,1,.44,1.24c-.14.52-.27,1-.42,1.55a31.71,31.71,0,0,1-4,9,21.05,21.05,0,0,1-2.61,3.21,18.79,18.79,0,0,1-1.57,1.39l-.84.64-.89.55a17.87,17.87,0,0,1-3.81,1.73,14.12,14.12,0,0,1-4.19.74,6.82,6.82,0,0,1-4.25-1.33,7.34,7.34,0,0,1-2.4-3.73A13.13,13.13,0,0,1,37,43.8,14.27,14.27,0,0,1,42,37.25a16.57,16.57,0,0,1,3.72-1.91,19.08,19.08,0,0,1,4-.88A9.59,9.59,0,0,1,51,34.35a18.12,18.12,0,0,1,2.44,0,23.92,23.92,0,0,1,4.12.67,19.68,19.68,0,0,1,3.27,1.2.74.74,0,0,1,.22.14l.22.38L61,37l-.14,0-.08-.39.08.12A1.63,1.63,0,0,1,60.51,36.75Z"/><path class="cls-4" d="M60.89,37l-.08-.39.08.12a1.63,1.63,0,0,1-.38,0c-1-.15-2.06-.22-3.08-.29s-2.27-.14-3.4-.12h-.32a25.79,25.79,0,0,0-2.64,0,20.63,20.63,0,0,0-2.08.21A19.16,19.16,0,0,0,47,37a13.12,13.12,0,0,0-3.7,1.76,12.44,12.44,0,0,0-4,4.56A12.18,12.18,0,0,0,38,49.22a6.71,6.71,0,0,0,2.13,5.05c1.37,1.06,3.46,1,5.41.56a17.11,17.11,0,0,0,2.9-1c.45-.24.92-.44,1.36-.69s.87-.52,1.27-.83a17.58,17.58,0,0,0,4.21-4.43,29.33,29.33,0,0,0,3.82-8.51c.12-.41.22-.82.32-1.24l.17-.55A.9.9,0,0,1,61,37.14a1.14,1.14,0,0,1,.44,1.24c-.14.52-.27,1-.42,1.55a31.71,31.71,0,0,1-4,9,21.05,21.05,0,0,1-2.61,3.21,18.79,18.79,0,0,1-1.57,1.39l-.84.64-.89.55a17.87,17.87,0,0,1-3.81,1.73,14.12,14.12,0,0,1-4.19.74,6.82,6.82,0,0,1-4.25-1.33,7.34,7.34,0,0,1-2.4-3.73A13.13,13.13,0,0,1,37,43.8,14.27,14.27,0,0,1,42,37.25a16.57,16.57,0,0,1,3.72-1.91,19.08,19.08,0,0,1,4-.88A9.59,9.59,0,0,1,51,34.35a18.12,18.12,0,0,1,2.44,0,23.92,23.92,0,0,1,4.12.67,19.68,19.68,0,0,1,3.27,1.2.74.74,0,0,1,.22.14l.22.38L61,37Z"/><path class="cls-11" d="M60.36,26.49c-.16,0-.06.29.07.2s.14-.2.14-.32l0-1.51a46.15,46.15,0,0,0-.44-5.11c-.15-1.05-.34-2.1-.56-3.14s-.5-2.2-.81-3.28l-.27-.91,0-.13,0,.13c.14.42.28.85.4,1.31l.32,1.2.09.36c.23,1,.44,2,.62,3,.25,1.47.44,3,.56,4.45,0,.67.09,1.34.11,2l0,1c0,.23,0,.46,0,.69s-.06.25-.18.27-.19-.25,0-.22Z"/><g class="cls-12"><path id="Fill-42-2" data-name="Fill-42" class="cls-7" d="M121.49,175.1c0-.13,0-.26-.08-.38h.1c0,.13,0,.25,0,.38"/></g><g class="cls-12"><path id="Fill-44-2" data-name="Fill-44" class="cls-8" d="M192.1,214.33l0-.06h0l-.06.05"/></g></svg>