<svg width="240" height="240" viewBox="95 0 240 240" fill="none" xmlns="http://www.w3.org/2000/svg">
<g clip-path="url(#clip0_1983_10303)">
<mask id="mask0_1983_10303" style="mask-type:alpha" maskUnits="userSpaceOnUse" x="0" y="0" width="427" height="240">
<rect width="426.667" height="240" fill="#D9D9D9"/>
</mask>
<g mask="url(#mask0_1983_10303)">
<path d="M152.333 112.889V72.1719L213.333 45.0608L274.333 72.1719V112.889C274.333 150.84 248.21 186.224 213.333 195.13C178.456 186.224 152.333 150.84 152.333 112.889Z" fill="white" stroke="#0A882F" stroke-width="6"/>
<path d="M156.039 113.412V75.1821L213.333 49.7181L270.627 75.1821V113.412C270.627 148.966 246.117 182.145 213.333 190.41C180.549 182.145 156.039 148.966 156.039 113.412Z" fill="white" stroke="#D7D7D7" stroke-width="4"/>
<circle cx="213.333" cy="120" r="25.1624" fill="white"/>
<path d="M208.982 125.591L202.242 118.848C201.674 118.279 200.977 117.995 200.151 117.995C199.324 117.995 198.601 118.305 197.982 118.925C197.413 119.494 197.129 120.217 197.129 121.096C197.129 121.974 197.413 122.697 197.982 123.266L206.813 132.103C207.381 132.671 208.104 132.955 208.982 132.955C209.86 132.955 210.583 132.671 211.151 132.103L228.735 114.507C229.304 113.938 229.588 113.241 229.588 112.414C229.588 111.587 229.278 110.864 228.658 110.244C228.09 109.675 227.367 109.391 226.489 109.391C225.611 109.391 224.888 109.675 224.32 110.244L208.982 125.591ZM213.32 151.016C209.033 151.016 205.005 150.202 201.235 148.573C197.465 146.946 194.186 144.737 191.397 141.947C188.608 139.156 186.401 135.875 184.775 132.103C183.147 128.33 182.333 124.299 182.333 120.01C182.333 115.721 183.147 111.69 184.775 107.918C186.401 104.146 188.608 100.864 191.397 98.0737C194.186 95.2832 197.465 93.0735 201.235 91.4447C205.005 89.8179 209.033 89.0045 213.32 89.0045C217.606 89.0045 221.634 89.8179 225.404 91.4447C229.174 93.0735 232.454 95.2832 235.243 98.0737C238.031 100.864 240.239 104.146 241.864 107.918C243.492 111.69 244.306 115.721 244.306 120.01C244.306 124.299 243.492 128.33 241.864 132.103C240.239 135.875 238.031 139.156 235.243 141.947C232.454 144.737 229.174 146.946 225.404 148.573C221.634 150.202 217.606 151.016 213.32 151.016Z" fill="#0A882F"/>
</g>
</g>
<defs>
<clipPath id="clip0_1983_10303">
<rect width="426.667" height="240" fill="white"/>
</clipPath>
</defs>
</svg>
