<svg width="200" height="200" viewBox="0 0 200 200" fill="none" xmlns="http://www.w3.org/2000/svg">
<path d="M100 200C155.228 200 200 155.228 200 100C200 44.7715 155.228 0 100 0C44.7715 0 0 44.7715 0 100C0 155.228 44.7715 200 100 200Z" fill="black" fill-opacity="0.03"/>
<path fill-rule="evenodd" clip-rule="evenodd" d="M93.1563 56.3629L41.9607 93.4405H154.47L101.881 56.3104C99.2609 54.4604 95.7542 54.4815 93.1563 56.3629ZM73.4224 128.319L41.9607 93.4405H154.47L123.538 129.619C122.882 130.387 121.913 130.816 120.903 130.785L75.7966 129.418C74.8885 129.391 74.0309 128.994 73.4224 128.319Z" fill="#333333"/>
<path d="M143.428 66.5231H53.0028V148.274H143.428V66.5231Z" fill="white" stroke="white" stroke-width="0.0833333" stroke-miterlimit="10"/>
<path fill-rule="evenodd" clip-rule="evenodd" d="M68.146 78.2779H106.285C107.72 78.2779 108.884 79.4412 108.884 80.8761C108.884 82.3111 107.72 83.4744 106.285 83.4744H68.146C66.711 83.4744 65.5477 82.3111 65.5477 80.8761C65.5477 79.4412 66.711 78.2779 68.146 78.2779ZM68.146 90.4501H131.093C132.528 90.4501 133.691 91.6134 133.691 93.0483C133.691 94.4833 132.528 95.6466 131.093 95.6466H68.146C66.711 95.6466 65.5477 94.4833 65.5477 93.0483C65.5477 91.6134 66.711 90.4501 68.146 90.4501ZM131.093 102.622H68.146C66.711 102.622 65.5477 103.786 65.5477 105.221C65.5477 106.656 66.711 107.819 68.146 107.819H131.093C132.528 107.819 133.691 106.656 133.691 105.221C133.691 103.786 132.528 102.622 131.093 102.622ZM68.146 114.794H131.093C132.528 114.794 133.691 115.958 133.691 117.393C133.691 118.828 132.528 119.991 131.093 119.991H68.146C66.711 119.991 65.5477 118.828 65.5477 117.393C65.5477 115.958 66.711 114.794 68.146 114.794Z" fill="#D7D7D7"/>
<path d="M106.285 78.2362H68.146V78.3196H106.285V78.2362ZM108.925 80.8761C108.925 79.4182 107.743 78.2362 106.285 78.2362V78.3196C107.697 78.3196 108.842 79.4642 108.842 80.8761H108.925ZM106.285 83.5161C107.743 83.5161 108.925 82.3341 108.925 80.8761H108.842C108.842 82.2881 107.697 83.4327 106.285 83.4327V83.5161ZM68.146 83.5161H106.285V83.4327H68.146V83.5161ZM65.5061 80.8761C65.5061 82.3341 66.688 83.5161 68.146 83.5161V83.4327C66.734 83.4327 65.5894 82.2881 65.5894 80.8761H65.5061ZM68.146 78.2362C66.688 78.2362 65.5061 79.4182 65.5061 80.8761H65.5894C65.5894 79.4642 66.734 78.3196 68.146 78.3196V78.2362ZM131.093 90.4084H68.146V90.4918H131.093V90.4084ZM133.733 93.0483C133.733 91.5903 132.551 90.4084 131.093 90.4084V90.4918C132.505 90.4918 133.65 91.6364 133.65 93.0483H133.733ZM131.093 95.6883C132.551 95.6883 133.733 94.5063 133.733 93.0483H133.65C133.65 94.4603 132.505 95.6049 131.093 95.6049V95.6883ZM68.146 95.6883H131.093V95.6049H68.146V95.6883ZM65.5061 93.0483C65.5061 94.5063 66.688 95.6883 68.146 95.6883V95.6049C66.734 95.6049 65.5894 94.4603 65.5894 93.0483H65.5061ZM68.146 90.4084C66.688 90.4084 65.5061 91.5903 65.5061 93.0483H65.5894C65.5894 91.6364 66.734 90.4918 68.146 90.4918V90.4084ZM68.146 102.664H131.093V102.581H68.146V102.664ZM65.5894 105.221C65.5894 103.809 66.734 102.664 68.146 102.664V102.581C66.688 102.581 65.5061 103.763 65.5061 105.221H65.5894ZM68.146 107.777C66.734 107.777 65.5894 106.633 65.5894 105.221H65.5061C65.5061 106.679 66.688 107.86 68.146 107.86V107.777ZM131.093 107.777H68.146V107.86H131.093V107.777ZM133.65 105.221C133.65 106.633 132.505 107.777 131.093 107.777V107.86C132.551 107.86 133.733 106.679 133.733 105.221H133.65ZM131.093 102.664C132.505 102.664 133.65 103.809 133.65 105.221H133.733C133.733 103.763 132.551 102.581 131.093 102.581V102.664ZM131.093 114.753H68.146V114.836H131.093V114.753ZM133.733 117.393C133.733 115.935 132.551 114.753 131.093 114.753V114.836C132.505 114.836 133.65 115.981 133.65 117.393H133.733ZM131.093 120.033C132.551 120.033 133.733 118.851 133.733 117.393H133.65C133.65 118.805 132.505 119.949 131.093 119.949V120.033ZM68.146 120.033H131.093V119.949H68.146V120.033ZM65.5061 117.393C65.5061 118.851 66.688 120.033 68.146 120.033V119.949C66.734 119.949 65.5894 118.805 65.5894 117.393H65.5061ZM68.146 114.753C66.688 114.753 65.5061 115.935 65.5061 117.393H65.5894C65.5894 115.981 66.734 114.836 68.146 114.836V114.753Z" fill="white"/>
<path fill-rule="evenodd" clip-rule="evenodd" d="M74.7917 124.219H79.7917L57.2665 154.768H51.329L74.7917 124.219ZM121.589 124.219H116.589L139.115 154.768H145.052L121.589 124.219Z" fill="#666666"/>
<path fill-rule="evenodd" clip-rule="evenodd" d="M154.47 93.4405L138.016 108.804L121.562 124.167L144.829 154.768H151.137C152.978 154.768 154.47 153.276 154.47 151.435V93.4405ZM116.562 124.167H79.7899L56.9769 154.768H139.454L116.562 124.167ZM58.4146 108.804L41.9606 93.4405V151.435C41.9606 153.276 43.453 154.768 45.294 154.768H51.6022L74.8685 124.167L58.4146 108.804Z" fill="#D7D7D7"/>
<path fill-rule="evenodd" clip-rule="evenodd" d="M149.411 29.7843C149.073 29.7279 148.725 29.8073 148.444 30.0055C148.164 30.2036 147.972 30.5044 147.912 30.8426L146.064 42.167C146.01 42.509 146.093 42.8583 146.293 43.1406C146.393 43.28 146.52 43.3981 146.666 43.4883C146.811 43.5785 146.974 43.639 147.143 43.6663C147.214 43.6716 147.284 43.6716 147.355 43.6663C147.664 43.6675 147.964 43.5579 148.199 43.3573C148.435 43.1567 148.591 42.8783 148.639 42.5727L150.505 31.2801C150.533 31.1111 150.528 30.9383 150.489 30.7715C150.45 30.6047 150.378 30.4472 150.278 30.3082C150.178 30.1691 150.052 30.0513 149.906 29.9613C149.76 29.8714 149.598 29.8112 149.429 29.7843H149.411ZM166.731 39.2349C166.889 39.3003 167.032 39.3964 167.153 39.5176C167.274 39.6394 167.371 39.7839 167.436 39.9429C167.502 40.1019 167.535 40.2723 167.535 40.4444C167.535 40.6164 167.501 40.7866 167.434 40.9454C167.368 41.1042 167.271 41.2484 167.149 41.3697L159.057 49.5013C158.81 49.7444 158.478 49.8806 158.132 49.8806C157.786 49.8806 157.454 49.7444 157.208 49.5013C156.965 49.2557 156.829 48.9242 156.829 48.5788C156.829 48.2334 156.965 47.9019 157.208 47.6563L165.311 39.5211C165.432 39.3991 165.575 39.3023 165.733 39.2363C165.891 39.1703 166.061 39.1364 166.232 39.1366C166.403 39.1361 166.573 39.1695 166.731 39.2349ZM176.991 55.6864C177.093 55.8244 177.166 55.9813 177.207 56.1478C177.29 56.4831 177.236 56.8374 177.058 57.1334C176.88 57.4295 176.593 57.6433 176.258 57.7283L165.121 60.4976C164.953 60.5441 164.777 60.5564 164.604 60.5339C164.431 60.5113 164.265 60.4544 164.114 60.3664C163.964 60.2784 163.832 60.1611 163.728 60.0215C163.623 59.8819 163.548 59.7228 163.506 59.5536C163.464 59.3844 163.456 59.2085 163.484 59.0362C163.511 58.864 163.572 58.699 163.664 58.5508C163.756 58.4027 163.877 58.2745 164.019 58.1739C164.162 58.0732 164.323 58.002 164.493 57.9646L175.627 55.1953C175.793 55.1536 175.966 55.1452 176.136 55.1706C176.305 55.196 176.468 55.2546 176.615 55.3431C176.762 55.4316 176.89 55.5483 176.991 55.6864ZM159.388 68.3329C159.388 79.3432 150.463 88.2687 139.452 88.2687C128.442 88.2687 119.517 79.3432 119.517 68.3329C119.517 57.3227 128.442 48.3971 139.452 48.3971C150.463 48.3971 159.388 57.3227 159.388 68.3329Z" fill="#0A882F"/>
<path d="M135.424 79.1634L127.221 69.4548C126.934 69.1004 126.797 68.6472 126.839 68.1928C126.882 67.7383 127.102 67.3188 127.451 67.0244C127.8 66.73 128.25 66.5843 128.705 66.6186C129.16 66.6528 129.584 66.8643 129.885 67.2076L135.589 73.9704L148.254 60.8998C148.413 60.7326 148.603 60.5986 148.814 60.5055C149.025 60.4123 149.252 60.3619 149.483 60.3572C149.713 60.3524 149.942 60.3935 150.157 60.4779C150.371 60.5623 150.567 60.6884 150.732 60.8489C150.897 61.0094 151.029 61.2011 151.12 61.4129C151.211 61.6248 151.259 61.8525 151.261 62.083C151.263 62.3135 151.22 62.5421 151.133 62.7556C151.046 62.9691 150.918 63.1633 150.756 63.3269L135.424 79.1634Z" fill="white"/>
</svg>
