<svg width="240" height="240" viewBox="0 0 240 240" fill="none" xmlns="http://www.w3.org/2000/svg">
<path opacity="0.05" d="M120 240C186.274 240 240 186.274 240 120C240 53.7258 186.274 0 120 0C53.7258 0 0 53.7258 0 120C0 186.274 53.7258 240 120 240Z" fill="#333333"/>
<path d="M50.3528 112.518L111.788 68.025C114.905 65.7673 119.113 65.742 122.258 67.962L185.364 112.518H50.3528Z" fill="#333333"/>
<path d="M185.364 112.129H50.3528V181.722C50.3528 183.931 52.1436 185.722 54.3528 185.722H181.364C183.574 185.722 185.364 183.931 185.364 181.722V112.129Z" fill="#333333"/>
<path d="M172.114 79.8278H63.6033V177.928H172.114V79.8278Z" fill="white" stroke="white" stroke-width="0.1" stroke-miterlimit="10"/>
<path d="M50.3528 112.129L90.3711 149.061L117.859 148.925L145.795 148.485L185.364 112.129V181.722C185.364 183.931 183.574 185.722 181.364 185.722H55" fill="#666666"/>
<path d="M50.3528 112.129L90.3711 149.061L117.859 148.925L145.795 148.485L185.364 112.129V181.722C185.364 183.931 183.574 185.722 181.364 185.722H55" stroke="white" stroke-width="0.1" stroke-miterlimit="10"/>
<path d="M127.542 93.9335H81.7752C80.0532 93.9335 78.6573 95.3294 78.6573 97.0514C78.6573 98.7733 80.0532 100.169 81.7752 100.169H127.542C129.264 100.169 130.66 98.7733 130.66 97.0514C130.66 95.3294 129.264 93.9335 127.542 93.9335Z" fill="#D7D7D7" stroke="white" stroke-width="0.1" stroke-miterlimit="10"/>
<path d="M157.312 108.54H81.7752C80.0532 108.54 78.6573 109.936 78.6573 111.658C78.6573 113.38 80.0532 114.776 81.7752 114.776H157.312C159.034 114.776 160.43 113.38 160.43 111.658C160.43 109.936 159.034 108.54 157.312 108.54Z" fill="#D7D7D7" stroke="white" stroke-width="0.1" stroke-miterlimit="10"/>
<path d="M157.312 123.147H81.7752C80.0532 123.147 78.6573 124.543 78.6573 126.265C78.6573 127.987 80.0532 129.383 81.7752 129.383H157.312C159.034 129.383 160.43 127.987 160.43 126.265C160.43 124.543 159.034 123.147 157.312 123.147Z" fill="#D7D7D7" stroke="white" stroke-width="0.1" stroke-miterlimit="10"/>
<path d="M157.312 137.753H81.7752C80.0532 137.753 78.6573 139.149 78.6573 140.871C78.6573 142.593 80.0532 143.989 81.7752 143.989H157.312C159.034 143.989 160.43 142.593 160.43 140.871C160.43 139.149 159.034 137.753 157.312 137.753Z" fill="#D7D7D7" stroke="white" stroke-width="0.1" stroke-miterlimit="10"/>
<path d="M212.649 67.3773C212.6 67.1775 212.512 66.9893 212.39 66.8236C212.268 66.6579 212.114 66.5179 211.938 66.4117C211.762 66.3055 211.566 66.2352 211.363 66.2047C211.159 66.1743 210.952 66.1843 210.752 66.2343L197.392 69.5575C197.187 69.6024 196.994 69.6878 196.823 69.8086C196.652 69.9295 196.507 70.0833 196.397 70.261C196.287 70.4388 196.213 70.6368 196.18 70.8435C196.148 71.0501 196.157 71.2612 196.207 71.4643C196.258 71.6674 196.348 71.8583 196.473 72.0259C196.599 72.1934 196.756 72.3341 196.937 72.4397C197.118 72.5453 197.318 72.6136 197.525 72.6406C197.733 72.6677 197.943 72.6529 198.145 72.5971L211.51 69.2739C211.912 69.1719 212.257 68.9154 212.47 68.5601C212.683 68.2049 212.747 67.7798 212.649 67.3773Z" fill="#0A882F"/>
<path d="M200.584 47.4211C200.439 47.2757 200.266 47.1604 200.077 47.0819C199.887 47.0034 199.684 46.9633 199.479 46.9639C199.273 46.9636 199.069 47.0043 198.88 47.0835C198.69 47.1628 198.518 47.2789 198.374 47.4253L188.65 57.1875C188.358 57.4823 188.195 57.8801 188.195 58.2946C188.195 58.7091 188.358 59.1068 188.65 59.4016C188.945 59.6932 189.344 59.8567 189.759 59.8567C190.174 59.8567 190.572 59.6932 190.868 59.4016L200.579 49.6436C200.726 49.498 200.842 49.325 200.921 49.1345C201.001 48.944 201.042 48.7396 201.042 48.5332C201.043 48.3268 201.002 48.1223 200.924 47.9315C200.845 47.7407 200.729 47.5672 200.584 47.4211Z" fill="#0A882F"/>
<path d="M179.294 35.7411C178.887 35.6734 178.47 35.7688 178.133 36.0065C177.796 36.2443 177.567 36.6053 177.495 37.0111L175.276 50.6004C175.212 51.0108 175.311 51.4299 175.551 51.7688C175.672 51.9359 175.824 52.0777 175.999 52.186C176.174 52.2942 176.368 52.3668 176.572 52.3996C176.656 52.4059 176.741 52.4059 176.826 52.3996C177.197 52.401 177.557 52.2695 177.839 52.0287C178.122 51.788 178.309 51.454 178.367 51.0872L180.606 37.5361C180.64 37.3334 180.633 37.1259 180.587 36.9258C180.54 36.7256 180.454 36.5367 180.334 36.3698C180.214 36.203 180.062 36.0615 179.887 35.9536C179.712 35.8457 179.518 35.7735 179.315 35.7411H179.294Z" fill="#0A882F"/>
<path fill-rule="evenodd" clip-rule="evenodd" d="M50.3528 112.129V181.722C50.3528 183.931 52.1436 185.722 54.3528 185.722H62.4391L90.3711 149.061L50.3528 112.129Z" fill="#D7D7D7"/>
<path fill-rule="evenodd" clip-rule="evenodd" d="M139.559 148.413L96.1624 148.925L68.3744 185.722H167.347L139.559 148.413Z" fill="#D7D7D7"/>
<path fill-rule="evenodd" clip-rule="evenodd" d="M185.364 112.129L145.278 148.485L173.795 185.722H181.364C183.574 185.722 185.364 183.931 185.364 181.722V112.129Z" fill="#D7D7D7"/>
<path d="M167.343 105.922C180.555 105.922 191.266 95.2118 191.266 81.9995C191.266 68.7872 180.555 58.0766 167.343 58.0766C154.131 58.0766 143.42 68.7872 143.42 81.9995C143.42 95.2118 154.131 105.922 167.343 105.922Z" fill="#0A882F"/>
<path d="M162.508 94.9961L152.666 83.3457C152.32 82.9204 152.156 82.3767 152.207 81.8313C152.259 81.2859 152.522 80.7825 152.941 80.4293C153.359 80.076 153.9 79.9012 154.446 79.9423C154.992 79.9834 155.501 80.2371 155.862 80.6491L162.707 88.7645L177.905 73.0797C178.096 72.8791 178.324 72.7183 178.577 72.6065C178.83 72.4948 179.103 72.4343 179.379 72.4286C179.656 72.4229 179.93 72.4721 180.188 72.5734C180.445 72.6747 180.68 72.826 180.878 73.0186C181.077 73.2112 181.235 73.4413 181.344 73.6955C181.453 73.9497 181.511 74.223 181.513 74.4996C181.516 74.7761 181.464 75.0505 181.359 75.3067C181.255 75.5629 181.101 75.796 180.907 75.9923L162.508 94.9961Z" fill="white"/>
</svg>
