<svg width="86" height="62" viewBox="0 0 86 62" fill="none" xmlns="http://www.w3.org/2000/svg">
<path d="M11.99 56.3516V4.0788C11.99 2.31492 13.2847 0.903809 14.8828 0.903809H87.2445C88.832 0.903809 90.1372 2.32903 90.1372 4.0788V56.3533L11.99 56.3516Z" fill="#464646"/>
<path d="M15.6819 5.34705H86.4454V52.5469H15.6819V5.34705Z" fill="white"/>
<path d="M5.45659 61.668H96.6707C99.2795 61.668 101.396 59.2903 101.396 56.3569H0.73114C0.73114 59.2867 2.84604 61.668 5.45659 61.668Z" fill="#B9B9B9"/>
<path d="M33.6752 28.1047H60.5181C60.8794 28.0973 61.2232 27.9475 61.4746 27.6878C61.726 27.4282 61.8646 27.0797 61.8604 26.7183V12.6743C61.8651 12.3127 61.7266 11.964 61.4751 11.7043C61.2236 11.4445 60.8795 11.2948 60.5181 11.2878H25.6989C25.3374 11.2948 24.9934 11.4445 24.7419 11.7043C24.4904 11.964 24.3519 12.3127 24.3566 12.6743V26.7183C24.3524 27.0797 24.491 27.4282 24.7424 27.6878C24.9938 27.9475 25.3376 28.0973 25.6989 28.1047H28.2513L32.4193 30.777L32.5146 28.0359L33.6752 28.1047Z" fill="#C3C3C3"/>
<path d="M57.1914 15.5476H28.8528V16.71H57.1914V15.5476Z" fill="white"/>
<path d="M57.1914 18.1758H28.8528V19.3382H57.1914V18.1758Z" fill="white"/>
<path d="M47.2131 20.8058H28.8528V21.9682H47.2131V20.8058Z" fill="white"/>
<path d="M69.02 37.3757H42.1207C41.7588 37.3692 41.4141 37.2198 41.1619 36.96C40.9098 36.7003 40.7706 36.3513 40.7749 35.9893V21.9453C40.7706 21.5833 40.9098 21.2343 41.1619 20.9745C41.4141 20.7148 41.7588 20.5653 42.1207 20.5588H77.0157C77.3776 20.5653 77.7223 20.7148 77.9745 20.9745C78.2266 21.2343 78.3658 21.5833 78.3615 21.9453V35.9893C78.3658 36.3513 78.2266 36.7003 77.9745 36.96C77.7223 37.2198 77.3776 37.3692 77.0157 37.3757H74.458L70.2829 40.048L70.1877 37.3069L69.02 37.3757Z" fill="#73BE00"/>
<path d="M73.0205 25.0637H45.7702V26.4149H73.0205V25.0637Z" fill="white"/>
<path d="M73.0205 28.1188H45.7702V29.4699H73.0205V28.1188Z" fill="white"/>
<path d="M63.4267 31.1757H45.7702V32.5268H63.4267V31.1757Z" fill="white"/>
<path d="M67.1679 48.5658C66.8415 48.5651 66.5227 48.4677 66.2516 48.2858C65.9806 48.104 65.7695 47.8459 65.6451 47.5442C65.5207 47.2424 65.4885 46.9106 65.5526 46.5905C65.6167 46.2705 65.7742 45.9767 66.0053 45.7461C66.2363 45.5156 66.5305 45.3587 66.8506 45.2953C67.1708 45.2318 67.5026 45.2647 67.8041 45.3898C68.1055 45.5149 68.3632 45.7265 68.5444 45.9979C68.7257 46.2693 68.8224 46.5884 68.8224 46.9148C68.8222 47.1318 68.7792 47.3467 68.696 47.5471C68.6127 47.7476 68.4908 47.9296 68.3371 48.083C68.1835 48.2363 68.0012 48.3578 67.8005 48.4407C67.5999 48.5235 67.385 48.566 67.1679 48.5658Z" fill="#808080"/>
<path d="M71.3466 48.5658C71.0202 48.5651 70.7013 48.4677 70.4303 48.2858C70.1592 48.104 69.9482 47.8459 69.8238 47.5442C69.6993 47.2424 69.6671 46.9106 69.7313 46.5905C69.7954 46.2705 69.9529 45.9767 70.1839 45.7461C70.4149 45.5156 70.7091 45.3587 71.0293 45.2953C71.3495 45.2318 71.6812 45.2647 71.9827 45.3898C72.2842 45.5149 72.5418 45.7265 72.7231 45.9979C72.9043 46.2693 73.0011 46.5884 73.0011 46.9148C73.0009 47.1318 72.9579 47.3467 72.8746 47.5471C72.7913 47.7476 72.6694 47.9296 72.5158 48.083C72.3621 48.2363 72.1798 48.3578 71.9792 48.4407C71.7786 48.5235 71.5636 48.566 71.3466 48.5658Z" fill="#808080"/>
<path d="M75.4229 48.5658C75.0965 48.5651 74.7777 48.4677 74.5066 48.2858C74.2356 48.104 74.0245 47.8459 73.9001 47.5442C73.7757 47.2424 73.7435 46.9106 73.8076 46.5905C73.8717 46.2705 74.0292 45.9767 74.2602 45.7461C74.4913 45.5156 74.7855 45.3587 75.1056 45.2953C75.4258 45.2318 75.7576 45.2647 76.059 45.3898C76.3605 45.5149 76.6182 45.7265 76.7994 45.9979C76.9807 46.2693 77.0774 46.5884 77.0774 46.9148C77.0765 47.353 76.9018 47.7729 76.5916 48.0824C76.2814 48.392 75.8611 48.5658 75.4229 48.5658Z" fill="#808080"/>
</svg>
