<svg width="156" height="156" viewBox="0 0 156 156" fill="none" xmlns="http://www.w3.org/2000/svg">
<path d="M78 156C121.078 156 156 121.078 156 78C156 34.9218 121.078 0 78 0C34.9218 0 0 34.9218 0 78C0 121.078 34.9218 156 78 156Z" fill="black" fill-opacity="0.03"/>
<path d="M26.975 65.9502C26.975 52.1431 38.1679 40.9502 51.975 40.9502H104.025C117.832 40.9502 129.025 52.1431 129.025 65.9502V94.7377C129.025 103.802 121.677 111.15 112.612 111.15V128.352C112.612 129.772 110.951 130.542 109.868 129.624L88.075 111.15H51.975C38.1679 111.15 26.975 99.9573 26.975 86.1502V65.9502Z" fill="white"/>
<path d="M83.0723 77.3466L93.1639 67.2728C93.8384 66.6015 94.2186 65.6899 94.2209 64.7383C94.2233 63.7867 93.8475 62.8732 93.1763 62.1986C92.505 61.5241 91.5933 61.1439 90.6418 61.1416C89.6902 61.1392 88.7767 61.515 88.1021 62.1863L78.0106 72.2778L67.9261 62.1863C67.5921 61.8523 67.1956 61.5873 66.7592 61.4066C66.3229 61.2258 65.8552 61.1328 65.3828 61.1328C64.9105 61.1328 64.4428 61.2258 64.0064 61.4066C63.5701 61.5873 63.1736 61.8523 62.8396 62.1863C62.5056 62.5202 62.2407 62.9167 62.0599 63.3531C61.8792 63.7895 61.7861 64.2572 61.7861 64.7295C61.7861 65.2018 61.8792 65.6695 62.0599 66.1059C62.2407 66.5423 62.5056 66.9388 62.8396 67.2728L72.9312 77.3608L62.8396 87.4488C62.1684 88.1233 61.7926 89.0369 61.7949 89.9885C61.7972 90.94 62.1775 91.8517 62.852 92.5229C63.5265 93.1942 64.44 93.57 65.3916 93.5676C66.3432 93.5653 67.2549 93.1851 67.9261 92.5105L78.0141 82.419L88.1021 92.5105C88.7859 93.1165 89.6752 93.4386 90.5884 93.4111C91.5015 93.3836 92.3698 93.0085 93.0158 92.3625C93.6619 91.7165 94.0369 90.8482 94.0644 89.935C94.0919 89.0218 93.7698 88.1326 93.1639 87.4488L83.0723 77.3466Z" fill="#CC0000"/>
</svg>
