<svg id="Ebene_1" data-name="Ebene 1" xmlns="http://www.w3.org/2000/svg" viewBox="0 0 240 240"><defs><style>.cls-1{fill:#3f88c5;fill-rule:evenodd;opacity:0.2;}.cls-2{fill:#fff;}.cls-3{fill:#353a4a;}.cls-4{fill:#80dd8a;}</style></defs><title>_</title><path class="cls-1" d="M229,142.89a.85.85,0,0,0-.63-.29l-108.27.53-101.21-.38-.19,0c-.46.11-2.65-1.17-4.74-.5-.34.11-.56,2.24-.56,2.59v1.66a.8.8,0,0,0,.76.81c1.38.09,3.15.13,5.38.11,7.83,0,16-.06,24.25-.06a.55.55,0,0,1,.18,0c.29.06.47.15.76.22h.17c17.61,0,44.91-.12,75.2-.19,30.52.07,57.67.19,75.28.19a4.36,4.36,0,0,0,.8-.18.68.68,0,0,1,.28-.07c8.19,0,16.38.07,24.2.06C232,147.43,229.89,143.94,229,142.89Z"/><path class="cls-2" d="M73.92,143.12H16.71c-3.62,0-6.56-2.25-6.56-5V87.29c0-2.77,2.94-5,6.56-5H223.18c3.62,0,6.56,2.24,6.56,5V138.1c0,2.77-2.94,5-6.56,5h-13l4.7,13.41-24.55-13.41h-103"/><path class="cls-2" d="M88.09,142.9c1-.16,2-.31,3.08-.41s2.28-.17,3.42-.24h95.57a2.06,2.06,0,0,1,.43,0l.39.21,1.72.94,3.41,1.86,13.63,7.44,3.12,1.71.29.15.07,0s0,0,0-.06l-.06-.16L211,148.19l-1.39-4-.59-1.69-.08-.21c0-.06-.08-.16,0-.13h11.71a29.92,29.92,0,0,0,3.73-.1,6.27,6.27,0,0,0,3-1.34,3.49,3.49,0,0,0,1.36-2.64V118.68l0-31.05c.18-2.17-1.86-3.79-4.07-4.23a8.13,8.13,0,0,0-1.73-.16H201.72l-30.92,0L109,83.3l-61.84,0-30.85,0a6.69,6.69,0,0,0-3.15,1,4,4,0,0,0-1.82,2.33,3.24,3.24,0,0,0-.08.72v50.74a3.83,3.83,0,0,0,.07.58,3.63,3.63,0,0,0,1.37,2,6.16,6.16,0,0,0,2.49,1.13,7.34,7.34,0,0,0,1.41.16H72.49c.2,0,.39,0,.59,0a.88.88,0,0,1,.74,1.27,1.13,1.13,0,0,1-1.08.69h-56a9.26,9.26,0,0,1-3.55-.71A7,7,0,0,1,10.22,141a5.41,5.41,0,0,1-.82-1.79,4.81,4.81,0,0,1-.13-1c0-.32,0-.56,0-.84V87.56c0-.18,0-.41,0-.66a3.59,3.59,0,0,1,.11-.72,5,5,0,0,1,.52-1.32,6.27,6.27,0,0,1,1.86-2,8.7,8.7,0,0,1,5-1.49H59.05l75.27,0,73.73,0h15a11.05,11.05,0,0,1,1.27.07,9.24,9.24,0,0,1,2.5.66,6.47,6.47,0,0,1,3.7,3.79,4.8,4.8,0,0,1,.23,1.42V99.91l0,36.86V138c0,.18,0,.48,0,.72s-.09.49-.15.74a5.63,5.63,0,0,1-1.49,2.46,8.2,8.2,0,0,1-4.91,2.19c-.92.08-1.69,0-2.49.06h-10s-.07,0,0,0l1.25,3.56,1.58,4.52,1.12,3.21.77,2.18.37,1.08-1-.56L197.08,148l-4.2-2.29-2.1-1.15c-.32-.17-.84-.46-.72-.38H97c-.57,0-1.14,0-1.72,0-1.33-.05-2.65-.16-4-.28-1.11-.1-2.21-.27-3.31-.42a3.39,3.39,0,0,1-.61-.21v-.13A3.06,3.06,0,0,1,88.09,142.9Z"/><path class="cls-3" d="M87.38,143.17a3.06,3.06,0,0,1,.71-.27c1-.16,2-.31,3.08-.41s2.28-.17,3.42-.24h95.57a2.06,2.06,0,0,1,.43,0l.39.21,1.72.94,3.41,1.86,13.63,7.44,3.12,1.71.29.15.07,0s0,0,0-.06l-.06-.16L211,148.19l-1.39-4-.59-1.69-.08-.21c0-.06-.08-.16,0-.13h11.71a29.92,29.92,0,0,0,3.73-.1,6.27,6.27,0,0,0,3-1.34,3.49,3.49,0,0,0,1.36-2.64V118.68l0-31.05c.18-2.17-1.86-3.79-4.07-4.23a8.13,8.13,0,0,0-1.73-.16H201.72l-30.92,0L109,83.3l-61.84,0-30.85,0a6.69,6.69,0,0,0-3.15,1,4,4,0,0,0-1.82,2.33,3.24,3.24,0,0,0-.08.72v50.74a3.83,3.83,0,0,0,.07.58,3.63,3.63,0,0,0,1.37,2,6.16,6.16,0,0,0,2.49,1.13,7.34,7.34,0,0,0,1.41.16H72.49c.2,0,.39,0,.59,0a.88.88,0,0,1,.74,1.27,1.13,1.13,0,0,1-1.08.69h-56a9.26,9.26,0,0,1-3.55-.71A7,7,0,0,1,10.22,141a5.41,5.41,0,0,1-.82-1.79,4.81,4.81,0,0,1-.13-1c0-.32,0-.56,0-.84V87.56c0-.18,0-.41,0-.66a3.59,3.59,0,0,1,.11-.72,5,5,0,0,1,.52-1.32,6.27,6.27,0,0,1,1.86-2,8.7,8.7,0,0,1,5-1.49H59.05l75.27,0,73.73,0h15a11.05,11.05,0,0,1,1.27.07,9.24,9.24,0,0,1,2.5.66,6.47,6.47,0,0,1,3.7,3.79,4.8,4.8,0,0,1,.23,1.42V99.91l0,36.86V138c0,.18,0,.48,0,.72s-.09.49-.15.74a5.63,5.63,0,0,1-1.49,2.46,8.2,8.2,0,0,1-4.91,2.19c-.92.08-1.69,0-2.49.06h-10s-.07,0,0,0l1.25,3.56,1.58,4.52,1.12,3.21.77,2.18.37,1.08-1-.56L197.08,148l-4.2-2.29-2.1-1.15c-.32-.17-.84-.46-.72-.38H97c-.57,0-1.14,0-1.72,0-1.33-.05-2.65-.16-4-.28-1.11-.1-2.21-.27-3.31-.42a3.39,3.39,0,0,1-.61-.21Z"/><path class="cls-3" d="M73.12,125.36c-.25-1.31-.47-2.69-.58-3.78l-.07-.8-.26-.62-.87-5.64-.51-3.61-.22-1.31-.33-2a11.3,11.3,0,0,1-.25-1.49,8.68,8.68,0,0,1-.11-1.31L69.56,103l-.08-.22a19.27,19.27,0,0,1-.32-2.69.64.64,0,0,1,.62-.84c.54-.07.94,0,1.2,1.42l.21,1.06a5.93,5.93,0,0,1,.26,1.42c.14,1,.33,2.11.47,3.16.11.55.15,1,.18,1.17l.19,1.27.83,5.5.26,1.78,0,.4.11.87c0,.26.11.91.11.91l.47,1.93.15,1a2.13,2.13,0,0,0,.07.37l.15-1.06c.11-.94.22-2,.36-2.87.08-.62.18-1.24.33-1.9s.29-1.23.4-1.89.18-1.56.26-2.33c.18-1.16.43-2.47.69-3.67l.4-2.22.11-.91.14-1c0-.07,0-.22,0-.25,0-.22.07-.29.18-.77l0,.08.15-.69c0-.19,0-.33.11-.66,0-.14.07-.29.07-.4a12.13,12.13,0,0,1,.4-1.16.7.7,0,0,1,1-.37c.25.15.47.26.4,1.06a7.87,7.87,0,0,1-.15,1.16l-.14.91-.07.29-.11.29c-.08.73-.18,1.46-.26,2.19l-.18,1c-.15,1-.29,2.07-.47,3.06-.22,1.34-.51,2.65-.73,4l-.11.72-.11.73c0,.29-.14.8-.25,1.27a18.63,18.63,0,0,0-.33,2,8.31,8.31,0,0,1-.26,2.07l-.14.84-.33,1.85a9.89,9.89,0,0,1-.25,1.38l-.18,1.06c-.3.91-.51,1.31-.88,1.38-1.05.29-1.24-.4-1.31-.94Z"/><path class="cls-3" d="M84.8,100.29a.68.68,0,0,1,.4-.77c.77-.21,1.2-.21,1.31.55,0,1.42-.07,3.53-.07,5v1.31c0,.47,0,.87,0,1.31s0,.84,0,1.2,0,.87,0,1.2,0,.73,0,1.13,0,.91,0,1.35c0,.61,0,1.23,0,1.85s0,1.24,0,1.86v5c0,1.68,0,3.42,0,5.1-.07.69-.36.65-.69.73s-1,0-.94-.77a1.72,1.72,0,0,1,0-.43c0-1.61-.07-3.06-.07-4.55l0-3v-1.6a12.34,12.34,0,0,0,0-1.6c0-.58,0-1.16,0-1.71v-.73c0-.47,0-1.42,0-1.74-.07-1.82-.07-4.22-.07-6v-.69c0-.94,0-2.44.07-3.46Z"/><path class="cls-3" d="M99.32,99.74a.63.63,0,0,1,.25.84c-.11.33,0,.51-.8.58h-.14l-.8-.07-3.9.11a.25.25,0,0,1-.14,0v.29a5.77,5.77,0,0,1,0,.83,3,3,0,0,0,0,.48v2c0,.4,0,1,0,1.38v.15a7.64,7.64,0,0,0,0,1.13c0,.29.07.91.07,1.6v2.8c0,.47,0,.91,0,1.27h.33l1.42,0c.07,0,.11,0,.22,0,.51,0,1.38,0,1.74,0,.51,0,.59.51.55.91s-.22.77-.77.77c-.21,0-.76,0-1.41.07s-1.5.07-2,.07v.88c0,1.78,0,3.67-.11,5.46v.25c0,.11,0,.22,0,.33,0,.32,0,.65,0,.94,0,.91,0,1.35,0,2.33l1.38.15,3.6-.11c.44.11.69,0,.73.65.11.84-.36,1.1-1,1a14.27,14.27,0,0,0-1.71,0c-.58,0-1.42,0-2,0a17.06,17.06,0,0,1-2-.08c-.33,0-.4-.14-.66-.51a13.35,13.35,0,0,1-.1-2.69v-1.78c0-.55,0-.91.07-2.11V107.46a21.21,21.21,0,0,1,0-2.26c0-.76,0-2.22,0-3V102a7.11,7.11,0,0,1,0-1.71c0-.4.07-.58.65-.69l.55,0a11.47,11.47,0,0,1,2.22-.11c.29,0,1.27,0,1.53,0a9.63,9.63,0,0,1,2,.11Z"/><path class="cls-3" d="M105.14,126.82a1.54,1.54,0,0,1-.33-.95,12.92,12.92,0,0,0,0-1.71,7.17,7.17,0,0,1,0-1v-.91c0-.51,0-1.39,0-1.86,0-.94,0-2,.08-3,0-.36,0-1,0-1.38v-.8l.08-1.09v-.87c0-.77,0-2,0-2.92v-4.25c-.07-.51-.11-1.79-.11-2.4a19.38,19.38,0,0,1,.07-3c0-.26,0-.55,0-.8.15-.77.62-.69,1-.69s.72.18.72.83l-.11,1.31c0,.62.08,2,.11,2.66s.08,1.09.08,1.67a12.86,12.86,0,0,1,.07,1.64v1.82c0,2.29-.11,5.17-.26,7.68,0,.65,0,2,0,2.62,0,.36,0,.73,0,1.13v.91c0,.87,0,1.49.07,2.14v.11a12.35,12.35,0,0,1,.07,1.28l1,.07c.11,0,.33,0,.55,0,.55,0,1.46,0,1.67,0l1.28,0a.7.7,0,0,1,.73.8c0,.48-.19.88-1,.88a6.19,6.19,0,0,1-.84,0c-.43,0-.83,0-1.23,0Z"/><path class="cls-3" d="M123.3,99.74a.64.64,0,0,1,.25.84c-.11.33,0,.51-.8.58h-.14l-.8-.07-3.9.11a.25.25,0,0,1-.14,0v.29a5.77,5.77,0,0,1,0,.83,2.25,2.25,0,0,0,0,.48v2c0,.4,0,1,0,1.38v.15a10.17,10.17,0,0,0,0,1.13,13.79,13.79,0,0,1,.08,1.6v2.8c0,.47,0,.91,0,1.27h.33l1.42,0c.07,0,.11,0,.21,0,.51,0,1.39,0,1.75,0,.51,0,.58.51.55.91s-.22.77-.77.77c-.22,0-.76,0-1.42.07s-1.49.07-2,.07v.88c0,1.78,0,3.67-.11,5.46v.25c0,.11,0,.22,0,.33,0,.32,0,.65,0,.94,0,.91,0,1.35,0,2.33l1.38.15,3.6-.11c.44.11.69,0,.73.65.11.84-.36,1.1-1,1a14.22,14.22,0,0,0-1.71,0c-.59,0-1.42,0-2,0a17,17,0,0,1-2-.08c-.33,0-.4-.14-.66-.51a14.12,14.12,0,0,1-.11-2.69v-1.78c0-.55,0-.91.08-2.11V107.46a21.21,21.21,0,0,1,0-2.26c0-.76,0-2.22,0-3V102a6.63,6.63,0,0,1,0-1.71c0-.4.07-.58.65-.69l.55,0a11.47,11.47,0,0,1,2.22-.11c.29,0,1.27,0,1.52,0a9.69,9.69,0,0,1,2,.11Z"/><path class="cls-3" d="M130.17,126.27c-.21.84-1.63.84-1.67-.11l-.11-2.47v-1.75c0-.62,0-1.31,0-1.93v-1.85c0-.3,0-.66,0-1,0-1.2,0-2.73,0-3.68,0-.65,0-1.67-.07-2.54a10.27,10.27,0,0,1,0-1.57c0-.18,0-.4,0-.58s0-.69,0-1v-.18c0-.11,0-.22,0-.29a11.14,11.14,0,0,1,0-1.53v-4.22c0-.36,0-.84,0-1.2,0,0,.36-1,.62-1,.73-.15.94.65.94.65.19.66.3,1.2.44,1.57l.11.43.22.69a6.3,6.3,0,0,1,.36,1.42c0,.22.11.73.11.66.29.69.55,1.89.84,2.62l1.13,3.82.76,2.84.33.94c.14.51.29,1.13.47,1.64s.26,1,.44,1.42l.72,2.47.11.44v-1.16c0-.66,0-1.35,0-2,0-1.2-.08-2.77-.08-4v-1.45l-.1-1.49c0-.66,0-1.39,0-2.11,0-.48,0-.95,0-1.42l0-.69c0-.73-.08-2.19-.08-3,0-1.09,0-2.55,0-3.64,0-.55.32-.84.69-.84s.76,0,.87.73l.11,2.37c0,1.16.07,2.51.07,3.67l0,1.57v2.4l.11,5.27.11,3.64c0,.58,0,1.39,0,2v1.09c0,.4,0,.76,0,1.13a19.76,19.76,0,0,1-.18,2.94c0,.22-.26.59-.95.59-.36,0-.76-.55-.87-.84a4.22,4.22,0,0,1-.29-1.06l-.22-.69a5.62,5.62,0,0,1-.25-.76c-.11-.29-.19-.55-.26-.8-.33-1-.55-1.49-.73-2l-.22-.88-1.09-4.18v0l-.14-.48-.11-.43a1.12,1.12,0,0,1-.29-.7c-.19-.47-.37-1.27-.51-1.71a4.44,4.44,0,0,0-.18-.83c-.15-.55-.33-1.09-.48-1.64l-.25-.76-.07-.37s-.08,0-.08-.07l-.18-.58c-.11-.29-.25-.55-.33-.84,0,.22,0,.44,0,.55v.51c0,.18,0,.36,0,.47,0,.47,0,.94,0,1.38v.73c0,.47,0,1.13.07,1.6a17.71,17.71,0,0,1,0,1.93v4c0,.26,0,.51,0,.73v.73c0,.25,0,.47,0,.72v2.15c0,.58,0,1.17,0,1.75s.07,1.2.07,1.78Z"/><path class="cls-3" d="M155,99.27l.7.25a17.76,17.76,0,0,1,2.94,2,4.79,4.79,0,0,1,1.5,2l.18.3a8,8,0,0,1,.83,1.49,20.26,20.26,0,0,1,1,5.09,19,19,0,0,1,.08,2.15,8.47,8.47,0,0,0,.11,1.93,28.73,28.73,0,0,1-.51,5.53,9.77,9.77,0,0,1-2.37,4.58l-.25.22-.48.51a7.5,7.5,0,0,1-2.29,1.35l-.62.25-.51.18.08,0c-.37.11-.26.07-.26.07l-.62-.11c-.47-.18-.65-.91-.65-.91l-.11-1.16c0-.8,0-1.71.07-2.51a15.34,15.34,0,0,0,0-1.93c0-.48,0-1.09,0-1.53,0-.22,0-.4,0-.58,0-.66-.07-1.53,0-2.11v0c0-.76-.07-1.49-.1-2.29a14.11,14.11,0,0,1-.08-2.18,11.13,11.13,0,0,1,0-1.53c0-.44,0-.91,0-1.42l-.11-1.78c0-.66.07-1.39.11-2s.07-1.6.07-2.26c0-.4,0-.83,0-1.23a10.13,10.13,0,0,1,0-1.35c0-.11.07-.4.07-.47s-.14-.62.77-.55Zm.33,14.88c0,.77,0,1.53.08,2.33,0,1.17.07,2.4.07,3.57,0,.43,0,.8,0,1.23a18.9,18.9,0,0,1,.08,2.52c0,.29,0,.72,0,1.12a4.65,4.65,0,0,0,.73-.22l.33-.18.51-.32a3.81,3.81,0,0,0,1-.77l1-1.35c.08-.21.26-.58.33-.72l.29-.58c.15-.51.33-1.61.48-2.48l.1-.51s0-.11,0-.14a.52.52,0,0,1,0-.33c0-.66,0-1.35.07-2s.07-1.56,0-2.33a19.39,19.39,0,0,0-.26-3.78l-.07-.62c0-.36-.29-1.13-.44-1.86l-.22-.87a7.9,7.9,0,0,0-1.82-2.77l-.29-.29-.25-.18.07,0-.8-.58c-.36-.19-.65-.48-1-.66,0,.47-.07,1-.07,1.46,0,1-.07,2.51-.15,3.53,0,.36,0,1,0,1.45s0,1,0,1.49a6,6,0,0,0,0,1.2c0,.4,0,.84,0,1.2Z"/><path class="cls-3" d="M172.89,106.58l.33,2.19.43,2.14.37,2.84v0l.55,2.8.25,1,.33,2.08.32,2.29.11.58a29.18,29.18,0,0,1,.59,3.24.86.86,0,0,1,0,.29c0,.4.11.77-.8.84a.9.9,0,0,1-.8-.47l-.4-2.41v0l-.55-2.62-.18-1.16c0-.11,0-.19,0-.26a1.72,1.72,0,0,0,0-.18l-.36-2.48v0l-.51-2.44c-.55,0-1.06.08-1.6.08a7,7,0,0,1-1-.08c-.36,0-.25-.11-.73-.11-.14.8-.25,1.57-.36,2.41l-.26,1.6a9.32,9.32,0,0,1-.43,2.11.83.83,0,0,0,0,.29l-.11.54c0,.19-.11.95-.25,1.64-.11.51-.22,1-.22,1l-.07.77v.22c-.08.61-.11,1.49-.91,1.49-.44,0-1-.07-.8-.88,0-.14,0-.25,0-.43v-.18a37.67,37.67,0,0,1,.91-5.28l.22-1.75.29-1.45c0-.11,0-.29,0-.37l.4-2.8.43-3c.11-.84.3-1.78.4-2.62a11,11,0,0,1,.26-1.42l.14-.55.19-.87.11-1a26.49,26.49,0,0,1,.47-3.06c0-.84.33-2,1.13-2.11.4,0,.91.66,1,.91l.14,1.27c.08.66.26,1.28.37,1.9l.33,1.89C172.71,105.67,172.82,106.11,172.89,106.58Zm-.91,4.7v-.44c-.18-.8-.36-1.85-.58-2.69l-.4-2-.18-1.2,0,.18c0,.15,0,.33,0,.48l-.76,4.07v0a14.53,14.53,0,0,1-.25,1.75c0,.44-.11.69-.3,1.86l.84.07h1.13c.47,0,.29,0,.87,0Z"/><path class="cls-3" d="M182.79,126.27c-.22.84-1.64.84-1.68-.11l-.11-2.47v-1.75c0-.62,0-1.31,0-1.93v-1.85c0-.3,0-.66,0-1,0-1.2,0-2.73,0-3.68,0-.65,0-1.67-.07-2.54a13.69,13.69,0,0,1,0-1.57c0-.18,0-.4,0-.58a7.47,7.47,0,0,1,0-1v-.18c0-.11,0-.22,0-.29a9.75,9.75,0,0,1,0-1.53v-4.22c0-.36,0-.84,0-1.2,0,0,.37-1,.62-1,.73-.15.95.65.95.65.18.66.29,1.2.43,1.57l.11.43.22.69a6.3,6.3,0,0,1,.36,1.42c0,.22.11.73.11.66.29.69.55,1.89.84,2.62l1.13,3.82.76,2.84.33.94c.15.51.29,1.13.47,1.64s.26,1,.44,1.42l.73,2.47.11.44v-1.16c0-.66,0-1.35,0-2,0-1.2-.07-2.77-.07-4v-1.45l-.11-1.49c0-.66,0-1.39,0-2.11,0-.48,0-.95,0-1.42l0-.69c0-.73-.07-2.19-.07-3,0-1.09,0-2.55,0-3.64,0-.55.33-.84.69-.84s.76,0,.87.73l.11,2.37c0,1.16.08,2.51.08,3.67l0,1.57v2.4l.11,5.27.11,3.64c0,.58,0,1.39,0,2v1.09c0,.4,0,.76,0,1.13a18.5,18.5,0,0,1-.18,2.94c0,.22-.25.59-.94.59-.37,0-.77-.55-.88-.84a4.69,4.69,0,0,1-.29-1.06l-.22-.69a5.62,5.62,0,0,1-.25-.76c-.11-.29-.18-.55-.26-.8-.32-1-.54-1.49-.72-2l-.22-.88-1.09-4.18v0l-.15-.48-.11-.43a1.25,1.25,0,0,1-.29-.7c-.18-.47-.36-1.27-.51-1.71a3.66,3.66,0,0,0-.18-.83c-.15-.55-.33-1.09-.47-1.64l-.26-.76-.07-.37s-.07,0-.07-.07l-.19-.58a7.21,7.21,0,0,1-.32-.84c0,.22,0,.44,0,.55v.51c0,.18,0,.36,0,.47,0,.47,0,.94,0,1.38v.73c0,.47,0,1.13.07,1.6a17.71,17.71,0,0,1,0,1.93v4c0,.26,0,.51,0,.73v.73c0,.25,0,.47,0,.72v2.15c0,.58,0,1.17,0,1.75s.08,1.2.08,1.78Z"/><path class="cls-3" d="M200.43,122.92l-.58-1.31-.29-.62-.44-1L197.85,117v.47a23.24,23.24,0,0,1-.11,3.24c0,.29,0,.54,0,.8v4.15l-.11.65c0,.4-.48.66-.84.58s-.66-.14-.69-.69,0-1-.07-1.53-.08-1.2-.08-1.81A16.73,16.73,0,0,1,196,121v0l.11-2.62c0-.33,0-.84-.07-1.09a10,10,0,0,1,0-1.13,4.3,4.3,0,0,1,0-.65,11.63,11.63,0,0,1,0-1.57l-.22-6.29c0-1.31,0-3.32,0-4.63,0-1,.07-2.14.07-3.12a.83.83,0,0,1,1-.66c.26.07.66.15.66.58,0,.15,0,.18,0,.37v.11c0,.29,0,.61,0,.91a5.77,5.77,0,0,0,0,.83l-.11,3c0,.43.07,1.2.07,1.52v1.1l.11,2.91c0,.14,0,.29,0,.43l.18-.4a21.53,21.53,0,0,1,1.42-3.53l.84-2.65v0c.11-.36.25-.72.36-1.12.26-.66.47-1.21.66-1.61a11.28,11.28,0,0,0,.5-1.23l.19-.33a1.1,1.1,0,0,0,.14-.33c.22-.58.59-.65.91-.54a.86.86,0,0,1,.62.91,4.58,4.58,0,0,1-.87,2.14l-.11.37a8.87,8.87,0,0,1-.47,1.16v0l-.22.55v0c-.19.62-.33,1.68-.55,2.26a5.2,5.2,0,0,1-.51,1.16l-.18.37-.76,1.85c-.26.59-.37.91-.44,1.06-.18.58-.47,1.16-.69,1.75l-.37.76.7,1.71.21.44c.15.43.29.8.44,1.2l.22.51.11.32c.43,1.13.83,2,1.09,2.52a9.29,9.29,0,0,1,.65,1.42l.22.54.69,1.82.33.91a2.72,2.72,0,0,1,.33,1c.18.47-.26.76-.51.87s-.73,0-1.06-.62l-.36-.76-.76-2.15Z"/><path class="cls-3" d="M210.59,125.25l.07.18a1.19,1.19,0,0,1,0,.62.84.84,0,0,1-.54.73s-.44.07-.58.07h-.26a1.29,1.29,0,0,1-.83-.8s.4-1.35,1.05-1.38A.84.84,0,0,1,210.59,125.25Zm-1-25.58c.37,0,.8,0,.8.76.11,1.71.15,3.42.15,4.95,0,1.28,0,2.51-.07,3.79s-.08,2.84-.08,4.11c0,.51,0,1,.08,1.42a17.72,17.72,0,0,1,0,1.93v2.14c0,.77,0,1.61,0,2.37s-.51.76-.88.76-.76-.07-.76-.91,0-1.49,0-2.25v-2.19c0-.51,0-1.09-.08-1.63s0-1.13,0-1.68c.07-1.45.07-2.91.07-4.36,0-2.15,0-4.26-.11-6.41a8.62,8.62,0,0,1,0-1v-.77C208.77,99.71,209.17,99.63,209.6,99.67Z"/><ellipse class="cls-4" cx="38.57" cy="113.76" rx="15.37" ry="14.85"/><path class="cls-2" d="M51.31,122.33a12.79,12.79,0,0,1-4.22,5.21,2.83,2.83,0,0,1-.28.2A15.06,15.06,0,0,1,44.27,129a14.5,14.5,0,0,1-4.75,1,14.9,14.9,0,0,1-4.79-.69,17.8,17.8,0,0,1-6.26-3.42,17.38,17.38,0,0,1-4.5-5.56,14.08,14.08,0,0,1-1.22-3.42,14.78,14.78,0,0,1-.27-3.63,16.11,16.11,0,0,1,2-6.89A17.72,17.72,0,0,1,29.17,101a15.51,15.51,0,0,1,3.12-1.86A16.92,16.92,0,0,1,35.75,98a18.11,18.11,0,0,1,5.35-.23,14.17,14.17,0,0,1,5.22,1.55l.62.35.6.4a3.31,3.31,0,0,1,.5.41A.85.85,0,0,1,47.8,102a1.15,1.15,0,0,1-1.22-.13,9.27,9.27,0,0,0-1.2-.75A14.09,14.09,0,0,0,36.27,100a14.74,14.74,0,0,0-11.12,9.79,13,13,0,0,0-.71,3.7,11.49,11.49,0,0,0,.39,3.7,12.15,12.15,0,0,0,1.51,3.42,15,15,0,0,0,2.39,3c3.62,3.54,9,5.56,13.82,4a9.35,9.35,0,0,0,1-.36,18.71,18.71,0,0,0,1.91-.93,17,17,0,0,0,3.07-2.1,22.35,22.35,0,0,0,2.32-2.25,3.92,3.92,0,0,1,.5-.39l.12.07A3.14,3.14,0,0,1,51.31,122.33Z"/><path class="cls-3" d="M51.48,121.58a3.14,3.14,0,0,1-.17.75,12.79,12.79,0,0,1-4.22,5.21,2.83,2.83,0,0,1-.28.2A15.06,15.06,0,0,1,44.27,129a14.5,14.5,0,0,1-4.75,1,14.9,14.9,0,0,1-4.79-.69,17.8,17.8,0,0,1-6.26-3.42,17.38,17.38,0,0,1-4.5-5.56,14.08,14.08,0,0,1-1.22-3.42,14.78,14.78,0,0,1-.27-3.63,16.11,16.11,0,0,1,2-6.89A17.72,17.72,0,0,1,29.17,101a15.51,15.51,0,0,1,3.12-1.86A16.92,16.92,0,0,1,35.75,98a18.11,18.11,0,0,1,5.35-.23,14.17,14.17,0,0,1,5.22,1.55l.62.35.6.4a3.31,3.31,0,0,1,.5.41A.85.85,0,0,1,47.8,102a1.15,1.15,0,0,1-1.22-.13,9.27,9.27,0,0,0-1.2-.75A14.09,14.09,0,0,0,36.27,100a14.74,14.74,0,0,0-11.12,9.79,13,13,0,0,0-.71,3.7,11.49,11.49,0,0,0,.39,3.7,12.15,12.15,0,0,0,1.51,3.42,15,15,0,0,0,2.39,3c3.62,3.54,9,5.56,13.82,4a9.35,9.35,0,0,0,1-.36,18.71,18.71,0,0,0,1.91-.93,17,17,0,0,0,3.07-2.1,22.35,22.35,0,0,0,2.32-2.25,3.92,3.92,0,0,1,.5-.39Z"/><path class="cls-3" d="M38.44,114.94c.29-.25.56-.47.82-.71a50.78,50.78,0,0,1,6.75-5c2.47-1.64,4.94-3.29,7.49-4.8a16.9,16.9,0,0,1,2.58-1.31,3.51,3.51,0,0,1,.73-.16c.22,0,.33.12.26.32a4.11,4.11,0,0,1-.41.81,18.36,18.36,0,0,1-1.94,2.29c-2,2.15-4.22,4.12-6.38,6.13-1.47,1.36-2.9,2.74-4.38,4.08-.84.77-1.72,1.51-2.6,2.23a7.49,7.49,0,0,1-1.55,1.09,3.16,3.16,0,0,1-3.9-.6c-1.22-1.26-2.43-2.54-3.65-3.8-.25-.26-.5-.52-.74-.79a1,1,0,0,1-.2-.39,4.17,4.17,0,0,1-.1-1.41,1.9,1.9,0,0,1,1.08-1.59,3.53,3.53,0,0,1,2.26-.29.69.69,0,0,1,.32.2c1,1,2,2,2.94,3Z"/></svg>