<?xml version="1.0" encoding="UTF-8"?>
<svg width="115px" height="96px" viewBox="0 0 115 96" version="1.1" xmlns="http://www.w3.org/2000/svg" xmlns:xlink="http://www.w3.org/1999/xlink">
    <title>052B5442-BDB7-4FC3-8515-4D6FC152BC5F</title>
    <g id="02_Zugang-anonym---RS" stroke="none" stroke-width="1" fill="none" fill-rule="evenodd">
        <g id="Zugang_anonym_1_Mobile_MVP" transform="translate(-130.000000, -114.000000)">
            <g id="Group-2" transform="translate(130.000000, 114.000000)">
                <g id="Group-10" transform="translate(-0.000000, 0.000000)">
                    <g id="Group-9" transform="translate(-0.000000, 0.000000)">
                        <g id="Group" transform="translate(-0.000000, 0.000000)">
                            <path d="M105.027862,92.2735877 C105.027862,94.3318668 81.5152684,96 52.5139308,96 C23.5088847,96 -8.54783951e-15,94.3318668 -8.54783951e-15,92.2735877 C-8.54783951e-15,90.2160504 23.5088847,88.5475463 52.5139308,88.5475463 C81.5152684,88.5475463 105.027862,90.2160504 105.027862,92.2735877" id="Fill-65" fill="#000000" fill-rule="nonzero" opacity="0.0415467762"></path>
                            <path d="M33.8975895,90.9774822 L33.8975895,90.9774822 C33.4710993,90.8057735 33.2671257,90.3214289 33.4377218,89.8956803 L48.5206424,52.5544186 C48.6912385,52.1290409 49.1770666,51.9235838 49.6035568,52.0952925 C50.0263385,52.2673721 50.2340207,52.7513458 50.0634246,53.1770943 L34.9805039,90.5183561 C34.8061992,90.9437338 34.3240798,91.1491908 33.8975895,90.9774822" id="Fill-66" fill="#B7B7B7"></path>
                            <path d="M86.7193351,91.026065 L86.7193351,91.026065 C87.1458253,90.8539854 87.3497989,90.36927 87.1792028,89.9435214 L72.0814477,52.566657 C71.9108516,52.1409084 71.4250236,51.9350805 70.9985333,52.1067892 C70.5720431,52.2788688 70.3680695,52.7635842 70.5386656,53.1897036 L85.6364207,90.5665681 C85.8070168,90.9923166 86.2928448,91.1981445 86.7193351,91.026065" id="Fill-67" fill="#B7B7B7"></path>
                            <path d="M64.6308483,91.026065 L64.6308483,91.026065 C65.0573386,90.8539854 65.2613122,90.36927 65.0907161,89.9435214 L49.992961,52.566657 C49.8223649,52.1409084 49.3365368,51.9350805 48.9100466,52.1067892 C48.4835563,52.2788688 48.2795827,52.7635842 48.4501788,53.1897036 L63.5479339,90.5665681 C63.71853,90.9923166 64.2043581,91.1981445 64.6308483,91.026065" id="Fill-68" fill="#B7B7B7"></path>
                            <path d="M54.9921685,91.026065 L54.9921685,91.026065 C54.5656783,90.8539854 54.3617047,90.36927 54.5323008,89.9435214 L69.6300559,52.566657 C69.800652,52.1409084 70.28648,51.9350805 70.7129703,52.1067892 C71.1394605,52.2788688 71.3434341,52.7635842 71.172838,53.1897036 L56.0750829,90.5665681 C55.9044868,90.9923166 55.4186588,91.1981445 54.9921685,91.026065" id="Fill-69" fill="#B7B7B7"></path>
                            <path d="M57.1913748,74.1733951 L42.1307058,74.1733951 C41.7709705,74.1733951 41.4742817,73.8770771 41.4742817,73.5151167 C41.4742817,73.1527854 41.7709705,72.8564674 42.1307058,72.8564674 L57.1913748,72.8564674 C57.5548187,72.8564674 57.8515075,73.1527854 57.8515075,73.5151167 C57.8515075,73.8770771 57.5548187,74.1733951 57.1913748,74.1733951" id="Fill-70" fill="#B7B7B7"></path>
                            <path d="M78.2006557,74.1733951 L62.8952184,74.1733951 C62.5317745,74.1733951 62.2350857,73.8770771 62.2350857,73.5151167 C62.2350857,73.1527854 62.5317745,72.8564674 62.8952184,72.8564674 L78.2006557,72.8564674 C78.5640996,72.8564674 78.8607885,73.1527854 78.8607885,73.5151167 C78.8607885,73.8770771 78.5640996,74.1733951 78.2006557,74.1733951" id="Fill-71" fill="#B7B7B7"></path>
                            <path d="M48.3352119,29.421587 C48.3352119,29.421587 55.5039568,-1.88279791 76.6764167,0.470686587 C102.047024,3.29071434 98.2234462,61.2407271 59.1977333,60.9814952 C32.4660657,60.8042236 30.18527,52.6030014 30.4967933,43.8632888 C30.9084491,32.425191 43.3285871,28.5504343 48.3352119,29.421587" id="Fill-72" fill="#F1F1F1" fill-rule="nonzero"></path>
                            <polyline id="Fill-168" fill="#FEBD50" points="25.8869899 88.5839447 22.3230148 88.2067789 23.9881811 82.0501139 27.5521562 82.4272796 25.8869899 88.5839447"></polyline>
                            <path d="M22.0856637,87.3823547 L19.1187749,89.6427531 C18.4141389,90.1797599 17.5537411,90.4723693 16.6673831,90.4768197 L15.762482,90.48127 C15.3619521,90.4831243 15.0059254,90.7430979 14.8798326,91.1258266 C14.7092365,91.6513368 15.1468526,92.8785161 16.6006281,92.9007678 L18.5068541,92.9630724 L25.5124202,92.561059 C25.5124202,92.561059 27.8748054,92.1876019 26.5471226,87.6801562 L22.0856637,87.3823547" id="Fill-169" fill="#3F373F" fill-rule="nonzero"></path>
                            <path d="M57.0170701,15.3948787 L50.9015707,20.843199 L45.9765353,32.0076014 L36.6197099,29.0284742 L34.6504375,31.068952 C34.6504375,31.068952 42.4348119,38.7969554 47.1187875,37.2382263 C48.572563,36.7538817 49.7667357,35.701007 50.4305771,34.3191786 C51.9325645,31.1905944 54.5323008,25.7715721 54.5323008,25.7715721 L56.9836926,18.5794629 L57.0170701,15.3948787" id="Fill-171" fill="#FEBD50"></path>
                            <path d="M67.7683332,25.5108568 C68.447009,20.3158346 71.9405205,18.1451846 71.9405205,18.1451846 C68.5508501,16.0238591 64.8422392,13.2772619 64.8422392,13.2772619 C64.8422392,13.2772619 64.4491264,13.2883877 64.1042256,13.226083 C62.2610459,12.8949041 58.21866,14.5574744 55.7895199,15.3236734 C53.4901811,16.0030909 52.0883262,14.1973682 48.1275297,25.7767642 C48.105278,25.8513072 51.7397167,26.5422215 53.1564061,28.6412953 C52.9598497,29.4390175 50.4750804,37.9914451 50.4750804,37.9914451 L47.3338869,46.4745218 C47.3338869,46.4745218 68.4247573,53.5969091 68.4581348,46.8806147 L67.7683332,25.5108568" id="Fill-172" fill="#FFFFFF" fill-rule="nonzero"></path>
                            <path d="M56.0565399,47.5474229 C56.0565399,47.5474229 67.6607835,34.5620926 67.2120415,27.9967387 C67.2120415,27.9967387 68.5619759,29.4838917 69.3185326,27.2142218 L71.0096591,35.5949408 L64.1969409,45.0938059 L60.5179988,48.3762975 L56.0565399,47.5474229" id="Fill-173" fill="#FFFFFF" fill-rule="nonzero"></path>
                            <path d="M97.7895387,65.3736031 C97.7895387,65.3736031 97.3853001,57.5502884 100.893646,53.5479554 C104.401992,49.5456225 102.37709,41.1764002 107.101861,38.4476043 C111.826631,35.7184375 114.255771,34.2631786 114.255771,34.2631786 C114.255771,34.2631786 114.118553,43.5417523 110.205968,46.8164557 C106.293384,50.0911592 107.461596,55.0236117 106.067158,59.7335476 C104.672721,64.4434835 101.702123,68.2844918 101.702123,68.2844918 L97.7895387,65.3736031" id="Fill-174" fill="#80DD92" fill-rule="nonzero"></path>
                            <path d="M96.9810615,24.4386973 C96.9810615,24.4386973 100.352189,25.1666977 100.352189,30.4425676 C100.352189,35.7184375 106.697622,39.7211413 104.672721,47.1802705 C102.647819,54.6397705 101.568613,63.3720658 101.568613,63.3720658 L101.023447,67.7801208 L95.6311271,66.6467693 C95.6311271,66.6467693 98.9762942,57.5502884 97.7747043,54.8214924 C96.5731143,52.0923256 97.3556312,46.2705482 97.7747043,43.1779375 C98.1937773,40.084956 96.1688757,39.5390485 95.6311271,36.4464378 C95.0896699,33.3534563 96.8438429,30.4425676 96.9810615,24.4386973" id="Fill-175" fill="#80DD92" fill-rule="nonzero"></path>
                            <path d="M98.4793403,64.5528875 C98.4793403,64.5528875 102.21762,60.8409388 101.41656,56.5467382 C100.6155,52.2525376 101.127289,51.0880338 102.291792,49.1232117 C103.456296,47.1580188 104.101595,42.3980167 104.650469,41.3529301" id="Stroke-220" stroke="#3F373F" stroke-linecap="round" fill-rule="nonzero"></path>
                            <polyline id="Fill-239" fill="#FEBD50" points="21.4292396 73.5948518 18.1545361 72.1336591 20.6838088 66.465789 23.9585122 67.9266109 21.4292396 73.5948518"></polyline>
                            <path class="foot" d="M18.184205,71.2773409 L14.6647332,72.5097123 C13.8265871,72.8023217 12.9179775,72.814931 12.0724142,72.5453149 L11.2120164,72.2705069 C10.8300295,72.1477519 10.4109565,72.2849705 10.1736054,72.6105865 C9.85095621,73.0574741 9.88433371,74.3595674 11.263937,74.8301901 L13.0551961,75.4784553 L19.8419541,77.2615555 C19.8419541,77.2615555 22.2043392,77.636496 22.3378492,72.9399111 L18.184205,71.2773409" id="Fill-240" fill="#3F373F" fill-rule="nonzero" transform="translate(16.171740, 74.273002) rotate(-2.000000) translate(-16.171740, -74.273002) "></path>
                            <path d="M56.2319908,47.4446869 C45.050756,43.7097683 38.409488,41.6831385 36.3081866,41.3647976 C32.5031518,40.7884795 20.843279,61.7150584 18.0395692,66.8603852 C17.7095028,67.46971 17.9653969,68.2310878 18.5995694,68.513684 L21.996657,70.0267973 C23.2575847,70.5897644 24.7447377,70.2426384 25.6236785,69.1771545 L40.0761353,51.7240606 C44.8009057,54.5670817 49.2141527,58.1262356 56.1344207,55.8235591 L59.487005,48.3762975 C59.487005,48.3762975 58.4020002,48.0657606 56.2319908,47.4446869 Z" id="Fill-241" fill="#B7B7B7" fill-rule="nonzero"></path>
                            <path d="M39.0043468,27.4319172 L39.0043468,27.4319172 C39.2750754,26.9664866 39.1156051,26.3634664 38.6520287,26.0919961 L37.5357368,25.4396514 C37.0684519,25.1681811 36.4676569,25.3265388 36.1969283,25.7915986 C35.9224911,26.2570293 36.0819614,26.8596786 36.5455377,27.1315197 L37.6655382,27.7834935 C38.1291146,28.0553347 38.7336182,27.896977 39.0043468,27.4319172" id="Fill-245" fill="#FEBD50"></path>
                            <path d="M56.2319908,47.6468016 C56.2319908,47.6468016 67.8471851,34.6492173 67.3980197,28.0776677 C67.3980197,28.0776677 68.749228,29.5662241 69.5064986,27.2944124 L71.199221,35.6830401 L64.3800737,45.1908692 L60.6976599,48.4764583 L56.2319908,47.6468016" id="Fill-173" fill="#A3A3A3" fill-rule="nonzero"></path>
                            <path d="M54.5652531,59.0930949 C54.6580558,59.1844128 57.9989555,38.7262284 70.8651311,37.6857238 C83.4528984,36.6674919 87.7255378,36.2005083 87.7255378,36.2005083 L68.7937733,58.9787619 L54.5652531,59.0930949" id="Fill-246" fill="#A3A3A3" fill-rule="nonzero"></path>
                            <path d="M94.0920536,65.4574177 C94.0920536,65.4574177 91.6962909,46.1930382 82.7882075,50.3770931 C73.880124,54.5618897 76.4427742,63.254132 73.746614,65.4574177 C73.746614,65.4574177 77.38847,67.2968887 79.0091329,63.4762778 C80.6260873,59.6556668 82.7882075,54.5618897 84.5423804,56.1992414 C86.2965534,57.8365931 86.4745667,65.4574177 90.2981446,65.4574177 L94.0920536,65.4574177" id="Fill-247" fill="#80DD92" fill-rule="nonzero"></path>
                            <path d="M81.4123128,32.9117607 C81.4123128,32.9117607 80.4703256,41.0988902 83.707943,44.3735937 C86.9455603,47.6482972 89.3784091,48.5580194 90.4576149,52.2873986 C91.5368207,56.0171486 93.6952322,66.7509812 93.6952322,66.7509812 L96.9662271,65.899855 C96.9662271,65.899855 97.4743068,57.8365931 95.3158952,54.1977041 C93.1574836,50.5591859 94.640928,44.9195012 90.1868863,41.8265197 C85.7328446,38.7335382 81.95377,37.8238159 81.4123128,32.9117607" id="Fill-248" fill="#80DD92" fill-rule="nonzero"></path>
                            <path d="M96.6472865,92.2669662 L96.6472865,92.2669662 C92.3490065,92.2669662 88.8666208,88.7842096 88.8666208,84.4877839 L88.8666208,65.0342652 L104.424244,65.0342652 L104.424244,84.4877839 C104.424244,88.7842096 100.941858,92.2669662 96.6472865,92.2669662" id="Fill-249" fill="#B7B7B7" fill-rule="nonzero"></path>
                            <path d="M104.424244,84.4877839 L104.424244,66.5759348 C101.297885,79.7314904 95.0303322,88.1366862 92.534437,91.0839193 C93.7286097,91.8293501 95.1341733,92.2669662 96.6472865,92.2669662 C100.941858,92.2669662 104.424244,88.7842096 104.424244,84.4877839" id="Fill-250" fill="#F1F1F1" fill-rule="nonzero"></path>
                            <path d="M94.0920536,64.2391884 C94.0920536,64.2391884 94.0067556,58.7704213 91.114039,54.8344726" id="Stroke-251" stroke="#3F373F" stroke-linecap="round" fill-rule="nonzero"></path>
                            <path d="M58.1407792,50.2914242 C58.7601172,52.5217828 58.3855475,52.3348688 60.3844888,52.3230012 C60.9407805,52.3200343 62.0644896,51.1681398 62.0644896,51.1681398 L62.7728343,48.0458602 C62.7728343,48.0458602 64.7791928,44.7659647 62.413099,43.9804809 C60.7442241,43.4264145 58.2446203,47.7814363 58.2446203,47.7814363 C58.2446203,47.7814363 57.6623684,48.5754499 58.1407792,50.2914242 Z" id="Fill-252" fill="#FEBD50"></path>
                            <path d="M76.8395955,31.7083165 C76.8395955,31.7083165 77.2883375,21.3153052 72.3410505,18.3591714 C67.3937635,15.4034085 66.3442266,24.9701413 66.3442266,24.9701413 L68.7251548,33.2726086 L76.8395955,31.7083165" id="Fill-253" fill="#FFFFFF" fill-rule="nonzero"></path>
                            <path d="M69.5744267,32.9933502 C70.0565461,34.6978278 70.5015794,36.7138287 69.3370756,37.8408755 L61.259721,44.2742029 L62.346344,46.5698331 C62.346344,46.5698331 68.5285984,43.3807986 72.3521763,41.0721882 C75.4970784,39.1730086 75.1558862,38.9846111 75.2782703,37.8275245 C75.4266148,36.4290074 75.1336345,33.8993638 75.0186676,32.0016676 L69.5744267,32.9933502" id="Fill-254" fill="#FEBD50"></path>
                            <path d="M22.5029863,81.6806224 C24.7466959,75.5925667 29.9164995,62.4603754 32.4161033,56.2265713 C33.3135871,53.9921332 35.097429,52.1582251 37.3967678,51.1116551 L39.9260404,51.5670725 L50.6344865,56.3596685 L42.351472,59.2116322 C40.8309415,59.7393676 39.6367688,61.0859642 39.3920005,62.594998 C38.472265,68.2547091 34.4261704,74.8838512 30.6545131,82.3904506 C29.8719962,83.9480672 28.2142471,84.9964915 26.5602066,84.9668226 L24.6168945,84.9319616 C22.8998076,84.9011802 21.8910655,83.3461596 22.5029863,81.6806224 Z" id="Fill-255" fill="#B7B7B7" fill-rule="nonzero"></path>
                            <path d="M60.3103166,1.2350313 C60.5217074,0.547825695 59.9283297,-0.117128246 59.219985,0.0174943309 C57.4769378,0.350156732 54.8438241,1.62554803 54.9365394,6.30915278 C55.0552149,12.206215 54.7807777,14.4725472 54.7807777,14.4725472 L62.2499201,13.7779243 L59.4499189,4.06841006 L60.3103166,1.2350313" id="Fill-298" fill="#3F373F" fill-rule="nonzero"></path>
                            <path d="M59.639058,9.76557817 C59.639058,9.76557817 60.1619722,12.8778445 60.592171,15.4556999 C60.707138,16.1425347 61.1855488,16.7136608 61.8382643,16.950641 C62.4946884,17.1868795 63.2252848,17.0518861 63.7556162,16.5975812 C63.9262123,16.4488659 64.0930998,16.3034884 64.25257,16.1662698 C64.9757492,15.5432231 65.2761466,14.5585869 65.0202525,13.6384806 C64.367537,11.2801749 63.1770729,6.98449083 63.1770729,6.98449083 L59.639058,9.76557817" id="Fill-299" fill="#FEBD50"></path>
                            <path d="M59.8727005,11.2545855 C59.8727005,11.2545855 61.0668732,11.4656054 62.7134965,10.2176578 C62.7134965,10.2176578 62.1979996,12.4739767 60.3436941,12.5084668 L59.8727005,11.2545855" id="Fill-300" fill="#473535"></path>
                            <path d="M63.6814439,4.06395972 C63.5961459,2.99439633 62.6541587,2.19889928 61.5860788,2.28716422 C60.4438266,2.3817338 59.5500514,2.18629001 58.4077992,2.28048872 C57.3397192,2.36912452 56.4681957,3.66083371 56.3903148,4.73113883 C56.2975996,5.99466258 56.4014407,8.52764384 56.9243548,10.3578433 C57.2173351,11.3899498 58.1259448,12.2885462 59.1977333,12.2002813 C60.3399855,12.1057117 63.6703181,10.7353799 63.833497,8.66671675 C63.9558811,7.09204055 63.8149539,5.63826506 63.6814439,4.06395972" id="Fill-301" fill="#FEBD50"></path>
                            <path d="M63.9632984,8.18051786 C63.9632984,8.18051786 64.3823714,13.8046263 63.0954834,15.3774482 L68.4433004,15.3774482 C68.4433004,15.3774482 67.4011807,9.72923379 67.3084654,7.92462371 C67.2120415,6.11964276 65.8621072,0.485891892 61.259721,0.154342074 C58.9566736,-0.0110619733 55.8191888,3.15127057 56.0713743,4.46300626 C56.3754804,6.01876855 59.1977333,6.16711298 61.5638271,7.37723273 L63.9632984,8.18051786" id="Fill-302" fill="#3F373F" fill-rule="nonzero"></path>
                            <path d="M65.7063455,9.18443884 C65.3466102,10.1026909 64.4380006,10.6055786 63.6777353,10.3077771 C62.9174701,10.0103465 62.5948209,9.02422685 62.9545562,8.10634564 C63.3142915,7.18809357 64.2229011,6.68520593 64.9794578,6.98300739 C65.739723,7.28043799 66.0660808,8.26655763 65.7063455,9.18443884" id="Fill-303" fill="#FEBD50"></path>
                            <path d="M65.0647558,8.74978964 C65.0647558,8.74978964 65.0499214,7.73474283 64.3527025,7.82337863 C63.6517751,7.91164357 63.9966759,9.24822695 63.9966759,9.24822695 C63.9966759,9.24822695 64.2970734,8.87476983 64.6123053,9.25935278" id="Stroke-304" stroke="#473535" stroke-width="0.5" stroke-linecap="round" stroke-linejoin="round"></path>
                        </g>
                        <g id="GettyImages-825154518" transform="translate(32.168535, 15.415022)">
                            <path d="M5.98862719,13.9196215 C6.03907375,13.9752367 6.0979694,14.0273807 6.15978313,14.0755767 C6.22218811,14.1230671 6.28831221,14.1663615 6.35649613,14.2029043 C6.42481356,14.2391228 6.49490472,14.269734 6.56490052,14.2919153 C6.63504891,14.313963 6.70483491,14.3280575 6.77216057,14.333722 C6.8402682,14.3385855 6.91283878,14.336602 6.98302531,14.3259595 C7.12433291,14.3053041 7.26451524,14.2512529 7.39226234,14.1665331 C7.45607868,14.1242877 7.51777798,14.0759582 7.57499525,14.0204765 C7.63204088,13.9648613 7.68607306,13.9040012 7.73552786,13.8380869 C7.78423883,13.7714478 7.82867759,13.7002696 7.86991217,13.6261541 C7.90916322,13.5507227 7.94696477,13.4735366 7.97809097,13.3921736 C8.04297536,13.2308399 8.08853938,13.0577958 8.11901712,12.8805558 C8.14959022,12.7031822 8.16627859,12.5208689 8.16778531,12.33682 C8.16627859,12.1527711 8.14959022,11.9704768 8.11901712,11.7930842 C8.08853938,11.6158251 8.04297536,11.4428191 7.97809097,11.2814855 C7.94696477,11.2001034 7.90916322,11.1229173 7.86991217,11.0474859 C7.82867759,10.9733704 7.78423883,10.9021731 7.73552786,10.8355531 C7.68607306,10.7696388 7.63204088,10.7087787 7.57499525,10.6531444 C7.51777798,10.5976818 7.45607868,10.5493523 7.39226234,10.5071068 C7.26451524,10.4224062 7.12433291,10.368355 6.98302531,10.3476995 C6.91283878,10.337038 6.8402682,10.3350736 6.77216057,10.339918 C6.70483491,10.3455825 6.63504891,10.3596961 6.56490052,10.3817057 C6.49490472,10.403906 6.42481356,10.4345172 6.35649613,10.4707167 C6.28831221,10.5072785 6.22218811,10.5505729 6.15978313,10.5980632 C6.0979694,10.6462402 6.03907375,10.6984033 5.98862719,10.7540185 C5.93806619,10.8086038 5.89402796,10.8679571 5.86856627,10.9187279 L5.13427788,10.3776432 C5.22567295,10.2703608 5.31889896,10.18772 5.4143946,10.1112014 C5.51036704,10.0359226 5.60851375,9.96911187 5.71118061,9.91004457 C5.81329438,9.85029066 5.91941335,9.79797499 6.03009064,9.75336459 C6.14042462,9.70818202 6.25567929,9.6712578 6.37604537,9.64505229 C6.49597278,9.61796944 6.62162192,9.60212026 6.75060873,9.60206304 C6.87881358,9.60301666 7.00307043,9.61728283 7.12536282,9.64581518 C7.24719748,9.67417588 7.36502692,9.71596356 7.47572328,9.76934728 C7.5863052,9.82303616 7.68965868,9.88790148 7.78517338,9.96033855 C7.88042108,10.0330999 7.96830681,10.1133566 8.04663727,10.2000789 C8.12502493,10.286744 8.19458207,10.3790927 8.25803603,10.4739208 C8.32040286,10.5693592 8.37485464,10.6681353 8.42358468,10.7686661 C8.47002604,10.8698835 8.51276735,10.9721879 8.54658276,11.0762852 C8.68388515,11.4928079 8.73057445,11.919687 8.72681718,12.33682 C8.73057445,12.753953 8.68388515,13.180832 8.54658276,13.5973547 C8.51276735,13.701452 8.47002604,13.8037756 8.42358468,13.9049739 C8.37485464,14.0054856 8.32040286,14.1042807 8.25803603,14.1997192 C8.19458207,14.2945473 8.12502493,14.3868769 8.04663727,14.473561 C7.96830681,14.5603024 7.88042108,14.6405592 7.78517338,14.7133014 C7.68965868,14.7857385 7.5863052,14.8506038 7.47572328,14.9042927 C7.36502692,14.9576955 7.24719748,14.9994641 7.12536282,15.0278248 C7.00307043,15.0563381 6.87881358,15.0706233 6.75060873,15.0715579 C6.62162192,15.0715579 6.49597278,15.0556705 6.37604537,15.0285877 C6.25567929,15.0023822 6.14042462,14.965458 6.03009064,14.9202754 C5.91941335,14.875665 5.81329438,14.8233684 5.71118061,14.7635954 C5.60851375,14.7045281 5.51036704,14.6377174 5.4143946,14.5624195 C5.31889896,14.48592 5.22567295,14.4032792 5.13427788,14.2959968 L5.86856627,13.754912 C5.89402796,13.8056828 5.93806619,13.8650553 5.98862719,13.9196215" id="Fill-5" fill="#3F373F"></path>
                            <path d="M5.91649527,9.13190868 L5.91649527,15.4392933 C5.91649527,16.0089867 4.59193439,16.470711 2.95828578,16.470711 C1.34285134,16.470711 0.0299055633,16.019343 0.000820114299,15.4584992 L9.53621279e-05,9.13190868 L5.91649527,9.13190868 Z" id="Combined-Shape" fill="#3F373F"></path>
                            <path d="M0,9.13183239 C0,9.46783131 1.32442737,9.74022369 2.95819042,9.74022369 C4.59195346,9.74022369 5.91639991,9.46783131 5.91639991,9.13183239 C5.91639991,8.79581439 4.59195346,8.52342201 2.95819042,8.52342201 C1.32442737,8.52342201 0,8.79581439 0,9.13183239" id="Fill-8" fill="#FFFFFF"></path>
                            <path d="M2.95811413,8.99361452 C3.10527697,8.99361452 3.25024647,8.99702829 3.39149686,9.00388527 C4.30853722,9.04646914 5.08852314,9.22260216 5.52953483,9.46830551 C5.4143946,9.56874695 4.84815336,9.99361452 2.95811413,9.99361452 C2.55263923,9.99361452 1.9960415,9.94275868 1.57983673,9.8927929 C1.54977139,9.89251759 1.52040015,9.88752282 1.49171668,9.88240991 C1.35750717,9.86510102 1.24191104,9.84875515 1.15657096,9.8349918 C1.15665528,9.82681733 1.15713134,9.81868868 1.15799098,9.81060647 C0.657054119,9.68254714 0.451089576,9.52457492 0.386693428,9.46830551 C0.895755538,9.18455036 1.85643361,8.99361452 2.95811413,8.99361452 Z" id="Combined-Shape" fill="#3F373F"></path>
                            <path d="M0.208499756,9.13261297 C0.208499756,8.76267605 2.17595396,8.62223598 2.95819042,8.62223598 C3.74044595,8.62223598 5.70788108,8.76267605 5.70788108,9.13261297 C5.70788108,9.46965005 3.74044595,9.61830076 2.95819042,9.61831986 C2.17595396,9.61830076 0.208499756,9.46965005 0.208499756,9.13261297 M7.62897022e-05,9.13261297 C7.62897022e-05,9.21603685 0.0814201847,9.29550818 0.228850034,9.36806729 C0.67552624,9.58746314 1.72935404,9.74170854 2.95819042,9.74172763 C4.18704587,9.74170854 5.24087367,9.58746314 5.68754988,9.36806729 C5.83496065,9.29550818 5.91632362,9.21603685 5.91632362,9.13261297 C5.91632362,8.7962251 4.5920679,8.5235174 2.95819042,8.5234983 C1.32431294,8.5235174 7.62897022e-05,8.7962251 7.62897022e-05,9.13261297" id="Fill-11" fill="#FFFFFF"></path>
                            <path d="M1.4949093,8.52588236 C1.44535616,8.44987825 1.43216279,8.36669026 1.43216279,8.32231172 C1.43216279,8.05188426 1.63921067,8.04233328 1.67179959,7.84509326 C1.79380619,7.10700749 0.386693428,7.01044264 0.386693428,6.22522588 C0.386693428,5.08832039 2.45270419,5.26542171 2.37890204,4.64459916 C2.37890204,4.64459916 2.69037759,4.94663383 2.69037759,5.30457979 C2.69037759,5.66251657 2.26689598,5.89882292 2.26689598,6.34642509 C2.26689598,6.79403645 2.69043264,6.87105896 2.69043264,7.29948579 C2.69043264,7.96236566 1.79985239,8.19256159 1.68901153,8.44941033 C1.67723108,8.47671456 1.67156105,8.50192693 1.6701206,8.52485478 C1.65469775,8.52475385 1.63925655,8.52469881 1.62371442,8.52469881 C1.58030841,8.52469881 1.53733361,8.5251025 1.4949093,8.52588236" class="steam steam--3" id="Fill-12" fill="#FFFFFF" fill-rule="nonzero"></path>
                            <path d="M4.33401149,7.02105754 C4.28445835,6.94505343 4.27126498,6.86186545 4.27126498,6.8174869 C4.27126498,6.54705944 4.47831287,6.53750846 4.51090179,6.34026844 C4.63290838,5.60218268 3.22579562,5.50561782 3.22579562,4.72040107 C3.22579562,3.58349557 5.29180638,3.76059689 5.21800423,3.13977434 C5.21800423,3.13977434 5.52947978,3.44180901 5.52947978,3.79975497 C5.52947978,4.15769175 5.10599818,4.3939981 5.10599818,4.84160028 C5.10599818,5.28921163 5.52953483,5.36623414 5.52953483,5.79466097 C5.52953483,6.45754084 4.63895458,6.68773677 4.52811373,6.94458552 C4.51633327,6.97188974 4.51066324,6.99710212 4.5092228,7.02002996 C4.49379994,7.01992904 4.47835874,7.01987399 4.46281662,7.01987399 C4.4194106,7.01987399 4.3764358,7.02027768 4.33401149,7.02105754" class="steam steam--2" id="Fill-12" fill="#FFFFFF" fill-rule="nonzero"></path>
                            <path d="M2.26478683,3.8812832 C2.21523369,3.80527909 2.20204032,3.72209111 2.20204032,3.67771256 C2.20204032,3.4072851 2.4090882,3.39773413 2.44167712,3.20049411 C2.56368372,2.46240834 1.15657096,2.36584348 1.15657096,1.58062673 C1.15657096,0.443721233 3.22258172,0.62082255 3.14877957,0 C3.14877957,0 3.46025512,0.302034675 3.46025512,0.65998063 C3.46025512,1.01791741 3.03677351,1.25422376 3.03677351,1.70182594 C3.03677351,2.14943729 3.46031017,2.2264598 3.46031017,2.65488663 C3.46031017,3.3177665 2.56972992,3.54796243 2.45888906,3.80481118 C2.44710861,3.8321154 2.44143858,3.85732778 2.43999813,3.88025562 C2.42457528,3.8801547 2.40913408,3.88009965 2.39359195,3.88009965 C2.35018594,3.88009965 2.30721114,3.88050334 2.26478683,3.8812832" class="steam steam--1" id="Fill-12" fill="#FFFFFF" fill-rule="nonzero"></path>
                            <path d="M3.69043264,9.55452505 C3.30498002,9.43096636 3.03333529,9.14090599 2.84371869,8.79300271 C2.98126657,8.78766737 3.10834761,8.78512983 3.22283811,8.78512983 C3.28723191,8.78512983 3.35545596,8.78591061 3.42747234,8.78760231 C3.48435732,9.28014538 3.69043264,9.55452505 3.69043264,9.55452505 M2.69054641,8.59573297 C2.69050848,8.59542314 2.69047056,8.59480347 2.69043264,8.59449363 C2.86579006,8.56815775 3.04342289,8.55452505 3.22283811,8.55452505 C3.28708022,8.55452505 3.35090516,8.55638406 3.41465426,8.55979223 C3.41465426,8.5604119 3.41465426,8.5604119 3.41461634,8.56103157 C3.35086724,8.55762339 3.28708022,8.55576439 3.22283811,8.55576439 C3.04338497,8.55576439 2.86590383,8.56939708 2.69054641,8.59573297" id="Fill-13" fill="#FFFFFF"></path>
                        </g>
                    </g>
                </g>
            </g>
        </g>
    </g>
</svg>