<?xml version="1.0" encoding="utf-8"?>
<!-- Generator: Adobe Illustrator 24.0.2, SVG Export Plug-In . SVG Version: 6.00 Build 0)  -->
<svg version="1.1" id="Ebene_1" xmlns="http://www.w3.org/2000/svg" xmlns:xlink="http://www.w3.org/1999/xlink" x="0px" y="0px"
	 viewBox="0 0 115 96" style="enable-background:new 0 0 115 96;" xml:space="preserve">
<style type="text/css">
	.st0{opacity:4.154678e-02;enable-background:new    ;}
	.st1{fill-rule:evenodd;clip-rule:evenodd;fill:#B7B7B7;}
	.st2{fill:#F1F1F1;}
	.st3{fill-rule:evenodd;clip-rule:evenodd;fill:#FEBD50;}
	.st4{fill:#3F373F;}
	.st5{fill:#FFFFFF;}
	.st6{fill:#80DD92;}
	.st7{fill:none;stroke:#3F373F;stroke-width:0.5;stroke-linecap:round;}
	.st8{fill:#B7B7B7;}
	.st9{fill:#A3A3A3;}
	.st10{fill-rule:evenodd;clip-rule:evenodd;fill:#473535;}
	.st11{fill:none;stroke:#3F373F;stroke-width:0.25;stroke-linecap:round;stroke-linejoin:round;stroke-miterlimit:10;}
	.st12{fill-rule:evenodd;clip-rule:evenodd;fill:#3F373F;}
	.st13{fill-rule:evenodd;clip-rule:evenodd;fill:#FFFFFF;}
</style>
<title>052B5442-BDB7-4FC3-8515-4D6FC152BC5F</title>
<g id="_x30_2_x5F_Zugang-anonym---RS_1_">
	<g id="Zugang_anonym_1_Mobile_MVP_1_" transform="translate(-130.000000, -114.000000)">
		<g id="Group-2_1_" transform="translate(130.000000, 114.000000)">
			<g id="Group-10_1_" transform="translate(-0.000000, 0.000000)">
				<g id="Group-9_1_" transform="translate(-0.000000, 0.000000)">
					<g id="Group_1_" transform="translate(-0.000000, 0.000000)">
						<path id="Fill-65_1_" class="st0" d="M105,92.3c0,2.1-23.5,3.7-52.5,3.7C23.5,96,0,94.3,0,92.3c0-2.1,23.5-3.7,52.5-3.7
							C81.5,88.5,105,90.2,105,92.3"/>
						<path id="Fill-66_1_" class="st1" d="M33.9,91L33.9,91c-0.4-0.2-0.6-0.7-0.5-1.1l15.1-37.3c0.2-0.4,0.7-0.6,1.1-0.5
							c0.4,0.2,0.6,0.7,0.5,1.1L35,90.5C34.8,90.9,34.3,91.1,33.9,91"/>
						<path id="Fill-67_1_" class="st1" d="M86.7,91L86.7,91c0.4-0.2,0.6-0.7,0.5-1.1L72.1,52.6c-0.2-0.4-0.7-0.6-1.1-0.5
							c-0.4,0.2-0.6,0.7-0.5,1.1l15.1,37.4C85.8,91,86.3,91.2,86.7,91"/>
						<path id="Fill-68_1_" class="st1" d="M64.6,91L64.6,91c0.4-0.2,0.6-0.7,0.5-1.1L50,52.6c-0.2-0.4-0.7-0.6-1.1-0.5
							c-0.4,0.2-0.6,0.7-0.5,1.1l15.1,37.4C63.7,91,64.2,91.2,64.6,91"/>
						<path id="Fill-69_1_" class="st1" d="M55,91L55,91c-0.4-0.2-0.6-0.7-0.5-1.1l15.1-37.4c0.2-0.4,0.7-0.6,1.1-0.5
							c0.4,0.2,0.6,0.7,0.5,1.1L56.1,90.6C55.9,91,55.4,91.2,55,91"/>
						<path id="Fill-70_1_" class="st1" d="M57.2,74.2H42.1c-0.4,0-0.7-0.3-0.7-0.7c0-0.4,0.3-0.7,0.7-0.7h15.1
							c0.4,0,0.7,0.3,0.7,0.7C57.9,73.9,57.6,74.2,57.2,74.2"/>
						<path id="Fill-71_1_" class="st1" d="M78.2,74.2H62.9c-0.4,0-0.7-0.3-0.7-0.7c0-0.4,0.3-0.7,0.7-0.7h15.3
							c0.4,0,0.7,0.3,0.7,0.7C78.9,73.9,78.6,74.2,78.2,74.2"/>
						<path id="Fill-72_1_" class="st2" d="M48.3,29.4c0,0,7.2-31.3,28.3-29C102,3.3,98.2,61.2,59.2,61c-26.7-0.2-29-8.4-28.7-17.1
							C30.9,32.4,43.3,28.6,48.3,29.4"/>
						<polyline id="Fill-168_1_" class="st3" points="25.9,88.6 22.3,88.2 24,82.1 27.6,82.4 25.9,88.6 						"/>
						<path id="Fill-169_1_" class="st4" d="M22.1,87.4l-3,2.3c-0.7,0.5-1.6,0.8-2.5,0.8l-0.9,0c-0.4,0-0.8,0.3-0.9,0.6
							c-0.2,0.5,0.3,1.8,1.7,1.8l1.9,0.1l7-0.4c0,0,2.4-0.4,1-4.9L22.1,87.4"/>
						<path id="Fill-171_1_" class="st3" d="M57,15.4l-6.1,5.4L46,32l-9.4-3l-2,2c0,0,7.8,7.7,12.5,6.2c1.5-0.5,2.6-1.5,3.3-2.9
							c1.5-3.1,4.1-8.5,4.1-8.5l2.5-7.2L57,15.4"/>
						<path id="Fill-172_1_" class="st5" d="M67.8,25.5c0.7-5.2,4.2-7.4,4.2-7.4c-3.4-2.1-7.1-4.9-7.1-4.9s-0.4,0-0.7-0.1
							c-1.8-0.3-5.9,1.3-8.3,2.1c-2.3,0.7-3.7-1.1-7.7,10.5c0,0.1,3.6,0.8,5,2.9C53,29.4,50.5,38,50.5,38l-3.1,8.5
							c0,0,21.1,7.1,21.1,0.4L67.8,25.5"/>
						<path id="Fill-173_3_" class="st5" d="M56.1,47.5c0,0,11.6-13,11.2-19.6c0,0,1.3,1.5,2.1-0.8l1.7,8.4l-6.8,9.5l-3.7,3.3
							L56.1,47.5"/>
						<path id="Fill-174_1_" class="st6" d="M97.8,65.4c0,0-0.4-7.8,3.1-11.8s1.5-12.4,6.2-15.1c4.7-2.7,7.2-4.2,7.2-4.2
							s-0.1,9.3-4,12.6c-3.9,3.3-2.7,8.2-4.1,12.9c-1.4,4.7-4.4,8.6-4.4,8.6L97.8,65.4"/>
						<path id="Fill-175_1_" class="st6" d="M97,24.4c0,0,3.4,0.7,3.4,6s6.3,9.3,4.3,16.7c-2,7.5-3.1,16.2-3.1,16.2l-0.5,4.4
							l-5.4-1.1c0,0,3.3-9.1,2.1-11.8c-1.2-2.7-0.4-8.6,0-11.6c0.4-3.1-1.6-3.6-2.1-6.7C95.1,33.4,96.8,30.4,97,24.4"/>
						<path id="Stroke-220_1_" class="st7" d="M98.5,64.6c0,0,3.7-3.7,2.9-8c-0.8-4.3-0.3-5.5,0.9-7.4c1.2-2,1.8-6.7,2.4-7.8"/>
						<polyline id="Fill-239_1_" class="st3" points="21.4,73.6 18.2,72.1 20.7,66.5 24,67.9 21.4,73.6 						"/>
						<path id="Fill-240_1_" class="st4 foot" d="M18.1,71.2l-3.5,1.4c-0.8,0.3-1.7,0.4-2.6,0.1l-0.9-0.2c-0.4-0.1-0.8,0-1,0.4
							c-0.3,0.5-0.2,1.8,1.2,2.2l1.8,0.6l6.8,1.5c0,0,2.4,0.3,2.3-4.4L18.1,71.2"/>
						<path id="Fill-241_1_" class="st8" d="M56.2,47.4c-11.2-3.7-17.8-5.8-19.9-6.1C32.5,40.8,20.8,61.7,18,66.9
							c-0.3,0.6-0.1,1.4,0.6,1.7L22,70c1.3,0.6,2.7,0.2,3.6-0.8l14.5-17.5c4.7,2.8,9.1,6.4,16.1,4.1l3.4-7.4
							C59.5,48.4,58.4,48.1,56.2,47.4z"/>
						<path id="Fill-245_1_" class="st3" d="M39,27.4L39,27.4c0.3-0.5,0.1-1.1-0.4-1.3l-1.1-0.7c-0.5-0.3-1.1-0.1-1.3,0.4
							c-0.3,0.5-0.1,1.1,0.3,1.3l1.1,0.7C38.1,28.1,38.7,27.9,39,27.4"/>
						<path id="Fill-173_2_" class="st9" d="M56.2,47.6c0,0,11.6-13,11.2-19.6c0,0,1.4,1.5,2.1-0.8l1.7,8.4l-6.8,9.5l-3.7,3.3
							L56.2,47.6"/>
						<path id="Fill-246_1_" class="st9" d="M54.6,59.1c0.1,0.1,3.4-20.4,16.3-21.4c12.6-1,16.9-1.5,16.9-1.5L68.8,59L54.6,59.1"/>
						<path id="Fill-247_1_" class="st6" d="M94.1,65.5c0,0-2.4-19.3-11.3-15.1c-8.9,4.2-6.3,12.9-9,15.1c0,0,3.6,1.8,5.3-2
							c1.6-3.8,3.8-8.9,5.5-7.3s1.9,9.3,5.8,9.3H94.1"/>
						<path id="Fill-248_1_" class="st6" d="M81.4,32.9c0,0-0.9,8.2,2.3,11.5c3.2,3.3,5.7,4.2,6.7,7.9c1.1,3.7,3.2,14.5,3.2,14.5
							l3.3-0.9c0,0,0.5-8.1-1.7-11.7c-2.2-3.6-0.7-9.3-5.1-12.4C85.7,38.7,82,37.8,81.4,32.9"/>
						<path id="Fill-249_1_" class="st8" d="M96.6,92.3L96.6,92.3c-4.3,0-7.8-3.5-7.8-7.8V65h15.6v19.5
							C104.4,88.8,100.9,92.3,96.6,92.3"/>
						<path id="Fill-250_1_" class="st2" d="M104.4,84.5V66.6c-3.1,13.2-9.4,21.6-11.9,24.5c1.2,0.7,2.6,1.2,4.1,1.2
							C100.9,92.3,104.4,88.8,104.4,84.5"/>
						<path id="Stroke-251_1_" class="st7" d="M94.1,64.2c0,0-0.1-5.5-3-9.4"/>
						<path id="Fill-252_1_" class="st3" d="M58.1,50.3c0.6,2.2,0.2,2,2.2,2c0.6,0,1.7-1.2,1.7-1.2l0.7-3.1c0,0,2-3.3-0.4-4.1
							c-1.7-0.6-4.2,3.8-4.2,3.8S57.7,48.6,58.1,50.3z"/>
						<path id="Fill-253_1_" class="st5" d="M76.8,31.7c0,0,0.4-10.4-4.5-13.3c-4.9-3-6,6.6-6,6.6l2.4,8.3L76.8,31.7"/>
						<path id="Fill-254_1_" class="st3" d="M69.6,33c0.5,1.7,0.9,3.7-0.2,4.8l-8.1,6.4l1.1,2.3c0,0,6.2-3.2,10-5.5
							c3.1-1.9,2.8-2.1,2.9-3.2c0.1-1.4-0.1-3.9-0.3-5.8L69.6,33"/>
						<path id="Fill-255_1_" class="st8" d="M22.5,81.7c2.2-6.1,7.4-19.2,9.9-25.5c0.9-2.2,2.7-4.1,5-5.1l2.5,0.5l10.7,4.8l-8.3,2.9
							c-1.5,0.5-2.7,1.9-3,3.4c-0.9,5.7-5,12.3-8.7,19.8c-0.8,1.6-2.4,2.6-4.1,2.6l-1.9,0C22.9,84.9,21.9,83.3,22.5,81.7z"/>
						<path id="Fill-298_1_" class="st4" d="M60.3,1.2c0.2-0.7-0.4-1.4-1.1-1.2c-1.7,0.3-4.4,1.6-4.3,6.3c0.3,2.8,1.3,3.7,2.4,3.8
							c1.8,0.1,2.2-6,2.2-6L60.3,1.2"/>
						<path id="Fill-299_1_" class="st3" d="M59.6,9.8c0,0,0.5,3.1,1,5.7c0.1,0.7,0.6,1.3,1.2,1.5c0.7,0.2,1.4,0.1,1.9-0.4
							c0.2-0.1,0.3-0.3,0.5-0.4c0.7-0.6,1-1.6,0.8-2.5C64.4,11.3,63.2,7,63.2,7L59.6,9.8"/>
						<path id="Fill-300_1_" class="st10" d="M60.3,13.1c0,0,1.2,0.2,2.8-1c0,0-0.8,1.2-2.7,2.2L60.3,13.1"/>
						<path id="Fill-301_1_" class="st3" d="M63.7,4.1c-0.1-1.1-1-1.9-2.1-1.8c-1.1,0.1-2-0.1-3.2,0c-1.1,0.1-1.9,1.4-2,2.5
							c-0.1,1.3,0,3.8,0.5,5.6c0.3,1,1.7,3.5,3.2,3.5c2.7-0.6,4-2.8,4.2-4.9C64.5,7.4,63.8,5.6,63.7,4.1"/>
						<path id="Fill-302_1_" class="st4" d="M64,8.2c0,0,0.4,0.4,1.1,0.4s1.6-0.7,1.5-2.5c-0.1-1.8-0.7-5.5-5.3-5.9
							c-2.3-0.2-5.4,3-5.2,4.3c0.3,1.6,3.1,1.7,5.5,2.9L64,8.2"/>
						<path id="Fill-303_1_" class="st3" d="M65.7,9.2c-0.4,0.9-1.3,1.4-2,1.1C62.9,10,62.6,9,63,8.1c0.4-0.9,1.3-1.4,2-1.1
							C65.7,7.3,66.1,8.3,65.7,9.2"/>
						<path id="Stroke-304_1_" class="st11" d="M65.1,8.7c0,0,0-1-0.7-0.9C63.7,7.9,64,9.2,64,9.2s0.3-0.4,0.6,0"/>
					</g>
					<g id="GettyImages-825154518_1_" transform="translate(32.168535, 15.415022)">
						<path id="Fill-5_1_" class="st12" d="M6,13.9C6,14,6.1,14,6.2,14.1c0.1,0,0.1,0.1,0.2,0.1c0.1,0,0.1,0.1,0.2,0.1
							c0.1,0,0.1,0,0.2,0c0.1,0,0.1,0,0.2,0c0.1,0,0.3-0.1,0.4-0.2c0.1,0,0.1-0.1,0.2-0.1c0.1-0.1,0.1-0.1,0.2-0.2
							c0-0.1,0.1-0.1,0.1-0.2c0-0.1,0.1-0.2,0.1-0.2c0.1-0.2,0.1-0.3,0.1-0.5c0-0.2,0-0.4,0-0.5c0-0.2,0-0.4,0-0.5
							c0-0.2-0.1-0.4-0.1-0.5c0-0.1-0.1-0.2-0.1-0.2c0-0.1-0.1-0.1-0.1-0.2c0-0.1-0.1-0.1-0.2-0.2c-0.1-0.1-0.1-0.1-0.2-0.1
							c-0.1-0.1-0.3-0.1-0.4-0.2c-0.1,0-0.1,0-0.2,0c-0.1,0-0.1,0-0.2,0c-0.1,0-0.1,0.1-0.2,0.1c-0.1,0-0.1,0.1-0.2,0.1
							c-0.1,0-0.1,0.1-0.2,0.2c-0.1,0.1-0.1,0.1-0.1,0.2l-0.7-0.5c0.1-0.1,0.2-0.2,0.3-0.3C5.5,10,5.6,10,5.7,9.9
							C5.8,9.9,5.9,9.8,6,9.8c0.1,0,0.2-0.1,0.3-0.1c0.1,0,0.2,0,0.4,0c0.1,0,0.3,0,0.4,0c0.1,0,0.2,0.1,0.4,0.1
							C7.6,9.8,7.7,9.9,7.8,10C7.9,10,8,10.1,8,10.2c0.1,0.1,0.1,0.2,0.2,0.3c0.1,0.1,0.1,0.2,0.2,0.3c0,0.1,0.1,0.2,0.1,0.3
							c0.1,0.4,0.2,0.8,0.2,1.3c0,0.4,0,0.8-0.2,1.3c0,0.1-0.1,0.2-0.1,0.3c0,0.1-0.1,0.2-0.2,0.3c-0.1,0.1-0.1,0.2-0.2,0.3
							c-0.1,0.1-0.2,0.2-0.3,0.2c-0.1,0.1-0.2,0.1-0.3,0.2C7.4,15,7.2,15,7.1,15c-0.1,0-0.2,0-0.4,0c-0.1,0-0.3,0-0.4,0
							C6.3,15,6.1,15,6,14.9c-0.1,0-0.2-0.1-0.3-0.2c-0.1-0.1-0.2-0.1-0.3-0.2c-0.1-0.1-0.2-0.2-0.3-0.3l0.7-0.5
							C5.9,13.8,5.9,13.9,6,13.9"/>
						<path id="Combined-Shape_3_" class="st12" d="M5.9,9.1v6.3c0,0.6-1.3,1-3,1c-1.6,0-2.9-0.5-3-1l0-6.3H5.9z"/>
						<path id="Fill-8_1_" class="st13" d="M0,9.1c0,0.3,1.3,0.6,3,0.6s3-0.3,3-0.6c0-0.3-1.3-0.6-3-0.6S0,8.8,0,9.1"/>
						<path id="Combined-Shape_2_" class="st12" d="M3,9c0.1,0,0.3,0,0.4,0c0.9,0,1.7,0.2,2.1,0.5C5.4,9.6,4.8,10,3,10
							c-0.4,0-1-0.1-1.4-0.1c0,0-0.1,0-0.1,0c-0.1,0-0.2,0-0.3,0c0,0,0,0,0,0C0.7,9.7,0.5,9.5,0.4,9.5C0.9,9.2,1.9,9,3,9z"/>
						<path id="Fill-11_1_" class="st13" d="M0.2,9.1c0-0.4,2-0.5,2.7-0.5c0.8,0,2.7,0.1,2.7,0.5c0,0.3-2,0.5-2.7,0.5
							C2.2,9.6,0.2,9.5,0.2,9.1 M0,9.1c0,0.1,0.1,0.2,0.2,0.2C0.7,9.6,1.7,9.7,3,9.7c1.2,0,2.3-0.2,2.7-0.4c0.1-0.1,0.2-0.2,0.2-0.2
							c0-0.3-1.3-0.6-3-0.6C1.3,8.5,0,8.8,0,9.1"/>
						<path id="Fill-12_5_" class="st5 steam steam--3" d="M1.5,8.5c0-0.1-0.1-0.2-0.1-0.2c0-0.3,0.2-0.3,0.2-0.5C1.8,7.1,0.4,7,0.4,6.2
							c0-1.1,2.1-1,2-1.6c0,0,0.3,0.3,0.3,0.7c0,0.4-0.4,0.6-0.4,1c0,0.4,0.4,0.5,0.4,1c0,0.7-0.9,0.9-1,1.1c0,0,0,0.1,0,0.1
							c0,0,0,0,0,0C1.6,8.5,1.5,8.5,1.5,8.5"/>
						<path id="Fill-12_4_" class="st5 steam steam--2" d="M4.3,7c0-0.1-0.1-0.2-0.1-0.2c0-0.3,0.2-0.3,0.2-0.5c0.1-0.7-1.3-0.8-1.3-1.6
							c0-1.1,2.1-1,2-1.6c0,0,0.3,0.3,0.3,0.7c0,0.4-0.4,0.6-0.4,1c0,0.4,0.4,0.5,0.4,1c0,0.7-0.9,0.9-1,1.1c0,0,0,0.1,0,0.1
							c0,0,0,0,0,0C4.4,7,4.4,7,4.3,7"/>
						<path id="Fill-12_3_" class="st5 steam steam--1" d="M2.3,3.9c0-0.1-0.1-0.2-0.1-0.2c0-0.3,0.2-0.3,0.2-0.5c0.1-0.7-1.3-0.8-1.3-1.6
							c0-1.1,2.1-1,2-1.6c0,0,0.3,0.3,0.3,0.7C3.5,1,3,1.3,3,1.7c0,0.4,0.4,0.5,0.4,1c0,0.7-0.9,0.9-1,1.1c0,0,0,0.1,0,0.1
							c0,0,0,0,0,0C2.4,3.9,2.3,3.9,2.3,3.9"/>
						<path id="Fill-13_1_" class="st13" d="M3.7,9.6C3.3,9.4,3,9.1,2.8,8.8c0.1,0,0.3,0,0.4,0c0.1,0,0.1,0,0.2,0
							C3.5,9.3,3.7,9.6,3.7,9.6 M2.7,8.6C2.7,8.6,2.7,8.6,2.7,8.6c0.2,0,0.4,0,0.5,0c0.1,0,0.1,0,0.2,0c0,0,0,0,0,0
							c-0.1,0-0.1,0-0.2,0C3,8.6,2.9,8.6,2.7,8.6"/>
					</g>
				</g>
			</g>
		</g>
	</g>
</g>
</svg>
