<?xml version="1.0" encoding="UTF-8"?>
<svg width="151px" height="135px" viewBox="0 0 151 135" version="1.1" xmlns="http://www.w3.org/2000/svg" xmlns:xlink="http://www.w3.org/1999/xlink">
    <title>Group 6</title>
    <g id="02_Zugang-anonym---RS" stroke="none" stroke-width="1" fill="none" fill-rule="evenodd">
        <g id="Zugang_anonym_5" transform="translate(-908.000000, -414.000000)">
            <g id="Group-6" transform="translate(908.094059, 414.000000)">
                <path d="M77.0298924,29.0772576 C79.0820112,29.061305 81.1839518,29.9971465 82.627437,31.7745723 C84.8317142,34.4864931 86.2267241,37.8851465 87.5799914,41.0737406 C91.8606251,51.1579386 97.8325063,60.963404 105.354249,69.0385723 C107.608348,62.1927901 110.686526,55.6190079 114.501259,49.5030475 C115.835675,47.363404 117.338407,45.2049089 119.535952,43.966097 C121.73215,42.7259386 124.803595,42.6895822 126.529853,44.527602 C128.27934,46.392277 128.020623,49.187159 127.526586,51.7946854 C125.650601,55.8642178 123.319912,60.8853251 120.534847,66.8574219 L120.534847,66.8574219 L125.226253,101 C127.501644,104.313802 125.937842,109.181152 120.534847,115.602051 C117.810123,118.840102 115.258456,121.629266 112.879845,123.969542 C92.4544481,137.258777 70.3335374,125.344742 55.4907241,104.515721 C51.0027241,98.2125921 45.1574172,92.5019386 40.4068429,86.2715228 C38.6913578,84.0228099 32.9820508,77.5850277 33.3994766,73.2882356 C33.9111597,68.0744535 39.9719122,69.9649881 42.5990013,71.9915228 C49.269734,77.1352851 54.3946449,83.7817802 61.469338,88.5242752 C62.0214172,88.3398 61.7534568,87.506295 61.3925855,87.0511663 C57.7313578,82.4312059 54.2007439,77.6267703 50.2136548,73.3084337 C46.0030409,68.7490673 41.6604667,64.3283941 38.6536548,58.8331861 C37.787833,57.2496614 37.0203082,55.523404 37.0809023,53.717701 C37.1778528,50.8307307 40.120031,48.5254634 42.9841102,49.0007901 C44.0680706,49.1812257 44.9877538,49.871998 45.8468429,50.5573842 C51.1023677,54.7531861 55.3156746,59.9548495 60.3651795,64.3176218 C61.6871534,65.4594832 62.9233627,66.7337143 64.1505378,68.0308013 L65.070424,69.0061908 C67.3718995,71.4468226 69.7090528,73.8715545 72.5876746,75.5584931 C68.2976152,69.6795228 64.0075558,63.8005525 59.7188429,57.9215822 C56.65413,53.7217406 53.543635,49.4316812 51.9372191,44.489899 C51.4632389,43.0369881 51.1252587,41.4803941 51.4551597,39.9870871 C52.2388429,36.4335822 56.6931795,35.1907307 59.6771003,36.894097 C61.3319914,37.8393644 62.5331003,39.397305 63.6884271,40.913503 C68.7742884,47.6313644 74.1132983,54.0341366 79.2005063,60.7210277 C80.0811399,61.8790475 81.0587241,63.1043941 82.4564271,63.5083545 C82.7809419,61.8817406 81.9770607,60.2645525 81.1987637,58.7995228 C77.9239914,52.6377802 68.2962686,40.797701 71.1388033,33.3702158 C72.253734,30.4576614 74.5886251,29.1097802 77.0298924,29.0772576 Z" id="Combined-Shape" stroke="#353A4A" stroke-width="3"></path>
                <path d="M123.846848,83.3026196 C121.595442,75.1735899 122.311798,65.7949761 124.007085,57.6417087 C124.622452,54.6860652 125.356313,51.1877681 123.290729,48.986184 C121.564471,47.1481642 118.493026,47.1845206 116.296828,48.424679 C114.099283,49.6634909 112.596551,51.821986 111.262135,53.9616295 C107.447402,60.0775899 104.369224,66.6513721 102.115125,73.4971543 C94.5933822,65.421986 88.621501,55.6165206 84.3408674,45.5323226 C82.9876001,42.3437285 81.5925902,38.9450751 79.3883129,36.2331543 C77.9448278,34.4557285 75.8428872,33.5198869 73.7907684,33.5358396 C71.349501,33.5683622 69.01461,34.9162434 67.8996793,37.8287978 C65.0571446,45.256283 74.6848674,57.0963622 77.9596397,63.2581048 C78.7379367,64.7231345 79.5418179,66.3403226 79.217303,67.9669365 C77.8196001,67.5629761 76.8420159,66.3376295 75.9613822,65.1796097 C70.8741743,58.4927186 65.5351644,52.0899464 60.449303,45.372085 C59.2939763,43.8558869 58.0928674,42.2979464 56.4379763,41.352679 C53.4540555,39.6493127 48.9997189,40.8921642 48.2160357,44.4456691 C47.8861347,45.9389761 48.2241149,47.4955701 48.6980951,48.948481 C50.3045109,53.8902632 53.415006,58.1803226 56.4797189,62.3801642 C60.7684317,68.2591345 65.0584911,74.1381048 69.3485505,80.0170751 C64.5508476,77.2055107 61.2572238,72.3445206 57.1260555,68.7762038 C52.0765505,64.4134315 47.8632436,59.2117681 42.6077189,55.0159662 C41.7486298,54.33058 40.8289466,53.6398077 39.7449862,53.4593721 C36.880907,52.9840454 33.9387288,55.2893127 33.8417783,58.176283 C33.7811842,59.981986 34.548709,61.7082434 35.4145307,63.2917681 C38.4213426,68.7869761 42.7639169,73.2076493 46.9745307,77.7670157 C50.9616199,82.0853523 54.4922337,86.8897879 58.1534614,91.5097483 C58.5143327,91.964877 58.7822931,92.798382 58.2302139,92.9828572 C51.1555208,88.2403622 46.03061,81.5938671 39.3598773,76.4501048 C36.7327882,74.4235701 30.6720357,72.5330355 30.1603525,77.7468176 C29.7429268,82.0436097 35.4522337,88.4813919 37.1677189,90.7301048 C41.9182931,96.9605206 47.7636001,102.671174 52.2516001,108.974303 C69.6797981,133.431412 97.1423723,145.597352 120.112907,119.102936 C130.712828,106.876402 127.824511,97.6607186 123.846848,83.3026196" id="Fill-3" fill-opacity="0.2" fill="#3F88C5" fill-rule="nonzero"></path>
                <path d="M127.085972,78.8440376 C124.834566,70.7150079 125.550922,61.3363941 127.246209,53.1831267 C127.861576,50.2274832 128.595437,46.7291861 126.529853,44.527602 C124.803595,42.6895822 121.73215,42.7259386 119.535952,43.966097 C117.338407,45.2049089 115.835675,47.363404 114.501259,49.5030475 C110.686526,55.6190079 107.608348,62.1927901 105.354249,69.0385723 C97.8325063,60.963404 91.8606251,51.1579386 87.5799914,41.0737406 C86.2267241,37.8851465 84.8317142,34.4864931 82.627437,31.7745723 C81.1839518,29.9971465 79.0820112,29.061305 77.0298924,29.0772576 C74.5886251,29.1097802 72.253734,30.4576614 71.1388033,33.3702158 C68.2962686,40.797701 77.9239914,52.6377802 81.1987637,58.7995228 C81.9770607,60.2645525 82.7809419,61.8817406 82.4564271,63.5083545 C81.0587241,63.1043941 80.0811399,61.8790475 79.2005063,60.7210277 C74.1132983,54.0341366 68.7742884,47.6313644 63.6884271,40.913503 C62.5331003,39.397305 61.3319914,37.8393644 59.6771003,36.894097 C56.6931795,35.1907307 52.2388429,36.4335822 51.4551597,39.9870871 C51.1252587,41.4803941 51.4632389,43.0369881 51.9372191,44.489899 C53.543635,49.4316812 56.65413,53.7217406 59.7188429,57.9215822 C64.0075558,63.8005525 68.2976152,69.6795228 72.5876746,75.5584931 C67.7899716,72.7469287 64.4963479,67.8859386 60.3651795,64.3176218 C55.3156746,59.9548495 51.1023677,54.7531861 45.8468429,50.5573842 C44.9877538,49.871998 44.0680706,49.1812257 42.9841102,49.0007901 C40.120031,48.5254634 37.1778528,50.8307307 37.0809023,53.717701 C37.0203082,55.523404 37.787833,57.2496614 38.6536548,58.8331861 C41.6604667,64.3283941 46.0030409,68.7490673 50.2136548,73.3084337 C54.2007439,77.6267703 57.7313578,82.4312059 61.3925855,87.0511663 C61.7534568,87.506295 62.0214172,88.3398 61.469338,88.5242752 C54.3946449,83.7817802 49.269734,77.1352851 42.5990013,71.9915228 C39.9719122,69.9649881 33.9111597,68.0744535 33.3994766,73.2882356 C32.9820508,77.5850277 38.6913578,84.0228099 40.4068429,86.2715228 C45.1574172,92.5019386 51.0027241,98.2125921 55.4907241,104.515721 C72.9189221,128.97283 100.381496,141.13877 123.352031,114.644354 C133.951952,102.41782 131.063635,93.2021366 127.085972,78.8440376" id="Fill-3" fill="#FEBD50"></path>
                <path d="M98.6296548,106.787325 C98.3522686,106.787325 98.0748825,106.701147 97.8378924,106.52879 C90.3632785,101.09283 79.6448627,100.67675 71.7689815,105.516196 C71.1347637,105.903998 70.3052983,105.707404 69.9161498,105.073186 C69.5270013,104.440315 69.7249419,103.61085 70.3591597,103.221701 C78.1690607,98.421305 88.4942884,98.2597208 96.5425261,102.551127 C95.4477934,95.3363941 98.385932,87.5547703 104.198922,83.0694634 C104.784665,82.6129881 105.631635,82.7220574 106.086764,83.3118396 C106.540546,83.9002752 106.432823,84.745899 105.843041,85.2010277 C100.009853,89.7051861 97.5106845,98.0321564 99.9034766,105.003166 C100.094684,105.557939 99.9034766,106.174651 99.4308429,106.523404 C99.1925063,106.698453 98.9110805,106.787325 98.6296548,106.787325" id="Fill-4" fill="#353A4A"></path>
                <path d="M35.8232389,114.434295 C35.5593181,114.434295 35.2900112,114.38178 35.0314766,114.272711 C30.5650211,112.367364 22.7039518,107.498295 20.2492191,96.3045525 C20.0108825,95.2152059 20.7003082,94.1393248 21.7896548,93.8996416 C22.8776548,93.663998 23.956229,94.3493842 24.1959122,95.4400772 C26.1578132,104.39184 32.0340904,108.601107 36.6163479,110.556275 C37.6424073,110.993899 38.1190805,112.180196 37.6828033,113.206255 C37.3542488,113.97378 36.6082686,114.434295 35.8232389,114.434295" id="Fill-5" fill="#353A4A"></path>
                <path d="M29.121536,131.7238 C28.9020508,131.7238 28.6798726,131.687444 28.4603875,131.612038 C13.8572191,126.558493 2.42917953,112.14384 0.021575574,95.741701 C-0.140008584,94.6375426 0.623476564,93.6114832 1.72628845,93.449899 C2.82506072,93.2815822 3.85650627,94.0504535 4.01809043,95.1546119 C6.21294191,110.10384 16.5664469,123.22178 29.781338,127.794612 C30.8356746,128.159523 31.3944865,129.309463 31.0295756,130.3638 C30.7400706,131.198651 29.957734,131.7238 29.121536,131.7238" id="Fill-6" fill="#FFFFFF"></path>
                <path d="M125.432427,33.5358396 C124.69318,33.5358396 123.980863,33.1278396 123.626724,32.4222554 C121.286447,27.7659386 115.221655,23.6105327 110.64613,23.5270475 C109.531199,23.5068495 108.643833,22.5871663 108.662684,21.4708891 C108.684229,20.3559584 109.616031,19.4174238 110.720189,19.4887901 C117.530962,19.6113248 124.596229,25.3556416 127.235437,30.6071267 C127.736348,31.6049089 127.335081,32.8181366 126.338645,33.3190475 C126.047793,33.4658198 125.73809,33.5358396 125.432427,33.5358396" id="Fill-7" fill="#353A4A"></path>
                <path d="M147.553298,35.1153248 C146.706328,35.1153248 145.918605,34.5807505 145.63718,33.7337802 C139.795912,16.2099782 125.017694,4.55437426 107.988071,4.03865149 C106.87314,4.00364158 105.996546,3.07318614 106.030209,1.95825545 C106.065219,0.843324753 107.002407,-0.0211504949 108.110605,0.00039405957 C126.853021,0.568631683 143.086843,13.308196 149.469417,32.4572653 C149.822209,33.5156416 149.249932,34.6588495 148.191556,35.0116416 C147.98015,35.0830079 147.764704,35.1153248 147.553298,35.1153248" id="Fill-8" fill="#FFFFFF"></path>
            </g>
        </g>
    </g>
</svg>