<svg id="Ebene_1" data-name="Ebene 1" xmlns="http://www.w3.org/2000/svg" viewBox="0 0 240 240"><defs><style>.cls-1,.cls-3{fill:#3f88c5;fill-rule:evenodd;}.cls-1,.cls-2{opacity:0.2;}.cls-4{fill:#80dd8a;}.cls-5{fill:#fff;}.cls-6{fill:#353a4a;}</style></defs><title>_</title><path class="cls-1" d="M228.61,119.08l-98.17.67-61.14-.32v5.89c15.72,0,37.41-.16,61.14-.23,27.58.08,52.12.23,68,.23a1.92,1.92,0,0,0,.85-.31c7.44,0,14.89.09,22,.08C233.36,125.07,228.61,119.08,228.61,119.08Z"/><g class="cls-2"><path class="cls-3" d="M12.47,174.33l35,.65,34.9-.65s7.1,8.21-.25,8c-2.71,0-5.55-.1-8.39-.1-.13.1-.2.32-.32.43-6.07,0-15.49-.22-25.94-.33-10.52.11-19.88.33-25.94.33a.85.85,0,0,1-.32-.43c-2.84,0-5.68.1-8.39.1C5.37,182.65,12.47,174.33,12.47,174.33Z"/></g><polygon class="cls-4" points="11.75 176.46 25.48 176.46 24.11 188.59 36.01 176.91 86.14 176.46 86.14 112.14 11.75 112.14 11.75 176.46"/><path class="cls-5" d="M86.74,118.61c-.15-1.07-.3-2.14-.4-3.22l-.07-.89a6.59,6.59,0,0,0-.07-.8,1.51,1.51,0,0,0-.62-.94l-.17-.11a1.16,1.16,0,0,0-.43-.18l-.23,0H68l-28.26,0H12.45a1.15,1.15,0,0,0-.49.13,1,1,0,0,0-.48.84v2l0,32.37,0,24.09v2.46c0,.1,0,.2.07.3a1.36,1.36,0,0,0,.3.52,1.46,1.46,0,0,0,1.06.5H25.29c.05.06,0,.22,0,.32l0,.71-.13,2.11-.18,3-.26,4.95c0,.06,0,.25.05.11l.67-.74,4-4.44,2.69-3,1.34-1.5.68-.75.6-.67c.09-.18.28-.1.44-.12h8.63l16.11,0H82a16,16,0,0,0,1.8,0,2.48,2.48,0,0,0,1.91-1.79,2.27,2.27,0,0,0,.08-.71v-3l0-49.36c0-.2,0-.41,0-.61a.91.91,0,0,1,.46-.75l.1,0h1.09l-.06,0-.22,0a.82.82,0,0,1-.22,0l-.11,0h.24l.05,0a1.18,1.18,0,0,1,.72,1.13l0,48.84v3.89a4.14,4.14,0,0,1-.06.7,4.51,4.51,0,0,1-3.68,3.75,5.53,5.53,0,0,1-.7.07H35.78s-.06,0-.07,0l-2.78,3.08L27,187.43l-.61.69-1.14,1.2-.57.61c-.23.44-.31.31-.45.39l-.75.27c-.13,0-.25.14-.34,0a2,2,0,0,1-.22-.2,1.27,1.27,0,0,1-.35-.88,14.87,14.87,0,0,1,0-1.63l.07-1.55.29-5.33.16-2.66,0-.6c0-.08-.07,0-.12,0H12.92a3.55,3.55,0,0,1-3.27-2.44,4.27,4.27,0,0,1-.15-.71l0-.36v-2.32l0-49.7V113.5a3.47,3.47,0,0,1,0-.44,2.78,2.78,0,0,1,.27-.89A3,3,0,0,1,11,110.83a3.39,3.39,0,0,1,.87-.33,4.43,4.43,0,0,1,.81-.06h7.22l19.25,0,38.49,0,6.15,0h.92a3.34,3.34,0,0,1,3.2,2.52,3.7,3.7,0,0,1,.06,1.34c0,.35-.06.69-.1,1-.11,1.16-.3,2.31-.48,3.47a1.28,1.28,0,0,1-.09.32l-.07.15,0,.08,0,0v0h0v0s0,0,0,0,0,.13-.23.11-.12-.12-.14-.13,0,0,0-.05v0h.14v0s0,0,.07,0l0,0h0v0l0,0,0-.1-.08-.18A1.82,1.82,0,0,1,86.74,118.61Z"/><path class="cls-6" d="M86.9,119.33h0v0s0,0,.07,0l0,0h0v0l0,0,0-.1-.08-.18a1.82,1.82,0,0,1-.11-.38c-.15-1.07-.3-2.14-.4-3.22l-.07-.89a6.59,6.59,0,0,0-.07-.8,1.51,1.51,0,0,0-.62-.94l-.17-.11a1.16,1.16,0,0,0-.43-.18l-.23,0H68l-28.26,0H12.45a1.15,1.15,0,0,0-.49.13,1,1,0,0,0-.48.84v2l0,32.37,0,24.09v2.46c0,.1,0,.2.07.3a1.36,1.36,0,0,0,.3.52,1.46,1.46,0,0,0,1.06.5H25.29c.05.06,0,.22,0,.32l0,.71-.13,2.11-.18,3-.26,4.95c0,.06,0,.25.05.11l.67-.74,4-4.44,2.69-3,1.34-1.5.68-.75.6-.67c.09-.18.28-.1.44-.12h8.63l16.11,0H82a16,16,0,0,0,1.8,0,2.48,2.48,0,0,0,1.91-1.79,2.27,2.27,0,0,0,.08-.71v-3l0-49.36c0-.2,0-.41,0-.61a.91.91,0,0,1,.46-.75l.1,0h1.09l-.06,0-.22,0a.82.82,0,0,1-.22,0l-.11,0h.24l.05,0a1.18,1.18,0,0,1,.72,1.13l0,48.84v3.89a4.14,4.14,0,0,1-.06.7,4.51,4.51,0,0,1-3.68,3.75,5.53,5.53,0,0,1-.7.07H35.78s-.06,0-.07,0l-2.78,3.08L27,187.43l-.61.69-1.14,1.2-.57.61c-.23.44-.31.31-.45.39l-.75.27c-.13,0-.25.14-.34,0a2,2,0,0,1-.22-.2,1.27,1.27,0,0,1-.35-.88,14.87,14.87,0,0,1,0-1.63l.07-1.55.29-5.33.16-2.66,0-.6c0-.08-.07,0-.12,0H12.92a3.55,3.55,0,0,1-3.27-2.44,4.27,4.27,0,0,1-.15-.71l0-.36v-2.32l0-49.7V113.5a3.47,3.47,0,0,1,0-.44,2.78,2.78,0,0,1,.27-.89A3,3,0,0,1,11,110.83a3.39,3.39,0,0,1,.87-.33,4.43,4.43,0,0,1,.81-.06h7.22l19.25,0,38.49,0,6.15,0h.92a3.34,3.34,0,0,1,3.2,2.52,3.7,3.7,0,0,1,.06,1.34c0,.35-.06.69-.1,1-.11,1.16-.3,2.31-.48,3.47a1.28,1.28,0,0,1-.09.32l-.07.15,0,.08,0,0v0h0v0s0,0,0,0,0,.13-.23.11-.12-.12-.14-.13,0,0,0-.05v0Z"/><path class="cls-6" d="M44.76,133.89v2.19a12.7,12.7,0,0,1,.1,1.61c0,.46,0,1,0,1.46a16.89,16.89,0,0,0,0,2.25c0,.55,0,1.37,0,1.92,0,2.43,0,3,0,3.52l.18,2.8c0,.18,0,.59.09,1.05.05,1,.14,2.15.14,2.79,0,1.15,0,2.38,0,3.48v1.38a20.49,20.49,0,0,1-.1,2.47c0,.73-.82.78-1.32.69s-.64-.05-.69-1l-.14-2.66c0-.68,0-1.37,0-2v-1.42c0-1.1-.09-2.79-.19-4.3-.09-1.14-.13-2.29-.13-2.56a8,8,0,0,0,0-1.1l0-2h-.87c-.6,0-1.51.09-2.15.09-.42,0-.74.05-1.1.05a6.51,6.51,0,0,1-1-.05c-.28,0-.09-.09-.41,0,0,3.67-.19,7.1-.23,10.76v1.06l0,3.39,0,.68c0,1-.37,1-.78,1.1s-1.28.18-1.33-.91c0-2.48,0-4.54.18-6.92,0-1,0-2.88,0-3.94V145.7c0-.64,0-1.42,0-2.2v-5.08c0-1.1,0-2.15.05-3.39v.05c0-1.38.09-3.25.09-4.72,0-.5.05-.78.05-1v-.22l-.05-.92c.09-1.1.46-1.1.92-1.19a.93.93,0,0,1,1.23.78L37,138.37a13.28,13.28,0,0,0,.09,1.56,11.44,11.44,0,0,1,0,1.88v.59h1.38c1,0,2,0,3,0a8.7,8.7,0,0,0,1.14-.05v-.46c-.09-1.28-.09-2.83-.09-4.07,0-2.15.09-4.31.18-6.55v-.82c0-.69.05-1.6,0-2.61.19-.41.14-1,1.1-.78.51,0,.83-.14.92,1A47.68,47.68,0,0,1,44.76,133.89Z"/><path class="cls-6" d="M51.49,128.12a.84.84,0,0,1,.51-1c1-.28,1.51-.28,1.64.68,0,1.79-.09,4.44-.09,6.23v1.65c0,.59.05,1.1.05,1.65s0,1,0,1.51,0,1.1,0,1.51,0,.91,0,1.42,0,1.14,0,1.69c0,.78,0,1.56,0,2.34s0,1.55,0,2.33v6.37c0,2.1.05,4.3.05,6.41-.1.87-.46.82-.87.91s-1.24,0-1.19-1a2.24,2.24,0,0,1,0-.55c-.05-2-.09-3.85-.09-5.72l0-3.76v-2a15.35,15.35,0,0,0,0-2c0-.73,0-1.46,0-2.15v-.91c0-.6,0-1.79,0-2.2-.09-2.29-.09-5.31-.09-7.56v-.87c0-1.19,0-3.06.09-4.34Z"/><path class="cls-6" d="M61.93,159.53l.09.23a1.55,1.55,0,0,1,0,.77,1.11,1.11,0,0,1-.69.92s-.55.09-.73.09h-.32a1.63,1.63,0,0,1-1.06-1s.51-1.69,1.33-1.74A1.06,1.06,0,0,1,61.93,159.53Zm-1.24-32.19c.46,0,1,0,1,1,.14,2.15.18,4.3.18,6.23,0,1.6,0,3.16-.09,4.76s-.09,3.57-.09,5.17c0,.64,0,1.19.09,1.79a21.85,21.85,0,0,1,.05,2.43v2.7c0,1-.05,2-.05,3s-.64,1-1.1,1-1-.09-1-1.14.05-1.88.05-2.84v-2.75c0-.64-.05-1.37-.09-2.06s0-1.42,0-2.1c.09-1.83.09-3.66.09-5.5,0-2.7,0-5.35-.13-8,0-.33,0-1.1,0-1.33v-1C59.64,127.39,60.14,127.29,60.69,127.34Z"/><path class="cls-5" d="M89.69,120.13H38.36a5.82,5.82,0,0,1-5.89-5.76V56.11a5.81,5.81,0,0,1,5.89-5.75H223.64a5.81,5.81,0,0,1,5.89,5.75v58.26a5.82,5.82,0,0,1-5.89,5.76H212l4.21,15.38-22-15.38h-92.4"/><path class="cls-5" d="M102.52,119.9c1.07-.17,2.14-.33,3.21-.43s2.39-.17,3.59-.25h84.76a1.94,1.94,0,0,1,.42,0l.34.24.46.32.76.53,3,2.12,6.09,4.25,6.09,4.25,2.88,2,.26.18.13.09s0-.08,0-.11l-3.65-13.31-.12-.41c0-.07,0-.14-.05-.2h13a4.9,4.9,0,0,0,.77-.07,5.07,5.07,0,0,0,1.47-.48,4.86,4.86,0,0,0,2.13-2.17,4.41,4.41,0,0,0,.44-1.46,15.61,15.61,0,0,0,0-1.73V56.65c0-.32,0-.62,0-.86a4.59,4.59,0,0,0-.35-1.46,4.78,4.78,0,0,0-2-2.26,4.7,4.7,0,0,0-1.41-.57,5,5,0,0,0-.76-.11l-.39,0H178.81l-59.13,0-59.14,0H38.37a4.8,4.8,0,0,0-4.57,3.25,5.14,5.14,0,0,0-.22,1.48v58.11a6.19,6.19,0,0,0,0,.63,4.71,4.71,0,0,0,4.19,4,6.52,6.52,0,0,0,.66,0H88.2c.21,0,.41,0,.61,0a.92.92,0,0,1,.78,1.33,1.2,1.2,0,0,1-1.13.72h-49c-.54,0-1,0-1.65,0a6.82,6.82,0,0,1-5.69-4,6.75,6.75,0,0,1-.51-1.75,7,7,0,0,1-.07-.91V56.1A6.67,6.67,0,0,1,32,53.54,6.77,6.77,0,0,1,35.66,50a6.92,6.92,0,0,1,2.54-.54H72l72,0,70.51,0h8.81c.34,0,.8,0,1.22,0a8,8,0,0,1,1.27.27,6.79,6.79,0,0,1,2.27,1.2,6.72,6.72,0,0,1,2.51,4.41,21.34,21.34,0,0,1,.06,2.34v56.79a7.74,7.74,0,0,1-.16,1.44,6.59,6.59,0,0,1-1.22,2.61,7,7,0,0,1-4.9,2.73l-.71,0H213.39l.28,1,2.58,9.43,1.12,4.07L218,138s0,.12,0,.13l-.12-.09-.24-.17-.48-.33-1-.68-5.58-3.89-8-5.6-8-5.59-.76-.53c.15,0-.46,0-.83,0H111.83c-.6,0-1.2,0-1.79,0-1.39,0-2.78-.16-4.16-.29-1.16-.11-2.32-.28-3.47-.44a3.72,3.72,0,0,1-.64-.22v-.14A3.59,3.59,0,0,1,102.52,119.9Z"/><path class="cls-6" d="M101.77,120.18a3.59,3.59,0,0,1,.75-.28c1.07-.17,2.14-.33,3.21-.43s2.39-.17,3.59-.25h84.76a1.94,1.94,0,0,1,.42,0l.34.24.46.32.76.53,3,2.12,6.09,4.25,6.09,4.25,2.88,2,.26.18.13.09s0-.08,0-.11l-3.65-13.31-.12-.41c0-.07,0-.14-.05-.2h13a4.9,4.9,0,0,0,.77-.07,5.07,5.07,0,0,0,1.47-.48,4.86,4.86,0,0,0,2.13-2.17,4.41,4.41,0,0,0,.44-1.46,15.61,15.61,0,0,0,0-1.73V56.65c0-.32,0-.62,0-.86a4.59,4.59,0,0,0-.35-1.46,4.78,4.78,0,0,0-2-2.26,4.7,4.7,0,0,0-1.41-.57,5,5,0,0,0-.76-.11l-.39,0H178.81l-59.13,0-59.14,0H38.37a4.8,4.8,0,0,0-4.57,3.25,5.14,5.14,0,0,0-.22,1.48v58.11a6.19,6.19,0,0,0,0,.63,4.71,4.71,0,0,0,4.19,4,6.52,6.52,0,0,0,.66,0H88.2c.21,0,.41,0,.61,0a.92.92,0,0,1,.78,1.33,1.2,1.2,0,0,1-1.13.72h-49c-.54,0-1,0-1.65,0a6.82,6.82,0,0,1-5.69-4,6.75,6.75,0,0,1-.51-1.75,7,7,0,0,1-.07-.91V56.1A6.67,6.67,0,0,1,32,53.54,6.77,6.77,0,0,1,35.66,50a6.92,6.92,0,0,1,2.54-.54H72l72,0,70.51,0h8.81c.34,0,.8,0,1.22,0a8,8,0,0,1,1.27.27,6.79,6.79,0,0,1,2.27,1.2,6.72,6.72,0,0,1,2.51,4.41,21.34,21.34,0,0,1,.06,2.34v56.79a7.74,7.74,0,0,1-.16,1.44,6.59,6.59,0,0,1-1.22,2.61,7,7,0,0,1-4.9,2.73l-.71,0H213.39l.28,1,2.58,9.43,1.12,4.07L218,138s0,.12,0,.13l-.12-.09-.24-.17-.48-.33-1-.68-5.58-3.89-8-5.6-8-5.59-.76-.53c.15,0-.46,0-.83,0H111.83c-.6,0-1.2,0-1.79,0-1.39,0-2.78-.16-4.16-.29-1.16-.11-2.32-.28-3.47-.44a3.72,3.72,0,0,1-.64-.22Z"/><path class="cls-6" d="M56.7,100.19l-.14-.59a11.17,11.17,0,0,1-.46-2.29l-1.33-6c-.27-2-.64-4.22-1-6.37l-.14.87c-.05,1.1-.19,2.25-.23,3.34,0,0-1,8.11-1.37,9.3a16.45,16.45,0,0,1-.46,2.61s-.09.14-.09.18c-.37,1.24-1.83,2.2-2.48-.09a33.54,33.54,0,0,1-.64-3.43,11.22,11.22,0,0,0-.23-1.29c-.09-.73-.18-1.23-.32-2.7-.18-1.1-.36-2.19-.59-3.34-.23-1.37-.51-2.7-.64-4.35S46.21,83,46,81.47l-.18-.87a5.85,5.85,0,0,1-.14-1.28l-.27-1.88a10.62,10.62,0,0,0-.28-1.6c-.09-1.15-.18-2-.27-2.71l-.19-1.23A16.29,16.29,0,0,1,44.29,69c0-.83.41-.87.78-1,.55-.18,1.19,0,1.32.92.1.77.28,1.69.42,2.65s.23,1.6.32,2.34c0,.09,0,.14,0,.23.09.59.14,1.42.19,2v0L48,80.55v0l.41,1.92c.14.78.23,1.65.33,2.52l.22,2.1.23,1.1c.19.92.32,1.88.46,2.79l.5,4.58.1.6,0-.32L51,90c.14-1.15.23-2.2.36-3.85.14-1.1.19-1.6.33-2.24A14.45,14.45,0,0,0,52,82.47c0-.13.05-.36.05-.5a7.59,7.59,0,0,1,.73-2.79c1.05-1.51,1.6-.41,2.06.46a23.3,23.3,0,0,1,.82,4.07l.28,1.6v.09a19.48,19.48,0,0,1,.46,2.39,36.55,36.55,0,0,0,1.14,5.12s0,.09.23,1c0,.14,0,.23,0,.37a1.48,1.48,0,0,0,.1.5c.13-1.64.23-3.11.36-4.71.14-1.79.37-3.76.64-6.59A3.3,3.3,0,0,1,59,82.7l.1-.59a9.62,9.62,0,0,1,.22-1.47,11.28,11.28,0,0,0,.23-1.55c0-.23,0-.42,0-.64a15.52,15.52,0,0,1,.27-2.11l.23-1.65c.1-1.23.28-2.61.37-3.89a6.27,6.27,0,0,1,.37-2.29.8.8,0,0,1,1.28-.59.93.93,0,0,1,.68,1.14s-.27,2.06-.27,2.88c-.09.65-.14,1.15-.18,1.74a16.42,16.42,0,0,1-.23,2.25v.14a12.75,12.75,0,0,1-.18,1.83,4.09,4.09,0,0,1-.1.82c0,1-.78,5.59-.91,6.23v0a11.89,11.89,0,0,0-.14,2.24,17.72,17.72,0,0,1-.14,2.29c0,.14,0,.32,0,.42a8.73,8.73,0,0,0-.19,1.41L60,96.44A14.37,14.37,0,0,1,59.67,99a1.7,1.7,0,0,0-.09.36l-.41,1.93a1.64,1.64,0,0,1-.78.91,1.08,1.08,0,0,1-.5.09,1.31,1.31,0,0,1-1-1Z"/><path class="cls-6" d="M69.19,69a.84.84,0,0,1,.51-1c1-.27,1.51-.27,1.64.69,0,1.78-.09,4.44-.09,6.23v1.64c0,.6,0,1.1,0,1.65s0,1.06,0,1.51,0,1.1,0,1.51,0,.92,0,1.42,0,1.15,0,1.7c0,.78,0,1.55,0,2.33s0,1.56,0,2.34v6.36c0,2.11,0,4.31,0,6.41-.1.87-.46.83-.87.92s-1.24-.05-1.19-1a2.24,2.24,0,0,1,0-.55c0-2-.09-3.85-.09-5.73l0-3.75v-2a15.16,15.16,0,0,0,0-2c0-.73,0-1.47,0-2.15v-.92c0-.59,0-1.78,0-2.2-.09-2.28-.09-5.31-.09-7.55v-.87c0-1.19,0-3.07.09-4.35Z"/><path class="cls-6" d="M77.89,102.39a1.94,1.94,0,0,1-.41-1.19,15.6,15.6,0,0,0,0-2.15,11.46,11.46,0,0,1,0-1.24V96.67c0-.64,0-1.74,0-2.34,0-1.19,0-2.47.09-3.71,0-.45,0-1.28,0-1.74v-1l.09-1.38V85.4c0-1,0-2.56,0-3.66V76.39c-.09-.65-.13-2.25-.13-3a24.24,24.24,0,0,1,.09-3.71c0-.32,0-.68,0-1,.19-1,.78-.87,1.2-.87s.91.23.91,1l-.14,1.65c0,.78.09,2.56.14,3.34s.09,1.38.09,2.11A15.78,15.78,0,0,1,79.81,78v2.29c0,2.88-.13,6.5-.32,9.66,0,.82.05,2.47.05,3.29,0,.46,0,.92,0,1.42V95.8c0,1.1,0,1.88.1,2.7v.14c0,.41.09,1.1.09,1.6l1.23.09c.14,0,.42,0,.69,0,.69,0,1.83,0,2.11,0l1.6,0c1,.1.91.78.91,1,0,.6-.22,1.1-1.19,1.1a7.82,7.82,0,0,1-1.05,0c-.55,0-1,0-1.56,0Z"/><path class="cls-6" d="M90.39,102.39A1.94,1.94,0,0,1,90,101.2a15.6,15.6,0,0,0,0-2.15,11.46,11.46,0,0,1,0-1.24V96.67c0-.64,0-1.74,0-2.34,0-1.19,0-2.47.09-3.71,0-.45,0-1.28,0-1.74v-1l.09-1.38V85.4c0-1,0-2.56,0-3.66V76.39c-.09-.65-.13-2.25-.13-3A24.24,24.24,0,0,1,90,69.65c0-.32,0-.68,0-1,.19-1,.78-.87,1.19-.87s.92.23.92,1L92,70.48c0,.78.09,2.56.14,3.34s.09,1.38.09,2.11A15.78,15.78,0,0,1,92.31,78v2.29c0,2.88-.14,6.5-.32,9.66,0,.82.05,2.47.05,3.29,0,.46,0,.92,0,1.42V95.8c0,1.1,0,1.88.09,2.7v.14a15.42,15.42,0,0,1,.1,1.6l1.23.09c.14,0,.41,0,.69,0,.69,0,1.83,0,2.11,0l1.6,0c1,.1.91.78.91,1,0,.6-.23,1.1-1.19,1.1a7.67,7.67,0,0,1-1.05,0c-.55,0-1,0-1.56,0Z"/><path class="cls-6" d="M109.75,97.49,109,95.84l-.36-.77-.55-1.29-1.61-3.71v.6a30.48,30.48,0,0,1-.13,4.07c0,.37-.05.69-.05,1V101l-.14.83c0,.5-.59.82-1.05.73s-.82-.19-.87-.87-.05-1.28-.09-1.92-.09-1.52-.09-2.29a20.34,20.34,0,0,1,.13-2.38v0l.14-3.3a11.25,11.25,0,0,0-.09-1.37,12.56,12.56,0,0,1-.05-1.42,5,5,0,0,1,0-.82,14.23,14.23,0,0,1,0-2l-.27-7.92c0-1.65,0-4.17,0-5.82,0-1.28.09-2.7.09-3.93a1,1,0,0,1,1.28-.83c.32.09.82.19.82.73,0,.19,0,.23,0,.46v.14c0,.37,0,.78,0,1.14a9.39,9.39,0,0,0,0,1.06L106,75c0,.55.09,1.51.09,1.93v1.37l.14,3.66c0,.18,0,.37,0,.55l.23-.5a26.72,26.72,0,0,1,1.79-4.44l1-3.35v0c.14-.46.32-.92.46-1.42.32-.82.59-1.51.82-2s.46-1.06.65-1.56l.22-.41a1.06,1.06,0,0,0,.19-.42c.27-.73.73-.82,1.14-.68a1.08,1.08,0,0,1,.78,1.14,5.74,5.74,0,0,1-1.1,2.7l-.14.46a9.68,9.68,0,0,1-.59,1.47v0l-.28.69v0c-.22.78-.41,2.11-.68,2.84a8.59,8.59,0,0,1-.64,1.47l-.23.45-1,2.34c-.32.73-.46,1.14-.55,1.33-.23.73-.6,1.46-.87,2.19l-.46,1,.87,2.15.27.55c.19.55.37,1,.55,1.51l.28.64.14.41c.54,1.42,1.05,2.47,1.37,3.16a12.73,12.73,0,0,1,.82,1.79l.28.68.87,2.29.41,1.15a3.45,3.45,0,0,1,.41,1.28c.23.59-.32,1-.64,1.1s-.92,0-1.33-.78l-.46-1L110,98Z"/><path class="cls-6" d="M124.68,102.16a2.5,2.5,0,0,1-1.15.23l-.82,0-1.19-.36a6.36,6.36,0,0,1-2.61-2.89,23.6,23.6,0,0,1-1.19-5.22c0-.41,0-1.23-.09-1.83,0-1.14-.14-2.56-.14-3.29,0-.28,0-.78,0-1v-.82c0-.92,0-3,0-4V80.74c0-.23-.05-.46-.05-.69v-.64a24,24,0,0,1,.42-4.53,17.39,17.39,0,0,1,1.78-5l.32-.41a3.68,3.68,0,0,1,3.3-1.74c1.92,0,4,3.07,4.76,5a17.47,17.47,0,0,1,.69,3.21v.87l.13,1.33a15.22,15.22,0,0,1,.14,2.19v1.19l.05.92c0,.46,0,2,.09,2.52V89c0,.37-.05.69-.05,1a42.23,42.23,0,0,1-.27,4.67l-.32,1.7c-.37,2.11-1.38,4.71-3.67,5.72Zm1.83-8c.18-1.05.27-2.34.32-3.11a7,7,0,0,1,.09-.92c0-1.46.09-4,.09-5.49,0-.83-.18-2.43-.23-3.25,0-.37,0-.87,0-1.33a4.62,4.62,0,0,0-.09-.6l-.14-1.37-.14-1.28a9.63,9.63,0,0,1-.09-1.24,8.34,8.34,0,0,0-1.19-3.62,7,7,0,0,0-1.74-2,1.5,1.5,0,0,0-.59.09l-.28,0a14.08,14.08,0,0,0-1.19.91,10,10,0,0,0-1.1,3V74l-.18.59a34,34,0,0,0-.55,6.78c.14.87.14,4.21.14,5.17v5.22c.09.78.27,1.83.36,2.61l.28,2.2a12.92,12.92,0,0,0,.78,1.79l.36.73a2.46,2.46,0,0,0,1.92,1.14c1.24,0,1.74-1,2.25-2a6.5,6.5,0,0,0,.73-2.38Z"/><path class="cls-6" d="M144.23,95.48c-.55.73-2.06,1.83-2.34-1.06-.09-.59-.23-1.23-.32-1.87l-.09-.37-.18-1a25.14,25.14,0,0,1-.64-2.51l-.32-1.2-.55-2.56c-.23-.87-.42-1.78-.6-2.7l-.32-1.65-1.19-4.85c-.05.59-.05,1.42-.05,2L137.41,85c0,1.15-.1,2.89-.1,4l-.13,4.08c-.05.82-.09,1.78-.19,2.7s-.13,1.78-.13,2.52l-.19,2.88c0,1-.59,1.1-1.23,1.1a.88.88,0,0,1-.78-1v-.51a1.81,1.81,0,0,0,0-.22v-.23c.05-1.65.1-3.44.23-5,0-.37.1-.87.1-1.24.13-1.51.22-3,.22-4.44V82.2c0-.32.05-.5.05-.78l.09-2.29c0-.55.05-1,.05-1.51,0-1.05.09-2.1.09-3.11,0-.14.09-1,.14-1.42a9.13,9.13,0,0,0,.09-.92c.09-1-.14-1.92,0-2.88,0-.14,0-.28,0-.46a1.35,1.35,0,0,1,.28-.59c.5-.83,1.51-.74,1.83.32l.27,1,.64,2.2a13.35,13.35,0,0,1,.74,2.25l1.6,6.4.14,1.15.13.69.1.36c.18.73.41,1.6.59,2.47.23,1.06.5,2.11.73,3.16l.23,1.33a26.14,26.14,0,0,1,.69-3.2c.78-3.07.73-3.3.87-3.85l.18-1.1,2-9v-.19l.14-.5c.23-.78.5-1.69.91-2.84,0,0,0,0,0-.13a2.38,2.38,0,0,0,.09-.46l.46-.51c1-.41,1.28.23,1.51,1.19a54.57,54.57,0,0,1,.32,6.19v1.74c0,1.23.14,3,.28,4.21l.13,2v-.05c.09.78.14,1.88.19,2.7L151,87.6l.09.6.14,2.1v.87l.13,1.42.42,5.86v.92c0,.37,0,.73,0,1.1,0,0,.05,0,.05.14a2.38,2.38,0,0,1-.09,1.14c-.14.5-.46.55-.83.59-.55.1-1,0-1.19-.91l-.09-1.92c0-.28,0-.51,0-.74v-.91c-.09-.78-.18-1.6-.22-2.38a41.74,41.74,0,0,1-.28-4.26V89.34l0-.23v-.27c-.14-1.38-.23-2.93-.33-4.31l-.18-2.65c-.18-1.65-.32-4-.41-5.91l-.5,2.2c-.28,1.24-.6,3.48-.83,4.53l-.91,3.94-.28,1-1.1,6-.18,1.1Z"/><path class="cls-6" d="M167.35,95.48c-.55.73-2.06,1.83-2.34-1.06-.09-.59-.23-1.23-.32-1.87l-.09-.37-.18-1a25.14,25.14,0,0,1-.64-2.51l-.33-1.2-.54-2.56c-.23-.87-.42-1.78-.6-2.7L162,80.55,160.8,75.7c-.05.59-.05,1.42-.05,2L160.52,85c0,1.15-.09,2.89-.09,4l-.13,4.08c-.05.82-.1,1.78-.19,2.7s-.13,1.78-.13,2.52l-.19,2.88c0,1-.59,1.1-1.23,1.1a.88.88,0,0,1-.78-1v-.51a1.81,1.81,0,0,0,0-.22v-.23c.05-1.65.09-3.44.23-5,0-.37.09-.87.09-1.24.14-1.51.23-3,.23-4.44V82.2c0-.32,0-.5,0-.78l.09-2.29c0-.55.05-1,.05-1.51,0-1.05.09-2.1.09-3.11,0-.14.09-1,.13-1.42a7.11,7.11,0,0,0,.1-.92c.09-1-.14-1.92,0-2.88,0-.14,0-.28,0-.46a1.35,1.35,0,0,1,.28-.59c.5-.83,1.51-.74,1.83.32l.27,1,.64,2.2a14.32,14.32,0,0,1,.74,2.25l1.6,6.4.14,1.15.13.69.1.36c.18.73.41,1.6.59,2.47.23,1.06.5,2.11.73,3.16l.23,1.33a26.14,26.14,0,0,1,.69-3.2c.78-3.07.73-3.3.87-3.85l.18-1.1,2-9v-.19l.14-.5c.23-.78.5-1.69.91-2.84,0,0,0,0,0-.13a3.55,3.55,0,0,0,.09-.46l.46-.51c1-.41,1.28.23,1.51,1.19a54.57,54.57,0,0,1,.32,6.19v1.74c0,1.23.14,3,.27,4.21l.14,2v-.05c.09.78.14,1.88.18,2.7l.1,1.83.09.6.14,2.1v.87l.13,1.42.41,5.86v.92c0,.37.05.73.05,1.1,0,0,0,0,0,.14a2.25,2.25,0,0,1-.1,1.14c-.13.5-.45.55-.82.59-.55.1-1,0-1.19-.91l-.09-1.92c0-.28-.05-.51-.05-.74v-.91c-.09-.78-.18-1.6-.23-2.38-.18-1.33-.22-2.84-.27-4.26V89.34l0-.23v-.27c-.13-1.38-.23-2.93-.32-4.31l-.18-2.65c-.18-1.65-.32-4-.41-5.91l-.51,2.2c-.27,1.24-.59,3.48-.82,4.53L169,86.64l-.27,1-1.1,6-.18,1.1Z"/><path class="cls-6" d="M190.1,68.33a.8.8,0,0,1,.32,1c-.14.41,0,.64-1,.73h-.18l-1-.09-4.9.14a.37.37,0,0,1-.18,0v.37a7.31,7.31,0,0,1,0,1.05,3.51,3.51,0,0,0,0,.6v2.47c0,.51,0,1.24-.05,1.74v.18a9.59,9.59,0,0,0,.05,1.42c0,.37.09,1.15.09,2v3.52c0,.6,0,1.15,0,1.61h.42l1.78-.05c.09,0,.14,0,.28,0,.64,0,1.74,0,2.19,0,.64,0,.74.64.69,1.14s-.27,1-1,1c-.28,0-1,0-1.79.1s-1.87.09-2.56.09v1.1c0,2.24,0,4.62-.14,6.86v.32c0,.14.05.28.05.42,0,.41,0,.82,0,1.19,0,1.14,0,1.69,0,2.93l1.74.18,4.53-.14c.55.14.87,0,.92.83.13,1-.46,1.37-1.24,1.28a17.45,17.45,0,0,0-2.15,0c-.73,0-1.79,0-2.52,0a24,24,0,0,1-2.56-.09c-.41,0-.51-.18-.83-.64a16.6,16.6,0,0,1-.13-3.39V96c0-.69,0-1.15.09-2.66V78a26.62,26.62,0,0,1,0-2.83c0-1-.05-2.8-.05-3.76v-.27A8.81,8.81,0,0,1,181,69c0-.5.09-.73.82-.87l.69,0a14.14,14.14,0,0,1,2.79-.14c.37,0,1.6.05,1.92,0a11.81,11.81,0,0,1,2.52.14Z"/><path class="cls-6" d="M197.84,101.7c-.28,1.06-2.06,1.06-2.11-.13l-.14-3.12V96.26c0-.78,0-1.65,0-2.43V91.49c0-.36,0-.82,0-1.19,0-1.51,0-3.43,0-4.62,0-.82,0-2.11-.09-3.21a12.81,12.81,0,0,1,0-2c0-.23.05-.51.05-.74a9.48,9.48,0,0,1-.05-1.19v-.23c0-.13-.05-.27-.05-.36a13.71,13.71,0,0,1,0-1.92V70.75c0-.45,0-1,0-1.51,0,0,.46-1.28.78-1.32.92-.19,1.19.82,1.19.82.23.82.37,1.51.55,2l.14.55.27.87a7.77,7.77,0,0,1,.46,1.78c.05.28.14.92.14.83.36.87.69,2.38,1.05,3.29l1.42,4.81,1,3.57.41,1.19c.19.64.37,1.42.6,2.06s.32,1.19.55,1.79l.91,3.11.14.55V93.65c0-.83,0-1.7,0-2.48,0-1.51-.1-3.48-.1-5V84.35l-.13-1.88c0-.82,0-1.73,0-2.65,0-.6,0-1.19,0-1.79l0-.87c0-.91-.09-2.74-.09-3.7,0-1.38,0-3.21,0-4.58,0-.69.41-1.06.87-1.06s1,0,1.1.92l.14,3c0,1.46.09,3.16.09,4.62l0,2v3L206.9,88l.14,4.58c0,.73,0,1.74,0,2.47v1.37c0,.51,0,1,0,1.42a24.48,24.48,0,0,1-.23,3.71c-.05.28-.32.73-1.19.73-.46,0-1-.68-1.1-1a5.61,5.61,0,0,1-.36-1.33L204,99a8.31,8.31,0,0,1-.32-1,10.51,10.51,0,0,1-.32-1c-.41-1.19-.69-1.87-.92-2.51l-.27-1.1-1.37-5.27v0l-.19-.6-.13-.55a1.5,1.5,0,0,1-.37-.87c-.23-.59-.46-1.6-.64-2.15a5.57,5.57,0,0,0-.23-1c-.18-.69-.41-1.38-.6-2.06l-.32-1-.09-.46s-.09,0-.09-.09l-.23-.74a8.44,8.44,0,0,1-.41-1c0,.28.05.55.05.69V79c0,.23,0,.46,0,.59.05.6,0,1.2,0,1.74v.92c0,.6.05,1.42.09,2a22,22,0,0,1,0,2.43v5c0,.32,0,.64,0,.91v.92c0,.32,0,.59,0,.91v2.71c0,.73,0,1.46,0,2.19s.1,1.51.1,2.25Z"/><path class="cls-6" d="M215.87,100.42l.09.23a1.39,1.39,0,0,1,0,.78,1.07,1.07,0,0,1-.69.91,7.17,7.17,0,0,1-.73.1h-.32a1.66,1.66,0,0,1-1.05-1s.5-1.69,1.33-1.74A1,1,0,0,1,215.87,100.42Zm-1.23-32.18c.46,0,1,0,1,1,.14,2.15.19,4.3.19,6.22,0,1.61-.05,3.16-.09,4.77s-.1,3.57-.1,5.17c0,.64.05,1.19.1,1.78a21.94,21.94,0,0,1,0,2.43v2.7c0,1,0,2,0,3s-.64,1-1.1,1-1-.09-1-1.14,0-1.88,0-2.84V89.48c0-.64,0-1.37-.09-2.06s0-1.42,0-2.11c.1-1.83.1-3.66.1-5.49,0-2.7-.05-5.36-.14-8.06,0-.32,0-1.1,0-1.33v-1C213.58,68.28,214.09,68.19,214.64,68.24Z"/></svg>