<svg id="Ebene_1" data-name="Ebene 1" xmlns="http://www.w3.org/2000/svg" viewBox="0 0 240 240"><defs><style>.cls-1{fill:#fff;}.cls-2{fill:#f88;}.cls-3,.cls-5{fill:#353a4a;}.cls-3,.cls-4{fill-rule:evenodd;}.cls-4{fill:#3f88c5;opacity:0.2;isolation:isolate;}</style></defs><title>_</title><circle class="cls-1" cx="119.82" cy="105.09" r="75.17"/><circle class="cls-2" cx="120.7" cy="105.55" r="67.84"/><path id="Fill-2" class="cls-3" d="M137.49,110a118.17,118.17,0,0,0-9.32-8.19c3.8-5.16,7.62-10.29,11.52-15.31A36.14,36.14,0,0,0,144,79.35c.62-1.31.36-3.6.55-5.49l-1.28-1.42a75.58,75.58,0,0,0-7.93,2.89,14.2,14.2,0,0,0-4.94,3.13c-2.46,2.84-4.23,6.28-6.59,9.13l-5.21,6.24c-5-4.4-10-9.2-15.55-13.57A25.71,25.71,0,0,0,95.48,76c-1.43-.51-3.67.12-5.48.29l-1.11,1.55c1.24,2.45,2.31,5,3.45,7.29a14.48,14.48,0,0,0,2.91,4.58c2.59,2.29,5.75,4.14,8.33,6.7,2.34,2.36,4.66,4.69,7,7L108,106.54c-3.59,4.28-7.35,8.4-11,12.57-.45.51-1.25.72-1.66,1.25-1.39,1.79-2.1,4.17-4.16,5.35-2.37,1.37-2.52,4.39-1.33,8.59a17,17,0,0,0,1.76,2.51c.9.46,2.32,1.39,2.63,1.3,2-.56,4.22-1,5.49-2.16a179.11,179.11,0,0,0,12.84-13.34c2.72-3.19,5.22-6.57,7.68-10l1.22,1.13c4,3.77,7.81,7.76,11.5,11.76.44.48.56,1.29,1,1.75,1.57,1.53,3.8,2.45,4.66,4.63,1,2.5,3.85,3,8.11,2.4a18.23,18.23,0,0,0,2.7-1.4c.59-.84,1.7-2.14,1.66-2.46-.26-2.11-.36-4.44-1.4-5.9A112,112,0,0,0,137.49,110Z"/><path class="cls-4" d="M170.17,205.17c0,1.62-22,5.59-49.69,5.59s-50.65-4-50.65-5.59,22.46-2.95,50.17-2.95S170.17,203.54,170.17,205.17Z"/><path class="cls-5" d="M193,84.09c-.53-1.74-1.08-3.48-1.73-5.19-.3-.86-.66-1.7-1-2.55l-.69-1.6c-.18-.44-.39-.88-.59-1.31a1.15,1.15,0,0,0-1.1-.71A.92.92,0,0,0,187,74c.08.18.14.36.23.54l.29.63.51,1.19a71.72,71.72,0,0,1,3.44,10,72.78,72.78,0,0,1,2.43,20.93A73.66,73.66,0,0,1,181.19,147a75.08,75.08,0,0,1-17.33,18A74,74,0,1,1,117.14,31.28,76.93,76.93,0,0,1,139,33.64a74.56,74.56,0,0,1,20.16,8.71c1.6.91,3.06,2,4.58,3.07.77.5,1.45,1.12,2.18,1.67s1.45,1.14,2.16,1.73a77.32,77.32,0,0,1,7.82,7.75l1.38,1.58c.15.19.32.36.46.56l.88,1.15c.07.08.13.17.21.25.73.88,1.53,1.72,2.24,2.63s1.37,1.57,2.08,2.34a3.64,3.64,0,0,0,.63.46l.12-.08a4.37,4.37,0,0,0-.17-.62c-.5-1-1-2.05-1.54-3.06A36.79,36.79,0,0,0,180,58.33c-.35-.47-.69-1-1.09-1.4l-1.8-2L176,53.62l-1.19-1.21c-.8-.79-1.56-1.62-2.39-2.38a76.61,76.61,0,0,0-12.21-9.38c-1.1-.65-2.17-1.38-3.31-2l-3.42-1.79c-2.34-1.06-4.67-2.16-7.1-3a76.7,76.7,0,0,0-30.28-4.57,75.46,75.46,0,0,0-29.62,7.74,76,76,0,0,0-42,75.91,75.29,75.29,0,0,0,9.13,29.14,76.56,76.56,0,0,0,19.86,23.19,75.58,75.58,0,0,0,28,13.7,76.77,76.77,0,0,0,31.11,1.28A75.94,75.94,0,0,0,196,105.7,76.76,76.76,0,0,0,193,84.09Z"/></svg>