<?xml version="1.0" encoding="utf-8"?>
<!-- Generator: Adobe Illustrator 23.0.1, SVG Export Plug-In . SVG Version: 6.00 Build 0)  -->
<svg version="1.1" id="Ebene_1" xmlns="http://www.w3.org/2000/svg" xmlns:xlink="http://www.w3.org/1999/xlink" x="0px" y="0px"
	 viewBox="0 0 184.92 244.98" style="enable-background:new 0 0 184.92 244.98;" xml:space="preserve">
<style type="text/css">
	.Grün_x0020_bogenförmig{fill:url(#SVGID_1_);stroke:#FFFFFF;stroke-width:0.25;stroke-miterlimit:1;}
	.st0{fill:#CC1E1C;}
	.st1{fill:#FFFFFF;}
</style>
<linearGradient id="SVGID_1_" gradientUnits="userSpaceOnUse" x1="-211.7866" y1="540.8037" x2="-211.0795" y2="540.0966">
	<stop  offset="0" style="stop-color:#259E2E"/>
	<stop  offset="0.9831" style="stop-color:#1C381D"/>
</linearGradient>
<g>
	<path class="st0" d="M172.23,244.98c7.02,0,12.7-5.48,12.7-12.25V12.26c0-6.76-5.68-12.26-12.7-12.26H12.7C5.68,0,0,5.5,0,12.26
		v220.47c0,6.77,5.68,12.25,12.7,12.25H172.23z"/>
	<path class="st1" d="M37.27,215.97c-1.28-4.68-4.51-7.47-9.4-7.47c-7.51,0-10.62,6.79-10.62,13.37c0,6.61,3.05,13.23,10.62,13.23
		c5.43,0,8.85-3.21,9.71-8.44h3.9c-1.28,6.98-5.68,11.72-13.61,11.72c-10.07,0-14.53-7.23-14.53-16.52
		c0-8.76,5.07-16.66,14.53-16.66c7.27,0,12.02,3.46,13.13,10.76H37.27z"/>
	<path class="st1" d="M58.82,219.19c1.34-0.13,3.6-0.49,4.81-1.04c1.23-0.54,1.36-2.18,1.36-3.28c0-3.7-2.21-6.38-7.88-6.38
		c-5.07,0-8.55,1.64-9.22,7.11h-3.72c0.54-7.42,6.11-10.4,13-10.4c6.42,0,11.48,2.5,11.48,9.79v17.13c0,2.86,0.73,3.51,3.84,2.43
		v2.85c-0.54,0.19-1.83,0.62-2.86,0.62c-0.62,0-1.1-0.07-1.65-0.19c-2.44-0.36-2.86-2.49-2.92-4.66c-3.05,3.39-7.2,5.22-11.79,5.22
		c-5.56,0-10.56-2.98-10.56-9.06c0-5.28,3.66-8.5,11.05-9.48L58.82,219.19z M64.99,221c-3.12,1.28-6.29,1.53-9.47,1.76
		c-5.55,0.44-8.91,2.43-8.91,6.68c0,3.82,3.36,5.65,6.84,5.65c5.8,0,11.54-2.79,11.54-9.18V221z"/>
	<path class="st1" d="M78.51,237.54h-3.67v-31.49h3.67v5.9h0.12c2.02-5.04,5.01-6.75,10.32-6.75v3.96
		c-8.25-0.19-10.44,5.89-10.44,12.94V237.54z"/>
</g>
<rect x="91.76" y="206.06" class="st1" width="3.67" height="31.47"/>
<g>
	<path class="st1" d="M112.81,237.66c-0.85,0.18-2.45,0.72-4.21,0.72c-3.6,0-5.61-1.59-5.61-6.25v-23.02h-4.47v-3.04h4.47v-8.75
		h3.66v8.75h5.91v3.04h-5.91v21.56c0,3.09,0.13,4.43,3.17,4.43c0.98,0,2.02-0.18,2.99-0.42V237.66z"/>
	<path class="st1" d="M128.92,219.19c1.35-0.13,3.61-0.49,4.83-1.04c1.22-0.54,1.35-2.18,1.35-3.28c0-3.7-2.21-6.38-7.88-6.38
		c-5.07,0-8.55,1.64-9.22,7.11h-3.72c0.55-7.42,6.11-10.4,13.01-10.4c6.4,0,11.47,2.5,11.47,9.79v17.13c0,2.86,0.74,3.51,3.84,2.43
		v2.85c-0.55,0.19-1.83,0.62-2.86,0.62c-0.61,0-1.11-0.07-1.66-0.19c-2.44-0.36-2.86-2.49-2.93-4.66c-3.05,3.39-7.2,5.22-11.78,5.22
		c-5.55,0-10.56-2.98-10.56-9.06c0-5.28,3.67-8.5,11.05-9.48L128.92,219.19z M135.1,221c-3.12,1.28-6.29,1.53-9.47,1.76
		c-5.55,0.44-8.9,2.43-8.9,6.68c0,3.82,3.35,5.65,6.83,5.65c5.8,0,11.54-2.79,11.54-9.18V221z"/>
	<path class="st1" d="M146.2,227.69c1.16,5.41,3.97,7.41,9.46,7.41c5.31,0,7.81-2.8,7.81-5.83c0-9.11-20.27-2.66-20.27-15.07
		c0-5.22,4.09-8.99,11.11-8.99c6.83,0,11.29,2.81,12.21,9.92h-3.73c-0.67-4.87-3.97-6.64-8.55-6.64c-4.64,0-7.14,2.19-7.14,5.41
		c0,8.57,20.26,3.21,20.26,15.31c0,6.01-5.43,9.17-12.87,9.17c-7.45,0-11.72-4.74-12.02-10.7H146.2z"/>
</g>
<polygon class="st1" points="176.37,80.65 107.89,80.65 107.89,11.36 78.11,11.36 78.11,80.65 9.62,80.65 9.62,110.79 78.11,110.79 
	78.11,180.07 107.89,180.07 107.89,110.79 176.37,110.79 "/>
<g>
	<path class="st1" d="M53.66,63.13c4.95,3.96,9.03,9.18,12.63,13.86h8.22V66.95c-2.17-2.86-4.49-5.76-6.92-8.41
		c-5.29-5.89-12.21-9.62-18.68-13.98c-4.54-3.44-8.8-8.7-12.04-13.14c-3.08,2.76-5.96,5.74-8.63,8.92c0.55,0.96,1.48,2.47,3.06,4.88
		c4.27,6.5,10.7,10.06,17.07,14.09C50.21,60.29,51.94,61.82,53.66,63.13"/>
	<path class="st1" d="M59.5,76.99c-1.83-3.33-4.98-7.13-7.45-9.82c-7.56-6.89-17.93-9.18-23.54-18.47c-1.57-2.6-2.48-4.1-3.01-4.9
		c-2.58,3.43-4.91,7.06-6.97,10.87c3.87,6.58,8.86,12.43,15.81,16c5.29,2.71,8.1,5.22,9.18,6.32H59.5z"/>
	<path class="st1" d="M148.15,30.56c-2.65,1.94-5.2,3.63-7.56,5.91c-5.62,4.7-8.86,11.28-13.07,17.26
		c-4.02,5.72-10.23,10.51-16.17,14.11v9.15h10.51c4.83-3.31,10.13-8.08,13.75-12.33c5.95-8.3,10.36-18.46,19.12-23.82
		c0.89-0.55,1.62-1.01,2.24-1.41C154.27,36.26,151.31,33.3,148.15,30.56"/>
	<path class="st1" d="M168.14,135.35c-3.78-5.03-7.56-9.73-12.95-13.11c-3.81-2.23-8.01-5.14-11.78-7.83h-16.25l1.46,2.37
		c5.28,7.31,13.07,11.47,20.09,16.5c5.03,3.35,9.41,8.35,12.56,13.36c2.58-3.53,4.88-7.27,6.9-11.17L168.14,135.35z"/>
	<path class="st1" d="M156.69,148.03c-5.32-8.6-15.01-13.56-22.69-19.13c-5.51-4-9.42-9.14-12.98-14.49h-9.67v8.63
		c4.22,6.27,10.54,13.69,16.61,17.33c7.95,4.9,15.75,11.4,22,18.9c2.95-2.71,5.72-5.64,8.28-8.76
		C157.83,149.83,157.31,149.02,156.69,148.03"/>
	<path class="st1" d="M64.14,114.41c-6.87,4.92-12.94,10.96-17.61,17.99c-4.54,7.98-9.61,14.53-17.07,19.88l-0.09,0.15
		c2.7,3.1,5.61,6,8.73,8.67c0.67-0.44,1.46-1,2.38-1.71c7.07-5.42,12.64-11.91,16.85-19.12c4.26-6.72,10.72-12.64,17.17-17.37v-8.49
		H64.14z"/>
	<path class="st1" d="M37.91,114.41c-4.24,4.15-6.74,8.17-9.63,12.97c-2.13,3.71-5.72,7.39-9.47,9.91
		c2.08,3.79,4.43,7.41,7.04,10.82l4.48-3.14c1.83-1.31,3.77-2.96,5.07-4.7c3.46-3.72,5.94-8.64,8.96-12.67
		c3.35-4.7,7.34-8.42,11.56-11.91c0.27-0.23,0.95-0.82,1.49-1.28H37.91z"/>
	<path class="st1" d="M74.51,129.11c-6,4.32-11.81,10.11-15.34,16.4c-3.56,6.67-8.97,12.45-15.55,16.83
		c-0.93,0.63-1.65,1.1-2.2,1.47c3.48,2.71,7.17,5.16,11.05,7.29c0.84-0.64,1.99-1.51,3.57-2.64c8.29-5.97,12.7-14.94,18.47-23.08
		V129.11z"/>
	<path class="st1" d="M129.26,147.59c-6.58-3.61-13.39-10.55-17.9-16.68v18.04c0.51,0.59,1.32,1.59,2.68,3.21
		c5.49,6.58,14.03,8.96,19.54,15.29c0.91,1.03,1.59,1.81,2.1,2.38c3.58-2.1,6.98-4.48,10.2-7.08
		C141.68,156.28,135.81,151.17,129.26,147.59"/>
	<path class="st1" d="M133.86,20.53c-1.64,1-4.47,2.66-9.03,6.98c-4.95,4.7-8.52,13.23-13.47,18.56V61.3
		c6.29-4.44,12.69-10.62,16.6-17.08c3.78-6.01,8.53-11.68,14.58-15.08c0.97-0.54,1.7-0.99,2.24-1.35
		C141.35,25.1,137.7,22.68,133.86,20.53"/>
	<path class="st1" d="M74.51,41.64c-0.79-0.98-2.04-2.48-3.02-3.42c-6-5.78-15.15-10.08-20.91-16.79
		c-3.62,2.11-7.05,4.49-10.31,7.11c4.32,5.9,10.58,12.52,16.96,15.81c6.57,3.84,12.27,9.58,17.28,14.93V41.64z"/>
	<path class="st1" d="M160.16,43.36c-0.66,0.36-1.43,0.82-2.34,1.4c-7.55,4.81-12.1,13.12-16.95,20.11
		c-2.82,4.28-7.15,8.51-11.17,12.13h17.48c4.13-3.73,7.88-9.1,10.1-12.67c2.37-3.82,6.39-7.37,9.63-10.65
		C164.91,50.06,162.65,46.62,160.16,43.36"/>
</g>
<rect x="91.77" y="193.96" class="st1" width="4.12" height="5.51"/>
</svg>
