<?xml version="1.0" encoding="utf-8"?>
<!-- Generator: Adobe Illustrator 23.0.1, SVG Export Plug-In . SVG Version: 6.00 Build 0)  -->
<svg version="1.1" id="logo" xmlns="http://www.w3.org/2000/svg" xmlns:xlink="http://www.w3.org/1999/xlink" x="0px" y="0px"
	 viewBox="0 0 480.9 630.63" style="enable-background:new 0 0 480.9 630.63;" xml:space="preserve">
<style type="text/css">
	.Grün_x0020_bogenförmig{fill:url(#SVGID_1_);stroke:#FFFFFF;stroke-width:0.25;stroke-miterlimit:1;}
	.st0{fill:#CC1E1C;fill-opacity:0;}
	.st1{fill:#FFFFFF;}
</style>
<linearGradient id="SVGID_1_" gradientUnits="userSpaceOnUse" x1="-56.5488" y1="740.2788" x2="-55.8417" y2="739.5717">
	<stop  offset="0" style="stop-color:#259E2E"/>
	<stop  offset="0.9831" style="stop-color:#1C381D"/>
</linearGradient>
<g>
	<g>
		<path class="st0" d="M441.53,623.37c17.66,0,31.99-13.78,31.99-30.79V38.31c0-17.01-14.32-30.79-31.99-30.79H39.37
			C21.71,7.52,7.39,21.3,7.39,38.31v554.27c0,17,14.32,30.79,31.98,30.79H441.53z"/>
		<path class="st1" d="M102.83,548.4c-3.2-11.67-11.27-18.63-23.44-18.63c-18.72,0-26.49,16.96-26.49,33.33
			c0,16.52,7.61,33.02,26.49,33.02c13.55,0,22.07-8.03,24.2-21.05h9.74c-3.2,17.42-14.16,29.24-33.94,29.24
			c-25.12,0-36.23-18.02-36.23-41.21c0-21.81,12.63-41.51,36.23-41.51c18.11,0,29.99,8.64,32.73,26.82H102.83z"/>
		<path class="st1" d="M156.56,556.43c3.35-0.3,8.98-1.21,12.02-2.58c3.05-1.37,3.35-5.45,3.35-8.18c0-9.24-5.48-15.91-19.64-15.91
			c-12.63,0-21.31,4.09-22.99,17.72h-9.28c1.37-18.48,15.22-25.91,32.42-25.91c15.98,0,28.62,6.22,28.62,24.39v42.72
			c0,7.12,1.83,8.79,9.59,6.06v7.12c-1.37,0.46-4.57,1.52-7.15,1.52c-1.52,0-2.74-0.15-4.11-0.46c-6.09-0.91-7.15-6.21-7.3-11.66
			c-7.61,8.48-17.96,13.02-29.38,13.02c-13.85,0-26.33-7.42-26.33-22.57c0-13.18,9.13-21.21,27.55-23.63L156.56,556.43z
			 M171.94,560.97c-7.77,3.18-15.68,3.79-23.6,4.39c-13.85,1.06-22.22,6.07-22.22,16.67c0,9.54,8.37,14.08,17.05,14.08
			c14.46,0,28.77-6.96,28.77-22.87V560.97z"/>
		<path class="st1" d="M205.65,602.18h-9.13V523.7h9.13v14.7h0.3c5.02-12.57,12.48-16.82,25.72-16.82v9.86
			c-20.55-0.46-26.03,14.69-26.03,32.26V602.18z"/>
		<path class="st1" d="M238.72,602.18V523.7h9.13v78.48H238.72z"/>
		<path class="st1" d="M291.19,602.48c-2.13,0.46-6.09,1.82-10.51,1.82c-8.98,0-14.01-3.94-14.01-15.6v-57.41h-11.11v-7.58h11.11
			v-21.82h9.13v21.82h14.77v7.58h-14.77v53.78c0,7.73,0.31,11.05,7.92,11.05c2.44,0,5.02-0.45,7.46-1.06V602.48z"/>
		<path class="st1" d="M331.39,556.43c3.35-0.3,8.98-1.21,12.03-2.58c3.04-1.37,3.35-5.45,3.35-8.18c0-9.24-5.48-15.91-19.64-15.91
			c-12.63,0-21.3,4.09-22.98,17.72h-9.29c1.38-18.48,15.23-25.91,32.42-25.91c15.99,0,28.62,6.22,28.62,24.39v42.72
			c0,7.12,1.83,8.79,9.59,6.06v7.12c-1.37,0.46-4.57,1.52-7.15,1.52c-1.53,0-2.75-0.15-4.12-0.46c-6.09-0.91-7.15-6.21-7.3-11.66
			c-7.62,8.48-17.96,13.02-29.38,13.02c-13.85,0-26.33-7.42-26.33-22.57c0-13.18,9.14-21.21,27.55-23.63L331.39,556.43z
			 M346.76,560.97c-7.77,3.18-15.68,3.79-23.59,4.39c-13.86,1.06-22.23,6.07-22.23,16.67c0,9.54,8.38,14.08,17.06,14.08
			c14.46,0,28.77-6.96,28.77-22.87V560.97z"/>
		<path class="st1" d="M374.45,577.63c2.89,13.49,9.9,18.48,23.6,18.48c13.25,0,19.48-6.96,19.48-14.54
			c0-22.72-50.53-6.66-50.53-37.56c0-13.03,10.19-22.43,27.7-22.43c17.05,0,28.17,6.97,30.45,24.7h-9.29
			c-1.67-12.12-9.89-16.52-21.31-16.52c-11.57,0-17.81,5.45-17.81,13.49c0,21.36,50.54,8.03,50.54,38.17
			c0,15-13.54,22.88-32.11,22.88c-18.57,0-29.23-11.82-29.99-26.66H374.45z"/>
		<g>
			<polygon class="st1" points="449.7,210.97 278.95,210.97 278.95,38.21 204.66,38.21 204.66,210.97 33.9,210.97 33.9,286.13
				204.66,286.13 204.66,458.89 278.95,458.89 278.95,286.13 449.7,286.13 			"/>
			<path class="st1" d="M143.71,167.3c12.32,9.87,22.5,22.89,31.49,34.56h20.48v-25.04c-5.41-7.12-11.2-14.36-17.23-20.96
				c-13.19-14.71-30.43-23.98-46.58-34.87c-11.32-8.58-21.96-21.69-30-32.77c-7.7,6.88-14.9,14.32-21.53,22.25
				c1.38,2.38,3.7,6.16,7.64,12.15c10.66,16.23,26.66,25.06,42.55,35.14C135.1,160.21,139.41,164.03,143.71,167.3z"/>
			<path class="st1" d="M158.26,201.85c-4.56-8.29-12.42-17.77-18.58-24.48c-18.85-17.16-44.7-22.88-58.7-46.04
				c-3.93-6.5-6.2-10.21-7.5-12.22c-6.43,8.55-12.25,17.6-17.37,27.09c9.65,16.4,22.09,31.02,39.42,39.89
				c13.19,6.75,20.19,13.01,22.9,15.76H158.26z"/>
			<path class="st1" d="M379.33,86.09c-6.61,4.83-12.96,9.05-18.84,14.73c-14,11.72-22.1,28.15-32.59,43.05
				c-10.03,14.27-25.5,26.21-40.33,35.16v22.82h26.21c12.06-8.26,25.27-20.14,34.31-30.74c14.81-20.7,25.84-46.04,47.66-59.39
				c2.22-1.36,4.06-2.52,5.6-3.51C394.56,100.3,387.2,92.91,379.33,86.09z"/>
			<path class="st1" d="M429.15,347.38c-9.43-12.54-18.85-24.25-32.31-32.7c-9.51-5.57-19.93-12.84-29.36-19.52h-40.53l3.64,5.9
				c13.19,18.25,32.58,28.61,50.09,41.13c12.53,8.36,23.47,20.83,31.31,33.3c6.42-8.79,12.19-18.11,17.24-27.86L429.15,347.38z"/>
			<path class="st1" d="M400.61,378.98c-13.27-21.43-37.43-33.78-56.56-47.68c-13.75-9.97-23.49-22.79-32.38-36.14h-24.11v21.52
				c10.54,15.64,26.27,34.14,41.41,43.22c19.82,12.2,39.27,28.45,54.85,47.13c7.38-6.78,14.28-14.08,20.66-21.83
				C403.44,383.49,402.15,381.47,400.61,378.98z"/>
			<path class="st1" d="M169.85,295.16c-17.16,12.27-32.27,27.34-43.9,44.86c-11.31,19.89-23.97,36.24-42.55,49.58l-0.22,0.38
				c6.73,7.72,14,14.94,21.75,21.61c1.68-1.12,3.64-2.52,5.93-4.28c17.62-13.5,31.51-29.69,42.01-47.67
				c10.62-16.79,26.74-31.53,42.81-43.3v-21.17H169.85z"/>
			<path class="st1" d="M104.44,295.16c-10.6,10.35-16.82,20.38-24,32.32c-5.32,9.26-14.28,18.47-23.62,24.73
				c5.19,9.46,11.06,18.47,17.56,26.98l11.17-7.84c4.58-3.27,9.43-7.36,12.66-11.71c8.62-9.27,14.81-21.53,22.35-31.61
				c8.35-11.72,18.31-20.98,28.81-29.69c0.68-0.55,2.38-2.03,3.71-3.18H104.44z"/>
			<path class="st1" d="M195.68,331.84c-14.96,10.77-29.45,25.19-38.24,40.88c-8.89,16.61-22.35,31.05-38.78,41.95
				c-2.33,1.55-4.12,2.74-5.49,3.67c8.68,6.74,17.89,12.83,27.56,18.16c2.1-1.59,4.97-3.75,8.9-6.57
				c20.64-14.89,31.66-37.27,46.04-57.56V331.84z"/>
			<path class="st1" d="M332.21,377.89c-16.42-8.96-33.39-26.28-44.64-41.58v45.02c1.27,1.49,3.31,3.99,6.67,8.01
				c13.7,16.42,35,22.34,48.74,38.15c2.24,2.58,3.95,4.51,5.25,5.94c8.92-5.26,17.42-11.17,25.43-17.65
				C363.18,399.56,348.54,386.83,332.21,377.89z"/>
			<path class="st1" d="M343.69,61.09c-4.09,2.5-11.15,6.6-22.52,17.39c-12.37,11.72-21.25,33.01-33.6,46.3v37.96
				c15.69-11.08,31.66-26.49,41.41-42.57c9.43-14.98,21.28-29.15,36.35-37.59c2.43-1.36,4.25-2.47,5.61-3.38
				C362.35,72.47,353.25,66.42,343.69,61.09z"/>
			<path class="st1" d="M195.68,113.71c-1.97-2.43-5.1-6.18-7.54-8.53c-14.94-14.42-37.77-25.14-52.13-41.88
				c-9.01,5.28-17.59,11.21-25.69,17.73c10.77,14.71,26.38,31.24,42.27,39.41c16.41,9.59,30.61,23.87,43.09,37.21V113.71z"/>
			<path class="st1" d="M409.27,117.98c-1.64,0.91-3.56,2.05-5.84,3.5c-18.85,11.99-30.16,32.69-42.27,50.13
				c-7.04,10.67-17.81,21.22-27.85,30.24h43.62c10.31-9.3,19.62-22.69,25.16-31.6c5.93-9.53,15.96-18.37,24.04-26.54
				C421.11,134.71,415.48,126.11,409.27,117.98z"/>
		</g>
		<rect x="238.73" y="493.55" class="st1" width="10.26" height="13.72"/>
	</g>
	<path class="st1" d="M439.3,9.97c17.47,0,31.64,13.67,31.64,30.54v549.63c0,16.87-14.17,30.54-31.64,30.54H41.6
		c-17.47,0-31.63-13.67-31.63-30.54V40.5c0-16.87,14.16-30.54,31.63-30.54H439.3 M439.3,0H41.6C18.66,0,0,18.17,0,40.5v549.63
		c0,22.33,18.66,40.5,41.6,40.5H439.3c22.94,0,41.6-18.17,41.6-40.5V40.5C480.9,18.17,462.24,0,439.3,0L439.3,0z"/>
</g>
</svg>
