<svg xmlns="http://www.w3.org/2000/svg" viewBox="0 0 566.93 566.93"><g id="b1b5b6f5-4183-4b53-95d5-540d5fdb55aa" data-name="Copy"><g style="opacity:0.05"><circle cx="283.46" cy="283.46" r="283.46"/></g><path d="M457.33,378.55l-16.34-18s10.27-31.76,9.37-49.76c-.49-9.94-1.47-24.37-5.11-33.15-4.36-10.51-4.88-30.89,1.3-45.47,0,0,8.47-16.17,2.82-23.86,0,0-13.48-23.52-33.74-7-8.3,6.76-17.79,29.67-17.36,41,0,0,3.88,17.92-6,19.29,0,0-15.34,5.37-27.09-18.83l-49.31-88.4s-12.45-13.61-25.61-4c0,0-14.82,10.31-7.12,23.18l37.16,73.38s4.88,12.28-7.6,8.21L240.66,178.5s-15.68-14.61-31-.49c0,0-13.69,12.92.21,29.67l71.31,78.25s7.87,14.84-7,7.17l-76.62-47.49s-12.68-5.88-23.53,7.48c0,0-8.79,12.72,5.15,26.08L256,332s10.34,8.42-2.84,8.79l-74.92-18.07s-15.18-2-18.8,14.72c0,0-2.56,13,12,19.2L263,386.1s29.65,30.32,47.15,40.25c0,0,24.24,12.74,35.49,9.16L370.8,460.7Z" style="fill:#e2a88a"/><path d="M454.45,376.29l-89,68.47s-19.84,9,0,28.83l34,48.57,118-94.29-39-43.17S464.67,366.68,454.45,376.29Z" style="fill:#fff"/><path d="M529,425.28l-22-24.44s-16.57-21.61-28.81-10.09l-106.58,82.1s-23.76,10.8,0,34.56l25.14,36A284.61,284.61,0,0,0,529,425.28Z" style="fill:#73be00"/><path d="M86.49,395.39a4.71,4.71,0,0,1-4.4-3.05C55.71,322.06,68.12,273,68.66,270.91a4.7,4.7,0,0,1,9.09,2.39c-.07.28-3.1,12.3-3,32.36.08,18.63,3,48.22,16.15,83.37a4.7,4.7,0,0,1-4.4,6.36Z" style="fill:#c3c3c3"/><path d="M109.59,368.4a4.71,4.71,0,0,1-4.51-3.37c-14-47.29-3.5-79-3-80.36a4.7,4.7,0,0,1,8.9,3c-.15.44-9.89,30.55,3.17,74.67a4.7,4.7,0,0,1-4.51,6Z" style="fill:#c3c3c3"/><path d="M424.3,145.69a4.67,4.67,0,0,1-3.93-2.12h0c-.27-.41-27.93-41.41-94.84-67.63A4.7,4.7,0,1,1,329,67.19c69.9,27.38,98.1,69.44,99.26,71.22a4.7,4.7,0,0,1-3.92,7.28Z" style="fill:#c3c3c3"/><path d="M387,161.46a4.7,4.7,0,0,1-4.1-2.4c-.18-.31-16-27.75-57.63-47.59a4.7,4.7,0,1,1,4-8.48c44.52,21.23,61.1,50.25,61.79,51.48a4.7,4.7,0,0,1-4.1,7Z" style="fill:#c3c3c3"/></g></svg>