<svg xmlns="http://www.w3.org/2000/svg" xmlns:xlink="http://www.w3.org/1999/xlink" viewBox="0 0 566.93 566.93"><defs><clipPath id="ff8cb287-30df-4aaa-aec3-c39f3ff9e9b0"><circle cx="283.47" cy="-369.23" r="283.46" style="fill:none"/></clipPath><clipPath id="ffcef8d7-02c2-4d97-b59d-cb170843e3a1"><circle cx="-420.29" cy="275.23" r="282.91" style="fill:none"/></clipPath></defs><g id="bda83577-95b0-40c4-a19f-e430feea0880" data-name="Copy"><g style="clip-path:url(#ff8cb287-30df-4aaa-aec3-c39f3ff9e9b0)"><path d="M421.05,25S425,52.84,424.8,53.15s1.49,3.15,1.49,3.15l6.92,1.54,6.49-2.66s-4.08-26.31-3.27-29.53S421.05,25,421.05,25Z" style="fill:#f7a48e"/><path d="M439.7,55.18s-8.16,2.48-14.83-2.46c0,0-27.19,8.91-26.69,16.57,0,0-1.23,2.22,10.38,2.22s29.66.23,30.15,0S441.43,72.57,439.7,55.18Z" style="fill:#070633"/><path d="M516.91,23.38s8.23,26.88,8.1,27.21,2,2.88,2,2.88l7.08.45,6-3.64s-8.13-25.36-7.84-28.66S516.91,23.38,516.91,23.38Z" style="fill:#f7a48e"/><path d="M540,50.28s-7.67,3.71-15-.12c0,0-25.46,13-23.77,20.53,0,0-.87,2.39,10.6.57s29.33-4.4,29.78-4.72S544.46,67.18,540,50.28Z" style="fill:#070633"/><path d="M505.43-196.63l-101.24-3.46s-11.89,73.16,9,246.31h31.4S451.29-132.12,457-142.37,482.68-30.84,514.08,42.42l28.54-8.57s-25.69-128.43-29.5-161.73S505.43-196.63,505.43-196.63Z" style="fill:#464646"/></g><g style="clip-path:url(#ffcef8d7-02c2-4d97-b59d-cb170843e3a1)"><rect x="-600.6" y="206.52" width="1428.69" height="99.03" rx="16.47" style="fill:#fff"/></g><g style="opacity:0.05"><circle cx="283.46" cy="283.46" r="283.46"/></g><g style="opacity:0.05"><circle cx="283.46" cy="283.46" r="165.27"/></g><circle cx="283.46" cy="283.46" r="110.18" style="fill:#d30041"/><path d="M297.79,283.46,326.3,255A10.13,10.13,0,0,0,312,240.63l-28.51,28.51L255,240.63A10.13,10.13,0,0,0,240.63,255l28.51,28.5L240.63,312A10.13,10.13,0,0,0,255,326.3l28.5-28.51L312,326.3A10.13,10.13,0,0,0,326.3,312Z" style="fill:#fff"/></g></svg>