<?xml version="1.0" encoding="UTF-8"?>
<svg width="390px" height="354px" viewBox="0 0 390 354" version="1.1" xmlns="http://www.w3.org/2000/svg" xmlns:xlink="http://www.w3.org/1999/xlink">
    <title>B5ABEB99-26F0-4259-A9A3-296829836161</title>
    <defs>
        <polygon id="path-1" points="8.47403062e-15 0 390 0 390 243 8.47403062e-15 243"></polygon>
    </defs>
    <g id="Registrierungsprozess" stroke="none" stroke-width="1" fill="none" fill-rule="evenodd">
        <g id="Intro-Animation-Start" transform="translate(-970.000000, -242.000000)">
            <g id="Diakonie_FCiccolella_A_Diakonie" transform="translate(970.000000, 242.000000)">
                <path d="M383,157.444251 C376.010788,146.786389 375.441815,144.170125 373.585164,136.767833 C372.669542,133.117425 368.542441,132.967055 366.944414,136.97909 C365.30283,141.100905 366.207562,149.475532 366.650399,152.369474 C367.52337,158.078022 378.132416,195 378.132416,195 L383,157.444251" id="Fill-1" fill="#D2755A"></path>
                <path d="M159.461534,75 C191.132215,95.0596961 183.123194,125.515937 173.17344,141.586531 C163.221821,157.658053 125,124.6665 125,124.6665 L159.097064,77.5371691 L159.461534,75" id="Fill-2" fill="#000210"></path>
                <g id="Group-9" transform="translate(0.000000, 111.000000)">
                    <mask id="mask-2" fill="white">
                        <use xlink:href="#path-1"></use>
                    </mask>
                    <g id="Clip-4"></g>
                    <path d="M159.295994,71.542014 C144.135688,71.542014 131.626757,83.2893071 131.626757,98.0899436 C131.626757,112.283461 144.135688,124.133497 159.295994,124.133497 L186.765655,124.133497 C186.793633,124.133497 186.817881,124.110146 186.817881,124.081191 L186.817881,98.0899436 C186.817881,83.2893071 174.537436,71.542014 159.295994,71.542014" id="Fill-3" fill="#FFFFFE" mask="url(#mask-2)"></path>
                    <path d="M94.647398,140.924551 L94.647398,124.17366 L125.644143,124.17366 C119.4032,117.121735 115.705451,107.789843 115.705451,98.133843 C115.705451,74.767219 135.245235,56.0791504 159.295994,56.0791504 C169.686064,56.0791504 179.169648,59.51171 186.817881,65.3223095 L186.817881,32.0484312 C186.817881,31.916733 186.774049,31.7971772 186.685452,31.7009721 C185.285623,30.1710312 172.6396,17.0974159 143.441835,10.367731 C134.698733,8.35209465 112.928176,4.19472792 92.9183621,5.60698101 C72.9094813,7.02016813 44.3887825,19.9957104 32.3321611,37.336908 C20.2755397,54.6799737 0.562292336,105.431418 0.0232509419,122.697893 C-0.515790453,139.964368 8.07436575,153.377037 51.3608819,153.582523 C51.3608819,153.582523 51.1044176,221.601377 51.3608819,222.885668 C51.6173462,224.169959 70.9444982,241.902515 119.045083,242.930882 C163.81816,243.887328 183.961335,234.688069 186.532506,233.412184 C186.7097,233.324385 186.817881,233.145051 186.817881,232.946103 L186.817881,140.924551 L94.647398,140.924551" id="Fill-5" fill="#FFFFFE" mask="url(#mask-2)"></path>
                    <path d="M258.578466,98.0908776 C258.578466,83.2893071 246.410866,71.542014 230.997826,71.542014 C215.897206,71.542014 203.557075,83.2893071 203.557075,98.0908776 L203.557075,124.081191 C203.557075,124.110146 203.58039,124.133497 203.608368,124.133497 L230.996893,124.133497 C246.410866,124.133497 258.578466,112.283461 258.578466,98.0908776" id="Fill-6" fill="#FFFFFE" mask="url(#mask-2)"></path>
                    <path d="M372.989536,58.2769225 C366.447364,32.199744 362.095864,16.3128308 340.909112,8.94800567 C323.532022,2.9067008 305.492787,0 305.492787,0 C305.492787,0 264.901478,2.78994707 256.179825,4.57954821 C226.745181,10.618985 205.609722,29.9842253 203.58039,31.8961843 C203.475939,31.9942574 203.419983,32.1287577 203.419983,32.2725983 L203.419983,65.3223095 C211.04117,59.512644 220.613352,56.0791504 230.940937,56.0791504 C254.991696,56.0791504 274.413973,74.768153 274.413973,98.133843 C274.413973,107.790777 270.832798,117.121735 264.762521,124.174594 L295.589533,124.174594 L295.589533,140.924551 L203.419983,140.924551 L203.419983,232.885391 C203.419983,233.113294 203.560805,233.312243 203.777168,233.381361 C207.228711,234.473242 235.260729,243 269.354631,243 C318.275902,243 338.755744,223.656242 339.013141,222.884734 C339.269605,222.114159 339.013141,156.651745 339.013141,156.651745 C339.013141,156.651745 375.04125,152.696129 385.045225,137.409797 C395.050131,122.122531 379.529843,84.3541011 372.989536,58.2769225" id="Fill-7" fill="#FFFFFE" mask="url(#mask-2)"></path>
                    <path d="M383.506439,46.201785 C389.021821,55.065728 392.881842,68.4120801 387.208851,83.1856298 C383.717206,92.2737399 372.091444,97.9713218 368.499078,99.7702633 C364.907645,101.568271 361.098917,97.7069914 363.647706,94.845124 C366.196495,91.9841907 375.34994,83.3658975 375.34994,83.3658975 C375.34994,83.3658975 364.456268,89.6780711 360.60837,90.2244785 C356.761405,90.77182 352.729786,85.0172623 358.183617,81.439928 C363.637447,77.8616598 373.755198,72.4153319 373.663804,72.1127063 C373.532308,71.6727782 357.981243,75.8095963 351.418554,75.8768464 C344.855865,75.9450306 343.907413,67.3575605 351.276799,65.8164112 C358.646185,64.2761961 371.277287,60.9305013 371.277287,60.9305013 C371.277287,60.9305013 355.77938,60.4737607 350.285448,60.0674577 C344.790583,59.6602207 342.097241,50.1106998 351.182607,50.0350434 C360.268905,49.960321 371.102891,50.8719341 370.128326,47.2245477 C369.323495,44.2104335 383.506439,46.201785 383.506439,46.201785" id="Fill-8" fill="#D2755A" mask="url(#mask-2)"></path>
                </g>
                <path d="M284.9171,235.448374 C277.720732,235.448374 275.386026,229.861358 276.617154,226.782055 C277.849206,223.702751 292.127332,222.027207 299.114815,222 C309.423201,221.958093 333.012425,232.808971 333.53094,233.595375 C334.05038,234.381779 336.124443,239.359846 335.994121,249.84274 C335.865647,260.3247 332.94865,267.5966 332.364511,267.989802 C331.781297,268.383004 315.061249,274.890916 300.595496,275.85851 C286.128818,276.82517 266.95853,272.550384 262.809481,271.76398 C258.660432,270.97851 257.687175,267.964585 258.399788,265.933197 C259.114249,263.902744 262.290041,262.133802 262.290041,262.133802 C262.290041,262.133802 254.699934,262.079632 252.340272,259.868922 C249.98061,257.660079 250.426109,251.414613 256.196328,250.825278 C261.966547,250.235942 287.5448,252.198215 295.830883,252.198215 C304.01622,252.198215 305.987688,244.339781 305.468248,241.981503 C304.950657,239.622292 300.522478,235.448374 295.830883,235.448374 L284.9171,235.448374" id="Fill-10" fill="#EE9E7D"></path>
                <path d="M62.8001571,231.09705 C62.8001571,231.09705 79.0304178,223.734265 84.6789897,223.151252 C90.3275616,222.568239 106.556896,223.734265 109.703229,225.557008 C112.848636,227.378806 108.702334,235.701625 101.695139,235.701625 L94.3033407,235.701625 C90.2552747,235.701625 85.3935179,237.804063 84.8930701,240.792832 C84.3926224,243.781601 87.0737247,252.646802 94.3033407,252.646802 C103.026886,252.646802 128.078001,250.270339 134.083373,252.019378 C140.089673,253.769363 139.231498,259.31035 138.445609,260.329914 C137.658794,261.350423 130.6516,262.079898 130.6516,262.079898 C130.6516,262.079898 132.797037,262.808428 133.726573,265.797197 C134.656108,268.785966 132.152943,271.630163 130.723886,272.212232 C129.293903,272.795245 109.415935,274.252305 93.401608,273.962216 C77.3863544,273.673072 59.5111035,264.995909 58.3674878,263.974455 C57.2229453,262.953945 55.2109601,251.04328 56.3258464,244.181301 C57.8744541,234.659383 61.4313399,231.707466 62.8001571,231.09705" id="Fill-11" fill="#D2755A"></path>
                <path d="M44.6219559,137.119059 C36.4003334,143.109926 37.8015678,154.542659 39.0022297,165.042183 C40.2028916,175.540782 41.4802702,186.931854 35.9973399,188.556637 C30.5162582,190.180494 30.2935026,185.195048 28.9495746,176.846163 C27.6074953,168.498203 27.1601355,163.904372 27.1601355,163.904372 C27.1601355,163.904372 25.761674,178.807012 24.4759768,188.052074 C23.1884309,197.296211 21.2307697,201.162361 16.6998654,200.994791 C12.1698854,200.826295 11.6652192,194.775251 11.6652192,194.775251 C11.6652192,194.775251 7.35984342,195.279813 6.18506183,192.254291 C5.01028024,189.228769 9.76486443,169.002766 10.9941795,158.749505 C12.224419,148.496244 12.1698854,136.114563 30.8527023,129.839475 C49.5345949,123.564387 51.4931804,119.586214 57.0861021,120.034303 C62.6808723,120.482391 62.9054765,125.543752 60.6954822,128.39152 C58.4854879,131.240214 48.5908876,134.226852 44.6219559,137.119059" id="Fill-12" fill="#EE9E7D"></path>
                <g id="Group-18" transform="translate(68.000000, 0.000000)">
                    <path d="M23.405017,117.127597 C24.1704449,115.187015 25.7489647,107.421883 25.9087793,105.500006 C28.8966584,96.5490146 41.1930378,32.0880363 41.1930378,32.0880363 C41.1930378,32.0880363 71.9129581,19.1324328 92.7346528,25.5985443 C94.2954154,29.1954007 95.3337431,33.1008797 95.7505695,37.2523215 C96.7159993,46.8551612 101.716047,56.1409612 108.555365,61.3286269 C114.671311,65.9682537 102.047826,69.3612321 102.268389,71.2419596 C104.078687,86.6440989 104.529158,99.4706421 97.1860973,102.907576 C84.2906467,108.942551 76.5251518,110.9991 75.1812137,112.669403 C74.0092398,114.125541 74.1821387,118.392014 74.0354083,121.893478 C73.8914817,125.394942 64.7661607,153.679738 57.0389839,154.951637 C49.3099379,156.224472 25.9704621,132.079895 23.405017,117.127597" id="Fill-13" fill="#D2755A"></path>
                    <path d="M92.7290452,25.6247305 C84.1925149,5.93273676 60.0315359,-4.49964308 36.8200987,4.62716954 L36.7929957,4.61781734 C36.7929957,4.61781734 31.9527624,6.2329424 25.7900866,10.5630113 C25.5695237,10.7173226 25.3489609,10.8753748 25.128398,11.033427 C24.7190483,11.3317622 24.3031565,11.6441257 23.8835263,11.9649062 C23.5853926,12.1912294 23.2825859,12.4007187 22.9863214,12.635459 C21.4498581,13.8475042 20.0526485,15.0932173 18.773197,16.3651166 C10.5170432,24.3462846 2.16088839,37.1195203 0.363674919,56.8433115 C-3.40832381,98.2352164 23.405017,117.127597 23.405017,117.127597 C23.405017,117.127597 36.5285072,113.498008 38.5640407,104.686364 C40.5995742,95.8756561 45.1220474,89.3487553 57.9072165,82.7741582 C70.6933202,76.198626 65.1325193,66.1983178 70.2120072,55.2300569 C75.2924297,44.2617959 96.4543145,41.5085081 92.7290452,25.6247305" id="Fill-15" fill="#000210"></path>
                    <path d="M236.433225,111.513471 C235.690227,109.564472 234.804237,106.462347 234.666853,104.5386 C231.77804,95.5548757 220.201294,30.9620314 220.201294,30.9620314 C220.201294,30.9620314 189.628104,17.663202 168.73538,23.8964438 C167.135365,27.4764662 166.053112,31.3697873 165.59049,35.5156179 C164.517583,45.1072349 157.025923,53.233362 152.517468,59.4478994 C148.008079,65.6615015 158.935287,67.5525165 158.693228,69.4295031 C156.711901,84.8120028 156.116568,97.6319994 163.422245,101.151233 C176.249471,107.329296 183.990667,109.472821 185.315913,111.158087 C186.471999,112.626383 186.164519,114.957886 186.886021,120.085698 C187.606589,125.214445 191.572982,146.332649 197.584255,147.164995 C203.596462,147.997341 233.702358,126.436777 236.433225,111.513471" id="Fill-16" fill="#EE9E7D"></path>
                    <path d="M168.740988,23.9235652 C174.775625,24.084423 181.398118,25.4535852 187.006583,29.4759667 C201.635695,39.9663302 193.115988,49.5065101 202.698322,60.1951402 C211.735792,70.2749421 219.32465,66.5574423 223.059265,80.665237 C226.79388,94.7739669 226.417241,99.5304962 234.666853,104.539535 C234.573394,100.172057 235.407047,95.6858065 237.244448,91.9795294 C246.54921,73.2105979 269.022322,36.2507009 238.625769,11.713332 C212.232059,-9.58817546 179.268192,0.363501263 168.740988,23.9235652" id="Fill-17" fill="#000210"></path>
                </g>
            </g>
        </g>
    </g>
</svg>