<svg xmlns="http://www.w3.org/2000/svg" viewBox="0 0 311.8 59.5"><path d="M10.5 11.1H30c12.9 0 17.4 9.5 17.4 19.3 0 11.8-6.3 19.4-19.7 19.4H10.5V11.1zm11.9 28.7h4.7c7.4 0 8.5-6 8.5-9.6 0-2.4-.8-9.2-9.4-9.2h-3.8v18.8zm38.8-21.2H50.5v-7.5h10.7v7.5zm-10.7 3h10.7v28.1H50.5V21.6zm42.8 21.8c0 2.1.1 4.5 1.3 6.3H83.7c-.3-.8-.4-1.9-.4-2.7h-.1c-2.3 2.6-5.6 3.4-9 3.4-5.4 0-9.9-2.6-9.9-8.5 0-8.9 10.4-8.5 15.9-9.6 1.5-.3 2.9-.7 2.9-2.5 0-1.9-1.8-2.6-3.5-2.6-3.3 0-3.9 1.7-4 2.9h-10c.3-7.9 7.8-9.2 14.4-9.2 13.4 0 13.3 5.6 13.3 11v11.5zM83 37.1c-1.3.6-2.8 1-4.2 1.4-2.4.5-3.6 1.1-3.6 3 0 1.3 1.4 2.6 3.4 2.6 2.4 0 4.3-1.5 4.5-4.4v-2.6zm14.6-26h10.7v18.7l6.8-8.1h12.1l-10 10.6 11.6 17.5h-12.9l-5.7-10.2-1.9 2.1v8.1H97.6V11.1zm45.1 39.3c-10.5 0-15.3-7-15.3-14.8 0-7.8 4.8-14.7 15.3-14.7S158 27.8 158 35.6c0 7.8-4.8 14.8-15.3 14.8zm0-21.7c-4.1 0-4.6 3.9-4.6 6.9 0 3 .5 7 4.6 7s4.6-4 4.6-7c0-2.9-.6-6.9-4.6-6.9zm18.6-7.1h10.3v3.6h.1c2-2.8 4.9-4.3 9.1-4.3 5 0 9.6 3.1 9.6 9.5v19.3h-10.7V35c0-3.2-.4-5.5-3.5-5.5-1.8 0-4.3.9-4.3 5.4v14.8h-10.7V21.6zm44.2-3h-10.7v-7.5h10.7v7.5zm-10.7 3h10.7v28.1h-10.7V21.6zm23.6 16.5c.3 3.2 2.1 5.5 5.5 5.5 1.7 0 3.6-.6 4.5-2h10c-2.2 6.1-8.1 8.9-14.4 8.9-9 0-15.7-5.3-15.7-14.7 0-8.2 5.9-14.8 14.8-14.8 11.1 0 16 6.2 16 17.2h-20.7zm10.3-5.6c0-2.6-1.9-4.7-4.7-4.7-3.2 0-5 1.7-5.5 4.7h10.2zm44.4-3.8v-5c0-2.8-2.4-5.1-5.3-5.1s-5.3 2.3-5.3 5.1c0 2.7 2.4 5 5.3 5h5.3zm0-17.7h-17.7v17.7h6c-1.2-1.4-1.9-3.1-1.9-5 0-4.5 3.8-8.1 8.4-8.1 2 0 3.8.7 5.3 1.8V11zm8.4 17.7c3 0 5.3-2.3 5.3-5 0-2.8-2.3-5.1-5.3-5.1-2.9 0-5.3 2.3-5.3 5.1v5h5.3zm-5.3-11.3c1.5-1.1 3.3-1.8 5.3-1.8 4.6 0 8.4 3.6 8.4 8.1 0 1.9-.7 3.6-1.9 5h5.9V11h-17.7v6.4zm-20.9 32.3H273V31.9h-17.7v17.8zm20.9 0H294V31.9h-17.7v17.8z" fill="#2dafe5"/></svg>