<svg version="1.1" id="Ebene_1" xmlns="http://www.w3.org/2000/svg" x="0" y="0" viewBox="0 0 169.9 174.9" style="enable-background:new 0 0 169.9 174.9" xml:space="preserve"><style>.st1{fill:#2b2423}</style><path style="fill:#fff" d="M0 0h169.9v174.9H0z"/><path class="st1" d="M28.5 22.3c-.2-.1-.7-.3-1.3-.3-1.3 0-2.5.8-2.5 3 0 2.1 1 3.1 2.4 3.1.5 0 .9-.1 1.2-.2v-2.1l-.6-.1c-.1 0-.1-.1-.1-.1 0-.1.1-.2.1-.3H30v.1c0 .2-.1.3-.4.4l-.2.1V28c-.3.3-1.1.8-2.6.8-1.8 0-3.3-1.1-3.3-3.7 0-2.7 2-3.8 3.8-3.8 1.1 0 1.7.3 2 .5 0 .3.1 1 .1 1.1 0 .3-.1.5-.4.5h-.2l-.3-1.1m3.3 3.9c0 1.3.6 1.9 1.5 1.9.7 0 1-.3 1.3-.5.1.1.2.3.2.4 0 .3-.7.9-1.9.9-1.3 0-2.3-.7-2.3-2.6 0-1.8 1.1-2.8 2.3-2.8 1.2 0 1.8.7 1.8 1.8 0 .3-.1.6-.1.9h-2.8zm1.8-.5c0-.1.1-.3.1-.5 0-.6-.2-1.1-.8-1.1-.6 0-1 .5-1.1 1.5h1.8m5-1.4h-1.3v3.9l.7.1c.1 0 .1.1.1.1 0 .1-.1.3-.1.3h-2.5v-.1c0-.2.1-.3.3-.3l.4-.1v-3.9h-.8v-.1c0-.2.1-.3.3-.4l.5-.1v-.1c0-1.7 1-2.5 1.9-2.5.5 0 .7.2.7.6 0 .3-.2.4-.3.5-.1-.1-.4-.3-.7-.3-.5 0-.6.3-.6.9v1h1.4v.5m5.4 1.9c0 1.8-1.3 2.7-2.6 2.7S39 28 39 26.2s1.3-2.7 2.6-2.7c1.4 0 2.4.8 2.4 2.6zm-3.4-3.3c-.3 0-.6-.2-.6-.6 0-.4.3-.6.6-.6s.6.2.6.6c0 .4-.3.6-.6.6zm-.4 3.4c0 1.4.6 2 1.3 2 .8 0 1.4-.6 1.4-2s-.6-2.1-1.4-2.1c-.7.1-1.3.7-1.3 2.1zm2.3-3.4c-.3 0-.6-.2-.6-.6 0-.4.2-.6.6-.6.3 0 .6.2.6.6 0 .4-.3.6-.6.6m4 1.7c.3-.4.6-1 1.3-1 .5 0 .7.2.7.6 0 .2-.1.4-.2.5-.1 0-.3-.2-.7-.2-.6 0-.9.2-1.1.5v3.2l.8.1c.1 0 .1.1.1.1 0 .1-.1.3-.1.3h-2.5v-.1c0-.2.1-.3.3-.3l.4-.1v-3.9l-.7-.1V24c0-.2.1-.3.4-.3l1.4-.1-.1.9m6.9 3.6.8.1v.1c0 .2-.1.3-.4.3l-1.4.1V28c-.2.3-.7.7-1.5.7-1 0-2-.7-2-2.5 0-2 1.4-2.8 2.7-2.8.3 0 .6.1.7.1v-1.8l-.7-.1v-.1c0-.2.1-.3.4-.3l1.4-.1v7zm-1.1-3.6c-.2-.1-.4-.3-.9-.3-.9 0-1.5.6-1.5 2s.6 1.9 1.3 1.9c.6 0 .9-.3 1.1-.4v-3.2m3.6 1.7c0 1.3.6 1.9 1.5 1.9.7 0 1-.3 1.3-.5.1.1.2.3.2.4 0 .3-.7.9-1.9.9-1.3 0-2.3-.7-2.3-2.6 0-1.8 1.1-2.8 2.3-2.8 1.2 0 1.8.7 1.8 1.8 0 .3-.1.6-.1.9h-2.8zm1.8-.5c0-.1.1-.3.1-.5 0-.6-.2-1.1-.8-1.1-.6 0-1 .5-1.1 1.5h1.8m3.6-1.1c.3-.4.6-1 1.3-1 .5 0 .7.2.7.6 0 .2-.1.4-.2.5-.1 0-.3-.2-.7-.2-.6 0-.9.2-1.1.5v3.2l.8.1c.1 0 .1.1.1.1 0 .1-.1.3-.1.3h-2.5v-.1c0-.2.1-.3.3-.3l.4-.1v-3.9l-.7-.1V24c0-.2.1-.3.4-.3l1.4-.1-.1.9m5.6-.3h-1.4v3.1c0 .5.1.9.7.9.4 0 .7-.2.8-.3.1.1.1.2.1.3 0 .1-.4.6-1.3.6-1 0-1.3-.6-1.3-1.4v-3.3h-.8V24c0-.2.1-.3.3-.4l.5-.1.2-1.4h.8v1.4H67l-.1.7m7.4 3.9.8.1v.1c0 .2-.1.3-.4.3l-1.4.1V28c-.2.3-.7.7-1.5.7-1 0-2-.7-2-2.5 0-2 1.4-2.8 2.7-2.8.3 0 .6.1.7.1v-1.8l-.7-.1v-.1c0-.2.1-.3.4-.3l1.4-.1v7zm-1.1-3.6c-.2-.1-.4-.3-.9-.3-.9 0-1.5.6-1.5 2s.6 1.9 1.3 1.9c.6 0 .9-.3 1.1-.4v-3.2m7.2 3.6.8.1v.1c0 .2-.1.3-.4.3l-1.4.1V28c-.2.2-.6.8-1.6.8-1.1 0-1.6-.7-1.6-1.9v-2.7l-.7-.1V24c0-.2.1-.3.4-.3l1.4-.1v3.3c0 1 .5 1.2 1 1.2s.9-.2 1.1-.5v-3.3l-.7-.1v-.1c0-.2.1-.3.4-.3l1.4-.1v4.4m2.8-3.6c.3-.4.6-1 1.3-1 .5 0 .7.2.7.6 0 .2-.1.4-.2.5-.1 0-.3-.2-.7-.2-.6 0-.9.2-1.1.5v3.2l.8.1c.1 0 .1.1.1.1 0 .1-.1.3-.1.3h-2.5v-.1c0-.2.1-.3.3-.3l.4-.1v-3.9l-.7-.1V24c0-.2.1-.3.4-.3l1.4-.1-.1.9m4.9-.3c-.7 0-1.3.5-1.3 1.9 0 1.3.5 2.1 1.5 2.1.7 0 1-.3 1.2-.5.1.1.2.3.2.4 0 .3-.6.9-1.7.9-1.4 0-2.2-.9-2.2-2.6 0-1.8 1.2-2.7 2.6-2.7 1.2 0 1.4.6 1.4.9 0 .3-.1.5-.5.6-.3-.5-.5-1-1.2-1m3.9.1c.2-.3.7-.8 1.6-.8 1 0 1.6.6 1.6 1.8v2.8l.6.1c.1 0 .1.1.1.1 0 .1-.1.3-.1.3h-2.4v-.1c0-.2.1-.3.3-.3l.3-.1v-2.7c0-.9-.5-1.2-1-1.2-.6 0-1 .3-1.2.5V28l.6.1c.1 0 .1.1.1.1 0 .1-.1.3-.1.3h-2.4v-.1c0-.2.1-.3.3-.3l.4-.1v-6.4l-.7-.1v-.1c0-.2.1-.3.4-.3l1.4-.1v3.3m5.6.5c-.4 0-.6-.3-.6-.6 0-.4.3-.7.6-.7.4 0 .7.3.7.7 0 .4-.3.6-.7.6zm0 4.1c-.4 0-.6-.3-.6-.6 0-.4.3-.6.6-.6.4 0 .7.3.7.6s-.3.6-.7.6M27.3 139.8c0 .4.2.5.3.5.2 0 .4-.1.4-.2.1.1.1.2.1.3 0 .1-.3.5-1 .5-.5 0-.8-.2-.9-.7-.1.2-.5.8-1.4.8-.8 0-1.4-.5-1.4-1.4 0-1.1 1.2-1.5 2.4-1.5h.3v-.5c0-1-.3-1.3-.9-1.3-.2 0-.5.1-.5.1-.1.2-.2.6-.2.9h-.2c-.4 0-.6-.2-.6-.5 0-.7.9-1.1 1.8-1.1 1.2 0 1.7.6 1.7 1.8v2.3h.1zm-1.3-1.2c-.8 0-1.3.3-1.3.9 0 .4.3.7.7.7.4 0 .8-.3.9-.5v-1.2l-.3.1m7.2 1.7.8.1v.1c0 .2-.1.3-.4.3l-1.4.1v-.7c-.2.2-.6.8-1.6.8-1.1 0-1.6-.7-1.6-1.9v-2.7l-.7-.1v-.1c0-.2.1-.3.4-.3l1.4-.1v3.3c0 1 .5 1.2 1 1.2s.9-.2 1.1-.5v-3.3l-.7-.1v-.1c0-.2.1-.3.4-.3l1.4-.1v4.4m4.3-3.9h-1.3v3.9l.7.1c.1 0 .1.1.1.1 0 .1-.1.3-.1.3h-2.5v-.1c0-.2.1-.3.3-.3l.4-.1v-3.9h-.8v-.1c0-.2.1-.3.3-.4l.5-.1v-.1c0-1.7 1-2.5 1.9-2.5.5 0 .7.2.7.6 0 .3-.2.4-.3.5-.1-.1-.4-.3-.7-.3-.5 0-.6.3-.6.9v1h1.4v.5m5.2 0H42c.2.3.3.6.3 1 0 1.1-.9 1.7-2.1 1.7-.2 0-.3 0-.5-.1-.1.1-.3.2-.3.5s.2.4.5.4h1.2c1 0 1.5.4 1.5 1.2 0 1-1 2-2.8 2-1.3 0-1.9-.5-1.9-1.2s.6-1.1 1-1.2c-.3-.1-.4-.4-.4-.7 0-.6.6-.9.8-1-.6-.3-1-.8-1-1.6 0-1.1.9-1.7 2-1.7.3 0 .6 0 .8.1h1.8l-.1.6zm-3 4.4h-.4c-.3.2-.5.4-.5.8 0 .5.3.9 1.1.9 1 0 1.6-.5 1.6-1 0-.4-.2-.6-.8-.6h-1v-.1zm-.5-3.4c0 .8.4 1.2.9 1.2.6 0 1-.3 1-1.2 0-.7-.4-1.1-1-1.1-.4 0-.9.3-.9 1.1m5.8-.7c.3-.4.6-1 1.3-1 .5 0 .7.2.7.6 0 .2-.1.4-.2.5-.1 0-.3-.2-.7-.2-.6 0-.9.2-1.1.5v3.2l.8.1c.1 0 .1.1.1.1 0 .1-.1.3-.1.3h-2.5v-.1c0-.2.1-.3.3-.3l.4-.1v-3.9l-.7-.1v-.1c0-.2.1-.3.4-.3l1.4-.1-.1.9m7.2 3.6.8.1v.1c0 .2-.1.3-.4.3l-1.4.1v-.7c-.2.2-.6.8-1.6.8-1.1 0-1.6-.7-1.6-1.9v-2.7l-.7-.1v-.1c0-.2.1-.3.4-.3l1.4-.1v3.3c0 1 .5 1.2 1 1.2s.9-.2 1.1-.5v-3.3l-.7-.1v-.1c0-.2.1-.3.4-.3l1.4-.1v4.4m6.2 0 .6.1c.1 0 .1.1.1.1 0 .1-.1.3-.1.3h-2.4v-.1c0-.2.1-.3.3-.3l.3-.1v-2.7c0-.9-.5-1.2-1-1.2-.6 0-1 .3-1.2.5v3.4l.6.1c.1 0 .1.1.1.1 0 .1-.1.3-.1.3h-2.4v-.1c0-.2.1-.3.3-.3l.4-.1v-3.9l-.7-.1v-.1c0-.2.1-.3.4-.3l1.4-.1-.1.7c.3-.3.8-.8 1.7-.8 1 0 1.6.7 1.6 1.8v2.8m6 0 .8.1v.1c0 .2-.1.3-.4.3l-1.4.1v-.7c-.2.3-.7.7-1.5.7-1 0-2-.7-2-2.5 0-2 1.4-2.8 2.7-2.8.3 0 .6.1.7.1v-1.8l-.7-.1v-.1c0-.2.1-.3.4-.3l1.4-.1v7zm-1-3.7c-.2-.1-.4-.3-.9-.3-.9 0-1.5.6-1.5 2s.6 1.9 1.3 1.9c.6 0 .9-.3 1.1-.4v-3.2m5.7 1.8c0 1.3.6 1.9 1.5 1.9.7 0 1.1-.3 1.3-.5.1.1.2.3.2.4 0 .3-.7.9-1.9.9-1.3 0-2.3-.7-2.3-2.6 0-1.8 1.1-2.8 2.3-2.8 1.2 0 1.8.7 1.8 1.8 0 .3-.1.6-.1.9h-2.8zm1.9-.6c0-.1.1-.3.1-.5 0-.6-.2-1.1-.8-1.1-.6 0-1 .5-1.1 1.5H71m3.6 2.6.6.1c.1 0 .1.1.1.1 0 .1-.1.3-.1.3h-2.4v-.1c0-.2.1-.3.3-.3l.4-.1v-3.9l-.7-.1v-.1c0-.2.1-.3.4-.3l1.4-.1v4.5zm-.5-5.6c-.4 0-.7-.3-.7-.7 0-.4.3-.7.7-.7.4 0 .7.3.7.7 0 .5-.3.7-.7.7m6.9 5.6.6.1c.1 0 .1.1.1.1 0 .1-.1.3-.1.3h-2.4v-.1c0-.2.1-.3.3-.3l.3-.1v-2.7c0-.9-.5-1.2-1-1.2-.6 0-1 .3-1.2.5v3.4l.6.1c.1 0 .1.1.1.1 0 .1-.1.3-.1.3h-2.4v-.1c0-.2.1-.3.3-.3l.4-.1v-3.9l-.7-.1v-.1c0-.2.1-.3.4-.3l1.4-.1-.1.7c.3-.3.8-.8 1.7-.8 1 0 1.6.7 1.6 1.8v2.8m2.6-1.9c0 1.3.6 1.9 1.5 1.9.7 0 1.1-.3 1.3-.5.1.1.2.3.2.4 0 .3-.7.9-1.9.9-1.3 0-2.3-.7-2.3-2.6 0-1.8 1.1-2.8 2.3-2.8 1.2 0 1.8.7 1.8 1.8 0 .3-.1.6-.1.9h-2.8zm1.8-.6c0-.1.1-.3.1-.5 0-.6-.2-1.1-.8-1.1-.6 0-1 .5-1.1 1.5h1.8m4.4-1.2c-.1-.1-.4-.2-.7-.2-.3 0-.7.1-.7.6s.5.7 1 1c.6.4 1.3.8 1.3 1.6 0 .9-.7 1.5-1.9 1.5-.6 0-1.1-.2-1.3-.3 0-.3-.1-.5-.1-.8 0-.4.1-.6.4-.6h.1l.2.9c.1.1.4.2.7.2.5 0 .8-.2.8-.6 0-.5-.5-.7-1-1-.6-.4-1.3-.8-1.3-1.7 0-.8.7-1.4 1.7-1.4.6 0 1 .2 1.2.4v.6c0 .4-.1.6-.5.6h-.1l.2-.8m7.8.6c1 .2 1.7.8 1.7 1.7 0 1.2-1 2-2.9 2h-2.7v-.1c0-.2.1-.3.4-.4l.4-.1v-6.1l-.6-.1c-.1 0-.1-.1-.1-.1 0-.1.1-.2.1-.3h2.5c1.9 0 2.8.7 2.8 1.8-.1 1.1-.7 1.5-1.6 1.7zm-1.3-2.8h-.6v2.6h.6c1.2 0 1.7-.6 1.7-1.3 0-.9-.6-1.3-1.7-1.3zm.1 3.2h-.7v2.7h.6c1.2 0 1.8-.6 1.8-1.4 0-.7-.6-1.3-1.7-1.3m5 .9c0 1.3.6 1.9 1.5 1.9.7 0 1.1-.3 1.3-.5.1.1.2.3.2.4 0 .3-.7.9-1.9.9-1.3 0-2.3-.7-2.3-2.6 0-1.8 1.1-2.8 2.3-2.8 1.2 0 1.8.7 1.8 1.8 0 .3-.1.6-.1.9h-2.8zm1.8-.6c0-.1.1-.3.1-.5 0-.6-.2-1.1-.8-1.1-.6 0-1 .5-1.1 1.5h1.8m4.4-1.2c-.1-.1-.4-.2-.7-.2-.3 0-.7.1-.7.6s.5.7 1 1c.6.4 1.3.8 1.3 1.6 0 .9-.7 1.5-1.9 1.5-.6 0-1.1-.2-1.3-.3 0-.3-.1-.5-.1-.8 0-.4.1-.6.4-.6h.1l.2.9c.1.1.4.2.7.2.5 0 .8-.2.8-.6 0-.5-.5-.7-1-1-.6-.4-1.3-.8-1.3-1.7 0-.8.7-1.4 1.7-1.4.6 0 1 .2 1.2.4v.6c0 .4-.1.6-.5.6h-.1l.2-.8m4.2-.2c-.7 0-1.3.5-1.3 1.9 0 1.3.5 2.1 1.5 2.1.7 0 1-.3 1.2-.5.1.1.2.3.2.4 0 .3-.6.9-1.7.9-1.4 0-2.2-.9-2.2-2.6 0-1.8 1.2-2.7 2.6-2.7 1.2 0 1.4.6 1.4.9 0 .3-.1.5-.5.6-.3-.5-.5-1-1.2-1m3.9.1c.2-.3.7-.8 1.6-.8 1.1 0 1.6.6 1.6 1.8v2.8l.6.1c.1 0 .1.1.1.1 0 .1-.1.3-.1.3H117v-.1c0-.2.1-.3.3-.3l.3-.1v-2.7c0-.9-.5-1.2-1-1.2-.6 0-1 .3-1.2.5v3.3l.6.1c.1 0 .1.1.1.1 0 .1-.1.3-.1.3h-2.4v-.1c0-.2.1-.3.3-.3l.4-.1v-6.4l-.7-.1v-.1c0-.2.1-.3.4-.3l1.4-.1v3.3m6.3 3.9.6.1c.1 0 .1.1.1.1 0 .1-.1.3-.1.3h-2.4v-.1c0-.2.1-.3.3-.3l.4-.1v-6.4l-.7-.1v-.1c0-.2.1-.3.4-.3l1.4-.1v7m6.1 0 .8.1v.1c0 .2-.1.3-.4.3l-1.4.1v-.7c-.2.2-.6.8-1.6.8-1.1 0-1.6-.7-1.6-1.9v-2.7l-.7-.1v-.1c0-.2.1-.3.4-.3l1.4-.1v3.3c0 1 .5 1.2 1 1.2s.9-.2 1.1-.5v-3.3l-.7-.1v-.1c0-.2.1-.3.4-.3l1.4-.1v4.4m3.6-3.8c-.1-.1-.4-.2-.7-.2-.3 0-.7.1-.7.6s.5.7 1 1c.6.4 1.3.8 1.3 1.6 0 .9-.7 1.5-1.9 1.5-.6 0-1.1-.2-1.3-.3 0-.3-.1-.5-.1-.8 0-.4.1-.6.4-.6h.1l.2.9c.1.1.4.2.7.2.5 0 .8-.2.8-.6 0-.5-.5-.7-1-1-.6-.4-1.3-.8-1.3-1.7 0-.8.7-1.4 1.7-1.4.6 0 1 .2 1.2.4v.6c0 .4-.1.6-.5.6h-.1l.2-.8m4.2 0c-.1-.1-.4-.2-.7-.2-.3 0-.7.1-.7.6s.5.7 1 1c.6.4 1.3.8 1.3 1.6 0 .9-.7 1.5-1.9 1.5-.6 0-1.1-.2-1.3-.3 0-.3-.1-.5-.1-.8 0-.4.1-.6.4-.6h.1l.2.9c.1.1.4.2.7.2.5 0 .8-.2.8-.6 0-.5-.5-.7-1-1-.6-.4-1.3-.8-1.3-1.7 0-.8.7-1.4 1.7-1.4.6 0 1 .2 1.2.4v.6c0 .4-.1.6-.5.6h-.1l.2-.8m2.8 1.9c0 1.3.6 1.9 1.5 1.9.7 0 1.1-.3 1.3-.5.1.1.2.3.2.4 0 .3-.7.9-1.9.9-1.3 0-2.3-.7-2.3-2.6 0-1.8 1.1-2.8 2.3-2.8 1.2 0 1.8.7 1.8 1.8 0 .3-.1.6-.1.9h-2.8zm1.9-.6c0-.1.1-.3.1-.5 0-.6-.2-1.1-.8-1.1-.6 0-1 .5-1.1 1.5h1.8m4.4-1.2c-.1-.1-.4-.2-.7-.2-.3 0-.7.1-.7.6s.5.7 1 1c.6.4 1.3.8 1.3 1.6 0 .9-.7 1.5-1.9 1.5-.6 0-1.1-.2-1.3-.3 0-.3-.1-.5-.1-.8 0-.4.1-.6.4-.6h.1l.2.9c.1.1.4.2.7.2.5 0 .8-.2.8-.6 0-.5-.5-.7-1-1-.6-.4-1.3-.8-1.3-1.7 0-.8.7-1.4 1.7-1.4.6 0 1 .2 1.2.4v.6c0 .4-.1.6-.5.6h-.1l.2-.8M28.1 152.3l.8.1v.1c0 .2-.1.3-.4.3l-1.4.1v-.7c-.2.3-.7.7-1.5.7-1 0-2-.7-2-2.5 0-2 1.4-2.8 2.7-2.8.3 0 .6.1.7.1v-1.8l-.7-.1v-.1c0-.2.1-.3.4-.3l1.4-.1v7zm-1.1-3.7c-.2-.1-.4-.3-.9-.3-.9 0-1.5.6-1.5 2s.6 1.9 1.3 1.9c.6 0 .9-.3 1.1-.4v-3.2m3.6 1.8c0 1.3.6 1.9 1.5 1.9.7 0 1-.3 1.3-.5.1.1.2.3.2.4 0 .3-.7.9-1.9.9-1.3 0-2.3-.7-2.3-2.6 0-1.8 1.1-2.8 2.3-2.8 1.2 0 1.8.7 1.8 1.8 0 .3-.1.6-.1.9h-2.8zm1.8-.6c0-.1.1-.3.1-.5 0-.6-.2-1.1-.8-1.1-.6 0-1 .5-1.1 1.5h1.8m4.4-1.2c-.1-.1-.4-.2-.7-.2-.3 0-.7.1-.7.6s.5.7 1 1c.6.4 1.3.8 1.3 1.6 0 .9-.7 1.5-1.9 1.5-.6 0-1.1-.2-1.3-.3 0-.3-.1-.5-.1-.8 0-.4.1-.6.4-.6h.1l.2.9c.1.1.4.2.7.2.5 0 .8-.2.8-.6 0-.5-.5-.7-1-1-.6-.4-1.3-.8-1.3-1.7 0-.8.7-1.4 1.7-1.4.6 0 1 .2 1.2.4v.6c0 .4-.1.6-.5.6h-.1l.2-.8m6.4 4.4h-2.4v-.1c0-.2.1-.3.4-.4l.4-.1v-6.1l-.6-.1c-.1 0-.1-.1-.1-.1 0-.1.1-.2.1-.3h2.3c2.6 0 4.2 1 4.2 3.5-.1 2.5-1.7 3.7-4.3 3.7zm-.1-6.6h-.4v6h.4c1.9 0 3.1-1 3.1-3.1 0-2-1.1-2.9-3.1-2.9m6.3 4.1c0 1.3.6 1.9 1.5 1.9.7 0 1-.3 1.3-.5.1.1.2.3.2.4 0 .3-.7.9-1.9.9-1.3 0-2.3-.7-2.3-2.6 0-1.8 1.1-2.8 2.3-2.8 1.2 0 1.8.7 1.8 1.8 0 .3-.1.6-.1.9h-2.8zm1.9-.6c0-.1.1-.3.1-.5 0-.6-.2-1.1-.8-1.1-.6 0-1 .5-1.1 1.5h1.8m6.7 2.6.8.1v.1c0 .2-.1.3-.4.3l-1.4.1v-.7c-.2.2-.6.8-1.6.8-1.1 0-1.6-.7-1.6-1.9v-2.7l-.7-.1v-.1c0-.2.1-.3.4-.3l1.4-.1v3.3c0 1 .5 1.2 1 1.2s.9-.2 1.1-.5v-3.3l-.7-.1v-.1c0-.2.1-.3.4-.3l1.4-.1v4.4m4.3-3.9H61v3.1c0 .5.1.9.7.9.4 0 .7-.2.8-.3.1.1.1.2.1.3 0 .1-.4.6-1.3.6s-1.3-.6-1.3-1.4v-3.3h-.8v-.1c0-.2.1-.3.3-.4l.5-.1.2-1.4h.8v1.4h1.6l-.2.7m3 .1c-.1-.1-.4-.2-.7-.2-.3 0-.7.1-.7.6s.5.7 1 1c.6.4 1.3.8 1.3 1.6 0 .9-.7 1.5-1.9 1.5-.6 0-1.1-.2-1.3-.3 0-.3-.1-.5-.1-.8 0-.4.1-.6.4-.6h.1l.2.9c.1.1.4.2.7.2.5 0 .8-.2.8-.6 0-.5-.5-.7-1-1-.6-.4-1.3-.8-1.3-1.7 0-.8.7-1.4 1.7-1.4.6 0 1 .2 1.2.4v.6c0 .4-.1.6-.5.6h-.1l.2-.8m4.2-.2c-.7 0-1.3.5-1.3 1.9 0 1.3.5 2.1 1.5 2.1.7 0 1-.3 1.2-.5.1.1.2.3.2.4 0 .3-.6.9-1.7.9-1.4 0-2.2-.9-2.2-2.6 0-1.8 1.2-2.7 2.6-2.7 1.2 0 1.4.6 1.4.9 0 .3-.1.5-.5.6-.3-.5-.5-1-1.2-1m3.9.1c.2-.3.7-.8 1.6-.8 1.1 0 1.6.6 1.6 1.8v2.8l.6.1c.1 0 .1.1.1.1 0 .1-.1.3-.1.3H75v-.1c0-.2.1-.3.3-.3l.3-.1v-2.7c0-.9-.5-1.2-1-1.2-.6 0-1 .3-1.2.5v3.3l.6.1c.1 0 .1.1.1.1 0 .1-.1.3-.1.3h-2.4v-.1c0-.2.1-.3.3-.3l.4-.1v-6.4l-.7-.1v-.1c0-.2.1-.3.4-.3l1.4-.1v3.3m5.8 2c0 1.3.6 1.9 1.5 1.9.7 0 1.1-.3 1.3-.5.1.1.2.3.2.4 0 .3-.7.9-1.9.9-1.3 0-2.3-.7-2.3-2.6 0-1.8 1.1-2.8 2.3-2.8 1.2 0 1.8.7 1.8 1.8 0 .3-.1.6-.1.9h-2.8zm1.8-.6c0-.1.1-.3.1-.5 0-.6-.2-1.1-.8-1.1-.6 0-1 .5-1.1 1.5H81m7 2.6.6.1c.1 0 .1.1.1.1 0 .1-.1.3-.1.3h-2.4v-.1c0-.2.1-.3.3-.3l.3-.1v-2.7c0-.9-.5-1.2-1-1.2-.6 0-1 .3-1.2.5v3.4l.6.1c.1 0 .1.1.1.1 0 .1-.1.3-.1.3h-2.4v-.1c0-.2.1-.3.3-.3l.4-.1v-3.9l-.7-.1v-.1c0-.2.1-.3.4-.3l1.4-.1-.1.7c.3-.3.8-.8 1.7-.8 1 0 1.6.7 1.6 1.8v2.8m7.5-3.2c1 .2 1.7.8 1.7 1.7 0 1.2-1 2-2.9 2h-2.7v-.1c0-.2.1-.3.4-.4l.4-.1v-6.1l-.6-.1c-.1 0-.1-.1-.1-.1 0-.1.1-.2.1-.3h2.5c1.9 0 2.8.7 2.8 1.8-.1 1.1-.7 1.5-1.6 1.7zm-1.3-2.8h-.6v2.6h.6c1.2 0 1.7-.6 1.7-1.3 0-.9-.6-1.3-1.7-1.3zm.1 3.2h-.7v2.7h.6c1.2 0 1.8-.6 1.8-1.4 0-.7-.6-1.3-1.7-1.3m8.6 2.8.8.1v.1c0 .2-.1.3-.4.3l-1.4.1v-.7c-.2.2-.6.8-1.6.8-1.1 0-1.6-.7-1.6-1.9v-2.7l-.7-.1v-.1c0-.2.1-.3.4-.3l1.4-.1v3.3c0 1 .5 1.2 1 1.2s.9-.2 1.1-.5v-3.3l-.7-.1v-.1c0-.2.1-.3.4-.3l1.4-.1v4.4m6.2 0 .6.1c.1 0 .1.1.1.1 0 .1-.1.3-.1.3h-2.4v-.1c0-.2.1-.3.3-.3l.3-.1v-2.7c0-.9-.5-1.2-1-1.2-.6 0-1 .3-1.2.5v3.4l.6.1c.1 0 .1.1.1.1 0 .1-.1.3-.1.3h-2.4v-.1c0-.2.1-.3.3-.3l.4-.1v-3.9l-.7-.1v-.1c0-.2.1-.3.4-.3l1.4-.1-.1.7c.3-.3.8-.8 1.7-.8 1 0 1.6.7 1.6 1.8v2.8m6 0 .8.1v.1c0 .2-.1.3-.4.3l-1.4.1v-.7c-.2.3-.7.7-1.5.7-1 0-2-.7-2-2.5 0-2 1.4-2.8 2.7-2.8.3 0 .6.1.7.1v-1.8l-.7-.1v-.1c0-.2.1-.3.4-.3l1.4-.1v7zm-1.1-3.7c-.2-.1-.4-.3-.9-.3-.9 0-1.5.6-1.5 2s.6 1.9 1.3 1.9c.6 0 .9-.3 1.1-.4v-3.2m3.6 1.8c0 1.3.6 1.9 1.5 1.9.7 0 1.1-.3 1.3-.5.1.1.2.3.2.4 0 .3-.7.9-1.9.9-1.3 0-2.3-.7-2.3-2.6 0-1.8 1.1-2.8 2.3-2.8 1.2 0 1.8.7 1.8 1.8 0 .3-.1.6-.1.9h-2.8zm1.8-.6c0-.1.1-.3.1-.5 0-.6-.2-1.1-.8-1.1-.6 0-1 .5-1.1 1.5h1.8m4.4-1.2c-.1-.1-.4-.2-.7-.2-.3 0-.7.1-.7.6s.5.7 1 1c.6.4 1.3.8 1.3 1.6 0 .9-.7 1.5-1.9 1.5-.6 0-1.1-.2-1.3-.3 0-.3-.1-.5-.1-.8 0-.4.1-.6.4-.6h.1l.2.9c.1.1.4.2.7.2.5 0 .8-.2.8-.6 0-.5-.5-.7-1-1-.6-.4-1.3-.8-1.3-1.7 0-.8.7-1.4 1.7-1.4.6 0 1 .2 1.2.4v.6c0 .4-.1.6-.5.6h-.1l.2-.8m4.8-.1h-1.4v3.1c0 .5.1.9.7.9.4 0 .7-.2.8-.3.1.1.1.2.1.3 0 .1-.4.6-1.3.6-1 0-1.3-.6-1.3-1.4v-3.3h-.9v-.1c0-.2.1-.3.3-.4l.5-.1.2-1.4h.8v1.4h1.6l-.1.7m4.3 3.4c0 .4.2.5.3.5.2 0 .4-.1.4-.2.1.1.1.2.1.3 0 .1-.3.5-1 .5-.5 0-.8-.2-.9-.7-.1.2-.5.8-1.4.8-.8 0-1.4-.5-1.4-1.4 0-1.1 1.2-1.5 2.4-1.5h.3v-.5c0-1-.3-1.3-.9-1.3-.2 0-.5.1-.5.1-.1.2-.2.6-.2.9h-.2c-.4 0-.6-.2-.6-.5 0-.6.9-1.1 1.8-1.1 1.2 0 1.7.6 1.7 1.8v2.3h.1zm-1.3-1.2c-.8 0-1.3.3-1.3.9 0 .4.3.7.7.7.4 0 .8-.3.9-.5v-1.2l-.3.1m7.3-2.2h-.9c.2.3.3.6.3 1 0 1.1-.9 1.7-2.1 1.7-.2 0-.3 0-.5-.1-.1.1-.3.2-.3.5s.2.4.5.4h1.2c1 0 1.5.4 1.5 1.2 0 1-1 2-2.8 2-1.3 0-1.9-.5-1.9-1.2s.6-1.1 1-1.2c-.3-.1-.4-.4-.4-.7 0-.6.6-.9.8-1-.6-.3-1-.8-1-1.6 0-1.1.9-1.7 2-1.7.3 0 .6 0 .8.1h1.8v.6zm-3 4.4h-.4c-.3.2-.5.4-.5.8 0 .5.3.9 1.1.9 1 0 1.6-.5 1.6-1 0-.4-.2-.6-.8-.6h-1v-.1zm-.5-3.4c0 .8.4 1.2.9 1.2.6 0 1-.3 1-1.2 0-.7-.4-1.1-1-1.1-.5 0-.9.3-.9 1.1m5.2 1c0 1.3.6 1.9 1.5 1.9.7 0 1.1-.3 1.3-.5.1.1.2.3.2.4 0 .3-.7.9-1.9.9-1.3 0-2.3-.7-2.3-2.6 0-1.8 1.1-2.8 2.3-2.8 1.2 0 1.8.7 1.8 1.8 0 .3-.1.6-.1.9h-2.8zm1.9-.6c0-.1.1-.3.1-.5 0-.6-.2-1.1-.8-1.1-.6 0-1 .5-1.1 1.5h1.8m4.4-1.2c-.1-.1-.4-.2-.7-.2-.3 0-.7.1-.7.6s.5.7 1 1c.6.4 1.3.8 1.3 1.6 0 .9-.7 1.5-1.9 1.5-.6 0-1.1-.2-1.3-.3 0-.3-.1-.5-.1-.8 0-.4.1-.6.4-.6h.1l.2.9c.1.1.4.2.7.2.5 0 .8-.2.8-.6 0-.5-.5-.7-1-1-.6-.4-1.3-.8-1.3-1.7 0-.8.7-1.4 1.7-1.4.6 0 1 .2 1.2.4v.6c0 .4-.1.6-.5.6h-.1l.2-.8"/><path style="fill:#f7d000" d="M54.4 91.5h1.5v20h-3.5v-20h2"/><path style="fill:#e20e16" d="M54.4 71.4h1.5v20.1h-3.5V71.4h2"/><path class="st1" d="M52.4 51.5h3.5v20h-3.5zm15.3 1.9c0 .3 0 .5-.1.8l-.3.6c-.1.2-.3.3-.4.4-.2.1-.3.2-.5.2.2 0 .4.1.6.2.2.1.3.3.5.4.1.2.3.4.3.6.1.2.1.5.1.7 0 .3-.1.6-.2.9-.1.3-.3.5-.5.7-.2.2-.5.4-.9.5s-.8.2-1.3.2h-1.7v-8.2H65c.5 0 .9 0 1.2.1.3.1.6.2.9.4.2.2.4.4.5.7 0 .1.1.4.1.8zm-1.1 0c0-.4-.1-.7-.4-.9-.3-.2-.7-.4-1.3-.4h-.5v2.8h.6c.6 0 1-.1 1.3-.4.2-.3.3-.6.3-1.1zm.2 3.8c0-.4-.1-.8-.4-1.1-.3-.3-.7-.4-1.2-.4h-.7v2.9h.6c.6 0 1.1-.1 1.3-.4.3-.2.4-.5.4-1zm6.4 2.3h-.9v-.6l-.2.2-.3.3c-.1.1-.3.2-.4.2-.2.1-.4.1-.6.1-.3 0-.5 0-.7-.1-.2-.1-.4-.2-.5-.4-.1-.2-.3-.4-.3-.6-.1-.3-.1-.6-.1-1v-3.7h1v3.7c0 .5.1.8.2 1 .2.2.4.3.7.3.3 0 .5-.1.7-.2.2-.1.3-.3.5-.4v-4.4h1v5.6h-.1zm4.6 0v-3.7c0-.5-.1-.8-.2-1-.2-.2-.4-.3-.7-.3-.3 0-.5.1-.7.2-.2.1-.3.3-.5.4v4.4h-1v-5.7h.9v.6l.2-.2.3-.3c.1-.1.3-.2.5-.2.2-.1.4-.1.6-.1.3 0 .5 0 .7.1.2.1.4.2.5.4.1.2.3.4.3.6.1.3.1.6.1 1v3.7h-1v.1zm2.1-2.8c0-.6.1-1.1.2-1.5.2-.4.3-.7.6-.9.2-.2.5-.4.8-.5.3-.1.6-.1.9-.1h.5c.1 0 .2.1.3.1v-2.7l1-.1v8.5h-.9v-.6s-.1.1-.1.2c-.1.1-.2.2-.3.2-.1.1-.2.2-.4.2-.2.1-.4.1-.6.1-.3 0-.5-.1-.8-.2-.2-.1-.5-.3-.6-.5-.2-.2-.3-.5-.4-.9s-.2-.8-.2-1.3zm2.3 2.1c.2 0 .3 0 .4-.1.1 0 .2-.1.3-.1.1-.1.2-.1.2-.2.1-.1.1-.1.1-.2v-3.5c-.1-.1-.2-.1-.3-.1-.1 0-.3-.1-.4-.1-.2 0-.4 0-.6.1-.2.1-.4.2-.5.4-.1.2-.3.4-.3.7-.1.3-.1.6-.1 1s0 .7.1 1c.1.3.2.5.3.6.1.2.3.3.4.4 0 0 .2.1.4.1zm7.1-3.1v1.1h-2.9c0 .7.2 1.2.4 1.5.3.3.6.5 1.1.5.2 0 .3 0 .5-.1.1 0 .3-.1.4-.1.1-.1.2-.1.2-.2l.1-.1.4.7-.2.2c-.1.1-.2.1-.3.2-.1.1-.3.1-.5.2s-.4.1-.7.1c-.4 0-.7-.1-1-.2-.3-.1-.5-.3-.7-.6-.2-.3-.4-.6-.5-1-.1-.4-.2-.8-.2-1.4 0-.5.1-.9.2-1.3s.3-.7.5-.9c.2-.2.4-.4.7-.5.3-.1.5-.2.8-.2.5 0 1 .2 1.3.5.3.4.4.9.4 1.6zm-1.8-1.3c-.3 0-.6.1-.8.4-.2.3-.3.7-.4 1.2h2.1v-.4c0-.4-.1-.7-.2-.9-.1-.2-.4-.3-.7-.3zm5.6.5-.3-.3c-.2-.1-.4-.2-.7-.2-.3 0-.4.1-.6.2-.1.1-.2.3-.2.4 0 .2.1.4.2.5.1.1.3.3.6.4l.4.2c.4.2.7.5.9.7.2.3.3.6.3 1 0 .5-.2.8-.5 1.1-.3.3-.8.5-1.4.5-.2 0-.4 0-.6-.1-.2 0-.3-.1-.5-.2-.1-.1-.2-.1-.3-.2-.1-.1-.2-.1-.2-.2l.5-.8.2.2.2.2c.1.1.2.1.3.1.1 0 .3.1.4.1.3 0 .5-.1.7-.2.2-.1.2-.3.2-.5 0-.1 0-.3-.1-.4s-.1-.2-.2-.3c-.1-.1-.2-.2-.3-.2-.1-.1-.2-.1-.4-.2l-.4-.2c-.4-.2-.6-.5-.8-.7-.2-.3-.3-.6-.3-1 0-.2 0-.4.1-.6.1-.2.2-.3.4-.5.2-.1.3-.2.5-.3.2-.1.4-.1.6-.1.2 0 .4 0 .6.1.2 0 .3.1.4.2.1.1.2.1.3.2l.2.2-.2.9zm4.7 4.6v-3.7c0-.5-.1-.8-.2-1-.1-.2-.4-.3-.7-.3-.2 0-.3 0-.4.1-.1 0-.2.1-.3.1-.1.1-.2.1-.2.2l-.2.2v4.4h-1v-5.7h.9v.6c0-.1.1-.1.2-.2l.3-.3c.1-.1.3-.2.4-.2.2-.1.3-.1.5-.1.6 0 1.1.3 1.4.8.1-.1.1-.2.2-.3.1-.1.2-.2.3-.2.1-.1.3-.1.4-.2.2 0 .3-.1.5-.1 1.2 0 1.7.7 1.7 2v3.8h-1v-3.7c0-.5-.1-.8-.2-1-.2-.2-.4-.3-.7-.3-.3 0-.5.1-.7.2-.2.1-.3.3-.4.4v4.4h-.8v.1zm6.4 0h-1v-5.7h1v5.7zm-.5-7.1c-.2 0-.4-.1-.5-.2-.1-.1-.2-.3-.2-.5s.1-.4.2-.5c.1-.1.3-.2.5-.2s.3.1.5.2c.1.1.2.3.2.5s-.1.4-.2.5c-.2.1-.3.2-.5.2zm5.1 7.1v-3.7c0-.5-.1-.8-.2-1-.2-.2-.4-.3-.7-.3-.3 0-.5.1-.7.2-.2.1-.3.3-.5.4v4.4h-1v-5.7h.9v.6l.2-.2.3-.3c.1-.1.3-.2.5-.2.2-.1.4-.1.6-.1.3 0 .5 0 .7.1.2.1.4.2.5.4.1.2.3.4.3.6.1.3.1.6.1 1v3.7h-1v.1zm3.3 0h-1v-5.7h1v5.7zm-.5-7.1c-.2 0-.4-.1-.5-.2-.1-.1-.2-.3-.2-.5s.1-.4.2-.5c.1-.1.3-.2.5-.2s.3.1.5.2c.1.1.2.3.2.5s-.1.4-.2.5c-.1.1-.3.2-.5.2zm4.5 2.5-.3-.3c-.2-.1-.4-.2-.7-.2-.3 0-.4.1-.6.2-.1.1-.2.3-.2.4 0 .2.1.4.2.5.1.1.3.3.6.4l.4.2c.4.2.7.5.9.7.2.3.3.6.3 1 0 .5-.2.8-.5 1.1-.3.3-.8.5-1.4.5-.2 0-.4 0-.6-.1-.2 0-.3-.1-.5-.2-.1-.1-.2-.1-.3-.2-.1-.1-.2-.1-.2-.2l.5-.8.2.2.2.2c.1.1.2.1.3.1.1 0 .3.1.4.1.3 0 .5-.1.7-.2.2-.1.2-.3.2-.5 0-.1 0-.3-.1-.4 0-.1-.1-.2-.2-.3-.1-.1-.2-.2-.3-.2-.1-.1-.2-.1-.4-.2l-.4-.2c-.4-.2-.6-.5-.8-.7-.2-.3-.3-.6-.3-1 0-.2 0-.4.1-.6.1-.2.2-.3.4-.5s.3-.2.5-.3c.2-.1.4-.1.6-.1.2 0 .4 0 .6.1.2 0 .3.1.4.2.1.1.2.1.3.2l.2.2-.2.9zm4.1-.4H119v3.2c0 .4.1.7.2.8.1.1.3.2.5.2.1 0 .3 0 .4-.1.1 0 .2-.1.2-.1l.1.8s-.1.1-.3.1c-.2.1-.4.1-.6.1-.5 0-.9-.1-1.1-.4-.2-.3-.4-.7-.4-1.4v-3.3h-.7v-.6l.7-.1.1-1.6h.9v1.6h1.4l-.2.8zm4.7 1.2v1.1H122c0 .7.2 1.2.4 1.5.3.3.6.5 1.1.5.2 0 .3 0 .5-.1.1 0 .3-.1.4-.1.1-.1.2-.1.3-.2l.1-.1.4.7-.2.2c-.1.1-.2.1-.3.2-.1.1-.3.1-.5.2s-.4.1-.7.1c-.4 0-.7-.1-1-.2-.3-.1-.5-.3-.7-.6-.2-.3-.4-.6-.5-1-.1-.4-.2-.8-.2-1.4 0-.5.1-.9.2-1.3s.3-.7.5-.9c.2-.2.4-.4.7-.5.3-.1.5-.2.8-.2.5 0 1 .2 1.3.5.1.4.3.9.3 1.6zm-1.8-1.3c-.3 0-.6.1-.8.4-.2.3-.3.7-.4 1.2h2.1v-.4c0-.4-.1-.7-.2-.9-.2-.2-.4-.3-.7-.3zm5.6.2s-.1 0-.2-.1h-.3c-.3 0-.5.1-.7.2-.2.2-.3.3-.4.5v4.2h-1v-5.7h.9v.8c0-.1.1-.2.2-.3.1-.1.1-.2.2-.3.1-.1.2-.1.3-.2.1 0 .3-.1.5-.1h.3c.1 0 .1 0 .2.1v.9zm1.9 4.9h-1v-5.7h1v5.7zm-.5-7.1c-.2 0-.4-.1-.5-.2-.1-.1-.2-.3-.2-.5s.1-.4.2-.5c.1-.1.3-.2.5-.2s.3.1.5.2c.1.1.2.3.2.5s-.1.4-.2.5c-.1.1-.3.2-.5.2zm6 7.1h-.9v-.6l-.2.2-.3.3c-.1.1-.3.2-.4.2-.2.1-.4.1-.6.1-.3 0-.5 0-.7-.1-.2-.1-.4-.2-.5-.4-.1-.2-.3-.4-.3-.6-.1-.3-.1-.6-.1-1v-3.7h1v3.7c0 .5.1.8.2 1 .2.2.4.3.7.3.3 0 .5-.1.7-.2.2-.1.3-.3.5-.4v-4.4h1v5.6h-.1zm4.4 0v-3.7c0-.5-.1-.8-.2-1-.1-.2-.4-.3-.7-.3-.2 0-.3 0-.4.1-.1 0-.2.1-.3.1-.1.1-.2.1-.2.2l-.2.2v4.4h-1v-5.7h.9v.6c0-.1.1-.1.2-.2l.3-.3c.1-.1.3-.2.4-.2.2-.1.3-.1.5-.1.7 0 1.1.3 1.4.8.1-.1.1-.2.2-.3.1-.1.2-.2.3-.2.1-.1.3-.1.4-.2.2 0 .3-.1.5-.1 1.2 0 1.7.7 1.7 2v3.8h-1v-3.7c0-.5-.1-.8-.3-1-.2-.2-.4-.3-.7-.3-.3 0-.5.1-.7.2-.2.1-.3.3-.4.4v4.4h-.7v.1zm-77.6 9.2c0-.6.1-1.1.2-1.5.2-.4.3-.7.6-.9.2-.2.5-.4.8-.5.3-.1.6-.1.9-.1h.5c.1 0 .2.1.3.1v-2.7l1-.1v8.5h-.9v-.6s-.1.1-.1.2c-.1.1-.2.2-.3.2-.1.1-.3.2-.4.2-.2.1-.4.1-.6.1-.3 0-.5-.1-.8-.2-.2-.1-.5-.3-.6-.5-.2-.2-.3-.5-.4-.9-.1-.3-.2-.8-.2-1.3zm2.3 2.1c.2 0 .3 0 .4-.1.1 0 .2-.1.3-.1.1-.1.2-.1.2-.2.1-.1.1-.1.1-.2v-3.5c-.1-.1-.2-.1-.3-.1s-.3-.1-.4-.1c-.2 0-.4 0-.6.1-.2.1-.4.2-.5.4-.1.2-.3.4-.3.7-.1.3-.1.6-.1 1s0 .7.1 1c.1.3.2.5.3.6.1.2.3.3.4.4.1 0 .2.1.4.1zm7.2-3.1v1.1h-2.9c0 .7.2 1.2.4 1.5.3.3.6.5 1.1.5.2 0 .3 0 .5-.1.1 0 .3-.1.4-.1.1-.1.2-.1.2-.2l.1-.1.4.7-.2.2c-.1.1-.2.1-.3.2-.1.1-.3.1-.5.2s-.4.1-.7.1c-.4 0-.7-.1-1-.2-.3-.1-.5-.3-.7-.6-.2-.2-.4-.6-.5-1-.1-.4-.2-.8-.2-1.4 0-.5.1-.9.2-1.3s.3-.7.5-.9c.2-.2.4-.4.7-.5.3-.1.5-.2.8-.2.5 0 1 .2 1.3.5.2.4.4.9.4 1.6zm-1.9-1.3c-.3 0-.6.1-.8.4-.2.3-.3.7-.4 1.2h2.1v-.4c0-.4-.1-.7-.2-.9-.1-.2-.4-.3-.7-.3zm5.6.5-.3-.3c-.2-.1-.4-.2-.7-.2-.3 0-.4.1-.6.2-.1.1-.2.3-.2.4 0 .2.1.4.2.5.1.1.3.3.6.4l.4.2c.4.2.7.5.9.7.2.3.3.6.3 1 0 .5-.2.8-.5 1.1-.3.3-.8.5-1.3.5-.2 0-.4 0-.6-.1-.2 0-.3-.1-.5-.2-.1-.1-.2-.1-.3-.2-.1-.1-.2-.1-.2-.2l.5-.8.2.2.2.2c.1.1.2.1.3.1.1 0 .3.1.4.1.3 0 .5-.1.7-.2.2-.1.2-.3.2-.5 0-.1 0-.3-.1-.4 0-.1-.1-.2-.2-.3-.1-.1-.2-.2-.3-.2-.1-.1-.2-.1-.4-.2l-.4-.2c-.4-.2-.6-.5-.8-.7-.2-.3-.3-.6-.3-1 0-.2 0-.4.1-.6.1-.2.2-.3.4-.5.2-.1.3-.2.5-.3.2-.1.4-.1.6-.1.2 0 .4 0 .6.1.2 0 .3.1.4.2.1.1.2.1.3.2l.2.2-.3.9zm4.8-2.9H80v-.7h2.8v.7H82v6.7h.9v.8h-2.8v-.8h.9V64h-.1zm6.2 7.5v-3.7c0-.5-.1-.8-.2-1-.2-.2-.4-.3-.7-.3-.3 0-.5.1-.7.2-.2.1-.3.3-.5.4v4.4h-1v-5.7h.9v.6l.2-.2.3-.3c.1-.1.3-.2.5-.2.2-.1.4-.1.6-.1.3 0 .5 0 .7.1.2.1.4.2.5.4.1.2.3.4.3.6.1.3.1.6.1 1v3.7h-1v.1zm5.6 0v-3.7c0-.5-.1-.8-.2-1-.2-.2-.4-.3-.7-.3-.3 0-.5.1-.7.2-.2.1-.3.3-.5.4v4.4h-1v-5.7h.9v.6l.2-.2.3-.3c.1-.1.3-.2.5-.2.2-.1.4-.1.6-.1.3 0 .5 0 .7.1.2.1.4.2.5.4.1.2.3.4.3.6.1.3.1.6.1 1v3.7h-1v.1zm6-3.8v1.1h-2.9c0 .7.2 1.2.4 1.5.3.3.6.5 1.1.5.2 0 .3 0 .5-.1.1 0 .3-.1.4-.1.1-.1.2-.1.2-.2l.1-.1.4.7-.2.2c-.1.1-.2.1-.3.2-.1.1-.3.1-.5.2s-.4.1-.7.1c-.4 0-.7-.1-1-.2-.3-.1-.5-.3-.7-.6-.2-.2-.4-.6-.5-1-.1-.4-.2-.8-.2-1.4 0-.5.1-.9.2-1.3s.3-.7.5-.9c.2-.2.4-.4.7-.5.3-.1.5-.2.8-.2.5 0 1 .2 1.3.5.3.4.4.9.4 1.6zm-1.8-1.3c-.3 0-.6.1-.8.4-.2.3-.3.7-.4 1.2h2.1v-.4c0-.4-.1-.7-.2-.9-.2-.2-.4-.3-.7-.3zm5.6.2s-.1 0-.2-.1h-.3c-.3 0-.5.1-.7.2-.2.2-.3.3-.4.5v4.2h-1v-5.7h.9v.8c0-.1.1-.2.2-.3.1-.1.1-.2.2-.3.1-.1.2-.1.3-.2.1 0 .3-.1.5-.1h.3c.1 0 .1 0 .2.1v.9zm4.1 4.9v-3.7c0-.5-.1-.8-.2-1-.2-.2-.4-.3-.7-.3-.3 0-.5.1-.7.2-.2.1-.3.3-.5.4v4.4h-1v-5.7h.9v.6l.2-.2.3-.3c.1-.1.3-.2.5-.2.2-.1.4-.1.6-.1.3 0 .5 0 .7.1.2.1.4.2.5.4.1.2.3.4.3.6.1.3.1.6.1 1v3.7h-1v.1zm2.2-.7c0-.2.1-.4.2-.5.1-.1.3-.2.4-.2.2 0 .4.1.6.3.1.2.2.5.2.9 0 .3 0 .5-.1.7-.1.2-.2.4-.3.5l-.4.4c-.2.1-.3.2-.5.2l-.2-.4c.2-.1.4-.3.6-.5.2-.2.2-.4.3-.8-.2 0-.3-.1-.5-.2-.2 0-.3-.2-.3-.4zm7.4-4.3H115v4.9h-1v-4.9h-.7v-.6l.7-.1v-1.1c0-.3 0-.6.1-.8.1-.2.2-.4.3-.5.1-.1.3-.2.5-.3.2-.1.4-.1.6-.1.2 0 .4 0 .5.1.1.1.2.1.3.1l-.2.8s-.1-.1-.2-.1-.2-.1-.3-.1c-.2 0-.4.1-.5.2-.1.1-.2.4-.2.8v1h1.3v.7zm4.9 5h-.9v-.6l-.2.2-.3.3c-.1.1-.3.2-.4.2-.2.1-.4.1-.6.1-.3 0-.5 0-.7-.1-.2-.1-.4-.2-.5-.4-.1-.2-.3-.4-.3-.6-.1-.3-.1-.6-.1-1v-3.7h1v3.7c0 .5.1.8.2 1 .2.2.4.3.7.3.3 0 .5-.1.7-.2.2-.1.3-.3.5-.4v-4.4h1v5.6h-.1zm-2.3-7.4c0 .2-.1.3-.2.4s-.2.2-.4.2-.3-.1-.4-.2c-.1-.1-.2-.3-.2-.4 0-.2.1-.3.2-.4.1-.1.2-.2.4-.2s.3.1.4.2c.1.1.2.2.2.4zm1.8 0c0 .2-.1.3-.2.4s-.2.2-.4.2-.3-.1-.4-.2c-.1-.1-.2-.3-.2-.4 0-.2.1-.3.2-.4.1-.1.2-.2.4-.2s.3.1.4.2c.1.1.2.2.2.4zm4.5 2.5s-.1 0-.2-.1h-.3c-.3 0-.5.1-.7.2-.2.2-.3.3-.4.5v4.2h-1v-5.7h.9v.8c0-.1.1-.2.2-.3.1-.1.1-.2.2-.3.1-.1.2-.1.3-.2.1 0 .3-.1.5-.1h.3c.1 0 .1 0 .2.1v.9zm7.7-1.2c0 .3 0 .5-.1.8l-.3.6c-.1.2-.3.3-.4.4-.2.1-.3.2-.5.2.2 0 .4.1.6.2.2.1.3.3.5.4.1.2.3.4.3.6.1.2.1.5.1.7 0 .3-.1.6-.2.9-.1.3-.3.5-.5.7-.2.2-.5.4-.9.5s-.8.2-1.3.2h-1.7v-8.2h1.6c.5 0 .9 0 1.2.1.3.1.6.2.9.4.2.2.4.4.5.7.2.1.2.4.2.8zm-1 0c0-.4-.1-.7-.4-.9-.3-.2-.7-.4-1.3-.4h-.5v2.8h.5c.6 0 1-.1 1.3-.4.2-.3.4-.6.4-1.1zm.1 3.8c0-.4-.1-.8-.4-1.1-.3-.3-.7-.4-1.2-.4h-.7v2.9h.6c.6 0 1.1-.1 1.3-.4.3-.2.4-.5.4-1zm2.1.8c0-.3.1-.6.2-.8.1-.2.3-.4.5-.5.2-.1.5-.2.8-.3.3-.1.6-.1.9-.1h.3v-.5c0-.5-.1-.8-.3-1-.2-.2-.4-.3-.7-.3-.3 0-.5.1-.7.2-.2.1-.3.2-.5.3l-.4-.6.2-.2c.1-.1.2-.2.4-.2.1-.1.3-.1.5-.2.2 0 .4-.1.6-.1.6 0 1 .2 1.3.5.3.3.5.8.5 1.6v3.8h-.9V71c0 .1-.1.2-.1.2-.1.1-.1.2-.2.2-.1.1-.2.1-.3.2-.1.1-.3.1-.5.1s-.4 0-.6-.1c-.2-.1-.3-.2-.5-.3-.1-.1-.2-.3-.3-.5-.2-.3-.2-.6-.2-.8zm1.7.8c.1 0 .3 0 .4-.1.1 0 .2-.1.3-.1l.2-.2c.1-.1.1-.1.1-.2V69h-.3c-.5 0-.8.1-1 .2-.2.1-.4.4-.4.7 0 .3.1.5.2.7.1.1.3.2.5.2zm7.4.7h-.9v-.6l-.2.2-.3.3c-.1.1-.3.2-.4.2-.2.1-.4.1-.6.1-.3 0-.5 0-.7-.1-.2-.1-.4-.2-.5-.4-.1-.2-.3-.4-.3-.6-.1-.3-.1-.6-.1-1v-3.7h1v3.7c0 .5.1.8.2 1 .2.2.4.3.7.3.3 0 .5-.1.7-.2.2-.1.3-.3.5-.4v-4.4h1v5.6h-.1zm-75.9 12h-.9v-.6l-.2.2-.3.3c-.1.1-.3.2-.4.2-.2.1-.4.1-.6.1-.3 0-.5 0-.7-.1-.2-.1-.4-.2-.5-.4-.1-.2-.3-.4-.3-.6-.1-.3-.1-.6-.1-1v-3.7h1v3.7c0 .5.1.8.2 1 .2.2.4.3.7.3.3 0 .5-.1.7-.2.2-.1.3-.3.5-.4v-4.4h1v5.6h-.1zm4.6 0v-3.7c0-.5-.1-.8-.2-1-.2-.2-.4-.3-.7-.3-.3 0-.5.1-.7.2-.2.1-.3.3-.5.4v4.4h-1v-5.7h.9v.6l.2-.2.3-.3c.1-.1.3-.2.5-.2.2-.1.4-.1.6-.1.3 0 .5 0 .7.1.2.1.4.2.5.4.1.2.3.4.3.6.1.3.1.6.1 1v3.7h-1v.1zm2.1-2.8c0-.6.1-1.1.2-1.5.2-.4.3-.7.6-.9.2-.2.5-.4.8-.5.3-.1.6-.1.9-.1h.5c.1 0 .2.1.3.1v-2.7l1-.1v8.5h-.9v-.6s-.1.1-.1.2c-.1.1-.2.2-.3.2-.1.1-.2.2-.4.2-.2.1-.4.1-.6.1-.3 0-.5-.1-.8-.2-.2-.1-.5-.3-.6-.5-.2-.2-.3-.5-.4-.9s-.2-.8-.2-1.3zm2.3 2.1c.2 0 .3 0 .4-.1.1 0 .2-.1.3-.1.1-.1.2-.1.2-.2.1-.1.1-.1.1-.2v-3.5c-.1-.1-.2-.1-.3-.1s-.3-.1-.4-.1c-.2 0-.4 0-.6.1-.2.1-.4.2-.5.4-.1.2-.3.4-.3.7-.1.3-.1.6-.1 1s0 .7.1 1c.1.3.2.5.3.6.1.2.3.3.4.4 0 0 .2.1.4.1zm11.7.7h-1v-3.7h-3.4v3.7h-1v-8.2h1V79h3.4v-3.7h1v8.2zm5.3-3.8v1.1h-2.9c0 .7.2 1.2.4 1.5.3.3.6.5 1.1.5.2 0 .3 0 .5-.1.1 0 .3-.1.4-.1.1-.1.2-.1.2-.2l.1-.1.4.7-.2.2c-.1.1-.2.1-.3.2-.1.1-.3.1-.5.2s-.4.1-.7.1c-.4 0-.7-.1-1-.2-.3-.1-.5-.3-.7-.6-.2-.2-.4-.6-.5-1-.1-.4-.2-.8-.2-1.4 0-.5.1-.9.2-1.3s.3-.7.5-.9c.2-.2.4-.4.7-.5.3-.1.5-.2.8-.2.5 0 1 .2 1.3.5.2.4.4.9.4 1.6zm-1.8-1.3c-.3 0-.6.1-.8.4-.2.3-.3.7-.4 1.2h2.1v-.4c0-.4-.1-.7-.2-.9-.2-.2-.4-.3-.7-.3zm4 5.1h-1v-5.7h1v5.7zm-.5-7.1c-.2 0-.4-.1-.5-.2-.1-.1-.2-.3-.2-.5s.1-.4.2-.5c.1-.1.3-.2.5-.2s.3.1.5.2c.1.1.2.3.2.5s-.1.4-.2.5c-.1.1-.3.2-.5.2zm5 7.1v-3.7c0-.5-.1-.8-.2-1-.1-.2-.4-.3-.7-.3-.2 0-.3 0-.4.1-.1 0-.2.1-.3.1-.1.1-.2.1-.2.2l-.2.2v4.4h-1v-5.7h.9v.6c0-.1.1-.1.2-.2l.3-.3c.1-.1.3-.2.4-.2.2-.1.3-.1.5-.1.6 0 1.1.3 1.4.8.1-.1.1-.2.2-.3.1-.1.2-.2.3-.2.1-.1.3-.1.4-.2.2 0 .3-.1.5-.1 1.2 0 1.7.7 1.7 2v3.8h-1v-3.7c0-.5-.1-.8-.2-1-.2-.2-.4-.3-.7-.3-.3 0-.5.1-.7.2-.2.1-.3.3-.4.4v4.4h-.8v.1zM105 82c0-.3.1-.6.2-.8.1-.2.3-.4.5-.5.2-.1.5-.2.8-.3.3-.1.6-.1.9-.1h.3v-.5c0-.5-.1-.8-.3-1-.2-.2-.4-.3-.7-.3-.3 0-.5.1-.7.2-.2.1-.3.2-.5.3l-.4-.6.2-.2c.1-.1.2-.2.4-.2.1-.1.3-.1.5-.2.2 0 .4-.1.6-.1.6 0 1 .2 1.3.5.3.3.5.8.5 1.6v3.8h-.9V83c0 .1-.1.2-.1.2-.1.1-.1.2-.2.2-.1.1-.2.1-.3.2-.1.1-.3.1-.5.1s-.4 0-.6-.1c-.2-.1-.3-.2-.5-.3-.1-.1-.2-.3-.3-.5-.2-.3-.2-.6-.2-.8zm1.7.8c.1 0 .3 0 .4-.1.1 0 .2-.1.3-.1l.2-.2c.1-.1.1-.1.1-.2V81h-.3c-.5 0-.8.1-1 .2-.2.1-.4.4-.4.7 0 .3.1.5.2.7.1.1.2.2.5.2zm5.8-4.3h-1.2v3.2c0 .4.1.7.2.8.1.1.3.2.5.2.1 0 .3 0 .4-.1.1 0 .2-.1.2-.1l.1.8s-.1.1-.3.1c-.2.1-.4.1-.6.1-.5 0-.9-.1-1.1-.4-.2-.3-.4-.7-.4-1.4v-3.3h-.7v-.6l.7-.1.1-1.6h.9v1.6h1.4l-.2.8m-69.2-20c1 1.6 1.8 1.6 3 1.6-1-.8-1.7-1.8-2-2.3l-1.9-3c-.2-.9-.7-1.8-1.4-2.4l.6-.3c-1.2 0-2.4-.6-3.1-.6-.4 0-.7.3-.7.6 0 .4.4.8 1.1.8.2 0 .4 0 .6-.1.4.5.7 1 .7 1.7 0 1.3-1.6 2.3-3.1 2.3h-.3c-.1-.3-.6-.9-.6-1.5 0-1 .7-1.9.7-2.9 0-.6-.3-1-.4-1.2.2-.2.4-.4.5-.6-.1 0-.2.1-.4.1-.8 0-1.4-.2-2-.2-.3 0-.4.1-.4.2v.1c-.1-.1-.2-.1-.4-.1s-.4-.1-.6-.1c-.7 0-1 .3-1 .6 0 .2.2.6.4.9.3-.1.6-.2.8-.2.4 0 .7.4.9.8h-.6c-.7 0-1.2-.3-1.3-.3 0 .1.2.4.6.5.5.2 1.3.3 1.4.3 0 0-.1.3-.3.3H34c-.5-.1-.7-.2-1.4-.4 0 .3.7.9 1.3 1.1-.5.7-1.2 1.4-1.5 2.4h-.3c-1.6 0-3.1-1-3.1-2.3 0-.7.3-1.2.7-1.7.2 0 .4.1.6.1.7 0 1.1-.4 1.1-.8 0-.3-.3-.6-.7-.6-.7 0-1.9.6-3.1.6.1.1.3.2.6.3-.7.6-1.2 1.5-1.4 2.4l-1.9 3c-.3.5-1 1.5-2 2.3 1.2 0 2 0 3-1.6l1-1.5.3.6-1.9 3.1c-.3.5-1 1.5-2 2.3 1.2 0 2 0 3-1.6l1.6-2.6.4.4-2.3 3.7c-.3.5-1 1.5-2 2.2 1.2 0 2 0 3-1.6l2.3-3.6c.1.1.3.2.5.3L27 64.4c-.3.5-1 1.5-2 2.2 1.2 0 2 0 3-1.6l2.8-4.5c.2.1.3.1.5.2l-3.2 5.1c-.3.5-1 1.5-2 2.2 1.2 0 2 0 3-1.6l3.4-5.5h.1c.1.3.2.6.2.8 0 1.7-1.1 3.2-2.5 4.4.1 0 .2.1.4.1h.6c-.3.7-1 1.6-1.3 2.1-.4-.1-1.1-.1-1.5-.1-.4 0-.5.3-.5.5 0 .4.2.7.4.9.1-.2.2-.5 1.1-.5h.1c-.2.3-1 .9-1 1.4 0 .3.4.8.8.8V71c0-.4.3-.9.6-1.2v.2c0 .9.1 1.4.7 1.4.3 0 .5-.2.6-.2-.4-.4-.4-.6-.4-1.2v-.9h.5s.8-.1 1 .4c.2-.2.6-.5.6-.8 0-.2-.1-.5-.5-.5-.2 0-.7.1-1.1.1.1-.3.6-1 1.1-1.6.1.2.2.4.4.6 0-.4.2-1.5.8-2.1.1.4.1.9.1 1.8 0 2.3-.6 4-1.7 4.3.2.3.5.5.8.5.4 0 .7-.5.9-.9.1.3.5 1.2.8 1.2.3 0 .7-.8.8-1.2.2.5.5.9.9.9.3 0 .7-.2.8-.5-1.2-.3-1.7-2-1.7-4.3 0-1 .1-1.4.2-1.8.6.7.8 1.8.8 2.1.2-.2.3-.4.4-.6.4.5 1 1.3 1.1 1.6-.4 0-.9-.1-1.1-.1-.4 0-.5.2-.5.5s.3.6.6.8c.2-.4 1-.4 1-.4h.5v.9c0 .5 0 .8-.4 1.2.1 0 .3.2.6.2.6 0 .7-.4.7-1.4v-.2c.3.3.6.8.6 1.2v.3c.5 0 .8-.5.8-.8 0-.5-.7-1.1-1-1.4h.1c.8 0 1 .3 1.1.5.2-.2.4-.5.4-.9 0-.2 0-.5-.5-.5-.4 0-1.1.1-1.5.1-.3-.5-1-1.4-1.3-2.1h.6c.1 0 .3 0 .4-.1-1.4-1.2-2.5-2.7-2.5-4.4 0-.3.1-.6.2-.8h.1l3.4 5.5c1 1.6 1.8 1.6 3 1.6-1-.8-1.7-1.8-2-2.2L38 60.7c.2-.1.3-.1.5-.2l2.8 4.5c1 1.6 1.8 1.6 3 1.6-1-.8-1.7-1.7-2-2.2L39.5 60c.2-.1.3-.2.5-.3l2.3 3.6c1 1.6 1.8 1.6 3 1.6-1-.8-1.7-1.7-2-2.2L40.9 59c.1-.1.3-.2.4-.4l1.6 2.6c1 1.6 1.8 1.6 3 1.6-1-.8-1.7-1.7-2-2.3L42 57.4l.3-.6 1 1.7zM28 54.9c0-1.1.8-2 1.1-2.3h.2c-.3.4-.9 1-.9 1.9 0 1.7 1.8 3.1 3.8 3.1v1.1c-2.2.1-4.2-1.8-4.2-3.8zm3.1 13.7h1.5c.2 0 .3 0 .3.2 0 .1-.2.4-.3.5-.3-.3-.6-.3-1.1-.3-.2 0-.5 0-.7.1v1c0 .5.1.9.3 1.1h-.2c-.3 0-.4-.1-.4-1.1v-.7c-.5.4-1 1.1-1 1.6-.2-.1-.3-.3-.3-.5 0-.3.4-.7.9-1.2l.3-.3h-.1c-.1 0-.3-.1-.5-.1-.5 0-.9.1-1.1.3-.1-.1-.1-.4-.1-.5 0-.1 0-.2.1-.2h.2c.6 0 1.3.1 1.6.2 0-.1 1.2-1.6 1.5-2.4h.2c.2 0 .3.2.4.4-.9.8-1.3 1.5-1.5 1.9zm6.2-2.4h.2c.3.8 1.4 2.3 1.5 2.4.3 0 1-.2 1.6-.2h.2s.1.1.1.2-.1.4-.1.5c-.2-.2-.6-.3-1.1-.3-.2 0-.4 0-.5.1l.3.3c.5.5.9.9.9 1.2 0 .2-.2.4-.3.5 0-.5-.5-1.2-1.1-1.6v.7c0 1-.1 1.1-.4 1.1h-.2c.2-.2.3-.5.3-1.1v-1h-.1c-.2 0-.5-.1-.7-.1-.5 0-.8 0-1 .3-.2-.1-.3-.3-.3-.5s.1-.2.3-.2h.3c.2 0 .5.1 1.2.1-.2-.5-.6-1.1-1.3-2-.1-.2 0-.4.2-.4zm-2.7-13.3c-.1-.3-.2-.6-.4-.8-.2-.2-.5-.5-.9-.5-.2 0-.5.1-.7.2-.1-.1-.2-.4-.2-.6 0-.1.2-.3.7-.3 1 0 1.6.5 1.6 1.2.1.4 0 .6-.1.8zm.5-1c0-.2-.1-.4-.2-.6 0-.2.1-.4.4-.2-.2.2 0 .5 0 .5s.4-.2.3-.4c.4.1.1.8-.5.7zm2 6.9v-1.1c2 0 3.7-1.5 3.7-3.1 0-.8-.5-1.5-.9-1.9h.2c.3.3 1.1 1.2 1.1 2.3.2 1.9-1.8 3.8-4.1 3.8"/></svg>