<svg version="1.1" id="Ebene_1" xmlns="http://www.w3.org/2000/svg" xmlns:xlink="http://www.w3.org/1999/xlink" x="0" y="0" viewBox="0 0 850.4 311.8" style="enable-background:new 0 0 850.4 311.8" xml:space="preserve"><style>.st0{clip-path:url(#SVGID_2_)}</style><defs><path id="SVGID_1_" d="M0 0h850.4v311.8H0z"/></defs><clipPath id="SVGID_2_"><use xlink:href="#SVGID_1_" style="overflow:visible"/></clipPath><path class="st0" d="M397.2 73.1c-3.7 0-6.7-1.2-8.8-3.8-2.2-2.6-3.2-5.8-3.2-10.4 0-5.6 1.6-9.4 4.8-12 2-1.7 4.2-2.4 7-2.4 3 0 5.7.9 7.9 2.8l-1.9 2.4c-2.1-1.5-3.8-2.1-5.9-2.1-2.7 0-4.8 1-6 3.6-1.3 2.7-1.5 4.6-1.5 7.9 0 3.8.7 6.7 2 8.4 1.2 1.6 3.6 2.5 6 2.5 1.6 0 3-.4 4.1-1v-8h-5.1l-.6-3.2h9.6v13c-2.5 1.5-5.5 2.3-8.4 2.3M414.5 63.3v.5c0 1.7.2 3.1.8 4 1 1.6 2.7 2.4 4.6 2.4 1.9 0 3.5-.6 5-1.9l1.4 2.2c-2 1.7-4.4 2.6-7 2.6-5.6 0-9-4.1-9-10.7 0-3.5.7-5.8 2.4-7.8 1.6-1.9 3.6-2.8 6.1-2.8 2.3 0 4.1.7 5.5 2.2 1.8 1.8 2.4 4.1 2.5 8.7v.6h-12.3zm7.2-7.3c-.6-.8-1.6-1.4-2.9-1.4-2.8 0-4.2 2.3-4.2 6h8.4c-.1-1.9-.5-3.5-1.3-4.6M441.5 46.7c-.9-.4-1.7-.8-2.6-.8-1.7 0-2.7 1.2-2.7 3.2v3.3h5.4l-1 2.6h-4.4v17.6h-3.8V55.1h-1.9v-2.6h2c-.1-.4-.1-2.9-.1-3.2 0-2.7 1.2-4.3 2.3-5 1-.7 2.2-1 3.7-1 1.7 0 3.1.3 4.4 1.1l-1.3 2.3zM451.6 73.2c-5.4 0-8.8-4.1-8.8-10.7 0-6.5 3.3-10.7 8.7-10.7 6 0 8.9 4.8 8.9 10.9 0 6.5-3.4 10.5-8.8 10.5m-4.2-23.3c-1.3 0-2.3-1.2-2.3-2.5 0-1.4 1-2.5 2.3-2.5 1.3 0 2.4 1.1 2.4 2.5-.1 1.3-1.1 2.5-2.4 2.5m4.1 4.9c-3.2 0-4.6 2.3-4.6 7.4 0 6.2 1.6 8.2 4.7 8.2 2.8 0 4.6-2.2 4.6-7.5 0-6.2-1.8-8.1-4.7-8.1m4.3-4.9c-1.3 0-2.4-1.2-2.4-2.5 0-1.4 1-2.5 2.4-2.5 1.3 0 2.3 1.1 2.3 2.5 0 1.3-1 2.5-2.3 2.5M474.8 55.7c-.4-.1-.6-.2-1.1-.2-2.3 0-4.2 1.9-4.2 4.1v13h-3.7V57.8c0-2.5-.3-3.8-.8-5l3.6-.9c.4.8.7 2.1.7 3.1v.4c1.6-2.3 3.4-3.5 5.5-3.5.5 0 .9.1 1.3.2l-1.3 3.6zM491.5 72.7c-.2-.6-.2-.9-.4-1.9-1.4 1.5-3.1 2.2-5.2 2.2-5.2 0-8.2-3.9-8.2-10.3 0-4.4 1.5-7.7 4.2-9.5 1.3-.8 2.5-1.2 4-1.2 1.9 0 3.5.7 4.9 2.3 0-.6-.1-2.2-.1-3.6V43l3.7.6v22.3c0 3.3.1 5.5.6 6.8h-3.5zm-.8-15.7c-1.1-1.3-2.4-1.9-4.3-1.9-1.5 0-2.7.8-3.5 2.1-.8 1.3-1 2.9-1 5.6 0 3.9.5 5 1.6 6.1.7.7 1.6 1.1 3 1.1 2.1 0 3.6-1.1 4.3-2.3V57zM504 63.3v.5c0 1.7.2 3.1.8 4 1.1 1.6 2.7 2.4 4.6 2.4 1.9 0 3.5-.6 5-1.9l1.4 2.2c-2 1.7-4.4 2.6-7 2.6-5.6 0-9-4.1-9-10.7 0-3.5.7-5.8 2.4-7.8 1.6-1.9 3.6-2.8 6.1-2.8 2.3 0 4.1.7 5.5 2.2 1.8 1.8 2.4 4.1 2.5 8.7v.6H504zm7.1-7.3c-.6-.8-1.6-1.4-2.9-1.4-2.8 0-4.2 2.3-4.2 6h8.4c0-1.9-.4-3.5-1.3-4.6M530.7 55.7c-.4-.1-.6-.2-1.1-.2-2.3 0-4.2 1.9-4.2 4.1v13h-3.7V57.8c0-2.5-.3-3.8-.8-5l3.6-.9c.4.8.7 2.1.7 3.1v.4c1.6-2.3 3.3-3.5 5.5-3.5.5 0 .9.1 1.2.2l-1.2 3.6zM544.1 55.1h-4v12.2c0 2.5.6 3.3 2.6 3.3.7 0 1.3-.1 1.9-.4l.4 2.3c-1.1.6-2.3.8-3.7.8-1.3 0-2.8-.4-3.4-1-.8-.8-1.5-1.2-1.5-4.1v-13H534v-2.6h2.4c0-1.6 0-3.6.2-5.2l3.8-.9c-.2 1.5-.4 4-.4 6.1h4.9l-.8 2.5zM570.9 72.7c-.2-.6-.2-.9-.4-1.9-1.4 1.5-3.1 2.2-5.2 2.2-5.2 0-8.2-3.9-8.2-10.3 0-4.4 1.5-7.7 4.2-9.5 1.2-.8 2.5-1.2 4-1.2 1.9 0 3.6.7 4.9 2.3 0-.6-.1-2.2-.1-3.6V43l3.7.6v22.3c0 3.3.1 5.5.6 6.8h-3.5zm-.8-15.7c-1-1.3-2.4-1.9-4.3-1.9-1.5 0-2.7.8-3.5 2.1-.8 1.3-1 2.9-1 5.6 0 3.9.5 5 1.6 6.1.7.7 1.6 1.1 3 1.1 2.1 0 3.6-1.1 4.3-2.3V57zM594.3 73.4c-1-.8-1.5-1.5-1.9-2.9-1.6 2-3.6 2.9-6.1 2.9-2.6 0-4.6-1.2-5.4-3-.4-.8-.5-1.9-.5-3.4V52.6l3.7-.7V66c0 2.1.2 2.9.9 3.5.5.5 1.5.9 2.3.9 1.8 0 3.8-1.4 4.6-3.2V52.7l3.7-.7v15.2c0 2.1.4 3.5 1.3 4.2l-2.6 2zM611.5 55.7c-.4-.1-.6-.2-1.1-.2-2.3 0-4.2 1.9-4.2 4.1v13h-3.7V57.8c0-2.5-.3-3.8-.8-5l3.6-.9c.4.8.7 2.1.7 3.1v.4c1.6-2.3 3.3-3.5 5.5-3.5.5 0 .9.1 1.3.2l-1.3 3.6zM623 73.1c-2.9 0-5.1-1-6.5-3-1.3-1.9-1.9-4.2-1.9-7.3 0-4.6 1.5-7.2 3.4-8.9 1.5-1.3 3.3-2.1 5.2-2.1 2.2 0 4 .7 5.5 2.1l-1.9 2.5c-1.3-1.2-2.3-1.6-3.6-1.6-1.5 0-2.9.8-3.5 2.2-.7 1.4-1 3.4-1 6.2 0 2.8.6 4.7 1.6 5.8.7.8 1.7 1.2 2.9 1.2 1.5 0 3-.7 4.2-2.1l1.8 2.3c-1.9 1.9-3.6 2.7-6.2 2.7M645.6 72.7V58.8c0-1.4-.3-2.4-.7-2.8-.4-.4-1.3-.8-2.2-.8-1.7 0-3.8 1.1-5.4 2.9v14.5h-3.8V48.1c0-1.7-.2-3.1-.4-4.2l3.8-.8c.3 1.2.4 2.7.4 4.7v4.5c0 .7 0 1.7-.1 2.7.9-.8 1.3-1.1 2.1-1.7 1.5-1 2.9-1.4 4.4-1.4 2.4 0 4.5 1.2 5.1 3 .3.9.4 1.5.4 3.3v14.4h-3.6zM677 72.7c-.2-.6-.2-.9-.4-1.9-1.4 1.5-3.1 2.2-5.2 2.2-5.2 0-8.2-3.9-8.2-10.3 0-4.4 1.5-7.7 4.2-9.5 1.2-.8 2.5-1.2 4-1.2 1.9 0 3.6.7 4.9 2.3 0-.6-.1-2.2-.1-3.6V43l3.7.6v22.3c0 3.3.1 5.5.6 6.8H677zm-.8-15.7c-1-1.3-2.4-1.9-4.3-1.9-1.5 0-2.7.8-3.5 2.1-.8 1.3-1 2.9-1 5.6 0 3.9.5 5 1.6 6.1.7.7 1.6 1.1 3 1.1 2.1 0 3.6-1.1 4.3-2.3V57zM688.6 48.9c-1.5 0-2.6-1.2-2.6-2.7 0-1.5 1.2-2.7 2.6-2.7 1.5 0 2.7 1.2 2.7 2.7 0 1.5-1.2 2.7-2.7 2.7m-1.9 23.8V52.6l3.8-.6v20.7h-3.8zM699.8 63.3v.5c0 1.7.2 3.1.9 4 1 1.6 2.7 2.4 4.6 2.4 1.9 0 3.5-.6 5-1.9l1.4 2.2c-2 1.7-4.4 2.6-7 2.6-5.6 0-9-4.1-9-10.7 0-3.5.7-5.8 2.4-7.8 1.6-1.9 3.6-2.8 6.1-2.8 2.3 0 4.1.7 5.5 2.2 1.8 1.8 2.4 4.1 2.5 8.7v.6h-12.4zm7.1-7.3c-.6-.8-1.6-1.4-2.9-1.4-2.8 0-4.2 2.3-4.2 6h8.4c0-1.9-.4-3.5-1.3-4.6"/><path d="M152.5 21.5c1.5.3 2.9.7 3.6.9l-10 39.6s3.8.5 6.7 1.2c1.3.3 2.2.5 2.2.5l-18.4 45.8L143 62s-2.2-.1-3.4-.2c-1.4-.1-3.5-.1-4.3 0l1.5-42.2h.5s3.6.2 6.9.5c3.4.4 6.8 1 8.3 1.4" style="clip-path:url(#SVGID_2_);fill:#fff482"/><path d="M121.4 64s1.7-.4 4.3-.7c.8-.1 3.5-.4 3.5-.4l-1.2 44.9-9.7-42.4s-1.4.4-3.3 1.1c-1 .4-3.3 1.4-3.3 1.4L97 25.4l-.2-.6s1.6-.6 4-1.3c2.4-.6 5.6-1.5 9.1-2.1 3.5-.6 6.6-1.1 6.6-1.1l4.9 43.7z" style="clip-path:url(#SVGID_2_);fill:#dbe283"/><path d="M188.4 35.3c2.2 1.3 4.6 3 4.6 3l-21.7 31.4s3.2 1.9 4.6 2.8c1.4.8 3.5 2.3 3.6 2.5l-34.8 37.8 23.4-44.2s-1.6-1-3-1.6c-1.4-.7-3.8-1.7-3.8-1.7L175.9 29s1.8.8 3.7 1.6c1.9.9 6.5 3.4 8.8 4.7" style="clip-path:url(#SVGID_2_);fill:#ffed00"/><path d="M100 75.5s1.8-1.3 3.6-2.5c1.6-1.1 3.4-2.1 3.4-2.1l12.9 39L98 77.3s-1 .8-2.1 1.7c-1.1.9-3 2.6-3 2.6L61.7 43.1s.9-.9 3.4-2.7c2.4-1.8 6.2-4.4 8.7-5.8 2.5-1.4 4.2-2.2 4.2-2.2s21.2 42.3 22 43.1" style="clip-path:url(#SVGID_2_);fill:#94c356"/><path d="M87.1 89.5c1.6-2.2 3-3.7 3-3.7l23 29.2-29.2-20.2s-.7 1.2-1.4 2.5c-1.2 2.2-1.6 3.2-1.6 3.2L34.6 74c.1-.2 3.1-4.9 4.6-7 1.5-2.1 5-6.7 5.9-7.8.9-1 1.4-1.6 1.4-1.6l38.1 35.2c.1.1.6-.7 2.5-3.3" style="clip-path:url(#SVGID_2_);fill:#009f5e"/><path d="M235.4 90.9c1.2 3.1 2.2 6.4 2.9 8.5l1 3.5-31 8.1s.2 1 1.2 4.4c1.1 4 1.3 5.2 1.3 5.2s-56.4 6.5-56.2 6.5l52.1-19.6s-.8-2.1-1.8-4.2c-.6-1.4-1.8-3.7-1.8-3.7l29.5-15.3c-.1.1.8 1.5 2.8 6.6" style="clip-path:url(#SVGID_2_);fill:#fbba00"/><path d="M77.4 113.6s.3-1.7.9-4c.8-2.9 1.3-4.3 1.3-4.3l28.9 17.3-31.3-7c-.3 2.3-.5 4.2-.6 5.7l-56.2-8.2s.7-3.9 1.3-7c.7-3.1.9-4 2-7.7s1.7-4.9 1.7-4.9l52 20.1z" style="clip-path:url(#SVGID_2_);fill:#88cdd3"/><path d="M242.9 124.6s.2 5.5.2 7.2c0 1.7 0 4.1-.2 6.7-.1 2.5-.5 5.2-.5 5.2l-28.1-3.3s.1.5-.3 5.4c-.3 4-.6 5.3-.6 5.3l-55.2-14s-.1 2-.5 3.7l-5.5-3.2c0-.1 6.1-1.2 6.1-1.2l.1-.9 55.4.8s-.1-1.8-.2-4.1c-.2-2-.5-4.8-.5-4.8l29.8-3.1c-.1-.2 0-.2 0 .3" style="clip-path:url(#SVGID_2_);fill:#f39200"/><path d="m106.3 131.1-27.5 5.4s.1 1 .8 4l-54.7 13.3s.7 3.3 1.6 6.1c.9 2.8 2.1 6.3 2.1 6.3l-3.6 1.3s-.1-.1-.9-2.5-2.2-7.6-3.1-11.5c-.9-3.9-1.2-6-1.2-6l3.1-.7s-.7-3.4-1.2-6.3c-.3-1.8-.8-6.5-.8-6.5l56.8-.3-.6-4.8c0-.3-.2-3.3-.2-3.3l29.4 5.5z" style="clip-path:url(#SVGID_2_);fill:#00afcb"/><path d="M86.8 152.5s.2.4 1.2 1.8 1.3 1.8 1.3 1.8L42 189.5s.7 1.3 2.9 4.2c3.2 4.3 4.2 5.3 4.2 5.3l-4.4 3.5s-2.5-2.8-4.8-6.1c-2.1-3-2.9-4-4.8-7-1.8-3.1-2.5-4.4-2.5-4.4l4.1-2.8s-.9-1.3-2.4-4.5c-1.6-3.2-2.3-5.1-2.3-5.1l53.3-21.4s-.6-1.1-1.5-2.9c-1.3-2.7-1.5-3.3-1.5-3.3s26.1-5.3 26.2-5.4l-21.7 12.9z" style="clip-path:url(#SVGID_2_);fill:#009fe3"/><path d="M156.7 145.9s53.6 21.4 53.6 21.2c0 0 .3-.6 1.5-5 .8-3 1.3-5.1 1.3-5.1l25.2 6.9s-1 3.3-2.1 6.4c-.9 2.4-3 7.1-4.2 9.8-.8 1.6-1.5 2.8-1.5 2.8l-21-11.1s-.5 1.3-2.3 5c-2.3 4.7-2.8 5.3-2.7 5.3l-48.1-34.4s-.1.2-.9 1.9-1.3 2.5-1.3 2.5l-5.1-7.1 7.5 1.8.1-.9z" style="clip-path:url(#SVGID_2_);fill:#e30613"/><path d="M99.4 165.4s.7.7 2.8 1.9L68.9 215s1.7 1.4 4.3 3.1c3 2 5.2 3.3 5.2 3.3l-3.9 6.4s-.7-.3-3.1-1.8c-3.2-2-4.6-2.9-7.8-5.3s-5.2-4.3-5.2-4.3l4.3-5.2s-2.6-2.1-4.9-4.3c-2.9-2.7-3.5-3.6-3.5-3.6l43.3-38.8s-.6-.5-2.5-2.5c-1.7-1.7-2.5-2.7-2.5-2.7l7.4-4.6 13.3-7.8-13.9 18.5z" style="clip-path:url(#SVGID_2_);fill:#0075bf"/><path d="M151 157.5s.4-.4 1-1.1l43.4 39.4s1-1.1 3.4-4.3c2.3-3 3-4.2 3-4.2l17.2 12.8s-.8 1.4-3.2 4.1c-2.3 2.7-4.7 5.2-7 7.2-1.7 1.6-4.1 3.3-4.1 3.3l-12.6-14.3s-.8.7-3.4 3.2c-2.4 2.3-4.3 3.9-4.3 3.9l-33.8-49.2c-.8.8-1.8 2.1-3.7 3.7l-3.9-10.9 8 6.4z" style="clip-path:url(#SVGID_2_);fill:#e6007e"/><path d="M114.5 171.5c1 .3 2.2.3 2.7.5l-14.5 57.2s1.5.5 5.1 1c4.9.8 5.8.8 5.8.8l-1.8 10.6s-1.3-.2-5.3-.9c-2.6-.5-3.8-.9-7.3-1.8-3-.8-5.9-1.9-5.9-1.9l3.1-8.6s-2.4-.8-5.8-2.1c-2.2-.9-4.5-1.9-4.5-1.9l26.2-53s-1.1-.3-2.2-.7c-1.8-.7-3-1.3-3-1.3l12.9-16.8-5.5 18.9z" style="clip-path:url(#SVGID_2_);fill:#004f9f"/><path d="M141.8 166.3c.9-.5 1.7-1 2.4-1.5l25.6 52.9s2.2-1.2 4.9-2.8c2.7-1.6 4.9-3.1 4.9-3.1l9.5 15s-1.8 1.3-3.8 2.3c-2.6 1.3-5 2.7-8 4.1-2.7 1.2-6.2 2.6-6.2 2.6l-5.8-15.2s-2.8 1.2-5 2.2c-2.2 1-5.6 2.2-5.6 2.2l-13.6-58.2s-.7.4-2.1 1.1c-1.4.7-1.6.8-3 1.4l-.3-15.1 6.1 12.1z" style="clip-path:url(#SVGID_2_);fill:#dd6ca6"/><path d="M129.3 171.6s.7 0 2.5-.4l6.1 58.4s.9 0 5.3-.9c2.7-.5 5.7-1.4 5.7-1.4l2.8 14s-1.5.4-4.2.8c-2.7.5-5.6.7-9.3.9-3.7.3-6.5.1-6.5.1l-.1-12.4s-1.5.1-4.7.2c-2.9.1-5.4-.1-5.4-.1l6.3-58.9c-3.2.2-5.2.1-5.2.1l5.3-17.1 1.4 16.7z" style="clip-path:url(#SVGID_2_);fill:#bc90c1"/><path d="m216.3 58.6 3.7 4.7 2.1 2.7-28.4 21s1.9 2.5 3.3 4.4c1.1 1.5 2.4 3.6 2.4 3.6l-48.5 24 39.7-34.6s-1.1-1.5-2.2-2.7c-1.8-1.9-3.2-3.2-3.2-3.2l24.5-26.9.3.4 6.3 6.6z" style="clip-path:url(#SVGID_2_);fill-rule:evenodd;clip-rule:evenodd;fill:#fd0"/><path class="st0" d="M302.7 167.8h14.6c-.8 2.7-2 7.3-7.2 13.7-5.7 7.3-12.6 9.8-17 9.1-7.1-1.2-9.6-9.6-10.1-17.7-.6-11.2 6.4-36.4 17.2-46.8 4.7-3.8 8.3-5.6 12.7-5.6 6.9 0 12.2 4.5 11.4 16.3h12c.3-2.2 3.4-11-1-22.2-3.9-9.9-12.7-10.8-18.7-10.8-5.5 0-10 1.8-13.1 3.5-25.3 14.5-40.5 65-31.4 87.3 1.9 4.3 4 11.6 15.4 12.6 12.4 1.1 20.4-9.1 25-15l-1.6 12.3h7.9l13.9-53.3H307l-4.3 16.6M353.5 105.3 327.8 204h12.3l25.7-98.7zM398.7 105l-4.3 16.5h9.7l4.3-16.5h-9.7zm-20.6 16.5h9.7l4.3-16.5h-9.7l-4.3 16.5zm31.9 9.1h-12.3L385.4 178c-1.5 4.6-4.4 11.1-12.2 12.3-9.2.5-7-7.7-5.2-14.2l11.8-45.5h-12.3l-13.3 51c-5.8 24.2 4.7 25.9 11.8 24.9 4.7-.7 11.2-5 14.8-11.6h.2l-2.4 9.1h12.3l19.1-73.4M453.2 157.9c2-9.8 2.2-20-2.5-24.5-2.4-2.3-6.6-4.1-11.5-4.1-5.6.1-14.1 1.1-24.8 20.7-5.1 9.3-7.9 21.9-9.1 28.4-1.9 10.7-1.5 29.2 13.6 28.6 7-.3 11.1-2.4 16.2-6.6 2.8-2.3 10.3-12.1 12.8-22.1h-11.8c-5 11.1-9.2 13.3-12.3 13-3.8-.1-6.7-1.8-5.6-13.3.8-8.8 4.9-19.2 5.9-21.4 3.1-7 7.1-10.7 11.3-10.8 2.8-.1 7.6 1 5.9 12h11.9M472.6 105.3 447 204h12.3l5.9-22.9 7.3-8.6 3 31.5h14.4l-5.3-45.4 23.4-28h-14.1l-22.8 28.5h-.2l14-53.8z"/><path class="st0" d="M494.5 182.4c-1.1 4.7-2.9 15.4 4.8 21.8 2 1.6 5.7 2.6 9.7 2.8 4.2.1 8.8-.7 12.6-2.4 9.3-4.5 14.5-16.2 16.4-23.6 2.4-9.2-1.2-14.2-6.3-16.8l-12.6-6.8c-4.1-2.7-2-9 1.5-11.6 3.4-2.5 7-2.8 9.1-1.5 3.1 1.9 3.4 5 2.1 9.9h11.9c1.4-5.4 3-12.9-2-19.5-3.1-4.2-8.2-5.7-13.4-5.4-5.2.3-10.5 2.4-14 5.7-3.8 3.4-8.4 9.6-10.8 19.2-1.6 6.6-2.2 13.5 5.6 17.3l11.4 5.7c5.8 2.5 2 14.7-5.9 15.5-5.4.6-9-.8-8-10.4h-12.1M604.2 135.3c1.4-3.2 2.9-12.5 1.3-19.1-3.1-12.2-14.9-12.6-18.3-12.6-15.7 0-26.1 11.6-31.2 27.4-5.2 16-1.5 23.7 4.5 27.4 7.1 4.3 19.8 4.3 22.3 11.1 1.9 4.9-.7 12.6-4.6 16.7-2.3 2.4-7 4.5-11.4 4.6-4.5.3-8.8-1.2-10.5-5.8-1.3-3.5-.8-7.6-.1-10.2h-12.8c-2 9.3-1.7 19.1 2.3 25.5 3.4 5.3 10.7 6.6 13.9 6.9 7.2.6 15-1.5 21.8-6.9 10.1-8 19.6-31.4 15.3-43.3-2.4-6.4-9.3-8.8-12.6-9.8-2.3-.7-11.9-3.1-14.5-5.6-2.2-2.1-3.6-3.6-1.5-10.4 2.6-8.1 8.2-11.5 14.6-11.4 9 .3 11.4 7.6 9.1 15.6h12.4M632.4 146.2c2.8 0 5.5 2.2 6 8.3.1 2.8 0 8.3-1.6 14.3-1.6 6.1-4.2 11.5-5.8 14.4-3.7 6.1-7.5 8.3-10.3 8.3-2.9 0-5.6-2.2-6.1-8.3-.1-2.8 0-8.3 1.6-14.4s4.2-11.5 5.8-14.3c3.6-6.2 7.5-8.3 10.4-8.3m-18.7-15.6-26.8 103h12.3l9.7-37.2c1.2 5.6 3.5 10.7 10.1 10.7 6.7 0 10.4-2 15.8-8.1 12.9-14.4 20.5-46.6 15.3-60.8-1.4-3.7-4.3-9.5-11.1-8.8-7.7.7-10.8 6.1-15.9 12.3l2.9-11.1h-12.3M669.1 204h12.3l10.7-41.3c5.7-16 13.3-14.9 18.3-13.9l5-19.4c-3.6-.9-7.5 1.1-10.3 3.4-4.4 3.6-6.3 7.7-8.2 12h-.2l3.7-14.2h-12.3l-19 73.4M773.5 105.3 747.8 204h12.3l25.7-98.7zM791.9 160.5c1.7-6.9 6.8-15.8 14.3-15.3 7.2.5 6.1 9.8 4.6 15.3h-18.9zm28.3 12.7c2.6-8.8 5.1-18.7 3.6-29.4-1.1-7.3-5-14.5-14.3-14.5-5.4 0-18.7 1.4-29.3 30.1-2.1 5.7-3.6 11.4-4.5 15.7-.9 4.5-1.3 7.7-1.4 8.9-.4 6.4.8 13 4 17.5 2.5 3.2 6.3 5.5 10.9 5.5 8.4 0 22.1-9.6 27.9-23.8H805c-1.6 3.8-5.5 7.2-9.3 8.3-3.8 1-7.4-.5-8.7-6.5-.8-3.8.3-7.9 1.6-11.8h31.6M668.6 122.2h12.3l4.4-16.9H673l-4.4 16.9zM647.3 204h12.3l19.1-73.4h-12.3L647.3 204M733.8 173.6c-2.1 8.1-5.5 16-13.2 17.7-5.6 1.4-7-1.8-6.6-6.1.5-6 4.4-10.8 8.5-11.9 3.4-1 8.1-.7 12.5-3.9l-1.2 4.2zm6.6 30.4.7-2.6c-1-2.2-1.4-5.4-.5-8.7l10.4-40.1c3-11.6.8-17.6-3.2-20.6-2-1.5-5.8-2.7-10.5-2.7-6.5 0-20.1 2.2-26.3 25.6h11.6c1.5-5.3 4.2-11.5 11.2-11.9 5-.3 7.6 2 6.4 6.6-.7 3.5-2.7 7-5.2 8.3-3.3 1.5-7.5 2.3-13.3 3.4-12 2.3-16.9 12.9-19.8 23.1-4 14.2-1.5 22.6 8.2 22.6 7.2 0 12.1-4.2 18-10.4-.8 2.6-1 5.5-.6 7.3h12.9"/></svg>