<svg version="1.1" id="Ebene_1" xmlns="http://www.w3.org/2000/svg" x="0" y="0" viewBox="0 0 222.2 106.9" style="enable-background:new 0 0 222.2 106.9" xml:space="preserve"><style>.st0{fill:#004f80}</style><path class="st0" d="M11.7 14S64 30 72.9 72.6l2.8-2.8s-5-36.8-64-55.8"/><path d="M158.9 1.5 155.4 0c-.5-.2-.9.1-.8.6 0 0 .3.5.5 1.4C119.7 5.3 45.2 20.5 0 90.7l.8 6S48.4 11.9 155.1 2.3v.2c.1 1.1-.1 2-.1 2 .1.6.5.7 1 .4l3.1-2.3c.4-.4.3-.8-.2-1.1z" style="fill:#4ccdf6"/><path class="st0" d="M58.9 23c0 2.7-2.2 4.9-4.9 4.9s-4.9-2.2-4.9-4.9 2.2-4.9 4.9-4.9 4.9 2.2 4.9 4.9"/><path d="M220.4 101.2h-.9v5.6h.9v-3.3c0-.7.3-1.5 1.3-1.5h.4v-.9c-.9 0-1.4.1-1.8.9v-.8zm-5.8 2.4c0-1.5.5-1.8 1.1-1.8.7 0 1.1.2 1.1 1.8h-2.2zm3.2.7v-.5c0-1.8-.4-2.7-2-2.7-2 0-2.2 1.3-2.2 3 0 2.5 1 2.8 2.2 2.8 1.2 0 2-.6 2-1.8h-1c0 .6-.4 1.1-1 1.1-.7 0-1.1-.3-1.1-1.9h3.1zm-6.9-3.1h-.9v5.6h.9v-3.3c0-.7.3-1.5 1.3-1.5h.4v-.9c-.9 0-1.4.1-1.8.9v-.8zm-5.8 2.4c0-1.5.5-1.8 1.1-1.8.7 0 1.1.2 1.1 1.8h-2.2zm3.2.7v-.5c0-1.8-.4-2.7-2-2.7-2 0-2.2 1.3-2.2 3 0 2.5 1 2.8 2.2 2.8 1.2 0 2-.6 2-1.8h-1c0 .6-.4 1.1-1 1.1-.7 0-1.1-.3-1.1-1.9h3.1zm-6.9-.5c0 1.1 0 2.4-1 2.4-1.2 0-1.2-1.2-1.2-2 0-1.5.1-2.3 1.1-2.3 1.1-.1 1.1 1.1 1.1 1.9m0-2c-.3-.4-.7-.7-1.3-.7-1.8 0-1.9 1.6-1.9 3 0 2.4.9 2.8 1.8 2.8.6 0 1-.3 1.3-.8v.7h.9v-7.9h-.9v2.9zm-4.7 5v-3.9c0-1.1-.3-1.8-1.5-1.8-.7 0-1.2.2-1.5.8v-.7h-1c0 .4.1.8.1 1.2v4.4h.9v-3.3c0-.8.1-1.6 1.2-1.6.8 0 1 .5 1 1.1v3.9h.8zm-6.8-2.8c.1 1.8-.6 2.1-1.2 2.1s-.9-.5-.9-1c0-1.2 1.2-1.1 2.1-1.1m0 2.8h1c-.1-.4-.1-.9-.1-1.3v-2.7c0-.9-.4-1.7-1.8-1.7-1.2 0-1.9.4-1.9 1.7h1c-.1-.6.3-1 .9-1 1 0 1 .8 1 1.5-1.3 0-3 0-3 1.7 0 1.1.3 1.8 1.5 1.8.7 0 1.1-.3 1.4-.9v.9zm-10.4 0h1.2l1.3-4.7 1.2 4.7h1.2l1.5-5.6h-1l-1.1 4.8-1.2-4.8h-1.3L180 106l-1-4.8h-1l1.5 5.6zm-3.4-1.9c0 .9-.6 1.3-1.1 1.3-.7 0-1-.5-1-1.1v-3.9h-.9v4.2c0 .9.5 1.4 1.5 1.4.6 0 1.1-.3 1.4-.8v.7h1c0-.4-.1-.8-.1-1.2v-4.4h-.9v3.8zm-4.3-6.1H167v.9h3.8l-3.9 5.9v1.1h5.1v-.9h-4.1l4-6.1v-.9zm-11.9 4.8c0-1.5.5-1.8 1.1-1.8.7 0 1.1.2 1.1 1.8h-2.2zm3.2.7v-.5c0-1.8-.4-2.7-2-2.7-2 0-2.2 1.3-2.2 3 0 2.5 1 2.8 2.2 2.8 1.2 0 2-.6 2-1.8h-1c0 .6-.4 1.1-1 1.1-.7 0-1.1-.3-1.1-1.9h3.1zm-5.8 2.5v-3.9c0-1.1-.3-1.8-1.5-1.8-.7 0-1.2.2-1.5.8v-.7h-1c0 .4.1.8.1 1.2v4.4h.9v-3.3c0-.8.1-1.6 1.2-1.6.8 0 1 .5 1 1.1v3.9h.8zm-8.8-3.2c0-1.5.5-1.8 1.1-1.8.7 0 1.1.2 1.1 1.8h-2.2zm3.2.7v-.5c0-1.8-.4-2.7-2-2.7-2 0-2.2 1.3-2.2 3 0 2.5 1 2.8 2.2 2.8 1.2 0 2-.6 2-1.8h-1c0 .6-.4 1.1-1 1.1-.7 0-1.1-.3-1.1-1.9h3.1zm-5.6.9c0-1.7-2.8-1.7-2.8-2.7 0-.5.4-.7.9-.7.6 0 .9.3.9.9h1c.1-1.1-.8-1.6-1.8-1.6-1.6 0-2 .9-2 1.5 0 1.7 2.8 1.7 2.8 2.7 0 .6-.4.8-1 .8-.9 0-.9-.7-.9-1.1h-1c0 1.3.7 1.8 2 1.8 1.1.1 1.9-.4 1.9-1.6m-5.3 1.6v-3.9c0-1.3-.5-1.7-1.5-1.7-.7 0-1.2.2-1.5.8v-3.1h-.9v7.9h.9v-3.3c0-.9.2-1.7 1.2-1.7.8 0 1 .5 1 1.2v3.8h.8zM135 103c.1-1.2-.6-1.9-1.7-1.9-2 0-2.2 1.3-2.2 3 0 2.5 1 2.8 2.2 2.8.6 0 1.8-.4 1.8-2h-1c0 1-.6 1.2-.8 1.2-1 0-1.2-.6-1.2-2.5 0-1.5.5-1.8 1.2-1.8.3 0 .8.2.8 1.2h.9zm-6.8 1c.1 1.8-.6 2.1-1.2 2.1s-.9-.5-.9-1c.1-1.2 1.2-1.1 2.1-1.1m0 2.8h1c-.1-.4-.1-.9-.1-1.3v-2.7c0-.9-.4-1.7-1.8-1.7-1.2 0-1.9.4-1.9 1.7h1c-.1-.6.3-1 .9-1 1 0 1 .8 1 1.5-1.3 0-3 0-3 1.7 0 1.1.3 1.8 1.5 1.8.7 0 1.1-.3 1.4-.9v.9zm-10.4 0h1.2l1.3-4.7 1.2 4.7h1.2l1.5-5.6h-1l-1.1 4.8-1.2-4.8h-1.3l-1.3 4.8-1-4.8h-1l1.5 5.6zm-3.6-5.6h-.9v5.6h.9v-3.3c0-.7.3-1.5 1.3-1.5h.4v-.9c-.9 0-1.4.1-1.8.9v-.8zm-5.8 2.4c0-1.5.5-1.8 1.1-1.8.7 0 1.1.2 1.1 1.8h-2.2zm3.2.7v-.5c0-1.8-.4-2.7-2-2.7-2 0-2.2 1.3-2.2 3 0 2.5 1 2.8 2.2 2.8 1.2 0 2-.6 2-1.8h-1c0 .6-.4 1.1-1 1.1-.7 0-1.1-.3-1.1-1.9h3.1zm-9.6-3.1h-.9v5.6h.9v-3.3c0-.7.3-1.5 1.3-1.5h.4v-.9c-.9 0-1.4.1-1.8.9v-.8zm-5.1-2.1h-1.1v1.1h1.1v-1.1zm2 0h-1.1v1.1h1.1v-1.1zm-.5 5.8c0 .9-.6 1.3-1.1 1.3-.7 0-1-.5-1-1.1v-3.9h-.9v4.2c0 .9.5 1.4 1.5 1.4.6 0 1.1-.3 1.4-.8v.7h1c0-.4-.1-.8-.1-1.2v-4.4h-.9v3.8zm-7-3.7v.7h.9v4.9h.9v-4.9h1.1v-.7h-1.1v-.9c0-.5.2-.9 1.1-.8v-.6h-.4c-.8 0-1.6.2-1.6 1.3v1.1h-.9zM180.6 90c0 .8 0 2.1-1.1 2.1-.7 0-1.1-.4-1.1-2.2 0-.7 0-2 1.1-2 1.1-.1 1.1 1.2 1.1 2.1m-.1-2.1c-.3-.5-.8-.8-1.3-.8s-1.8.2-1.8 2.7c0 1.6.3 2.9 1.8 2.9.5 0 1-.3 1.2-.7v1.2c0 .6-.3 1-1 1-.5 0-.9-.3-.9-.8h-1c-.1 1 .8 1.5 1.7 1.5 1.2 0 2.1-.3 2.1-1.5v-6.1h-.9v.6zm-4.7 4.9V89c0-1.1-.3-1.8-1.5-1.8-.7 0-1.2.2-1.5.8v-.7h-1c0 .4.1.8.1 1.2v4.4h.9v-3.3c0-.8.1-1.6 1.2-1.6.8 0 1 .5 1 1.1v3.8h.8zm-6.7-1.9c0 .9-.6 1.3-1.1 1.3-.7 0-1-.5-1-1.1v-3.8h-.9v4.2c0 .9.5 1.4 1.5 1.4.6 0 1.1-.3 1.4-.8v.7h1c0-.4-.1-.8-.1-1.2v-4.4h-.9v3.7zm-7.1-3.7v.7h.9v4c0 .6.4 1 1.3 1 .3 0 .6-.1.9-.1V92h-.4c-.8 0-.8-.5-.8-.8v-3.4h1.2v-.7h-1.2v-1.5l-.9.4v1.1h-1zm-2 2.8c.1 1.8-.6 2.1-1.2 2.1s-.9-.5-.9-1c.1-1.2 1.3-1.1 2.1-1.1m.1 2.8h1c-.1-.4-.1-.9-.1-1.3v-2.7c0-.9-.4-1.7-1.8-1.7-1.2 0-1.9.4-1.9 1.7h1c-.1-.6.3-1 .9-1 1 0 1 .8 1 1.5-1.3 0-3 0-3 1.7 0 1.1.3 1.8 1.5 1.8.7 0 1.1-.3 1.4-.9v.9zm-5.8-5.6h-.9v5.6h.9v-3.3c0-.7.3-1.5 1.3-1.5h.4v-.9c-.9 0-1.4.1-1.8.9v-.8zm-5.8 2.4c0-1.5.5-1.8 1.1-1.8.7 0 1.1.2 1.1 1.8h-2.2zm3.2.7v-.5c0-1.8-.4-2.7-2-2.7-2 0-2.2 1.3-2.2 3 0 2.5 1 2.8 2.2 2.8 1.2 0 2-.6 2-1.8h-1c0 .6-.4 1.1-1 1.1-.7 0-1.1-.3-1.1-1.9h3.1zm-8.8-.5c0-.7 0-1.9 1.1-1.9 1 0 1.1.8 1.1 2.3 0 .8 0 2-1.2 2-1.1-.1-1-1.6-1-2.4m0 2.3c.3.5.7.8 1.3.8.9 0 1.8-.4 1.8-2.8 0-1.4 0-3-1.9-3-.5 0-.9.2-1.2.7v-2.9h-.9v7.9h.9v-.7zm-2.5-.9c0-1.7-2.8-1.7-2.8-2.7 0-.5.4-.7.9-.7.6 0 .9.3.9.9h1c.1-1.1-.8-1.6-1.8-1.6-1.6 0-2 .9-2 1.5 0 1.7 2.8 1.7 2.8 2.7 0 .6-.4.8-1 .8-.9 0-.9-.7-.9-1.1h-1c0 1.3.7 1.8 2 1.8 1.1.1 1.9-.4 1.9-1.6m-5.4 1.6V89c0-1.1-.3-1.8-1.5-1.8-.7 0-1.2.2-1.5.8v-.7h-1c0 .4.1.8.1 1.2v4.4h.9v-3.3c0-.8.1-1.6 1.2-1.6.8 0 1 .5 1 1.1v3.8h.8zm-7.7-.7c-1 0-1.2-.6-1.2-2.5 0-1.5.5-1.8 1.2-1.8s1.2.3 1.2 1.8c0 1.9-.2 2.5-1.2 2.5m0 .8c1.2 0 2.2-.4 2.2-2.8 0-1.6-.2-3-2.2-3s-2.2 1.3-2.2 3c.1 2.4 1 2.8 2.2 2.8m-4.7-7.1h1v-1h-1v1zm1 1.4h-.9v5.6h.9v-5.6zm-4.9 0v.7h.9v4c0 .6.4 1 1.3 1 .3 0 .6-.1.9-.1V92h-.4c-.8 0-.8-.5-.8-.8v-3.4h1.2v-.7h-1.2v-1.5l-.9.4v1.1h-1zm-2 2.8c.1 1.8-.6 2.1-1.2 2.1s-.9-.5-.9-1c0-1.2 1.2-1.1 2.1-1.1m0 2.8h1c-.1-.4-.1-.9-.1-1.3v-2.7c0-.9-.4-1.7-1.8-1.7-1.2 0-1.9.4-1.9 1.7h1c-.1-.6.3-1 .9-1 1 0 1 .8 1 1.5-1.3 0-3 0-3 1.7 0 1.1.3 1.8 1.5 1.8.7 0 1.1-.3 1.4-.9v.9zm-5.8-5.6h-.9v5.6h.9v-3.3c0-.7.3-1.5 1.3-1.5h.4v-.9c-.9 0-1.4.1-1.8.9v-.8zm-3.7 2.8c0 .8 0 2.1-1.1 2.1-.7 0-1.1-.4-1.1-2.2 0-.7 0-2 1.1-2 1.2-.1 1.1 1.2 1.1 2.1m0-2.1c-.3-.5-.8-.8-1.3-.8s-1.8.2-1.8 2.7c0 1.6.3 2.9 1.8 2.9.5 0 1-.3 1.2-.7v1.2c0 .6-.3 1-1 1-.5 0-.9-.3-.9-.8h-1c-.1 1 .8 1.5 1.7 1.5 1.2 0 2.1-.3 2.1-1.5v-6.1h-.9v.6zm-5.7-2.1h1v-1h-1v1zm1 1.4h-.9v5.6h.9v-5.6zm-9.3-1.5 2.2 7.1h1l2.3-7.1v7.1h1v-7.9H98l-2 6.6-2-6.7h-1.7v7.9h1v-7zM173.7 73v-4.8h-11.1v-9.1h9.9v-4.8h-9.9v-7.7h10.7v-4.8h-17.4V73h17.8zm-38.4-26.4h4.1c2.2 0 3.8 1.7 3.8 4 0 3-2 4-3.5 4h-4.4v-8zm0 12.7h3.9c3.3 0 4.4 1.7 4.4 4.4 0 4.4-3.2 4.4-4.6 4.4h-3.7v-8.8zm5.1 13.7c2.8 0 9.8-.3 9.8-8.2 0-4.3-1.2-7.3-5.9-7.9v-.1c3.6-.7 5.4-3.3 5.4-6.9 0-6.7-4.2-8.1-9.3-8.1h-11.8V73h11.8zm-42.6 0V48.9h.1l5.8 24.1h6.3l6.1-24.1h.1V73h6.5V41.8h-10.4L107.1 63h-.1l-5-21.2H91.3V73h6.5z"/></svg>