<?xml version="1.0" encoding="UTF-8"?>
<svg aria-label="Logo Kreuzbund"  width="60px" height="60px" viewBox="0 0 60 60" version="1.1" xmlns="http://www.w3.org/2000/svg" xmlns:xlink="http://www.w3.org/1999/xlink">
    <title>Logo Kreuzbund</title>
    <g id="Artboard" stroke="none" stroke-width="1" fill="none" fill-rule="evenodd">
        <g id="Kreuzbund_Logo_RGB" transform="translate(2.950820, 0.000000)" fill="#FFFFFF" fill-rule="nonzero">
            <path d="M52.5349961,33.7002932 L50.9443779,33.7002932 L50.9443779,33.1056696 L52.5349961,33.1056696 C52.8620391,33.1056696 53.1147541,32.8380889 53.1147541,32.5259115 L53.1147541,15.8169881 C53.1147541,15.4899451 52.8471735,15.23723 52.5349961,15.23723 L37.4612875,15.23723 C36.8072016,15.23723 36.2869059,14.7020688 36.2869059,14.0628484 L36.2869059,1.17438163 C36.2869059,0.847338646 36.0193253,0.594623612 35.7071479,0.594623612 L18.0170954,0.594623612 C17.6900524,0.594623612 17.4373374,0.862204237 17.4373374,1.17438163 L17.4373374,14.0479828 C17.4373374,14.7020688 16.9021762,15.2223645 16.2629558,15.2223645 L1.17438163,15.2223645 C0.847338646,15.2223645 0.594623612,15.4899451 0.594623612,15.8021225 L0.594623612,32.4961804 C0.594623612,32.8232234 0.862204237,33.0759384 1.17438163,33.0759384 L2.80959656,33.0759384 L2.80959656,33.670562 L1.17438163,33.670562 C0.52029566,33.670562 0,33.1354008 0,32.4961804 L0,15.8169881 C0,15.1629021 0.53516125,14.6426064 1.17438163,14.6426064 L16.218359,14.6426064 C16.545402,14.6426064 16.798117,14.3750258 16.798117,14.0628484 L16.798117,1.17438163 C16.798117,0.52029566 17.3332783,0 17.9724987,0 L35.6625511,0 C36.3166371,0 36.8369327,0.53516125 36.8369327,1.17438163 L36.8369327,14.0479828 C36.8369327,14.3750258 37.1045134,14.6277408 37.4166908,14.6277408 L52.4903993,14.6277408 C53.1444853,14.6277408 53.6647809,15.1629021 53.6647809,15.8021225 L53.6647809,32.4961804 C53.7242433,33.1651319 53.189082,33.7002932 52.5349961,33.7002932 Z" id="Path"></path>
            <g id="Group" transform="translate(8.324731, 54.259405)">
                <polygon id="Path" points="2.46768799 4.56373622 1.35276872 2.61634389 0.936532188 2.61634389 0.936532188 4.56373622 0.0891935417 4.56373622 0.0891935417 0 0.936532188 0 0.936532188 1.87306438 1.35276872 1.87306438 2.49741917 0 3.38935459 0 2.03658587 2.18524177 3.41908577 4.56373622"></polygon>
                <path d="M6.39220382,2.11091382 C6.49626296,2.06631705 6.55572532,2.00685469 6.5854565,1.90279556 C6.61518768,1.79873642 6.63005327,1.65008052 6.63005327,1.44196226 C6.63005327,1.23384399 6.61518768,1.0703225 6.5854565,0.981128959 C6.55572532,0.891935417 6.49626296,0.817607466 6.40706941,0.787876285 C6.31787587,0.743279514 6.15435438,0.728413924 5.94623612,0.728413924 L5.23268778,0.728413924 L5.23268778,2.17037618 L5.94623612,2.17037618 C6.13948879,2.17037618 6.30301028,2.140645 6.39220382,2.11091382 M6.67465004,4.56373622 L6.09489202,2.89879011 L5.21782219,2.89879011 L5.21782219,4.56373622 L4.37048354,4.56373622 L4.37048354,0 L6.19895115,0 C6.55572532,0 6.82330594,0.0594623612 7.00169303,0.163521493 C7.18008011,0.282446215 7.31387042,0.431102118 7.37333278,0.639220382 C7.43279514,0.847338646 7.46252632,1.11491927 7.46252632,1.44196226 C7.46252632,1.75413965 7.41792955,2.02172028 7.3436016,2.25956972 C7.26927365,2.49741917 7.12061775,2.66094066 6.8827683,2.76499979 L7.53685428,4.56373622 L6.67465004,4.56373622 Z" id="Shape"></path>
                <polygon id="Path" points="8.68150473 4.56373622 8.68150473 0 11.357311 0 11.357311 0.728413924 9.52884337 0.728413924 9.52884337 1.88792997 11.1045959 1.88792997 11.1045959 2.61634389 9.52884337 2.61634389 9.52884337 3.83532229 11.357311 3.83532229 11.357311 4.56373622"></polygon>
                <path d="M15.6534666,0 L15.6534666,2.54201594 C15.6534666,3.13663955 15.6237354,3.58260726 15.5494074,3.86505347 C15.4899451,4.14749969 15.3412892,4.34075236 15.1183053,4.45967709 C14.8953215,4.57860181 14.5534129,4.63806417 14.0628484,4.63806417 C13.5871495,4.63806417 13.2303754,4.57860181 13.0073915,4.45967709 C12.7844076,4.34075236 12.6506173,4.14749969 12.5762894,3.86505347 C12.516827,3.58260726 12.4722303,3.15150514 12.4722303,2.55688153 L12.4722303,0 L13.3195689,0 L13.3195689,2.80959656 C13.3195689,3.16637073 13.3344345,3.40422018 13.3641657,3.53801049 C13.3938968,3.6718008 13.4533592,3.76099434 13.5425528,3.8204567 C13.6317463,3.86505347 13.8101334,3.89478466 14.0479828,3.89478466 C14.2858323,3.89478466 14.4642194,3.86505347 14.5534129,3.8204567 C14.6426064,3.77585993 14.7020688,3.68666639 14.7318,3.53801049 C14.7615312,3.40422018 14.7615312,3.15150514 14.7615312,2.80959656 L14.7615312,0 L15.6534666,0 Z" id="Path"></path>
                <polygon id="Path" points="16.7386547 4.56373622 16.7386547 3.86505347 18.686047 0.728413924 16.8129826 0.728413924 16.8129826 0 19.6969071 0 19.6969071 0.683817153 17.7495148 3.83532229 19.7266383 3.83532229 19.7266383 4.56373622"></polygon>
                <g transform="translate(20.811826, 0.000000)">
                    <path d="M2.05145146,3.77585993 C2.140645,3.74612875 2.20010736,3.68666639 2.22983854,3.59747285 C2.25956972,3.50827931 2.27443531,3.38935459 2.27443531,3.22583309 C2.27443531,3.0623116 2.25956972,2.92852129 2.21497295,2.83932774 C2.18524177,2.7501342 2.12577941,2.69067184 2.03658587,2.66094066 C1.94739233,2.63120948 1.82846761,2.6014783 1.66494611,2.6014783 L0.862204237,2.6014783 L0.862204237,3.8204567 L1.66494611,3.8204567 C1.8433332,3.83532229 1.97712351,3.8204567 2.05145146,3.77585993 M2.11091382,1.76900524 C2.20010736,1.69467729 2.24470413,1.5311558 2.24470413,1.30817195 C2.24470413,1.14465045 2.22983854,1.02572573 2.20010736,0.936532188 C2.17037618,0.862204237 2.11091382,0.802741876 2.02172028,0.773010695 C1.93252674,0.743279514 1.81360202,0.728413924 1.65008052,0.728413924 L0.891935417,0.728413924 L0.891935417,1.88792997 L1.65008052,1.88792997 C1.87306438,1.88792997 2.02172028,1.8433332 2.11091382,1.76900524 M0.0445967709,0 L1.91766115,0 C2.31903208,0 2.61634389,0.0891935417 2.80959656,0.282446215 C3.00284924,0.475698889 3.09204278,0.758145105 3.09204278,1.14465045 C3.09204278,1.45682785 3.03258042,1.70954288 2.92852129,1.87306438 C2.80959656,2.03658587 2.63120948,2.15551059 2.39336004,2.21497295 L2.39336004,2.24470413 C2.66094066,2.30416649 2.85419334,2.42309122 2.97311806,2.58661271 C3.09204278,2.7501342 3.13663955,3.01771483 3.13663955,3.34475781 C3.13663955,3.73126316 3.04744601,4.04344056 2.85419334,4.25155882 C2.66094066,4.45967709 2.34876327,4.56373622 1.91766115,4.56373622 L0.0445967709,4.56373622 L0.0445967709,0 Z" id="Shape"></path>
                    <path d="M7.31387042,0 L7.31387042,2.54201594 C7.31387042,3.13663955 7.28413924,3.58260726 7.20981129,3.86505347 C7.15034893,4.14749969 7.00169303,4.34075236 6.77870917,4.45967709 C6.55572532,4.57860181 6.21381674,4.63806417 5.72325226,4.63806417 C5.24755337,4.63806417 4.8907792,4.57860181 4.66779535,4.45967709 C4.4448115,4.34075236 4.31102118,4.14749969 4.23669323,3.86505347 C4.17723087,3.58260726 4.1326341,3.15150514 4.1326341,2.55688153 L4.1326341,0 L4.97997275,0 L4.97997275,2.80959656 C4.97997275,3.16637073 4.99483834,3.40422018 5.02456952,3.53801049 C5.0543007,3.6718008 5.11376306,3.76099434 5.2029566,3.8204567 C5.29215014,3.86505347 5.47053723,3.89478466 5.70838667,3.89478466 C5.94623612,3.89478466 6.1246232,3.86505347 6.21381674,3.8204567 C6.30301028,3.77585993 6.36247264,3.68666639 6.39220382,3.53801049 C6.421935,3.40422018 6.421935,3.15150514 6.421935,2.80959656 L6.421935,0 L7.31387042,0 Z" id="Path"></path>
                </g>
                <polygon id="Path" points="31.7231697 4.56373622 30.1474171 1.6798117 30.1176859 1.6798117 30.1176859 4.56373622 29.3000785 4.56373622 29.3000785 0 30.1622827 0 31.6785729 2.73526861 31.7083041 2.73526861 31.7083041 0 32.5259115 0 32.5259115 4.56373622"></polygon>
                <path d="M35.2017178,3.83532229 C35.5287608,3.83532229 35.7368791,3.80559111 35.8558038,3.76099434 C35.9747285,3.71639757 36.0490564,3.59747285 36.0787876,3.38935459 C36.1085188,3.19610191 36.1233844,2.82446215 36.1233844,2.27443531 C36.1233844,1.72440847 36.1085188,1.35276872 36.0787876,1.15951604 C36.0490564,0.966263369 35.9747285,0.847338646 35.8558038,0.787876285 C35.7368791,0.743279514 35.5287608,0.713548334 35.2017178,0.713548334 L34.7111533,0.713548334 L34.7111533,3.8204567 L35.2017178,3.8204567 L35.2017178,3.83532229 Z M33.8786803,0 L35.2463146,0 C35.811207,0 36.2125779,0.0594623612 36.4504274,0.193252674 C36.6882768,0.327042986 36.8369327,0.52029566 36.8963951,0.817607466 C36.9558575,1.11491927 36.9855886,1.59061816 36.9855886,2.2893009 C36.9855886,2.97311806 36.9558575,3.46368254 36.8963951,3.76099434 C36.8369327,4.05830615 36.6882768,4.25155882 36.4504274,4.38534913 C36.2125779,4.50427386 35.811207,4.57860181 35.2463146,4.57860181 L33.8786803,4.57860181 L33.8786803,0 Z" id="Shape"></path>
            </g>
            <path d="M19.3847297,23.4430359 L22.9078746,26.2823636 L22.893009,28.4230086 L21.2429285,27.8432506 L22.4024446,43.0656151 L19.8158319,43.3629269 L19.4590577,49.4280877 L17.8833051,49.4280877 L17.8089772,43.6007763 L17.2440847,43.6602387 L17.1697568,49.4280877 L15.5196763,49.4280877 L15.2818268,43.8980881 L12.5019614,44.2251311 L14.0628484,29.9095677 L14.077714,29.2257505 L14.1074452,28.4378742 L14.1669075,26.2972292 L14.1817731,25.9553206 L13.9141925,25.7323368 L11.6248916,23.874138 L12.0708593,23.3687079 L15.4453483,23.7849445 L15.9210472,23.8592724 C16.3818805,24.2309122 16.9319073,24.453896 17.452203,24.4687616 C18.1211546,24.4687616 18.8495685,24.0822563 19.3847297,23.4430359 Z M13.4533592,26.2972292 L10.0342734,23.3984391 C9.4842466,24.0673907 8.74096709,24.4687616 8.04228435,24.4836272 C7.47739191,24.4687616 6.86790271,24.201181 6.37733823,23.7552133 L6.13948879,23.7998101 C6.13948879,23.7998101 3.86505347,24.0971219 3.59747285,25.435025 C3.5231449,25.7917991 3.35962341,28.4973366 3.35962341,31.3069331 C3.374489,34.2800512 3.62720403,37.045051 3.62720403,37.045051 L4.8907792,37.045051 L4.8907792,32.6448363 L5.23268778,27.5162076 L5.63405872,27.501342 L5.38134368,32.6597019 L5.39620927,37.5653467 L6.25841351,49.4578189 L8.02741876,49.4578189 L8.19094025,36.5247553 L8.54771442,36.5247553 L8.71123591,49.4578189 L10.4802412,49.4578189 L11.4762357,36.8220671 L11.6397572,32.7191642 L11.5356981,27.7986538 L13.3790313,28.4230086 L13.4533592,26.2972292 Z M19.4590577,21.2131973 C19.4590577,22.6254284 18.3144072,23.7700789 17.3927406,23.7849445 C16.4413429,23.7700789 15.311558,22.6254284 15.311558,21.2131973 C15.311558,20.0536813 16.2629558,19.0576867 17.3927406,19.0428212 C18.5076599,19.0576867 19.4590577,20.0536813 19.4590577,21.2131973 Z M10.049139,21.2131973 C10.049139,22.6254284 8.90448858,23.7700789 7.98282198,23.7849445 C7.03142421,23.7700789 5.90163934,22.6254284 5.90163934,21.2131973 C5.90163934,20.0536813 6.85303712,19.0576867 7.98282198,19.0428212 C9.09774126,19.0576867 10.049139,20.0536813 10.049139,21.2131973 Z M34.324648,23.4430359 L30.8015031,26.2823636 L30.8163687,28.4230086 L32.4664492,27.8432506 L31.3069331,43.0656151 L33.8935459,43.3629269 L34.25032,49.4280877 L35.8260726,49.4280877 L35.9004005,43.6007763 L36.465293,43.6602387 L36.5396209,49.4280877 L38.204567,49.4280877 L38.4424165,43.8980881 L41.2222819,44.2251311 L39.6613949,29.9095677 L39.6465293,29.2257505 L39.6167981,28.4378742 L39.5573358,26.2972292 L39.5424702,25.9553206 L39.8100508,25.7323368 L42.0993517,23.874138 L41.653384,23.3687079 L38.278895,23.7849445 L37.8031961,23.8592724 C37.3423628,24.2309122 36.792336,24.453896 36.2720403,24.4687616 C35.5882231,24.4687616 34.8746748,24.0822563 34.324648,23.4430359 Z M40.3303465,28.4230086 L42.1885452,27.7391915 L42.1290829,32.7191642 L42.2926044,36.8220671 L43.2885989,49.4578189 L45.0427386,49.4578189 L45.2062601,36.5247553 L45.5630342,36.5247553 L45.7265557,49.4578189 L47.495561,49.4578189 L48.3577652,37.5653467 L48.3726308,32.6597019 L48.1199158,27.501342 L48.5212867,27.5162076 L48.8631953,32.6448363 L48.8631953,37.045051 L50.1267705,37.045051 C50.1267705,37.045051 50.3794855,34.2800512 50.3943511,31.3069331 C50.4092167,28.4973366 50.2308296,25.7917991 50.1565016,25.435025 C49.888921,24.0971219 47.6144857,23.7998101 47.6144857,23.7998101 L47.3766362,23.7552133 C46.8860718,24.201181 46.2765826,24.4687616 45.7116901,24.4836272 C45.0130074,24.4687616 44.2548623,24.0673907 43.719701,23.3984391 L40.3006153,26.2972292 L40.3303465,28.4230086 Z M26.7729281,24.4836272 C26.2080357,24.4687616 25.6134121,24.2160466 25.1228476,23.7700789 L21.5551059,23.3835735 L21.0942726,23.9038692 L23.3984391,25.762068 L23.6660197,25.9701862 L23.6660197,26.2972292 L23.6511541,28.4378742 L23.6362886,29.3595408 L23.7552133,36.8220671 L24.7512078,49.4429533 L26.5202131,49.4429533 L26.6837346,36.8072016 L27.0999711,36.8072016 L27.2634926,49.4429533 L28.9879011,49.4429533 L29.9838956,36.8220671 L30.1028203,29.3595408 L30.0879547,28.4378742 L30.0730892,26.2972292 L30.0730892,25.9701862 L30.3406698,25.762068 L32.6448363,23.9038692 L32.184003,23.3835735 L28.6162613,23.7700789 C28.1256968,24.2160466 27.5310732,24.4687616 26.9661808,24.4836272 L26.7729281,24.4836272 Z M36.3315027,19.0428212 C37.4612875,19.0576867 38.4126853,20.0536813 38.4126853,21.2131973 C38.4126853,22.6254284 37.2680349,23.7700789 36.3315027,23.7849445 C35.3949705,23.7700789 34.2651856,22.6254284 34.2651856,21.2131973 C34.25032,20.0536813 35.2017178,19.0576867 36.3315027,19.0428212 Z M45.7414213,19.0428212 C46.8712062,19.0576867 47.822604,20.0536813 47.822604,21.2131973 C47.822604,22.6254284 46.6779535,23.7700789 45.7414213,23.7849445 C44.8048891,23.7700789 43.6751043,22.6254284 43.6751043,21.2131973 C43.6602387,20.0536813 44.6116365,19.0576867 45.7414213,19.0428212 Z M26.8621217,19.0428212 C27.9919065,19.0576867 28.9433043,20.0536813 28.9433043,21.2131973 C28.9433043,22.6254284 27.7986538,23.7700789 26.8621217,23.7849445 C25.9255895,23.7700789 24.7958046,22.6254284 24.7958046,21.2131973 C24.780939,20.0536813 25.7323368,19.0576867 26.8621217,19.0428212 Z" id="Shape"></path>
        </g>
    </g>
</svg>