<?xml version="1.0" encoding="UTF-8"?>
<svg aria-label="Logo Malteser" width="56px" height="56px" viewBox="0 0 56 56" version="1.1" xmlns="http://www.w3.org/2000/svg" xmlns:xlink="http://www.w3.org/1999/xlink">
    <title>Logo Malteser</title>
    <defs>
        <rect id="path-1" x="3.90798505e-14" y="0" width="55" height="55"></rect>
    </defs>
    <g id="------00.28-Malteserlogo" stroke="none" stroke-width="1" fill="none" fill-rule="evenodd">
        <g id="Caritas_Malteserlogo_Desktop" transform="translate(-562.000000, -762.000000)">
            <g id="MALTESER" transform="translate(562.229517, 762.535353)">
                <mask id="mask-2" fill="white">
                    <use xlink:href="#path-1"></use>
                </mask>
                <g id="Mask"></g>
                <g id="Group-4" transform="translate(9.021993, 12.844971)" fill-rule="nonzero">
                    <path d="M36.9302121,0.787260819 L36.9302121,19.0993425 C36.8788645,30.0413619 29.2172167,39.4721054 18.5176651,41.7633978 C7.81811358,39.4721054 0.156465788,30.0413619 0.105118148,19.0993425 L0.105118148,0.787260819 L36.9302121,0.787260819 Z" id="Path" fill="#FFFFFF"></path>
                    <path d="M35.7748614,1.84214632 L35.7748614,19.0993425 C35.7206634,29.3988132 28.5652946,38.2980545 18.5176651,40.562381 C8.47287744,38.293499 1.31972632,29.3970158 1.26046894,19.0993425 L1.26046894,1.84214632 L35.7748614,1.84214632 Z" id="Path" fill="#CC1E1C"></path>
                    <polygon id="Path" fill="#FFFFFF" points="5.50284398 13.802082 18.5176651 19.1998078 5.50284398 24.5838338 10.9005698 19.1906746 5.50284398 13.802082 5.50284398 13.802082"></polygon>
                    <polygon id="Path" fill="#FFFFFF" points="13.1199393 32.214629 18.5176651 19.1998078 23.9016912 32.214629 18.5085319 26.8169032 13.1199393 32.214629 13.1199393 32.214629"></polygon>
                    <polygon id="Path" fill="#FFFFFF" points="31.5370529 24.5975337 18.5176651 19.1998078 31.5370529 13.8157818 26.1393271 19.208941 31.5370529 24.5975337 31.5370529 24.5975337"></polygon>
                    <polygon id="Path" fill="#FFFFFF" points="23.915391 6.18498665 18.5176651 19.1998078 13.1336391 6.18498665 18.531365 11.5781459 23.915391 6.18498665 23.915391 6.18498665"></polygon>
                </g>
                <g id="Group-8" transform="translate(9.021993, 0.754040)" fill="#FFFFFF" fill-rule="nonzero">
                    <path d="M7.38368454,0.619495888 L5.9871017,0.619495888 L5.9246087,0.770294229 C5.65289998,1.42918788 4.56606508,4.43836198 3.90852998,6.52372643 C3.64497251,5.7221857 3.22925817,4.62176537 2.81490237,3.55802572 C2.37337569,2.40733928 1.9563028,1.32050439 1.81365572,0.800182188 L1.76474815,0.619495888 L0.084229704,0.619495888 L0.108683489,0.89120461 C0.148562762,1.32472966 0.164436674,1.76012839 0.156232516,2.19540648 L0.0584173754,5.83222773 C0.0407563084,6.22620538 0.0217366978,6.89868447 0,7.88498713 L0,8.1363177 L1.29333352,8.1363177 L1.29333352,7.36738202 C1.29333352,7.08208786 1.29333352,6.86472088 1.29333352,6.66365642 C1.29333352,6.3919477 1.29333352,6.16371237 1.30556041,5.84853026 C1.30556041,5.84853026 1.32186294,3.96287172 1.33408983,2.71029451 C2.01336163,4.42477655 2.98743741,7.05763407 3.17355788,7.93661179 L3.21838982,8.13903479 L4.57693343,8.13903479 L4.62991663,7.96378266 C5.13121923,6.32130343 5.82543501,4.22235355 6.44628945,2.64508442 C6.46938469,3.88000056 6.50470682,5.84445462 6.50470682,5.84445462 L6.52236789,6.51149954 C6.53459478,6.9027601 6.54818022,7.3076061 6.53731187,7.88770422 L6.53731187,8.13767624 L7.80347452,8.13767624 L7.79260617,7.8809115 C7.76135966,7.1676761 7.75049131,6.48025304 7.74098151,5.84309608 L7.647242,0.630364237 L7.38368454,0.619495888 Z" id="Path"></path>
                    <path d="M9.91057566,6.40689168 C9.91057566,5.6909392 10.4825225,5.26299796 11.4389372,5.26299796 C11.5981995,5.26498805 11.7569297,5.28181618 11.9130689,5.31326407 L11.9130689,5.77652744 C11.9130689,6.56991691 11.3696515,7.21522513 10.6903797,7.21522513 C10.4776743,7.21811187 10.2732444,7.13290787 10.1255511,6.97981114 C9.97785774,6.82671441 9.90005113,6.61935617 9.91057566,6.40689168 L9.91057566,6.40689168 Z M9.50301258,2.58394995 L9.29651395,2.61927209 L9.29651395,3.77675125 L9.70407703,3.68572882 C10.0038432,3.60695651 10.3113649,3.56139774 10.621094,3.54987446 C11.6522286,3.54987446 11.8655199,3.93705939 11.9103519,4.30114908 C11.7935171,4.29028073 11.6739653,4.27941238 11.5571305,4.27941238 C9.84400702,4.27941238 8.73679398,5.12442651 8.73679398,6.42998692 C8.73679398,7.51682181 9.50844675,8.30341856 10.5708279,8.30341856 C11.104132,8.29420992 11.6130652,8.07846122 11.9905059,7.70158374 C11.995406,7.77951745 12.0049326,7.85709114 12.0190353,7.9338947 L12.0570746,8.13495916 L13.1670047,8.13495916 L13.1316826,7.86325043 C13.0643033,7.17256983 13.0388971,6.47843698 13.0556041,5.78467871 L13.0556041,4.62040683 C13.0556041,3.69795572 12.8042736,2.47119083 10.6306038,2.47119083 C10.2529958,2.48105073 9.87680723,2.52148646 9.50572966,2.59210121 L9.50301258,2.58394995 Z" id="Shape"></path>
                    <path d="M14.2253102,0.150798341 L14.2361785,0.369523863 C14.2755763,1.17106459 14.2891617,2.05955212 14.2891617,2.62470626 L14.2891617,6.24386645 C14.2891617,6.77233991 14.2810105,7.31983299 14.2647079,7.87411878 L14.2579152,8.12816644 L15.5553244,8.12816644 L15.5200022,7.85645772 C15.4536241,7.32379755 15.4214061,6.78743503 15.4235456,6.25065916 L15.4235456,1.94000028 C15.4235456,1.28789935 15.4371311,0.806974906 15.4724532,0.279859984 L15.4914728,-7.72242637e-15 L14.2253102,0.150798341 Z" id="Path"></path>
                    <path d="M18.1202547,1.49032234 L17.1978036,1.65198903 L17.2317672,1.88837562 C17.2406075,1.96594296 17.2446907,2.04397876 17.2439941,2.12204512 C17.2439941,2.25789949 17.2358428,2.41956618 17.2290501,2.55813762 L17.2290501,2.63014044 L16.3962629,2.63014044 L16.2848623,3.74142911 L16.6285738,3.71018261 C16.8472993,3.68844591 17.0008148,3.67486047 17.2208988,3.6694263 L17.2208988,6.37700372 C17.2208988,7.16224193 17.4273975,7.68935685 17.8526216,7.98959499 C18.238448,8.26130371 18.7438262,8.29934293 19.2329019,8.29934293 L19.4787983,8.29934293 L19.4787983,7.21250804 L19.2329019,7.21250804 C18.8497926,7.21250804 18.6487282,7.17175173 18.5373276,7.06986096 C18.425927,6.96797019 18.3552828,6.70848836 18.3552828,6.2954911 L18.3552828,3.66535067 L19.3062633,3.66535067 L19.4163053,2.55677908 L19.0766694,2.5853085 C18.8294145,2.60704519 18.6460111,2.62198917 18.3566413,2.62742335 C18.363434,2.35571463 18.3810951,2.0840059 18.410983,1.75659689 L18.4422296,1.43462206 L18.1229718,1.49032234 L18.1202547,1.49032234 Z" id="Path"></path>
                    <path d="M22.4254794,3.54715737 C23.1047512,3.54715737 23.3669501,4.05796977 23.4661238,4.4981379 L21.2625661,4.4981379 C21.3617398,4.10416026 21.6701292,3.54715737 22.4254794,3.54715737 Z M20.0385183,5.06600913 C20.0385183,6.12974878 20.3754371,6.99514107 21.0125941,7.56708793 C21.5667876,8.05125759 22.2806271,8.31307941 23.0164459,8.30206002 C23.350627,8.295317 23.6838846,8.264443 24.0136169,8.20967906 L24.2785329,8.17163983 L24.2785329,7.08480494 L23.9945973,7.12963688 C23.6945125,7.18448094 23.3906696,7.21627316 23.0857316,7.22473494 C21.727188,7.22473494 21.3644569,6.32809615 21.2516977,5.53878231 L24.6738691,5.53878231 L24.6833789,5.29152737 L24.6833789,5.17333408 L24.6833789,5.02525283 C24.6830372,4.45147612 24.5190294,3.88970215 24.2106057,3.40586884 C23.8177868,2.79976224 23.1379955,2.44159816 22.4159696,2.46032248 C20.6715996,2.46032248 20.0385183,4.01721346 20.0385183,5.06329205 L20.0385183,5.06600913 Z" id="Shape"></path>
                    <path d="M25.3938972,3.90173726 C25.3938972,4.7752808 26.1343035,5.26028087 26.787763,5.67735376 L26.8421047,5.71131735 C27.3556342,6.04416054 27.8392757,6.35934265 27.8392757,6.7315836 C27.8392757,6.91091136 27.6735334,7.21522513 27.0499619,7.21522513 C26.734129,7.19734261 26.4227474,7.1323188 26.1261522,7.02231194 L25.5691493,6.85249399 L25.5691493,7.18533717 L25.5691493,8.01133169 L25.74576,8.06295635 C26.1728435,8.20442553 26.6179794,8.28402846 27.067623,8.29934293 C27.9452421,8.29934293 28.969584,7.88362859 28.969584,6.71256399 C28.969584,5.81184958 28.2658584,5.31869825 27.7007043,4.92200351 L27.5648499,4.82554691 L27.2442336,4.60410431 C26.8747098,4.35413228 26.5255641,4.11910424 26.5255641,3.91260561 C26.5255641,3.58247951 27.0689815,3.54715737 27.3040095,3.54715737 C27.574408,3.55463168 27.8435826,3.58645976 28.1082674,3.64225543 L28.3989957,3.69388008 L28.3989957,2.60704519 L28.2020069,2.56628889 C27.8938721,2.50004697 27.5797772,2.465451 27.2646118,2.46303957 C26.5119786,2.46303957 25.3911801,2.84614887 25.3911801,3.90173726 L25.3938972,3.90173726 Z" id="Path"></path>
                    <path d="M31.9651727,3.54715737 C32.6444445,3.54715737 32.9080019,4.05796977 33.0071756,4.4981379 L30.8036179,4.4981379 C30.9027916,4.10416026 31.211181,3.54715737 31.9651727,3.54715737 Z M29.5795701,5.06600913 C29.5795701,6.12974878 29.9164889,6.99514107 30.5536459,7.56708793 C31.1078394,8.05125759 31.8216789,8.31307941 32.5574977,8.30206002 C32.8921258,8.29525506 33.2258305,8.26438169 33.5560272,8.20967906 L33.8195847,8.17163983 L33.8195847,7.08480494 L33.5356491,7.12963688 C33.2355643,7.18448094 32.9317214,7.21627316 32.6267834,7.22473494 C31.2682398,7.22473494 30.9055087,6.32809615 30.7927495,5.53878231 L34.2149209,5.53878231 L34.2244307,5.29152737 L34.2244307,5.17333408 L34.2244307,5.02525283 C34.224089,4.45147612 34.0600812,3.88970215 33.7516575,3.40586884 C33.3585839,2.79934255 32.678167,2.44112004 31.9556629,2.46032248 C30.2126514,2.46032248 29.5795701,4.01721346 29.5795701,5.06329205 L29.5795701,5.06600913 Z" id="Shape"></path>
                    <path d="M37.7702295,2.46032248 C37.1778812,2.46820816 36.6133232,2.71281732 36.2024702,3.13959429 C36.2024702,3.05944022 36.21198,2.97928614 36.21198,2.90456625 C36.21198,2.86743272 36.21198,2.83211059 36.21198,2.79859984 L36.1983946,2.5418351 L34.9933664,2.66274548 L35.0327642,2.91951023 C35.1359061,3.67469123 35.2002949,4.4346601 35.2256774,5.19642932 L35.2256774,6.2547348 C35.2256774,6.72614943 35.2175261,7.2858694 35.2039407,7.91623363 L35.2039407,8.16620566 L36.4076103,8.13903479 L36.3858736,7.88362859 C36.3487519,7.47717807 36.3392203,7.06867891 36.3573442,6.66093934 L36.3573442,6.25337625 L36.3573442,4.94917438 C36.3573442,3.67350193 37.4441791,3.55666718 37.7770223,3.55123301 L38.018843,3.55123301 L38.018843,2.46439811 L37.7702295,2.46032248 Z" id="Path"></path>
                </g>
            </g>
        </g>
    </g>
</svg>