<svg xmlns="http://www.w3.org/2000/svg" width="24" height="24" viewBox="0 0 72 72">
  <path d="M37.7654935,7.31698782 L67.4353219,63.0603018 C67.9543029,64.035357 67.5845817,65.2465126 66.6095266,65.7654935 C66.3202373,65.9194701 65.9975433,66 65.6698284,66 L6.33017157,66 C5.22560207,66 4.33017157,65.1045695 4.33017157,64 C4.33017157,63.6722851 4.41070152,63.3495911 4.56467805,63.0603018 L34.2345065,7.31698782 C34.7534874,6.34193268 35.964643,5.9722115 36.9396982,6.49119247 C37.29099,6.67817038 37.5785156,6.96569598 37.7654935,7.31698782 Z M39,46 L39,26 L33,26 L33,46 L39,46 Z M39,56.4 L39,50.4 L33,50.4 L33,56.4 L39,56.4 Z"/>
</svg>
