<svg xmlns="http://www.w3.org/2000/svg" viewBox="0 0 469.333 469.333"><path d="M170.667 0h-128C19.135 0 0 19.135 0 42.667v128c0 23.531 19.135 42.667 42.667 42.667h128c23.531 0 42.667-19.135 42.667-42.667v-128C213.333 19.135 194.198 0 170.667 0zM426.667 0h-128C275.135 0 256 19.135 256 42.667v128c0 23.531 19.135 42.667 42.667 42.667h128c23.531 0 42.667-19.135 42.667-42.667v-128C469.333 19.135 450.198 0 426.667 0zM170.667 256h-128C19.135 256 0 275.135 0 298.667v128c0 23.531 19.135 42.667 42.667 42.667h128c23.531 0 42.667-19.135 42.667-42.667v-128C213.333 275.135 194.198 256 170.667 256zM416 341.333h-32v-32a10.66 10.66 0 00-10.667-10.667H352a10.66 10.66 0 00-10.667 10.667v32h-32A10.66 10.66 0 00298.666 352v21.333A10.66 10.66 0 00309.333 384h32v32A10.66 10.66 0 00352 426.667h21.333A10.66 10.66 0 00384 416v-32h32a10.66 10.66 0 0010.667-10.667V352A10.66 10.66 0 00416 341.333z"/></svg>