<svg xmlns="http://www.w3.org/2000/svg" width="24" height="24" viewBox="0 0 72 72">
  <path d="M60.3332973,42.5029759 L37.3920571,65.4130505 C37.0007575,65.8043502 36.5367384,66 36,66 C35.4632616,66 34.9992425,65.8043502 34.6079429,65.4130505 L11.6667027,42.5029759 C11.2754031,42.1116762 11.0797533,41.6424629 11.0797533,41.095336 C11.0797533,40.5482091 11.2754031,40.0789958 11.6667027,39.6876961 L16.7986149,34.5869495 C17.1899145,34.1956498 17.6539336,34 18.190672,34 C18.7274105,34 19.1914295,34.1956498 19.5827291,34.5869495 L36,51.0042203 L52.4172709,34.5869495 C52.8085705,34.1956498 53.2725895,34 53.809328,34 C54.3460664,34 54.8100855,34.1956498 55.2013851,34.5869495 L60.3332973,39.6876961 C60.7245969,40.0789958 60.9202467,40.5482091 60.9202467,41.095336 C60.9202467,41.6424629 60.7245969,42.1116762 60.3332973,42.5029759 Z M60.3332973,20.5029759 L37.3920571,43.4130505 C37.0007575,43.8043502 36.5367384,44 36,44 C35.4632616,44 34.9992425,43.8043502 34.6079429,43.4130505 L11.6667027,20.5029759 C11.2754031,20.1116762 11.0797533,19.6424629 11.0797533,19.095336 C11.0797533,18.5482091 11.2754031,18.0789958 11.6667027,17.6876961 L16.7986149,12.5869495 C17.1899145,12.1956498 17.6539336,12 18.190672,12 C18.7274105,12 19.1914295,12.1956498 19.5827291,12.5869495 L36,29.0042203 L52.4172709,12.5869495 C52.8085705,12.1956498 53.2725895,12 53.809328,12 C54.3460664,12 54.8100855,12.1956498 55.2013851,12.5869495 L60.3332973,17.6876961 C60.7245969,18.0789958 60.9202467,18.5482091 60.9202467,19.095336 C60.9202467,19.6424629 60.7245969,20.1116762 60.3332973,20.5029759 Z"/>
</svg>
