<svg xmlns="http://www.w3.org/2000/svg" xmlns:xlink="http://www.w3.org/1999/xlink" width="24" height="24" viewBox="0 0 72 72">
  <defs>
    <path id="arrow-up-a" d="M65.5548531,45.0252206 C66.0259154,45.4962829 66.2614465,46.0611408 66.2614465,46.7197943 C66.2614465,47.3784479 66.0259154,47.9433058 65.5548531,48.4143681 L59.3768499,54.5548531 C58.9057875,55.0259154 58.3471827,55.2614465 57.7010352,55.2614465 C57.0548878,55.2614465 56.4962829,55.0259154 56.0252206,54.5548531 L36.2614465,34.791079 L16.4976725,54.5548531 C16.0266102,55.0259154 15.4680053,55.2614465 14.8218578,55.2614465 C14.1757104,55.2614465 13.6171055,55.0259154 13.1460432,54.5548531 L6.96804002,48.4143681 C6.4969777,47.9433058 6.26144654,47.3784479 6.26144654,46.7197943 C6.26144654,46.0611408 6.4969777,45.4962829 6.96804002,45.0252206 L34.5856319,17.4451469 C35.0566942,16.9740846 35.6152991,16.7385535 36.2614465,16.7385535 C36.907594,16.7385535 37.4661988,16.9740846 37.9372612,17.4451469 L65.5548531,45.0252206 Z"/>
  </defs>
  <use xlink:href="#arrow-up-a"/>
</svg>
