<svg width="24" height="19" xmlns="http://www.w3.org/2000/svg" xmlns:xlink="http://www.w3.org/1999/xlink"><defs><path d="M15.723 14.07C9.099 13.403 2.815 15.552.24 20.667c.787-6.973 6.376-12.64 15.579-13.307l-1.964-1.964a.61.61 0 0 1-.188-.447.61.61 0 0 1 .188-.446l1.638-1.648a.616.616 0 0 1 .451-.188c.176 0 .327.062.452.188l7.355 7.365a.61.61 0 0 1 .188.447.61.61 0 0 1-.188.447l-7.355 7.364a.616.616 0 0 1-.452.189.616.616 0 0 1-.451-.189l-1.638-1.647a.61.61 0 0 1-.188-.447.61.61 0 0 1 .188-.447l1.868-1.867z" id="a"/></defs><use fill="#000" fill-rule="nonzero" xlink:href="#a" transform="translate(0 -2)"/></svg>