<svg width="16" height="22" viewBox="0 0 16 22" fill="none" xmlns="http://www.w3.org/2000/svg">
<path d="M11.9799 7.927L11.9807 10.4252C11.9807 12.5148 10.34 14.2211 8.27645 14.3258L8.07547 14.3308C7.35832 14.3308 6.68636 14.1376 6.10881 13.8003L11.9799 7.927ZM8.07547 0C10.0949 0 11.7561 1.53265 11.9597 3.49817L4.24865 11.2093C4.19703 10.956 4.16992 10.6938 4.16992 10.4252V3.90552C4.16992 1.74857 5.91823 0 8.07547 0Z" fill="white"/>
<path d="M11.1113 21.1644H5.20025C4.67555 21.1644 4.25024 20.7391 4.25024 20.2147C4.25024 19.69 4.67555 19.2647 5.20025 19.2647H11.1113C11.6357 19.2647 12.0611 19.69 12.0611 20.2147C12.0611 20.7391 11.6357 21.1644 11.1113 21.1644Z" fill="white"/>
<path d="M7.20581 20.7888H9.10553V16.1268H7.20581V20.7888Z" fill="white"/>
<path d="M14.4944 10.2181C15.0632 10.2181 15.5125 10.7197 15.4438 11.2847C14.9419 15.4156 11.5298 17.5693 8.15595 17.5693C6.58669 17.5693 5.00914 17.1034 3.71998 16.1893L5.08811 14.8204C6.01191 15.3938 7.10011 15.6696 8.15595 15.6696C10.5792 15.6696 13.1726 14.2166 13.5581 11.0482C13.6157 10.5752 14.0176 10.2181 14.4944 10.2181ZM1.81751 10.2181C2.29426 10.2181 2.6959 10.5752 2.75348 11.0482C2.81236 11.5321 2.92275 11.9759 3.07615 12.3807L1.63969 13.818C1.25248 13.0795 0.983242 12.2344 0.867793 11.2847C0.7991 10.7197 1.24838 10.2181 1.81751 10.2181Z" fill="white"/>
<path d="M14.2929 1.97545C14.6834 1.58493 15.3166 1.58493 15.7071 1.97545C16.0676 2.33593 16.0953 2.90316 15.7903 3.29546L15.7071 3.38966L1.70711 17.3897C1.31658 17.7802 0.683417 17.7802 0.292893 17.3897C-0.0675908 17.0292 -0.0953203 16.4619 0.209705 16.0697L0.292893 15.9754L14.2929 1.97545Z" fill="white"/>
</svg>
