<svg width="15" height="22" viewBox="0 0 15 22" fill="none" xmlns="http://www.w3.org/2000/svg">
<path fill-rule="evenodd" clip-rule="evenodd" d="M7.21463 14.3308C5.05765 14.3308 3.30908 12.5822 3.30908 10.4252V3.90552C3.30908 1.74857 5.05765 0 7.21463 0C9.37158 0 11.1202 1.74857 11.1202 3.90552V10.4252C11.1202 12.5822 9.37158 14.3308 7.21463 14.3308Z" fill="white"/>
<path fill-rule="evenodd" clip-rule="evenodd" d="M13.6333 10.2181C14.2024 10.2181 14.6516 10.7197 14.5829 11.2847C14.1281 15.0274 11.2845 17.147 8.24479 17.5124L8.244 19.2641L10.2504 19.2647C10.7751 19.2647 11.2004 19.6901 11.2004 20.2148C11.2004 20.7392 10.7751 21.1645 10.2504 21.1645H4.33944C3.81483 21.1645 3.38955 20.7392 3.38955 20.2148C3.38955 19.6901 3.81483 19.2647 4.33944 19.2647L6.345 19.2641L6.34512 17.5124C3.30546 17.147 0.461774 15.0274 0.00694363 11.2847C-0.0571151 10.7573 0.329885 10.2853 0.844444 10.2247L0.95657 10.2181C1.43318 10.2181 1.83505 10.5752 1.89263 11.0482C2.27816 14.2166 4.87168 15.6696 7.29496 15.6696C9.7182 15.6696 12.3117 14.2166 12.6973 11.0482C12.7549 10.5752 13.1567 10.2181 13.6333 10.2181Z" fill="white"/>
</svg>
