<svg width="20px" height="20px" version="1.1" viewBox="0 0 20 20" xmlns="http://www.w3.org/2000/svg">
 <g id="------00.15-Chat---Berater" fill="none" fill-rule="evenodd">
  <g transform="translate(-824 -374)" fill="#8C878C" fill-rule="nonzero">
   <g id="Chat" transform="translate(544 134)">
    <g id="forms/field/activated-copy" transform="translate(24 226)">
     <path id="appointments" d="m272.33 16h3c0.36819 0 0.66667 0.29848 0.66667 0.66667v16.667c0 0.36819-0.29848 0.66667-0.66667 0.66667h-18.667c-0.36819 0-0.66667-0.29848-0.66667-0.66667v-16.667c0-0.36819 0.29848-0.66667 0.66667-0.66667h3v-1.3333c0-0.36819 0.29847-0.66667 0.66666-0.66667h2.6667c0.36819 0 0.66667 0.29848 0.66667 0.66667v1.3333h4.6667v-1.3333c0-0.36819 0.29848-0.66667 0.66667-0.66667h2.6667c0.36819 0 0.66666 0.29848 0.66666 0.66667zm-13 5.3333c-0.36819 0-0.66666 0.29848-0.66666 0.66667v8.6667c0 0.36819 0.29847 0.66667 0.66666 0.66667h13.333c0.36819 0 0.66666-0.29848 0.66666-0.66667v-8.6667c0-0.36819-0.29847-0.66667-0.66666-0.66667zm6.5455 3.6667h4.9091c0.30125 0 0.54545 0.21993 0.54545 0.49123v3.6842c0 0.2713-0.2442 0.49123-0.54545 0.49123h-4.9091c-0.30125 0-0.54546-0.21993-0.54546-0.49123v-3.6842c0-0.2713 0.24421-0.49123 0.54546-0.49123z"/>
    </g>
   </g>
  </g>
 </g>
</svg>
