<svg width="32" height="32" viewBox="0 0 24 24" xmlns="http://www.w3.org/2000/svg">
<path d="M11.5 13.7C11.25 13.7 11.0417 13.6125 10.875 13.4375C10.7083 13.2625 10.625 13.0583 10.625 12.825C10.625 12.575 10.7083 12.3625 10.875 12.1875C11.0417 12.0125 11.25 11.925 11.5 11.925C11.75 11.925 11.9583 12.0125 12.125 12.1875C12.2917 12.3625 12.375 12.575 12.375 12.825C12.375 13.0583 12.2917 13.2625 12.125 13.4375C11.9583 13.6125 11.75 13.7 11.5 13.7ZM7.5 13.7C7.25 13.7 7.04167 13.6125 6.875 13.4375C6.70833 13.2625 6.625 13.0583 6.625 12.825C6.625 12.575 6.70833 12.3625 6.875 12.1875C7.04167 12.0125 7.25 11.925 7.5 11.925C7.75 11.925 7.95833 12.0125 8.125 12.1875C8.29167 12.3625 8.375 12.575 8.375 12.825C8.375 13.0583 8.29167 13.2625 8.125 13.4375C7.95833 13.6125 7.75 13.7 7.5 13.7ZM15.5 13.7C15.25 13.7 15.0417 13.6125 14.875 13.4375C14.7083 13.2625 14.625 13.0583 14.625 12.825C14.625 12.575 14.7083 12.3625 14.875 12.1875C15.0417 12.0125 15.25 11.925 15.5 11.925C15.75 11.925 15.9583 12.0125 16.125 12.1875C16.2917 12.3625 16.375 12.575 16.375 12.825C16.375 13.0583 16.2917 13.2625 16.125 13.4375C15.9583 13.6125 15.75 13.7 15.5 13.7ZM11.5 17.625C11.25 17.625 11.0417 17.5375 10.875 17.3625C10.7083 17.1875 10.625 16.9833 10.625 16.75C10.625 16.5 10.7083 16.2875 10.875 16.1125C11.0417 15.9375 11.25 15.85 11.5 15.85C11.75 15.85 11.9583 15.9375 12.125 16.1125C12.2917 16.2875 12.375 16.5 12.375 16.75C12.375 16.9833 12.2917 17.1875 12.125 17.3625C11.9583 17.5375 11.75 17.625 11.5 17.625ZM7.5 17.625C7.25 17.625 7.04167 17.5375 6.875 17.3625C6.70833 17.1875 6.625 16.9833 6.625 16.75C6.625 16.5 6.70833 16.2875 6.875 16.1125C7.04167 15.9375 7.25 15.85 7.5 15.85C7.75 15.85 7.95833 15.9375 8.125 16.1125C8.29167 16.2875 8.375 16.5 8.375 16.75C8.375 16.9833 8.29167 17.1875 8.125 17.3625C7.95833 17.5375 7.75 17.625 7.5 17.625ZM15.5 17.625C15.25 17.625 15.0417 17.5375 14.875 17.3625C14.7083 17.1875 14.625 16.9833 14.625 16.75C14.625 16.5 14.7083 16.2875 14.875 16.1125C15.0417 15.9375 15.25 15.85 15.5 15.85C15.75 15.85 15.9583 15.9375 16.125 16.1125C16.2917 16.2875 16.375 16.5 16.375 16.75C16.375 16.9833 16.2917 17.1875 16.125 17.3625C15.9583 17.5375 15.75 17.625 15.5 17.625ZM4.45 21.125C4.05 21.125 3.70833 20.9833 3.425 20.7C3.14167 20.4167 3 20.075 3 19.675V5.2C3 4.81667 3.14167 4.47917 3.425 4.1875C3.70833 3.89583 4.05 3.75 4.45 3.75H6.3V2.625C6.3 2.45833 6.35833 2.3125 6.475 2.1875C6.59167 2.0625 6.73333 2 6.9 2C7.08333 2 7.2375 2.0625 7.3625 2.1875C7.4875 2.3125 7.55 2.45833 7.55 2.625V3.75H15.5V2.625C15.5 2.44167 15.5542 2.29167 15.6625 2.175C15.7708 2.05833 15.9167 2 16.1 2C16.2667 2 16.4125 2.05833 16.5375 2.175C16.6625 2.29167 16.725 2.44167 16.725 2.625V3.75H18.55C18.95 3.75 19.2917 3.89583 19.575 4.1875C19.8583 4.47917 20 4.81667 20 5.2V19.675C20 20.075 19.8583 20.4167 19.575 20.7C19.2917 20.9833 18.95 21.125 18.55 21.125H4.45ZM4.45 20H18.55C18.65 20 18.7292 19.9708 18.7875 19.9125C18.8458 19.8542 18.875 19.775 18.875 19.675V9.75H4.125V19.675C4.125 19.775 4.15417 19.8542 4.2125 19.9125C4.27083 19.9708 4.35 20 4.45 20ZM4.125 8.625H18.875V5.2C18.875 5.11667 18.8458 5.04583 18.7875 4.9875C18.7292 4.92917 18.65 4.9 18.55 4.9H4.45C4.35 4.9 4.27083 4.92917 4.2125 4.9875C4.15417 5.04583 4.125 5.11667 4.125 5.2V8.625ZM4.125 8.625V4.9V8.625Z" />
</svg>
