<svg width="24" height="23" viewBox="0 0 24 23" fill="none" xmlns="http://www.w3.org/2000/svg">
<path d="M10 14.2C9.68518 14.2 9.4213 14.0946 9.20833 13.8837C8.99537 13.6729 8.88889 13.4117 8.88889 13.1C8.88889 12.7883 8.99537 12.5271 9.20833 12.3162C9.4213 12.1054 9.68518 12 10 12C10.3148 12 10.5787 12.1054 10.7917 12.3162C11.0046 12.5271 11.1111 12.7883 11.1111 13.1C11.1111 13.4117 11.0046 13.6729 10.7917 13.8837C10.5787 14.0946 10.3148 14.2 10 14.2ZM5.55556 14.2C5.24074 14.2 4.97685 14.0946 4.76389 13.8837C4.55093 13.6729 4.44444 13.4117 4.44444 13.1C4.44444 12.7883 4.55093 12.5271 4.76389 12.3162C4.97685 12.1054 5.24074 12 5.55556 12C5.87037 12 6.13426 12.1054 6.34722 12.3162C6.56018 12.5271 6.66667 12.7883 6.66667 13.1C6.66667 13.4117 6.56018 13.6729 6.34722 13.8837C6.13426 14.0946 5.87037 14.2 5.55556 14.2ZM14.4444 14.2C14.1296 14.2 13.8657 14.0946 13.6528 13.8837C13.4398 13.6729 13.3333 13.4117 13.3333 13.1C13.3333 12.7883 13.4398 12.5271 13.6528 12.3162C13.8657 12.1054 14.1296 12 14.4444 12C14.7593 12 15.0231 12.1054 15.2361 12.3162C15.4491 12.5271 15.5556 12.7883 15.5556 13.1C15.5556 13.4117 15.4491 13.6729 15.2361 13.8837C15.0231 14.0946 14.7593 14.2 14.4444 14.2ZM10 18.6C9.68518 18.6 9.4213 18.4946 9.20833 18.2838C8.99537 18.0729 8.88889 17.8117 8.88889 17.5C8.88889 17.1883 8.99537 16.9271 9.20833 16.7162C9.4213 16.5054 9.68518 16.4 10 16.4C10.3148 16.4 10.5787 16.5054 10.7917 16.7162C11.0046 16.9271 11.1111 17.1883 11.1111 17.5C11.1111 17.8117 11.0046 18.0729 10.7917 18.2838C10.5787 18.4946 10.3148 18.6 10 18.6ZM5.55556 18.6C5.24074 18.6 4.97685 18.4946 4.76389 18.2838C4.55093 18.0729 4.44444 17.8117 4.44444 17.5C4.44444 17.1883 4.55093 16.9271 4.76389 16.7162C4.97685 16.5054 5.24074 16.4 5.55556 16.4C5.87037 16.4 6.13426 16.5054 6.34722 16.7162C6.56018 16.9271 6.66667 17.1883 6.66667 17.5C6.66667 17.8117 6.56018 18.0729 6.34722 18.2838C6.13426 18.4946 5.87037 18.6 5.55556 18.6ZM14.4444 18.6C14.1296 18.6 13.8657 18.4946 13.6528 18.2838C13.4398 18.0729 13.3333 17.8117 13.3333 17.5C13.3333 17.1883 13.4398 16.9271 13.6528 16.7162C13.8657 16.5054 14.1296 16.4 14.4444 16.4C14.7593 16.4 15.0231 16.5054 15.2361 16.7162C15.4491 16.9271 15.5556 17.1883 15.5556 17.5C15.5556 17.8117 15.4491 18.0729 15.2361 18.2838C15.0231 18.4946 14.7593 18.6 14.4444 18.6ZM1.66667 23C1.22222 23 0.833333 22.835 0.5 22.505C0.166667 22.175 0 21.79 0 21.35V4.3C0 3.86 0.166667 3.475 0.5 3.145C0.833333 2.815 1.22222 2.65 1.66667 2.65H3.47222V1.88C3.47222 1.62333 3.55556 1.4125 3.72222 1.2475C3.88889 1.0825 4.10185 1 4.36111 1C4.62037 1 4.83796 1.0825 5.01389 1.2475C5.18981 1.4125 5.27778 1.62333 5.27778 1.88V2.65H14.7222V1.88C14.7222 1.62333 14.8056 1.4125 14.9722 1.2475C15.1389 1.0825 15.3519 1 15.6111 1C15.8704 1 16.088 1.0825 16.2639 1.2475C16.4398 1.4125 16.5278 1.62333 16.5278 1.88V2.65H18.3333C18.7778 2.65 19.1667 2.815 19.5 3.145C19.8333 3.475 20 3.86 20 4.3V21.35C20 21.79 19.8333 22.175 19.5 22.505C19.1667 22.835 18.7778 23 18.3333 23H1.66667ZM1.66667 21.35H18.3333V9.525H1.66667V21.35Z" fill="#3F373F"/>
<circle cx="18.5" cy="5.5" r="5.5" fill="#73BE00"/>
<path d="M17.3594 8C17.3147 8 17.2737 7.99253 17.2364 7.97758C17.1991 7.96263 17.1619 7.93647 17.1246 7.8991L15.1006 5.86996C15.0335 5.80269 15 5.72048 15 5.62332C15 5.52616 15.0335 5.44395 15.1006 5.37668C15.1677 5.30942 15.246 5.27578 15.3355 5.27578C15.4249 5.27578 15.5032 5.30942 15.5703 5.37668L17.3594 7.1704L21.4185 3.1009C21.4856 3.03363 21.5658 3 21.6589 3C21.7521 3 21.8323 3.03363 21.8994 3.1009C21.9665 3.16816 22 3.24851 22 3.34193C22 3.43535 21.9665 3.51569 21.8994 3.58296L17.5942 7.8991C17.557 7.93647 17.5197 7.96263 17.4824 7.97758C17.4452 7.99253 17.4042 8 17.3594 8Z" fill="white"/>
</svg>
