<?xml version="1.0" encoding="UTF-8"?>
<svg width="20px" height="20px" viewBox="0 0 20 20" version="1.1" xmlns="http://www.w3.org/2000/svg" xmlns:xlink="http://www.w3.org/1999/xlink">
    <!-- Generator: sketchtool 55.2 (78181) - https://sketchapp.com -->
    <title>4880608D-18AD-4D44-8E72-4B21D8BD2911</title>
    <desc>Created with sketchtool.</desc>
    <g id="------00.15-Chat---Berater" stroke="none" stroke-width="1" fill="none" fill-rule="evenodd">
        <g id="Caritas_B_Chat_Desktop_09" transform="translate(-824.000000, -374.000000)" fill="#8C878C" fill-rule="nonzero">
            <g id="Chat" transform="translate(544.000000, 134.000000)">
                <g id="forms/field/activated-copy" transform="translate(24.000000, 226.000000)">
                    <g id="icon/eye" transform="translate(254.000000, 12.000000)">
                        <path d="M18.3333333,4 L21.3333333,4 C21.7015232,4 22,4.29847683 22,4.66666667 L22,21.3333333 C22,21.7015232 21.7015232,22 21.3333333,22 L2.66666667,22 C2.29847683,22 2,21.7015232 2,21.3333333 L2,4.66666667 C2,4.29847683 2.29847683,4 2.66666667,4 L5.66666667,4 L5.66666667,2.66666667 C5.66666667,2.29847683 5.9651435,2 6.33333333,2 L9,2 C9.36818983,2 9.66666667,2.29847683 9.66666667,2.66666667 L9.66666667,4 L14.3333333,4 L14.3333333,2.66666667 C14.3333333,2.29847683 14.6318102,2 15,2 L17.6666667,2 C18.0348565,2 18.3333333,2.29847683 18.3333333,2.66666667 L18.3333333,4 Z M5.33333333,9.33333333 C4.9651435,9.33333333 4.66666667,9.63181017 4.66666667,10 L4.66666667,18.6666667 C4.66666667,19.0348565 4.9651435,19.3333333 5.33333333,19.3333333 L18.6666667,19.3333333 C19.0348565,19.3333333 19.3333333,19.0348565 19.3333333,18.6666667 L19.3333333,10 C19.3333333,9.63181017 19.0348565,9.33333333 18.6666667,9.33333333 L5.33333333,9.33333333 Z M11.8787879,13 L16.7878788,13 C17.089125,13 17.3333333,13.2199303 17.3333333,13.4912281 L17.3333333,17.1754386 C17.3333333,17.4467364 17.089125,17.6666667 16.7878788,17.6666667 L11.8787879,17.6666667 C11.5775417,17.6666667 11.3333333,17.4467364 11.3333333,17.1754386 L11.3333333,13.4912281 C11.3333333,13.2199303 11.5775417,13 11.8787879,13 Z" id="calendar"></path>
                    </g>
                </g>
            </g>
        </g>
    </g>
</svg>