<svg width="21" height="23" viewBox="0 0 21 23" fill="none"
    xmlns="http://www.w3.org/2000/svg">
    <path d="M8.5 11.4C8.23241 11.4 8.0081 11.309 7.82708 11.1269C7.64607 10.9448 7.55556 10.7192 7.55556 10.45C7.55556 10.1808 7.64607 9.95521 7.82708 9.77312C8.0081 9.59104 8.23241 9.5 8.5 9.5C8.76759 9.5 8.9919 9.59104 9.17292 9.77312C9.35394 9.95521 9.44444 10.1808 9.44444 10.45C9.44444 10.7192 9.35394 10.9448 9.17292 11.1269C8.9919 11.309 8.76759 11.4 8.5 11.4ZM4.72222 11.4C4.45463 11.4 4.23032 11.309 4.04931 11.1269C3.86829 10.9448 3.77778 10.7192 3.77778 10.45C3.77778 10.1808 3.86829 9.95521 4.04931 9.77312C4.23032 9.59104 4.45463 9.5 4.72222 9.5C4.98981 9.5 5.21412 9.59104 5.39514 9.77312C5.57616 9.95521 5.66667 10.1808 5.66667 10.45C5.66667 10.7192 5.57616 10.9448 5.39514 11.1269C5.21412 11.309 4.98981 11.4 4.72222 11.4ZM12.2778 11.4C12.0102 11.4 11.7859 11.309 11.6049 11.1269C11.4238 10.9448 11.3333 10.7192 11.3333 10.45C11.3333 10.1808 11.4238 9.95521 11.6049 9.77312C11.7859 9.59104 12.0102 9.5 12.2778 9.5C12.5454 9.5 12.7697 9.59104 12.9507 9.77312C13.1317 9.95521 13.2222 10.1808 13.2222 10.45C13.2222 10.7192 13.1317 10.9448 12.9507 11.1269C12.7697 11.309 12.5454 11.4 12.2778 11.4ZM8.5 15.2C8.23241 15.2 8.0081 15.109 7.82708 14.9269C7.64607 14.7448 7.55556 14.5192 7.55556 14.25C7.55556 13.9808 7.64607 13.7552 7.82708 13.5731C8.0081 13.391 8.23241 13.3 8.5 13.3C8.76759 13.3 8.9919 13.391 9.17292 13.5731C9.35394 13.7552 9.44444 13.9808 9.44444 14.25C9.44444 14.5192 9.35394 14.7448 9.17292 14.9269C8.9919 15.109 8.76759 15.2 8.5 15.2ZM4.72222 15.2C4.45463 15.2 4.23032 15.109 4.04931 14.9269C3.86829 14.7448 3.77778 14.5192 3.77778 14.25C3.77778 13.9808 3.86829 13.7552 4.04931 13.5731C4.23032 13.391 4.45463 13.3 4.72222 13.3C4.98981 13.3 5.21412 13.391 5.39514 13.5731C5.57616 13.7552 5.66667 13.9808 5.66667 14.25C5.66667 14.5192 5.57616 14.7448 5.39514 14.9269C5.21412 15.109 4.98981 15.2 4.72222 15.2ZM12.2778 15.2C12.0102 15.2 11.7859 15.109 11.6049 14.9269C11.4238 14.7448 11.3333 14.5192 11.3333 14.25C11.3333 13.9808 11.4238 13.7552 11.6049 13.5731C11.7859 13.391 12.0102 13.3 12.2778 13.3C12.5454 13.3 12.7697 13.391 12.9507 13.5731C13.1317 13.7552 13.2222 13.9808 13.2222 14.25C13.2222 14.5192 13.1317 14.7448 12.9507 14.9269C12.7697 15.109 12.5454 15.2 12.2778 15.2ZM1.41667 19C1.03889 19 0.708333 18.8575 0.425 18.5725C0.141667 18.2875 0 17.955 0 17.575V2.85C0 2.47 0.141667 2.1375 0.425 1.8525C0.708333 1.5675 1.03889 1.425 1.41667 1.425H2.95139V0.76C2.95139 0.538333 3.02222 0.35625 3.16389 0.21375C3.30556 0.0712499 3.48657 0 3.70694 0C3.92731 0 4.11227 0.0712499 4.26181 0.21375C4.41134 0.35625 4.48611 0.538333 4.48611 0.76V1.425H12.5139V0.76C12.5139 0.538333 12.5847 0.35625 12.7264 0.21375C12.8681 0.0712499 13.0491 0 13.2694 0C13.4898 0 13.6748 0.0712499 13.8243 0.21375C13.9738 0.35625 14.0486 0.538333 14.0486 0.76V1.425H15.5833C15.9611 1.425 16.2917 1.5675 16.575 1.8525C16.8583 2.1375 17 2.47 17 2.85V17.575C17 17.955 16.8583 18.2875 16.575 18.5725C16.2917 18.8575 15.9611 19 15.5833 19H1.41667ZM1.41667 17.575H15.5833V7.3625H1.41667V17.575Z" fill=""/>
    <circle cx="14.0489" cy="15.9532" r="6.04891" fill="white"/>
    <path d="M11.463 18.5391C11.5537 18.6298 11.6596 18.6752 11.7806 18.6752C11.9015 18.6752 12.0074 18.6298 12.0981 18.5391L14.0489 16.5883L16.0148 18.5542C16.0955 18.6349 16.1988 18.6727 16.3248 18.6677C16.4508 18.6626 16.5542 18.6198 16.6348 18.5391C16.7255 18.4484 16.7709 18.3425 16.7709 18.2215C16.7709 18.1006 16.7255 17.9947 16.6348 17.904L14.684 15.9532L16.6499 13.9873C16.7306 13.9067 16.7684 13.8033 16.7634 13.6773C16.7583 13.5513 16.7155 13.4479 16.6348 13.3673C16.5441 13.2766 16.4382 13.2312 16.3172 13.2312C16.1963 13.2312 16.0904 13.2766 15.9997 13.3673L14.0489 15.3181L12.083 13.3522C12.0024 13.2715 11.899 13.2337 11.773 13.2388C11.647 13.2438 11.5437 13.2866 11.463 13.3673C11.3723 13.458 11.3269 13.5639 11.3269 13.6849C11.3269 13.8058 11.3723 13.9117 11.463 14.0024L13.4138 15.9532L11.4479 17.9191C11.3672 17.9998 11.3294 18.1031 11.3345 18.2291C11.3395 18.3551 11.3823 18.4585 11.463 18.5391ZM14.0489 22.0021C13.192 22.0021 12.3955 21.8484 11.6596 21.5409C10.9236 21.2334 10.2835 20.8075 9.73906 20.2631C9.19466 19.7187 8.76872 19.0785 8.46123 18.3425C8.15374 17.6066 8 16.8101 8 15.9532C8 15.1064 8.15374 14.315 8.46123 13.579C8.76872 12.8431 9.19466 12.2029 9.73906 11.6585C10.2835 11.1141 10.9236 10.6856 11.6596 10.3731C12.3955 10.0606 13.192 9.9043 14.0489 9.9043C14.8958 9.9043 15.6872 10.0606 16.4231 10.3731C17.1591 10.6856 17.7992 11.1141 18.3436 11.6585C18.888 12.2029 19.3165 12.8431 19.629 13.579C19.9416 14.315 20.0978 15.1064 20.0978 15.9532C20.0978 16.8101 19.9416 17.6066 19.629 18.3425C19.3165 19.0785 18.888 19.7187 18.3436 20.2631C17.7992 20.8075 17.1591 21.2334 16.4231 21.5409C15.6872 21.8484 14.8958 22.0021 14.0489 22.0021Z" fill="#FF0000"/>
</svg>
