<svg width="32" height="32" viewBox="0 0 24 24" xmlns="http://www.w3.org/2000/svg">
<path d="M12 14.3882C11.7353 14.3882 11.5147 14.2956 11.3382 14.1103C11.1618 13.925 11.0735 13.7088 11.0735 13.4618C11.0735 13.1971 11.1618 12.9721 11.3382 12.7868C11.5147 12.6015 11.7353 12.5088 12 12.5088C12.2647 12.5088 12.4853 12.6015 12.6618 12.7868C12.8382 12.9721 12.9265 13.1971 12.9265 13.4618C12.9265 13.7088 12.8382 13.925 12.6618 14.1103C12.4853 14.2956 12.2647 14.3882 12 14.3882ZM7.76471 14.3882C7.5 14.3882 7.27941 14.2956 7.10294 14.1103C6.92647 13.925 6.83824 13.7088 6.83824 13.4618C6.83824 13.1971 6.92647 12.9721 7.10294 12.7868C7.27941 12.6015 7.5 12.5088 7.76471 12.5088C8.02941 12.5088 8.25 12.6015 8.42647 12.7868C8.60294 12.9721 8.69118 13.1971 8.69118 13.4618C8.69118 13.7088 8.60294 13.925 8.42647 14.1103C8.25 14.2956 8.02941 14.3882 7.76471 14.3882ZM16.2353 14.3882C15.9706 14.3882 15.75 14.2956 15.5735 14.1103C15.3971 13.925 15.3088 13.7088 15.3088 13.4618C15.3088 13.1971 15.3971 12.9721 15.5735 12.7868C15.75 12.6015 15.9706 12.5088 16.2353 12.5088C16.5 12.5088 16.7206 12.6015 16.8971 12.7868C17.0735 12.9721 17.1618 13.1971 17.1618 13.4618C17.1618 13.7088 17.0735 13.925 16.8971 14.1103C16.7206 14.2956 16.5 14.3882 16.2353 14.3882ZM12 18.5441C11.7353 18.5441 11.5147 18.4515 11.3382 18.2662C11.1618 18.0809 11.0735 17.8647 11.0735 17.6176C11.0735 17.3529 11.1618 17.1279 11.3382 16.9426C11.5147 16.7574 11.7353 16.6647 12 16.6647C12.2647 16.6647 12.4853 16.7574 12.6618 16.9426C12.8382 17.1279 12.9265 17.3529 12.9265 17.6176C12.9265 17.8647 12.8382 18.0809 12.6618 18.2662C12.4853 18.4515 12.2647 18.5441 12 18.5441ZM7.76471 18.5441C7.5 18.5441 7.27941 18.4515 7.10294 18.2662C6.92647 18.0809 6.83824 17.8647 6.83824 17.6176C6.83824 17.3529 6.92647 17.1279 7.10294 16.9426C7.27941 16.7574 7.5 16.6647 7.76471 16.6647C8.02941 16.6647 8.25 16.7574 8.42647 16.9426C8.60294 17.1279 8.69118 17.3529 8.69118 17.6176C8.69118 17.8647 8.60294 18.0809 8.42647 18.2662C8.25 18.4515 8.02941 18.5441 7.76471 18.5441ZM16.2353 18.5441C15.9706 18.5441 15.75 18.4515 15.5735 18.2662C15.3971 18.0809 15.3088 17.8647 15.3088 17.6176C15.3088 17.3529 15.3971 17.1279 15.5735 16.9426C15.75 16.7574 15.9706 16.6647 16.2353 16.6647C16.5 16.6647 16.7206 16.7574 16.8971 16.9426C17.0735 17.1279 17.1618 17.3529 17.1618 17.6176C17.1618 17.8647 17.0735 18.0809 16.8971 18.2662C16.7206 18.4515 16.5 18.5441 16.2353 18.5441ZM4.53529 22.25C4.11176 22.25 3.75 22.1 3.45 21.8C3.15 21.5 3 21.1382 3 20.7147V5.38824C3 4.98235 3.15 4.625 3.45 4.31618C3.75 4.00735 4.11176 3.85294 4.53529 3.85294H6.49412V2.66176C6.49412 2.48529 6.55588 2.33088 6.67941 2.19853C6.80294 2.06618 6.95294 2 7.12941 2C7.32353 2 7.48677 2.06618 7.61912 2.19853C7.75147 2.33088 7.81765 2.48529 7.81765 2.66176V3.85294H16.2353V2.66176C16.2353 2.46765 16.2926 2.30882 16.4074 2.18529C16.5221 2.06176 16.6765 2 16.8706 2C17.0471 2 17.2015 2.06176 17.3338 2.18529C17.4662 2.30882 17.5324 2.46765 17.5324 2.66176V3.85294H19.4647C19.8882 3.85294 20.25 4.00735 20.55 4.31618C20.85 4.625 21 4.98235 21 5.38824V20.7147C21 21.1382 20.85 21.5 20.55 21.8C20.25 22.1 19.8882 22.25 19.4647 22.25H4.53529ZM4.53529 21.0588H19.4647C19.5706 21.0588 19.6544 21.0279 19.7162 20.9662C19.7779 20.9044 19.8088 20.8206 19.8088 20.7147V10.2059H4.19118V20.7147C4.19118 20.8206 4.22206 20.9044 4.28382 20.9662C4.34559 21.0279 4.42941 21.0588 4.53529 21.0588Z" />
</svg>
