<svg width="24" height="23" viewBox="0 0 24 23" fill="none"
    xmlns="http://www.w3.org/2000/svg">
    <path d="M10 14.2C9.68518 14.2 9.4213 14.0946 9.20833 13.8837C8.99537 13.6729 8.88889 13.4117 8.88889 13.1C8.88889 12.7883 8.99537 12.5271 9.20833 12.3162C9.4213 12.1054 9.68518 12 10 12C10.3148 12 10.5787 12.1054 10.7917 12.3162C11.0046 12.5271 11.1111 12.7883 11.1111 13.1C11.1111 13.4117 11.0046 13.6729 10.7917 13.8837C10.5787 14.0946 10.3148 14.2 10 14.2ZM5.55556 14.2C5.24074 14.2 4.97685 14.0946 4.76389 13.8837C4.55093 13.6729 4.44444 13.4117 4.44444 13.1C4.44444 12.7883 4.55093 12.5271 4.76389 12.3162C4.97685 12.1054 5.24074 12 5.55556 12C5.87037 12 6.13426 12.1054 6.34722 12.3162C6.56018 12.5271 6.66667 12.7883 6.66667 13.1C6.66667 13.4117 6.56018 13.6729 6.34722 13.8837C6.13426 14.0946 5.87037 14.2 5.55556 14.2ZM14.4444 14.2C14.1296 14.2 13.8657 14.0946 13.6528 13.8837C13.4398 13.6729 13.3333 13.4117 13.3333 13.1C13.3333 12.7883 13.4398 12.5271 13.6528 12.3162C13.8657 12.1054 14.1296 12 14.4444 12C14.7593 12 15.0231 12.1054 15.2361 12.3162C15.4491 12.5271 15.5556 12.7883 15.5556 13.1C15.5556 13.4117 15.4491 13.6729 15.2361 13.8837C15.0231 14.0946 14.7593 14.2 14.4444 14.2ZM10 18.6C9.68518 18.6 9.4213 18.4946 9.20833 18.2838C8.99537 18.0729 8.88889 17.8117 8.88889 17.5C8.88889 17.1883 8.99537 16.9271 9.20833 16.7162C9.4213 16.5054 9.68518 16.4 10 16.4C10.3148 16.4 10.5787 16.5054 10.7917 16.7162C11.0046 16.9271 11.1111 17.1883 11.1111 17.5C11.1111 17.8117 11.0046 18.0729 10.7917 18.2838C10.5787 18.4946 10.3148 18.6 10 18.6ZM5.55556 18.6C5.24074 18.6 4.97685 18.4946 4.76389 18.2838C4.55093 18.0729 4.44444 17.8117 4.44444 17.5C4.44444 17.1883 4.55093 16.9271 4.76389 16.7162C4.97685 16.5054 5.24074 16.4 5.55556 16.4C5.87037 16.4 6.13426 16.5054 6.34722 16.7162C6.56018 16.9271 6.66667 17.1883 6.66667 17.5C6.66667 17.8117 6.56018 18.0729 6.34722 18.2838C6.13426 18.4946 5.87037 18.6 5.55556 18.6ZM14.4444 18.6C14.1296 18.6 13.8657 18.4946 13.6528 18.2838C13.4398 18.0729 13.3333 17.8117 13.3333 17.5C13.3333 17.1883 13.4398 16.9271 13.6528 16.7162C13.8657 16.5054 14.1296 16.4 14.4444 16.4C14.7593 16.4 15.0231 16.5054 15.2361 16.7162C15.4491 16.9271 15.5556 17.1883 15.5556 17.5C15.5556 17.8117 15.4491 18.0729 15.2361 18.2838C15.0231 18.4946 14.7593 18.6 14.4444 18.6ZM1.66667 23C1.22222 23 0.833333 22.835 0.5 22.505C0.166667 22.175 0 21.79 0 21.35V4.3C0 3.86 0.166667 3.475 0.5 3.145C0.833333 2.815 1.22222 2.65 1.66667 2.65H3.47222V1.88C3.47222 1.62333 3.55556 1.4125 3.72222 1.2475C3.88889 1.0825 4.10185 1 4.36111 1C4.62037 1 4.83796 1.0825 5.01389 1.2475C5.18981 1.4125 5.27778 1.62333 5.27778 1.88V2.65H14.7222V1.88C14.7222 1.62333 14.8056 1.4125 14.9722 1.2475C15.1389 1.0825 15.3519 1 15.6111 1C15.8704 1 16.088 1.0825 16.2639 1.2475C16.4398 1.4125 16.5278 1.62333 16.5278 1.88V2.65H18.3333C18.7778 2.65 19.1667 2.815 19.5 3.145C19.8333 3.475 20 3.86 20 4.3V21.35C20 21.79 19.8333 22.175 19.5 22.505C19.1667 22.835 18.7778 23 18.3333 23H1.66667ZM1.66667 21.35H18.3333V9.525H1.66667V21.35Z" fill="white"/>
    <circle cx="18.5" cy="5.5" r="5.5" fill="#ECE7DF"/>
    <path d="M18.5999 8.61587C18.4239 8.61587 18.2879 8.56787 18.1919 8.47187C18.0959 8.36787 18.0479 8.22787 18.0479 8.05187V6.08387H16.1159C15.9479 6.08387 15.8159 6.03987 15.7199 5.95187C15.6239 5.85587 15.5759 5.72387 15.5759 5.55587C15.5759 5.38787 15.6239 5.25987 15.7199 5.17187C15.8159 5.07587 15.9479 5.02787 16.1159 5.02787H18.0479V3.11987C18.0479 2.94387 18.0959 2.80787 18.1919 2.71187C18.2879 2.61587 18.4279 2.56787 18.6119 2.56787C18.7879 2.56787 18.9199 2.61587 19.0079 2.71187C19.1039 2.80787 19.1519 2.94387 19.1519 3.11987V5.02787H21.0839C21.2599 5.02787 21.3919 5.07587 21.4799 5.17187C21.5759 5.25987 21.6239 5.38787 21.6239 5.55587C21.6239 5.72387 21.5759 5.85587 21.4799 5.95187C21.3919 6.03987 21.2599 6.08387 21.0839 6.08387H19.1519V8.05187C19.1519 8.22787 19.1039 8.36787 19.0079 8.47187C18.9199 8.56787 18.7839 8.61587 18.5999 8.61587Z" fill="#273270"/>
</svg>