<svg width="12" height="12" viewBox="0 0 12 12" fill="none" xmlns="http://www.w3.org/2000/svg">
<path d="M10.82 8.17326L9.12669 7.97993C8.72003 7.93326 8.32003 8.07326 8.03336 8.35993L6.80669 9.58659C4.92003 8.62659 3.37336 7.08659 2.41336 5.19326L3.64669 3.95992C3.93336 3.67326 4.07336 3.27326 4.02669 2.86659L3.83336 1.18659C3.75336 0.513259 3.18669 0.0065918 2.50669 0.0065918H1.35336C0.600027 0.0065918 -0.0266396 0.633258 0.0200271 1.38659C0.37336 7.07993 4.92669 11.6266 10.6134 11.9799C11.3667 12.0266 11.9934 11.3999 11.9934 10.6466V9.49326C12 8.81993 11.4934 8.25326 10.82 8.17326Z" fill="black" fill-opacity="0.9"/>
</svg>
