<svg width="24" height="24" viewBox="0 0 24 24" fill="none" xmlns="http://www.w3.org/2000/svg">
    <path d="M18.6667 10V5.33333C18.6667 4.6 18.0667 4 17.3333 4H1.33333C0.6 4 0 4.6 0 5.33333V18.6667C0 19.4 0.6 20 1.33333 20H17.3333C18.0667 20 18.6667 19.4 18.6667 18.6667V14L21.72 17.0533C22.56 17.8933 24 17.2933 24 16.1067V7.88C24 6.69333 22.56 6.09333 21.72 6.93333L18.6667 10ZM13.3333 13.3333H10.6667V16C10.6667 16.7333 10.0667 17.3333 9.33333 17.3333C8.6 17.3333 8 16.7333 8 16V13.3333H5.33333C4.6 13.3333 4 12.7333 4 12C4 11.2667 4.6 10.6667 5.33333 10.6667H8V8C8 7.26667 8.6 6.66667 9.33333 6.66667C10.0667 6.66667 10.6667 7.26667 10.6667 8V10.6667H13.3333C14.0667 10.6667 14.6667 11.2667 14.6667 12C14.6667 12.7333 14.0667 13.3333 13.3333 13.3333Z" fill="white"/>
</svg>
