<svg width="23" height="19" viewBox="0 0 23 19" fill="none" xmlns="http://www.w3.org/2000/svg">
<path fill-rule="evenodd" clip-rule="evenodd" d="M21.8294 3.56853C22.0204 3.7596 22.1278 4.01875 22.1278 4.28897V14.5094C22.1278 15.0721 21.6716 15.5282 21.1089 15.5282C20.8387 15.5282 20.5795 15.4209 20.3885 15.2298L16.3422 11.1827L16.3423 14.4935C16.3423 15.4314 15.5821 16.1916 14.6442 16.1916L4.36017 16.191L16.34 4.21413C16.3415 4.24417 16.3423 4.27441 16.3423 4.30483L16.3422 7.61472L20.3885 3.56853C20.7864 3.17063 21.4315 3.17063 21.8294 3.56853ZM13.4942 2.60602L0.933878 15.1668C0.844626 14.9604 0.795166 14.7327 0.795166 14.4935V4.30483C0.795166 3.36699 1.55544 2.60672 2.49328 2.60672L13.4942 2.60602Z" fill="white"/>
<path d="M16.0601 0.850877C16.4506 0.460352 17.0838 0.460352 17.4743 0.850877C17.8348 1.21136 17.8625 1.77859 17.5575 2.17088L17.4743 2.26509L1.77034 17.9467C1.37981 18.3373 0.74665 18.3373 0.356126 17.9467C-0.00435829 17.5862 -0.0320879 17.019 0.272937 16.6267L0.356126 16.5325L16.0601 0.850877Z" fill="white"/>
</svg>
