<svg width="12" height="12" viewBox="0 0 12 12" fill="none" xmlns="http://www.w3.org/2000/svg">
<path d="M2.73158 7.7878H6.67895C6.77368 7.7878 6.85526 7.75359 6.92368 7.68517C6.9921 7.61675 7.02632 7.52991 7.02632 7.42464C7.02632 7.31938 6.9921 7.23254 6.92368 7.16412C6.85526 7.0957 6.76842 7.06148 6.66316 7.06148H2.71579C2.62105 7.06148 2.53947 7.0957 2.47105 7.16412C2.40263 7.23254 2.36842 7.31938 2.36842 7.42464C2.36842 7.52991 2.40263 7.61675 2.47105 7.68517C2.53947 7.75359 2.62632 7.7878 2.73158 7.7878V7.7878ZM2.73158 5.76675H9.28421C9.37895 5.76675 9.46053 5.73517 9.52895 5.67201C9.59737 5.60885 9.63158 5.52464 9.63158 5.41938C9.63158 5.31412 9.59737 5.22727 9.52895 5.15885C9.46053 5.09043 9.37368 5.05622 9.26842 5.05622H2.71579C2.62105 5.05622 2.53947 5.09043 2.47105 5.15885C2.40263 5.22727 2.36842 5.31412 2.36842 5.41938C2.36842 5.52464 2.40263 5.60885 2.47105 5.67201C2.53947 5.73517 2.62632 5.76675 2.73158 5.76675V5.76675ZM2.73158 3.76148H9.28421C9.37895 3.76148 9.46053 3.72727 9.52895 3.65885C9.59737 3.59043 9.63158 3.50359 9.63158 3.39833C9.63158 3.29306 9.59737 3.20885 9.52895 3.1457C9.46053 3.08254 9.37368 3.05096 9.26842 3.05096H2.71579C2.62105 3.05096 2.53947 3.08517 2.47105 3.15359C2.40263 3.22201 2.36842 3.30359 2.36842 3.39833C2.36842 3.50359 2.40263 3.59043 2.47105 3.65885C2.53947 3.72727 2.62632 3.76148 2.73158 3.76148V3.76148ZM0 11.2773V1.58254C0 1.34043 0.0894737 1.12727 0.268421 0.943064C0.447368 0.758853 0.663158 0.666748 0.915789 0.666748H11.0842C11.3263 0.666748 11.5395 0.758853 11.7237 0.943064C11.9079 1.12727 12 1.34043 12 1.58254V9.22464C12 9.46675 11.9079 9.67991 11.7237 9.86412C11.5395 10.0483 11.3263 10.1404 11.0842 10.1404H2.24211L0.773684 11.5931C0.626316 11.7404 0.460526 11.7746 0.276316 11.6957C0.0921053 11.6167 0 11.4773 0 11.2773Z" fill="black" fill-opacity="0.9"/>
</svg>
