<svg width="25" height="24" viewBox="0 0 25 24" fill="none" xmlns="http://www.w3.org/2000/svg">
<path d="M21.2878 5.8863L11.2878 15.8863C10.8978 16.2763 10.2678 16.2763 9.87778 15.8863L7.04778 13.0563C6.65778 12.6663 6.65778 12.0363 7.04778 11.6463C7.43778 11.2563 8.06778 11.2563 8.45778 11.6463L10.5778 13.7663L19.8678 4.4763C20.2578 4.0863 20.8878 4.0863 21.2778 4.4763C21.6778 4.8663 21.6778 5.4963 21.2878 5.8863ZM15.7678 2.7363C14.0778 2.0463 12.1578 1.8063 10.1578 2.1663C6.08778 2.8963 2.83778 6.1763 2.14778 10.2463C1.00778 16.9963 6.62778 22.7763 13.3378 21.9063C17.2978 21.3963 20.6178 18.4463 21.6578 14.5963C22.0578 13.1263 22.0978 11.7063 21.8678 10.3763C21.7378 9.5763 20.7478 9.2663 20.1678 9.8363C19.9378 10.0663 19.8378 10.4063 19.8978 10.7263C20.1178 12.0563 20.0178 13.4763 19.3778 14.9863C18.2178 17.6963 15.6978 19.6863 12.7678 19.9563C7.66778 20.4263 3.43778 16.1063 4.06778 10.9763C4.49778 7.4363 7.34778 4.5563 10.8778 4.0663C12.6078 3.8263 14.2478 4.1563 15.6478 4.8763C16.0378 5.0763 16.5078 5.0063 16.8178 4.6963C17.2978 4.2163 17.1778 3.4063 16.5778 3.0963C16.3078 2.9763 16.0378 2.8463 15.7678 2.7363Z" fill="#0A882F" />
</svg>
