<?xml version="1.0" encoding="UTF-8"?>
<svg width="20px" height="20px" viewBox="0 0 20 20" version="1.1" xmlns="http://www.w3.org/2000/svg" xmlns:xlink="http://www.w3.org/1999/xlink">
    <!-- Generator: sketchtool 55.2 (78181) - https://sketchapp.com -->
    <title>E93ADB0E-216B-4F03-8CAD-BDE6FE4943D4</title>
    <desc>Created with sketchtool.</desc>
    <defs>
        <path d="M12.6666667,11.3333333 L16,11.3333333 C16.3681898,11.3333333 16.6666667,11.6318102 16.6666667,12 L16.6666667,12.6666667 C16.6666667,13.0348565 16.3681898,13.3333333 16,13.3333333 L12.6666667,13.3333333 L10.6666667,13.3333333 L10.6666667,6.66666667 C10.6666667,6.29847683 10.9651435,6 11.3333333,6 L12,6 C12.3681898,6 12.6666667,6.29847683 12.6666667,6.66666667 L12.6666667,11.3333333 Z M12,19.3333333 C16.0500882,19.3333333 19.3333333,16.0500882 19.3333333,12 C19.3333333,7.94991183 16.0500882,4.66666667 12,4.66666667 C7.94991183,4.66666667 4.66666667,7.94991183 4.66666667,12 C4.66666667,16.0500882 7.94991183,19.3333333 12,19.3333333 Z M12,22 C6.4771525,22 2,17.5228475 2,12 C2,6.4771525 6.4771525,2 12,2 C17.5228475,2 22,6.4771525 22,12 C22,17.5228475 17.5228475,22 12,22 Z" id="path-1"></path>
    </defs>
    <g id="------00.15-Chat---Berater" stroke="none" stroke-width="1" fill="none" fill-rule="evenodd">
        <g id="Caritas_B_Chat_Desktop_09" transform="translate(-824.000000, -456.000000)">
            <g id="Chat" transform="translate(544.000000, 134.000000)">
                <g id="forms/field/activated-copy-2" transform="translate(24.000000, 308.000000)">
                    <g id="icon/eye" transform="translate(254.000000, 12.000000)">
                        <mask id="mask-2" fill="white">
                            <use xlink:href="#path-1"></use>
                        </mask>
                        <use id="clock" fill="#8C878C" fill-rule="nonzero" xlink:href="#path-1"></use>
                    </g>
                </g>
            </g>
        </g>
    </g>
</svg>