<?xml version="1.0" encoding="UTF-8"?>
<svg width="16px" height="16px" viewBox="0 0 16 16" version="1.1" xmlns="http://www.w3.org/2000/svg" xmlns:xlink="http://www.w3.org/1999/xlink">
    <title>Combined Shape</title>
    <g id="Page-1" stroke="none" stroke-width="1" fill="none" fill-rule="evenodd">
        <g id="RS-Profil_Desktop-" transform="translate(-1122.000000, -409.000000)" fill="#000000">
            <g id="forms/dropdown/default" transform="translate(949.000000, 393.000000)">
                <g id="tag/medium-icon-close" transform="translate(16.000000, 8.000000)">
                    <g id="Group-17" transform="translate(84.000000, 0.000000)">
                        <path d="M81,8 C85.418278,8 89,11.581722 89,16 C89,20.418278 85.418278,24 81,24 C76.581722,24 73,20.418278 73,16 C73,11.581722 76.581722,8 81,8 Z M84.0765271,12.1754155 C83.9708986,12.0697869 83.7996408,12.0697869 83.6940122,12.1754155 L83.6940122,12.1754155 L81,14.8694277 L78.3059878,12.1754155 C78.2003592,12.0697869 78.0291014,12.0697869 77.9234729,12.1754155 L77.9234729,12.1754155 L77.0792214,13.0196669 C76.9735929,13.1252955 76.9735929,13.2965533 77.0792214,13.4021819 L77.0792214,13.4021819 L79.7732336,16.0961941 L77.0792214,18.7902062 C76.9735929,18.8958348 76.9735929,19.0670926 77.0792214,19.1727212 L77.0792214,19.1727212 L77.9234729,20.0169726 C78.0291014,20.1226012 78.2003592,20.1226012 78.3059878,20.0169726 L78.3059878,20.0169726 L81,17.3229605 L83.6940122,20.0169726 C83.7996408,20.1226012 83.9708986,20.1226012 84.0765271,20.0169726 L84.0765271,20.0169726 L84.9207786,19.1727212 C85.0264071,19.0670926 85.0264071,18.8958348 84.9207786,18.7902062 L84.9207786,18.7902062 L82.2267664,16.0961941 L84.9207786,13.4021819 C85.0264071,13.2965533 85.0264071,13.1252955 84.9207786,13.0196669 L84.9207786,13.0196669 Z" id="Combined-Shape"></path>
                    </g>
                </g>
            </g>
        </g>
    </g>
</svg>