<svg width="16" height="16" viewBox="0 0 16 16" fill="none" xmlns="http://www.w3.org/2000/svg">
<path d="M8 16C6.89333 16 5.85333 15.7899 4.88 15.3696C3.90667 14.9499 3.06 14.38 2.34 13.66C1.62 12.94 1.05013 12.0933 0.6304 11.12C0.210133 10.1467 0 9.10667 0 8C0 6.89333 0.210133 5.85333 0.6304 4.88C1.05013 3.90667 1.62 3.06 2.34 2.34C3.06 1.62 3.90667 1.04987 4.88 0.6296C5.85333 0.209867 6.89333 0 8 0C9.10667 0 10.1467 0.209867 11.12 0.6296C12.0933 1.04987 12.94 1.62 13.66 2.34C14.38 3.06 14.9499 3.90667 15.3696 4.88C15.7899 5.85333 16 6.89333 16 8C16 9.10667 15.7899 10.1467 15.3696 11.12C14.9499 12.0933 14.38 12.94 13.66 13.66C12.94 14.38 12.0933 14.9499 11.12 15.3696C10.1467 15.7899 9.10667 16 8 16ZM8 14.4C9.78667 14.4 11.3 13.78 12.54 12.54C13.78 11.3 14.4 9.78667 14.4 8C14.4 7.28 14.2832 6.58667 14.0496 5.92C13.8165 5.25333 13.48 4.64 13.04 4.08L4.08 13.04C4.64 13.48 5.25333 13.8165 5.92 14.0496C6.58667 14.2832 7.28 14.4 8 14.4ZM2.96 11.92L11.92 2.96C11.36 2.52 10.7467 2.18347 10.08 1.9504C9.41333 1.7168 8.72 1.6 8 1.6C6.21333 1.6 4.7 2.22 3.46 3.46C2.22 4.7 1.6 6.21333 1.6 8C1.6 8.72 1.7168 9.41333 1.9504 10.08C2.18347 10.7467 2.52 11.36 2.96 11.92Z" fill="black" fill-opacity="0.65"/>
</svg>
