<svg xmlns="http://www.w3.org/2000/svg" xmlns:xlink="http://www.w3.org/1999/xlink" width="24" height="24" viewBox="0 0 72 72">
  <defs>
    <path id="envelope-open-a" d="M65.9962505,35.5928232 L65.9962505,61.7752208 C65.9962505,63.2266183 65.471941,64.4687388 64.4233221,65.5015822 C63.3747032,66.5344257 62.1136108,67.0508475 60.640045,67.0508475 L11.359955,67.0508475 C9.8863892,67.0508475 8.62529684,66.5344257 7.57667792,65.5015822 C6.52805899,64.4687388 6.00374953,63.2266183 6.00374953,61.7752208 L6.00374953,35.5928232 C6.98612673,36.6699842 8.11348581,37.6265031 9.38582677,38.46238 C17.4648169,43.8703436 23.0109986,47.6625657 26.024372,49.8390463 C27.2967129,50.7623272 28.3290839,51.4824862 29.1214848,51.9995235 C29.9138858,52.5165607 30.9687539,53.0440618 32.2860892,53.5820268 C33.6034246,54.1199918 34.8307712,54.3895898 35.968129,54.3908208 L36.0356205,54.3908208 C37.1742282,54.3908208 38.4015748,54.1212228 39.7176603,53.5820268 C41.0337458,53.0428308 42.0886139,52.5153297 42.8822647,51.9995235 C43.6759155,51.4837172 44.7082865,50.7635582 45.9793776,49.8390463 C49.7739033,47.1356801 55.3313336,43.343458 62.6516685,38.46238 C63.9240095,37.6055754 65.04012,36.6490565 66,35.5928232 L65.9962505,35.5928232 Z M65.9962505,28.2693597 L65.9925009,28.2730529 C65.9925009,29.7244503 65.4625672,30.9665708 64.4026997,31.9994143 C63.3428321,33.0322577 62.0873641,33.5486795 60.6362955,33.5486795 L11.3562055,33.5486795 C9.63767029,33.5474484 8.31533558,32.9756299 7.38920135,31.8332237 C6.46306712,30.6908176 6,29.2621944 6,27.5473541 C6,26.1624329 6.61367329,24.6617938 7.84101987,23.0454368 C9.06836645,21.4290799 10.3738283,20.159261 11.7574053,19.2359802 C12.5160605,18.7078635 14.8038995,17.1413637 18.6209224,14.5364808 C22.4379453,11.9315978 25.3619548,9.92561633 27.3929509,8.51853635 C27.6166729,8.36465621 28.0909886,8.02919752 28.815898,7.51216025 C29.5408074,6.99512299 30.1432321,6.57718454 30.6231721,6.2583449 C31.1031121,5.93950525 31.6836645,5.58250333 32.3648294,5.18733914 C33.0459943,4.79217495 33.687789,4.49549404 34.2902137,4.29729643 C34.8926384,4.09909881 35.4506937,4 35.9643795,4 L36.031871,4 C36.5455568,4 37.103612,4.09909881 37.7060367,4.29729643 C38.3084614,4.49549404 38.9502562,4.79217495 39.6314211,5.18733914 C40.3125859,5.58250333 40.8931384,5.93950525 41.3730784,6.2583449 C41.8530184,6.57718454 42.4554431,6.99512299 43.1803525,7.51216025 C43.9052618,8.02919752 44.3795776,8.36465621 44.6032996,8.51853635 C46.6567929,9.92561633 51.8792651,13.4980976 60.2707162,19.2359802 C61.9005124,20.3574586 63.2622172,21.7091417 64.3558305,23.2910295 C65.4494438,24.8729173 65.9962505,26.5323607 65.9962505,28.2693597 Z"/>
  </defs>
  <use xlink:href="#envelope-open-a"/>
</svg>
