<svg xmlns="http://www.w3.org/2000/svg" xmlns:xlink="http://www.w3.org/1999/xlink" width="24" height="24" viewBox="0 0 72 72">
  <defs>
    <path id="envelope-a" d="M65.9962502,28 L65.9962502,55.4657784 C65.9962502,56.9883189 65.471908,58.2913243 64.4232235,59.3747946 C63.3745391,60.4582649 62.1133679,61 60.63971,61 L11.3565402,61 C9.88288232,61 8.62171114,60.4582649 7.57302669,59.3747946 C6.52434223,58.2913243 6,56.9883189 6,55.4657784 L6,28 C6.9824386,29.1299601 8.10986813,30.1333646 9.38228861,31.0102137 C17.4617836,36.683259 23.008312,40.6613642 26.0218736,42.9445292 C27.2942941,43.9130664 28.3267296,44.6685255 29.1191801,45.2109063 C29.9116305,45.7532872 30.9665646,46.3066448 32.2839823,46.8709791 C33.6013999,47.4353135 34.8288232,47.7181263 35.9662521,47.7194177 L36.0337479,47.7194177 C37.1724267,47.7194177 38.39985,47.4366048 39.7160177,46.8709791 C41.0321855,46.3053534 42.0871196,45.7519958 42.8808199,45.2109063 C43.6745203,44.6698169 44.7069558,43.9143578 45.9781264,42.9445292 C49.7728892,40.1086523 55.3306668,36.1305471 62.6514593,31.0102137 C63.9238798,30.1114111 65.04006,29.1080066 66,28 L65.9962502,28 Z M66,18.359955 C66,20.1234846 65.4531592,21.808274 64.3594775,23.4143232 C63.2657959,25.0203725 61.904006,26.3927009 60.2741079,27.5313086 C51.8821324,33.3568304 46.6593338,36.983877 44.6057121,38.4124484 C44.3819761,38.5686789 43.9076308,38.9092613 43.1826761,39.4341957 C42.4577214,39.9591301 41.855259,40.3834521 41.375289,40.7071616 C40.895319,41.0308711 40.3147303,41.3933258 39.6335229,41.7945257 C38.9523155,42.1957255 38.3104806,42.4969379 37.7080182,42.6981627 C37.1055559,42.8993876 36.5474658,43 36.0337479,43 L35.9662521,43 C35.4525342,43 34.8944441,42.8993876 34.2919818,42.6981627 C33.6895194,42.4969379 33.0476845,42.1957255 32.3664771,41.7945257 C31.6852697,41.3933258 31.104681,41.0308711 30.624711,40.7071616 C30.144741,40.3834521 29.5422786,39.9591301 28.8173239,39.4341957 C28.0923692,38.9092613 27.6180239,38.5686789 27.3942879,38.4124484 C25.3631648,36.983877 22.4389726,34.9472566 18.6217111,32.3025872 C14.8044497,29.6579178 12.5164677,28.0674916 11.7577651,27.5313086 C10.3741016,26.5939258 9.06855822,25.3047119 7.84113493,23.663667 C6.61371164,22.0226222 6,20.4990626 6,19.0929884 C6,17.351956 6.46309606,15.9015123 7.38928817,14.7416573 C8.31548028,13.5818023 9.63789763,13.0012498 11.3565402,13 L60.63971,13 C62.0908693,13 63.3464158,13.5243095 64.4063496,14.5729284 C65.4662834,15.6215473 65.9962502,16.8826397 65.9962502,18.3562055 L66,18.359955 Z"/>
  </defs>
  <use xlink:href="#envelope-a"/>
</svg>
