<svg xmlns="http://www.w3.org/2000/svg" xmlns:xlink="http://www.w3.org/1999/xlink" width="24" height="24" viewBox="0 0 72 72">
  <defs>
    <path id="eye-closed-a" d="M40.5338198,24.8882528 C38.9089619,24.2240117 37.1063844,23.9056558 35.2179676,24.0244429 C29.2418394,24.3979495 24.3979074,29.241864 24.0243993,35.2179704 C23.9057959,37.1064959 24.2237759,38.9078635 24.8868855,40.5312389 L28.1040922,37.314844 C28.007813,36.7245858 27.9765125,36.1124681 28.017778,35.4859834 C28.2633962,31.4982997 31.4997772,28.2763668 35.4874609,28.0163005 C36.1131646,27.9769599 36.72478,28.0095185 37.3147482,28.1065121 L40.5338198,24.8882528 Z M17.3782843,48.0379454 C13.3476585,45.3019515 9.6712274,41.7056884 6.46946916,37.4207275 C5.84351028,36.5806452 5.84351028,35.4070007 6.46946916,34.5669183 C14.1405339,24.3129719 24.5363608,18 36,18 C39.3849533,18 42.6768054,18.55042 45.8328984,19.5905113 L60.6697929,4.75736055 L64.86753,8.96917831 L9.06526714,64.7573606 L4.86753004,60.5455428 L17.3782843,48.0379454 Z M54.3975892,23.8110486 C58.5161123,26.5651847 62.2695232,30.2150172 65.5305308,34.5792725 C66.1564897,35.4193548 66.1564897,36.5929993 65.5305308,37.4330817 C57.8594661,47.6870281 47.4636392,54 36,54 C32.5144245,54 29.1275675,53.4163697 25.8860055,52.3154379 L31.2025278,47.0002571 C32.8951208,47.7400479 34.790859,48.1008079 36.7820324,47.9755571 C42.7464885,47.5903784 47.5904205,42.746464 47.9756007,36.7820296 C48.1006647,34.790633 47.7402869,32.8961482 47.0016952,31.2050764 L54.3975892,23.8110486 Z M34.3706775,43.8329069 L43.8385919,34.3673815 C43.9793581,35.0540081 44.0316303,35.7729118 43.9829609,36.5118006 C43.7228946,40.5139324 40.4865136,43.7358653 36.5132781,43.9814835 C35.7753495,44.0278802 35.0570163,43.9742733 34.3706775,43.8329069 Z"/>
  </defs>
  <use xlink:href="#eye-closed-a" fill="#8C878C"/>
</svg>
