<svg xmlns="http://www.w3.org/2000/svg" xmlns:xlink="http://www.w3.org/1999/xlink" width="24" height="24" viewBox="0 0 72 72">
  <defs>
    <path id="eye-a" d="M36,18 C24.5363608,18 14.1405339,24.3129719 6.46946916,34.5669183 C5.84351028,35.4070007 5.84351028,36.5806452 6.46946916,37.4207275 C14.1405339,47.6870281 24.5363608,54 36,54 C47.4636392,54 57.8594661,47.6870281 65.5305308,37.4330817 C66.1564897,36.5929993 66.1564897,35.4193548 65.5305308,34.5792725 C57.8594661,24.3129719 47.4636392,18 36,18 Z M36.7820324,47.9755571 C29.5453147,48.4307684 23.5691865,42.466334 24.0243993,35.2179704 C24.3979074,29.241864 29.2418394,24.3979495 35.2179676,24.0244429 C42.4546853,23.5692316 48.4308135,29.533666 47.9756007,36.7820296 C47.5904205,42.746464 42.7464885,47.5903784 36.7820324,47.9755571 Z M36.5132781,43.9814835 C31.6876028,44.2848942 27.6999191,40.3116586 28.017778,35.4859834 C28.2633962,31.4982997 31.4997772,28.2763668 35.4874609,28.0163005 C40.3131361,27.7128898 44.3008198,31.6861254 43.9829609,36.5118006 C43.7228946,40.5139324 40.4865136,43.7358653 36.5132781,43.9814835 Z"/>
  </defs>
  <use xlink:href="#eye-a" fill="#8C878C"/>
</svg>
