<?xml version="1.0" encoding="UTF-8"?>
<svg width="48px" height="60px" viewBox="0 0 48 60" version="1.1" xmlns="http://www.w3.org/2000/svg" xmlns:xlink="http://www.w3.org/1999/xlink">
    <!-- Generator: Sketch 59.1 (86144) - https://sketch.com -->
    <title>file-template</title>
    <desc>Created with Sketch.</desc>
    <g id="------01.03-Icons-&amp;-Illustrations" stroke="none" stroke-width="1" fill="none" fill-rule="evenodd">
        <g id="Icons" transform="translate(-1671.000000, -1140.000000)">
            <rect fill="#FFFFFF" x="0" y="0" width="1920" height="1500"></rect>
            <g id="Icon_01-Copy-41" transform="translate(1620.000000, 1095.000000)" fill-rule="nonzero" stroke="#8C878C">
                <rect id="Rectangle-Copy-19" x="0" y="0" width="150" height="150"></rect>
            </g>
            <path d="M1704.99752,1140 C1705.51056,1140 1706.00397,1140.19715 1706.37574,1140.55069 L1718.37822,1151.96442 C1718.77524,1152.34197 1719,1152.86586 1719,1153.41374 L1719,1198 C1719,1199.10457 1718.10457,1200 1717,1200 L1673,1200 C1671.89543,1200 1671,1199.10457 1671,1198 L1671,1142 C1671,1140.89543 1671.89543,1140 1673,1140 L1704.99752,1140 Z M1703.288,1177.856 C1702.51066,1177.856 1701.847,1177.95133 1701.297,1178.142 C1700.747,1178.33267 1700.296,1178.58933 1699.944,1178.912 C1699.592,1179.23467 1699.33533,1179.61233 1699.174,1180.045 C1699.01267,1180.47767 1698.932,1180.936 1698.932,1181.42 C1698.932,1182.256 1699.14466,1182.94166 1699.57,1183.477 C1699.99534,1184.01234 1700.626,1184.42667 1701.462,1184.72 L1701.462,1184.72 L1703.596,1185.49 C1703.88933,1185.60733 1704.146,1185.765 1704.366,1185.963 C1704.586,1186.161 1704.696,1186.45066 1704.696,1186.832 C1704.696,1187.30134 1704.55667,1187.65333 1704.278,1187.888 C1703.99933,1188.12267 1703.62534,1188.24 1703.156,1188.24 C1702.64266,1188.24 1702.25033,1188.08233 1701.979,1187.767 C1701.70767,1187.45167 1701.572,1187.03734 1701.572,1186.524 L1701.572,1186.524 L1701.572,1186.128 L1698.844,1186.128 L1698.844,1186.546 C1698.844,1187.118 1698.91,1187.635 1699.042,1188.097 C1699.174,1188.559 1699.405,1188.95133 1699.735,1189.274 C1700.065,1189.59667 1700.51233,1189.83867 1701.077,1190 C1701.64167,1190.16133 1702.34933,1190.242 1703.2,1190.242 C1703.84534,1190.242 1704.43566,1190.176 1704.971,1190.044 C1705.50634,1189.912 1705.96833,1189.692 1706.357,1189.384 C1706.74567,1189.076 1707.05,1188.691 1707.27,1188.229 C1707.49,1187.767 1707.6,1187.22067 1707.6,1186.59 C1707.6,1185.69533 1707.402,1184.98767 1707.006,1184.467 C1706.61,1183.94633 1705.93534,1183.52467 1704.982,1183.202 L1704.982,1183.202 L1702.97123,1182.52378 C1702.55816,1182.37459 1702.27142,1182.19733 1702.111,1181.992 C1701.92767,1181.75733 1701.836,1181.49333 1701.836,1181.2 C1701.836,1180.77466 1701.979,1180.45567 1702.265,1180.243 C1702.551,1180.03033 1702.88466,1179.924 1703.266,1179.924 C1703.76467,1179.924 1704.113,1180.067 1704.311,1180.353 C1704.509,1180.639 1704.608,1181.09 1704.608,1181.706 L1704.608,1181.706 L1707.336,1181.706 L1707.336,1181.222 C1707.336,1180.15133 1707.006,1179.32267 1706.346,1178.736 C1705.686,1178.14933 1704.66667,1177.856 1703.288,1177.856 Z M1686.348,1178.164 L1683.18,1178.164 L1686.26,1183.906 L1683.048,1190 L1686.216,1190 L1687.976,1186.128 L1689.736,1190 L1692.904,1190 L1689.692,1183.906 L1692.772,1178.164 L1689.604,1178.164 L1687.976,1181.728 L1686.348,1178.164 Z M1697.216,1174.292 L1694.18,1174.292 L1694.18,1190 L1697.216,1190 L1697.216,1174.292 Z M1701.79665,1146 L1678,1146 C1677.44772,1146 1677,1146.44772 1677,1147 L1677,1167 L1713,1167 L1713,1156.5557 C1713,1156.00342 1712.55228,1155.5557 1712,1155.5557 L1703.79665,1155.5557 C1703.24437,1155.5557 1702.79665,1155.10799 1702.79665,1154.5557 L1702.79665,1147 C1702.79665,1146.44772 1702.34894,1146 1701.79665,1146 Z" id="file-template" fill="#000000" fill-rule="nonzero"></path>
        </g>
    </g>
</svg>