<svg width="24" height="24" viewBox="0 0 24 24" fill="none" xmlns="http://www.w3.org/2000/svg">
<path d="M15.3325 2C15.5035 2 15.668 2.06571 15.7919 2.18355L19.7927 5.98816C19.9251 6.11401 20 6.28861 20 6.47123V21.3333C20 21.7015 19.7015 22 19.3333 22H4.66667C4.29848 22 4 21.7015 4 21.3333V2.66667C4 2.29848 4.29848 2 4.66667 2H15.3325ZM14.7627 14.6187C14.5035 14.6187 14.2823 14.6504 14.099 14.714C13.9157 14.7775 13.7653 14.8631 13.648 14.9707C13.5307 15.0782 13.4451 15.2041 13.3913 15.3483C13.3375 15.4926 13.3107 15.6453 13.3107 15.8067C13.3107 16.0853 13.3815 16.3139 13.5233 16.4924C13.6651 16.6708 13.8753 16.8089 14.154 16.9067L14.8653 17.1633C14.9631 17.2024 15.0487 17.255 15.122 17.321C15.1953 17.387 15.232 17.4836 15.232 17.6107C15.232 17.7671 15.1855 17.8844 15.0927 17.9626C14.9998 18.0409 14.8751 18.08 14.7187 18.08C14.5476 18.08 14.4168 18.0274 14.3263 17.9223C14.2359 17.8172 14.1907 17.6791 14.1907 17.508V17.376H13.2813V17.5153C13.2813 17.706 13.3033 17.8783 13.3473 18.0323C13.3913 18.1863 13.4683 18.3171 13.5783 18.4247C13.6883 18.5322 13.8375 18.6129 14.0257 18.6667C14.2139 18.7204 14.4498 18.7473 14.7333 18.7473C14.9484 18.7473 15.1452 18.7253 15.3236 18.6813C15.5021 18.6373 15.6561 18.564 15.7857 18.4613C15.9152 18.3587 16.0167 18.2303 16.09 18.0763C16.1633 17.9223 16.2 17.7402 16.2 17.53C16.2 17.2318 16.134 16.9959 16.002 16.8223C15.87 16.6488 15.6451 16.5082 15.3274 16.4007L14.6571 16.1746C14.5194 16.1249 14.4238 16.0658 14.3703 15.9973C14.3092 15.9191 14.2787 15.8311 14.2787 15.7333C14.2787 15.5915 14.3263 15.4852 14.4217 15.4143C14.517 15.3435 14.6282 15.308 14.7553 15.308C14.9216 15.308 15.0377 15.3557 15.1037 15.451C15.1697 15.5463 15.2027 15.6967 15.2027 15.902H16.112V15.7407C16.112 15.3838 16.002 15.1075 15.782 14.912C15.562 14.7164 15.2222 14.6187 14.7627 14.6187ZM9.11601 14.7213H8.06002L9.08667 16.6353L8.01599 18.6667H9.07198L9.65865 17.376L10.2453 18.6667H11.3014L10.2307 16.6353L11.2573 14.7213H10.2013L9.65865 15.9093L9.11601 14.7213ZM12.7386 13.4307H11.7267V18.6667H12.7386V13.4307ZM14.2655 4H6.33333C6.14924 4 6 4.14924 6 4.33333V11H18V7.51855C18 7.33446 17.8508 7.18522 17.6667 7.18522H14.9322C14.7481 7.18522 14.5989 7.03598 14.5989 6.85189V4.33333C14.5989 4.14924 14.4496 4 14.2655 4Z" fill="black"/>
</svg>
