<svg xmlns="http://www.w3.org/2000/svg" width="24" height="24" viewBox="0 0 72 72">
  <path d="M45.9975237,6 C46.510557,6 47.0039721,6.19715095 47.3757449,6.55068769 L59.3782213,17.9644236 C59.7752431,18.3419709 60,18.8658598 60,19.4137359 L60,64 C60,65.1045695 59.1045695,66 58,66 L14,66 C12.8954305,66 12,65.1045695 12,64 L12,8 C12,6.8954305 12.8954305,6 14,6 L45.9975237,6 Z M30.0771484,40 L27.015625,40 L27.015625,45.8222656 C26.421221,45.0488243 25.6764368,44.6621094 24.78125,44.6621094 C23.549473,44.6621094 22.6113313,45.1311802 21.9667969,46.0693359 C21.3222624,47.0074917 21,48.4290269 21,50.3339844 L21,50.3339844 L21,51.2148438 C21.014323,53.0195403 21.3419564,54.3873651 21.9829102,55.3183594 C22.6238639,56.2493536 23.5530538,56.7148438 24.7705078,56.7148438 C25.7516325,56.7148438 26.5537078,56.2493536 27.1767578,55.3183594 L27.1767578,55.3183594 L27.3164062,56.5 L30.0771484,56.5 L30.0771484,40 Z M36.6513672,44.6621094 C35.1832609,44.6621094 34.0338583,45.1634064 33.203125,46.1660156 C32.3723917,47.1686248 31.9570312,48.5507724 31.9570312,50.3125 L31.9570312,50.3125 L31.9570312,51.0537109 C31.9570312,52.8297615 32.3706013,54.2172802 33.1977539,55.2163086 C34.0249065,56.215337 35.1832608,56.7148438 36.6728516,56.7148438 C38.1552808,56.7148438 39.3082641,56.2171274 40.1318359,55.2216797 C40.9554078,54.226232 41.3671875,52.8440844 41.3671875,51.0751953 L41.3671875,51.0751953 L41.3671875,50.3339844 C41.3671875,48.5579338 40.9518271,47.1686248 40.1210938,46.1660156 C39.2903604,45.1634064 38.1337965,44.6621094 36.6513672,44.6621094 Z M47.5009766,44.6621094 C45.9827398,44.6621094 44.8351276,45.1419223 44.0581055,46.1015625 C43.2810834,47.0612027 42.8925781,48.4540924 42.8925781,50.2802734 L42.8925781,50.2802734 L42.8925781,51.2041016 C42.9069011,53.0159596 43.3079388,54.3873651 44.0957031,55.3183594 C44.8834675,56.2493536 46.0257087,56.7148438 47.5224609,56.7148438 C48.7327534,56.7148438 49.7210248,56.3245482 50.4873047,55.5439453 C51.2535846,54.7633425 51.6438801,53.7392642 51.6582031,52.4716797 L51.6582031,52.4716797 L48.8007812,52.4716797 C48.7864583,53.6175188 48.3388716,54.1904297 47.4580078,54.1904297 C47.0641256,54.1904297 46.7597667,54.1027027 46.5449219,53.9272461 C46.3300771,53.7517895 46.1761072,53.4760761 46.0830078,53.1000977 C45.9899084,52.7241192 45.9433594,52.0634813 45.9433594,51.1181641 L45.9433594,51.1181641 L45.9433594,49.9365234 C45.9576824,48.8551378 46.0794259,48.1264667 46.3085938,47.7504883 C46.5377616,47.3745098 46.9173151,47.1865234 47.4472656,47.1865234 C47.9270857,47.1865234 48.2708323,47.3619774 48.4785156,47.7128906 C48.686199,48.0638038 48.7936198,48.5651009 48.8007812,49.2167969 L48.8007812,49.2167969 L51.6582031,49.2167969 C51.6438801,47.7630136 51.2679073,46.6404662 50.5302734,45.8491211 C49.7926395,45.057776 48.782884,44.6621094 47.5009766,44.6621094 Z M36.6513672,47.1865234 C37.1884792,47.1865234 37.6038397,47.442543 37.8974609,47.9545898 C38.1910822,48.4666367 38.3378906,49.2525989 38.3378906,50.3125 L38.3378906,50.3125 L38.3271484,51.5908203 C38.248372,53.3239019 37.6969452,54.1904297 36.6728516,54.1904297 C35.56282,54.1904297 35.0078125,53.1520286 35.0078125,51.0751953 L35.0078125,51.0751953 L35.0078125,50.3125 C35.0078125,49.2525989 35.1528306,48.4666367 35.4428711,47.9545898 C35.7329116,47.442543 36.1357396,47.1865234 36.6513672,47.1865234 Z M25.6621094,47.2080078 C26.2636749,47.2080078 26.7148422,47.4944633 27.015625,48.0673828 L27.015625,48.0673828 L27.015625,53.3740234 C26.7076808,53.9111355 26.2529327,54.1796875 25.6513672,54.1796875 C25.0712862,54.1796875 24.6595064,53.9523135 24.4160156,53.4975586 C24.1725248,53.0428037 24.0507812,52.2425188 24.0507812,51.0966797 L24.0507812,51.0966797 L24.0507812,50.2910156 C24.0507812,49.1380151 24.1796862,48.3359398 24.4375,47.8847656 C24.6953138,47.4335915 25.1035128,47.2080078 25.6621094,47.2080078 Z M42.7966518,12 L19,12 C18.4477153,12 18,12.4477153 18,13 L18,33 L54,33 L54,22.5557031 C54,22.0034184 53.5522847,21.5557031 53,21.5557031 L44.7966518,21.5557031 C44.244367,21.5557031 43.7966518,21.1079879 43.7966518,20.5557031 L43.7966518,13 C43.7966518,12.4477153 43.3489365,12 42.7966518,12 Z"/>
</svg>
