<svg xmlns="http://www.w3.org/2000/svg" width="24" height="24" viewBox="0 0 72 72">
  <path d="M45.9975237,6 C46.510557,6 47.0039721,6.19715095 47.3757449,6.55068769 L59.3782213,17.9644236 C59.7752431,18.3419709 60,18.8658598 60,19.4137359 L60,64 C60,65.1045695 59.1045695,66 58,66 L14,66 C12.8954305,66 12,65.1045695 12,64 L12,8 C12,6.8954305 12.8954305,6 14,6 L45.9975237,6 Z M27.2958984,43.8876953 C26.2932893,43.8876953 25.501956,44.3137978 24.921875,45.1660156 L24.921875,45.1660156 L24.8144531,44.1025391 L22,44.1025391 L22,60.1943359 L25.0400391,60.1943359 L25.0400391,54.7910156 C25.6129586,55.5572955 26.3720656,55.9404297 27.3173828,55.9404297 C28.5563213,55.9404297 29.4890919,55.4534554 30.1157227,54.4794922 C30.7423534,53.505529 31.0556641,52.1054779 31.0556641,50.2792969 L31.0556641,50.2792969 L31.0556641,49.3876953 C31.0413411,47.5257068 30.720869,46.1435592 30.0942383,45.2412109 C29.4676075,44.3388627 28.5348369,43.8876953 27.2958984,43.8876953 Z M41.5615234,39.2255859 L38.5,39.2255859 L38.5,45.0478516 C37.905596,44.2744102 37.1608118,43.8876953 36.265625,43.8876953 C35.033848,43.8876953 34.0957063,44.3567661 33.4511719,45.2949219 C32.8066374,46.2330776 32.484375,47.6546129 32.484375,49.5595703 L32.484375,49.5595703 L32.484375,50.4404297 C32.498698,52.2451262 32.8263314,53.6129511 33.4672852,54.5439453 C34.1082389,55.4749396 35.0374288,55.9404297 36.2548828,55.9404297 C37.2360075,55.9404297 38.0380828,55.4749396 38.6611328,54.5439453 L38.6611328,54.5439453 L38.8007812,55.7255859 L41.5615234,55.7255859 L41.5615234,39.2255859 Z M48.2861328,39 C47.1044863,39 46.178877,39.356279 45.5092773,40.0688477 C44.8396776,40.7814163 44.5013021,41.7786394 44.4941406,43.0605469 L44.4941406,43.0605469 L44.4941406,44.1025391 L43.0869141,44.1025391 L43.0869141,46.390625 L44.4941406,46.390625 L44.4941406,55.7255859 L47.5449219,55.7255859 L47.5449219,46.390625 L49.3603516,46.390625 L49.3603516,44.1025391 L47.5449219,44.1025391 L47.5449219,43.1572266 C47.5449219,42.0830024 47.9960892,41.5458984 48.8984375,41.5458984 C49.1848973,41.5458984 49.4319651,41.5781247 49.6396484,41.6425781 L49.6396484,41.6425781 L49.6611328,39.2148438 C49.1025363,39.0716139 48.6442075,39 48.2861328,39 Z M26.4042969,46.4335938 C26.9915394,46.4335938 27.4086902,46.6663388 27.6557617,47.1318359 C27.9028333,47.5973331 28.0263672,48.392247 28.0263672,49.5166016 L28.0263672,49.5166016 L28.0263672,50.2792969 C28.0263672,51.353521 27.9099947,52.1448542 27.6772461,52.6533203 C27.4444975,53.1617864 27.0273468,53.4160156 26.4257812,53.4160156 C25.7740853,53.4160156 25.3121758,53.1653671 25.0400391,52.6640625 L25.0400391,52.6640625 L25.0400391,47.2177734 C25.3264988,46.6949844 25.7812469,46.4335938 26.4042969,46.4335938 Z M37.1464844,46.4335938 C37.7480499,46.4335938 38.1992172,46.7200492 38.5,47.2929688 L38.5,47.2929688 L38.5,52.5996094 C38.1920558,53.1367214 37.7373077,53.4052734 37.1357422,53.4052734 C36.5556612,53.4052734 36.1438814,53.1778994 35.9003906,52.7231445 C35.6568998,52.2683897 35.5351562,51.4681047 35.5351562,50.3222656 L35.5351562,50.3222656 L35.5351562,49.5166016 C35.5351562,48.363601 35.6640612,47.5615257 35.921875,47.1103516 C36.1796888,46.6591774 36.5878878,46.4335938 37.1464844,46.4335938 Z M42.7966518,12 L19,12 C18.4477153,12 18,12.4477153 18,13 L18,33 L54,33 L54,22.5557031 C54,22.0034184 53.5522847,21.5557031 53,21.5557031 L44.7966518,21.5557031 C44.244367,21.5557031 43.7966518,21.1079879 43.7966518,20.5557031 L43.7966518,13 C43.7966518,12.4477153 43.3489365,12 42.7966518,12 Z"/>
</svg>
