<?xml version="1.0" encoding="UTF-8"?>
<svg width="72px" height="72px" viewBox="0 0 72 72" version="1.1" xmlns="http://www.w3.org/2000/svg" xmlns:xlink="http://www.w3.org/1999/xlink">
    <!-- Generator: Sketch 62 (91390) - https://sketch.com -->
    <title>icon/file-xls</title>
    <desc>Created with Sketch.</desc>
    <g id="icon/file-xls" stroke="none" stroke-width="1" fill="none" fill-rule="evenodd">
        <path d="M45.9975237,6 C46.510557,6 47.0039721,6.19715095 47.3757449,6.55068769 L59.3782213,17.9644236 C59.7752431,18.3419709 60,18.8658598 60,19.4137359 L60,64 C60,65.1045695 59.1045695,66 58,66 L14,66 C12.8954305,66 12,65.1045695 12,64 L12,8 C12,6.8954305 12.8954305,6 14,6 L45.9975237,6 Z M44.288,43.856 C43.5106628,43.856 42.8470028,43.9513324 42.297,44.142 C41.7469972,44.3326676 41.2960018,44.5893317 40.944,44.912 C40.5919982,45.2346683 40.3353341,45.6123312 40.174,46.045 C40.0126659,46.4776688 39.932,46.9359976 39.932,47.42 C39.932,48.2560042 40.1446645,48.941664 40.57,49.477 C40.9953355,50.012336 41.6259958,50.4266652 42.462,50.72 L42.462,50.72 L44.596,51.49 C44.8893348,51.6073339 45.1459989,51.764999 45.366,51.963 C45.5860011,52.161001 45.696,52.4506648 45.696,52.832 C45.696,53.3013357 45.5566681,53.6533322 45.278,53.888 C44.9993319,54.1226678 44.6253357,54.24 44.156,54.24 C43.6426641,54.24 43.2503347,54.0823349 42.979,53.767 C42.7076653,53.4516651 42.572,53.0373359 42.572,52.524 L42.572,52.524 L42.572,52.128 L39.844,52.128 L39.844,52.546 C39.844,53.1180029 39.9099993,53.6349977 40.042,54.097 C40.1740007,54.5590023 40.4049983,54.9513317 40.735,55.274 C41.0650016,55.5966683 41.5123305,55.8386659 42.077,56 C42.6416695,56.1613341 43.3493291,56.242 44.2,56.242 C44.8453366,56.242 45.435664,56.1760007 45.971,56.044 C46.506336,55.9119993 46.9683314,55.6920015 47.357,55.384 C47.7456686,55.0759985 48.0499989,54.6910023 48.27,54.229 C48.4900011,53.7669977 48.6,53.2206698 48.6,52.59 C48.6,51.6953289 48.402002,50.9876693 48.006,50.467 C47.609998,49.9463307 46.9353381,49.5246683 45.982,49.202 L45.982,49.202 L43.9712337,48.5237811 C43.5581597,48.3745934 43.2714175,48.1973344 43.111,47.992 C42.9276658,47.7573322 42.836,47.4933348 42.836,47.2 C42.836,46.7746645 42.9789986,46.4556677 43.265,46.243 C43.5510014,46.0303323 43.8846648,45.924 44.266,45.924 C44.7646692,45.924 45.112999,46.0669986 45.311,46.353 C45.509001,46.6390014 45.608,47.0899969 45.608,47.706 L45.608,47.706 L48.336,47.706 L48.336,47.222 C48.336,46.151328 48.0060033,45.3226696 47.346,44.736 C46.6859967,44.1493304 45.6666736,43.856 44.288,43.856 Z M27.348,44.164 L24.18,44.164 L27.26,49.906 L24.048,56 L27.216,56 L28.976,52.128 L30.736,56 L33.904,56 L30.692,49.906 L33.772,44.164 L30.604,44.164 L28.976,47.728 L27.348,44.164 Z M38.216,40.292 L35.18,40.292 L35.18,56 L38.216,56 L38.216,40.292 Z M42.7966518,12 L19,12 C18.4477153,12 18,12.4477153 18,13 L18,33 L54,33 L54,22.5557031 C54,22.0034184 53.5522847,21.5557031 53,21.5557031 L44.7966518,21.5557031 C44.244367,21.5557031 43.7966518,21.1079879 43.7966518,20.5557031 L43.7966518,13 C43.7966518,12.4477153 43.3489365,12 42.7966518,12 Z" id="file-xls" fill="#000000" fill-rule="nonzero"></path>
    </g>
</svg>