<svg xmlns="http://www.w3.org/2000/svg" xmlns:xlink="http://www.w3.org/1999/xlink" width="24" height="24" viewBox="0 0 72 72">
  <defs>
    <path id="gear-a" d="M63.8045726,31.6311447 L57.8610621,30.6396034 C57.429088,28.8734853 56.7992402,27.1852469 55.9789515,25.6106469 L59.7838188,20.8928738 C60.5930587,19.8958414 60.5562964,18.4612639 59.7031292,17.498986 L57.3392915,14.838559 C56.4824414,13.8772856 55.0615004,13.6739818 53.977648,14.3587593 L48.8948044,17.5540308 C46.6591996,15.9920201 44.1268177,14.838559 41.395022,14.1692502 L40.4006312,8.19368548 C40.1919766,6.92839389 39.0970753,6 37.8118001,6 L34.2495374,6 C32.9668737,6 31.8682895,6.92839389 31.6642553,8.19368548 L30.6644405,14.1711252 C28.4058677,14.7241169 26.2882506,15.6167518 24.3557174,16.7923781 L19.5218398,13.3425082 C18.4800396,12.5981993 17.0491213,12.7145834 16.1399736,13.6218165 L13.6233279,16.1403461 C12.7161221,17.0495213 12.5997415,18.4804827 13.3459699,19.5223142 L16.8037713,24.3655785 C15.6392292,26.2835717 14.755795,28.3891991 14.202887,30.6277507 L8.19348546,31.6312116 C6.9301739,31.8398726 6,32.9348738 6,34.2202547 L6,37.7798123 C6,39.0650592 6.9301739,40.1601944 8.19348546,40.3688553 L14.202887,41.3723163 C14.6569586,43.2143719 15.3161359,44.9739274 16.1922712,46.6053801 L12.4047472,51.2965014 C11.5982527,52.2925963 11.6321357,53.7281113 12.4853029,54.6895186 L14.8473326,57.3500127 C15.7042497,58.3130941 17.1259271,58.5127149 18.2099136,57.8296784 L23.3660139,54.5906123 C25.547714,56.082913 28.015879,57.1797223 30.6644405,57.8296784 L31.6642553,63.8062476 C31.8683565,65.0716061 32.9668737,66 34.2495374,66 L37.8118001,66 C39.0970753,66 40.1919766,65.0716731 40.4006312,63.8063145 L41.3966961,57.8297453 C43.6270778,57.2841867 45.717843,56.4070875 47.6331669,55.2516175 L52.6684672,58.8479384 C53.7083924,59.5949259 55.1403821,59.4777383 56.0485923,58.5676256 L58.5662425,56.0499666 C59.4723769,55.143537 59.5951189,53.7133791 58.8425961,52.6696726 L55.2577001,47.6433947 C56.4255903,45.7189729 57.3137119,43.6095955 57.8631379,41.3610663 L63.8065815,40.3686544 C65.073576,40.1599935 66,39.0649253 66,37.7796114 L66,34.2200538 C65.9981251,32.9348738 65.071701,31.8398726 63.8045726,31.6311447 Z M36.8333978,46 C30.8515567,46 26,41.1475694 26,35.1666667 C26,29.1848611 30.8515567,24.3333333 36.8333978,24.3333333 C42.8142072,24.3333333 47.6666667,29.1848611 47.6666667,35.1666667 C47.6666667,41.1475694 42.8142072,46 36.8333978,46 Z"/>
  </defs>
  <use xlink:href="#gear-a"/>
</svg>
