<svg xmlns="http://www.w3.org/2000/svg" xmlns:xlink="http://www.w3.org/1999/xlink" width="24" height="24" viewBox="0 0 72 72">
  <defs>
    <path id="heart-a" d="M36,62.5 C35.42,62.5 34.92875,62.299375 34.52625,61.898125 L13.633125,41.741875 C13.409375,41.563125 13.1025,41.273125 12.7125,40.871875 C12.3225,40.470625 11.703125,39.739375 10.854375,38.678125 C10.005625,37.616875 9.246875,36.52875 8.578125,35.41375 C7.909375,34.29875 7.3125,32.948125 6.7875,31.361875 C6.2625,29.775625 6,28.235625 6,26.741875 C6,21.830625 7.4175,17.99125 10.2525,15.22375 C13.0875,12.45625 17.005,11.0725 22.005,11.0725 C23.38875,11.0725 24.800625,11.3125 26.240625,11.7925 C27.680625,12.2725 29.02,12.92 30.25875,13.735 C31.4975,14.55 32.563125,15.314375 33.455625,16.028125 C34.348125,16.741875 35.19625,17.500625 36,18.304375 C36.80375,17.500625 37.651875,16.741875 38.544375,16.028125 C39.436875,15.314375 40.5025,14.55 41.74125,13.735 C42.98,12.92 44.319375,12.2725 45.759375,11.7925 C47.199375,11.3125 48.61125,11.0725 49.995,11.0725 C54.995,11.0725 58.9125,12.45625 61.7475,15.22375 C64.5825,17.99125 66,21.830625 66,26.741875 C66,31.674375 63.444375,36.696875 58.333125,41.809375 L37.47375,61.898125 C37.0725,62.299375 36.58125,62.5 36,62.5 Z"/>
  </defs>
  <use xlink:href="#heart-a"/>
</svg>
