<svg xmlns="http://www.w3.org/2000/svg" xmlns:xlink="http://www.w3.org/1999/xlink" width="24" height="24" viewBox="0 0 72 72">
  <defs>
    <path id="in-a" d="M31,6 L62,6 C63.1045695,6 64,6.8954305 64,8 L64,64 C64,65.1045695 63.1045695,66 62,66 L31,66 L31,6 Z M31,13 L31,59 L57,59 L57,13 L31,13 Z M26.2647746,21.5814976 L39.4416307,34.5863568 C39.8138769,34.9342368 40,35.3698996 40,35.8933452 C40,36.4167908 39.8138769,36.8524535 39.4416307,37.2003335 L26.2647746,50.2051928 C25.6959736,50.8055838 25.009679,50.9410511 24.2058908,50.6115946 C23.4416331,50.2821382 23.0595043,49.7110081 23.0595043,48.8982044 L23.0595043,41.467553 L9.88264815,41.467553 C9.37314305,41.467553 8.93171837,41.2838593 8.55837411,40.9164721 C8.18502985,40.5490848 7.99890676,40.113422 8.00000483,39.6094837 L8.00000483,32.1788323 C8.00000483,31.6759777 8.18612792,31.2403149 8.55837411,30.8718439 C8.9306203,30.5033729 9.37204498,30.3196792 9.88264815,30.320763 L23.0595043,30.320763 L23.0595043,22.8901115 C23.0595043,22.0773078 23.4416331,21.5061778 24.2058908,21.1767213 C25.009679,20.8456393 25.6959736,20.9811066 26.2647746,21.5814976 Z"/>
  </defs>
  <use xlink:href="#in-a"/>
</svg>
