<svg width="32" height="32" viewBox="0 0 24 24" xmlns="http://www.w3.org/2000/svg">
<path d="M4.53529 21C4.11176 21 3.75 20.85 3.45 20.55C3.15 20.25 3 19.8882 3 19.4647V4.53529C3 4.11176 3.15 3.75 3.45 3.45C3.75 3.15 4.11176 3 4.53529 3H19.4647C19.8882 3 20.25 3.15 20.55 3.45C20.85 3.75 21 4.11176 21 4.53529V19.4647C21 19.8882 20.85 20.25 20.55 20.55C20.25 20.85 19.8882 21 19.4647 21H4.53529ZM4.53529 19.8088H19.4647C19.5706 19.8088 19.6544 19.7779 19.7162 19.7162C19.7779 19.6544 19.8088 19.5706 19.8088 19.4647V16.1029H15.8118C15.4059 16.8088 14.8588 17.3471 14.1706 17.7176C13.4824 18.0882 12.7588 18.2735 12 18.2735C11.2412 18.2735 10.5176 18.0882 9.82941 17.7176C9.14118 17.3471 8.59412 16.8088 8.18824 16.1029H4.19118V19.4647C4.19118 19.5706 4.22206 19.6544 4.28382 19.7162C4.34559 19.7779 4.42941 19.8088 4.53529 19.8088V19.8088ZM12 17.0824C12.5824 17.0824 13.1029 16.9456 13.5618 16.6721C14.0206 16.3985 14.4529 15.9618 14.8588 15.3618C14.9824 15.2029 15.1191 15.0882 15.2691 15.0176C15.4191 14.9471 15.6441 14.9118 15.9441 14.9118H19.8088V4.53529C19.8088 4.42941 19.7779 4.34559 19.7162 4.28382C19.6544 4.22206 19.5706 4.19118 19.4647 4.19118H4.53529C4.42941 4.19118 4.34559 4.22206 4.28382 4.28382C4.22206 4.34559 4.19118 4.42941 4.19118 4.53529V14.9118H8.08235C8.36471 14.9118 8.58088 14.9426 8.73088 15.0044C8.88088 15.0662 9.01765 15.1853 9.14118 15.3618C9.49412 15.9618 9.91324 16.3985 10.3985 16.6721C10.8838 16.9456 11.4176 17.0824 12 17.0824ZM12 13.0324C11.8941 13.0324 11.7971 13.0147 11.7088 12.9794C11.6206 12.9441 11.5412 12.8824 11.4706 12.7941L8.69118 9.98824C8.56765 9.9 8.51029 9.77206 8.51912 9.60441C8.52794 9.43677 8.59412 9.29118 8.71765 9.16765C8.84118 9.04412 8.98235 8.98235 9.14118 8.98235C9.3 8.98235 9.44118 9.04412 9.56471 9.16765L11.3912 10.9941V6.46765C11.3912 6.30882 11.4485 6.17206 11.5632 6.05735C11.6779 5.94265 11.8235 5.88529 12 5.88529C12.1765 5.88529 12.3221 5.94265 12.4368 6.05735C12.5515 6.17206 12.6088 6.30882 12.6088 6.46765V10.9941L14.4618 9.14118C14.5676 9.03529 14.7044 8.98235 14.8721 8.98235C15.0397 8.98235 15.1853 9.03529 15.3088 9.14118C15.4324 9.26471 15.4941 9.41029 15.4941 9.57794C15.4941 9.74559 15.4324 9.89118 15.3088 10.0147L12.5294 12.7941C12.4588 12.8824 12.3794 12.9441 12.2912 12.9794C12.2029 13.0147 12.1059 13.0324 12 13.0324ZM4.53529 19.8088H4.19118H19.8088H19.4647H4.53529Z" />
</svg>
