<?xml version="1.0" encoding="UTF-8"?>
<svg width="32px" height="32px" viewBox="0 0 32 32" version="1.1" xmlns="http://www.w3.org/2000/svg" xmlns:xlink="http://www.w3.org/1999/xlink">
    <title>Erstanfragen</title>
    <g id="Erstanfragen" stroke="none" stroke-width="1"  >
        <g id="inbox" transform="translate(3.000000, 3.500000)" >
            <g id="Group-4" transform="translate(0.037037, 0.060418)">
                <path d="M25.7956626,13.8159259 L22.4244856,6.56185185 C22.3084527,6.35899588 22.0854897,6.24169547 21.8525597,6.26088066 L18.9629712,6.26088066 C18.6304856,6.26088066 18.3609712,6.53039506 18.3609712,6.86288066 C18.3609712,7.19536626 18.6304856,7.46488066 18.9629712,7.46488066 L21.461251,7.46488066 L24.2605597,13.4848807 L20.829177,13.4848807 C19.2733909,13.4772181 17.8584691,14.3850864 17.217177,15.8026008 C16.7526996,16.7775885 15.7687243,17.3983704 14.6887654,17.3979095 L11.197177,17.3979095 C10.1172181,17.3983704 9.13330041,16.7775885 8.66876543,15.8026008 C8.02747325,14.3850864 6.61255144,13.4772181 5.05676543,13.4848807 L1.68558848,13.4848807 L4.99655967,7.46488066 L6.92297119,7.46488066 C7.25545679,7.46488066 7.52497119,7.19536626 7.52497119,6.86288066 C7.52497119,6.53039506 7.25545679,6.26088066 6.92297119,6.26088066 L4.63538272,6.26088066 C4.41783539,6.24025514 4.20760494,6.34539918 4.09358848,6.53177778 L0.120411523,13.8159259 C0.0507572016,13.8776872 0.00760493827,13.9639342 2.26978929e-13,14.056749 L2.26978929e-13,21.5516461 C0.0479341564,23.2386749 1.41290535,24.5903951 3.10027984,24.6218519 L22.7856626,24.6218519 C24.4730947,24.5903951 25.8380082,23.2386749 25.8859424,21.5516461 L25.8859424,14.056749 C25.874535,13.9706173 25.8436543,13.8882881 25.7956626,13.8159259 Z" id="Path"></path>
                <path d="M12.5215885,13.9362798 C12.7351029,14.169037 13.0969136,14.1845926 13.3296132,13.9710206 C13.3417119,13.9599588 13.3532922,13.948321 13.3643539,13.9362798 L17.4579424,9.81255967 C17.6573992,9.54655967 17.6035309,9.16925103 17.3375309,8.96973663 C17.1234979,8.80922634 16.8291523,8.80922634 16.6151193,8.96973663 L13.5449136,12.0399424 L13.5449136,0.602 C13.5449136,0.269514403 13.2753992,3.37178845e-14 12.9429136,3.37178845e-14 C12.610428,3.37178845e-14 12.3409136,0.269514403 12.3409136,0.602 L12.3409136,12.04 L9.27070782,8.96979424 C9.00470782,8.77033745 8.62739918,8.82420576 8.42788477,9.09020576 C8.26737449,9.30423868 8.26737449,9.59858436 8.42788477,9.81261728 L12.5215885,13.9362798 Z" id="Path" ></path>
            </g>
        </g>
    </g>
</svg>