<svg width="32" height="32" viewBox="0 0 24 24" xmlns="http://www.w3.org/2000/svg">
<path d="M4.45 21C4.05 21 3.70833 20.8583 3.425 20.575C3.14167 20.2917 3 19.95 3 19.55V5.45C3 5.05 3.14167 4.70833 3.425 4.425C3.70833 4.14167 4.05 4 4.45 4H18.55C18.95 4 19.2917 4.14167 19.575 4.425C19.8583 4.70833 20 5.05 20 5.45V19.55C20 19.95 19.8583 20.2917 19.575 20.575C19.2917 20.8583 18.95 21 18.55 21H4.45ZM4.45 19.875H18.55C18.65 19.875 18.7292 19.8458 18.7875 19.7875C18.8458 19.7292 18.875 19.65 18.875 19.55V16.375H15.1C14.7167 17.0417 14.2 17.55 13.55 17.9C12.9 18.25 12.2167 18.425 11.5 18.425C10.7833 18.425 10.1 18.25 9.45 17.9C8.8 17.55 8.28333 17.0417 7.9 16.375H4.125V19.55C4.125 19.65 4.15417 19.7292 4.2125 19.7875C4.27083 19.8458 4.35 19.875 4.45 19.875ZM11.5 17.3C12.05 17.3 12.5417 17.1708 12.975 16.9125C13.4083 16.6542 13.8167 16.2417 14.2 15.675C14.3167 15.525 14.4458 15.4167 14.5875 15.35C14.7292 15.2833 14.9417 15.25 15.225 15.25H18.875V5.45C18.875 5.35 18.8458 5.27083 18.7875 5.2125C18.7292 5.15417 18.65 5.125 18.55 5.125H4.45C4.35 5.125 4.27083 5.15417 4.2125 5.2125C4.15417 5.27083 4.125 5.35 4.125 5.45V15.25H7.8C8.06667 15.25 8.27083 15.2792 8.4125 15.3375C8.55417 15.3958 8.68333 15.5083 8.8 15.675C9.13333 16.2417 9.52917 16.6542 9.9875 16.9125C10.4458 17.1708 10.95 17.3 11.5 17.3ZM11.5 13.475C11.4 13.475 11.3083 13.4583 11.225 13.425C11.1417 13.3917 11.0667 13.3333 11 13.25L8.375 10.6C8.25833 10.5167 8.20417 10.3958 8.2125 10.2375C8.22083 10.0792 8.28333 9.94167 8.4 9.825C8.51667 9.70833 8.65 9.65 8.8 9.65C8.95 9.65 9.08333 9.70833 9.2 9.825L10.925 11.55V7.275C10.925 7.125 10.9792 6.99583 11.0875 6.8875C11.1958 6.77917 11.3333 6.725 11.5 6.725C11.6667 6.725 11.8042 6.77917 11.9125 6.8875C12.0208 6.99583 12.075 7.125 12.075 7.275V11.55L13.825 9.8C13.925 9.7 14.0542 9.65 14.2125 9.65C14.3708 9.65 14.5083 9.7 14.625 9.8C14.7417 9.91667 14.8 10.0542 14.8 10.2125C14.8 10.3708 14.7417 10.5083 14.625 10.625L12 13.25C11.9333 13.3333 11.8583 13.3917 11.775 13.425C11.6917 13.4583 11.6 13.475 11.5 13.475ZM4.45 19.875H4.125H18.875H18.55H4.45Z" />
</svg>
