<svg width="32" height="32" viewBox="0 0 24 24" xmlns="http://www.w3.org/2000/svg">
<path d="M4.45 21C4.05 21 3.70833 20.8583 3.425 20.575C3.14167 20.2917 3 19.95 3 19.55V5.45C3 5.05 3.14167 4.70833 3.425 4.425C3.70833 4.14167 4.05 4 4.45 4H18.55C18.95 4 19.2917 4.14167 19.575 4.425C19.8583 4.70833 20 5.05 20 5.45V19.55C20 19.95 19.8583 20.2917 19.575 20.575C19.2917 20.8583 18.95 21 18.55 21H4.45ZM11.5 17.3C12.05 17.3 12.5417 17.1708 12.975 16.9125C13.4083 16.6542 13.8167 16.2417 14.2 15.675C14.3167 15.525 14.4458 15.4167 14.5875 15.35C14.7292 15.2833 14.9417 15.25 15.225 15.25H18.875V5.45C18.875 5.35 18.8458 5.27083 18.7875 5.2125C18.7292 5.15417 18.65 5.125 18.55 5.125H4.45C4.35 5.125 4.27083 5.15417 4.2125 5.2125C4.15417 5.27083 4.125 5.35 4.125 5.45V15.25H7.8C8.06667 15.25 8.27083 15.2792 8.4125 15.3375C8.55417 15.3958 8.68333 15.5083 8.8 15.675C9.13333 16.2417 9.52917 16.6542 9.9875 16.9125C10.4458 17.1708 10.95 17.3 11.5 17.3ZM11.5 13.475C11.4 13.475 11.3083 13.4583 11.225 13.425C11.1417 13.3917 11.0667 13.3333 11 13.25L8.375 10.6C8.25833 10.5 8.2 10.375 8.2 10.225C8.2 10.075 8.26667 9.94167 8.4 9.825C8.5 9.70833 8.62917 9.65 8.7875 9.65C8.94583 9.65 9.08333 9.70833 9.2 9.825L10.925 11.55V7.275C10.925 7.125 10.9792 6.99583 11.0875 6.8875C11.1958 6.77917 11.3333 6.725 11.5 6.725C11.6667 6.725 11.8042 6.77917 11.9125 6.8875C12.0208 6.99583 12.075 7.125 12.075 7.275V11.55L13.825 9.8C13.9417 9.7 14.0708 9.65 14.2125 9.65C14.3542 9.65 14.4917 9.70833 14.625 9.825C14.725 9.925 14.775 10.0583 14.775 10.225C14.775 10.3917 14.725 10.525 14.625 10.625L12 13.25C11.9333 13.3333 11.8583 13.3917 11.775 13.425C11.6917 13.4583 11.6 13.475 11.5 13.475Z" />
</svg>
