<svg width="24" height="24" viewBox="0 0 24 24" xmlns="http://www.w3.org/2000/svg">
<path d="M12 21C10.7684 21 9.60379 20.7632 8.50611 20.2895C7.40905 19.8158 6.45379 19.1722 5.64032 18.3587C4.82747 17.5459 4.18421 16.5909 3.71053 15.4939C3.23684 14.3962 3 13.2316 3 12C3 10.7526 3.23684 9.58421 3.71053 8.49474C4.18421 7.40526 4.82747 6.45379 5.64032 5.64032C6.45379 4.82747 7.40905 4.18421 8.50611 3.71053C9.60379 3.23684 10.7684 3 12 3C13.2474 3 14.4158 3.23684 15.5053 3.71053C16.5947 4.18421 17.5459 4.82747 18.3587 5.64032C19.1722 6.45379 19.8158 7.40526 20.2895 8.49474C20.7632 9.58421 21 10.7526 21 12C21 13.2316 20.7632 14.3962 20.2895 15.4939C19.8158 16.5909 19.1722 17.5459 18.3587 18.3587C17.5459 19.1722 16.5947 19.8158 15.5053 20.2895C14.4158 20.7632 13.2474 21 12 21ZM12 19.5553C12.4895 18.9237 12.8962 18.2804 13.2202 17.6255C13.5436 16.9699 13.8158 16.2553 14.0368 15.4816H9.96316C10.1842 16.2711 10.4567 16.9933 10.7807 17.6482C11.1041 18.3038 11.5105 18.9395 12 19.5553ZM10.1763 19.2947C9.81316 18.7737 9.48568 18.1816 9.19389 17.5184C8.90147 16.8553 8.67632 16.1763 8.51842 15.4816H5.29737C5.80263 16.4605 6.47368 17.2857 7.31053 17.9571C8.14737 18.6278 9.10263 19.0737 10.1763 19.2947ZM13.8237 19.2947C14.8974 19.0737 15.8526 18.6278 16.6895 17.9571C17.5263 17.2857 18.1974 16.4605 18.7026 15.4816H15.4816C15.2921 16.1763 15.0553 16.8591 14.7711 17.5298C14.4868 18.2012 14.1711 18.7895 13.8237 19.2947ZM4.70526 14.0605H8.23421C8.17105 13.7132 8.12368 13.3696 8.09211 13.0298C8.06053 12.6906 8.04474 12.3474 8.04474 12C8.04474 11.6526 8.06053 11.3091 8.09211 10.9693C8.12368 10.6301 8.17105 10.2868 8.23421 9.93947H4.70526C4.61053 10.2553 4.53947 10.5868 4.49211 10.9342C4.44474 11.2816 4.42105 11.6368 4.42105 12C4.42105 12.3632 4.44474 12.7184 4.49211 13.0658C4.53947 13.4132 4.61053 13.7447 4.70526 14.0605ZM9.65526 14.0605H14.3447C14.4079 13.7132 14.4553 13.3737 14.4868 13.0421C14.5184 12.7105 14.5342 12.3632 14.5342 12C14.5342 11.6368 14.5184 11.2895 14.4868 10.9579C14.4553 10.6263 14.4079 10.2868 14.3447 9.93947H9.65526C9.5921 10.2868 9.54474 10.6263 9.51316 10.9579C9.48158 11.2895 9.46579 11.6368 9.46579 12C9.46579 12.3632 9.48158 12.7105 9.51316 13.0421C9.54474 13.3737 9.5921 13.7132 9.65526 14.0605ZM15.7658 14.0605H19.2947C19.3895 13.7447 19.4605 13.4132 19.5079 13.0658C19.5553 12.7184 19.5789 12.3632 19.5789 12C19.5789 11.6368 19.5553 11.2816 19.5079 10.9342C19.4605 10.5868 19.3895 10.2553 19.2947 9.93947H15.7658C15.8289 10.2868 15.8763 10.6301 15.9079 10.9693C15.9395 11.3091 15.9553 11.6526 15.9553 12C15.9553 12.3474 15.9395 12.6906 15.9079 13.0298C15.8763 13.3696 15.8289 13.7132 15.7658 14.0605ZM15.4816 8.51842H18.7026C18.1974 7.52368 17.5304 6.69853 16.7018 6.04295C15.8725 5.388 14.9132 4.93421 13.8237 4.68158C14.1868 5.23421 14.5105 5.838 14.7947 6.49295C15.0789 7.14853 15.3079 7.82368 15.4816 8.51842ZM9.96316 8.51842H14.0368C13.8158 7.72895 13.5357 6.99853 13.1965 6.32716C12.8567 5.65642 12.4579 5.02895 12 4.44474C11.5421 5.02895 11.1436 5.65642 10.8044 6.32716C10.4646 6.99853 10.1842 7.72895 9.96316 8.51842ZM5.29737 8.51842H8.51842C8.69211 7.82368 8.92105 7.14853 9.20526 6.49295C9.48947 5.838 9.81316 5.23421 10.1763 4.68158C9.07105 4.93421 8.10789 5.388 7.28684 6.04295C6.46579 6.69853 5.80263 7.52368 5.29737 8.51842Z" />
</svg>
