<svg width="24" height="24" viewBox="0 0 24 24" xmlns="http://www.w3.org/2000/svg">
<path d="M12 21C10.7667 21 9.6 20.7627 8.5 20.288C7.4 19.8127 6.446 19.1707 5.638 18.362C4.82933 17.554 4.18733 16.6 3.712 15.5C3.23733 14.4 3 13.2333 3 12C3 10.75 3.23733 9.579 3.712 8.487C4.18733 7.39567 4.82933 6.44567 5.638 5.637C6.446 4.829 7.4 4.18733 8.5 3.712C9.6 3.23733 10.7667 3 12 3C13.25 3 14.421 3.23733 15.513 3.712C16.6043 4.18733 17.5543 4.829 18.363 5.637C19.171 6.44567 19.8127 7.39567 20.288 8.487C20.7627 9.579 21 10.75 21 12C21 13.2333 20.7627 14.4 20.288 15.5C19.8127 16.6 19.171 17.554 18.363 18.362C17.5543 19.1707 16.6043 19.8127 15.513 20.288C14.421 20.7627 13.25 21 12 21ZM12 20C12.5833 19.25 13.0667 18.5127 13.45 17.788C13.8333 17.0627 14.1417 16.25 14.375 15.35H9.625C9.89167 16.3 10.2083 17.1373 10.575 17.862C10.9417 18.5873 11.4167 19.3 12 20ZM10.725 19.85C10.2583 19.3 9.83333 18.6207 9.45 17.812C9.06667 17.004 8.78333 16.1833 8.6 15.35H4.75C5.33333 16.5833 6.15 17.6 7.2 18.4C8.25 19.2 9.425 19.6833 10.725 19.85ZM13.275 19.85C14.575 19.6833 15.75 19.2 16.8 18.4C17.85 17.6 18.6667 16.5833 19.25 15.35H15.4C15.15 16.2 14.8333 17.029 14.45 17.837C14.0667 18.6457 13.675 19.3167 13.275 19.85ZM4.35 14.35H8.375C8.30833 13.9333 8.25833 13.5333 8.225 13.15C8.19167 12.7667 8.175 12.3833 8.175 12C8.175 11.6167 8.19167 11.2333 8.225 10.85C8.25833 10.4667 8.30833 10.0667 8.375 9.65H4.35C4.23333 10 4.146 10.379 4.088 10.787C4.02933 11.1957 4 11.6 4 12C4 12.4 4.02933 12.804 4.088 13.212C4.146 13.6207 4.23333 14 4.35 14.35ZM9.375 14.35H14.625C14.6917 13.9333 14.7417 13.5373 14.775 13.162C14.8083 12.7873 14.825 12.4 14.825 12C14.825 11.6 14.8083 11.2123 14.775 10.837C14.7417 10.4623 14.6917 10.0667 14.625 9.65H9.375C9.30833 10.0667 9.25833 10.4623 9.225 10.837C9.19167 11.2123 9.175 11.6 9.175 12C9.175 12.4 9.19167 12.7873 9.225 13.162C9.25833 13.5373 9.30833 13.9333 9.375 14.35ZM15.625 14.35H19.65C19.7667 14 19.8543 13.6207 19.913 13.212C19.971 12.804 20 12.4 20 12C20 11.6 19.971 11.1957 19.913 10.787C19.8543 10.379 19.7667 10 19.65 9.65H15.625C15.6917 10.0667 15.7417 10.4667 15.775 10.85C15.8083 11.2333 15.825 11.6167 15.825 12C15.825 12.3833 15.8083 12.7667 15.775 13.15C15.7417 13.5333 15.6917 13.9333 15.625 14.35ZM15.4 8.65H19.25C18.6667 7.38333 17.8623 6.36667 16.837 5.6C15.8123 4.83333 14.625 4.34167 13.275 4.125C13.7417 4.74167 14.1627 5.446 14.538 6.238C14.9127 7.02933 15.2 7.83333 15.4 8.65ZM9.625 8.65H14.375C14.1083 7.71667 13.7833 6.87067 13.4 6.112C13.0167 5.354 12.55 4.65 12 4C11.45 4.65 10.9833 5.354 10.6 6.112C10.2167 6.87067 9.89167 7.71667 9.625 8.65ZM4.75 8.65H8.6C8.8 7.83333 9.08767 7.02933 9.463 6.238C9.83767 5.446 10.2583 4.74167 10.725 4.125C9.35833 4.34167 8.16667 4.83733 7.15 5.612C6.13333 6.38733 5.33333 7.4 4.75 8.65Z" />
</svg>
