<svg xmlns="http://www.w3.org/2000/svg" xmlns:xlink="http://www.w3.org/1999/xlink" width="24" height="24" viewBox="0 0 72 72">
  <defs>
    <path id="list-a" d="M28,30 L64,30 C65.1045695,30 66,30.8954305 66,32 L66,40 C66,41.1045695 65.1045695,42 64,42 L28,42 C26.8954305,42 26,41.1045695 26,40 L26,32 C26,30.8954305 26.8954305,30 28,30 Z M28,46 L64,46 C65.1045695,46 66,46.8954305 66,48 L66,56 C66,57.1045695 65.1045695,58 64,58 L28,58 C26.8954305,58 26,57.1045695 26,56 L26,48 C26,46.8954305 26.8954305,46 28,46 Z M28,14 L64,14 C65.1045695,14 66,14.8954305 66,16 L66,24 C66,25.1045695 65.1045695,26 64,26 L28,26 C26.8954305,26 26,25.1045695 26,24 L26,16 C26,14.8954305 26.8954305,14 28,14 Z M8,30 L16,30 C17.1045695,30 18,30.8954305 18,32 L18,40 C18,41.1045695 17.1045695,42 16,42 L8,42 C6.8954305,42 6,41.1045695 6,40 L6,32 C6,30.8954305 6.8954305,30 8,30 Z M8,46 L16,46 C17.1045695,46 18,46.8954305 18,48 L18,56 C18,57.1045695 17.1045695,58 16,58 L8,58 C6.8954305,58 6,57.1045695 6,56 L6,48 C6,46.8954305 6.8954305,46 8,46 Z M8,14 L16,14 C17.1045695,14 18,14.8954305 18,16 L18,24 C18,25.1045695 17.1045695,26 16,26 L8,26 C6.8954305,26 6,25.1045695 6,24 L6,16 C6,14.8954305 6.8954305,14 8,14 Z"/>
  </defs>
  <use xlink:href="#list-a"/>
</svg>
