<?xml version="1.0" encoding="UTF-8"?>
<svg width="32px" height="32px" viewBox="0 0 32 32" version="1.1" xmlns="http://www.w3.org/2000/svg" xmlns:xlink="http://www.w3.org/1999/xlink">
    <title>LiveChats</title>
    <defs>
        <path d="M27.5706215,10.5762712 C28.540113,10.5762712 29.3333333,11.4101695 29.3333333,12.4293785 L29.3333333,29.1073446 L25.3634652,25.4011299 L13.4689266,25.4011299 C12.499435,25.4011299 11.7062147,24.5672316 11.7062147,23.5480226 L11.7062147,19.6992612 L19.2209337,19.6992612 C21.2940094,19.6992612 22.9818614,17.9248526 22.9818614,15.7454654 L22.9818614,10.5762712 L27.5706215,10.5762712 Z M18.5310734,2.89265537 C19.500565,2.89265537 20.2937853,3.70621469 20.2937853,4.70056497 L20.2937853,4.70056497 L20.2937853,15.5480226 C20.2937853,16.5423729 19.500565,17.3559322 18.5310734,17.3559322 L18.5310734,17.3559322 L6.63653484,17.3559322 L2.66666667,20.9717514 L2.66666667,4.70056497 C2.66666667,3.70621469 3.45988701,2.89265537 4.42937853,2.89265537 L4.42937853,2.89265537 Z M7.5,12.0762712 C8.32842712,12.0762712 9,11.4046983 9,10.5762712 C9,9.74784406 8.32842712,9.07627119 7.5,9.07627119 C6.67157288,9.07627119 6,9.74784406 6,10.5762712 C6,11.4046983 6.67157288,12.0762712 7.5,12.0762712 Z M11.5,12.0762712 C12.3284271,12.0762712 13,11.4046983 13,10.5762712 C13,9.74784406 12.3284271,9.07627119 11.5,9.07627119 C10.6715729,9.07627119 10,9.74784406 10,10.5762712 C10,11.4046983 10.6715729,12.0762712 11.5,12.0762712 Z M15.5,12.0762712 C16.3284271,12.0762712 17,11.4046983 17,10.5762712 C17,9.74784406 16.3284271,9.07627119 15.5,9.07627119 C14.6715729,9.07627119 14,9.74784406 14,10.5762712 C14,11.4046983 14.6715729,12.0762712 15.5,12.0762712 Z" id="path-1"></path>
    </defs>
    <g id="LiveChats" stroke="none" stroke-width="1" fill="none" fill-rule="evenodd">
        <mask id="mask-2" fill="white">
            <use xlink:href="#path-1"></use>
        </mask>
        <use id="speech-bubble" fill="#FFFFFF" fill-rule="nonzero" xlink:href="#path-1"></use>
    </g>
</svg>