<svg width="12" height="14" viewBox="0 0 12 14" fill="none" xmlns="http://www.w3.org/2000/svg">
<path d="M6.00002 0.333252C3.20002 0.333252 0.666687 2.47992 0.666687 5.79992C0.666687 7.91992 2.30002 10.4133 5.56002 13.2866C5.81335 13.5066 6.19335 13.5066 6.44669 13.2866C9.70002 10.4133 11.3334 7.91992 11.3334 5.79992C11.3334 2.47992 8.80002 0.333252 6.00002 0.333252ZM6.00002 6.99992C5.26669 6.99992 4.66669 6.39992 4.66669 5.66659C4.66669 4.93325 5.26669 4.33325 6.00002 4.33325C6.73335 4.33325 7.33335 4.93325 7.33335 5.66659C7.33335 6.39992 6.73335 6.99992 6.00002 6.99992Z" fill="black" fill-opacity="0.9"/>
</svg>
