<svg width="32" height="32" viewBox="0 0 24 24" xmlns="http://www.w3.org/2000/svg">
<path d="M15.725 14.675C15.6083 14.5583 15.55 14.4373 15.55 14.312C15.55 14.1873 15.6083 14.075 15.725 13.975L17.675 12H9.525C9.39167 12 9.275 11.9543 9.175 11.863C9.075 11.771 9.025 11.65 9.025 11.5C9.025 11.35 9.075 11.229 9.175 11.137C9.275 11.0457 9.39167 11 9.525 11H17.675L15.7 9.025C15.6 8.925 15.55 8.80833 15.55 8.675C15.55 8.54167 15.6083 8.425 15.725 8.325C15.825 8.20833 15.9417 8.15 16.075 8.15C16.2083 8.15 16.325 8.20833 16.425 8.325L19.05 10.925C19.1333 11.025 19.1917 11.1207 19.225 11.212C19.2583 11.304 19.275 11.4 19.275 11.5C19.275 11.6 19.2583 11.6957 19.225 11.787C19.1917 11.879 19.1333 11.975 19.05 12.075L16.4 14.7C16.3 14.8 16.1873 14.85 16.062 14.85C15.9373 14.85 15.825 14.7917 15.725 14.675ZM5.6 20C5.15 20 4.77067 19.846 4.462 19.538C4.154 19.2293 4 18.8417 4 18.375V4.625C4 4.15833 4.154 3.771 4.462 3.463C4.77067 3.15433 5.15 3 5.6 3H11.525C11.675 3 11.796 3.04567 11.888 3.137C11.9793 3.229 12.025 3.35 12.025 3.5C12.025 3.65 11.9793 3.77067 11.888 3.862C11.796 3.954 11.675 4 11.525 4H5.6C5.45 4 5.31267 4.06267 5.188 4.188C5.06267 4.31267 5 4.45833 5 4.625V18.375C5 18.5417 5.06267 18.6873 5.188 18.812C5.31267 18.9373 5.45 19 5.6 19H11.525C11.675 19 11.796 19.0457 11.888 19.137C11.9793 19.229 12.025 19.35 12.025 19.5C12.025 19.65 11.9793 19.771 11.888 19.863C11.796 19.9543 11.675 20 11.525 20H5.6Z" />
</svg>
