<svg width="32" height="32" viewBox="0 0 24 24" xmlns="http://www.w3.org/2000/svg">
<path d="M7.09737 14.6816H13.0184C13.1605 14.6816 13.2829 14.6263 13.3855 14.5158C13.4882 14.4053 13.5395 14.2789 13.5395 14.1368C13.5395 13.9789 13.4882 13.8487 13.3855 13.7461C13.2829 13.6434 13.1526 13.5921 12.9947 13.5921H7.07368C6.93158 13.5921 6.80921 13.6474 6.70658 13.7579C6.60395 13.8684 6.55263 13.9947 6.55263 14.1368C6.55263 14.2947 6.60395 14.425 6.70658 14.5276C6.80921 14.6303 6.93947 14.6816 7.09737 14.6816ZM7.09737 11.65H16.9263C17.0684 11.65 17.1908 11.5987 17.2934 11.4961C17.3961 11.3934 17.4474 11.2632 17.4474 11.1053C17.4474 10.9632 17.3961 10.8408 17.2934 10.7382C17.1908 10.6355 17.0605 10.5842 16.9026 10.5842H7.07368C6.93158 10.5842 6.80921 10.6355 6.70658 10.7382C6.60395 10.8408 6.55263 10.9711 6.55263 11.1289C6.55263 11.2868 6.60395 11.4132 6.70658 11.5079C6.80921 11.6026 6.93947 11.65 7.09737 11.65ZM7.09737 8.64211H16.9263C17.0684 8.64211 17.1908 8.59079 17.2934 8.48816C17.3961 8.38553 17.4474 8.25526 17.4474 8.09737C17.4474 7.93947 17.3961 7.81316 17.2934 7.71842C17.1908 7.62368 17.0605 7.57632 16.9026 7.57632H7.07368C6.93158 7.57632 6.80921 7.62763 6.70658 7.73026C6.60395 7.83289 6.55263 7.96316 6.55263 8.12105C6.55263 8.26316 6.60395 8.38553 6.70658 8.48816C6.80921 8.59079 6.93947 8.64211 7.09737 8.64211ZM3 19.9158V5.37368C3 5.01053 3.13421 4.69079 3.40263 4.41447C3.67105 4.13816 3.99474 4 4.37368 4H19.6263C19.9895 4 20.3092 4.13816 20.5855 4.41447C20.8618 4.69079 21 5.01053 21 5.37368V16.8368C21 17.2 20.8618 17.5197 20.5855 17.7961C20.3092 18.0724 19.9895 18.2105 19.6263 18.2105H6.36316L4.16053 20.3895C3.93947 20.6105 3.69079 20.6618 3.41447 20.5434C3.13816 20.425 3 20.2158 3 19.9158ZM4.06579 18.9684L5.88947 17.1447H19.6263C19.7211 17.1447 19.7961 17.1171 19.8513 17.0618C19.9066 17.0066 19.9342 16.9316 19.9342 16.8368V5.37368C19.9342 5.27895 19.9066 5.20395 19.8513 5.14868C19.7961 5.09342 19.7211 5.06579 19.6263 5.06579H4.37368C4.27895 5.06579 4.20395 5.09342 4.14868 5.14868C4.09342 5.20395 4.06579 5.27895 4.06579 5.37368V18.9684ZM4.06579 5.37368V5.06579V18.9684V5.37368Z" />
</svg>
