<svg width="32" height="32" viewBox="0 0 24 24" xmlns="http://www.w3.org/2000/svg">
<path d="M15.6403 15.5375C15.4671 15.3329 15.3806 15.1005 15.3806 14.8405C15.3806 14.5811 15.4671 14.3648 15.6403 14.1917L17.3875 12.4444H10.6111C10.3435 12.4444 10.1194 12.3538 9.93867 12.1724C9.75733 11.9917 9.66667 11.7676 9.66667 11.5C9.66667 11.2324 9.75733 11.0079 9.93867 10.8266C10.1194 10.6459 10.3435 10.5556 10.6111 10.5556H17.3875L15.6403 8.80833C15.4514 8.61944 15.3569 8.3953 15.3569 8.13589C15.3569 7.87585 15.4514 7.65139 15.6403 7.4625C15.8134 7.27361 16.03 7.17917 16.2901 7.17917C16.5495 7.17917 16.7657 7.26574 16.9389 7.43889L20.3389 10.8389C20.4333 10.9333 20.5004 11.0356 20.5401 11.1458C20.5791 11.256 20.5986 11.3741 20.5986 11.5C20.5986 11.6259 20.5791 11.744 20.5401 11.8542C20.5004 11.9644 20.4333 12.0667 20.3389 12.1611L16.9389 15.5611C16.7343 15.7657 16.5101 15.8561 16.2664 15.8322C16.0221 15.8089 15.8134 15.7106 15.6403 15.5375ZM5.88889 20C5.36944 20 4.92461 19.8152 4.55439 19.4456C4.1848 19.0754 4 18.6306 4 18.1111V4.88889C4 4.36944 4.1848 3.92461 4.55439 3.55439C4.92461 3.1848 5.36944 3 5.88889 3H11.5556C11.8231 3 12.0476 3.09035 12.2289 3.27106C12.4096 3.45239 12.5 3.67685 12.5 3.94444C12.5 4.21204 12.4096 4.43619 12.2289 4.61689C12.0476 4.79822 11.8231 4.88889 11.5556 4.88889H5.88889V18.1111H11.5556C11.8231 18.1111 12.0476 18.2018 12.2289 18.3831C12.4096 18.5638 12.5 18.788 12.5 19.0556C12.5 19.3231 12.4096 19.5473 12.2289 19.728C12.0476 19.9093 11.8231 20 11.5556 20H5.88889Z" />
</svg>
