<svg width="32" height="32" viewBox="0 0 24 24" xmlns="http://www.w3.org/2000/svg">
<path d="M10.875 21H4.82812C4.30312 21 3.86737 20.8268 3.52087 20.4803C3.17362 20.133 3 19.6969 3 19.1719V4.82812C3 4.30312 3.17362 3.86737 3.52087 3.52087C3.86737 3.17362 4.30312 3 4.82812 3H10.875V21ZM9.75 19.875V4.125H4.82812C4.62187 4.125 4.45313 4.19063 4.32188 4.32188C4.19063 4.45313 4.125 4.62187 4.125 4.82812V19.1719C4.125 19.3781 4.19063 19.5469 4.32188 19.6781C4.45313 19.8094 4.62187 19.875 4.82812 19.875H9.75ZM13.125 10.875V3H19.1719C19.6969 3 20.133 3.17362 20.4803 3.52087C20.8268 3.86737 21 4.30312 21 4.82812V10.875H13.125ZM14.25 9.75H19.875V4.82812C19.875 4.62187 19.8094 4.45313 19.6781 4.32188C19.5469 4.19063 19.3781 4.125 19.1719 4.125H14.25V9.75ZM13.125 21V13.125H21V19.1719C21 19.6969 20.8268 20.133 20.4803 20.4803C20.133 20.8268 19.6969 21 19.1719 21H13.125ZM14.25 19.875H19.1719C19.3781 19.875 19.5469 19.8094 19.6781 19.6781C19.8094 19.5469 19.875 19.3781 19.875 19.1719V14.25H14.25V19.875Z" />
</svg>
