<svg width="32" height="32" viewBox="0 0 24 24" xmlns="http://www.w3.org/2000/svg">
<path d="M10.875 21H4.82812C4.30312 21 3.86737 20.8268 3.52087 20.4803C3.17362 20.133 3 19.6969 3 19.1719V4.82812C3 4.30312 3.17362 3.86737 3.52087 3.52087C3.86737 3.17362 4.30312 3 4.82812 3H10.875V21ZM13.125 10.875V3H19.1719C19.6969 3 20.133 3.17362 20.4803 3.52087C20.8268 3.86737 21 4.30312 21 4.82812V10.875H13.125ZM13.125 21V13.125H21V19.1719C21 19.6969 20.8268 20.133 20.4803 20.4803C20.133 20.8268 19.6969 21 19.1719 21H13.125Z" />
</svg>
