<svg xmlns="http://www.w3.org/2000/svg" xmlns:xlink="http://www.w3.org/1999/xlink" width="24" height="24" viewBox="0 0 72 72">
  <defs>
    <path id="persons-two-a" d="M15.8558584,35.8496732 C16.0511692,36.0924175 16.2598314,36.3292121 16.4818453,36.560057 C18.3277048,38.4793396 20.5691057,39.4389808 23.0742008,39.4389808 C25.711143,39.4389808 27.9525439,38.4793396 29.7984034,36.560057 C30.0204172,36.3292121 30.2290795,36.0924175 30.4243903,35.8496732 L32.5671927,35.8496732 C37.3003074,35.8496732 41.1372549,39.8671426 41.1372549,44.8229423 L41.1372549,58.2828459 C35.9064203,62.2903604 29.7375239,64.2941176 23.5686275,64.2941176 C17.399731,64.2941176 11.2308346,62.2903604 6,58.2828459 L6,44.8229423 C6,39.8671426 9.83694753,35.8496732 14.5700622,35.8496732 L15.8558584,35.8496732 Z M47.0389526,22.3137255 C47.1854357,22.4957837 47.3419324,22.6733797 47.5084428,22.8465133 C48.8928374,24.2859753 50.5738881,25.0057062 52.4527094,25.0057062 C54.4304161,25.0057062 56.1114667,24.2859753 57.4958614,22.8465133 C57.6623718,22.6733797 57.8188685,22.4957837 57.9653515,22.3137255 L59.5724534,22.3137255 C63.1222894,22.3137255 66,25.3268275 66,29.0436773 L66,39.138605 C62.076874,42.1442409 57.4502017,43.6470588 52.8235294,43.6470588 C48.1968571,43.6470588 43.5701848,42.1442409 39.6470588,39.138605 L39.6470588,29.0436773 C39.6470588,25.3268275 42.5247695,22.3137255 46.0746055,22.3137255 L47.0389526,22.3137255 Z M23.5042735,14.0980392 C26.0784314,14.0980392 28.2664656,14.9927378 30.0683761,16.7821351 C31.8702866,18.5715323 32.7712418,20.7443718 32.7712418,23.3006536 C32.7712418,25.8569354 31.8702866,28.0297749 30.0683761,29.8191721 C28.2664656,31.6085694 26.0784314,32.503268 23.5042735,32.503268 C21.0588235,32.503268 18.8707893,31.6085694 17.0688788,29.8191721 C15.2669683,28.0297749 14.3660131,25.8569354 14.3660131,23.3006536 C14.3660131,20.7443718 15.2669683,18.6993464 16.9401709,16.7821351 C18.7420814,14.9927378 20.9301156,14.0980392 23.5042735,14.0980392 Z M52.775264,6 C54.7058824,6 56.346908,6.67102397 57.6983409,8.0130719 C59.0497738,9.35511983 59.7254902,10.9847495 59.7254902,12.9019608 C59.7254902,14.8191721 59.0497738,16.4488017 57.6983409,17.7908497 C56.346908,19.1328976 54.7058824,19.8039216 52.775264,19.8039216 C50.9411765,19.8039216 49.3001508,19.1328976 47.9487179,17.7908497 C46.5972851,16.4488017 45.9215686,14.8191721 45.9215686,12.9019608 C45.9215686,10.9847495 46.5972851,9.45098039 47.852187,8.0130719 C49.2036199,6.67102397 50.8446456,6 52.775264,6 Z"/>
  </defs>
  <use xlink:href="#persons-two-a"/>
</svg>
