<svg width="16" height="12" viewBox="0 0 16 12" fill="none" xmlns="http://www.w3.org/2000/svg">
<path d="M0.666626 11.3334V9.46675C0.666626 9.08897 0.763959 8.74164 0.958626 8.42475C1.15285 8.1083 1.41107 7.86675 1.73329 7.70008C2.42218 7.35564 3.12218 7.09719 3.83329 6.92475C4.5444 6.75275 5.26663 6.66675 5.99996 6.66675C6.73329 6.66675 7.45551 6.75275 8.16663 6.92475C8.87774 7.09719 9.57774 7.35564 10.2666 7.70008C10.5888 7.86675 10.8471 8.1083 11.0413 8.42475C11.236 8.74164 11.3333 9.08897 11.3333 9.46675V11.3334H0.666626ZM12.6666 11.3334V9.33342C12.6666 8.84453 12.5306 8.37497 12.2586 7.92475C11.9862 7.47497 11.6 7.08897 11.1 6.76675C11.6666 6.83341 12.2 6.94719 12.7 7.10808C13.2 7.26941 13.6666 7.46675 14.1 7.70008C14.5 7.9223 14.8055 8.16941 15.0166 8.44141C15.2277 8.71386 15.3333 9.01119 15.3333 9.33342V11.3334H12.6666ZM5.99996 6.00008C5.26663 6.00008 4.63885 5.73897 4.11663 5.21675C3.5944 4.69453 3.33329 4.06675 3.33329 3.33341C3.33329 2.60008 3.5944 1.9723 4.11663 1.45008C4.63885 0.927859 5.26663 0.666748 5.99996 0.666748C6.73329 0.666748 7.36107 0.927859 7.88329 1.45008C8.40551 1.9723 8.66663 2.60008 8.66663 3.33341C8.66663 4.06675 8.40551 4.69453 7.88329 5.21675C7.36107 5.73897 6.73329 6.00008 5.99996 6.00008ZM12.6666 3.33341C12.6666 4.06675 12.4055 4.69453 11.8833 5.21675C11.3611 5.73897 10.7333 6.00008 9.99996 6.00008C9.87774 6.00008 9.72218 5.9863 9.53329 5.95875C9.3444 5.93075 9.18885 5.90008 9.06663 5.86675C9.36663 5.51119 9.59707 5.11675 9.75796 4.68341C9.91929 4.25008 9.99996 3.80008 9.99996 3.33341C9.99996 2.86675 9.91929 2.41675 9.75796 1.98341C9.59707 1.55008 9.36663 1.15564 9.06663 0.800081C9.22218 0.744526 9.37774 0.708304 9.53329 0.691415C9.68885 0.67497 9.8444 0.666748 9.99996 0.666748C10.7333 0.666748 11.3611 0.927859 11.8833 1.45008C12.4055 1.9723 12.6666 2.60008 12.6666 3.33341Z" fill="black" fill-opacity="0.6"/>
</svg>
