<?xml version="1.0" encoding="UTF-8"?>
<svg width="24px" height="24px" viewBox="0 0 24 24" version="1.1" xmlns="http://www.w3.org/2000/svg" xmlns:xlink="http://www.w3.org/1999/xlink">
    <title>Single</title>
    <defs>
        <path d="M9.78739938,11.04 C9.84342915,11.1096373 9.90328915,11.1775677 9.96697936,11.2437914 C10.4965103,11.7943855 11.1395122,12.0696826 11.8581614,12.0696826 C12.6146341,12.0696826 13.257636,11.7943855 13.787167,11.2437914 C13.8508572,11.1775677 13.9107172,11.1096373 13.966747,11.04 L14.5814634,11.04 C15.9392757,11.04 17.04,12.1925115 17.04,13.6142066 L17.04,17.4755164 C15.5394043,18.6251721 13.7697022,19.2 12,19.2 C10.2302978,19.2 8.46059568,18.6251721 6.96,17.4755164 L6.96,13.6142066 C6.96,12.1925115 8.06072432,11.04 9.41853659,11.04 L9.78739938,11.04 Z M11.9815385,4.8 C12.72,4.8 13.3476923,5.05666667 13.8646154,5.57 C14.3815385,6.08333333 14.64,6.70666667 14.64,7.44 C14.64,8.17333333 14.3815385,8.79666667 13.8646154,9.31 C13.3476923,9.82333333 12.72,10.08 11.9815385,10.08 C11.28,10.08 10.6523077,9.82333333 10.1353846,9.31 C9.61846154,8.79666667 9.36,8.17333333 9.36,7.44 C9.36,6.70666667 9.61846154,6.12 10.0984615,5.57 C10.6153846,5.05666667 11.2430769,4.8 11.9815385,4.8 Z" id="path-1"></path>
    </defs>
    <g id="21_Scrolling-neue-Nachrichten" stroke="none" stroke-width="1" fill="none" fill-rule="evenodd">
        <g id="Neue-Nachricht_Scrolling_3_Desktop" transform="translate(-135.000000, -311.000000)">
            <g id="Card-01-Copy" transform="translate(120.000000, 275.000000)">
                <g id="Group" transform="translate(15.000000, 36.000000)">
                    <circle id="Oval" fill="#3F373F" fill-rule="nonzero" cx="12" cy="12" r="12"></circle>
                    <mask id="mask-2" fill="white">
                        <use xlink:href="#path-1"></use>
                    </mask>
                    <use id="person" fill="#FFFFFF" fill-rule="nonzero" xlink:href="#path-1"></use>
                </g>
            </g>
        </g>
    </g>
</svg>