<svg xmlns="http://www.w3.org/2000/svg" xmlns:xlink="http://www.w3.org/1999/xlink" width="24" height="24" viewBox="0 0 72 72">
  <defs>
    <path id="persons-a" d="M27,34.695209 C27.4272454,34.6138959 27.8674227,34.5714286 28.3170732,34.5714286 L29.4148791,34.5714286 C29.5816344,34.7786824 29.7597891,34.9808563 29.9493433,35.1779505 C31.5253283,36.8166236 33.4390244,37.6359602 35.5778612,37.6359602 C37.8292683,37.6359602 39.7429644,36.8166236 41.3189493,35.1779505 C41.5085036,34.9808563 41.6866583,34.7786824 41.8534136,34.5714286 L43.6829268,34.5714286 C44.1325773,34.5714286 44.5727546,34.6138959 45,34.695209 L45,32.3629303 C45,29.4010657 47.2931757,27 50.1219512,27 L50.8904154,27 C51.0071441,27.1450776 51.1318524,27.2865994 51.2645403,27.4245653 C52.3677298,28.5716365 53.7073171,29.1451721 55.2045028,29.1451721 C56.7804878,29.1451721 58.120075,28.5716365 59.2232645,27.4245653 C59.3559525,27.2865994 59.4806608,27.1450776 59.5973895,27 L60.8780488,27 C63.7068243,27 66,29.4010657 66,32.3629303 L66,40.4073259 C62.873759,42.802442 59.1868795,44 55.5,44 C53.987087,44 52.474174,43.7983461 51,43.3950384 L51,53.7247512 C46.5339414,57.1463456 41.2669707,58.8571429 36,58.8571429 C30.7330293,58.8571429 25.4660586,57.1463456 21,53.7247512 L21,43.3950384 C19.525826,43.7983461 18.012913,44 16.5,44 C12.8131205,44 9.12624099,42.802442 6,40.4073259 L6,32.3629303 C6,29.4010657 8.29317567,27 11.1219512,27 L11.8904154,27 C12.0071441,27.1450776 12.1318524,27.2865994 12.2645403,27.4245653 C13.3677298,28.5716365 14.7073171,29.1451721 16.2045028,29.1451721 C17.7804878,29.1451721 19.120075,28.5716365 20.2232645,27.4245653 C20.3559525,27.2865994 20.4806608,27.1450776 20.5973895,27 L21.8780488,27 C24.7068243,27 27,29.4010657 27,32.3629303 L27,34.695209 Z M16.4615385,25 C15,25 13.6923077,24.4652778 12.6153846,23.3958333 C11.5384615,22.3263889 11,21.0277778 11,19.5 C11,17.9722222 11.5384615,16.75 12.5384615,15.6041667 C13.6153846,14.5347222 14.9230769,14 16.4615385,14 C18,14 19.3076923,14.5347222 20.3846154,15.6041667 C21.4615385,16.6736111 22,17.9722222 22,19.5 C22,21.0277778 21.4615385,22.3263889 20.3846154,23.3958333 C19.3076923,24.4652778 18,25 16.4615385,25 Z M55.4615385,25 C54,25 52.6923077,24.4652778 51.6153846,23.3958333 C50.5384615,22.3263889 50,21.0277778 50,19.5 C50,17.9722222 50.5384615,16.75 51.5384615,15.6041667 C52.6153846,14.5347222 53.9230769,14 55.4615385,14 C57,14 58.3076923,14.5347222 59.3846154,15.6041667 C60.4615385,16.6736111 61,17.9722222 61,19.5 C61,21.0277778 60.4615385,22.3263889 59.3846154,23.3958333 C58.3076923,24.4652778 57,25 55.4615385,25 Z M35.9450549,31.7142857 C33.8571429,31.7142857 31.989011,30.9503968 30.4505495,29.422619 C28.9120879,27.8948413 28.1428571,26.0396825 28.1428571,23.8571429 C28.1428571,21.6746032 28.9120879,19.9285714 30.3406593,18.2916667 C31.8791209,16.7638889 33.7472527,16 35.9450549,16 C38.1428571,16 40.010989,16.7638889 41.5494505,18.2916667 C43.0879121,19.8194444 43.8571429,21.6746032 43.8571429,23.8571429 C43.8571429,26.0396825 43.0879121,27.8948413 41.5494505,29.422619 C40.010989,30.9503968 38.1428571,31.7142857 35.9450549,31.7142857 Z"/>
  </defs>
  <use xlink:href="#persons-a"/>
</svg>
