<svg xmlns="http://www.w3.org/2000/svg" width="24" height="24" viewBox="0 0 72 72">
  <path d="M36,6 C52.5685425,6 66,19.4314575 66,36 C66,52.5685425 52.5685425,66 36,66 C19.4314575,66 6,52.5685425 6,36 C6,19.4314575 19.4314575,6 36,6 Z M36,12 C22.745166,12 12,22.745166 12,36 C12,43.107965 15.089976,49.4942274 19.9999305,53.8887899 L20,45.9816081 C20,41.4682906 23.4943629,37.8095238 27.804878,37.8095238 L28.9758711,37.8095238 C29.1537433,38.0305945 29.3437751,38.2462467 29.5459662,38.4564805 C31.2270169,40.2043985 33.2682927,41.0783575 35.5497186,41.0783575 C37.9512195,41.0783575 39.9924953,40.2043985 41.673546,38.4564805 C41.8757371,38.2462467 42.0657689,38.0305945 42.2436411,37.8095238 L44.195122,37.8095238 C48.5056371,37.8095238 52,41.4682906 52,45.9816081 L52.0010683,53.8878959 C56.9104431,49.4933613 60,43.107483 60,36 C60,22.745166 49.254834,12 36,12 Z M35.9413919,18 C38.2857143,18 40.2783883,18.8148148 41.9194139,20.4444444 C43.5604396,22.0740741 44.3809524,24.0529101 44.3809524,26.3809524 C44.3809524,28.7089947 43.5604396,30.6878307 41.9194139,32.3174603 C40.2783883,33.9470899 38.2857143,34.7619048 35.9413919,34.7619048 C33.7142857,34.7619048 31.7216117,33.9470899 30.0805861,32.3174603 C28.4395604,30.6878307 27.6190476,28.7089947 27.6190476,26.3809524 C27.6190476,24.0529101 28.4395604,22.1904762 29.96337,20.4444444 C31.6043956,18.8148148 33.5970696,18 35.9413919,18 Z"/>
</svg>
