<svg xmlns="http://www.w3.org/2000/svg" xmlns:xlink="http://www.w3.org/1999/xlink" width="24" height="24" viewBox="0 0 72 72">
  <defs>
    <path id="plus-a" d="M42,30.008622 L64,30.008622 C65.1045695,30.008622 66,30.9040525 66,32.008622 L66,40.008622 C66,41.1131915 65.1045695,42.008622 64,42.008622 L42,42.008622 L42,64 C42,65.1045695 41.1045695,66 40,66 L32,66 C30.8954305,66 30,65.1045695 30,64 L30,42.008622 L8,42.008622 C6.8954305,42.008622 6,41.1131915 6,40.008622 L6,32.008622 C6,30.9040525 6.8954305,30.008622 8,30.008622 L30,30.008622 L30,8 C30,6.8954305 30.8954305,6 32,6 L40,6 C41.1045695,6 42,6.8954305 42,8 L42,30.008622 Z"/>
  </defs>
  <use xlink:href="#plus-a"/>
</svg>
