<svg xmlns="http://www.w3.org/2000/svg" xmlns:xlink="http://www.w3.org/1999/xlink" width="24" height="24" viewBox="0 0 72 72">
  <defs>
    <path id="printer-a" d="M19.8475517,58.7662797 L52.1544674,58.7662797 L52.1544674,49.5365977 L19.8475517,49.5365977 L19.8475517,58.7662797 Z M19.8475517,35.6910651 L52.1544674,35.6910651 L52.1544674,21.8455326 L46.3856638,21.8455326 C45.4245331,21.8455326 44.6074373,21.5090022 43.9343766,20.8359414 C43.2613158,20.1628807 42.9247855,19.345785 42.9247855,18.3846542 L42.9247855,12.6158506 L19.8475517,12.6158506 L19.8475517,35.6930843 L19.8475517,35.6910651 Z M61.3861686,37.9989904 C61.3861686,37.37439 61.158001,36.8332492 60.7016658,36.3755679 C60.2453306,35.9178866 59.7041898,35.689719 59.0782433,35.6910651 C58.4522968,35.6924112 57.911156,35.9205788 57.4548208,36.3755679 C56.9984856,36.830557 56.770318,37.3716978 56.770318,37.9989904 C56.770318,38.626283 56.9984856,39.1674239 57.4548208,39.6224129 C57.911156,40.077402 58.4522968,40.3055696 59.0782433,40.3069157 C59.7041898,40.3082618 60.2453306,40.0800942 60.7016658,39.6224129 C61.158001,39.1647316 61.3861686,38.6235908 61.3861686,37.9989904 Z M66,37.9989904 L66,52.9994952 C66,53.3117954 65.8855797,53.5823658 65.656739,53.8112065 C65.4278984,54.0400471 65.1573279,54.1544674 64.8450278,54.1544674 L56.7682988,54.1544674 L56.7682988,59.9232711 C56.7682988,60.8844018 56.4317685,61.7014976 55.7587077,62.3745583 C55.085647,63.047619 54.2685512,63.3841494 53.3074205,63.3841494 L18.6925795,63.3841494 C17.7314488,63.3841494 16.914353,63.047619 16.2412923,62.3745583 C15.5682315,61.7014976 15.2317012,60.8844018 15.2317012,59.9232711 L15.2317012,54.1544674 L7.15497224,54.1544674 C6.84267205,54.1544674 6.57210163,54.0400471 6.34326098,53.8112065 C6.11442033,53.5823658 6,53.3117954 6,52.9994952 L6,37.9989904 C6,36.099613 6.67911829,34.470806 8.03735487,33.1125694 C9.39559145,31.7543328 11.0243985,31.0752145 12.9237759,31.0752145 L15.2317012,31.0752145 L15.2317012,11.4608783 C15.2317012,10.4997476 15.5682315,9.68265186 16.2412923,9.00959112 C16.914353,8.33653037 17.7314488,8 18.6925795,8 L42.9227663,8 C43.883897,8 44.9412755,8.24028269 46.0949016,8.72084806 C47.2485277,9.20141343 48.1618711,9.77822648 48.8349319,10.4512872 L54.3149924,15.9313478 C54.9880532,16.6044085 55.5648662,17.517752 56.0454316,18.6713781 C56.525997,19.8250042 56.7662797,20.8823826 56.7662797,21.8435134 L56.7662797,31.0731954 L59.0742049,31.0731954 C60.9735824,31.0731954 62.6023894,31.7523136 63.9606259,33.1105502 C65.3188625,34.4687868 65.9979808,36.0975938 65.9979808,37.9969712 L66,37.9989904 Z"/>
  </defs>
  <use xlink:href="#printer-a"/>
</svg>
