<svg width="32" height="32" viewBox="0 0 24 24" xmlns="http://www.w3.org/2000/svg">
<path d="M6.12632 17.3763C7.07368 16.7289 8.01711 16.2237 8.95658 15.8605C9.89605 15.4974 10.9105 15.3158 12 15.3158C13.0895 15.3158 14.1079 15.4974 15.0553 15.8605C16.0026 16.2237 16.95 16.7289 17.8974 17.3763C18.5763 16.5711 19.0855 15.7263 19.425 14.8421C19.7645 13.9579 19.9342 13.0105 19.9342 12C19.9342 9.75789 19.1724 7.875 17.6487 6.35132C16.125 4.82763 14.2421 4.06579 12 4.06579C9.75789 4.06579 7.875 4.82763 6.35132 6.35132C4.82763 7.875 4.06579 9.75789 4.06579 12C4.06579 13.0105 4.23553 13.9579 4.575 14.8421C4.91447 15.7263 5.43158 16.5711 6.12632 17.3763ZM12 12.5447C11.1474 12.5447 10.4289 12.2526 9.84474 11.6684C9.26053 11.0842 8.96842 10.3658 8.96842 9.51316C8.96842 8.66053 9.26053 7.94211 9.84474 7.35789C10.4289 6.77368 11.1474 6.48158 12 6.48158C12.8526 6.48158 13.5711 6.77368 14.1553 7.35789C14.7395 7.94211 15.0316 8.66053 15.0316 9.51316C15.0316 10.3658 14.7395 11.0842 14.1553 11.6684C13.5711 12.2526 12.8526 12.5447 12 12.5447ZM12 21C10.7526 21 9.58421 20.7632 8.49474 20.2895C7.40526 19.8158 6.45395 19.1724 5.64079 18.3592C4.82763 17.5461 4.18421 16.5947 3.71053 15.5053C3.23684 14.4158 3 13.2474 3 12C3 10.7526 3.23684 9.58421 3.71053 8.49474C4.18421 7.40526 4.82763 6.45395 5.64079 5.64079C6.45395 4.82763 7.40526 4.18421 8.49474 3.71053C9.58421 3.23684 10.7526 3 12 3C13.2474 3 14.4158 3.23684 15.5053 3.71053C16.5947 4.18421 17.5461 4.82763 18.3592 5.64079C19.1724 6.45395 19.8158 7.40526 20.2895 8.49474C20.7632 9.58421 21 10.7526 21 12C21 13.2474 20.7632 14.4158 20.2895 15.5053C19.8158 16.5947 19.1724 17.5461 18.3592 18.3592C17.5461 19.1724 16.5947 19.8158 15.5053 20.2895C14.4158 20.7632 13.2474 21 12 21ZM12 19.9342C12.8842 19.9342 13.7526 19.7921 14.6053 19.5079C15.4579 19.2237 16.2632 18.7737 17.0211 18.1579C16.2632 17.5895 15.4618 17.1553 14.6171 16.8553C13.7724 16.5553 12.9 16.4053 12 16.4053C11.1 16.4053 10.2237 16.5553 9.37105 16.8553C8.51842 17.1553 7.72105 17.5895 6.97895 18.1579C7.73684 18.7737 8.54211 19.2237 9.39474 19.5079C10.2474 19.7921 11.1158 19.9342 12 19.9342ZM12 11.4553C12.5684 11.4553 13.0342 11.2737 13.3974 10.9105C13.7605 10.5474 13.9421 10.0816 13.9421 9.51316C13.9421 8.94474 13.7605 8.47895 13.3974 8.11579C13.0342 7.75263 12.5684 7.57105 12 7.57105C11.4316 7.57105 10.9658 7.75263 10.6026 8.11579C10.2395 8.47895 10.0579 8.94474 10.0579 9.51316C10.0579 10.0816 10.2395 10.5474 10.6026 10.9105C10.9658 11.2737 11.4316 11.4553 12 11.4553Z" />
</svg>
