<svg width="32" height="32" viewBox="0 0 24 24" xmlns="http://www.w3.org/2000/svg">
<path d="M6.12632 17.3763C7.07368 16.7605 8.01316 16.2908 8.94474 15.9671C9.87632 15.6434 10.8947 15.4816 12 15.4816C13.1053 15.4816 14.1276 15.6434 15.0671 15.9671C16.0066 16.2908 16.95 16.7605 17.8974 17.3763C18.5763 16.5711 19.0855 15.7263 19.425 14.8421C19.7645 13.9579 19.9342 13.0105 19.9342 12C19.9342 9.75789 19.1724 7.875 17.6487 6.35132C16.125 4.82763 14.2421 4.06579 12 4.06579C9.75789 4.06579 7.875 4.82763 6.35132 6.35132C4.82763 7.875 4.06579 9.75789 4.06579 12C4.06579 13.0105 4.23553 13.9579 4.575 14.8421C4.91447 15.7263 5.43158 16.5711 6.12632 17.3763ZM12 12.5447C11.1474 12.5447 10.4289 12.2526 9.84474 11.6684C9.26053 11.0842 8.96842 10.3658 8.96842 9.51316C8.96842 8.66053 9.26053 7.94211 9.84474 7.35789C10.4289 6.77368 11.1474 6.48158 12 6.48158C12.8526 6.48158 13.5711 6.77368 14.1553 7.35789C14.7395 7.94211 15.0316 8.66053 15.0316 9.51316C15.0316 10.3658 14.7395 11.0842 14.1553 11.6684C13.5711 12.2526 12.8526 12.5447 12 12.5447ZM12 21C10.7526 21 9.58026 20.7632 8.4829 20.2895C7.38553 19.8158 6.43026 19.1724 5.61711 18.3592C4.80395 17.5461 4.16447 16.5947 3.69868 15.5053C3.23289 14.4158 3 13.2395 3 11.9763C3 10.7447 3.23684 9.58026 3.71053 8.4829C4.18421 7.38553 4.82763 6.43421 5.64079 5.62895C6.45395 4.82368 7.40526 4.18421 8.49474 3.71053C9.58421 3.23684 10.7605 3 12.0237 3C13.2553 3 14.4197 3.23684 15.5171 3.71053C16.6145 4.18421 17.5658 4.82368 18.3711 5.62895C19.1763 6.43421 19.8158 7.38553 20.2895 8.4829C20.7632 9.58026 21 10.7526 21 12C21 13.2474 20.7632 14.4158 20.2895 15.5053C19.8158 16.5947 19.1763 17.5461 18.3711 18.3592C17.5658 19.1724 16.6145 19.8158 15.5171 20.2895C14.4197 20.7632 13.2474 21 12 21Z" />
</svg>
