<svg width="17" height="17" viewBox="0 0 17 17" xmlns="http://www.w3.org/2000/svg">
    <path d="M10.2193 14.329H8.85669V12.9664H10.2193V14.329ZM8.85669 9.55996H7.49412V12.9664H8.85669V9.55996ZM14.307 8.19738H12.9444V10.9225H14.307V8.19738ZM12.9444 6.83481H11.5818V8.19738H12.9444V6.83481ZM4.76897 8.19738H3.4064V9.55996H4.76897V8.19738ZM3.4064 6.83481H2.04382V8.19738H3.4064V6.83481ZM8.1754 3.42838H9.53798V2.0658H8.1754V3.42838ZM3.06575 3.08773V5.13159H5.10961V3.08773H3.06575ZM6.13154 6.15352H2.04382V2.0658H6.13154V6.15352ZM3.06575 11.2632V13.307H5.10961V11.2632H3.06575ZM6.13154 14.329H2.04382V10.2412H6.13154V14.329ZM11.2412 3.08773V5.13159H13.2851V3.08773H11.2412ZM14.307 6.15352H10.2193V2.0658H14.307V6.15352ZM12.9444 12.9664V10.9225H10.2193V12.2851H11.5818V14.329H14.307V12.9664H12.9444ZM11.5818 8.19738H8.85669V9.55996H11.5818V8.19738ZM8.85669 6.83481H4.76897V8.19738H6.13154V9.55996H7.49412V8.19738H8.85669V6.83481ZM9.53798 6.15352V4.79095H8.1754V3.42838H6.81283V6.15352H9.53798ZM4.59865 3.5987H3.57672V4.62063H4.59865V3.5987ZM4.59865 11.7741H3.57672V12.7961H4.59865V11.7741ZM12.7741 3.5987H11.7522V4.62063H12.7741V3.5987Z" />
</svg>
