<svg width="22" height="19" viewBox="0 0 22 19" fill="none" xmlns="http://www.w3.org/2000/svg">
<mask id="mask0" mask-type="alpha" maskUnits="userSpaceOnUse" x="7" y="8" width="9" height="11">
<path d="M11.3856 8.7785C11.4746 8.7785 11.5515 8.81094 11.6164 8.8758L15.4193 12.6735C15.4841 12.7384 15.5166 12.8162 15.5166 12.9069C15.5166 12.9976 15.4841 13.0754 15.4193 13.1402L14.5686 13.9858C14.5037 14.0506 14.4268 14.0831 14.3378 14.0831C14.2488 14.0831 14.1719 14.0506 14.1071 13.9858L12.3166 12.1955L12.3169 17.4346C12.3169 17.8514 11.979 18.1893 11.5621 18.1893H11.1371C10.7203 18.1893 10.3824 17.8514 10.3824 17.4346L10.3816 12.2665L8.66416 13.9858C8.59929 14.0506 8.52237 14.0831 8.4334 14.0831C8.34442 14.0831 8.2675 14.0506 8.20264 13.9858L7.35194 13.1402C7.28707 13.0754 7.25464 12.9976 7.25464 12.9069C7.25464 12.8162 7.28707 12.7384 7.35194 12.6735L11.1548 8.8758C11.2197 8.81094 11.2966 8.7785 11.3856 8.7785Z" fill="white"/>
</mask>
<g mask="url(#mask0)">
<path d="M11.3856 8.7785C11.4746 8.7785 11.5515 8.81094 11.6164 8.8758L15.4193 12.6735C15.4841 12.7384 15.5166 12.8162 15.5166 12.9069C15.5166 12.9976 15.4841 13.0754 15.4193 13.1402L14.5686 13.9858C14.5037 14.0506 14.4268 14.0831 14.3378 14.0831C14.2488 14.0831 14.1719 14.0506 14.1071 13.9858L12.3166 12.1955L12.3169 17.4346C12.3169 17.8514 11.979 18.1893 11.5621 18.1893H11.1371C10.7203 18.1893 10.3824 17.8514 10.3824 17.4346L10.3816 12.2665L8.66416 13.9858C8.59929 14.0506 8.52237 14.0831 8.4334 14.0831C8.34442 14.0831 8.2675 14.0506 8.20264 13.9858L7.35194 13.1402C7.28707 13.0754 7.25464 12.9976 7.25464 12.9069C7.25464 12.8162 7.28707 12.7384 7.35194 12.6735L11.1548 8.8758C11.2197 8.81094 11.2966 8.7785 11.3856 8.7785Z" fill="white"/>
</g>
<path d="M20.4293 0.87323C21.149 0.87323 21.7324 1.45664 21.7324 2.17631V14.3924C21.7324 15.112 21.149 15.6954 20.4293 15.6954L17.6601 15.6952V13.7402L19.7772 13.7405V2.82785H2.83711V13.7405L4.95506 13.7402V15.6952L2.18614 15.6954C1.46647 15.6954 0.883057 15.112 0.883057 14.3924V2.17631C0.883057 1.45664 1.46647 0.87323 2.18614 0.87323H20.4293Z" fill="white"/>
</svg>
