<svg width="18" height="18" viewBox="0 0 18 18" fill="none" xmlns="http://www.w3.org/2000/svg">
<mask id="mask0" mask-type="alpha" maskUnits="userSpaceOnUse" x="0" y="0" width="18" height="18">
<path d="M17.1097 7.72575L15.3761 7.43655C15.2501 6.92143 15.0664 6.42903 14.8272 5.96977L15.9369 4.59375C16.173 4.30295 16.1623 3.88454 15.9134 3.60387L15.224 2.82791C14.974 2.54754 14.5596 2.48824 14.2435 2.68797L12.761 3.61993C12.1089 3.16434 11.3703 2.82791 10.5735 2.6327L10.2835 0.889825C10.2227 0.520782 9.90331 0.25 9.52844 0.25H8.48945C8.11534 0.25 7.79492 0.520782 7.73541 0.889825L7.44379 2.63324C6.78504 2.79453 6.16741 3.05489 5.60375 3.39778L4.19387 2.39157C3.89001 2.17448 3.47266 2.20842 3.20749 2.47303L2.47347 3.2076C2.20887 3.47278 2.17492 3.89014 2.39257 4.19401L3.4011 5.60663C3.06144 6.16604 2.80377 6.78018 2.64251 7.43309L0.889767 7.72577C0.521301 7.78663 0.25 8.106 0.25 8.48091V9.51911C0.25 9.89398 0.521301 10.2134 0.889767 10.2743L2.64251 10.5669C2.77495 11.1042 2.96721 11.6174 3.22275 12.0932L2.11805 13.4615C1.88282 13.752 1.89271 14.1707 2.14155 14.4511L2.83047 15.2271C3.08041 15.508 3.49506 15.5662 3.81122 15.367L5.31509 14.4223C5.95142 14.8575 6.6713 15.1774 7.44379 15.367L7.73541 17.1102C7.79494 17.4792 8.11534 17.75 8.48945 17.75H9.52844C9.90331 17.75 10.2227 17.4792 10.2835 17.1102L10.574 15.367C11.2246 15.2079 11.8344 14.9521 12.393 14.6151L13.8616 15.664C14.1649 15.8819 14.5826 15.8477 14.8475 15.5822L15.5818 14.8479C15.8461 14.5835 15.8819 14.1664 15.6624 13.862L14.6168 12.396C14.9575 11.8347 15.2165 11.2195 15.3767 10.5636L17.1103 10.2742C17.4798 10.2133 17.75 9.89394 17.75 9.51905V8.48085C17.7495 8.106 17.4792 7.78663 17.1097 7.72575ZM9.24307 11.9167C7.49837 11.9167 6.08333 10.5014 6.08333 8.75694C6.08333 7.01225 7.49837 5.59722 9.24307 5.59722C10.9875 5.59722 12.4028 7.01225 12.4028 8.75694C12.4028 10.5014 10.9875 11.9167 9.24307 11.9167Z" fill="white"/>
</mask>
<g mask="url(#mask0)">
<path d="M17.1097 7.72575L15.3761 7.43655C15.2501 6.92143 15.0664 6.42903 14.8272 5.96977L15.9369 4.59375C16.173 4.30295 16.1623 3.88454 15.9134 3.60387L15.224 2.82791C14.974 2.54754 14.5596 2.48824 14.2435 2.68797L12.761 3.61993C12.1089 3.16434 11.3703 2.82791 10.5735 2.6327L10.2835 0.889825C10.2227 0.520782 9.90331 0.25 9.52844 0.25H8.48945C8.11534 0.25 7.79492 0.520782 7.73541 0.889825L7.44379 2.63324C6.78504 2.79453 6.16741 3.05489 5.60375 3.39778L4.19387 2.39157C3.89001 2.17448 3.47266 2.20842 3.20749 2.47303L2.47347 3.2076C2.20887 3.47278 2.17492 3.89014 2.39257 4.19401L3.4011 5.60663C3.06144 6.16604 2.80377 6.78018 2.64251 7.43309L0.889767 7.72577C0.521301 7.78663 0.25 8.106 0.25 8.48091V9.51911C0.25 9.89398 0.521301 10.2134 0.889767 10.2743L2.64251 10.5669C2.77495 11.1042 2.96721 11.6174 3.22275 12.0932L2.11805 13.4615C1.88282 13.752 1.89271 14.1707 2.14155 14.4511L2.83047 15.2271C3.08041 15.508 3.49506 15.5662 3.81122 15.367L5.31509 14.4223C5.95142 14.8575 6.6713 15.1774 7.44379 15.367L7.73541 17.1102C7.79494 17.4792 8.11534 17.75 8.48945 17.75H9.52844C9.90331 17.75 10.2227 17.4792 10.2835 17.1102L10.574 15.367C11.2246 15.2079 11.8344 14.9521 12.393 14.6151L13.8616 15.664C14.1649 15.8819 14.5826 15.8477 14.8475 15.5822L15.5818 14.8479C15.8461 14.5835 15.8819 14.1664 15.6624 13.862L14.6168 12.396C14.9575 11.8347 15.2165 11.2195 15.3767 10.5636L17.1103 10.2742C17.4798 10.2133 17.75 9.89394 17.75 9.51905V8.48085C17.7495 8.106 17.4792 7.78663 17.1097 7.72575ZM9.24307 11.9167C7.49837 11.9167 6.08333 10.5014 6.08333 8.75694C6.08333 7.01225 7.49837 5.59722 9.24307 5.59722C10.9875 5.59722 12.4028 7.01225 12.4028 8.75694C12.4028 10.5014 10.9875 11.9167 9.24307 11.9167Z" fill="white"/>
</g>
</svg>
