<svg xmlns="http://www.w3.org/2000/svg" xmlns:xlink="http://www.w3.org/1999/xlink" width="24" height="24" viewBox="0 0 72 72">
  <defs>
    <path id="smiley-positive-a" d="M61.9805542,20.9445849 C64.6640739,25.5411239 66,30.5576512 66,36 C66,41.448182 64.6640739,46.4588761 61.9805542,51.0612483 C59.3028683,55.6519541 55.6567817,59.291853 51.0656296,61.9751118 C46.4686437,64.6525374 41.4457948,66 36.0029169,66 C30.5600389,66 25.5430238,64.6525374 20.9460379,61.9751118 C16.349052,59.291853 12.7087992,55.6519541 10.0252795,51.0612483 C7.34759358,46.4588761 6,41.448182 6,36 C6,30.5576512 7.34759358,25.5411239 10.0252795,20.9445849 C12.7087992,16.3480459 16.349052,12.708147 20.9460379,10.0248882 C25.5430238,7.3416294 30.5600389,6 36.0029169,6 C41.4457948,6 46.4686437,7.3416294 51.0656296,10.0248882 C55.6567817,12.708147 59.3028683,16.3480459 61.9805542,20.9445849 Z M49.5371901,22.4670426 C48.5629558,21.492903 47.3845406,21.0029166 46.0077783,21.0029166 C44.6251823,21.0029166 43.4409334,21.492903 42.4666991,22.4670426 C41.4924648,23.4411822 41.0024307,24.625316 41.0024307,26.0019444 C41.0024307,27.384406 41.4924648,28.5568734 42.4666991,29.5368462 C43.4409334,30.5109858 44.6251823,31.0009722 46.0077783,31.0009722 C47.3845406,31.0009722 48.5629558,30.5109858 49.5371901,29.5368462 C50.5172581,28.5568734 51.0072922,27.384406 51.0072922,26.0019444 C51.0072922,24.625316 50.5172581,23.4411822 49.5371901,22.4670426 Z M46.5010664,51.8039389 C49.6021218,49.5350946 51.7199157,46.5443453 52.8544481,42.8385663 C53.0951065,42.061659 53.0400989,41.3191282 52.6687974,40.5972232 C52.3043718,39.8821934 51.7336676,39.4009234 50.9635607,39.1465379 C50.1934538,38.8990276 49.4439748,38.9677804 48.7082477,39.3321706 C47.9725206,39.6965607 47.4843279,40.28096 47.2367935,41.0853684 C46.4666867,43.5329702 45.0502401,45.5199277 42.9737019,47.0462412 C40.9040397,48.5656793 38.5799672,49.3219608 36.0014844,49.3219608 C33.4230015,49.3219608 31.098929,48.5656793 29.0292668,47.0462412 C26.9527286,45.5199277 25.5362821,43.5329702 24.7661752,41.0853684 C24.5186408,40.28096 24.0304481,39.6965607 23.3153489,39.3321706 C22.5933737,38.9677804 21.8507706,38.8990276 21.0806637,39.1465379 C20.289929,39.4009234 19.7054729,39.8821934 19.3341714,40.5972232 C18.9628698,41.3191282 18.9009863,42.061659 19.1485206,42.8385663 C20.289929,46.5443453 22.4008469,49.5350946 25.5019023,51.8039389 C28.6029576,54.0796585 32.1028183,55.2140806 36.0014844,55.2140806 C39.9001504,55.2140806 43.4000111,54.0796585 46.5010664,51.8039389 Z M30.9975693,26.0019444 C30.9975693,24.625316 30.513369,23.4411822 29.5391347,22.4670426 C28.5590666,21.492903 27.3806514,21.0029166 26.0038892,21.0029166 C24.6212931,21.0029166 23.442878,21.492903 22.4628099,22.4670426 C21.4885756,23.4411822 20.9985416,24.625316 20.9985416,26.0019444 C20.9985416,27.384406 21.4885756,28.5568734 22.4628099,29.5368462 C23.442878,30.5109858 24.6212931,31.0009722 26.0038892,31.0009722 C27.3806514,31.0009722 28.5590666,30.5109858 29.5391347,29.5368462 C30.513369,28.5568734 30.9975693,27.384406 30.9975693,26.0019444 Z"/>
  </defs>
  <use xlink:href="#smiley-positive-a"/>
</svg>
