<svg xmlns="http://www.w3.org/2000/svg" xmlns:xlink="http://www.w3.org/1999/xlink" width="24" height="24" viewBox="0 0 72 72">
  <defs>
    <path id="stack-vertical-circle-a" d="M36,66 C19.4314575,66 6,52.5685425 6,36 C6,19.4314575 19.4314575,6 36,6 C52.5685425,6 66,19.4314575 66,36 C66,52.5685425 52.5685425,66 36,66 Z M31.5,14 C30.6715729,14 30,14.6715729 30,15.5 L30,24.5 C30,25.3284271 30.6715729,26 31.5,26 L40.5,26 C41.3284271,26 42,25.3284271 42,24.5 L42,15.5 C42,14.6715729 41.3284271,14 40.5,14 L31.5,14 Z M31.5,30.5 C30.6715729,30.5 30,31.1715729 30,32 L30,41 C30,41.8284271 30.6715729,42.5 31.5,42.5 L40.5,42.5 C41.3284271,42.5 42,41.8284271 42,41 L42,32 C42,31.1715729 41.3284271,30.5 40.5,30.5 L31.5,30.5 Z M31.5,47 C30.6715729,47 30,47.6715729 30,48.5 L30,57.5 C30,58.3284271 30.6715729,59 31.5,59 L40.5,59 C41.3284271,59 42,58.3284271 42,57.5 L42,48.5 C42,47.6715729 41.3284271,47 40.5,47 L31.5,47 Z"/>
  </defs>
  <use xlink:href="#stack-vertical-circle-a"/>
</svg>
