<svg width="32" height="32" viewBox="0 0 24 24" xmlns="http://www.w3.org/2000/svg">
<path d="M6.22597 20.1299C5.32208 20.1299 4.55844 19.8182 3.93506 19.1948C3.31169 18.5714 3 17.8078 3 16.9039C3 16.0156 3.31169 15.2597 3.93506 14.6364C4.55844 14.013 5.32208 13.7013 6.22597 13.7013C7.11429 13.7013 7.87013 14.013 8.49351 14.6364C9.11688 15.2597 9.42857 16.0156 9.42857 16.9039C9.42857 17.8078 9.11688 18.5714 8.49351 19.1948C7.87013 19.8182 7.11429 20.1299 6.22597 20.1299ZM12.0234 10.4052C11.1351 10.4052 10.3753 10.0935 9.74416 9.47013C9.11299 8.84675 8.7974 8.09091 8.7974 7.2026C8.7974 6.31429 9.11299 5.55844 9.74416 4.93506C10.3753 4.31169 11.1351 4 12.0234 4C12.9117 4 13.6675 4.31169 14.2909 4.93506C14.9143 5.55844 15.226 6.31429 15.226 7.2026C15.226 8.09091 14.9143 8.84675 14.2909 9.47013C13.6675 10.0935 12.9117 10.4052 12.0234 10.4052V10.4052ZM17.7974 20.1299C16.9091 20.1299 16.1532 19.8182 15.5299 19.1948C14.9065 18.5714 14.5948 17.8078 14.5948 16.9039C14.5948 16.0156 14.9065 15.2597 15.5299 14.6364C16.1532 14.013 16.9091 13.7013 17.7974 13.7013C18.6857 13.7013 19.4416 14.013 20.0649 14.6364C20.6883 15.2597 21 16.0156 21 16.9039C21 17.8078 20.6883 18.5714 20.0649 19.1948C19.4416 19.8182 18.6857 20.1299 17.7974 20.1299ZM12.0234 9.35325C12.6156 9.35325 13.1221 9.14286 13.5429 8.72208C13.9636 8.3013 14.174 7.79481 14.174 7.2026C14.174 6.61039 13.9636 6.1039 13.5429 5.68312C13.1221 5.26234 12.6156 5.05195 12.0234 5.05195C11.4312 5.05195 10.9247 5.26234 10.5039 5.68312C10.0831 6.1039 9.87273 6.61039 9.87273 7.2026C9.87273 7.79481 10.0831 8.3013 10.5039 8.72208C10.9247 9.14286 11.4312 9.35325 12.0234 9.35325V9.35325ZM6.22597 19.0545C6.81818 19.0545 7.32468 18.8481 7.74545 18.4351C8.16623 18.0221 8.37662 17.5117 8.37662 16.9039C8.37662 16.3117 8.16623 15.8052 7.74545 15.3844C7.32468 14.9636 6.81818 14.7532 6.22597 14.7532C5.63377 14.7532 5.12727 14.9636 4.70649 15.3844C4.28571 15.8052 4.07532 16.3117 4.07532 16.9039C4.07532 17.4961 4.28182 18.0026 4.69481 18.4234C5.10779 18.8442 5.61818 19.0545 6.22597 19.0545ZM17.7974 19.0545C18.3896 19.0545 18.8961 18.8481 19.3169 18.4351C19.7377 18.0221 19.9481 17.5117 19.9481 16.9039C19.9481 16.3117 19.7377 15.8052 19.3169 15.3844C18.8961 14.9636 18.3896 14.7532 17.7974 14.7532C17.2052 14.7532 16.6987 14.9636 16.2779 15.3844C15.8571 15.8052 15.6468 16.3117 15.6468 16.9039C15.6468 17.4961 15.8571 18.0026 16.2779 18.4234C16.6987 18.8442 17.2052 19.0545 17.7974 19.0545Z" />
</svg>
