<svg width="32" height="32" viewBox="0 0 24 24" xmlns="http://www.w3.org/2000/svg">
<path d="M5.45 20.25C4.48333 20.25 3.66667 19.9167 3 19.25C2.33333 18.5833 2 17.7667 2 16.8C2 15.85 2.33333 15.0417 3 14.375C3.66667 13.7083 4.48333 13.375 5.45 13.375C6.4 13.375 7.20833 13.7083 7.875 14.375C8.54167 15.0417 8.875 15.85 8.875 16.8C8.875 17.7667 8.54167 18.5833 7.875 19.25C7.20833 19.9167 6.4 20.25 5.45 20.25ZM11.65 9.85C10.7 9.85 9.8875 9.51667 9.2125 8.85C8.5375 8.18333 8.2 7.375 8.2 6.425C8.2 5.475 8.5375 4.66667 9.2125 4C9.8875 3.33333 10.7 3 11.65 3C12.6 3 13.4083 3.33333 14.075 4C14.7417 4.66667 15.075 5.475 15.075 6.425C15.075 7.375 14.7417 8.18333 14.075 8.85C13.4083 9.51667 12.6 9.85 11.65 9.85ZM17.825 20.25C16.875 20.25 16.0667 19.9167 15.4 19.25C14.7333 18.5833 14.4 17.7667 14.4 16.8C14.4 15.85 14.7333 15.0417 15.4 14.375C16.0667 13.7083 16.875 13.375 17.825 13.375C18.775 13.375 19.5833 13.7083 20.25 14.375C20.9167 15.0417 21.25 15.85 21.25 16.8C21.25 17.7667 20.9167 18.5833 20.25 19.25C19.5833 19.9167 18.775 20.25 17.825 20.25ZM11.65 8.725C12.2833 8.725 12.825 8.5 13.275 8.05C13.725 7.6 13.95 7.05833 13.95 6.425C13.95 5.79167 13.725 5.25 13.275 4.8C12.825 4.35 12.2833 4.125 11.65 4.125C11.0167 4.125 10.475 4.35 10.025 4.8C9.575 5.25 9.35 5.79167 9.35 6.425C9.35 7.05833 9.575 7.6 10.025 8.05C10.475 8.5 11.0167 8.725 11.65 8.725ZM5.45 19.1C6.08333 19.1 6.625 18.8792 7.075 18.4375C7.525 17.9958 7.75 17.45 7.75 16.8C7.75 16.1667 7.525 15.625 7.075 15.175C6.625 14.725 6.08333 14.5 5.45 14.5C4.81667 14.5 4.275 14.725 3.825 15.175C3.375 15.625 3.15 16.1667 3.15 16.8C3.15 17.4333 3.37083 17.975 3.8125 18.425C4.25417 18.875 4.8 19.1 5.45 19.1ZM17.825 19.1C18.4583 19.1 19 18.8792 19.45 18.4375C19.9 17.9958 20.125 17.45 20.125 16.8C20.125 16.1667 19.9 15.625 19.45 15.175C19 14.725 18.4583 14.5 17.825 14.5C17.1917 14.5 16.65 14.725 16.2 15.175C15.75 15.625 15.525 16.1667 15.525 16.8C15.525 17.4333 15.75 17.975 16.2 18.425C16.65 18.875 17.1917 19.1 17.825 19.1Z" />
</svg>
