<svg width="32" height="32" viewBox="0 0 24 24" xmlns="http://www.w3.org/2000/svg">
<path d="M6.22597 20C5.32208 20 4.55844 19.6908 3.93506 19.0725C3.31169 18.4541 3 17.6966 3 16.8C3 15.9188 3.31169 15.1691 3.93506 14.5507C4.55844 13.9324 5.32208 13.6232 6.22597 13.6232C7.11429 13.6232 7.87013 13.9324 8.49351 14.5507C9.11688 15.1691 9.42857 15.9188 9.42857 16.8C9.42857 17.6966 9.11688 18.4541 8.49351 19.0725C7.87013 19.6908 7.11429 20 6.22597 20ZM12.0234 10.3536C11.1351 10.3536 10.3753 10.0444 9.74416 9.42609C9.11299 8.80773 8.7974 8.05797 8.7974 7.17681C8.7974 6.29565 9.11299 5.54589 9.74416 4.92754C10.3753 4.30918 11.1351 4 12.0234 4C12.9117 4 13.6675 4.30918 14.2909 4.92754C14.9143 5.54589 15.226 6.29565 15.226 7.17681C15.226 8.05797 14.9143 8.80773 14.2909 9.42609C13.6675 10.0444 12.9117 10.3536 12.0234 10.3536V10.3536ZM17.7974 20C16.9091 20 16.1532 19.6908 15.5299 19.0725C14.9065 18.4541 14.5948 17.6966 14.5948 16.8C14.5948 15.9188 14.9065 15.1691 15.5299 14.5507C16.1532 13.9324 16.9091 13.6232 17.7974 13.6232C18.6857 13.6232 19.4416 13.9324 20.0649 14.5507C20.6883 15.1691 21 15.9188 21 16.8C21 17.6966 20.6883 18.4541 20.0649 19.0725C19.4416 19.6908 18.6857 20 17.7974 20Z" />
</svg>
