<svg width="24" height="24" viewBox="0 0 24 24" xmlns="http://www.w3.org/2000/svg">
<path d="M5 11C4.73333 11 4.5 10.9 4.3 10.7C4.1 10.5 4 10.2667 4 10V5C4 4.73333 4.1 4.5 4.3 4.3C4.5 4.1 4.73333 4 5 4H10C10.2667 4 10.5 4.1 10.7 4.3C10.9 4.5 11 4.73333 11 5V10C11 10.2667 10.9 10.5 10.7 10.7C10.5 10.9 10.2667 11 10 11H5ZM5 20C4.73333 20 4.5 19.9 4.3 19.7C4.1 19.5 4 19.2667 4 19V14C4 13.7333 4.1 13.5 4.3 13.3C4.5 13.1 4.73333 13 5 13H10C10.2667 13 10.5 13.1 10.7 13.3C10.9 13.5 11 13.7333 11 14V19C11 19.2667 10.9 19.5 10.7 19.7C10.5 19.9 10.2667 20 10 20H5ZM14 11C13.7333 11 13.5 10.9 13.3 10.7C13.1 10.5 13 10.2667 13 10V5C13 4.73333 13.1 4.5 13.3 4.3C13.5 4.1 13.7333 4 14 4H19C19.2667 4 19.5 4.1 19.7 4.3C19.9 4.5 20 4.73333 20 5V10C20 10.2667 19.9 10.5 19.7 10.7C19.5 10.9 19.2667 11 19 11H14ZM14 20C13.7333 20 13.5 19.9 13.3 19.7C13.1 19.5 13 19.2667 13 19V14C13 13.7333 13.1 13.5 13.3 13.3C13.5 13.1 13.7333 13 14 13H19C19.2667 13 19.5 13.1 19.7 13.3C19.9 13.5 20 13.7333 20 14V19C20 19.2667 19.9 19.5 19.7 19.7C19.5 19.9 19.2667 20 19 20H14Z" />
</svg>
