<svg width="32" height="32" viewBox="0 0 24 24" xmlns="http://www.w3.org/2000/svg">
<path d="M4.125 10.875C3.825 10.875 3.5625 10.7625 3.3375 10.5375C3.1125 10.3125 3 10.05 3 9.75V4.125C3 3.825 3.1125 3.5625 3.3375 3.3375C3.5625 3.1125 3.825 3 4.125 3H9.75C10.05 3 10.3125 3.1125 10.5375 3.3375C10.7625 3.5625 10.875 3.825 10.875 4.125V9.75C10.875 10.05 10.7625 10.3125 10.5375 10.5375C10.3125 10.7625 10.05 10.875 9.75 10.875H4.125ZM4.125 21C3.825 21 3.5625 20.8875 3.3375 20.6625C3.1125 20.4375 3 20.175 3 19.875V14.25C3 13.95 3.1125 13.6875 3.3375 13.4625C3.5625 13.2375 3.825 13.125 4.125 13.125H9.75C10.05 13.125 10.3125 13.2375 10.5375 13.4625C10.7625 13.6875 10.875 13.95 10.875 14.25V19.875C10.875 20.175 10.7625 20.4375 10.5375 20.6625C10.3125 20.8875 10.05 21 9.75 21H4.125ZM14.25 10.875C13.95 10.875 13.6875 10.7625 13.4625 10.5375C13.2375 10.3125 13.125 10.05 13.125 9.75V4.125C13.125 3.825 13.2375 3.5625 13.4625 3.3375C13.6875 3.1125 13.95 3 14.25 3H19.875C20.175 3 20.4375 3.1125 20.6625 3.3375C20.8875 3.5625 21 3.825 21 4.125V9.75C21 10.05 20.8875 10.3125 20.6625 10.5375C20.4375 10.7625 20.175 10.875 19.875 10.875H14.25ZM14.25 21C13.95 21 13.6875 20.8875 13.4625 20.6625C13.2375 20.4375 13.125 20.175 13.125 19.875V14.25C13.125 13.95 13.2375 13.6875 13.4625 13.4625C13.6875 13.2375 13.95 13.125 14.25 13.125H19.875C20.175 13.125 20.4375 13.2375 20.6625 13.4625C20.8875 13.6875 21 13.95 21 14.25V19.875C21 20.175 20.8875 20.4375 20.6625 20.6625C20.4375 20.8875 20.175 21 19.875 21H14.25Z" />
</svg>
