<svg width="72px" height="72px" viewBox="0 0 72 72" version="1.1" xmlns="http://www.w3.org/2000/svg" xmlns:xlink="http://www.w3.org/1999/xlink">
    <g id="icon/delete" stroke="none" stroke-width="1">
        <g id="trash" transform="translate(12.796875, 6.000000)">
            <path d="M41.71875,7.5 L32.578125,7.5 L32.578125,5.625 C32.578125,2.51835938 30.0597656,0 26.953125,0 L19.453125,0 C16.3464844,0 13.828125,2.51835938 13.828125,5.625 L13.828125,7.5 L4.6875,7.5 C2.09871094,7.5 0,9.59871094 0,12.1875 L0,15.9375 C0,16.9730859 0.839414062,17.8125 1.875,17.8125 L44.53125,17.8125 C45.5668359,17.8125 46.40625,16.9730859 46.40625,15.9375 L46.40625,12.1875 C46.40625,9.59871094 44.3075391,7.5 41.71875,7.5 Z M17.578125,5.625 C17.578125,4.59140625 18.4195313,3.75 19.453125,3.75 L26.953125,3.75 C27.9867188,3.75 28.828125,4.59140625 28.828125,5.625 L28.828125,7.5 L17.578125,7.5 L17.578125,5.625 Z" id="Shape"></path>
            <path d="M2.38640625,21.5625 C2.05183594,21.5625 1.78523437,21.8421094 1.80117187,22.1763281 L3.34804687,54.6421875 C3.49101562,57.646875 5.95898437,60 8.96601562,60 L37.4402344,60 C40.4472656,60 42.9152344,57.646875 43.0582031,54.6421875 L44.6050781,22.1763281 C44.6210156,21.8421094 44.3544141,21.5625 44.0198437,21.5625 L2.38640625,21.5625 Z M30.703125,31.2890625 C30.703125,30.253125 31.5421875,29.4140625 32.578125,29.4140625 C33.6140625,29.4140625 34.453125,30.253125 34.453125,31.2890625 L34.453125,50.625 C34.453125,51.6609375 33.6140625,52.5 32.578125,52.5 C31.5421875,52.5 30.703125,51.6609375 30.703125,50.625 L30.703125,31.2890625 Z M21.328125,31.2890625 C21.328125,30.253125 22.1671875,29.4140625 23.203125,29.4140625 C24.2390625,29.4140625 25.078125,30.253125 25.078125,31.2890625 L25.078125,50.625 C25.078125,51.6609375 24.2390625,52.5 23.203125,52.5 C22.1671875,52.5 21.328125,51.6609375 21.328125,50.625 L21.328125,31.2890625 Z M11.953125,31.2890625 C11.953125,30.253125 12.7921875,29.4140625 13.828125,29.4140625 C14.8640625,29.4140625 15.703125,30.253125 15.703125,31.2890625 L15.703125,50.625 C15.703125,51.6609375 14.8640625,52.5 13.828125,52.5 C12.7921875,52.5 11.953125,51.6609375 11.953125,50.625 L11.953125,31.2890625 Z" id="Shape"></path>
        </g>
    </g>
</svg>
