<svg width="11" height="8" viewBox="0 0 11 8" fill="none" xmlns="http://www.w3.org/2000/svg">
<path d="M0.796875 8C0.584375 8 0.398438 7.925 0.239063 7.775C0.0796875 7.625 0 7.45 0 7.25V0.75C0 0.55 0.0796875 0.375 0.239063 0.225C0.398438 0.0749999 0.584375 0 0.796875 0H7.70312C7.91563 0 8.10156 0.0749999 8.26094 0.225C8.42031 0.375 8.5 0.55 8.5 0.75V3.4375L10.625 1.4375V6.5625L8.5 4.5625V7.25C8.5 7.45 8.42031 7.625 8.26094 7.775C8.10156 7.925 7.91563 8 7.70312 8H0.796875ZM0.796875 7.25H7.70312V0.75H0.796875V7.25ZM0.796875 7.25V0.75V7.25Z" fill="black" fill-opacity="0.4"/>
</svg>
