<svg xmlns="http://www.w3.org/2000/svg" xmlns:xlink="http://www.w3.org/1999/xlink" version="1.1" x="0px" y="0px" enable-background="new 0 0 1200 1200" xml:space="preserve" viewBox="223.8 241 718.01 825.85">
<g id="k">
	<circle fill="#D6E5E3" cx="582.803" cy="600" r="359.004"/>
</g>
<g id="Anl_1_">
	<g>
		<defs>
			<circle id="SVGID_1_" cx="582.803" cy="600" r="359.004"/>
		</defs>
		<clipPath id="SVGID_2_">
			<use xlink:href="#SVGID_1_" overflow="visible"/>
		</clipPath>
		<path clip-path="url(#SVGID_2_)" fill="#2D7C7C" d="M687.51,814.532c-1.546-8.538-13.643-40.543-28.701-60.564    c-10.247-13.624-16.853-24.757-35.996-37.02c-15.642-10.02-33.577-15.394-52.697-19.302c-20.347-4.159-49.554,1.299-69.754-3.963    c-2.474-0.645,1.262,3.554-1.168,2.756c-1.16-0.381-20.994,3.588-22.654,4.067c-29.288,5.11-54.362,23.286-69.951,49.995    c-20.065,34.378-29.973,75.811-31.529,90.656c-0.098,0.932-0.273,1.855-0.397,2.784c-0.111,0.832-0.461,1.968-0.233,2.79    c0.246,0.885,1.265,1.398,1.952,1.911c0.783,0.584,1.574,1.156,2.373,1.718c8.931,6.276,25.162,4.898,50.649,3.285    c0,0,7.742-16.866,6.246-5.811c-2.765,20.421-8.381,49.818-10.903,75.315c-3.219,32.542-15.652,118.981-5.158,129.856    c20.72,21.472,174.643,11.759,182.026,10.948c4.828-0.53,27.497-2.907,32.291-3.695c4.462-0.734,9.251-1.553,13.424-3.371    c1.7-0.741,3.251-1.842,4.183-3.487c0.988-1.744-7.896-125.396-13.309-154.779c-4.459-24.203,3.96-7.285-4.192-44.667    c-5.57-25.538,3.055-8.514,3.055-8.514c4.072,6.586,5.868,14.621,5.868,14.621c8.112,0.022,26.831,10.2,48.497-4.979    C695.504,852.228,688.359,819.216,687.51,814.532z"/>
		<path clip-path="url(#SVGID_2_)" fill="#F9D0BB" d="M567.587,576.551c-13.606-10.565-31.76-7.618-47.526-2.815    c-8.159,2.486-14.536,9.094-20.422,15.242c-4.947,5.169-9.853,11.734-10.872,19.043c-0.608,1.458-3.067-1.179-3.53,0.338    c-2.426,7.949-4.035,21.095-3.195,32.589c-0.026,7.886,6.28,39.454,10.943,45.005c-0.906,12.123-1.615,10.302-3.718,28.855    c-1.591,14.035,4.204,28.687,19.1,38.854c6.345,4.331,21.502,7.252,28.714,6.864c26.276-1.411,34.305-26.422,35.898-40.455    c0.793-6.985-2.389-17.137-3.493-18.424c-1.086-1.266-1.949-2.769-2.568-4.317c-1.533-3.832,6.146-10.045,6.294-14.219    c2.345-2.647,8.969-22.81,11.027-51.669C585.559,612.953,579.979,586.173,567.587,576.551z"/>
		<path clip-path="url(#SVGID_2_)" fill="#133335" d="M546.049,636.269c-0.445-1.397-2.644-0.782-2.196,0.625    c1.62,5.094,2.512,10.376,2.582,15.724c0.015,1.17,0.191,2.595-0.118,3.73c-0.328,1.201-1.786,1.459-2.828,1.759    c-2.628,0.756-5.314,1.224-8.039,1.424c-1.458,0.107-1.45,2.394,0.018,2.286c3.071-0.225,6.123-0.746,9.074-1.637    c1.184-0.357,2.43-0.775,3.252-1.753c0.848-1.009,0.872-2.341,0.907-3.594C548.878,648.551,547.953,642.254,546.049,636.269z"/>
		<g clip-path="url(#SVGID_2_)">
			<path fill="#133335" d="M460.32,836.844c-0.215,7.727,1.66,15.661,6.998,21.48c4.881,5.322,11.922,7.907,19.016,8.334     c4.85,0.291,9.728-0.395,14.41-1.638c1.243-0.33,0.716-2.26-0.532-1.929c-7.288,1.935-15.207,2.466-22.399-0.164     c-6.209-2.27-11.145-7.065-13.526-13.242c-1.579-4.096-2.089-8.475-1.968-12.842C462.355,835.557,460.355,835.558,460.32,836.844     L460.32,836.844z"/>
			<path fill="#133335" d="M560.65,862.031c13.155,8.028,30.541,6.008,42.262-3.67c3.851-3.18,7.011-7.122,9.485-11.449     c0.64-1.119-1.087-2.128-1.727-1.009c-4.058,7.096-10.066,12.917-17.601,16.205c-6.493,2.833-13.895,3.669-20.847,2.285     c-3.738-0.744-7.309-2.103-10.563-4.089C560.558,859.631,559.552,861.36,560.65,862.031L560.65,862.031z"/>
		</g>
		<path clip-path="url(#SVGID_2_)" fill="#133335" d="M587.737,640.438c1.116-27.692-9.231-67.822-33.61-75.972    c-56.193-14.44-79.156,36.311-83.071,46.946c-10.336,28.081-9.654,63.365-11.688,81.137c-0.086,0.754-1.981,13.344-1.296,13.103    c12.333-4.347,20.547-5.358,29.156-7.146c1.62-0.336,5.339-0.965,5.339-0.965c1.657-6.131,5.807-17.568,5.807-17.568    c-1.492-5.301-9.44-18.661-2.13-60.999c2.418-14.006,6.593-22.145,11.928-27.49c-1.26,3.56-5.574,19.118-5.215,21.79    c0.083,0.621,0.851,0.805,1.402,0.802c6.076-0.028,10.866-0.334,16.645-1.259c0.378-0.06,0.808-0.23,0.987-0.563    c2.92-5.44,8.022-19.281,9.627-25.227c0.202,5.003-2.299,17.972-4.081,22.71c-0.265,0.704,0.408,1.453,1.096,1.45    c3.562-0.015,4.896,0.057,8.459,0.067c5.425,0.015,6.992-0.631,8.494-3.379c1.812-3.315,8.406-20.146,8.922-21.612    c-0.193,4.832-3.67,16.827-5.417,21.392c-0.275,0.719,0.417,1.432,1.097,1.45c6.173,0.162,11.281-0.296,17.454-0.134    c0.537,0.014,0.925-0.368,1.103-0.836c1.6-4.221,1.169-9.005,1.95-13.433c2.751,3.537,11.565,15.797,8.331,62.619    c-1.389,20.105-11.518,35.118-11.518,35.118c-1.723,2.357-0.586,4.892-0.586,4.892c0.729,0.257,5.613,1.1,14.631,2.876    C585.295,692.027,586.564,669.542,587.737,640.438z"/>
		<path clip-path="url(#SVGID_2_)" fill="#133335" d="M496.006,679.537c1.738,4.954,5.378,9.003,9.352,12.317    c4.549,3.794,9.71,6.851,15.097,9.291c4.674,2.117,9.63,3.934,14.734,4.641c2.828,0.392,5.734,0.362,8.581,0.257    c3.151-0.116,6.32-0.454,9.386-1.213c6.51-1.612,11.919-5.312,15.791-10.783c0.745-1.053-0.988-2.053-1.727-1.009    c-3.258,4.604-7.776,7.878-13.187,9.482c-5.539,1.642-11.753,1.944-17.488,1.426c-4.558-0.412-9.079-1.985-13.274-3.739    c-5.189-2.17-10.19-4.939-14.685-8.328c-4.405-3.321-8.784-7.552-10.651-12.874C497.512,677.799,495.579,678.318,496.006,679.537    L496.006,679.537z"/>
		<path clip-path="url(#SVGID_2_)" fill="#133335" d="M614.822,794.093c1.912,12.563,6.091,25.163,13.441,35.628    c1.101,1.568,3.703,0.071,2.59-1.514c-7.219-10.28-11.26-22.571-13.138-34.911C617.425,791.393,614.534,792.201,614.822,794.093    L614.822,794.093z"/>
		<path clip-path="url(#SVGID_2_)" fill="#133335" d="M526.721,624.605c-3.013-0.064-6.059,0.371-8.917,1.335    c-2.891,0.975-5.487,2.364-7.406,4.789c-0.502,0.635-0.62,1.502,0,2.121c0.521,0.521,1.616,0.639,2.121,0    c0.81-1.024,1.717-1.937,2.85-2.599c1.098-0.641,2.289-1.115,3.496-1.507c2.548-0.827,5.179-1.197,7.855-1.14    C528.652,627.646,528.652,624.646,526.721,624.605L526.721,624.605z"/>
		<path clip-path="url(#SVGID_2_)" fill="#133335" d="M567.385,617.584c-6.459,0.527-12.565,3.149-17.357,7.52    c-1.43,1.304,0.697,3.421,2.121,2.121c4.173-3.806,9.603-6.182,15.235-6.641c0.807-0.066,1.5-0.642,1.5-1.5    C568.885,618.324,568.197,617.518,567.385,617.584L567.385,617.584z"/>
		<g clip-path="url(#SVGID_2_)">
			<path fill="#F9D0BB" d="M505.158,763.495c11.008-8.561,19.777-14.608,31.112-24.342c2.305-1.979,7.667-6.741,7.238-9.751     c-0.309-2.17-0.218-3.001-2.04-4.216c-1.822-1.215-3.967-1.847-6.107-2.31c1.983-1.347,4.189-3.107,4.123-5.506     c-0.048-1.737-1.379-3.238-2.955-3.965s-3.363-0.819-5.098-0.818c3.204-1.359,6.461-4.104,6.139-7.574     c-0.199-2.143-1.804-3.968-3.731-4.922c-1.926-0.954-4.135-1.161-6.284-1.152c4.236-1.354,7.356-3.194,11.721-4.046     c3.849-0.751,8.116-2.213,11.562-4.087c1.321-0.719,7.273-2.663,7.984-3.989c1.434-2.677,0.051-5.757-2.872-6.569     c-1.411-0.392-6.945,1.72-8.39,1.957c-8.66,1.415-16.059,4.46-24.719,5.875c-2.897,0.473-6.3,1.367-8.971,2.587     c-2.106,0.962-4.85,1.624-6.71,3.004c-4.637,3.44-9.299,5.67-12.492,10.484c-2.989,4.507-4.432,9.837-5.829,15.064     c-2.39,8.94-4.779,17.88-7.169,26.819c0,0-4.414,10.796-8.462,17.369c-4.048,6.574-27.603,45.051-34.478,62.018     c-6.874,16.967-8.623,25.735-8.623,25.735s-31.431,9.429-53.553-2.392c-0.136,1.125,1.012,29.784,7.089,47.724     c5.414,15.982,21.065,41.126,39.769,39.008c18.705-2.117,42.794-23.476,54.499-52.521     C487.685,858.73,505.158,763.495,505.158,763.495z"/>
		</g>
		<path clip-path="url(#SVGID_2_)" fill="#F9D0BB" d="M635.419,838.927l-3.98-8.027c37.695-3.57,54.955-20.787,54.955-20.787    s8.932,32.51,6.252,50.679c-2.875,19.486-34.754,35.861-69.734,33.732s-82.503-0.694-101.007-0.174    c-18.504,0.52-27.781,3.804-33.629,4.165c-5.848,0.361-19.264,5.837-25.754,7.464s15.293-50.518,15.293-50.518    s14.262,1.529,22.684,0.5c8.422-1.03,55.489-7.003,75.247-9.653C595.506,843.658,635.419,838.927,635.419,838.927z"/>
		<path clip-path="url(#SVGID_2_)" fill="#133335" d="M506.218,764.556c7.691-5.976,15.586-11.685,23.189-17.774    c3.503-2.806,7.06-5.616,10.311-8.716c2.2-2.098,5.516-5.214,5.299-8.56c-0.116-1.788-0.43-3.657-1.839-4.893    c-2.043-1.792-4.823-2.608-7.42-3.184c0.119,0.914,0.239,1.828,0.358,2.742c2.715-1.865,5.873-4.685,4.579-8.369    c-1.365-3.887-5.639-4.697-9.266-4.715c0.252,0.932,0.505,1.863,0.757,2.795c3.843-1.687,7.827-5.343,6.711-9.97    c-1.219-5.056-6.844-6.461-11.344-6.474c0.133,0.982,0.266,1.964,0.399,2.946c8.283-2.657,16.457-5.701,24.65-8.62    c3.17-1.129,7.349-2.048,8.189-5.866c0.516-2.347-0.498-4.822-2.451-6.198c-1.579-1.112-3.467-1.247-5.303-0.833    c-7.353,1.657-14.649,3.629-21.948,5.507c-4.253,1.094-8.505,2.193-12.738,3.363c-2.221,0.614-4.422,1.171-6.467,2.253    c-4.509,2.385-8.935,5.079-13.006,8.155c-1.917,1.448-3.876,2.981-5.294,4.946c-0.935,1.296-1.513,2.862-2.092,4.338    c-3.958,10.103-6.598,20.796-9.411,31.26c-1.276,4.746-2.52,9.387-4.868,13.761c-1.186,2.21-2.637,4.272-3.991,6.38    c-6.158,9.588-12.1,19.325-17.68,29.262c-3.273,5.829-6.432,11.733-9.275,17.785c-3.189,6.789-6.034,13.753-8.781,20.731    c-5.644,14.339-10.766,28.931-14.951,43.766c-0.838,2.972-1.631,5.956-2.356,8.958c-0.453,1.876,2.439,2.676,2.893,0.798    c3.315-13.732,7.818-27.2,12.658-40.461c4.943-13.542,10.248-27.043,16.881-39.858c5.749-11.105,12.154-21.873,18.775-32.477    c4.096-6.56,8.789-12.818,11.401-20.165c1.318-3.706,2.158-7.608,3.191-11.401c1.483-5.442,3.005-10.874,4.642-16.272    c1.329-4.381,2.597-8.956,4.535-13.092c1.776-3.791,5.863-6.254,9.24-8.474c2.181-1.434,4.415-2.788,6.685-4.076    c0.79-0.448,1.585-0.89,2.389-1.313c0.276-0.145,0.555-0.284,0.832-0.427c0.284-0.146,0.495-0.201,0.141-0.077    c2.486-0.875,5.063-1.514,7.607-2.197c8.632-2.315,17.3-4.497,25.972-6.654c2.072-0.515,4.214-1.256,6.336-1.542    c1.844-0.248,3.661,1.147,3.573,3.084c-0.074,1.61-1.407,2.448-2.786,2.947c-7.969,2.886-15.969,5.695-23.98,8.459    c-1.333,0.46-2.666,0.924-4.01,1.355c-1.582,0.508-1.34,2.942,0.399,2.946c3.058,0.008,7.651,0.602,8.451,4.271    c0.702,3.222-2.844,5.489-5.333,6.582c-1.423,0.625-0.626,2.788,0.757,2.795c2.18,0.011,5.405,0.12,6.376,2.537    c0.869,2.163-1.699,3.923-3.204,4.957c-0.99,0.68-0.989,2.443,0.358,2.742c2.058,0.456,4.491,1,6.121,2.433    c0.807,0.709,1.088,2.247,0.934,3.286c-0.188,1.265-1.259,2.504-2.058,3.439c-1.062,1.242-2.241,2.383-3.454,3.475    c-6.446,5.807-13.408,11.063-20.329,16.285c-4.04,3.048-8.083,6.09-12.08,9.195C502.574,763.618,504.711,765.727,506.218,764.556    L506.218,764.556z"/>
		<path clip-path="url(#SVGID_2_)" fill="#133335" d="M483.92,857.42c-2.069,7.852-4.951,15.477-8.355,22.844    c-1.705,3.69-3.54,7.321-5.499,10.882c-1.854,3.371-4.296,6.65-5.402,10.366c-0.552,1.854,2.342,2.646,2.893,0.797    c0.588-1.975,1.684-3.7,2.72-5.463c0.963-1.639,1.898-3.294,2.806-4.965c1.946-3.579,3.766-7.227,5.455-10.935    c3.345-7.344,6.218-14.921,8.276-22.729C487.306,856.349,484.413,855.552,483.92,857.42L483.92,857.42z"/>
		<path clip-path="url(#SVGID_2_)" fill="#133335" d="M634.051,842.033c5.884,0.628,11.678,2.244,17.041,4.742    c0.734,0.342,1.617,0.206,2.052-0.538c0.38-0.649,0.2-1.709-0.538-2.052c-5.881-2.739-12.106-4.463-18.556-5.151    c-0.807-0.086-1.5,0.751-1.5,1.5C632.551,841.415,633.241,841.946,634.051,842.033L634.051,842.033z"/>
		<path clip-path="url(#SVGID_2_)" fill="#133335" d="M532.833,675.697c6.892-2.187,13.834-3.773,21.003-4.727    c0.809-0.108,1.491-0.612,1.5-1.5c0.008-0.728-0.697-1.607-1.5-1.5c-7.446,0.991-14.638,2.562-21.8,4.834    C530.202,673.386,530.986,676.283,532.833,675.697L532.833,675.697z"/>
		<g clip-path="url(#SVGID_2_)">
			
				<ellipse transform="matrix(0.9904 -0.1384 0.1384 0.9904 -82.2562 83.7168)" fill="#FFFFFF" cx="560.709" cy="633.195" rx="7.779" ry="3.318"/>
			<path fill="#133335" d="M558.741,637.654c-1.247,0-2.414-0.138-3.417-0.409c-1.953-0.528-3.128-1.535-3.309-2.836     c-0.387-2.778,3.884-4.902,8.098-5.49c2.188-0.307,4.312-0.225,5.981,0.227c1.953,0.528,3.128,1.535,3.309,2.836     c0.387,2.778-3.883,4.902-8.098,5.49C560.432,637.594,559.569,637.654,558.741,637.654z M562.67,630.738     c-0.736,0-1.507,0.054-2.28,0.161c-4.036,0.563-6.521,2.319-6.395,3.234c0.045,0.326,0.558,0.831,1.851,1.182     c1.393,0.377,3.283,0.441,5.182,0.176c4.037-0.563,6.522-2.319,6.395-3.234c-0.045-0.326-0.558-0.831-1.851-1.182     C564.745,630.852,563.744,630.738,562.67,630.738z"/>
		</g>
		
			<ellipse transform="matrix(0.9902 -0.1396 0.1396 0.9902 -82.7385 84.6665)" clip-path="url(#SVGID_2_)" fill="#133335" cx="562.365" cy="632.319" rx="3.09" ry="2.665"/>
		<g clip-path="url(#SVGID_2_)">
			
				<ellipse transform="matrix(0.9904 -0.1384 0.1384 0.9904 -83.5028 78.2247)" fill="#FFFFFF" cx="520.603" cy="639.411" rx="7.779" ry="3.318"/>
			<path fill="#133335" d="M518.635,643.87c-1.247,0-2.415-0.138-3.417-0.409c-1.953-0.528-3.128-1.536-3.309-2.836     c-0.387-2.778,3.883-4.902,8.098-5.49c2.188-0.306,4.312-0.226,5.98,0.227c1.953,0.528,3.128,1.535,3.309,2.836     c0.387,2.778-3.883,4.902-8.098,5.49C520.326,643.81,519.463,643.87,518.635,643.87z M522.564,636.954     c-0.737,0-1.507,0.054-2.28,0.161c-4.037,0.563-6.522,2.319-6.395,3.234c0.045,0.326,0.558,0.831,1.851,1.182     c1.394,0.377,3.283,0.439,5.181,0.176c4.037-0.563,6.522-2.319,6.395-3.234c-0.045-0.326-0.558-0.831-1.851-1.182     C524.639,637.067,523.638,636.954,522.564,636.954z"/>
		</g>
		
			<ellipse transform="matrix(0.9902 -0.1396 0.1396 0.9902 -83.9824 79.1966)" clip-path="url(#SVGID_2_)" fill="#133335" cx="522.738" cy="638.454" rx="3.09" ry="2.665"/>
		<path clip-path="url(#SVGID_2_)" fill="#F67D28" d="M311.278,507.585c0.074,4.651-0.353,15.119,13.436,17.312    c13.766,2.19,11.886-1.55,21.188,0c9.302,1.55,16.537,18.088,43.152,16.02c26.615-2.067,52.971-18.863,62.531-28.94    s14.47-19.121,13.436-20.155s-12.661,2.842-24.547,1.292c-11.556-1.507-21.963-6.46-21.963-6.46s7.849-11.454,9.561-18.863    c1.638-7.094,4.134-13.953,3.101-14.987s-36.279-2.741-50.904,3.617c-23.772,10.336-21.812,34.035-31.114,36.619    c-9.302,2.584-13.653,0.304-21.601,0.734C317.993,494.292,311.126,498.024,311.278,507.585z"/>
		<path clip-path="url(#SVGID_2_)" fill="#133335" d="M418.802,459.593c-9.23,1.238-18.475,3.007-27.392,5.729    c-3.851,1.176-7.701,2.684-10.94,5.124c-3.417,2.574-5.742,6.068-7.983,9.654c-2.918,4.668-5.833,9.338-8.749,14.007    c-1.026,1.642,1.569,3.15,2.59,1.514c2.402-3.845,4.803-7.69,7.205-11.535c2.234-3.577,4.326-7.423,7.51-10.261    c2.837-2.528,6.419-4.075,9.994-5.241c4.098-1.336,8.318-2.349,12.523-3.28c5.039-1.115,10.126-2.025,15.241-2.711    c0.809-0.109,1.491-0.612,1.5-1.5C420.31,460.366,419.605,459.486,418.802,459.593L418.802,459.593z"/>
		<path clip-path="url(#SVGID_2_)" fill="#133335" d="M413.438,474.171c-7.046,1.088-13.988,3.629-19.752,7.885    c-2.784,2.056-5.139,4.512-7.553,6.974c-2.295,2.341-4.745,4.687-7.861,5.878c-1.786,0.682-1.011,3.584,0.798,2.893    c6.478-2.475,10.177-8.5,15.452-12.638c5.681-4.457,12.627-7.005,19.714-8.099C416.138,476.77,415.33,473.879,413.438,474.171    L413.438,474.171z"/>
		<path clip-path="url(#SVGID_2_)" fill="#133335" d="M414.998,487.935c-6.344,5.784-15.116,7.543-23.271,9.174    c-1.892,0.378-1.091,3.271,0.798,2.893c8.723-1.745,17.826-3.774,24.595-9.946C418.549,488.753,416.423,486.636,414.998,487.935    L414.998,487.935z"/>
		<path clip-path="url(#SVGID_2_)" fill="#133335" d="M387.561,537.669c3.63,5.037,9.469,7.426,15.278,9.005    c6.944,1.887,14.197,2.605,21.376,2.169c1.918-0.116,1.931-3.117,0-3c-6.616,0.402-13.243-0.181-19.669-1.822    c-5.245-1.34-11.089-3.279-14.395-7.866C389.033,534.603,386.429,536.099,387.561,537.669L387.561,537.669z"/>
		<path clip-path="url(#SVGID_2_)" fill="#133335" d="M401.676,535.744c7.584,6.064,17.408,6.471,26.677,5.505    c1.901-0.198,1.921-3.2,0-3c-8.327,0.868-17.672,0.878-24.555-4.626C402.304,532.428,400.168,534.538,401.676,535.744    L401.676,535.744z"/>
		<path clip-path="url(#SVGID_2_)" fill="#133335" d="M311.386,505.319c-1.012,0.326-9.268,3.024-9.268,4.164    c0,1.14,9.664,5.002,9.664,5.002C311.274,511.275,311.386,505.319,311.386,505.319z"/>
		<ellipse clip-path="url(#SVGID_2_)" fill="#133335" cx="321.257" cy="505.818" rx="2.688" ry="2.036"/>
		<path clip-path="url(#SVGID_2_)" fill="#FFFFFF" d="M586.344,341.56c0,0-22.115,12.238-9.112,31.36    c13.003,19.122,38.456,7.737,44.547,2.382c6.091-5.354,7.342-15.487,7.342-15.487s13.208,6.986,22.728,5.456    c9.52-1.53,20.02-13.8,20.02-13.8s26.394,11.86,7.857,31.267c0,0-14.305,2.754-28.915,4.939    c-22.303,3.335-27.898,28.077-27.898,28.077c-3.613,2.295-18.266,4.076-24.971,15.55c-6.706,11.473-1.18,30.9,2.058,36.808    c0,0-27.688,14.321-17.197,35.671s31.957,8.251,32.84,11.311c0,0-12.891,21.094,5.86,33.399    c15.897,10.432,34.571,4.688,34.571,4.688s0.245,26.098,24.721,29.157c24.476,3.06,29.508-11.423,29.508-11.423    s13.803,11.558,35.22,2.38s11.899-28.081,11.899-28.081s43.382-9.027,25.804-33.637c-7.429-10.401-29.298,0.586-29.298,0.586    s-5.799-18.426-26.954-14.649c-16.407,2.93-22.266,24.024-22.266,24.024s-1.361-21.954-16.407-29.884    c-10.845-5.716-31.641-4.102-31.641-4.102s14.876-6.315,22.266-21.094c8.203-16.407-0.586-32.813-0.586-32.813    s36.723,7.337,45.749-11.773c4.976-10.534-0.459-28.484-0.459-28.484s22.845-4.283,26.177-29.032    c2.043-15.18-16.539-27.385-16.539-27.385s-1.675-19.229-10.708-26.006c-15.111-11.337-35.949-6.119-35.949-6.119    s-11.785-16.517-36.998-14.236c-20.624,1.865-27.253,19.591-27.253,19.591s-18.944-5.488-27.71,0.851    C582.803,319.618,582.803,331.992,586.344,341.56z"/>
		<path clip-path="url(#SVGID_2_)" fill="#FFFFFF" d="M680.132,622.625c-9.964,7.734,0.913,20.452-0.034,23.136    s-17.483,17.274-8.014,26.1c9.468,8.826,25.091,2.39,25.091,2.39s12.248,6.303,24.526-1.536c14.353-9.164,6.445-21.68,6.445-21.68    s15.144-14.059,2.168-24.869c-11.984-9.983-27.654-3.54-27.654-3.54S687.234,617.112,680.132,622.625z"/>
	</g>
	<g>
	</g>
	<g>
	</g>
	<g>
	</g>
	<g>
	</g>
	<g>
	</g>
	<g>
	</g>
	<g>
	</g>
	<g>
	</g>
	<g>
	</g>
	<g>
	</g>
	<g>
	</g>
	<g>
	</g>
	<g>
	</g>
	<g>
	</g>
	<g>
	</g>
</g>
</svg>