<svg xmlns="http://www.w3.org/2000/svg" xmlns:xlink="http://www.w3.org/1999/xlink" version="1.1" x="0px" y="0px" enable-background="new 0 0 1200 1200" xml:space="preserve" viewBox="223.8 241 718.01 718.01">
<g id="k">
	<circle fill="#D6E5E3" cx="582.803" cy="600" r="359.004"/>
</g>
<g id="Sprechblasen">
	<g>
		<defs>
			<circle id="SVGID_1_" cx="582.803" cy="612.474" r="359.004"/>
		</defs>
		<clipPath id="SVGID_2_">
			<use xlink:href="#SVGID_1_" overflow="visible"/>
		</clipPath>
		<path clip-path="url(#SVGID_2_)" fill="#133335" d="M636.037,441.216v15.237c0,0-3.674,0.926-6.531,3.221    c-1.859,1.493-1.718,2.94-1.718,2.94l22.313-0.62c0,0-0.613-2.579-3.409-4.132c-1.849-1.027-4.677-1.434-4.677-1.434    l-0.592-12.821L636.037,441.216z"/>
		<path clip-path="url(#SVGID_2_)" fill="#133335" d="M663.427,442.366v13.285c0,0-6.477,2.206-6.218,5.516    c0.41,0.436,23.746,0.015,23.746,0.015s-1.298-2.936-6.165-4.56c-2.801-0.935-5.682-1.24-5.682-1.24l-0.826-14.979    L663.427,442.366z"/>
		<path clip-path="url(#SVGID_2_)" fill="#F67D28" d="M667.616,364.194c0,0,0.188-18.044-6.472-27.2    c-6.66-9.156-24.598-9.109-31.306,1.83c-4.777,7.79-3.76,23.306-3.76,23.306c-1.76,1.998-9.547,5.479-15.684,11.746    c-9.109,9.303-9.162,15.583-10.394,31.148c-1.38,17.447-12.581,22.823-10.884,25.511c3.456,5.471,16.595,3.562,23.185,0.461    c6.59-3.101,14.924-10.272,14.924-10.272s1.686,13.079,8.811,20.492c7.703,8.015,28.264,5.653,34.356-0.894    c9.606-10.324,6.388-22.282,7.163-22.864s2.28,6.026,11.237,9.609c12.994,5.198,28.742-5.544,28.742-8.84    c0-3.881-9.75-8.505-15.238-19.093c-2.286-4.411-3.903-16.066-13.716-25.398C678.963,364.59,667.616,366.413,667.616,364.194z"/>
		<ellipse clip-path="url(#SVGID_2_)" fill="#133335" cx="638.558" cy="347.387" rx="2.012" ry="2.646"/>
		<ellipse clip-path="url(#SVGID_2_)" fill="#133335" cx="652.085" cy="347.387" rx="2.012" ry="2.646"/>
		<path clip-path="url(#SVGID_2_)" fill="#133335" d="M648.444,351.983c0.59,0.445-1.684,5.299-2.264,5.299s-3.132-4.099-2.26-5.299    C644.29,351.475,647.759,351.466,648.444,351.983z"/>
		<path clip-path="url(#SVGID_2_)" fill="#133335" d="M625.606,392.62c-0.921,7.923-1.252,15.956-0.313,23.894    c0.464,3.924,1.197,7.815,2.326,11.605c1.051,3.53,2.341,7.024,4.758,9.86c1.254,1.472,3.367-0.659,2.121-2.121    c-2.297-2.696-3.373-6.284-4.303-9.638c-1.004-3.622-1.679-7.334-2.051-11.073c-0.746-7.497-0.406-15.056,0.462-22.527    C628.828,390.706,625.827,390.722,625.606,392.62L625.606,392.62z"/>
		<path clip-path="url(#SVGID_2_)" fill="#133335" d="M672.689,391.851c1.034,8.026,2.346,16.073,2.978,24.142    c0.554,7.078,0.077,14.459-4.164,20.419c-1.949,2.739-4.671,4.904-7.903,5.89c-1.841,0.562-1.056,3.459,0.798,2.893    c6.377-1.947,10.781-7.458,12.884-13.603c2.714-7.928,1.393-16.568,0.35-24.668c-0.647-5.025-1.294-10.05-1.942-15.074    C675.446,389.962,672.442,389.938,672.689,391.851L672.689,391.851z"/>
		<path clip-path="url(#SVGID_2_)" fill="#133335" d="M623.216,375.006c-6.791,2.047-11.305,7.897-13.864,14.255    c-3.18,7.901-3.09,16.625-5.156,24.809c-0.952,3.77-2.519,7.754-5.945,9.92c-1.628,1.029-0.124,3.626,1.514,2.59    c6.519-4.121,7.773-12.688,8.83-19.685c1.158-7.67,2.019-15.689,6.569-22.228c2.173-3.123,5.172-5.66,8.849-6.768    C625.857,377.343,625.072,374.446,623.216,375.006L623.216,375.006z"/>
		<path clip-path="url(#SVGID_2_)" fill="#133335" d="M625.685,395.647c-5.048,1.764-8.407,6.065-10.345,10.899    c-1.067,2.661-1.583,5.432-1.944,8.264c-0.318,2.5-0.596,5.288-2.33,7.26c-1.271,1.445,0.843,3.574,2.121,2.121    c3.514-3.994,2.81-9.684,4.237-14.504c1.378-4.655,4.248-9.466,9.058-11.147C628.293,397.907,627.514,395.007,625.685,395.647    L625.685,395.647z"/>
		<path clip-path="url(#SVGID_2_)" fill="#133335" d="M673.04,377.291c3.385-0.911,6.852,0.622,9.229,3.039    c2.6,2.644,3.935,6.267,4.925,9.767c1.063,3.763,1.937,7.546,3.613,11.103c1.489,3.16,3.677,6.12,6.106,8.627    c2.69,2.776,5.914,4.855,9.559,6.14c1.824,0.643,2.609-2.254,0.797-2.893c-6.717-2.368-12.006-8.468-14.563-14.999    c-2.745-7.011-3.114-15.587-9.288-20.765c-3.099-2.599-7.179-3.986-11.174-2.911C670.38,374.899,671.17,377.794,673.04,377.291    L673.04,377.291z"/>
		<path clip-path="url(#SVGID_2_)" fill="#133335" d="M675.535,401.955c2.227,0.75,4.24,2.013,5.891,3.685    c1.805,1.828,2.868,4.054,3.903,6.373c0.965,2.162,1.981,4.048,3.847,5.556c1.995,1.612,4.348,2.781,6.873,3.268    c1.886,0.364,2.694-2.526,0.798-2.893c-2.382-0.46-4.658-1.562-6.413-3.254c-1.719-1.657-2.414-4.097-3.428-6.2    c-2.16-4.476-5.962-7.842-10.674-9.429C674.499,398.445,673.712,401.342,675.535,401.955L675.535,401.955z"/>
		<path clip-path="url(#SVGID_2_)" fill="#FFFFFF" d="M776.933,631.13h-59.399H400.95c-22.845,0-41.365-18.52-41.365-41.365v-87.036    c0-22.845,18.52-41.365,41.365-41.365h375.983c22.845,0,41.365,18.52,41.365,41.365v87.036    C818.298,612.611,799.779,631.13,776.933,631.13z"/>
		<path clip-path="url(#SVGID_2_)" fill="#FFFFFF" d="M761.016,680.837c4.363-0.834-4.534-10.603-6.291-27.514    c-1.108-10.669,1.285-27.55,1.285-27.55l-38.476,2.612c0,0,3.304,18.433,7.523,28.171    C731.54,671.514,752.558,682.453,761.016,680.837z"/>
		<path clip-path="url(#SVGID_2_)" fill="#FFFFFF" d="M426.248,807.771h39.939h212.868c15.361,0,27.813-12.452,27.813-27.813    v-58.522c0-15.361-12.452-27.813-27.813-27.813H426.248c-15.361,0-27.813,12.452-27.813,27.813v58.522    C398.435,795.318,410.887,807.771,426.248,807.771z"/>
		<path clip-path="url(#SVGID_2_)" fill="#FFFFFF" d="M436.951,841.193c-2.933-0.561,3.049-7.129,4.23-18.5    c0.745-7.174-0.864-18.524-0.864-18.524l29.759,2.02c0,0-2.371,11.525-5.208,18.072    C460.51,834.318,442.638,842.279,436.951,841.193z"/>
		<path clip-path="url(#SVGID_2_)" fill="#2D7C7C" d="M428.471,516.234c20.544,0.052,41.087,0.04,61.631-0.025    c21.324-0.068,42.649-0.192,63.972-0.369c21.604-0.179,43.208-0.411,64.811-0.696c21.285-0.281,42.57-0.613,63.853-1.002    c20.665-0.377,41.329-0.807,61.992-1.3c2.507-0.06,5.015-0.121,7.522-0.182c1.927-0.047,1.934-3.048,0-3    c-20.537,0.505-41.076,0.947-61.616,1.335c-21.321,0.403-42.642,0.749-63.965,1.043c-21.603,0.298-43.206,0.543-64.81,0.734    c-21.286,0.189-42.573,0.326-63.86,0.408c-20.668,0.079-41.337,0.106-62.006,0.069c-2.508-0.004-5.016-0.01-7.524-0.016    C426.54,513.229,426.538,516.229,428.471,516.234L428.471,516.234z"/>
		<path clip-path="url(#SVGID_2_)" fill="#2D7C7C" d="M425.103,546.038c20.699,0.532,41.401,0.922,62.105,1.195    c21.512,0.283,43.026,0.439,64.539,0.48c21.906,0.042,43.813-0.036,65.719-0.231c21.578-0.193,43.154-0.5,64.729-0.934    c20.831-0.418,41.659-0.953,62.483-1.629c2.525-0.082,5.05-0.166,7.575-0.252c1.925-0.066,1.934-3.066,0-3    c-20.694,0.705-41.392,1.269-62.093,1.715c-21.509,0.463-43.02,0.799-64.533,1.021c-21.905,0.226-43.812,0.332-65.718,0.32    c-21.579-0.012-43.157-0.139-64.734-0.391c-20.833-0.244-41.665-0.604-62.494-1.105c-2.526-0.061-5.051-0.124-7.577-0.189    C423.172,542.989,423.173,545.989,425.103,546.038L425.103,546.038z"/>
		<path clip-path="url(#SVGID_2_)" fill="#2D7C7C" d="M425.103,576.889c20.552,0.851,41.112,1.495,61.676,1.975    c21.627,0.505,43.258,0.829,64.891,0.996c22.014,0.169,44.03,0.175,66.045,0.018c21.619-0.154,43.237-0.465,64.852-0.952    c20.735-0.467,41.467-1.095,62.19-1.929c2.499-0.101,4.998-0.204,7.496-0.311c1.923-0.082,1.934-3.082,0-3    c-20.551,0.877-41.11,1.546-61.673,2.051c-21.626,0.532-43.257,0.883-64.889,1.076c-22.014,0.197-44.03,0.23-66.045,0.1    c-21.619-0.127-43.238-0.411-64.853-0.871c-20.735-0.441-41.468-1.043-62.192-1.852c-2.499-0.097-4.998-0.198-7.497-0.302    C423.173,573.809,423.176,576.809,425.103,576.889L425.103,576.889z"/>
		<path clip-path="url(#SVGID_2_)" fill="#2D7C7C" d="M444.105,721.131c12.421,0.657,24.854,1.077,37.289,1.374    c14.074,0.336,28.152,0.51,42.23,0.583c14.948,0.077,29.896,0.037,44.844-0.087c15.264-0.128,30.527-0.345,45.789-0.639    c14.807-0.285,29.612-0.643,44.416-1.072c1.775-0.052,3.55-0.104,5.325-0.158c1.926-0.058,1.934-3.058,0-3    c-14.697,0.444-29.396,0.816-44.097,1.118c-15.243,0.313-30.488,0.55-45.733,0.7c-15.016,0.147-30.032,0.211-45.049,0.162    c-14.233-0.046-28.467-0.192-42.697-0.492c-12.677-0.268-25.353-0.654-38.019-1.269c-1.433-0.07-2.865-0.142-4.298-0.218    C442.176,718.029,442.182,721.029,444.105,721.131L444.105,721.131z"/>
		<path clip-path="url(#SVGID_2_)" fill="#2D7C7C" d="M446.066,747.196c28.186,0.701,56.382,1.029,84.577,0.976    c28.195-0.053,56.389-0.483,84.572-1.292c15.795-0.453,31.586-1.026,47.372-1.716c1.923-0.084,1.934-3.084,0-3    c-28.166,1.23-56.349,2.087-84.538,2.563c-28.191,0.476-56.389,0.575-84.582,0.295c-15.802-0.157-31.602-0.434-47.399-0.827    C444.135,744.148,444.136,747.148,446.066,747.196L446.066,747.196z"/>
		<path clip-path="url(#SVGID_2_)" fill="#2D7C7C" d="M446.029,775.341c27.885,0.872,55.783,1.326,83.682,1.353    c27.733,0.027,55.466-0.364,83.187-1.174c15.602-0.456,31.2-1.045,46.792-1.765c1.922-0.089,1.933-3.089,0-3    c-27.868,1.286-55.754,2.153-83.648,2.595c-27.73,0.439-55.466,0.459-83.197,0.061c-15.608-0.224-31.214-0.582-46.816-1.07    C444.098,772.281,444.1,775.281,446.029,775.341L446.029,775.341z"/>
	</g>
	<g>
	</g>
	<g>
	</g>
	<g>
	</g>
	<g>
	</g>
	<g>
	</g>
	<g>
	</g>
	<g>
	</g>
	<g>
	</g>
	<g>
	</g>
	<g>
	</g>
	<g>
	</g>
	<g>
	</g>
	<g>
	</g>
	<g>
	</g>
	<g>
	</g>
</g>
</svg>