<svg xmlns="http://www.w3.org/2000/svg" xmlns:xlink="http://www.w3.org/1999/xlink" viewBox="0 0 566.93 566.93"><defs><clipPath id="b9f57e43-031f-4fb8-af5a-8197ff4ac1d4"><ellipse cx="283.46" cy="282.96" rx="283.46" ry="282.96" style="fill:none"/></clipPath></defs><g id="a4a6b9f9-c041-4415-b3e9-9135a9fac370" data-name="Copy"><g style="opacity:0.05"><ellipse cx="283.46" cy="283.97" rx="283.46" ry="282.96"/></g><g style="clip-path:url(#b9f57e43-031f-4fb8-af5a-8197ff4ac1d4)"><path d="M150.18,432.86V136.51c0-10,7.34-18,16.4-18H576.82c9,0,16.4,8.08,16.4,18V432.87Z" style="fill:#464646"/><path d="M171.11,143.7H572.29V411.29H171.11Z" style="fill:#fff"/><path d="M113.14,463H630.26c14.79,0,26.79-13.48,26.79-30.11H86.35C86.35,449.5,98.34,463,113.14,463Z" style="fill:#b9b9b9"/></g><path d="M273.12,272.72H425.3a7.77,7.77,0,0,0,7.61-7.86V185.24a7.76,7.76,0,0,0-7.61-7.86H227.9a7.76,7.76,0,0,0-7.61,7.86v79.62a7.77,7.77,0,0,0,7.61,7.86h14.47L266,287.87l.54-15.54Z" style="fill:#c3c3c3"/><rect x="245.78" y="201.53" width="160.66" height="6.59" style="fill:#fff"/><rect x="245.78" y="216.43" width="160.66" height="6.59" style="fill:#fff"/><rect x="245.78" y="231.34" width="104.09" height="6.59" style="fill:#fff"/><path d="M473.5,325.28H321a7.77,7.77,0,0,1-7.63-7.86V237.8a7.77,7.77,0,0,1,7.63-7.86H518.83a7.77,7.77,0,0,1,7.63,7.86v79.62a7.77,7.77,0,0,1-7.63,7.86h-14.5l-23.67,15.15-.54-15.54Z" style="fill:#73be00"/><rect x="341.69" y="255.48" width="154.49" height="7.66" style="fill:#fff"/><rect x="341.69" y="272.8" width="154.49" height="7.66" style="fill:#fff"/><rect x="341.69" y="290.13" width="100.1" height="7.66" style="fill:#fff"/><path d="M463,388.72a9.36,9.36,0,1,1,9.38-9.36A9.37,9.37,0,0,1,463,388.72Z" style="fill:gray"/><path d="M486.69,388.72a9.36,9.36,0,1,1,9.38-9.36A9.37,9.37,0,0,1,486.69,388.72Z" style="fill:gray"/><path d="M509.8,388.72a9.36,9.36,0,1,1,9.38-9.36A9.38,9.38,0,0,1,509.8,388.72Z" style="fill:gray"/></g></svg>