<svg xmlns="http://www.w3.org/2000/svg" xmlns:xlink="http://www.w3.org/1999/xlink" viewBox="0 0 566.93 566.93"><defs><clipPath id="a6e67de6-ce5b-4584-9031-e16879bfd927"><circle cx="283.46" cy="283.46" r="283.46" style="fill:none"/></clipPath></defs><g id="fe396ab5-ada4-45ca-a6b0-ce96be71b23d" data-name="Copy"><g style="opacity:0.05"><circle cx="283.46" cy="283.46" r="283.46"/></g><g style="clip-path:url(#a6e67de6-ce5b-4584-9031-e16879bfd927)"><path d="M470.79,575,470,505.2c-.95-84.43-22.2-130.53-50-156.88-28.92-31-79.27-41.45-136.6-41.45s-107.67,10.49-136.59,41.45c-27.76,26.36-49,72.45-50,156.88L96.14,575Z" style="fill:#73be00"/><rect x="241.13" y="320.32" width="84.67" height="254.71" style="fill:#e8e8e8"/><path d="M283.46,370.73h0A42.34,42.34,0,0,0,325.8,328.4V249.1H241.13v79.3A42.33,42.33,0,0,0,283.46,370.73Z" style="fill:#d99068"/><path d="M356.67,81.46A44.71,44.71,0,1,0,312,126.17a44.71,44.71,0,0,0,44.71-44.71" style="fill:#464646"/><path d="M210.26,157.64v57.7c0,41,33.58,93.29,74.62,92.51,39.77-.75,71.79-51.11,71.79-91.07V157.64a73.21,73.21,0,0,0-73.21-73.21h0A73.21,73.21,0,0,0,210.26,157.64Z" style="fill:#e2a88a"/><path d="M342.3,108.72a73.23,73.23,0,0,0-58-29.64c-40.73-.47-74.05,33.81-74.05,74.53V172.7h0a176.69,176.69,0,0,0,101-45.73l1.12-1,44.32,50.84v-24.5A72.87,72.87,0,0,0,342.3,108.72Z" style="fill:#464646"/></g><path d="M422.9,434.05c-4.9-14.5-26.61-13.08-32.5,3.27-6.73-16.89-27.59-17.77-32.49-3.27-8.81,26.06,32.49,51,32.49,51S431.71,460.11,422.9,434.05Z" style="fill:#fff"/></g></svg>