<svg xmlns="http://www.w3.org/2000/svg" xmlns:xlink="http://www.w3.org/1999/xlink" version="1.1" x="0px" y="0px" enable-background="new 0 0 1200 1200" xml:space="preserve" viewBox="223.78 241 718.03 744.19">
<g id="k">
	<circle fill="#D6E5E3" cx="582.803" cy="600" r="359.004"/>
</g>
<g id="Berater">
	<g>
		<defs>
			<circle id="SVGID_1_" cx="582.803" cy="600" r="359.004"/>
		</defs>
		<clipPath id="SVGID_2_">
			<use xlink:href="#SVGID_1_" overflow="visible"/>
		</clipPath>
		<path clip-path="url(#SVGID_2_)" fill="#2D7C7C" d="M442.71,936.102c0,0,1.92-107.846-2.79-135.662s-12.208-29.385-12.208-29.385    s-120.734-2.18-136.482-5.93c-15.748-3.75-12.266,67.491-6.508,81.739C290.48,861.112,433.758,937.908,442.71,936.102z"/>
		<path clip-path="url(#SVGID_2_)" fill="#FFFFFF" d="M333.237,615.432c0,0,7.041,4.867,14.334,4.53s29.238-4.53,29.238-4.53    l8.249,152.241c0,0-40.755,7.608-58.046,0C309.722,760.065,333.237,615.432,333.237,615.432z"/>
		<path clip-path="url(#SVGID_2_)" fill="#F67D28" d="M378.143,572.386c0,0,6.053-5.604,6.916-25.507    c0.711-16.409,1.653-43.93-13.025-56.447c-13.608-11.603-47.948-8.952-57.845,7.798c-7.765,13.141-3.881,41.24-2.241,53.345    c1.569,11.578,8.825,20.246,8.825,20.246l-0.106,19.715c0,0-1.924,34.884,26.906,35.971c29.712,1.12,31.512-33.469,31.512-37.252    C379.084,586.473,378.143,572.386,378.143,572.386z"/>
		<path clip-path="url(#SVGID_2_)" fill="#F9D0BB" d="M320.793,582.36c0,0-11.545,15.706-15.581,16.503    c-8.803,1.739-49.71,9.786-66.163,25.22s-15.249,52.96-15.249,52.96l33.228,115.158l12.391-83.74    c-1.65,64.286-6.881,93.521-1.74,95.578c10.283,4.113,74.552,10.797,76.609,7.712s1.542-62.727,0-95.632    s-3.599-109.813-4.627-113.777C338.632,598.377,326.622,600.345,320.793,582.36z"/>
		<path clip-path="url(#SVGID_2_)" fill="#F9D0BB" d="M356.113,600.602c0,0,9.766-4.619,14.499-10.212    c5.223-6.172,8.155-11.441,8.155-11.441l4.168,10.521c0,0,68.003,15.333,81.29,26.552c20.052,16.931,20.39,61.795,23.475,77.22    c3.085,15.425,5.691,95.482,5.691,95.482l-38.561,49.247c0,0-6.17-53.986-8.741-73.01c-2.571-19.024-8.661-45.764-8.661-45.764    s4.548,65.816,2.492,81.241c0.514,0.514-11.826,10.831-35.991,12.1s-41.646,1.268-43.703-3.359s-3.289-83.478-4.627-111.767    C353.543,653.951,354.571,610.539,356.113,600.602z"/>
		<path clip-path="url(#SVGID_2_)" fill="#2D7C7C" d="M331.463,502.693c12.564-1.126,31.308,1.886,38.733-3.162    c3.644-1.675,6.132,9.241,9.41,19.247c3.137,9.575,3.152,22.229,5.787,22.667c3.238,0.539,7.672-7.804,6.726-17.258    s-8.343-37.574-14.962-40.85c-6.618-3.276-14.251-2.737-14.251-2.737s-4.659-7.234-17.569-7.158    c-8.886,0.053-16.872,4.107-16.872,4.107s-8.107-1.83-17.841,8.961c-8.11,8.99-10.142,37.088-4.686,56.874    c2.394,8.684,7.345,5.452,6.738-1.677c-0.834-9.785,1.646-27.705,8.058-34.117C320.733,507.591,326.795,503.112,331.463,502.693z"/>
		<path clip-path="url(#SVGID_2_)" fill="#F67D28" d="M415.232,676.164c1.232-1.893,2.107-3.955,2.354-6.215    c0.282-2.576,0.664-4.281,0.495-6.85c-0.178-2.713-4.357-4.033-5.471-2.691c-0.74-0.87-1.289-1.734-3.063-2.111    c-1.548-0.329-2.862,0.35-3.377,0.663c0,0,0.338-2.029,0.379-2.239c0.471-2.405,0.918-4.814,1.342-7.228    c0.293-1.668,1.101-4.667,0.504-6.323c-0.517-1.434-2.384-2.28-3.913-1.833c-1.715,0.501-2.197,3.51-2.528,5.05    c-0.886,4.114-1.086,8.25-1.955,12.368c-0.156,0.661-1.206,0.817-1.356-0.063c-0.189-2.116-0.061-4.25-0.253-6.366    c-0.329-3.621-0.015-5.789-0.954-9.766c-0.267-0.991-2.156-1.949-3.304-1.923c-3.181,0.073-2.64,4.386-2.61,5.406    c0.044,1.476,0.106,2.951,0.164,4.427c0.012,1.402,0.017,2.804,0.062,4.206c0.039,1.186,0.09,2.371,0.153,3.555    c-0.223,3.665-2.827,2.7-3.298,5.003c-0.431,2.11-0.98,6.197-0.366,12.029c0.271,3.714,2.218,6.139,5.226,8.313    c0.739,1.507-0.005,9.982,0.373,11.693c0.474,2.15,4.459,0.987,6.302,1.286c1.141,0.185,2.283,0.37,3.424,0.555    c1.001,0.162,2.07,0.444,3.088,0.319c2.068-0.254,2.957-2.433,3.392-4.221c0.49-2.013,0.377-4.131,0.412-6.185    c0.036-2.098,0.363-3.998,1.395-5.845C412.834,679.415,414.132,677.853,415.232,676.164z M405.303,645.831    c0.004,0.022,0.002,0.044,0.005,0.066c-0.005-0.01-0.013-0.019-0.019-0.029C405.294,645.856,405.299,645.843,405.303,645.831z"/>
		<path clip-path="url(#SVGID_2_)" fill="#133335" d="M393.879,669.152c2.29-0.047,4.635,0.062,6.88,0.547    c0.873,0.188,1.801,0.45,2.474,1.049c0.284,0.253,0.528,0.557,0.669,0.915c0.08,0.202,0.137,0.494,0.118,0.657    c-0.199,1.75-2.774,1.862-4.176,1.862c-2.398,0-4.797-0.15-7.18-0.417c-0.806-0.09-1.5,0.754-1.5,1.5c0,0.886,0.691,1.409,1.5,1.5    c2.269,0.254,4.549,0.398,6.832,0.415c2.121,0.016,4.247-0.19,5.927-1.613c1.658-1.405,1.999-3.704,0.984-5.588    c-0.973-1.807-2.921-2.758-4.851-3.175c-2.503-0.539-5.122-0.707-7.677-0.654C391.951,666.191,391.945,669.191,393.879,669.152    L393.879,669.152z"/>
		<path clip-path="url(#SVGID_2_)" fill="#133335" d="M404.699,659.799c-0.702,2.469-1.101,5.035-1.165,7.602    c-0.052,2.097,0.19,4.857,2.676,5.445c2.457,0.582,4.271-1.741,5.288-3.624c1.139-2.107,1.93-4.398,2.315-6.762    c0.13-0.799-0.208-1.614-1.048-1.845c-0.737-0.203-1.688,0.249-1.845,1.048c-0.474,2.407-0.973,4.811-1.422,7.222    c-0.226,1.213-0.347,2.428,0.165,3.586c0.453,1.025,1.367,1.661,2.41,1.998c1.561,0.505,3.265,0.454,4.452-0.79    c1.039-1.089,1.569-2.61,1.969-4.03c0.452-1.606,0.718-3.254,1.075-4.882c0.174-0.791-0.238-1.623-1.048-1.845    c-0.751-0.206-1.671,0.253-1.845,1.048c-0.335,1.524-0.589,3.065-0.991,4.573c-0.108,0.405-0.226,0.808-0.361,1.206    c-0.064,0.19-0.133,0.378-0.205,0.565c-0.068,0.167-0.072,0.181-0.015,0.042c-0.038,0.085-0.077,0.17-0.117,0.254    c-0.15,0.31-0.318,0.615-0.522,0.893c0.219-0.298-0.091,0.08-0.14,0.134c-0.052,0.051-0.105,0.099-0.161,0.145    c0.153-0.114,0.183-0.141,0.093-0.08c-0.19,0.142-0.315,0.037-0.049,0.048c-0.429-0.017,0.183,0.098-0.098,0.035    c-0.418-0.093-0.649-0.043-1.068-0.159c-0.237-0.065-0.298-0.08-0.449-0.176c-0.101-0.064-0.18-0.157-0.181-0.159    c-0.18-0.326-0.142-0.773-0.1-1.143c0.139-1.233,0.473-2.47,0.713-3.687c0.263-1.334,0.526-2.668,0.788-4.002    c-0.964-0.266-1.929-0.532-2.893-0.798c-0.287,1.762-0.776,3.506-1.544,5.122c-0.348,0.732-0.72,1.515-1.206,2.166    c-0.194,0.259-0.452,0.539-0.712,0.731c-0.258,0.19-0.439,0.263-0.564,0.253c-0.046-0.004-0.115-0.118-0.151-0.186    c-0.033-0.062-0.051-0.09-0.095-0.266c-0.026-0.106-0.087-0.382-0.089-0.401c-0.101-0.734-0.035-1.742,0.01-2.561    c0.113-2.012,0.471-3.986,1.022-5.923C408.121,658.737,405.227,657.943,404.699,659.799L404.699,659.799z"/>
		<g clip-path="url(#SVGID_2_)">
			<g>
				
					<ellipse transform="matrix(0.0551 -0.9985 0.9985 0.0551 -192.2856 873.9254)" fill="#FFFFFF" cx="365.582" cy="538.554" rx="3.006" ry="7.056"/>
				<path fill="#133335" d="M366.331,542.581c-0.32,0-0.643-0.009-0.969-0.027c-3.998-0.221-7.968-1.818-7.824-4.443      c0.039-0.71,0.46-2.032,2.838-2.894c1.486-0.539,3.409-0.775,5.427-0.663c3.997,0.22,7.968,1.817,7.823,4.443      c-0.039,0.71-0.46,2.032-2.838,2.894C369.543,542.342,367.987,542.581,366.331,542.581z M364.848,536.528      c-1.423,0-2.771,0.2-3.79,0.569c-1.024,0.371-1.507,0.842-1.523,1.124c-0.039,0.706,2.186,2.129,5.937,2.336      c1.728,0.096,3.414-0.104,4.635-0.546c1.024-0.371,1.507-0.842,1.522-1.124c0.039-0.706-2.186-2.129-5.937-2.336      C365.41,536.536,365.127,536.528,364.848,536.528z"/>
			</g>
			
				<ellipse transform="matrix(0.0551 -0.9985 0.9985 0.0551 -192.2856 873.9254)" fill="#133335" cx="365.582" cy="538.554" rx="2.414" ry="2.803"/>
		</g>
		<g clip-path="url(#SVGID_2_)">
			<g>
				
					<ellipse transform="matrix(0.9964 -0.0848 0.0848 0.9964 -44.4984 29.9324)" fill="#FFFFFF" cx="330.195" cy="538.921" rx="7.056" ry="3.006"/>
				<path fill="#133335" d="M329.065,542.976c-3.481,0-6.702-1.073-6.897-3.372c-0.061-0.709,0.172-2.076,2.407-3.261      c1.396-0.74,3.271-1.242,5.28-1.413c3.989-0.335,8.144,0.688,8.368,3.309l0,0c0.223,2.621-3.699,4.335-7.688,4.675      C330.045,542.955,329.553,542.976,329.065,542.976z M331.331,536.866c-0.414,0-0.85,0.018-1.306,0.057      c-1.721,0.146-3.366,0.579-4.513,1.187c-0.962,0.51-1.375,1.044-1.351,1.325c0.06,0.705,2.457,1.805,6.205,1.485      c3.743-0.318,5.924-1.807,5.864-2.512l0,0C336.177,537.79,334.318,536.866,331.331,536.866z"/>
			</g>
			
				<ellipse transform="matrix(0.9964 -0.0848 0.0848 0.9964 -44.4984 29.9324)" fill="#133335" cx="330.195" cy="538.921" rx="2.803" ry="2.414"/>
		</g>
		<path clip-path="url(#SVGID_2_)" fill="#133335" d="M341.564,539.168c-0.564,1.457-0.451,3.304-0.437,4.837    c0.018,2.065,0.136,4.129,0.274,6.189c0.117,1.739-0.093,4.238,1.21,5.543c1.003,1.005,2.589,1.469,3.944,1.747    c1.604,0.329,3.282,0.387,4.871-0.056c3.006-0.837,5.589-3.711,5.257-6.966c-0.082-0.806-0.63-1.5-1.5-1.5    c-0.747,0-1.583,0.689-1.5,1.5c0.213,2.086-1.386,3.686-3.327,4.143c-1.17,0.275-2.41,0.154-3.563-0.144    c-0.758-0.196-2.055-0.382-2.182-1.297c-0.175-1.264-0.188-2.578-0.267-3.85c-0.109-1.737-0.198-3.476-0.216-5.216    c-0.009-0.861-0.004-1.725,0.055-2.584c0.013-0.192,0.03-0.383,0.048-0.574c0.006-0.066,0.014-0.132,0.022-0.198    c0.024-0.202-0.051,0.257,0.008-0.028c0.053-0.255,0.102-0.505,0.196-0.749c0.293-0.756-0.323-1.646-1.048-1.845    C342.561,537.888,341.858,538.41,341.564,539.168L341.564,539.168z"/>
		<path clip-path="url(#SVGID_2_)" fill="#133335" d="M321.734,531.953c4.241-1.435,8.784-1.817,13.193-0.994    c0.796,0.148,1.618-0.22,1.845-1.048c0.201-0.731-0.247-1.696-1.048-1.845c-4.934-0.921-10.026-0.618-14.788,0.994    C319.118,529.676,319.899,532.574,321.734,531.953L321.734,531.953z"/>
		<path clip-path="url(#SVGID_2_)" fill="#133335" d="M357.561,530.896c4.927-1.942,10.317-2.013,15.288-0.183    c0.76,0.28,1.643-0.313,1.845-1.048c0.23-0.837-0.285-1.564-1.048-1.845c-5.405-1.99-11.523-1.929-16.883,0.183    c-0.753,0.297-1.279,1.004-1.048,1.845C355.913,530.566,356.803,531.195,357.561,530.896L357.561,530.896z"/>
		<path clip-path="url(#SVGID_2_)" fill="#133335" d="M326.672,577.166c5.127,5.062,12.738,6.981,19.723,7.512    c8.595,0.653,16.916-1.679,24.495-5.632c1.284-0.67,0.148-2.612-1.136-1.943c-7.128,3.719-14.916,5.9-22.997,5.351    c-6.49-0.441-13.727-2.172-18.494-6.879C327.231,574.557,325.639,576.147,326.672,577.166L326.672,577.166z"/>
		<path clip-path="url(#SVGID_2_)" fill="#2D7C7C" d="M714.176,589.163c-17.816,28.312-10.316,92.236-8.856,110.688    s7.788,112.509,7.788,112.509l32.059-3.896l-1.063-68.283c0,0,31.697,6.112,70.718,6.194c38.654,0.081,72.02-6.805,72.02-6.805    s-1.19,30.951-0.129,44.823c1.06,13.872,37.99,1.731,39.942-8.56c1.951-10.291,11.9-90.553,11.679-125.686    c-0.174-27.615,2.289-57.224-21.664-75.956c-12.82-10.026-71.553-27.667-71.553-27.667s-2.423,21.279-32.626,21.995    c-19.748,0.468-26.523-16.714-26.523-16.714S730.396,563.387,714.176,589.163z"/>
		<path clip-path="url(#SVGID_2_)" fill="#F9D0BB" d="M851.363,548.451c0,0-4.684-0.992-8.729-4.808    c-3.473-3.276-1.438-8.235-1.438-8.235c5.92-7.204,9.795-23.607,8.83-44.936c-0.827-18.279-6.106-44.716-40.384-42.138    c-28.273,2.126-35.314,19.886-34.585,44.632c0.669,22.731,11.269,41.941,12.513,44.002c4.765,7.893,2.065,12.938-1.603,14.838    c-4.274,2.213,5.026,23.858,30.139,22.372C844.496,572.498,851.363,548.451,851.363,548.451z"/>
		<path clip-path="url(#SVGID_2_)" fill="#133335" d="M799.472,438.535c15.537-4.439,32.76-0.094,41.034,7.044    c10.779,9.299,15.321,20.119,15.676,35.11c0.355,14.991-2.593,26.203-7.168,24.88c-2.367-0.684-1.159-18.164-2.641-24.46    c-1.482-6.297-9.55-29.432-34.76-28.502c-25.211,0.931-30.725,20.062-31.629,25.41c-1.632,9.659-0.204,18.417,0.314,27.319    c0.194,3.342-1.082,9.686-4.846,4.447c-4.215-5.867-7.884-22.585-5.419-38.194C773.023,452.661,783.205,443.183,799.472,438.535z"/>
		<g clip-path="url(#SVGID_2_)">
			<g>
				
					<ellipse transform="matrix(0.9997 -0.0237 0.0237 0.9997 -11.5398 19.7886)" fill="#FFFFFF" cx="829.519" cy="496.997" rx="6.736" ry="2.87"/>
				<path fill="#133335" d="M829.216,500.87c-3.712,0-7.372-1.237-7.432-3.689c-0.06-2.541,3.8-3.961,7.644-4.052      c3.848-0.097,7.765,1.145,7.826,3.685v0c0.06,2.54-3.8,3.96-7.644,4.051C829.479,500.869,829.348,500.87,829.216,500.87z       M829.842,495.124c-0.121,0-0.243,0.001-0.367,0.004c-3.558,0.084-5.706,1.346-5.69,2.005c0.016,0.658,2.204,1.823,5.779,1.733      c3.557-0.084,5.705-1.346,5.69-2.005l0,0C835.239,496.225,833.184,495.124,829.842,495.124z"/>
			</g>
			
				<ellipse transform="matrix(0.9997 -0.0237 0.0237 0.9997 -11.5398 19.7886)" fill="#133335" cx="829.519" cy="496.997" rx="2.676" ry="2.305"/>
		</g>
		<g clip-path="url(#SVGID_2_)">
			<g>
				
					<ellipse transform="matrix(0.9997 -0.0237 0.0237 0.9997 -11.5671 18.9869)" fill="#FFFFFF" cx="795.664" cy="497.746" rx="6.736" ry="2.87"/>
				<path fill="#133335" d="M795.352,501.619c-1.781,0-3.463-0.281-4.771-0.803c-2.269-0.903-2.634-2.197-2.65-2.887      c-0.017-0.69,0.288-2,2.511-3.009c1.379-0.626,3.201-0.996,5.132-1.042c1.919-0.047,3.768,0.238,5.176,0.798      c2.268,0.903,2.634,2.196,2.65,2.887l0,0c0.017,0.69-0.288,2-2.511,3.01c-1.379,0.626-3.201,0.997-5.132,1.042      C795.621,501.618,795.486,501.619,795.352,501.619z M795.965,495.873c-0.114,0-0.229,0.001-0.346,0.004      c-1.643,0.039-3.229,0.354-4.352,0.864c-0.928,0.421-1.345,0.887-1.338,1.141c0.006,0.254,0.443,0.7,1.391,1.077      c1.145,0.456,2.738,0.689,4.389,0.657c1.643-0.039,3.229-0.354,4.352-0.864c0.928-0.422,1.345-0.887,1.338-1.141v0      c-0.006-0.254-0.443-0.699-1.391-1.076C798.943,496.11,797.485,495.873,795.965,495.873z"/>
			</g>
			
				<ellipse transform="matrix(0.9997 -0.0237 0.0237 0.9997 -11.5671 18.9869)" fill="#133335" cx="795.664" cy="497.746" rx="2.676" ry="2.305"/>
		</g>
		<path clip-path="url(#SVGID_2_)" fill="#133335" d="M808.471,498.512c-0.174,2.633-0.347,5.267-0.42,7.905    c-0.036,1.318-0.046,2.637-0.018,3.955c0.025,1.189-0.012,2.529,0.921,3.419c0.842,0.804,2.19,1.119,3.295,1.362    c1.284,0.283,2.589,0.387,3.889,0.154c2.142-0.384,3.936-1.806,4.682-3.853c0.277-0.761-0.311-1.643-1.048-1.845    c-0.835-0.229-1.567,0.284-1.845,1.048c-0.455,1.25-1.956,1.771-3.172,1.788c-0.918,0.013-1.8-0.179-2.676-0.438    c-0.289-0.085-0.753-0.155-1.004-0.337c0.131,0.096-0.004,0.079-0.009-0.111c-0.005-0.193-0.012-0.386-0.018-0.578    c-0.132-4.16,0.149-8.32,0.422-12.468c0.053-0.809-0.728-1.5-1.5-1.5C809.115,497.012,808.525,497.7,808.471,498.512    L808.471,498.512z"/>
		<g clip-path="url(#SVGID_2_)">
			<path fill="#133335" d="M806.321,525.745c4.667,2.898,11.859,2.105,16.209-0.582c2.422-1.496,2.778-2.643,2.726-3.217     c-0.072-0.797-1.391-1.15-2.316-0.937c-6.957,1.602-11.506,1.814-18.375,0.801c-0.225-0.033-0.474,0.025-0.653,0.145     c-0.187,0.125-0.256,0.337-0.278,0.535C803.529,523.478,805.007,524.998,806.321,525.745"/>
		</g>
		<g clip-path="url(#SVGID_2_)">
			<path fill="#133335" d="M341.97,567.375c4.667,2.898,11.859,2.105,16.209-0.582c2.422-1.496,2.778-2.643,2.726-3.217     c-0.072-0.797-1.391-1.15-2.316-0.937c-6.957,1.602-11.506,1.814-18.375,0.801c-0.225-0.033-0.474,0.025-0.653,0.145     c-0.187,0.125-0.256,0.337-0.278,0.536C339.178,565.108,340.656,566.629,341.97,567.375"/>
		</g>
		<path clip-path="url(#SVGID_2_)" fill="#133335" d="M787.725,490.545c4.829-1.589,9.955-1.073,14.921-0.567    c0.807,0.082,1.5-0.748,1.5-1.5c0-0.88-0.691-1.418-1.5-1.5c-5.233-0.533-10.632-1-15.718,0.674    C785.102,488.253,785.884,491.151,787.725,490.545L787.725,490.545z"/>
		<path clip-path="url(#SVGID_2_)" fill="#133335" d="M821.776,489.826c5.198-1.324,10.643-1.62,15.948-0.791    c0.799,0.125,1.613-0.204,1.845-1.048c0.196-0.712-0.242-1.719-1.048-1.845c-5.857-0.915-11.793-0.674-17.543,0.791    C819.109,487.41,819.901,490.304,821.776,489.826L821.776,489.826z"/>
		<path clip-path="url(#SVGID_2_)" fill="#133335" d="M744.103,740.182c0,0-2.857,25.635-1.136,79.96    c1.737,54.851,3.309,116.58,3.309,116.58l70.811-17.393c0,0-0.375-31.532-0.142-50.188c0.199-15.891,1.686-40.717,6.726-41.526    c5.04-0.809,6.911,8.896,8.486,34.374c1.575,25.479,4.074,54.149,4.074,54.149l54.217-32.865c0,0,8.706-97.503-0.929-145.876    c0,0-43.871,8.747-74.698,8.979C783.994,746.609,744.103,740.182,744.103,740.182z"/>
		<path clip-path="url(#SVGID_2_)" fill="#F67D28" d="M546.787,676.706c0,0-34.96,2.091-52.805,22.747    c-25.184,29.151-44.745,94.237-44.681,162.477c0.05,53.642,8.936,90.987,8.936,90.987l44.681,14.623    c0,0-11.835-95.945-10.052-117.494c1.907-23.046,10.096-65.369,14.158-66.181c4.062-0.812-0.856,15.512,0.768,25.26    c1.625,9.749,7.311,16.248,6.499,22.747s-13.874,30.731-16.279,56.055c-2.406,25.323,1.656,85.3,4.094,89.362    c2.437,4.062,45.832,9.749,95.218,7.311c49.386-2.437,105.441-15.476,108.69-20.33c3.25-4.854,1.836-60.021,0-77.156    c-2.446-22.822-19.351-61.118-19.351-61.118c8.702-28.287,2.058-34.606,3.103-40.431c1.193-6.647,12.377,35.506,14.002,43.63    s4.301,81.469,4.301,94.467s-4.268,58.5,0.088,58.5c4.356,0,33.602-7.312,33.602-7.312s13.558-95.381,7.282-160.032    c-1.806-18.597-29.584-90.007-46.276-110.492C674.331,669.434,610.965,670.206,546.787,676.706z"/>
		<path clip-path="url(#SVGID_2_)" fill="#F9D0BB" d="M612.367,558.031c-12.313,2.428-56.975,10.165-58.801,30.948    c-4.682,53.274,17.537,70.149,17.537,70.149l-2.063,46.422c0,0,4.263,24.374,27.927,26.389c32.405,2.76,34.803-24.76,34.803-24.76    l-0.695-53.634c0,0,19.126-33.582,9.145-63.534C637.736,582.557,624.976,555.544,612.367,558.031z"/>
		<path clip-path="url(#SVGID_2_)" fill="#2D7C7C" d="M616.493,547.048c-9.007-2.348-44.497-8.779-66.761,19.089    c-17.403,21.783-15.297,53.714-12.883,73.556c2.747,22.574-5.002,69.709-4.542,76.148s9.658,7.116,17.937,7.467    c8.279,0.351,23.086-2.527,24.245-7.493c1.16-4.966-3.244-52.691-3.387-56.688s-8.929-14.184-10.758-39.165    c-1.186-16.2,0.411-21.562,2.033-23.402c1.622-1.84,18.88-11.01,26.449-14.91c9.744-5.02,22.455-15.957,25.749-16.562    c0.648-0.119,2.803,11.188,12.032,19.118c7.515,6.457,10.321,14.107,10.287,32.223c-0.043,23.284-9.27,31.417-10.248,39.784    c-0.479,4.093,0.214,15.56,1.345,26.973c1.998,20.179,0.613,29.819,2.837,32.193c12.439,13.281,38.901,3.151,38.763-2.862    c-0.219-9.57-11.208-54.157-11.245-64.285c-0.088-24.306-3.241-56.787-10.118-72.208    C641.629,561.225,633.902,551.586,616.493,547.048z"/>
		<g clip-path="url(#SVGID_2_)">
			<g>
				<ellipse fill="#FFFFFF" cx="614.576" cy="616.177" rx="7.056" ry="3.006"/>
				<path fill="#133335" d="M614.575,620.183c-4.003,0-8.056-1.376-8.056-4.006s4.053-4.006,8.056-4.006      c4.004,0,8.057,1.376,8.057,4.006S618.579,620.183,614.575,620.183z M614.575,614.171c-3.757,0-6.056,1.299-6.056,2.006      s2.299,2.006,6.056,2.006s6.057-1.299,6.057-2.006S618.332,614.171,614.575,614.171z"/>
			</g>
			<ellipse fill="#133335" cx="614.576" cy="616.177" rx="2.803" ry="2.414"/>
		</g>
		<g clip-path="url(#SVGID_2_)">
			<g>
				<ellipse fill="#FFFFFF" cx="580.269" cy="616.845" rx="7.056" ry="3.006"/>
				<path fill="#133335" d="M580.27,620.851c-4.003,0-8.057-1.376-8.057-4.006s4.053-4.006,8.057-4.006s8.056,1.376,8.056,4.006      S584.273,620.851,580.27,620.851z M580.27,614.839c-3.757,0-6.057,1.299-6.057,2.006s2.299,2.006,6.057,2.006      c3.757,0,6.056-1.299,6.056-2.006S584.026,614.839,580.27,614.839z"/>
			</g>
			<ellipse fill="#133335" cx="580.269" cy="616.845" rx="2.803" ry="2.414"/>
		</g>
		<path clip-path="url(#SVGID_2_)" fill="#133335" d="M591.533,630.559c0.171,1.389,0.835,2.605,2.025,3.381    c1.211,0.789,2.877,1.026,4.294,0.989c2.895-0.077,5.545-1.635,6.642-4.366c0.201-0.501-0.22-1.099-0.698-1.23    c-0.57-0.157-1.028,0.195-1.23,0.698c-0.72,1.793-2.672,2.794-4.52,2.89c-1.673,0.086-4.258-0.285-4.513-2.362    c-0.066-0.536-0.412-1-1-1C592.044,629.559,591.467,630.02,591.533,630.559L591.533,630.559z"/>
		<path clip-path="url(#SVGID_2_)" fill="#133335" d="M608.041,606.208c3.7-3.835,9.846-4.243,13.945-0.773    c0.977,0.827,2.398-0.581,1.414-1.414c-2.391-2.024-5.493-3.167-8.643-2.979c-3.072,0.184-5.995,1.538-8.131,3.752    C605.732,605.72,607.145,607.136,608.041,606.208L608.041,606.208z"/>
		<path clip-path="url(#SVGID_2_)" fill="#133335" d="M570.637,609.42c1.587-2.612,4.315-4.452,7.346-4.903    c3.118-0.464,6.38,0.656,8.636,2.829c0.927,0.893,2.344-0.519,1.414-1.414c-2.748-2.646-6.617-3.915-10.396-3.371    c-3.603,0.519-6.846,2.753-8.727,5.85C568.24,609.514,569.969,610.52,570.637,609.42L570.637,609.42z"/>
		<g clip-path="url(#SVGID_2_)">
			<path fill="#133335" d="M586.396,641.585c0.803-1.083,9.65,0.006,18.023-0.683c2.072-0.171,4.193-0.161,6.194,0.558     c0.511,0.184,1.072,0.492,1.248,1.132c0.215,0.783-0.262,1.584-0.743,2.143c-0.988,1.147-3.083,4.288-10.18,5.217     c-4.798,0.628-9.018-0.188-13.174-3.316c-0.713-0.537-1.408-1.211-1.762-2.166S585.737,642.226,586.396,641.585"/>
		</g>
		<path clip-path="url(#SVGID_2_)" fill="#133335" d="M573.96,661.108c5.693,4.542,12.657,7.298,19.927,7.831    c6.388,0.468,13.061-0.785,19.046-2.987c3.268-1.202,6.421-2.75,9.145-4.939c0.421-0.339,0.353-1.062,0-1.414    c-0.416-0.416-0.992-0.339-1.414,0c-4.628,3.718-10.78,5.608-16.531,6.672c-6.259,1.158-12.606,0.994-18.667-1.07    c-3.639-1.239-7.085-3.108-10.091-5.507c-0.422-0.336-1.002-0.412-1.414,0C573.611,660.043,573.536,660.77,573.96,661.108    L573.96,661.108z"/>
		<path clip-path="url(#SVGID_2_)" fill="#FFFFFF" d="M648.574,764.034c0,0-11.181-9.383-16.108,0    c-8.378,15.956,18.256,26.489,18.256,26.489s25.115-18.741,13.477-29.512C656.731,754.099,648.574,764.034,648.574,764.034z"/>
		<path clip-path="url(#SVGID_2_)" fill="#133335" d="M739.825,645.838c-0.341,11.275-0.163,22.569,0.118,33.844    c0.315,12.636,0.821,25.268,1.528,37.888c0.333,5.94,0.71,11.879,1.184,17.81c0.153,1.911,3.154,1.928,3,0    c-0.899-11.249-1.488-22.524-1.968-33.798c-0.537-12.626-0.917-25.263-1.012-37.9c-0.045-5.947-0.029-11.897,0.151-17.842    C742.883,643.907,739.883,643.909,739.825,645.838L739.825,645.838z"/>
		<path clip-path="url(#SVGID_2_)" fill="#133335" d="M890.463,643.984c1.557,23.568-0.381,47.253-0.867,70.827    c-0.131,6.352-0.176,12.706-0.009,19.058c0.051,1.927,3.051,1.934,3,0c-0.626-23.767,1.372-47.516,1.401-71.28    c0.008-6.205-0.117-12.412-0.526-18.605C893.336,642.068,890.335,642.054,890.463,643.984L890.463,643.984z"/>
		<g clip-path="url(#SVGID_2_)">
			<circle fill="#F9D0BB" cx="850.849" cy="632.089" r="17.46"/>
			<circle fill="#133335" cx="844.75" cy="627.376" r="2.183"/>
			<circle fill="#133335" cx="857.636" cy="627.07" r="2.183"/>
			<path fill="#133335" d="M843.528,637.274c1.16,3.333,4.541,5.106,7.981,4.886c3.227-0.206,6.167-2.091,7.644-4.981     c0.368-0.721,0.189-1.627-0.538-2.052c-0.67-0.392-1.682-0.186-2.052,0.538c-0.955,1.871-2.716,3.245-4.832,3.478     c-2.065,0.228-4.569-0.539-5.309-2.666c-0.266-0.765-1.027-1.273-1.845-1.048C843.833,635.633,843.261,636.505,843.528,637.274     L843.528,637.274z"/>
		</g>
		<path clip-path="url(#SVGID_2_)" fill="#133335" d="M794.81,541.567c4.441,2.97,9.893,4.232,15.154,4.654    c6.053,0.486,12.312-0.241,18.061-2.21c3.325-1.139,6.5-2.695,9.358-4.746c1.555-1.116,0.058-3.719-1.514-2.59    c-6.051,4.343-13.489,6.415-20.882,6.661c-6.351,0.211-13.277-0.757-18.663-4.359C794.715,537.9,793.211,540.498,794.81,541.567    L794.81,541.567z"/>
		<g clip-path="url(#SVGID_2_)">
			<path fill="#F67D28" d="M538.849,381.537c0,0-2.43-13.357,3.573-20.729c8.248-10.127,24.959-9.307,32.15,0     c7.192,9.307,9.37,23.69,9.37,23.69s2.684-5.085,8.607-5.931c5.922-0.846,11.725,1.071,22.977-2.695     c20.565-6.884,38.96-21.578,41.498-21.155c2.538,0.423,4.745,3.628,4.517,7.277c-0.228,3.649-0.912,6.386-0.912,6.386     s2.965,1.588,2.965,4.101s-1.596,6.846-1.596,6.846s2.737,3.193,1.596,7.526c-1.14,4.333-10.719,21.209-22.35,26.227     s-21.894,9.806-21.894,9.806s4.105,3.193,11.175,2.965c7.07-0.228,14.596-1.345,14.824,0.012     c0.228,1.357-10.491,19.829-29.419,26.215c-18.929,6.386-40.215,11.334-59.503,1.59c-17.932-9.06-18.064-20.025-18.064-20.025     s-20.606,3.232-30.949-4.525s-12.283-10.99-13.252-13.252s-2.263-5.495-2.263-5.495s-3.879-3.555-4.848-7.434     s-1.293-6.141-1.293-6.141s-4.848-3.555-8.081-8.727s-1.939-6.464,0-5.495c1.939,0.97,18.424,4.525,24.242,3.879     c5.818-0.646,10.739-4.696,20.399-4.696C527.485,381.754,538.849,381.537,538.849,381.537z"/>
			<g>
				<ellipse fill="#133335" cx="564.044" cy="370.506" rx="2.173" ry="2.69"/>
				<ellipse fill="#133335" cx="549.634" cy="370.506" rx="2.173" ry="2.69"/>
				<path fill="#133335" d="M554.055,375.177c0.052-0.624,4.885-0.751,4.885,0c0,0.751-1.818,5.386-2.445,5.386      C555.869,380.563,553.93,376.68,554.055,375.177z"/>
			</g>
			<path fill="#133335" d="M601.447,393.606c7.788-0.681,15.49-2.195,22.85-4.864c7.083-2.568,13.77-6.099,20.018-10.296     c3.81-2.559,7.461-5.351,11.007-8.263c1.493-1.226-0.64-3.338-2.121-2.121c-11.474,9.422-24.261,17.068-38.824,20.503     c-4.255,1.004-8.576,1.66-12.93,2.041C599.538,390.773,599.521,393.775,601.447,393.606L601.447,393.606z"/>
			<path fill="#133335" d="M615.526,403.791c6.074-0.696,12.134-1.779,17.851-4.009c5.08-1.982,9.736-4.768,14.16-7.934     c3.062-2.191,6.026-4.517,8.978-6.853c1.513-1.197-0.622-3.307-2.121-2.121c-5.717,4.524-11.525,9.105-18.087,12.359     c-6.493,3.22-13.62,4.738-20.781,5.558C613.63,401.008,613.608,404.011,615.526,403.791L615.526,403.791z"/>
			<path fill="#133335" d="M595.005,454.532c2.894,1.436,6.001,1.932,9.171,2.359c3.328,0.449,6.651,0.846,10.011,0.935     c6.804,0.179,13.631-0.675,20.199-2.45c1.862-0.503,1.072-3.398-0.798-2.893c-6.173,1.668-12.529,2.475-18.925,2.353     c-3.073-0.059-6.121-0.364-9.165-0.768c-3.041-0.404-6.198-0.746-8.98-2.127C594.796,451.086,593.274,453.672,595.005,454.532     L595.005,454.532z"/>
			<path fill="#133335" d="M612.023,446.297c9.593,1.875,19.529,1.313,28.826-1.728c1.827-0.598,1.045-3.495-0.798-2.893     c-8.777,2.871-18.16,3.501-27.23,1.728C610.935,443.035,610.127,445.926,612.023,446.297L612.023,446.297z"/>
			<path fill="#133335" d="M487.631,396.376c5.988,3.487,13.677,5.254,20.59,4.63c1.457-0.131,2.932-0.356,4.317-0.843     c1.47-0.517,2.791-1.358,4.25-1.904c3.916-1.464,8.072-1.794,12.222-1.667c1.931,0.059,1.929-2.941,0-3     c-4.028-0.123-8.145,0.169-12,1.419c-2.805,0.91-5.206,2.553-8.176,2.931c-6.548,0.833-14.01-0.85-19.689-4.157     C487.474,392.813,485.962,395.404,487.631,396.376L487.631,396.376z"/>
			<path fill="#133335" d="M498.096,412.278c4.733-0.668,8.859,1.462,13.359,2.433c6.161,1.33,11.779-0.814,16.883-4.236     c1.596-1.07,0.096-3.67-1.514-2.59c-2.832,1.899-5.916,3.616-9.331,4.146c-2.169,0.337-4.332,0.057-6.435-0.503     c-2.063-0.55-4.065-1.311-6.146-1.799c-2.531-0.593-5.041-0.706-7.613-0.343C495.395,409.654,496.205,412.545,498.096,412.278     L498.096,412.278z"/>
			<path fill="#133335" d="M535.188,408.194c-0.981,11.305,0.119,23.73,6.134,33.624c2.897,4.764,7.152,8.486,11.913,11.32     c4.593,2.735,9.679,4.942,14.954,5.902c5.832,1.061,11.973,1.324,17.831,0.314c1.899-0.327,1.094-3.219-0.797-2.893     c-4.809,0.829-9.93,0.651-14.741-0.066c-4.974-0.741-9.594-2.488-14.011-4.872c-4.572-2.467-8.881-5.713-11.817-10.06     c-3.013-4.463-4.765-9.667-5.758-14.928c-1.137-6.031-1.237-12.238-0.708-18.34C538.355,406.271,535.354,406.282,535.188,408.194     L535.188,408.194z"/>
		</g>
	</g>
	<g>
	</g>
	<g>
	</g>
	<g>
	</g>
	<g>
	</g>
	<g>
	</g>
	<g>
	</g>
	<g>
	</g>
	<g>
	</g>
	<g>
	</g>
	<g>
	</g>
	<g>
	</g>
	<g>
	</g>
	<g>
	</g>
	<g>
	</g>
	<g>
	</g>
</g>
</svg>