<svg xmlns="http://www.w3.org/2000/svg" viewBox="0 0 566.93 566.93"><g id="bd920a3e-49ba-46b4-b220-11284533f71d" data-name="Copy"><g style="opacity:0.05"><circle cx="283.46" cy="283.46" r="283.46"/></g><polygon points="95.32 258.7 250.21 145.47 414.24 258.7 95.32 258.7" style="fill:gray"/><rect x="95.32" y="257.78" width="318.92" height="173.84" style="fill:gray"/><rect x="126.62" y="181.48" width="256.32" height="231.73" style="fill:#fff;stroke:#fff;stroke-miterlimit:10;stroke-width:0.100000001490116px"/><polyline points="95.32 257.78 189.85 345.02 254.78 344.7 320.77 343.66 414.24 257.78 414.24 431.62 95.32 431.62" style="fill:gray;stroke:#fff;stroke-miterlimit:10;stroke-width:0.100000001490116px"/><rect x="162.18" y="214.8" width="122.84" height="14.73" style="fill:#e6e6e6;stroke:#fff;stroke-miterlimit:10;stroke-width:0.100000001490116px"/><rect x="162.18" y="255.89" width="193.16" height="14.73" style="fill:#e6e6e6;stroke:#fff;stroke-miterlimit:10;stroke-width:0.100000001490116px"/><rect x="162.18" y="287.1" width="193.16" height="14.73" style="fill:#e6e6e6;stroke:#fff;stroke-miterlimit:10;stroke-width:0.100000001490116px"/><rect x="162.18" y="318.31" width="193.16" height="14.73" style="fill:#e6e6e6;stroke:#fff;stroke-miterlimit:10;stroke-width:0.100000001490116px"/><path d="M478.69,152.07a3.69,3.69,0,0,0-4.48-2.7l-31.56,7.85a3.7,3.7,0,1,0,1.78,7.18L476,156.55A3.71,3.71,0,0,0,478.69,152.07Z" style="fill:#73be00"/><path d="M450.19,104.93a3.67,3.67,0,0,0-2.61-1.08h0a3.66,3.66,0,0,0-2.61,1.09L422,128a3.72,3.72,0,0,0,0,5.23,3.73,3.73,0,0,0,5.24,0l22.94-23.05A3.71,3.71,0,0,0,450.19,104.93Z" style="fill:#73be00"/><path d="M399.9,77.34a3.7,3.7,0,0,0-4.25,3l-5.24,32.1a3.77,3.77,0,0,0,.65,2.76,3.69,3.69,0,0,0,2.41,1.49,4,4,0,0,0,.6,0,3.67,3.67,0,0,0,3.64-3.1L403,81.58a3.68,3.68,0,0,0-3.05-4.24Z" style="fill:#73be00"/><g id="a67cb701-1bdb-4e2a-9dd4-7c3d552e3dbf" data-name="Envelop"><polygon points="95.32 257.78 95.32 431.62 123.87 431.62 189.85 345.02 95.32 257.78" style="fill:#c3c3c3;fill-rule:evenodd"/><polygon points="306.04 343.49 203.53 344.7 137.89 431.62 371.68 431.62 306.04 343.49" style="fill:#c3c3c3;fill-rule:evenodd"/><polygon points="414.24 257.78 319.55 343.66 386.91 431.62 414.24 431.62 414.24 257.78" style="fill:#c3c3c3;fill-rule:evenodd"/></g><circle cx="371.67" cy="186.61" r="56.51" style="fill:#73be00"/><path d="M360.25,217.31,337,189.79a4.94,4.94,0,0,1,7.55-6.37l16.17,19.17,35.9-37.05a4.94,4.94,0,1,1,7.09,6.88Z" style="fill:#fff"/></g></svg>