<svg xmlns="http://www.w3.org/2000/svg" xmlns:xlink="http://www.w3.org/1999/xlink" version="1.1" x="0px" y="0px" enable-background="new 0 0 1200 1200" xml:space="preserve" viewBox="223.8 241 718.01 718.01">
<g id="k">
	<circle fill="#D6E5E3" cx="582.803" cy="600" r="359.004"/>
</g>
<g id="Brief">
	<g>
		<defs>
			<circle id="SVGID_1_" cx="582.803" cy="600" r="359.004"/>
		</defs>
		<clipPath id="SVGID_2_">
			<use xlink:href="#SVGID_1_" overflow="visible"/>
		</clipPath>
		<g clip-path="url(#SVGID_2_)">
			<path fill="#2D7C7C" d="M649.086,501.33c-1.974,4.048-136.392-21.308-136.392-21.308c38.911-97.923,19.59-174.02,21.65-176.257     c1.118-1.214,138.735,19.172,139.903,19.909C675.416,324.413,685.197,427.266,649.086,501.33z"/>
		</g>
		<g clip-path="url(#SVGID_2_)">
			<path fill="#FFFFFF" d="M641.578,508.499c-1.974,4.048-136.392-21.307-136.392-21.307c38.911-97.923,19.59-174.02,21.65-176.257     c1.118-1.214,138.735,19.172,139.903,19.909C667.907,331.581,677.689,434.434,641.578,508.499z"/>
		</g>
		<g clip-path="url(#SVGID_2_)">
			<path fill="#2D7C7C" d="M633.464,512.71c-1.974,4.048-136.392-21.308-136.392-21.308c38.911-97.923,19.59-174.02,21.65-176.257     c1.118-1.214,138.735,19.172,139.903,19.909C659.793,335.793,669.575,438.645,633.464,512.71z"/>
		</g>
		<g clip-path="url(#SVGID_2_)">
			<path fill="#FFFFFF" d="M622.142,520.579c-1.974,4.048-136.392-21.308-136.392-21.308c38.911-97.923,19.59-174.02,21.65-176.257     c1.118-1.214,138.735,19.172,139.903,19.909C648.471,343.661,658.253,446.514,622.142,520.579z"/>
		</g>
		<g clip-path="url(#SVGID_2_)">
			<path fill="#2D7C7C" d="M524.011,406.299c0.08,0.01,0.16,0.015,0.239,0.015c0.922,0,1.722-0.685,1.843-1.623l1.127-8.796     c0.13-1.019-0.59-1.951-1.608-2.081c-1.019-0.124-1.951,0.589-2.081,1.608l-1.127,8.796     C522.272,405.237,522.992,406.168,524.011,406.299z"/>
			<path fill="#2D7C7C" d="M543.52,396.619c-1.023-0.125-1.951,0.59-2.081,1.608l-1.127,8.797c-0.13,1.019,0.59,1.951,1.608,2.081     c0.08,0.01,0.16,0.015,0.239,0.015c0.922,0,1.722-0.685,1.843-1.623l1.127-8.797C545.259,397.681,544.539,396.75,543.52,396.619z     "/>
			<path fill="#2D7C7C" d="M579.668,419.079c0.922,0,1.722-0.685,1.843-1.624l1.127-8.797c0.13-1.019-0.59-1.951-1.608-2.081     c-1.022-0.126-1.951,0.59-2.081,1.608l-1.127,8.797c-0.13,1.019,0.59,1.951,1.608,2.081     C579.51,419.073,579.59,419.079,579.668,419.079z"/>
			<path fill="#2D7C7C" d="M593.156,423.532c0.08,0.011,0.16,0.015,0.238,0.015c0.922,0,1.722-0.685,1.843-1.624l1.127-8.797     c0.13-1.018-0.59-1.95-1.609-2.081c-1.018-0.125-1.95,0.59-2.081,1.609l-1.127,8.797     C591.417,422.47,592.137,423.402,593.156,423.532z"/>
			<path fill="#2D7C7C" d="M608.361,424.718c0.08,0.011,0.16,0.015,0.239,0.015c0.922,0,1.722-0.685,1.842-1.624l1.127-8.796     c0.131-1.019-0.589-1.951-1.608-2.081c-1.011-0.127-1.951,0.589-2.081,1.608l-1.127,8.797     C606.622,423.656,607.342,424.588,608.361,424.718z"/>
			<path fill="#2D7C7C" d="M623.769,412.838c-1.012-0.14-1.951,0.588-2.081,1.608l-1.127,8.797     c-0.131,1.019,0.589,1.951,1.608,2.081c0.08,0.011,0.16,0.015,0.239,0.015c0.922,0,1.722-0.685,1.842-1.624l1.127-8.797     C625.508,413.899,624.788,412.968,623.769,412.838z"/>
			<path fill="#2D7C7C" d="M524.796,424.087c0.13-1.019-0.59-1.951-1.608-2.081c-1.016-0.138-1.951,0.589-2.081,1.608l-1.127,8.796     c-0.13,1.019,0.59,1.951,1.608,2.081c0.08,0.011,0.16,0.015,0.239,0.015c0.922,0,1.722-0.685,1.843-1.624L524.796,424.087z"/>
			<path fill="#2D7C7C" d="M540.35,427.65c0.13-1.019-0.59-1.951-1.608-2.081c-1.021-0.137-1.951,0.589-2.081,1.608l-1.127,8.796     c-0.13,1.019,0.59,1.951,1.608,2.081c0.08,0.011,0.16,0.015,0.239,0.015c0.922,0,1.722-0.685,1.843-1.624L540.35,427.65z"/>
			<path fill="#2D7C7C" d="M557.49,439.142l1.127-8.796c0.13-1.019-0.59-1.951-1.608-2.081c-1.019-0.139-1.951,0.589-2.081,1.608     l-1.127,8.796c-0.13,1.019,0.59,1.951,1.608,2.081c0.08,0.011,0.16,0.015,0.239,0.015     C556.57,440.765,557.37,440.081,557.49,439.142z"/>
			<path fill="#2D7C7C" d="M573.915,444.329c0.922,0,1.722-0.685,1.843-1.624l1.127-8.797c0.13-1.019-0.59-1.951-1.609-2.081     c-1.016-0.136-1.95,0.589-2.081,1.608l-1.127,8.797c-0.13,1.019,0.59,1.951,1.609,2.081     C573.757,444.325,573.837,444.329,573.915,444.329z"/>
			<path fill="#2D7C7C" d="M592.813,445.401l1.127-8.796c0.13-1.019-0.59-1.951-1.608-2.081c-1.019-0.14-1.951,0.589-2.081,1.608     l-1.127,8.796c-0.13,1.019,0.59,1.951,1.608,2.081c0.08,0.011,0.16,0.015,0.239,0.015     C591.892,447.024,592.693,446.339,592.813,445.401z"/>
			<path fill="#2D7C7C" d="M609.145,438.977c0.131-1.019-0.589-1.951-1.608-2.081c-1.013-0.141-1.951,0.589-2.081,1.608     l-1.127,8.796c-0.131,1.019,0.589,1.951,1.608,2.081c0.08,0.011,0.16,0.015,0.239,0.015c0.922,0,1.722-0.685,1.842-1.624     L609.145,438.977z"/>
			<path fill="#2D7C7C" d="M621.345,438.105c-1.014-0.141-1.951,0.588-2.081,1.608l-1.126,8.797     c-0.131,1.019,0.589,1.951,1.608,2.081c0.08,0.011,0.16,0.015,0.239,0.015c0.922,0,1.722-0.685,1.842-1.624l1.126-8.797     C623.085,439.167,622.364,438.235,621.345,438.105z"/>
			<path fill="#2D7C7C" d="M612.082,486.266c-0.998-0.262-2.011,0.33-2.275,1.321l-2.273,8.572     c-0.262,0.993,0.329,2.011,1.321,2.275c0.16,0.042,0.321,0.063,0.478,0.063c0.824,0,1.576-0.551,1.797-1.384l2.273-8.572     C613.667,487.548,613.075,486.529,612.082,486.266z"/>
			<path fill="#2D7C7C" d="M595.569,483.601c-0.991-0.258-2.011,0.329-2.274,1.321l-2.273,8.572     c-0.263,0.993,0.328,2.012,1.321,2.275c0.16,0.042,0.32,0.063,0.478,0.063c0.823,0,1.576-0.551,1.796-1.384l2.274-8.572     C597.153,484.884,596.561,483.865,595.569,483.601z"/>
			<path fill="#2D7C7C" d="M578.846,480.466c-0.992-0.258-2.011,0.329-2.274,1.321l-2.273,8.572     c-0.263,0.993,0.328,2.011,1.321,2.275c0.16,0.042,0.32,0.063,0.478,0.063c0.823,0,1.576-0.551,1.796-1.384l2.273-8.572     C580.43,481.748,579.839,480.729,578.846,480.466z"/>
			<path fill="#2D7C7C" d="M560.475,477.301c-0.99-0.259-2.011,0.329-2.274,1.321l-2.273,8.572     c-0.263,0.993,0.328,2.012,1.321,2.275c0.16,0.042,0.32,0.063,0.478,0.063c0.823,0,1.576-0.551,1.796-1.384l2.273-8.572     C562.059,478.583,561.468,477.564,560.475,477.301z"/>
			<path fill="#2D7C7C" d="M543.537,474.911c-0.991-0.259-2.011,0.329-2.274,1.321l-2.273,8.572     c-0.263,0.993,0.328,2.012,1.321,2.275c0.16,0.042,0.32,0.063,0.478,0.063c0.823,0,1.576-0.551,1.796-1.384l2.273-8.572     C545.121,476.194,544.53,475.175,543.537,474.911z"/>
			<path fill="#2D7C7C" d="M527.988,472.122c-0.99-0.26-2.011,0.329-2.274,1.321l-2.273,8.572c-0.263,0.993,0.328,2.011,1.321,2.275     c0.16,0.042,0.32,0.063,0.478,0.063c0.823,0,1.576-0.551,1.796-1.384l2.273-8.572     C529.572,473.404,528.981,472.385,527.988,472.122z"/>
			<path fill="#2D7C7C" d="M511.148,468.475c-0.993-0.26-2.011,0.329-2.274,1.321l-2.273,8.572     c-0.263,0.993,0.328,2.012,1.321,2.275c0.16,0.042,0.32,0.063,0.478,0.063c0.823,0,1.576-0.551,1.796-1.384l2.273-8.572     C512.732,469.757,512.141,468.738,511.148,468.475z"/>
			<path fill="#2D7C7C" d="M518.267,446.628c-1.015-0.137-1.951,0.589-2.081,1.608l-1.127,8.797c-0.13,1.019,0.59,1.951,1.609,2.081     c0.08,0.011,0.16,0.015,0.238,0.015c0.922,0,1.722-0.685,1.843-1.624l1.127-8.797     C520.006,447.69,519.285,446.758,518.267,446.628z"/>
			<path fill="#2D7C7C" d="M533.74,449.461c-1.016-0.14-1.95,0.589-2.081,1.608l-1.127,8.797c-0.13,1.019,0.59,1.951,1.609,2.081     c0.08,0.011,0.16,0.015,0.238,0.015c0.922,0,1.722-0.685,1.843-1.624l1.127-8.797     C535.479,450.522,534.759,449.591,533.74,449.461z"/>
			<path fill="#2D7C7C" d="M549.214,452.888c-1.019-0.141-1.951,0.588-2.081,1.608l-1.127,8.796c-0.13,1.019,0.59,1.951,1.608,2.081     c0.08,0.011,0.16,0.015,0.239,0.015c0.922,0,1.722-0.685,1.843-1.624l1.127-8.796     C550.953,453.95,550.233,453.018,549.214,452.888z"/>
			<path fill="#2D7C7C" d="M601.331,459.146c-1.014-0.138-1.951,0.588-2.081,1.608l-1.127,8.797     c-0.131,1.019,0.589,1.951,1.608,2.081c0.08,0.011,0.16,0.015,0.239,0.015c0.922,0,1.722-0.685,1.842-1.624l1.127-8.797     C603.07,460.208,602.35,459.276,601.331,459.146z"/>
			<path fill="#2D7C7C" d="M617.195,461.804c-1.01-0.139-1.951,0.589-2.081,1.608l-1.127,8.796     c-0.131,1.019,0.589,1.951,1.608,2.081c0.08,0.011,0.16,0.015,0.239,0.015c0.922,0,1.722-0.685,1.842-1.624l1.127-8.796     C618.934,462.866,618.214,461.934,617.195,461.804z"/>
			<path fill="#2D7C7C" d="M606.369,391.851l-81.264-13.845c-1.01-0.168-1.973,0.509-2.146,1.521     c-0.173,1.013,0.509,1.973,1.521,2.146l107.839,18.372c0.105,0.018,0.211,0.027,0.314,0.027c0.89,0,1.677-0.641,1.832-1.548     c0.172-1.013-0.509-1.973-1.521-2.146L606.369,391.851"/>
			<path fill="#2D7C7C" d="M584.471,451.526c-2.736,2.458-5.689,4.644-8.661,6.805c-1.919-2.812-3.83-5.628-5.686-8.482     c-1.049-1.613-3.647-0.111-2.59,1.514c1.911,2.938,3.88,5.837,5.856,8.732c-2.802,2.043-5.576,4.119-8.158,6.438     c-1.439,1.293,0.688,3.409,2.121,2.121c2.442-2.194,5.057-4.171,7.705-6.108c2.234,3.268,4.464,6.539,6.622,9.858     c1.049,1.613,3.647,0.111,2.59-1.514c-2.213-3.403-4.502-6.756-6.793-10.108c3.125-2.269,6.239-4.552,9.114-7.135     C588.031,452.354,585.904,450.239,584.471,451.526z"/>
			<path fill="#2D7C7C" d="M554.926,414.92c2.062-1.515,4.124-3.031,6.186-4.546c1.72,2.626,3.438,5.253,5.391,7.711     c0.504,0.635,1.594,0.527,2.121,0c0.627-0.627,0.506-1.485,0-2.121c-1.858-2.34-3.504-4.833-5.141-7.332     c2.274-1.671,4.547-3.342,6.821-5.012c0.652-0.479,0.978-1.301,0.538-2.052c-0.376-0.643-1.396-1.021-2.052-0.538     c-2.317,1.703-4.634,3.405-6.951,5.108c-1.247-1.875-2.526-3.726-3.927-5.49c-0.504-0.635-1.594-0.527-2.121,0     c-0.627,0.627-0.506,1.485,0,2.121c1.307,1.645,2.505,3.368,3.673,5.114c-2.017,1.482-4.035,2.965-6.052,4.447     c-0.652,0.479-0.977,1.301-0.538,2.052C553.25,415.025,554.269,415.403,554.926,414.92z"/>
			<path fill="#2D7C7C" d="M538.275,345.952c2.483-1.197,5.193-2.002,7.943-2.258c2.213-0.206,4.528-0.071,5.359,2.337     c0.768,2.226,0.566,4.905,0.346,7.208c-0.078,0.817-0.207,1.629-0.357,2.437c-1.569,1.017-3.101,2.094-4.566,3.272     c-2.356,1.895-4.479,4.044-6.289,6.468c-1.612,2.16-3.471,5.496-0.779,7.646c2.375,1.898,5.43,0.619,7.255-1.369     c2.115-2.304,3.772-5.143,5.02-7.996c0.875-2.001,1.55-4.067,2.027-6.186c2.132-1.322,4.335-2.534,6.563-3.694     c-0.741,2.391-1.25,4.842-1.493,7.363c-0.153,1.587-0.532,3.735,0.222,5.223c0.678,1.337,2.089,1.84,3.514,1.634     c1.519-0.22,2.831-1.091,4.07-1.947c1.398-0.965,2.727-2.044,3.948-3.225c-0.088,0.644-0.161,1.291-0.199,1.943     c-0.099,1.691-0.238,3.849,0.808,5.302c1.182,1.642,3.145,1.362,4.619,0.317c4.916-3.483,8.585-8.87,13.88-11.783     c-1.397,3.851-2.908,7.66-4.55,11.414c-0.754,1.725,1.677,3.262,2.59,1.514c2.317-4.431,4.794-9.235,9.378-11.696     c0.977-0.524,2.034-0.913,3.13-1.098c0.606-0.103,1.91-0.263,2.386,0.295c0.496,0.582-0.751,2.243-1.032,2.839     c-0.59,1.25-1.133,2.523-1.633,3.811c-0.923,2.379-2.185,5.217-2.009,7.822c0.144,2.125,1.694,4.244,3.979,4.245     c3.064,0.002,6.011-3.103,8.007-5.083c0.028-0.028,0.056-0.058,0.084-0.085c-0.215,1.066-0.323,2.148-0.236,3.212     c0.197,2.396,1.635,4.897,4.186,5.337c2.836,0.489,4.434-1.843,6.562-3.177c1.632-1.023,0.128-3.62-1.514-2.59     c-1.068,0.67-1.925,1.599-2.961,2.304c-0.8,0.544-1.633,0.772-2.404,0.049c-1.714-1.608-0.724-4.767-0.112-6.692     c0.606-1.906,1.362-3.766,2.145-5.606c0.534-0.983,0.976-2.002,1.292-3.06c0.015-0.044,0.032-0.088,0.045-0.132     c0.012-0.043,0.031-0.084,0.043-0.128c0.105-0.379,0.065-0.71-0.063-0.987c-0.248-0.698-0.874-0.951-1.484-0.865     c-0.581,0.012-1.144,0.33-1.346,1.055c-0.034,0.122-0.085,0.239-0.123,0.36c-0.035,0.058-0.06,0.144-0.082,0.204     c-0.023,0.056-0.05,0.121-0.068,0.161c-0.286,0.667-0.575,1.333-0.858,2.001c-1.277,2.355-3.18,4.458-4.999,6.291     c-0.856,0.862-6.069,6.303-7.003,3.552c-0.386-1.137,0.175-2.526,0.507-3.615c0.433-1.423,0.925-2.829,1.477-4.21     c0.474-1.189,1-2.356,1.567-3.504c0.528-1.069,1.225-2.154,1.182-3.393c-0.073-2.107-2.071-3.236-3.95-3.446     c-2.062-0.232-4.247,0.516-6.055,1.453c-1.163,0.603-2.206,1.343-3.162,2.177c0.37-1.02,0.739-2.041,1.092-3.067     c0.369-1.07-0.793-2.181-1.845-1.845c-5.932,1.892-10.026,6.603-14.445,10.712c-1.109,1.032-2.271,1.968-3.455,2.909     c-0.605,0.481-0.514-0.074-0.576-0.692c-0.085-0.846-0.044-1.733,0.005-2.579c0.179-3.063,1.05-6.027,2.452-8.737     c0.278-0.484,0.564-0.964,0.816-1.463c0.866-1.715-1.576-3.175-2.59-1.514c-0.356,0.582-0.678,1.182-0.985,1.788     c-2.319,3.898-5.534,7.257-9.451,9.583c-0.42,0.25-0.853,0.493-1.339,0.588c-0.493,0.097-0.541,0.101-0.616-0.39     c-0.208-1.369,0.083-3.014,0.256-4.379c0.381-3.002,1.198-5.986,2.381-8.77c0.575-1.354-0.622-2.775-2.052-2.052     c-2.644,1.336-5.284,2.697-7.849,4.179c0.3-2.608,0.382-5.38-0.262-7.898c-2.046-8-12.63-4.905-17.859-2.384     C535.023,344.2,536.542,346.788,538.275,345.952z M550.237,360.594c-0.853,2.376-2.027,4.637-3.445,6.725     c-0.778,1.145-3.039,4.776-4.879,3.491c-1.481-1.034,2.039-4.729,2.775-5.557c1.616-1.818,3.437-3.459,5.382-4.919     c0.109-0.082,0.221-0.157,0.331-0.238C550.344,360.261,550.296,360.429,550.237,360.594z"/>
			<path fill="#2D7C7C" d="M618.001,355.973c0.094,0.175,0.223,0.315,0.386,0.421c0.145,0.133,0.315,0.222,0.51,0.268     c0.133,0.018,0.266,0.036,0.399,0.054c0.271-0.001,0.523-0.069,0.757-0.205c0.101-0.078,0.202-0.156,0.304-0.234     c0.186-0.187,0.315-0.408,0.386-0.662c0.014-0.076,0.044-0.147,0.066-0.22c0.041-0.076,0.077-0.156,0.128-0.227     c0.11-0.172,0.169-0.358,0.178-0.558c0.045-0.199,0.036-0.399-0.027-0.598c-0.046-0.195-0.136-0.365-0.268-0.51     c-0.106-0.163-0.246-0.292-0.421-0.386c-0.119-0.05-0.239-0.101-0.358-0.151c-0.266-0.071-0.532-0.071-0.798,0     c-0.119,0.05-0.239,0.101-0.358,0.151c-0.225,0.133-0.405,0.313-0.538,0.538c-0.088,0.122-0.161,0.252-0.221,0.39     c-0.11,0.254-0.225,0.501-0.277,0.774c-0.062,0.199-0.071,0.399-0.027,0.598C617.832,355.615,617.892,355.8,618.001,355.973z"/>
		</g>
		<path clip-path="url(#SVGID_2_)" fill="#2D7C7C" d="M598.571,312.143c-0.006-2.675-0.034-5.271,0.692-7.78    c0.63-2.179,1.809-3.823,3.642-4.805c0.117-0.062,0.235-0.122,0.355-0.178c0.391-0.181-0.275,0.088,0.131-0.048    c0.247-0.083,0.495-0.159,0.749-0.217c0.126-0.029,0.253-0.058,0.381-0.077c-0.061,0.009-0.314,0.028-0.023,0.017    c0.303-0.012,0.606-0.022,0.908,0.011c-0.384-0.041,0.376,0.102,0.483,0.134c0.12,0.036,0.238,0.074,0.356,0.117    c-0.05-0.018-0.288-0.136-0.03-0.009c0.221,0.108,0.435,0.228,0.642,0.36c0.103,0.066,0.206,0.133,0.306,0.205    c-0.214-0.155-0.024-0.02,0.072,0.07c0.213,0.2,0.423,0.397,0.62,0.613c0.085,0.093,0.167,0.188,0.249,0.283    c-0.035-0.041-0.174-0.237-0.002-0.006c0.359,0.48,0.665,1.004,0.935,1.539c0.059,0.116,0.114,0.233,0.171,0.35    c-0.003-0.007,0.167,0.383,0.082,0.178c-0.085-0.204,0.071,0.192,0.068,0.184c0.043,0.122,0.089,0.244,0.131,0.367    c0.207,0.602,0.368,1.215,0.5,1.837c0.668,3.135,0.683,6.403,1.673,9.507c0.41,1.286,1.736,2.114,3.075,1.746    c1.265-0.348,2.158-1.784,1.746-3.075c-1.026-3.214-0.99-6.545-1.744-9.826c-0.626-2.726-1.976-5.57-4.158-7.392    c-2.41-2.013-5.635-2.794-8.643-1.692c-2.95,1.081-5.394,3.396-6.666,6.268c-1.585,3.579-1.71,7.466-1.701,11.321    c0.003,1.351,1.147,2.5,2.5,2.5C597.424,314.643,598.574,313.499,598.571,312.143L598.571,312.143z"/>
		<path clip-path="url(#SVGID_2_)" fill="#FFFFFF" d="M384.638,594.726c-1.833,4.124,94.145,294.101,98.044,297.641    c3.899,3.54,138.155-42.034,141.695-43.804s19.272-5.31,19.272-5.31l-87.81-277.913l-24.857-6.167    C530.982,559.174,388.178,586.76,384.638,594.726z"/>
		<path clip-path="url(#SVGID_2_)" fill="#2D7C7C" d="M534.62,572.785c5.209,17.687,10.418,35.375,15.628,53.062    c5.234,17.773,10.469,35.547,15.703,53.32c5.209,17.687,10.418,35.375,15.628,53.062c5.178,17.581,10.295,35.18,15.56,52.735    c5.108,17.033,10.492,34.003,16.994,50.562c0.82,2.089,1.66,4.171,2.516,6.246c0.514,1.247,1.659,2.135,3.075,1.746    c1.18-0.324,2.264-1.819,1.746-3.075c-6.783-16.447-12.369-33.35-17.56-50.358c-5.326-17.451-10.383-34.985-15.538-52.487    c-5.209-17.687-10.418-35.375-15.628-53.062c-5.234-17.773-10.469-35.547-15.703-53.32c-5.209-17.687-10.418-35.375-15.628-53.062    c-0.657-2.232-1.315-4.465-1.972-6.697C538.534,568.376,533.708,569.687,534.62,572.785L534.62,572.785z"/>
		<path clip-path="url(#SVGID_2_)" fill="#F67D28" d="M315.283,864.988l42.54-42.149c0,0,41.252-5.664,60.492-12.879    s57.582-25.388,73.264-31.269c20.774-7.79,30.511-23.695,24.263-35.672c-5.075-9.728-12.332-20.011-49.667-7.271    c-15.572,5.314-36.095,7.872-42.107,3.062c-6.013-4.81-8.338-14.304-9.671-21.888c-1.138-6.479,4.703-10.307,4.703-10.307    l-14.26-44.169c0,0-54.728,12.631-69.158,24.656c-14.43,12.025-69.145,102.215-70.949,103.417    C262.929,791.72,307.466,854.165,315.283,864.988z"/>
		<path clip-path="url(#SVGID_2_)" fill="#F9D0BB" d="M478.355,747.098c-1.954,1.252-2.313,7.854-0.501,14.326    c2.711,9.681,8.959,11.671,10.815,10.976s12.463-4.463,17.902-8.684c4.253-3.301,7.249-10.608,4.401-16.045    c-2.848-5.437-10.097-7.249-18.122-5.437C484.824,744.047,480.309,745.847,478.355,747.098z"/>
		<path clip-path="url(#SVGID_2_)" fill="#FFFFFF" d="M675.803,522.789c-4.064,3.08-85.02,222.786-85.02,222.786l17.463,58.939    l106.702,37.239l96.765-263.125L675.803,522.789z"/>
		<path clip-path="url(#SVGID_2_)" fill="#F67D28" d="M744.22,786.657c5.703,23.888,22.176,44.752,28.22,46.614    c6.044,1.861,25.787,80.81,25.787,80.81l79.294-76.184c0,0-9.982-85.889-12.438-98.715c-2.456-12.827-17.234-42.69-25.189-47.628    s-56.969-34.455-56.969-34.455s-12.358,31.891-12.757,34.386c0,0,38.74,30.549,25.133,44.306    c-4.096,4.141-22.324-27.733-25.316-36.066s-10.625-34.123-33.532-24.514c-14.671,6.154-15.401,19.239-7.505,38.982    C736.845,733.934,741.906,776.966,744.22,786.657z"/>
		<path clip-path="url(#SVGID_2_)" fill="#F9D0BB" d="M737.062,708.867c1.99,2.319,8.83,2.47,16.138-0.591    c7.308-3.061,9.757-7.474,9.757-7.474s-4.572-13.518-8.097-16.948c-3.524-3.429-9.283-5.324-15.879-2.409    c-6.596,2.915-7.912,7.104-7.451,11.734C732.103,698.911,737.062,708.867,737.062,708.867z"/>
		<path clip-path="url(#SVGID_2_)" fill="#2D7C7C" d="M614.499,751.601c8.302-22.147,16.897-44.183,25.682-66.142    c9.348-23.368,18.9-46.653,28.504-69.917c5.951-14.415,11.922-28.822,17.892-43.23c0.517-1.248-0.559-2.749-1.746-3.075    c-1.438-0.395-2.556,0.493-3.075,1.746c-10.335,24.944-20.682,49.884-30.901,74.876c-9.168,22.421-18.226,44.887-27.032,67.453    c-4.795,12.289-9.515,24.608-14.145,36.96c-0.474,1.265,0.528,2.74,1.746,3.075C612.826,753.732,614.024,752.87,614.499,751.601    L614.499,751.601z"/>
		<path clip-path="url(#SVGID_2_)" fill="#2D7C7C" d="M635.743,761.294c8.262-24.377,16.843-48.645,25.849-72.757    c8.635-23.118,17.662-46.089,27.041-68.915c5.391-13.119,10.897-26.191,16.493-39.224c0.532-1.24,0.369-2.68-0.897-3.42    c-1.053-0.616-2.885-0.351-3.42,0.897c-9.998,23.285-19.716,46.691-29.025,70.26c-9.129,23.11-17.865,46.375-26.232,69.772    c-4.998,13.977-9.867,28-14.631,42.059C629.886,763.019,634.714,764.33,635.743,761.294L635.743,761.294z"/>
		<path clip-path="url(#SVGID_2_)" fill="#2D7C7C" d="M659.653,768.58c6.894-23.52,14.435-46.85,22.624-69.952    c8.188-23.101,17.019-45.975,26.48-68.585c5.323-12.721,10.858-25.352,16.58-37.898c0.56-1.228,0.351-2.691-0.897-3.42    c-1.074-0.628-2.857-0.337-3.42,0.897c-10.261,22.496-19.903,45.275-28.9,68.305c-8.977,22.978-17.31,46.206-24.986,69.65    c-4.309,13.159-8.408,26.386-12.302,39.674C653.925,770.345,658.748,771.667,659.653,768.58L659.653,768.58z"/>
		<path clip-path="url(#SVGID_2_)" fill="#2D7C7C" d="M740.2,601.71c-5.287,13.728-10.575,27.456-15.862,41.184    c-1.19,3.09-2.38,6.18-3.57,9.27c-0.485,1.26,0.536,2.743,1.746,3.075c1.411,0.388,2.588-0.481,3.075-1.746    c5.287-13.728,10.575-27.456,15.862-41.184c1.19-3.09,2.38-6.18,3.57-9.27c0.485-1.26-0.536-2.743-1.746-3.075    C741.865,599.576,740.688,600.445,740.2,601.71L740.2,601.71z"/>
		<path clip-path="url(#SVGID_2_)" fill="#2D7C7C" d="M753.657,604.334c-2.717,6.305-5.104,12.759-7.508,19.188    c-2.942,7.868-5.824,15.76-8.586,23.693c-1.065,3.059-2.129,6.121-3.078,9.218c-0.945,3.083,3.88,4.402,4.821,1.329    c1.948-6.357,4.249-12.615,6.504-18.867c2.82-7.818,5.703-15.615,8.698-23.368c0.673-1.743,1.353-3.484,2.048-5.219    c0.275-0.687,0.552-1.373,0.834-2.057c0.135-0.328,0.271-0.655,0.407-0.982c0.17-0.406-0.04,0.094-0.062,0.146    c0.079-0.186,0.159-0.372,0.239-0.558c0.534-1.239,0.368-2.681-0.897-3.42C756.023,602.82,754.194,603.087,753.657,604.334    L753.657,604.334z"/>
		<path clip-path="url(#SVGID_2_)" fill="#2D7C7C" d="M766.494,609.84c-2.776,6.174-4.901,12.663-7.074,19.066    c-2.627,7.741-5.145,15.519-7.593,23.318c-0.971,3.094-1.935,6.192-2.859,9.301c-0.918,3.091,3.906,4.411,4.821,1.329    c4.182-14.077,8.706-28.098,13.692-41.911c0.621-1.721,1.254-3.437,1.917-5.143c0.264-0.681,0.533-1.359,0.81-2.035    c0.06-0.146,0.121-0.293,0.181-0.439c0.242-0.586-0.214,0.493,0.028-0.065c0.13-0.3,0.26-0.6,0.395-0.898    c0.553-1.231,0.355-2.688-0.897-3.42C768.845,608.318,767.05,608.603,766.494,609.84L766.494,609.84z"/>
	</g>
	<g>
	</g>
	<g>
	</g>
	<g>
	</g>
	<g>
	</g>
	<g>
	</g>
	<g>
	</g>
	<g>
	</g>
	<g>
	</g>
	<g>
	</g>
	<g>
	</g>
	<g>
	</g>
	<g>
	</g>
	<g>
	</g>
	<g>
	</g>
	<g>
	</g>
</g>
</svg>