<svg xmlns="http://www.w3.org/2000/svg" xmlns:xlink="http://www.w3.org/1999/xlink" version="1.1" x="0px" y="0px" enable-background="new 0 0 1200 1200" xml:space="preserve" viewBox="223.8 241 718.01 718.01">
<g id="k">
	<circle fill="#D6E5E3" cx="582.803" cy="600" r="359.004"/>
</g>
<g id="Störung">
	<path fill="#133335" d="M739.892,757.181c-1.432-1.486-3.088-2.52-4.981-3.306c-0.454-0.189-0.864-0.257-1.057-0.74   c-0.152-0.379-0.043-0.94-0.027-1.335c0.045-1.133,0.094-2.264,0.099-3.398c0.023-4.832-0.473-9.654-1.402-14.394   c-0.335-1.709-2.716-1.218-2.906,0.282c-0.211,0.237-0.336,0.563-0.299,0.992c0.383,4.51,0.684,9.027,0.893,13.548   c0.049,1.069,0.094,2.138,0.133,3.207c0.024,0.654,0.164,1.144-0.23,1.633c-0.262,0.326-0.907,0.575-1.252,0.794   c-1.947,1.234-3.894,2.469-5.842,3.703c-1.278,0.81-0.734,2.723,0.757,2.795c5.188,0.25,10.372-0.192,15.451-1.273   C740.368,759.446,740.635,757.953,739.892,757.181z"/>
	<path fill="#F67D28" d="M822.632,713.789c-6.957-0.859-13.778-2.766-20.188-5.598c7.685-5.545,23.652-25.973,27.885-34.474   c0.286-0.574,0.279-1.356-0.235-1.818c-16.741-15.068-24.384-24.268-45.853-38.838c-22.801-15.474-41.401-21.73-48.509-25.787   c-7.849-4.48-19.776-20.427-26.055-26.927c-5.858-6.065-11.57-12.332-17.716-18.109c-5.429-5.103-11.579-9.765-18.818-11.907   c-6.948-2.056-14.647-1.676-21.222,1.435c-6.196,2.932-10.943,8.545-12.872,15.118c-2.07,7.051-0.193,13.936,3.801,19.918   c2.068,3.097,4.867,5.675,6.8,8.853c2.257,3.711,4.714,7.989,6.038,13.579c2.361,9.967,3.439,18.264,2.92,28.333   c-0.505,9.781-0.76,19.453,1.167,29.11c1.766,8.852,5.009,17.409,9.375,25.302c8.82,15.948,22.331,29.367,38.358,38.048   c16.947,9.179,36.582,12.632,55.707,10.864c19.562-1.808,38.657-8.801,54.697-20.159c1.975-1.398,3.899-2.866,5.783-4.384   C824.835,715.429,823.754,713.928,822.632,713.789z"/>
	<path fill="#133335" d="M714.534,756.908c-0.918-0.739-2.409-1.554-3.036-2.575c-0.659-1.073-0.202-3.196-0.172-4.399   c0.039-1.57,0.078-3.14,0.118-4.709c0.157-6.279,0.313-12.558,0.47-18.837c0.031-1.256-1.224-1.689-2.12-1.312   c-0.834-0.151-1.811,0.321-1.828,1.419c-0.107,6.885-0.215,13.769-0.322,20.654c-0.025,1.613-0.02,3.23-0.081,4.842   c-0.059,1.564-0.453,2.535-1.783,3.382c-2.898,1.844-5.867,3.586-8.799,5.377c-1.202,0.735-0.789,2.899,0.757,2.795   c6.4-0.429,12.799-0.857,19.199-1.286c1.155-0.077,2.159-1.676,1.061-2.561C716.843,758.768,715.689,757.838,714.534,756.908z"/>
	<path fill="#2D7C7C" d="M436.429,572.424c-3.677,3.102-10.025,46.439-9.946,85.314c0.115,57.051,4.535,98.518,8.409,104.908   c4.531,7.473,22.164,5.699,36.423,6.311s165.741-0.14,168.92-1.866c3.18-1.727,4.352-13.226,2.742-20.682   c-0.246-1.14-17.033-8.484-23.61-8.518c-19.136-0.1-44.014-0.557-62.278-0.971c-25.102-0.569-60.02-2.003-60.02-2.003   s-3.701-17.915-7.033-61.386c-3.272-42.689-1.719-87.564-2.579-89.487c-1.7-3.799-30.55-11.43-33.347-12.385   C451.312,570.703,438.632,570.565,436.429,572.424z"/>
	<path fill="#FFFFFF" d="M486.944,729.077l-34.907,5.248c0,0-4.696-23.132-4.749-58.682c-0.073-48.988,6.536-87.797,6.536-87.797   l25.847,7.066c0,0-0.111,33.152,0.779,71.887C481.049,692.837,486.944,729.077,486.944,729.077z"/>
	<path fill="#133335" d="M453.102,751.667c23.868,0.89,47.742,1.631,71.623,2.037c24.119,0.41,48.248,0.489,72.366-0.033   c13.14-0.285,26.276-0.752,39.4-1.47c1.92-0.105,1.932-3.106,0-3c-23.532,1.287-47.103,1.779-70.668,1.83   c-24.214,0.053-48.427-0.368-72.631-1.042c-13.365-0.372-26.728-0.824-40.089-1.322   C451.172,748.595,451.175,751.596,453.102,751.667L453.102,751.667z"/>
	<path fill="#133335" d="M647.609,587.065c-1.638-2.297-2.529-5.264-4.427-7.349c-1.019-1.915-2.697-3.656-4.117-2.495   c-0.061,0.05-0.119,0.104-0.18,0.154c-0.566,0.087-1.069,0.529-1.262,1.08c-5.692,4.787-10.982,10.027-15.778,15.715   c-0.632,0.749-0.565,2.339,0.662,2.507c8.883,1.22,17.764,0.37,26.629-0.578c0.845-0.09,1.448-0.616,1.5-1.5   C650.829,591.273,649.439,589.631,647.609,587.065z"/>
	
		<ellipse transform="matrix(0.9469 -0.3215 0.3215 0.9469 -149.4815 241.5714)" fill="#133335" cx="656.62" cy="573.343" rx="2.95" ry="3.906"/>
	<path fill="#133335" d="M697.424,622.703c-2.096,18.796,3.875,38.13,15.264,53.114c5.569,7.327,12.364,13.722,20.265,18.482   c9.003,5.424,19.441,8.852,29.633,11.237c12.348,2.889,25.278,3.885,37.763,1.258c2.518-0.53,1.452-4.386-1.063-3.857   c-10.59,2.228-21.614,1.628-32.168-0.502c-10.158-2.05-20.536-5.228-29.675-10.177c-15.306-8.29-26.898-23.001-32.542-39.36   c-3.347-9.7-4.614-19.985-3.476-30.194c0.12-1.075-1.005-2-2-2C698.243,620.703,697.544,621.625,697.424,622.703L697.424,622.703z"/>
	<path fill="#133335" d="M713.458,629.369c2.497,16.101,11.225,30.502,23.192,41.38c5.445,4.949,11.419,8.794,18.194,11.668   c7.475,3.172,15.345,5.335,23.336,6.738c9.167,1.61,18.527,2.299,27.825,1.752c2.558-0.151,2.576-4.152,0-4   c-15.657,0.921-31.858-1.373-46.547-6.919c-6.427-2.426-12.499-5.657-17.751-10.112c-5.901-5.006-11.154-10.795-15.287-17.349   c-4.659-7.388-7.765-15.587-9.104-24.222c-0.166-1.068-1.505-1.66-2.46-1.397C713.714,627.222,713.291,628.298,713.458,629.369   L713.458,629.369z"/>
	<path fill="#133335" d="M729.462,629.847c4.835,11.187,12.823,20.927,22.381,28.425c11.022,8.647,24.084,14.472,37.819,17.178   c8.897,1.752,17.999,2.254,27.041,1.646c2.555-0.172,2.574-4.173,0-4c-14.764,0.992-29.726-1.016-43.411-6.78   c-11.687-4.922-22.267-12.509-30.394-22.267c-4.075-4.893-7.455-10.376-9.981-16.221c-0.429-0.992-1.884-1.216-2.736-0.718   C729.155,627.71,729.032,628.851,729.462,629.847L729.462,629.847z"/>
	<path fill="#133335" d="M642.783,584.955c-6.615,2.759-13.155,5.691-19.608,8.809c-1.738,0.84-0.218,3.428,1.514,2.59   c6.219-3.005,12.517-5.848,18.892-8.507c0.747-0.312,1.282-0.993,1.048-1.845C644.434,585.298,643.535,584.642,642.783,584.955   L642.783,584.955z"/>
	<path fill="#133335" d="M496.211,734.567c-8.21,2.085-16.42,4.169-24.63,6.254c-1.87,0.475-1.078,3.369,0.798,2.893   c8.21-2.085,16.42-4.169,24.63-6.254C498.878,736.985,498.086,734.091,496.211,734.567L496.211,734.567z"/>
	<g>
		<path fill="#133335" d="M509.052,737.273c-0.047,0.069-0.098,0.136-0.144,0.206c-0.171,0.26,0.23-0.257,0.007-0.01    c-0.129,0.143-0.248,0.294-0.377,0.437c-0.319,0.353-0.655,0.69-0.998,1.019c-0.851,0.815-1.749,1.581-2.664,2.323    c-1.938,1.571-4.087,3.108-6.287,4.481c-0.687,0.428-0.956,1.339-0.538,2.052c0.401,0.685,1.362,0.969,2.052,0.538    c2.4-1.498,4.696-3.169,6.894-4.95c1.666-1.35,3.434-2.787,4.645-4.582c0.453-0.672,0.129-1.662-0.538-2.052    C510.366,736.302,509.507,736.599,509.052,737.273L509.052,737.273z"/>
		<path fill="#133335" d="M526.675,738.819c0.001,0.253-0.018,0.506-0.044,0.757c-0.008,0.079-0.018,0.158-0.026,0.237    c-0.027,0.247-0.003-0.006,0.016-0.105c-0.033,0.179-0.052,0.362-0.082,0.542c-0.128,0.785-0.288,1.565-0.467,2.339    s-0.377,1.546-0.606,2.307c-0.093,0.308-0.19,0.615-0.299,0.918c-0.05,0.14-0.106,0.277-0.158,0.417    c-0.087,0.234,0.163-0.346,0.05-0.12c-0.026,0.051-0.048,0.104-0.074,0.155c-0.345,0.703-0.213,1.655,0.538,2.052    c0.675,0.357,1.683,0.214,2.052-0.538c0.674-1.374,1.046-2.91,1.388-4.394c0.34-1.475,0.714-3.046,0.71-4.568    c-0.002-0.785-0.688-1.536-1.5-1.5C527.364,737.356,526.673,737.979,526.675,738.819L526.675,738.819z"/>
		<path fill="#133335" d="M544.696,739.869c-0.312,2.385-0.625,4.77-0.937,7.155c-0.102,0.781,0.763,1.533,1.5,1.5    c0.9-0.04,1.39-0.663,1.5-1.5c0.312-2.385,0.625-4.77,0.937-7.155c0.102-0.781-0.763-1.533-1.5-1.5    C545.296,738.409,544.806,739.032,544.696,739.869L544.696,739.869z"/>
		<path fill="#133335" d="M562.021,740.429c0.268,2.621,0.536,5.242,0.804,7.862c0.08,0.778,0.633,1.539,1.5,1.5    c0.744-0.033,1.586-0.664,1.5-1.5c-0.268-2.621-0.536-5.242-0.804-7.862c-0.08-0.778-0.633-1.539-1.5-1.5    C562.777,738.962,561.936,739.593,562.021,740.429L562.021,740.429z"/>
		<path fill="#133335" d="M576.83,740.079c1.035,2.87,2.07,5.741,3.105,8.611c0.265,0.736,1.033,1.311,1.845,1.048    c0.724-0.234,1.333-1.055,1.048-1.845c-1.035-2.87-2.07-5.741-3.105-8.611c-0.266-0.736-1.033-1.311-1.845-1.048    C577.153,738.468,576.545,739.289,576.83,740.079L576.83,740.079z"/>
		<path fill="#133335" d="M595.65,740.041c-0.06,1.419,0.445,2.937,0.962,4.239c0.596,1.498,1.305,3.052,2.63,4.039    c0.632,0.471,1.703,0.124,2.052-0.538c0.415-0.786,0.136-1.55-0.538-2.052c0.454,0.338,0.115,0.084,0.009-0.024    c-0.086-0.087-0.158-0.218-0.254-0.291c0.235,0.18,0.178,0.236,0.066,0.078c-0.043-0.06-0.085-0.122-0.126-0.184    c-0.087-0.131-0.169-0.265-0.248-0.401c-0.164-0.283-0.315-0.574-0.455-0.87c-0.077-0.163-0.147-0.328-0.222-0.492    c-0.061-0.132,0.135,0.34,0.011,0.021c-0.033-0.085-0.068-0.17-0.101-0.256c-0.249-0.646-0.463-1.308-0.623-1.983    c-0.037-0.154-0.071-0.309-0.101-0.465c-0.014-0.073-0.027-0.147-0.04-0.221c-0.023-0.136,0.008-0.355,0.012,0.119    c-0.002-0.241-0.047-0.477-0.037-0.72c0.034-0.785-0.714-1.535-1.5-1.5C596.309,738.579,595.686,739.2,595.65,740.041    L595.65,740.041z"/>
		<path fill="#133335" d="M609.098,741.298c0.396,0.662,0.971,1.229,1.533,1.749c0.717,0.663,1.475,1.281,2.244,1.883    c1.52,1.19,3.076,2.349,4.703,3.39c0.662,0.423,1.684,0.159,2.052-0.538c0.393-0.743,0.169-1.6-0.538-2.052    c-0.657-0.42-1.299-0.865-1.934-1.317c-0.409-0.291-0.814-0.586-1.217-0.886c-0.195-0.145-0.39-0.292-0.584-0.439    c-0.083-0.063-0.17-0.124-0.25-0.191c0.323,0.271-0.046-0.036-0.111-0.087c-0.746-0.584-1.482-1.183-2.18-1.824    c-0.272-0.25-0.539-0.506-0.791-0.777c-0.103-0.112-0.199-0.229-0.299-0.343c-0.16-0.182,0.237,0.359,0.066,0.081    c-0.034-0.055-0.071-0.107-0.104-0.162c-0.403-0.673-1.366-0.98-2.052-0.538C608.959,739.682,608.667,740.578,609.098,741.298    L609.098,741.298z"/>
		<path fill="#133335" d="M507.644,743.568c16.063,0.414,32.125,0.851,48.188,1.22c13.423,0.308,26.849,0.588,40.276,0.639    c5.677,0.022,11.355,0.004,17.03-0.144c1.927-0.05,1.934-3.051,0-3c-11.03,0.288-22.073,0.148-33.105-0.019    c-14.816-0.225-29.629-0.593-44.442-0.971c-9.316-0.238-18.632-0.485-27.948-0.725    C505.713,740.518,505.714,743.518,507.644,743.568L507.644,743.568z"/>
	</g>
	<g>
		<path fill="#F67D28" d="M349.198,469.016c-6.085-4.331-11.623-9.429-16.441-15.135c-4.561-5.402-8.572-11.58-9.733-18.554    c-1.972-11.838,4.934-23.898,14.798-30.732c9.865-6.834,22.166-9.213,34.152-9.805c-2.596-17.341,3.902-33.533,21.877-41.897    c18.83-8.762,41.98-4.682,60.689,10.466c6.505-11.764,16.105-29.112,48.31-29.115c12.497-0.001,31.069,13.768,30.748,25.932    c10.309-8.892,25.923-11.068,38.271-5.335c12.347,5.733,20.76,19.067,20.62,32.68c7.008-6.512,45.933-7.5,41.068,34.655    c-0.91,7.886-12.002,17.999-19.384,20.92c-7.382,2.921-15.482,3.322-23.412,3.687c-1.99,12.651-16.252,19.218-28.895,21.261    c-13.691,2.212-27.814,1.719-41.318-1.442c-4.341-1.016-13.162-2.077-13.162-2.077s-15.388,12.993-25.945,15.659    c-29.911,7.553-49.166-8.832-52.514-6.826c0,0,0.077,50.188-41.04,51.935c13.89,10.354,14.231,40.044,7.336,48.544    c-11.339,13.979-18.308,10.48-21.561,15.361c0,0-3.34,7.313,1.493,19.077c6.608,16.082,23.565,36.921,18.355,36.921    c-16.281-1.112-28.214-7.594-43.154-24.864c-4.305-4.977-10.63-15.277-10.63-15.277c-2.292-1.031-21.709-7.045-24.57-32.801    c-2.562-23.061,8.733-34.165,27.864-47.294c-6.753-5.692-17.661-10.055-14.766-28.163c3.125-19.54,15.661-23.772,22.339-29.274"/>
	</g>
	<g>
		<path fill="#FFFFFF" d="M581.303,396.307c-5.659,1.345-10.687,5.103-13.491,10.216c-3.152,5.746-3.241,12.684-0.618,18.631    c0.777,1.763,3.363,0.238,2.59-1.514c-2.226-5.048-1.951-11.134,0.799-15.925c2.474-4.309,6.702-7.37,11.518-8.515    C583.978,398.754,583.183,395.86,581.303,396.307L581.303,396.307z"/>
		<path fill="#FFFFFF" d="M361.622,471.175c3.912-4.52,9.97-7.003,15.943-6.213c5.832,0.772,10.959,4.62,13.596,9.824    c0.873,1.723,3.462,0.206,2.59-1.514c-3.058-6.035-9.103-10.367-15.816-11.26c-6.833-0.909-13.93,1.839-18.434,7.042    C358.242,470.507,360.355,472.638,361.622,471.175L361.622,471.175z"/>
		<path fill="#FFFFFF" d="M347.116,431.463c0.387-4.016,1.664-7.992,4.938-10.577c4.126-3.257,9.32-2.39,14.184-1.943    c1.922,0.177,1.91-2.824,0-3c-2.888-0.266-5.808-0.669-8.709-0.353c-2.85,0.311-5.337,1.353-7.568,3.152    c-3.895,3.139-5.382,7.914-5.845,12.721C343.931,433.384,346.933,433.371,347.116,431.463L347.116,431.463z"/>
		<path fill="#FFFFFF" d="M395.501,380.493c1.172-4.598,4.077-8.24,8.348-10.325c3.623-1.768,7.972-2.332,11.947-1.727    c1.86,0.283,3.705,0.818,5.308,1.822c1.641,1.027,3.149-1.567,1.514-2.59c-3.537-2.214-8.146-2.733-12.223-2.325    c-4.975,0.499-9.907,2.423-13.38,6.122c-2.172,2.313-3.627,5.161-4.408,8.225C392.131,381.567,395.024,382.366,395.501,380.493    L395.501,380.493z"/>
		<path fill="#FFFFFF" d="M338.978,576.745c-3.866-5.468-3.121-12.977,0.664-18.294c3.919-5.504,10.509-8.445,16.995-9.562    c1.899-0.327,1.094-3.219-0.798-2.893c-7.406,1.275-14.699,4.906-19.004,11.251c-4.143,6.106-4.809,14.845-0.449,21.012    C337.494,579.823,340.096,578.326,338.978,576.745L338.978,576.745z"/>
		<path fill="#FFFFFF" d="M374.06,566.168c5.681-2.24,10.202-7.158,11.556-13.179c1.405-6.25-0.648-12.962-5.213-17.432    c-1.38-1.352-3.504,0.768-2.121,2.121c3.783,3.705,5.614,9.302,4.441,14.513c-1.111,4.937-4.744,9.225-9.461,11.084    C371.487,563.975,372.26,566.877,374.06,566.168L374.06,566.168z"/>
		<path fill="#FFFFFF" d="M362.624,506.36c9.063,5.927,20.925,5.394,30.091-0.005c1.662-0.979,0.155-3.573-1.514-2.59    c-8.292,4.884-18.87,5.363-27.063,0.005C362.517,502.709,361.012,505.306,362.624,506.36L362.624,506.36z"/>
		<path fill="#FFFFFF" d="M516.216,439.051c-0.43-6.266,2.657-12.626,8.081-15.906c5.647-3.415,13.005-3.051,18.434,0.605    c1.606,1.081,3.109-1.517,1.514-2.59c-6.278-4.227-14.962-4.546-21.463-0.605c-6.275,3.804-10.069,11.188-9.567,18.496    C513.348,440.967,516.349,440.981,516.216,439.051L516.216,439.051z"/>
		<path fill="#FFFFFF" d="M615.606,407.021c2.013,4.993,1.124,11.029-2.621,14.998c-3.661,3.88-9.443,5.283-14.502,3.696    c-1.846-0.579-2.636,2.316-0.797,2.893c6.033,1.893,13.062,0.152,17.421-4.467c4.42-4.685,5.802-11.941,3.392-17.916    c-0.305-0.757-0.997-1.271-1.845-1.048C615.938,405.365,615.303,406.271,615.606,407.021L615.606,407.021z"/>
		<path fill="#FFFFFF" d="M541.989,446.522c0.649,5.883,6.281,9.407,11.873,9.554c6.998,0.184,12.8-4.992,17.642-9.401    c1.431-1.303-0.696-3.419-2.121-2.121c-4.014,3.655-8.808,8.189-14.55,8.509c-4.034,0.225-9.342-1.999-9.843-6.54    C544.779,444.624,541.777,444.602,541.989,446.522L541.989,446.522z"/>
		<path fill="#FFFFFF" d="M507.085,357.365c-6.519-3.712-14.89-3.818-21.399-0.002c-6.179,3.622-10.131,10.366-10.512,17.48    c-0.103,1.929,2.897,1.924,3,0c0.324-6.056,3.783-11.817,9.026-14.89c5.59-3.277,12.772-3.186,18.371,0.002    C507.251,360.913,508.765,358.322,507.085,357.365L507.085,357.365z"/>
		<path fill="#FFFFFF" d="M428.058,406.214c2.638-5.972,8.979-9.426,15.366-9.607c7.442-0.211,14.383,3.652,19.757,8.514    c1.429,1.293,3.557-0.823,2.121-2.121c-6.027-5.452-13.877-9.764-22.234-9.379c-7.231,0.333-14.593,4.269-17.601,11.08    C424.695,406.45,427.279,407.978,428.058,406.214L428.058,406.214z"/>
		<path fill="#FFFFFF" d="M394.589,437.7c4.398-2.88,9.889-3.817,14.955-2.301c4.574,1.368,8.384,4.62,10.622,8.81    c0.91,1.704,3.501,0.19,2.59-1.514c-2.6-4.867-7.123-8.601-12.415-10.189c-5.783-1.735-12.237-0.689-17.266,2.604    C391.466,436.163,392.967,438.762,394.589,437.7L394.589,437.7z"/>
		<path fill="#FFFFFF" d="M546.015,376.96c-1.234-1.562-3.354-1.75-5.205-1.817c-1.778-0.065-3.558,0.089-5.31,0.392    c-3.476,0.601-6.852,1.948-9.842,3.812c-6.129,3.821-10.841,9.9-12.488,16.979c-0.437,1.878,2.455,2.68,2.893,0.798    c1.417-6.09,5.307-11.377,10.513-14.804c2.556-1.683,5.36-2.92,8.342-3.613c1.473-0.342,2.968-0.535,4.479-0.572    c1.381-0.034,3.547-0.254,4.496,0.947C545.09,380.595,547.2,378.46,546.015,376.96L546.015,376.96z"/>
		<path fill="#FFFFFF" d="M460.812,446.409c7.887,2.366,16.772,0.475,22.964-4.97c6.127-5.388,8.939-13.82,7.769-21.818    c-0.279-1.903-3.17-1.094-2.893,0.798c1.017,6.951-1.736,14.272-6.997,18.899c-5.396,4.744-13.216,6.247-20.045,4.198    C459.756,442.96,458.964,445.855,460.812,446.409L460.812,446.409z"/>
	</g>
	<g>
	</g>
	<g>
	</g>
	<g>
	</g>
	<g>
	</g>
	<g>
	</g>
	<g>
	</g>
	<g>
	</g>
	<g>
	</g>
	<g>
	</g>
	<g>
	</g>
	<g>
	</g>
	<g>
	</g>
	<g>
	</g>
	<g>
	</g>
	<g>
	</g>
</g>
</svg>