<svg xmlns="http://www.w3.org/2000/svg" xmlns:xlink="http://www.w3.org/1999/xlink" version="1.1" x="0px" y="0px" enable-background="new 0 0 1200 1200" xml:space="preserve" viewBox="223.8 241 718.01 718.01">
<g id="k">
	<circle fill="#D6E5E3" cx="582.803" cy="600" r="359.004"/>
</g>
<g id="Schade">
	<path fill="#F9D0BB" d="M537.544,584.236c0,0,0,40.592,4.172,48.013c4.172,7.421,39.34,11.544,59.01,8.563   c19.67-2.98,13.113-47.635,10.133-56.576C607.879,575.295,537.382,573.174,537.544,584.236z"/>
	<path fill="#133335" d="M680.245,399.613l-0.498,12.596c0,0-2.936,0.345-4.537,2.1c-1.192,1.307-1.45,3.401-1.45,3.401h18.912   c0,0,0.332-2.516-5.156-4.695c-1.944-0.772-3.551-1.049-3.551-1.049l-0.354-12.288L680.245,399.613z"/>
	<path fill="#133335" d="M661.045,397.258l-7.034,15.247c0,0,2.348,0.655,3.133,2.06s0.633,3.145,0.633,3.145h-18.294   c0,0,1.257-2.484,3.128-3.888c2.892-2.17,6.694-1.9,6.694-1.9l7.938-16.234L661.045,397.258z"/>
	<path fill="#F67D28" d="M623.433,311.408c-1.111,2.272-2.735,31.169,1.953,48.628c5.394,20.087,22.245,37.335,41.467,38.853   c19.223,1.518,29.846,0.506,35.916,0s6.153,7.567,20.74,10.117c12.876,2.251,18.561-6.217,18.874-13.028   c0.309-6.742-1.078-11.971-8.251-17.323c-51.809-38.66-78.988-78.144-87.173-76.975c-5.569,0.796-10.314,15.979-10.314,15.979   S624.624,308.973,623.433,311.408z"/>
	<path fill="#133335" d="M740.08,403.09c0,0,4.261,8.297,3.952,8.556c-0.309,0.26-9.202-4.036-9.202-4.036   S738.141,405.816,740.08,403.09z"/>
	<circle fill="#133335" cx="733.419" cy="394.298" r="2.363"/>
	<path fill="#133335" d="M637.779,320.253c-0.517,7.121-1.075,14.293-0.394,21.423c0.659,6.893,2.314,13.895,5.401,20.121   c5.75,11.596,17.206,20.232,29.634,23.517c8.25,2.18,16.962,1.78,24.985-1.112c1.803-0.65,1.025-3.55-0.797-2.893   c-6.829,2.462-14.148,3.105-21.272,1.613c-6.506-1.362-12.632-4.318-17.941-8.295c-4.651-3.484-8.57-7.925-11.34-13.037   c-3.087-5.696-4.806-12.305-5.543-18.718c-0.864-7.519-0.278-15.099,0.268-22.619C640.918,318.327,637.918,318.336,637.779,320.253   L637.779,320.253z"/>
	<path fill="#133335" d="M645.134,309.667c0.557,11.178,2.42,22.565,6.111,33.151c1.76,5.048,4.022,9.92,7.243,14.211   c3.279,4.368,7.299,8.109,11.912,11.039c5.368,3.409,11.435,5.639,17.679,6.779c1.888,0.345,2.697-2.546,0.798-2.893   c-10.47-1.912-20.114-7.016-26.908-15.309c-6.733-8.219-9.696-19-11.67-29.246c-1.127-5.851-1.868-11.78-2.165-17.732   C648.038,307.746,645.037,307.734,645.134,309.667L645.134,309.667z"/>
	<path fill="#133335" d="M655.043,317.658c1.183,13.443,7.96,26.683,17.57,36.065c2.872,2.804,6.076,5.282,9.554,7.29   c1.675,0.967,3.187-1.624,1.514-2.59c-11.409-6.588-19.677-18.392-23.589-30.831c-1.016-3.231-1.751-6.558-2.048-9.934   C657.875,315.75,654.873,315.732,655.043,317.658L655.043,317.658z"/>
	<rect x="364.811" y="415.075" fill="#2D7C7C" width="416.439" height="17.126"/>
	<rect x="365.323" y="432.2" fill="#FFFFFF" width="416.439" height="27.791"/>
	<rect x="365.323" y="468.2" fill="#FFFFFF" width="416.439" height="27.679"/>
	<path fill="#2D7C7C" d="M611.564,601.208c0.558,6.215,0.901,12.445,1.029,18.683c0.039,1.936,2.914,1.925,3,0   c0.302-6.773-0.341-13.558-1.877-20.161c-0.914,0.385-1.828,0.771-2.742,1.156c1.399,2.888,1.391,6.189,1.561,9.325   c0.175,3.224,0.531,6.435,2.094,9.316c0.68,1.255,2.93,0.748,2.795-0.757c-0.588-6.553-0.895-13.127-0.921-19.706   c-0.982,0.133-1.964,0.266-2.946,0.399c0.897,6.632,1.553,13.296,1.993,19.974c1,0,2,0,3,0c-0.831-6.777-0.985-13.61-0.458-20.418   c-1,0-2,0-3,0c0.497,6.855,1.197,13.694,2.099,20.508c0.107,0.809,0.613,1.491,1.5,1.5c0.758,0.008,1.57-0.694,1.5-1.5   c-0.565-6.496-1.108-13.014-0.602-19.532c-0.982,0.133-1.964,0.266-2.946,0.399c1.234,6.702,2.024,13.468,2.382,20.272c1,0,2,0,3,0   c-0.528-6.959-1.029-13.957-0.131-20.908c-1,0-2,0-3,0c0.338,7.014,1.22,13.995,2.63,20.874c0.343,1.673,2.964,1.272,2.946-0.399   c-0.073-6.884,0.8-13.786-0.119-20.645c-0.982,0.133-1.964,0.266-2.946,0.399c1.961,6.315,1.899,12.98,2.535,19.503   c0.185,1.893,3.142,1.943,3,0c-0.535-7.339-2.567-14.405-4.669-21.421c-0.553-1.845-3.449-1.059-2.893,0.797   c2.022,6.748,4.047,13.564,4.562,20.624c1,0,2,0,3,0c-0.661-6.782-0.603-13.735-2.642-20.3c-0.475-1.529-3.181-1.349-2.946,0.399   c0.919,6.859,0.046,13.761,0.119,20.645c0.982-0.133,1.964-0.266,2.946-0.399c-1.358-6.622-2.198-13.325-2.523-20.076   c-0.095-1.98-2.758-1.871-3,0c-0.898,6.951-0.397,13.949,0.131,20.908c0.145,1.905,3.102,1.943,3,0   c-0.371-7.07-1.207-14.108-2.489-21.07c-0.324-1.761-2.824-1.185-2.946,0.399c-0.506,6.518,0.037,13.037,0.602,19.532c1,0,2,0,3,0   c-0.902-6.814-1.602-13.652-2.099-20.508c-0.14-1.931-2.851-1.928-3,0c-0.527,6.807-0.374,13.641,0.458,20.418   c0.229,1.864,3.129,1.965,3,0c-0.457-6.948-1.167-13.872-2.1-20.772c-0.23-1.7-2.953-1.251-2.946,0.399   c0.026,6.58,0.333,13.153,0.921,19.706c0.932-0.252,1.863-0.505,2.795-0.757c-1.532-2.824-1.596-6.088-1.757-9.221   c-0.166-3.246-0.462-6.457-1.898-9.421c-0.766-1.582-3.113-0.44-2.742,1.156c1.478,6.353,2.06,12.848,1.77,19.364c1,0,2,0,3,0   c-0.127-6.238-0.47-12.469-1.029-18.683C614.393,599.3,611.391,599.282,611.564,601.208L611.564,601.208z"/>
	<rect x="365.323" y="504.2" fill="#FFFFFF" width="416.439" height="28.504"/>
	<rect x="365.323" y="540.2" fill="#FFFFFF" width="416.439" height="27.852"/>
	<path fill="#FFFFFF" d="M781.251,608.057c0,0-96.768-8.603-209.787-9.03c-113.019-0.426-206.652,9.03-206.652,9.03v-31.15   c0,0,126.116-5.328,201.122-5.558c87.603-0.269,215.317,5.558,215.317,5.558V608.057z"/>
	<rect x="365.127" y="646.427" fill="#FFFFFF" width="416.439" height="27.604"/>
	<rect x="365.127" y="681.712" fill="#FFFFFF" width="416.439" height="28.337"/>
	<rect x="365.127" y="716.996" fill="#FFFFFF" width="416.439" height="27.791"/>
	<rect x="365.127" y="752.638" fill="#FFFFFF" width="416.439" height="27.656"/>
	<path fill="#F9D0BB" d="M511.289,630.579c-0.832-1.176-19.852-25.583-30.835-37.008c-4.644-4.831-11.461-11.398-15.054-13.806   c-2.929-1.963-8.367,0.723-4.383,5.877c4.289,5.548,11.171,11.328,11.982,12.29c1.453,1.723-0.401,3.95-1.67,2.589   c-0.854-0.916-17.37-14.751-19.612-16.796c-2.242-2.045-7.37,1.458-4.008,5.753s14.911,15.1,15.845,15.917   c0.934,0.817-0.207,3.297-1.328,2.275c-1.121-1.023-17.499-11.984-19.741-13.527c-2.242-1.543-6.348,2.392-2.612,5.869   c3.736,3.477,15.194,13.022,15.67,13.544c1.868,2.045,0.722,2.587-0.506,1.646s-11.858-7.251-14.361-8.729   c-2.503-1.478-6.297,2.157-2.244,5.788c4.053,3.631,10.577,10.469,12.174,11.679c1.597,1.21,6.982,5.209,6.982,5.209   C469.256,629.737,511.289,630.579,511.289,630.579z"/>
	<path fill="#F9D0BB" d="M515.898,630.596c0,0-4.57-11.502-6.852-15.603c-2.282-4.101-12.221-26.136-14.499-25.31   c-8.775,3.184-0.002,19.706,1.659,23.991c1.661,4.284,5.081,11.452,5.081,11.452l1.821,5.282L515.898,630.596z"/>
	<g>
		<g>
			<path fill="#FFFFFF" d="M590.203,608.225c5.106,0.047,8.133-1.551,8.133-3.464c0-1.913-3.641-3.464-8.133-3.464     c0,0-8.716-0.024-8.213,3.797C582.313,607.543,586.965,608.195,590.203,608.225z"/>
			<path fill="#133335" d="M590.417,609.226c-0.074,0-0.148,0-0.223-0.001c-2.609-0.023-8.729-0.461-9.195-4     c-0.123-0.933,0.142-1.801,0.767-2.512c2.08-2.366,7.793-2.392,8.44-2.417c4.424,0,9.129,1.564,9.129,4.465     c0,0.809-0.348,1.581-1.006,2.232C596.893,608.416,594.017,609.226,590.417,609.226z M590.178,602.296     c-2.094,0-5.797,0.47-6.911,1.738c-0.246,0.279-0.333,0.566-0.286,0.929c0.171,1.295,3.144,2.225,7.231,2.262l0,0     c3.689,0.053,5.881-0.831,6.709-1.651c0.274-0.272,0.414-0.546,0.414-0.812c0-0.981-2.845-2.465-7.132-2.465     C590.195,602.296,590.187,602.296,590.178,602.296z"/>
		</g>
		<ellipse fill="#133335" cx="587.934" cy="604.761" rx="3.23" ry="2.783"/>
	</g>
	<g>
		<g>
			<path fill="#FFFFFF" d="M551.572,608.225c5.106,0.047,8.133-1.551,8.133-3.464s-3.641-3.464-8.133-3.464     c0,0-8.716-0.024-8.213,3.797C543.682,607.544,548.335,608.196,551.572,608.225z"/>
			<path fill="#133335" d="M551.782,609.227c-0.073,0-0.145,0-0.218-0.001h0c-2.609-0.023-8.728-0.461-9.194-4.001     c-0.123-0.933,0.142-1.801,0.767-2.511c2.08-2.366,7.811-2.393,8.44-2.417c4.424,0,9.13,1.564,9.13,4.464     c0,0.809-0.348,1.581-1.006,2.233C558.263,608.417,555.385,609.227,551.782,609.227z M551.581,607.226     c3.661,0.028,5.882-0.832,6.71-1.652c0.274-0.272,0.414-0.546,0.414-0.812c0-0.98-2.845-2.464-7.133-2.464     c-0.008,0-0.016,0-0.024,0c-2.094,0-5.797,0.47-6.911,1.738c-0.246,0.279-0.333,0.565-0.286,0.928     C544.522,606.258,547.495,607.188,551.581,607.226L551.581,607.226z"/>
		</g>
		<ellipse fill="#133335" cx="549.063" cy="604.761" rx="3.23" ry="2.783"/>
	</g>
	<path fill="#FFFFFF" d="M781.251,611.143c0,0-95.201,3.06-208.22,3.437s-208.22-3.437-208.22-3.437v27.577   c0,0,165.256,3.686,206.827,3.661c41.88-0.026,209.613-3.661,209.613-3.661V611.143z"/>
	<rect x="378.971" y="409.707" fill="#F67D28" width="6.643" height="378.641"/>
	<rect x="759.835" y="409.707" fill="#F67D28" width="6.643" height="378.641"/>
	<path fill="#2D7C7C" d="M763.939,414.421c5.161-1.074,8.264,4.347,8.958,8.643c0.778,4.818,0.321,9.95,0.311,14.811   c-0.021,10.733-0.043,21.465-0.064,32.198c-0.042,21.163-0.085,42.326-0.127,63.488c-0.085,42.477-0.17,84.954-0.255,127.43   c-0.085,42.34-0.169,84.68-0.254,127.019c-0.042,21.249-0.085,42.499-0.127,63.748c-0.008,3.856,0.954,10.194-2.614,12.877   c-3.064,2.304-7.715,0.336-9.851-2.306c-3.778-4.672-3.617-11.59-4.021-17.334c-1.273-18.094-1.668-36.259-2.033-54.39   c-0.489-24.296-0.684-48.598-0.767-72.899c-0.086-25.061-0.038-50.122,0.11-75.182c0.121-20.355,0.3-40.711,0.598-61.065   c0.213-14.543,0.836-29.087,0.984-43.628c0.213-20.953-0.853-41.897-1.736-62.825c-0.443-10.497-0.801-21.001-1.335-31.494   c-0.353-6.935-1.148-14.084-3.782-20.566c-2.372-5.837-6.274-10.568-12.16-13.039c0.119,0.914,0.239,1.828,0.358,2.742   c10.369-7.478,25.541-6.324,34.559,2.791c1.36,1.375,3.481-0.747,2.121-2.121c-9.89-9.997-26.759-11.508-38.194-3.26   c-1.115,0.804-0.858,2.231,0.358,2.742c6.832,2.868,10.199,9.778,11.879,16.603c2.026,8.232,1.98,16.825,2.336,25.243   c0.899,21.299,2.014,42.604,2.467,63.918c0.401,18.913-0.453,37.807-0.76,56.715c-0.321,19.835-0.509,39.673-0.644,59.51   c-0.172,25.269-0.241,50.539-0.18,75.808c0.06,25.081,0.234,50.163,0.696,75.24c0.35,18.998,0.742,38.024,1.978,56.989   c0.305,4.682,0.448,9.519,1.514,14.093c1.527,6.55,7.131,13.443,14.681,11.374c3.437-0.942,5.447-3.985,6.066-7.355   c0.842-4.58,0.372-9.51,0.381-14.143c0.022-10.827,0.043-21.655,0.065-32.482c0.086-43.247,0.173-86.495,0.259-129.742   c0.086-43.233,0.173-86.465,0.259-129.698c0.043-21.616,0.086-43.233,0.13-64.849c0.022-10.884,0.044-21.767,0.065-32.651   c0.021-10.488,0.552-21.121-0.01-31.595c-0.206-3.837-0.969-7.817-3.561-10.799c-2.393-2.753-5.848-4.204-9.457-3.453   C761.252,411.921,762.051,414.814,763.939,414.421L763.939,414.421z"/>
	<path fill="#2D7C7C" d="M776.06,844.364h-4.864c-2.606,0-4.718-2.112-4.718-4.718v-15.643c0-2.606,2.112-4.718,4.718-4.718h4.864   c2.606,0,4.718,2.112,4.718,4.718v15.643C780.778,842.251,778.666,844.364,776.06,844.364z"/>
	<path fill="#133335" d="M731.056,408.968c0,0,7.226,7.993,7.526,7.8c0.3-0.192-2.701-9.719-2.701-9.719   S733.798,408.324,731.056,408.968z"/>
	<g>
	</g>
	<g>
	</g>
	<g>
	</g>
	<g>
	</g>
	<g>
	</g>
	<g>
	</g>
	<g>
	</g>
	<g>
	</g>
	<g>
	</g>
	<g>
	</g>
	<g>
	</g>
	<g>
	</g>
	<g>
	</g>
	<g>
	</g>
	<g>
	</g>
</g>
</svg>