<svg xmlns="http://www.w3.org/2000/svg" viewBox="0 0 566.93 566.93"><g id="b4a42fb6-23b0-4c61-93dc-ecd095540704" data-name="Copy"><g style="opacity:0.05"><circle cx="283.46" cy="283.46" r="283.46"/></g><path d="M424.83,178c0,24.71-56.59,44.73-126.39,44.73s-126.38-20-126.38-44.73,56.58-44.73,126.38-44.73S424.83,153.25,424.83,178Z" style="fill:#c3c3c3"/><path d="M172.06,178c0,24.71,56.58,44.73,126.38,44.73s126.39-20,126.39-44.73L406.45,429.17c0,20.82-47.7,37.71-106.55,37.71S193.35,450,193.35,429.17Z" style="fill:gray"/><path d="M197.34,190.4c17.33,12.48,56.09,21.17,101.16,21.17,41.71,0,78-7.44,96.95-18.44C338.43,165.58,231.06,183.7,197.34,190.4Z" style="fill:#8a5942"/><path d="M409.34,175.76c0-19.77-49.62-35.8-110.84-35.8s-110.84,16-110.84,35.8c0,5.22,3.48,10.17,9.68,14.64,33.72-6.7,141.09-24.82,198.11,2.73C404.29,188,409.34,182.06,409.34,175.76Z" style="fill:gray"/><path d="M186.21,94.25c23.74,13.85,63.35,18.41,96.47,23.61,27,4.23,53.56,8.45,76,17.27,13.6,5.36,26.12,13.18,22.51,24.55-2.38,7.49-12.36,14.61-23.87,19a175.26,175.26,0,0,1-24.06,7.12,312.49,312.49,0,0,0,34.83-4.49c15.76-3,31.77-8.71,39.68-15.61,12-10.49,3.78-19.31-7.39-25.89C382,129,355.67,122.09,329,115.15c-32.76-8.52-73.1-17.13-89.41-32.91-8.86-8.57-9.89-19.6,13.58-29.26,22.34-9.19,46.18-10.71,68.47-9.92C269.15,28.3,196,50.44,179.38,64.43,165.53,76.07,173.33,86.74,186.21,94.25Z" style="fill:#fff"/><path d="M409.34,240s65.3,4.45,65.28,44.07c0,2,.21,30.54,0,32.5-1.17,11.5-8.31,59.81-74.2,54.06" style="fill:none;stroke:gray;stroke-miterlimit:10;stroke-width:20px"/><circle cx="189.57" cy="403.3" r="83.09" style="fill:#73be00"/><g id="b765e2b3-3b3e-4119-a019-4fc01e904dc2" data-name="NewGroupe0"><g id="e969a2d1-037b-4197-b8a7-ae27fa3bbaff" data-name="NewGroup14-0"><path d="M188.23,458.85a55.69,55.69,0,1,1,55.69-55.69A55.75,55.75,0,0,1,188.23,458.85Zm-48.76-52.28a48.33,48.33,0,0,0,5.05,18.51l2.9,5A48.92,48.92,0,0,0,161.34,444l5,2.89a48.49,48.49,0,0,0,18.49,5.05v-5.19a3.41,3.41,0,0,1,3.41-3.41,3.38,3.38,0,0,1,3.41,3.41v5.19a48.47,48.47,0,0,0,18.5-5.06l5-2.9a48.85,48.85,0,0,0,13.9-13.91l2.9-5a48.2,48.2,0,0,0,5-18.48H231.8a3.41,3.41,0,0,1,0-6.81H237a48.21,48.21,0,0,0-5.06-18.51l-2.89-5a48.92,48.92,0,0,0-13.92-13.91l-5-2.89a48.4,48.4,0,0,0-18.47-5.05v5.2a3.41,3.41,0,0,1-6.81,0v-5.2a48.47,48.47,0,0,0-18.51,5.06l-5,2.9a48.92,48.92,0,0,0-13.91,13.92l-2.89,5a48.25,48.25,0,0,0-5,18.48h5.19a3.41,3.41,0,0,1,0,6.81ZM200,420a3.49,3.49,0,0,1-2.44-1l-11.86-11.86a3.48,3.48,0,0,1-1-2.45V375.05a3.47,3.47,0,0,1,6.93,0v28.2l10.83,10.84A3.46,3.46,0,0,1,200,420Z" style="fill:#fff"/><path d="M188.23,348A55.19,55.19,0,1,1,133,403.17,55.19,55.19,0,0,1,188.23,348m0,14.52a2.92,2.92,0,0,1-2.91-2.9v-5.73A49.23,49.23,0,0,0,166.09,359l-5,2.91A49.66,49.66,0,0,0,147,376l-2.91,5a49,49,0,0,0-5.15,19.23h5.73a2.91,2.91,0,0,1,0,5.81h-5.73a49,49,0,0,0,5.15,19.23l2.91,5a49.66,49.66,0,0,0,14.07,14.08l5,2.91a49.23,49.23,0,0,0,19.24,5.14v-5.73a2.91,2.91,0,0,1,2.91-2.9,2.88,2.88,0,0,1,2.91,2.9v5.73a49.14,49.14,0,0,0,19.22-5.14l5-2.91a49.66,49.66,0,0,0,14.07-14.08l2.91-5a48.85,48.85,0,0,0,5.14-19.23H231.8a2.91,2.91,0,1,1,0-5.81h5.72A48.85,48.85,0,0,0,232.38,381l-2.91-5a49.66,49.66,0,0,0-14.07-14.08l-5-2.91a49.14,49.14,0,0,0-19.22-5.14v5.73a2.9,2.9,0,0,1-2.9,2.9m-.12,9.59a3,3,0,0,1,3,3v28.4l11,11a3,3,0,1,1-4.19,4.19L186,406.78a2.94,2.94,0,0,1-.87-2.1V375.05a3,3,0,0,1,3-3m.12-25.11a56.19,56.19,0,1,0,56.19,56.19A56.25,56.25,0,0,0,188.23,347Zm-21.66,12.91a48,48,0,0,1,17.76-4.95v4.66a3.91,3.91,0,0,0,7.81,0v-4.66a48,48,0,0,1,17.75,4.95l5,2.88a48.32,48.32,0,0,1,13.75,13.76l2.88,5a47.72,47.72,0,0,1,4.95,17.76H231.8a3.91,3.91,0,1,0,0,7.81h4.65a47.75,47.75,0,0,1-4.95,17.75l-2.88,5a48.44,48.44,0,0,1-13.75,13.76l-5,2.88a48,48,0,0,1-17.75,4.95v-4.66a3.87,3.87,0,0,0-3.91-3.9,3.91,3.91,0,0,0-3.91,3.9v4.66a48,48,0,0,1-17.76-4.95l-5-2.88a48.44,48.44,0,0,1-13.75-13.76l-2.88-5a47.67,47.67,0,0,1-5-17.76h4.65a3.91,3.91,0,0,0,0-7.81H140a47.62,47.62,0,0,1,5-17.75l2.88-5a48.44,48.44,0,0,1,13.75-13.76l5-2.88Zm21.54,11.2a4,4,0,0,0-4,4v29.63a4,4,0,0,0,1.16,2.81l11.85,11.85a4,4,0,0,0,5.62-5.6L192.08,403v-28a4,4,0,0,0-4-4Z" style="fill:#fff"/></g></g></g></svg>