<svg xmlns="http://www.w3.org/2000/svg" xmlns:xlink="http://www.w3.org/1999/xlink" version="1.1" x="0px" y="0px" enable-background="new 0 0 1200 1200" xml:space="preserve" viewBox="223.8 241 718.01 744.32">
<g id="k">
	<circle fill="#D6E5E3" cx="582.803" cy="600" r="359.004"/>
</g>
<g id="Geduld_1_">
	<g>
		<defs>
			<circle id="SVGID_1_" cx="582.803" cy="600" r="359.004"/>
		</defs>
		<clipPath id="SVGID_2_">
			<use xlink:href="#SVGID_1_" overflow="visible"/>
		</clipPath>
		<path clip-path="url(#SVGID_2_)" fill="#F9D0BB" d="M253.79,779.015c0,0,74.202-19.763,291.63-16.577    s354.098,45.217,354.098,45.217S789.454,1009.148,545.42,982.97S253.79,779.015,253.79,779.015z"/>
		<path clip-path="url(#SVGID_2_)" fill="#F67D28" d="M823.944,527.386c-6.286-8.643-30.024-12.573-33.421-9.148    c-1.934,1.95-16.387,16.818-22.654,27.065c-4.325,7.07-8.649,14.141-12.973,21.212c-10.327-14.309-33.962-46.324-34.655-46.15    c-5.375,1.355-18.855,10.115-21.211,11.547c-1.948,1.185-3.262,3.023-2.867,5.388c0.451,2.701,2.587,4.883,4.194,6.971    c1.836,2.387,3.673,4.774,5.509,7.161c3.734,4.853,7.468,9.707,11.202,14.56c3.549,4.613,7.311,9.129,10.59,13.939    c1.547,2.269,2.902,4.671,3.672,7.321c0.8,2.753,1.006,5.621,1.052,8.475c0.193,11.953-0.458,23.981-1.176,35.909    c-1.45,24.096-4.108,48.109-7.493,72.006c-3.382,23.875-7.474,47.642-11.797,71.363c-1.046,5.738-2.182,11.464-3.148,17.216    c-0.836,4.978-1.424,10.052-0.681,15.08c1.368,9.256,8.043,15.606,16.713,18.384c7.924,2.54,17.578,2.896,25.503,0.164    c3.82-1.317,7.388-3.537,9.583-7.012c2.879-4.558,2.595-10.327,2.722-15.505c0.593-24.243,0.022-48.494,0.122-72.74    c0.098-23.801,0.802-47.69,3.988-71.304c2.683-19.881,7.174-39.594,14.149-58.424c6.902-18.631,16.369-36.474,28.925-51.929    c3.081-3.792,10.954-14.53,11.597-15.266C821.804,533.199,825.445,529.45,823.944,527.386z"/>
		<path clip-path="url(#SVGID_2_)" fill="#F67D28" d="M441.368,564.823c2.698-6.88-15.482-17.352-23.761-4.78    c-5.945,9.027-7.038,11.518-12.645,20.576c-2.929,4.732-7.981,13.24-10.511,18.226c-5.177-7.269-10.354-14.537-15.532-21.806    c-2.294-3.221-15.492-19.697-19.57-20.29c-2.088-0.303-7.744,1.795-11.814,4.44c-5.764,3.747-6.442,8.34-5.267,10.261    c11.556,18.908,22.797,36.37,27.751,50.071c6.208,17.167,6.527,36.12,7.791,54.253c1.338,19.197,2.566,38.41,3.156,57.653    c0.295,9.612,0.431,19.23,0.341,28.847c-0.045,4.809-0.146,9.617-0.312,14.423c-0.125,3.64-0.274,7.279-0.109,10.921    c0.302,6.651,1.58,13.838,6.167,18.718c2.568,2.732,5.909,4.308,9.372,5.274c3.148,0.879,6.408,1.465,9.654,1.712    c5.604,0.427,11.962-0.153,16.572-3.938c2.425-1.991,4.129-4.801,4.832-7.99c0.921-4.179,0.298-8.508-0.14-12.708    c-1.991-19.084-3.712-38.201-5.165-57.34c-1.459-19.222-2.646-38.468-3.56-57.729c-0.455-9.589-0.843-19.182-1.164-28.777    c-0.302-9.056-0.969-18.367,0.596-27.334c1.45-8.301,7.411-21.169,10.853-28.686C435.834,573.689,438.532,572.055,441.368,564.823    z"/>
		<path clip-path="url(#SVGID_2_)" fill="#FFFFFF" d="M888.205,491.136c-4.142-2.465-8.503-4.933-11.714-8.604    c-1.411-1.613-2.499-3.502-3.036-5.585c-0.881-3.416-0.085-6.924,0.93-10.214c2.003-6.493,5.315-13.424,2.355-20.174    c-2.853-6.508-10.05-10.387-16.786-11.526c-15.252-2.58-29.959,5.223-45.085,5.631c-8.015,0.216-16.046-1.806-23.025-5.747    c-6.658-3.76-11.503-9.624-17.58-14.136c-2.88-2.139-6.127-3.851-9.667-4.564c-4.296-0.865-8.655-0.433-12.952,0.18    c-3.284,0.468-6.522,1.062-9.641,2.219c-2.224,0.825-4.334,1.894-6.486,2.885c-0.527,0.243-1.056,0.446-1.585,0.64    c-4.348,1.384-8.785,1.658-13.182,0.258c-3.942-1.255-7.441-3.565-10.944-5.705c-3.726-2.277-7.583-4.444-11.835-5.566    c-5.157-1.361-10.543-1.045-15.646,0.406c-6.388,1.817-12.416,5.066-17.171,9.731c-3.938,3.863-6.841,8.565-9.451,13.385    c-2.189,4.042-4.203,8.375-7.339,11.793c-4.845,5.281-11.397,7.402-18.246,8.652c-6.599,1.205-13.349,2.175-18.981,6.119    c-5.92,4.145-9.989,10.534-12.106,17.376c-2.104,6.801-2.34,14.257-0.548,21.154c1.472,5.667,4.169,11.396,8.659,15.294    c7.07,6.138,16.394,6.084,25.208,6.75c3.667,0.277,7.595,0.706,10.744,2.773c5.467,3.588,7.678,10.513,10.878,15.888    c3.434,5.768,8.433,10.094,15.182,11.308c6.826,1.228,13.898-0.318,20.274-2.792c7.297-2.831,13.792-7.212,20.74-10.753    c7.144-3.64,15.33-6.826,23.472-5.154c7.514,1.542,13.628,6.969,21.371,7.767c7.7,0.793,14.792-3.057,21.755-5.708    c3.67-1.397,7.428-2.497,11.377-2.616c3.655-0.11,7.268,0.457,10.807,1.33c7.39,1.822,14.423,4.864,21.851,6.549    c7.528,1.708,14.867,1.446,22.186-1.06c7.385-2.528,14.173-6.517,21.568-9.016c7.96-2.69,16.475-2.252,24.484-4.636    c6.238-1.856,12.641-6.271,14.429-12.858C906.377,502.103,895.952,495.747,888.205,491.136z"/>
		<path clip-path="url(#SVGID_2_)" fill="#FFFFFF" d="M526.556,485.587c-5.481-3.879-12.543-4.164-19.006-4.467    c-6.605-0.31-13.324-0.832-18.699-5.107c-4.259-3.388-7.172-8.127-9.872-12.77c-2.88-4.952-5.587-10.042-9.27-14.463    c-3.958-4.75-9.144-8.165-15.002-10.113c-12.036-4.005-26.073-2.062-37.208,3.732c-3.705,1.928-7.181,4.271-10.677,6.567    c-1.283,0.797-2.545,1.636-3.812,2.445c-0.159,0.099-0.316,0.201-0.476,0.298c-0.008,0.005-0.013,0.01-0.02,0.015    c-0.112,0.07-0.223,0.142-0.335,0.212c-2.372,1.479-4.867,2.844-7.649,3.343c-3.786,0.679-7.581-0.691-11.032-2.112    c-6.898-2.84-13.719-5.344-21.095-6.657c-7.397-1.317-14.955-1.703-22.444-1.076c-13.239,1.109-26.699,5.084-37.324,13.292    c-4.833,3.734-9.049,8.384-11.772,13.887c-1.472,2.975-2.405,6.096-3.118,9.329c-0.73,3.307-1.381,6.661-2.988,9.677    c-4.732,8.884-14.632,13.511-22.729,18.746c-8.312,5.374-16.766,12.578-17.065,23.288c-0.154,5.512,1.884,10.966,5.334,15.227    c4.058,5.01,9.887,7.51,16.245,7.92c7.319,0.472,14.506-1.582,21.814-1.415c5.864,0.133,12.429,1.699,15.729,7.017    c3.468,5.59,2.957,12.703,5.669,18.625c2.213,4.833,6.401,8.246,11.285,10.157c5.146,2.014,10.938,2.345,16.381,1.67    c6.371-0.79,12.261-3.178,18.071-5.81c6.567-2.976,13.038-6.315,20.053-8.132c7.437-1.926,14.98-1.304,22.535-0.565    c7.268,0.71,14.727,1.424,21.889-0.447c7.168-1.873,13.231-6.763,20.606-7.958c7.945-1.288,15.944,1.59,23.442,3.841    c6.133,1.841,12.505,3.371,18.959,2.875c6.062-0.466,11.794-2.836,15.559-7.757c3.393-4.435,4.633-10.016,5.58-15.406    c0.991-5.642,1.626-11.637,4.337-16.779c2.944-5.582,8.363-8.657,13.527-11.898c4.791-3.007,9.597-6.463,11.962-11.79    c2.111-4.755,2.343-10.198,0.972-15.195C533.577,492.958,530.701,488.52,526.556,485.587z"/>
		<path clip-path="url(#SVGID_2_)" fill="#133335" d="M342.411,598.673"/>
		<path clip-path="url(#SVGID_2_)" fill="#2D7C7C" d="M728.869,651.725c9.591,1.722,19.379,2.163,29.074,1.127    c2.446-0.261,4.886-0.601,7.309-1.027c2.112-0.371,4.282-0.702,6.26-1.562c1.918-0.835,3.521-2.299,4.092-4.367    c0.533-1.932,0.117-4.269-1.526-5.554c-1.063-0.831-2.499-1.036-3.536,0c-0.865,0.865-1.07,2.699,0,3.536    c0.283,0.221,0.365,0.139,0.284,0.561c-0.064,0.332-0.24,0.58-0.564,0.847c-1.09,0.899-2.887,1.056-4.218,1.321    c-3.938,0.782-7.916,1.307-11.921,1.579c-7.991,0.544-16.041,0.134-23.924-1.282c-1.327-0.238-2.695,0.361-3.075,1.746    C726.79,649.86,727.533,651.485,728.869,651.725L728.869,651.725z"/>
		<path clip-path="url(#SVGID_2_)" fill="#2D7C7C" d="M420.822,657.651c-4.314,1.336-0.97,7.76,2.333,5.386    c2.356-1.694,0.902-5.016-1.926-4.569c-8.603,1.358-17.206,2.716-25.809,4.074c-4.054,0.64-8.102,1.343-12.22,1.329    c-1.41-0.005-2.822-0.024-4.227-0.152c-0.607-0.055-1.208-0.146-1.798-0.306c-0.548-0.149-0.709-0.186-1.175-0.587    c-0.231-0.199-0.367-0.37-0.429-0.458c-0.188-0.269-0.339-0.576-0.352-0.61c-0.111-0.286-0.187-0.589-0.249-0.889    c-0.001-0.007-0.06-0.425-0.033-0.18c0.024,0.214-0.007-0.259-0.006-0.303c0.004-0.165,0.04-0.91,0.018-0.763    c-0.027,0.185,0.108-0.421,0.142-0.557c0.01-0.041,0.125-0.384,0.015-0.095c-0.121,0.317,0.096-0.169,0.124-0.232    c0.128-0.281,0.02-0.014,0.004-0.037c0.033,0.045-0.04,0.039-0.254,0.199c1.08-0.807,1.633-2.162,0.897-3.42    c-0.623-1.064-2.333-1.71-3.42-0.897c-2.455,1.835-3.007,5.284-2.184,8.125c0.456,1.577,1.364,3.003,2.648,4.027    c1.587,1.265,3.38,1.672,5.354,1.91c4.163,0.502,8.411,0.188,12.547-0.377c4.909-0.671,9.799-1.516,14.693-2.289    c5.681-0.897,11.363-1.794,17.044-2.69c-0.642-1.523-1.284-3.046-1.926-4.569c-0.049,0.035-0.098,0.07-0.147,0.105    c0.421-0.114,0.841-0.228,1.262-0.341c-0.05-0.001-0.1-0.001-0.15-0.002c0.421,0.114,0.841,0.228,1.262,0.341    c0.289,0.471,0.578,0.942,0.867,1.414c-0.114,0.421-0.228,0.841-0.341,1.262c0.03-0.04,0.059-0.081,0.089-0.121    c-0.498,0.383-0.996,0.766-1.494,1.149c0.058-0.018,0.115-0.036,0.173-0.053C425.215,661.523,423.908,656.695,420.822,657.651    L420.822,657.651z"/>
		<path clip-path="url(#SVGID_2_)" fill="#2D7C7C" d="M730.956,647.23c-0.645-1.102-2.301-1.664-3.42-0.897    c-19.527,13.383-39.177,26.585-58.95,39.601c-4.949,3.258-50.351,27.701-68.359,29.648c-9.956,1.077-19.988,1.346-29.996,1.264    c-10.806-0.088-21.648-0.658-32.347-2.23c-10.823-1.591-21.576-4.159-31.782-8.142c-0.181-0.222-0.399-0.411-0.674-0.53    c-22.524-9.776-44.095-21.723-64.312-35.658c-5.653-3.896-11.205-7.941-16.633-12.145c-1.066-0.826-2.496-1.039-3.536,0    c-0.653,0.653-0.93,1.87-0.558,2.783c-0.471,0.861-0.5,1.963,0.347,2.89c17.642,19.297,44.134,123.585,148.951,123.585    c88.465,0,133.529-105.803,152.119-127.044c2.332-2.665,4.664-5.329,6.997-7.994c0.352-0.402,0.535-0.835,0.607-1.267    c0.216-0.148,0.433-0.294,0.649-0.442C731.171,649.888,731.672,648.454,730.956,647.23z M435.813,672.64    c15.29,10.732,38.099,24.942,38.1,24.948c0.016,0.153-6.743,7.395-14.488,12.377C444.352,696.263,441.638,688.168,435.813,672.64z     M672.473,706.541c-7.043-2.322-10.122-9.946-10.073-10.04c19.398-12.634,31.786-21.477,50.95-34.463    c0.291-0.197,0.581-0.397,0.872-0.594C699.446,678.326,672.669,706.399,672.473,706.541z"/>
		<path clip-path="url(#SVGID_2_)" fill="#133335" d="M597.738,729.454c9.408-2.474,20.533-3.679,28.413,3.244    c1.445,1.27,3.575-0.844,2.121-2.121c-8.761-7.696-20.773-6.791-31.332-4.015C595.075,727.052,595.866,729.946,597.738,729.454    L597.738,729.454z"/>
		<path clip-path="url(#SVGID_2_)" fill="#F67D28" d="M493.916,686.134c8.263-8.654,22.805-6.321,28.843-0.241    c6.039,6.08,5.126,19.997,5.126,19.997s5.7-7.543,21.443-6.614c15.743,0.929,41.771,12.264,50.294,25.532    c7.082,11.024,6.171,15.061,6.171,15.061s-31.901,18.933-78.846-0.78C491.871,724.361,480.834,699.836,493.916,686.134z"/>
		<path clip-path="url(#SVGID_2_)" fill="#F67D28" d="M565.502,706.634c0,0-4.512-45.19-20.843-45.19    c-7.381,0-17.251,35.488-17.251,35.488s-1.985,11.338,2.293,12.756C533.979,711.105,565.502,706.634,565.502,706.634z"/>
		<path clip-path="url(#SVGID_2_)" fill="#F67D28" d="M495.546,712.141c0,0-29.536,6.859-32.856,13.504    c-5.743,11.498,13.628,19.827,32.587,19.123c26.69-0.991,41.9-6.143,41.9-6.143L495.546,712.141z"/>
		<path clip-path="url(#SVGID_2_)" fill="#133335" d="M514.304,682.425c0,0,6.621-7.027,7.775-6.432    c1.154,0.595-0.856,10.141-0.856,10.141S514.825,684.664,514.304,682.425z"/>
		<g clip-path="url(#SVGID_2_)">
			<circle fill="#133335" cx="510.446" cy="693.812" r="2.688"/>
		</g>
		<path clip-path="url(#SVGID_2_)" fill="#133335" d="M480.859,726.251c10.944,1.456,22.205-1.071,32.516-4.629    c1.814-0.626,1.034-3.525-0.798-2.893c-10.097,3.485-21.002,5.948-31.719,4.522c-0.81-0.108-1.492,0.767-1.5,1.5    C479.35,725.649,480.06,726.144,480.859,726.251L480.859,726.251z"/>
		<path clip-path="url(#SVGID_2_)" fill="#133335" d="M544.849,668.995c-2.217,4.75-3.055,10.099-3.489,15.283    c-0.426,5.093-0.466,10.443,0.743,15.44c0.454,1.876,3.347,1.081,2.893-0.798c-1.117-4.618-1.032-9.571-0.665-14.277    c0.369-4.734,1.083-9.791,3.109-14.134C548.25,668.771,545.665,667.246,544.849,668.995L544.849,668.995z"/>
		<path clip-path="url(#SVGID_2_)" fill="#133335" d="M533.746,742.067c16.623,6.017,34.297,7.991,51.816,5.561    c17.453-2.421,34.081-8.969,49.584-17.169c9.665-5.112,18.955-10.906,28.013-17.022c1.591-1.075,0.092-3.675-1.514-2.59    c-15.32,10.345-31.401,19.921-48.734,26.501c-15.763,5.984-32.518,9.277-49.412,8.114c-9.903-0.682-19.63-2.911-28.954-6.286    C532.725,738.516,531.941,741.414,533.746,742.067L533.746,742.067z"/>
		<path clip-path="url(#SVGID_2_)" fill="#133335" d="M596.39,738.648c3.3-1.665,7.127-2.358,10.805-2.337    c1.555,0.009,3.115,0.145,4.61,0.592c0.562,0.168,0.991,0.347,1.5,0.644c0.402,0.234,0.57,0.411,0.771,0.796    c0.892,1.713,3.482,0.198,2.59-1.514c-1.55-2.975-6.014-3.432-8.952-3.51c-4.381-0.117-8.916,0.758-12.839,2.738    C593.152,736.927,594.669,739.516,596.39,738.648L596.39,738.648z"/>
		<g clip-path="url(#SVGID_2_)">
			<path fill="#2D7C7C" d="M793.85,797.348c-3.997,5.891-6.296,12.786-6.735,19.884c-0.119,1.928,2.881,1.921,3,0     c0.407-6.582,2.626-12.919,6.325-18.37C797.527,797.26,794.929,795.758,793.85,797.348L793.85,797.348z"/>
			<path fill="#2D7C7C" d="M807.965,803.473c-3.271,3.9-5.726,8.388-7.198,13.264c-0.559,1.852,2.335,2.644,2.893,0.798     c1.316-4.359,3.498-8.449,6.426-11.94c0.52-0.62,0.608-1.513,0-2.121C809.552,802.939,808.488,802.85,807.965,803.473     L807.965,803.473z"/>
			<path fill="#2D7C7C" d="M824.313,809.8c-4.262,2.821-7.34,7.323-8.26,12.369c-0.145,0.796,0.218,1.617,1.048,1.845     c0.728,0.2,1.699-0.247,1.845-1.048c0.788-4.316,3.256-8.177,6.881-10.576c0.675-0.447,0.963-1.325,0.538-2.052     C825.973,809.668,824.992,809.351,824.313,809.8L824.313,809.8z"/>
			<path fill="#2D7C7C" d="M623.149,812.211c5.745,4.25,10.113,10.302,12.392,17.068c0.613,1.82,3.512,1.039,2.893-0.798     c-2.548-7.563-7.36-14.118-13.77-18.861c-0.652-0.482-1.674-0.108-2.052,0.538C622.165,810.921,622.496,811.727,623.149,812.211     L623.149,812.211z"/>
			<path fill="#2D7C7C" d="M644.507,805.584c0.895,7.074,1.791,14.148,2.686,21.223c0.103,0.81,0.616,1.491,1.5,1.5     c0.732,0.008,1.602-0.696,1.5-1.5c-0.895-7.074-1.791-14.149-2.686-21.223c-0.102-0.81-0.616-1.491-1.5-1.5     C645.275,804.076,644.405,804.78,644.507,805.584L644.507,805.584z"/>
			<path fill="#2D7C7C" d="M671.716,807.882c-6.328,4.51-9.392,12.789-7.347,20.322c0.505,1.861,3.4,1.071,2.893-0.797     c-1.671-6.156,0.745-13.212,5.968-16.934c0.659-0.47,0.973-1.308,0.538-2.052C673.388,807.769,672.379,807.409,671.716,807.882     L671.716,807.882z"/>
			<path fill="#2D7C7C" d="M466.158,792.979c-7.546,3.421-12.488,11.724-11.957,19.983c0.123,1.917,3.124,1.931,3,0     c-0.47-7.313,3.805-14.37,10.471-17.392c0.738-0.335,0.917-1.405,0.538-2.052C467.766,792.759,466.898,792.643,466.158,792.979     L466.158,792.979z"/>
			<path fill="#2D7C7C" d="M478.481,800.844c-5.283,1.842-9.477,6.231-10.983,11.635c-0.519,1.863,2.374,2.658,2.893,0.798     c1.217-4.365,4.668-8.069,8.888-9.54c0.765-0.266,1.273-1.027,1.048-1.845C480.123,801.15,479.25,800.577,478.481,800.844     L478.481,800.844z"/>
			<path fill="#2D7C7C" d="M443.697,789.847c2.482,7.46,3.395,15.289,2.708,23.121c-0.169,1.923,2.832,1.912,3,0     c0.707-8.068-0.259-16.234-2.815-23.918C445.983,787.227,443.085,788.008,443.697,789.847L443.697,789.847z"/>
			<path fill="#2D7C7C" d="M326.371,803.393c5.567,1.786,10.728,4.728,15.093,8.62c1.437,1.281,3.566-0.833,2.121-2.121     c-4.761-4.245-10.342-7.442-16.417-9.391C325.326,799.909,324.537,802.805,326.371,803.393L326.371,803.393z"/>
			<path fill="#2D7C7C" d="M338.711,792.916c4.442,3.076,7.65,7.75,9.021,12.964c0.491,1.866,3.385,1.074,2.893-0.797     c-1.576-5.994-5.314-11.235-10.4-14.757c-0.666-0.461-1.666-0.123-2.052,0.538C337.737,791.609,338.043,792.453,338.711,792.916     L338.711,792.916z"/>
			<path fill="#2D7C7C" d="M356.398,787.397c0.398,4.993,0.795,9.987,1.193,14.98c0.064,0.808,0.643,1.5,1.5,1.5     c0.762,0,1.565-0.688,1.5-1.5c-0.398-4.993-0.795-9.987-1.193-14.98c-0.064-0.808-0.643-1.5-1.5-1.5     C357.136,785.897,356.334,786.585,356.398,787.397L356.398,787.397z"/>
			<path fill="#2D7C7C" d="M472.607,873.276c8.124,1.04,15.61,5.905,19.971,12.811c1.028,1.628,3.625,0.125,2.59-1.514     c-4.981-7.888-13.33-13.115-22.561-14.297c-0.81-0.104-1.492,0.764-1.5,1.5C471.098,872.672,471.806,873.174,472.607,873.276     L472.607,873.276z"/>
			<path fill="#2D7C7C" d="M504.989,858.768c0.77,7.446,1.54,14.893,2.31,22.339c0.197,1.901,3.199,1.922,3,0     c-0.77-7.446-1.54-14.893-2.31-22.339C507.792,856.867,504.79,856.846,504.989,858.768L504.989,858.768z"/>
			<path fill="#2D7C7C" d="M525.623,861.648c-1.832,5.212-2.678,10.755-2.498,16.276c0.063,1.926,3.063,1.934,3,0     c-0.172-5.281,0.638-10.494,2.39-15.479c0.269-0.764-0.305-1.641-1.048-1.845C526.64,860.373,525.893,860.881,525.623,861.648     L525.623,861.648z"/>
			<path fill="#2D7C7C" d="M602.265,898.268c4.734,5.295,8.196,11.624,10.138,18.454c0.527,1.854,3.423,1.066,2.893-0.798     c-2.085-7.335-5.828-14.094-10.909-19.777C603.097,894.704,600.981,896.832,602.265,898.268L602.265,898.268z"/>
			<path fill="#2D7C7C" d="M626.214,896.576c-2.191,5.632-3.561,11.521-4.163,17.532c-0.081,0.807,0.747,1.5,1.5,1.5     c0.878,0,1.419-0.69,1.5-1.5c0.575-5.735,1.968-11.365,4.056-16.734c0.294-0.755-0.323-1.646-1.048-1.845     C627.211,895.295,626.509,895.818,626.214,896.576L626.214,896.576z"/>
			<path fill="#2D7C7C" d="M644.912,901.259c-4.092,3.373-6.909,8.293-7.731,13.533c-0.125,0.799,0.204,1.613,1.048,1.845     c0.712,0.196,1.719-0.243,1.845-1.048c0.754-4.803,3.207-9.116,6.96-12.209c0.626-0.516,0.534-1.587,0-2.121     C646.415,900.641,645.539,900.743,644.912,901.259L644.912,901.259z"/>
		</g>
		<g clip-path="url(#SVGID_2_)">
			<path fill="#2D7C7C" d="M670.973,454.432c0.277,4.71,2.85,9.148,6.933,11.573c4.326,2.57,9.888,2.509,14.247,0.068     c1.685-0.943,0.174-3.536-1.514-2.59c-3.437,1.925-7.812,1.956-11.218-0.068c-3.144-1.868-5.232-5.338-5.447-8.983     C673.86,452.513,670.86,452.5,670.973,454.432L670.973,454.432z"/>
			<path fill="#2D7C7C" d="M731.239,444.684c7.851-3.837,18.346,1.55,20.144,9.984c0.402,1.887,3.295,1.089,2.893-0.798     c-2.226-10.448-15.057-16.418-24.551-11.777C727.99,442.942,729.509,445.53,731.239,444.684L731.239,444.684z"/>
			<path fill="#2D7C7C" d="M767.489,498.161c5.497-7.12,15.791-9.534,23.992-6.102c0.753,0.315,1.642-0.34,1.845-1.048     c0.247-0.861-0.304-1.534-1.048-1.845c-9.554-3.998-21.115-0.634-27.38,7.481c-0.499,0.646-0.093,1.674,0.538,2.052     C766.206,499.16,766.997,498.799,767.489,498.161L767.489,498.161z"/>
			<path fill="#2D7C7C" d="M829.803,461.07c-2.228,5.435-1.216,11.895,2.454,16.454c3.646,4.529,9.654,6.59,15.328,5.752     c0.808-0.119,1.236-1.131,1.048-1.845c-0.227-0.861-1.048-1.166-1.845-1.048c-4.595,0.679-9.521-1.31-12.388-4.953     c-3.006-3.82-3.524-9.122-1.704-13.562c0.31-0.756-0.336-1.641-1.048-1.845C830.792,459.776,830.109,460.324,829.803,461.07     L829.803,461.07z"/>
			<path fill="#2D7C7C" d="M849.561,506.086c4.306,2.652,7.466,6.917,8.781,11.796c0.502,1.862,3.397,1.072,2.893-0.798     c-1.516-5.626-5.202-10.535-10.16-13.589C849.427,502.48,847.918,505.074,849.561,506.086L849.561,506.086z"/>
			<path fill="#2D7C7C" d="M716.722,493.402c-6.399-2.919-14.326,0.253-16.995,6.741c-0.308,0.75,0.334,1.649,1.048,1.845     c0.861,0.237,1.536-0.295,1.845-1.048c1.903-4.628,8.149-6.973,12.588-4.948c0.737,0.336,1.615,0.21,2.052-0.538     C717.637,494.81,717.463,493.74,716.722,493.402L716.722,493.402z"/>
			<path fill="#2D7C7C" d="M636.174,489.374c6.717,0.282,16.869,1.162,18.22,9.536c0.129,0.798,1.126,1.249,1.845,1.048     c0.85-0.238,1.178-1.039,1.048-1.845c-0.646-4.008-3.671-7.27-7.19-9.086c-4.282-2.209-9.203-2.454-13.922-2.652     C634.244,486.293,634.247,489.294,636.174,489.374L636.174,489.374z"/>
			<path fill="#2D7C7C" d="M446.068,521.862c7.936-2.346,17.356,1.964,20.509,9.704c0.308,0.756,0.995,1.272,1.845,1.048     c0.713-0.188,1.353-1.096,1.048-1.845c-3.76-9.231-14.561-14.648-24.199-11.799C443.423,519.515,444.21,522.411,446.068,521.862     L446.068,521.862z"/>
			<path fill="#2D7C7C" d="M400.107,483.457c-0.668,2.525,1.837,3.879,3.991,4.027c2.476,0.17,5.345-0.733,7.657-1.539     c5.182-1.808,9.864-4.911,13.49-9.036c1.27-1.445-0.844-3.575-2.121-2.121c-2.822,3.21-6.274,5.757-10.184,7.489     c-1.905,0.844-3.926,1.458-5.968,1.865c-0.882,0.176-1.834,0.408-2.739,0.349c-0.325-0.021-0.619-0.112-0.933-0.191     c-0.082-0.021-0.257-0.107-0.325-0.162c-0.051-0.042-0.015,0.27,0.025,0.117C403.494,482.387,400.601,481.59,400.107,483.457     L400.107,483.457z"/>
			<path fill="#2D7C7C" d="M342.151,478.192c-1.255,7.771-6.661,14.694-14.061,17.519c-0.756,0.289-1.277,1.01-1.048,1.845     c0.199,0.724,1.084,1.338,1.845,1.048c8.332-3.181,14.727-10.761,16.157-19.614c0.129-0.799-0.207-1.614-1.048-1.845     C343.281,476.948,342.281,477.388,342.151,478.192L342.151,478.192z"/>
			<path fill="#2D7C7C" d="M299.223,528.085c7.421-1.775,15.522,2.154,18.888,8.955c0.856,1.73,3.445,0.212,2.59-1.514     c-3.968-8.016-13.618-12.405-22.276-10.333C296.548,525.641,297.343,528.534,299.223,528.085L299.223,528.085z"/>
			<path fill="#2D7C7C" d="M374.962,528.434c8.828-0.457,17.441,4.36,21.65,12.138c0.919,1.699,3.51,0.186,2.59-1.514     c-4.681-8.651-14.414-14.133-24.241-13.624C373.041,525.534,373.03,528.534,374.962,528.434L374.962,528.434z"/>
			<path fill="#2D7C7C" d="M487.374,496.826c2.668,7.454,11.398,11.951,19.003,9.506c1.831-0.588,1.048-3.486-0.798-2.893     c-5.969,1.919-13.176-1.441-15.313-7.411c-0.273-0.762-1.022-1.274-1.845-1.048C487.685,495.183,487.1,496.06,487.374,496.826     L487.374,496.826z"/>
		</g>
		<path clip-path="url(#SVGID_2_)" fill="#133335" d="M533.979,703.156c7.789-1.537,15.753-2.052,23.616-0.731    c4.84,0.813,9.59,2.174,14.158,3.963c9.036,3.538,17.585,8.916,23.875,16.385c4.263,5.062,7.216,11.057,8.72,17.495    c0.439,1.879,3.332,1.084,2.893-0.797c-2.747-11.764-10.21-21.447-20.028-28.274c-7.862-5.466-17.057-9.272-26.425-11.214    c-9.192-1.905-18.433-1.529-27.606,0.281C531.289,700.637,532.09,703.529,533.979,703.156L533.979,703.156z"/>
		<path clip-path="url(#SVGID_2_)" fill="#133335" d="M533.746,739.175c-9.833,3.048-19.989,4.727-30.293,4.72    c-5.061-0.003-10.123-0.374-15.137-1.053c-5.087-0.689-10.392-1.434-15.259-3.118c-3.865-1.338-8.406-4.103-9.307-8.438    c-0.699-3.363,1.162-6.26,3.9-8.025c3.686-2.375,8.094-3.182,12.382-4.242c4.65-1.15,9.315-2.248,13.985-3.313    c1.882-0.429,1.085-3.322-0.798-2.893c-4.326,0.986-8.646,2.003-12.956,3.06c-4.707,1.154-9.738,2.063-13.914,4.662    c-3.035,1.89-5.304,4.697-5.68,8.339c-0.486,4.705,2.544,8.655,6.258,11.169c4.407,2.983,9.897,3.909,15.034,4.818    c5.41,0.957,10.877,1.637,16.366,1.906c12.272,0.6,24.49-1.064,36.217-4.699C536.381,741.498,535.597,738.601,533.746,739.175    L533.746,739.175z"/>
		<path clip-path="url(#SVGID_2_)" fill="#133335" d="M530.059,697.709c0.677-3.513,1.814-6.973,2.902-10.374    c1.585-4.954,3.322-9.888,5.462-14.633c0.945-2.095,1.964-4.174,3.201-6.115c0.782-1.226,1.744-2.495,2.751-3.095    c0.242-0.144,0.116-0.06,0.103-0.056c0.117-0.036,0.232-0.073,0.353-0.095c1.01-0.179,2.093-0.18,3.095,0.047    c1.95,0.442,3.429,1.79,4.667,3.299c2.358,2.874,4,6.381,5.266,9.852c2.921,8.009,4.123,16.512,5.66,24.859    c0.349,1.896,3.241,1.093,2.893-0.797c-1.467-7.966-2.635-16.053-5.266-23.744c-2.314-6.765-6.694-17.002-15.271-16.624    c-2.122,0.094-3.621,0.777-5.016,2.366c-1.441,1.641-2.547,3.567-3.544,5.501c-2.553,4.956-4.505,10.24-6.287,15.514    c-1.466,4.34-2.994,8.788-3.863,13.297C526.803,698.798,529.694,699.605,530.059,697.709L530.059,697.709z"/>
	</g>
	<g>
	</g>
	<g>
	</g>
	<g>
	</g>
	<g>
	</g>
	<g>
	</g>
	<g>
	</g>
	<g>
	</g>
	<g>
	</g>
	<g>
	</g>
	<g>
	</g>
	<g>
	</g>
	<g>
	</g>
	<g>
	</g>
	<g>
	</g>
	<g>
	</g>
</g>
</svg>