<svg xmlns="http://www.w3.org/2000/svg" xmlns:xlink="http://www.w3.org/1999/xlink" viewBox="0 0 566.93 566.93"><defs><clipPath id="b923f481-919f-48b0-8245-4557bc7bdfac"><circle cx="283.46" cy="283.46" r="283.46" style="fill:none"/></clipPath></defs><g id="f81ffd53-8573-41f9-be40-0d248be3ce06" data-name="Copy"><g style="opacity:0.05"><circle cx="283.46" cy="283.46" r="283.46"/></g><g style="clip-path:url(#b923f481-919f-48b0-8245-4557bc7bdfac)"><path d="M242.26,404.76s-63.76,14.5-12.56,42.51c0,0,118.84,26.09,207.72-5.79,0,0,66.67-1.94,59.9-30.92,0,0-1.93-40.58-87.91-37.68,0,0-6.65-64.5-133.73-41.21a34.84,34.84,0,0,0-7.44,2.22C254.44,339.78,211.15,362.47,242.26,404.76Z" style="fill:#fff;opacity:0.7000000000000001"/><path d="M-40.36,497.71s-63.76,14.49-12.56,42.51c0,0,118.84,26.09,207.72-5.8,0,0,66.67-1.93,59.9-30.91,0,0-1.93-40.58-87.91-37.68,0,0-6.65-64.5-133.73-41.21a34.25,34.25,0,0,0-7.44,2.21C-28.18,432.73-71.47,455.42-40.36,497.71Z" style="fill:#fff; transform:translateX(75px)"/><polyline points="290.36 250.22 270.77 293.13 290.36 336.84" style="fill:none;stroke:#b9b9b9;stroke-miterlimit:10;stroke-width:2px"/><path d="M231,295.91s12.65-1.35,23.07,1.95a15.55,15.55,0,0,0,16.67-4.73" style="fill:none;stroke:#b9b9b9;stroke-miterlimit:10;stroke-width:2px"/><path d="M287.49,243.86v95.46s112.33-6.57,151.09,0c0,0,125.29,8.76,129.16,0l-27.12-43,27.12-52.5s-56.85,8.21-129.16,0C438.58,243.86,379.83,233.09,287.49,243.86Z" style="fill:#73be00"/><path d="M299.06,254v73.71s97-5.17,131.39,0c0,0,112.46,9.51,115.9,2.63l-21.43-35.08L545,257.93s-50.43,2.5-114.58-4C430.45,254,381,245.52,299.06,254Z" style="fill:none;stroke:#fff;stroke-miterlimit:10;stroke-width:2px"/><path d="M325.55,307.5a3.21,3.21,0,0,1-2.41-1,3.5,3.5,0,0,1-.77-2.51l.86-30.21a3.48,3.48,0,0,1,.92-2.49,3.84,3.84,0,0,1,4.87.14,3.46,3.46,0,0,1,.78,2.54l-.35,12.1,18.62.53.34-12.1a3.53,3.53,0,0,1,.92-2.49,3.26,3.26,0,0,1,2.46-.8,3.21,3.21,0,0,1,2.41.94,3.46,3.46,0,0,1,.78,2.54l-.87,30.21a3.47,3.47,0,0,1-.91,2.46,3.75,3.75,0,0,1-4.87-.14,3.46,3.46,0,0,1-.78-2.51l.36-12.62-18.62-.53-.36,12.62a3.55,3.55,0,0,1-.89,2.46A3.18,3.18,0,0,1,325.55,307.5Z" style="fill:#fff"/><path d="M362.27,308.55a3.19,3.19,0,0,1-1.95-.62,2.31,2.31,0,0,1-.86-1.54,3.9,3.9,0,0,1,.42-2.12l14.4-29.62a4.9,4.9,0,0,1,1.68-2.08,3.79,3.79,0,0,1,2.19-.58,3.86,3.86,0,0,1,2.12.7,5.08,5.08,0,0,1,1.55,2.18l12.73,30.39a3.64,3.64,0,0,1,.35,2.17,2.3,2.3,0,0,1-.91,1.49,3.16,3.16,0,0,1-1.92.48,3.29,3.29,0,0,1-2.21-.76,5.7,5.7,0,0,1-1.35-2.17l-3.11-7.83,2.72,1.87-21.64-.62,2.82-1.72-3.51,7.65a6.67,6.67,0,0,1-1.44,2.12A3,3,0,0,1,362.27,308.55Zm15.57-29-7.67,16.87-1.29-1.68,17.13.49-1.33,1.61-6.74-17.29Z" style="fill:#fff"/><path d="M403.42,309.31a3.31,3.31,0,0,1-2.44-1,3.47,3.47,0,0,1-.8-2.52l.85-29.59a3.37,3.37,0,0,1,.92-2.46,3.91,3.91,0,0,1,4.87.14,3.37,3.37,0,0,1,.77,2.51l-.78,27.39,14.87.42a3,3,0,0,1,2.11.78,2.74,2.74,0,0,1,.69,2.07,2.6,2.6,0,0,1-3,2.74Z" style="fill:#fff"/><path d="M432.24,310.14a3.24,3.24,0,0,1-2.43-1,3.39,3.39,0,0,1-.81-2.51l.85-29.59a3.38,3.38,0,0,1,.92-2.47,4,4,0,0,1,4.87.14,3.37,3.37,0,0,1,.78,2.51l-.79,27.39,14.88.43a2.91,2.91,0,0,1,2.1.77,2.78,2.78,0,0,1,.69,2.08,2.85,2.85,0,0,1-.8,2.05,2.88,2.88,0,0,1-2.15.69Z" style="fill:#fff"/><path d="M472,311.79a17.76,17.76,0,0,1-9.09-2.57,15.64,15.64,0,0,1-5.9-6.66,21.26,21.26,0,0,1-1.87-9.89,22.62,22.62,0,0,1,1.45-7.63,16.76,16.76,0,0,1,3.68-5.74,15.35,15.35,0,0,1,5.6-3.59,18.7,18.7,0,0,1,7.19-1.1,17.87,17.87,0,0,1,9.11,2.54,15.63,15.63,0,0,1,5.87,6.61,21.09,21.09,0,0,1,1.88,9.86,22.84,22.84,0,0,1-1.46,7.66,16.92,16.92,0,0,1-3.68,5.79,15.21,15.21,0,0,1-5.59,3.62A18.9,18.9,0,0,1,472,311.79Zm.16-5.64a10.12,10.12,0,0,0,5.71-1.38,9.86,9.86,0,0,0,3.72-4.36,17.7,17.7,0,0,0,1.45-6.94q.18-6.15-2.47-9.62a9.4,9.4,0,0,0-7.67-3.6,10.21,10.21,0,0,0-5.69,1.35,9.57,9.57,0,0,0-3.74,4.31,17.6,17.6,0,0,0-1.46,7q-.17,6.11,2.5,9.62A9.42,9.42,0,0,0,472.14,306.15Z" style="fill:#fff"/><path d="M498.5,312.29a3.71,3.71,0,0,1-2.77-1.16,3.8,3.8,0,0,1-1-2.8,3.65,3.65,0,0,1,1.13-2.66,3.79,3.79,0,0,1,2.82-1,3.53,3.53,0,0,1,3.69,3.85,3.89,3.89,0,0,1-1.08,2.74A3.59,3.59,0,0,1,498.5,312.29Zm.3-10.67a1.86,1.86,0,0,1-1.49-.66,2.91,2.91,0,0,1-.59-1.76l-1-19.63a4,4,0,0,1,.91-3,3.53,3.53,0,0,1,2.9-1.07,3.38,3.38,0,0,1,2.76,1.23,4.1,4.1,0,0,1,.71,3.07l-2.1,19.55a2.75,2.75,0,0,1-.64,1.73A1.83,1.83,0,0,1,498.8,301.62Z" style="fill:#fff"/><path d="M41.05,297.47l-1.85.41-.56-1.81-8.35-26.63a3.56,3.56,0,0,1,2.63-4.67s3.47-1.17,4.53,3.64l3.41,27.36,1,4.24,8.83,27.11s-.24,3.35-3.23,3.83c0,0-3.47.2-3.9-2.61L39.2,297.88" style="fill:#464646"/><path d="M50.32,287.45,42,297.67s2.65,13.63,50.72,24.22h48.07s4.16,1.9,45.8-12.11l48.48-11.24.35-44.4H223.67s-24.22-.67-28.76,33.92h-50l-7.47-7.71-73.24-.52Z" style="fill:#a6a6a6"/><path d="M73.79,256.51h62.45l-29.52-8.71H77.57S66.22,251.21,73.79,256.51Z" style="fill:gray"/><line x1="92.71" y1="297.39" x2="81.73" y2="256.51" style="fill:none;stroke:gray;stroke-linecap:round;stroke-miterlimit:10;stroke-width:3px"/><line x1="116.18" y1="297.39" x2="103.71" y2="256.51" style="fill:none;stroke:gray;stroke-linecap:round;stroke-miterlimit:10;stroke-width:3px"/><circle cx="40.38" cy="297.8" r="3.65" style="fill:gray"/><line x1="44.03" y1="297.8" x2="235.41" y2="296.16" style="fill:none;stroke:#fff;stroke-miterlimit:10;stroke-width:5px"/><ellipse cx="153.84" cy="282.03" rx="5.02" ry="6.03" style="fill:#d58357"/><path d="M143.05,279.83h15.81s.66-7.57-5-7.76c0,0-5.29.13-5,4.73l-5,1.23Z" style="fill:#73be00"/><path d="M37.18,116.61S-23.34,130.36,25.26,157c0,0,112.8,24.76,197.16-5.5,0,0,63.28-1.84,56.86-29.35,0,0-1.84-38.52-83.45-35.76,0,0-6.31-61.23-126.93-39.12a32.85,32.85,0,0,0-7.07,2.1C48.74,54.93,7.65,76.46,37.18,116.61Z" style="fill:#fff"/><path d="M540.29,147.59S589,158.65,549.88,180c0,0-90.71,19.91-158.55-4.43,0,0-50.88-1.47-45.72-23.59,0,0,1.47-31,67.1-28.76,0,0,5.07-49.24,102.08-31.46a26.31,26.31,0,0,1,5.68,1.69C531,98,564,115.31,540.29,147.59Z" style="fill:#fff"/></g></g></svg>