<svg xmlns="http://www.w3.org/2000/svg" xmlns:xlink="http://www.w3.org/1999/xlink" version="1.1" id="_x31__Willkommen" x="0px" y="0px" enable-background="new 0 0 1200 1200" xml:space="preserve" viewBox="223.8 241 718.01 718.01">
<g>
	<defs>
		<circle id="SVGID_1_" cx="582.803" cy="600" r="359.004"/>
	</defs>
	<clipPath id="SVGID_2_">
		<use xlink:href="#SVGID_1_" overflow="visible"/>
	</clipPath>
	<circle clip-path="url(#SVGID_2_)" fill="#D6E5E3" cx="582.803" cy="600" r="359.004"/>
	<path clip-path="url(#SVGID_2_)" fill="#133335" d="M722.366,811.685l-290.527-19.911c-10.913-0.748-29.439-18.284-29.417-28.941   l21.93-151.493c0.748-10.913,10.201-19.154,21.114-18.406l284.227,9.155c11.313,2.418,25.454,20.957,24.706,31.87L743.48,793.279   C742.732,804.192,733.279,812.433,722.366,811.685z"/>
	<path clip-path="url(#SVGID_2_)" fill="#2D7C7C" d="M711.241,799.99l-290.527-19.911c-10.913-0.748-19.154-10.201-18.406-21.114   l10.919-159.319c0.748-10.913,10.201-19.154,21.114-18.406l290.527,19.911c10.913,0.748,19.154,10.201,18.406,21.114   l-10.919,159.319C731.607,792.497,722.154,800.738,711.241,799.99z"/>
	<path clip-path="url(#SVGID_2_)" fill="#FFFFFF" d="M698.165,784.494l-251.702-17.25c-13.53-0.927-23.732-12.864-22.786-26.661   l8.229-120.068c0.946-13.797,12.68-24.231,26.21-23.303l251.702,17.25c10.702,0.733,18.771,10.175,18.023,21.088l-1.08,21.383   c-0.099,1.95-1.253,3.684-2.994,4.5l-14.019,6.565c-1.714,0.803-2.861,2.497-2.989,4.414l-2.949,44.238   c-0.143,2.151,1.021,4.168,2.933,5.082l10.63,5.079c1.869,0.893,3.027,2.842,2.941,4.947l-1.416,34.305   C718.149,776.975,708.867,785.227,698.165,784.494z"/>
	<path clip-path="url(#SVGID_2_)" fill="#133335" d="M717.469,685.706c-0.464,5.176-0.928,10.352-1.392,15.528   c-0.072,0.808,0.741,1.5,1.5,1.5c0.872,0,1.427-0.69,1.5-1.5c0.464-5.176,0.928-10.352,1.392-15.528c0.072-0.808-0.741-1.5-1.5-1.5   C718.098,684.206,717.542,684.896,717.469,685.706L717.469,685.706z"/>
	<path clip-path="url(#SVGID_2_)" fill="#133335" d="M417.783,665.982c-0.31,5.642-0.62,11.284-0.93,16.926   c-0.106,1.929,2.894,1.923,3,0c0.31-5.642,0.62-11.284,0.93-16.926C420.889,664.053,417.889,664.059,417.783,665.982   L417.783,665.982z"/>
	<g clip-path="url(#SVGID_2_)">
		<path fill="#133335" d="M507.465,654.246c-1.454-0.399-3.401,0.492-3.69,2.095c-1.617,8.961-3.234,17.922-4.851,26.883    c-6.183-0.289-12.333-0.986-18.423-2.104c1.716-7.941,3.471-15.874,5.292-23.792c0.363-1.578-0.486-3.248-2.095-3.69    c-1.514-0.416-3.326,0.51-3.69,2.095c-1.882,8.185-3.696,16.385-5.467,24.595c-0.954,0.28-1.752,0.985-2.04,2.033    c-0.296,1.076,0.102,2.324,0.934,3.075c-2.047,9.621-4.018,19.258-5.912,28.911c-0.312,1.588,0.451,3.238,2.095,3.69    c1.473,0.405,3.377-0.498,3.69-2.095c1.897-9.673,3.873-19.329,5.924-28.97c6.151,1.131,12.372,1.872,18.617,2.205    c-0.994,5.51-1.989,11.021-2.983,16.531c-0.853,4.725-1.705,9.45-2.558,14.175c-0.287,1.593,0.434,3.234,2.095,3.69    c1.454,0.399,3.401-0.492,3.69-2.095c1.931-10.703,3.863-21.405,5.794-32.108c0.299,0.003,0.597,0.015,0.895,0.016    c3.797,0.018,3.856-5.77,0.181-5.981c0.679-3.765,1.359-7.529,2.038-11.294c0.853-4.725,1.705-9.45,2.558-14.174    C509.847,656.344,509.126,654.703,507.465,654.246z"/>
		<path fill="#133335" d="M671.727,681.939c-2.02,1.969-4.213,3.678-6.642,5.115c-2.299,1.36-4.893,2.736-7.576,3.101    c-1.079,0.147-2.156,0.024-3.222-0.171c-0.304-2.094-0.849-4.316-2.367-5.836c-2-2.003-4.845-1.592-6.895-0.057    c-4.317-0.307-8.64,1.019-12.36,3.584c-2.234,1.54-4.114,3.409-5.777,5.464c-0.171,0.165-0.333,0.342-0.474,0.541    c-0.126,0.177-0.236,0.357-0.358,0.535c-2.138,2.851-3.913,6.004-5.583,9.171c-3.035,5.755-5.81,11.861-10.657,16.353    c-2.017,1.87-4.38,3.402-6.959,4.112c-2.069,0.569-5.097,0.865-7.004-0.708c-1.932-1.593-1.983-4.862-2.148-7.306    c0.42-0.538,0.836-1.075,1.248-1.606c4.989-6.439,9.686-13.2,13.586-20.362c3.788-6.957,6.878-14.819,6.429-22.88    c-0.215-3.859-1.004-8.554-4.975-10.288c-3.715-1.622-7.916-0.001-10.383,3.019c-2.48,3.036-3.933,6.895-5.373,10.499    c-1.445,3.617-2.659,7.327-3.636,11.097c-2.023,7.804-3.078,15.905-3.106,23.967c-0.005,1.468-0.021,3.059,0.021,4.684    c-0.274,0.332-0.535,0.675-0.812,1.005c-3.82,4.552-8.31,9.396-14.381,10.527c-2.178,0.406-4.952,0.151-6.909-0.881    c-2.221-1.171-3.679-3.26-4.372-5.782c-0.166-0.604-0.29-1.216-0.388-1.832c0.308-0.375,0.608-0.749,0.896-1.119    c4.897-6.297,8.91-13.354,12.31-20.556c3.481-7.375,6.994-15.352,7.65-23.571c0.298-3.733,0.076-8.633-2.493-11.619    c-1.346-1.564-3.446-2.303-5.472-1.875c-1.934,0.409-3.421,1.783-4.582,3.304c-2.267,2.971-3.752,6.751-5.224,10.164    c-1.617,3.75-3.068,7.566-4.289,11.464c-2.394,7.643-3.939,15.538-4.7,23.509c-0.254,2.658-0.45,5.5-0.307,8.299    c-0.866,0.915-1.762,1.8-2.725,2.614c-2.099,1.773-4.822,3.543-7.622,3.832c-1.178,0.122-2.291-0.073-3.278-0.781    c0.224,0.16-0.896-0.94-0.716-0.701c-0.126-0.167-0.242-0.354-0.349-0.532c-0.069-0.113-0.534-1.004-0.417-0.737    c-1.11-2.53-1.103-5.01-1.029-7.814c0.099-3.745,0.411-7.495,0.992-11.197c0.573-3.649,1.37-7.258,2.362-10.816    c1.033-3.703-4.529-5.234-5.749-1.681c-0.947-1.46-2.072-2.794-3.531-3.879c-3.023-2.248-7.452-3.003-10.751-0.884    c-2.539,1.631-4.77,4.491-6.141,7.144c-1.95,3.772-3.655,7.776-4.541,11.943c-0.899,4.23-0.999,8.605,0.084,12.812    c0.978,3.799,2.691,7.112,6.466,8.652c2.001,0.816,4.56,1.115,6.653,0.44c3.367-1.086,5.887-4.711,7.437-7.69    c0.271-0.521,0.509-1.062,0.763-1.593c0.159,2.684,0.674,5.371,1.91,7.768c1.729,3.352,5.074,5.422,8.833,5.553    c4.713,0.165,9.058-2.23,12.704-5.397c0.73,1.946,1.794,3.756,3.342,5.32c5.045,5.097,13.056,5.222,19.266,2.419    c3.931-1.775,7.234-4.617,10.186-7.815c1,3.309,2.895,6.111,6.502,7.488c6.947,2.654,14.605-1.205,19.527-6.023    c1.709-1.673,3.165-3.529,4.492-5.476c-0.004,0.475,0,0.951,0.019,1.428c0.163,4.01,1.073,8.103,3.729,11.227    c3.355,3.946,9.526,5.096,14.145,2.911c5.708-2.699,9.801-9.012,12.279-14.594c2.726-6.139,4.421-12.751,5.098-19.431    c0.116-1.145,0.187-2.299,0.224-3.453c4.183,0.544,8.184-0.978,11.841-2.895c3.495-1.831,6.705-4.234,9.527-6.985    C678.739,683.481,674.494,679.24,671.727,681.939z M522.159,717.743c-0.085,0.014-0.171,0.025-0.252,0.048    c0.19-0.052,0.28-0.08,0.327-0.098C522.207,717.71,522.182,717.727,522.159,717.743z M528.46,708.046    c-1.012,2.521-2.094,5.262-3.728,7.404c-0.442,0.58-0.971,1.134-1.528,1.604c-0.046,0.039-0.603,0.394-0.942,0.62    c-0.05-0.014-0.639,0.094-0.88,0.087c-0.112-0.003-0.224-0.014-0.336-0.022c-0.035-0.007-0.389-0.044-0.488-0.068    c-0.414-0.101-0.832-0.206-1.225-0.375c0.684,0.293-1.009-0.758-0.542-0.353c-0.183-0.159-0.355-0.329-0.517-0.509    c-0.019-0.022-0.03-0.034-0.043-0.049c-0.104-0.153-0.204-0.309-0.294-0.471c-1.491-2.696-1.837-6.188-1.687-9.212    c0.166-3.333,1.137-6.593,2.36-9.68c0.598-1.509,1.308-2.98,2.055-4.421c0.547-1.054,1.222-2.021,1.82-2.738    c0.471-0.564,0.963-1.113,1.489-1.627c0.183-0.179,0.377-0.346,0.56-0.524c0.049-0.041,0.079-0.066,0.111-0.093    c0.095-0.065,0.19-0.13,0.29-0.187c0.989-0.389,1.832-0.37,2.97,0.154c2.84,1.309,4.185,4.771,5.317,7.507    c0.01,0.023,0.023,0.044,0.033,0.067C531.758,699.491,530.168,703.791,528.46,708.046z M574.797,664.107    c0.068-0.042,0.131-0.075,0.143-0.056C574.979,664.111,574.903,664.119,574.797,664.107z M574.438,664.028    c-0.023-0.007-0.038-0.013-0.031-0.012c-0.027-0.035-0.053-0.07-0.08-0.106C574.373,663.96,574.406,663.994,574.438,664.028z     M561.595,700.124c1.164-7.111,3.018-14.112,5.532-20.865c1.164-3.128,2.481-6.19,3.945-9.189c0.744-1.525,1.46-3.131,2.401-4.547    c0.297-0.447,0.638-0.899,1.086-1.251c0.002-0.002,0.023-0.017,0.038-0.029c0.098,0.182,0.229,0.413,0.228,0.384    c0.289,0.705,0.435,1.51,0.561,2.253c0.284,1.675,0.251,3.42,0.103,5.107c-0.314,3.566-1.462,7.073-2.68,10.418    c-2.429,6.67-5.482,13.109-9.034,19.252c-0.969,1.675-1.971,3.362-3.023,5.023C560.962,704.486,561.239,702.298,561.595,700.124z     M593.605,705.003c0.347-7.013,1.536-13.952,3.493-20.695c0.95-3.272,2.072-6.502,3.389-9.645c0.662-1.582,1.368-3.16,2.165-4.679    c0.643-1.226,1.376-2.571,2.534-3.388c0.677-0.477,1.558-0.698,2.192-0.503c0.362,0.112,0.4,0.131,0.684,0.569    c0.361,0.557,0.521,1.375,0.66,2.111c0.6,3.179,0.299,6.571-0.421,9.701c-1.566,6.811-5.073,12.951-8.763,18.812    c-1.896,3.013-3.888,5.967-5.973,8.854C593.58,705.761,593.586,705.382,593.605,705.003z M626.171,724.758    C626.103,724.621,626.018,724.366,626.171,724.758L626.171,724.758z M648.234,700.775c-0.683,5.183-2.073,10.549-4.218,15.325    c-1.989,4.427-4.949,9.474-9.341,11.901c-0.889,0.491-1.695,0.67-2.649,0.643c-0.15-0.004-0.978-0.092-0.94-0.07    c-0.469-0.084-0.927-0.196-1.384-0.332c-0.159-0.047-0.311-0.11-0.468-0.164c0.67,0.232-0.032-0.016-0.156-0.086    c-0.326-0.183-0.637-0.387-0.958-0.578c0.02,0.018,0.034,0.03,0.057,0.051c-0.019-0.017-0.038-0.034-0.057-0.051    c-0.007-0.004-0.013-0.008-0.02-0.012c-0.124-0.074-0.322-0.288-0.073-0.071c-0.087-0.076-0.175-0.151-0.259-0.231    c-0.227-0.216-0.43-0.453-0.632-0.692c-0.044-0.085-0.378-0.549-0.441-0.655c-0.187-0.313-0.332-0.647-0.508-0.965    c-0.003-0.005-0.006-0.013-0.009-0.019c-0.049-0.128-0.1-0.256-0.146-0.386c-0.137-0.384-0.256-0.774-0.361-1.168    c-0.168-0.629-0.288-1.268-0.389-1.911c-0.003-0.08-0.076-0.671-0.087-0.812c-0.03-0.363-0.052-0.728-0.066-1.092    c-0.061-1.507-0.002-3.018,0.142-4.518c0.028-0.291,0.059-0.582,0.094-0.873c0.007-0.055,0.013-0.111,0.02-0.166    c0.171-1.026,0.316-2.056,0.493-3.081c0.431-2.492,0.957-4.979,1.86-7.347c0.311-0.816,0.777-1.781,1.371-2.844    c0.546-0.977,1.157-1.914,1.787-2.838c2.363-3.142,5.229-5.797,8.985-7.061c0.921-0.31,1.848-0.528,2.768-0.644    c0.02,0.07,0.024,0.141,0.048,0.211c0.838,2.521,3.474,3.737,5.807,4.511c0.043,0.014,0.088,0.025,0.131,0.039    C648.638,696.789,648.495,698.798,648.234,700.775z"/>
	</g>
	<path clip-path="url(#SVGID_2_)" fill="#133335" d="M569.438,545.276c-0.757-3.216-4.317-4.597-7.268-3.62   c-3.46,1.146-5.286,4.358-7.122,7.261c-2.095,3.313-4.252,6.588-6.483,9.812c-2.291,3.311-4.657,6.572-7.122,9.756   c-2.174,2.809-4.348,6.022-7.163,8.237c-3.07,2.416-7.165,2.004-10.844,2.417c-3.874,0.435-7.887,0.938-11.567,2.283   c-5.965,2.18-10.615,6.963-12.039,13.231c-0.331,1.459,0.076,2.802,1.64,3.263c1.452,0.428,2.64-0.203,3.365-1.453   c1.629-2.808,3.072-6.212,5.858-8.105c1.433-0.974,3.079-1.387,4.771-1.63c2.02-0.29,4.042-0.563,6.063-0.845   c0.927-0.129,1.881-0.21,2.803-0.371c-0.056,0.094-0.112,0.186-0.172,0.275c-0.287,0.428-0.608,0.834-0.908,1.253   c-1.059,1.477-2.067,2.989-3.007,4.544c-1.7,2.813-5.431,9.588-6.246,12.797c-0.335,1.318-0.375,2.662,0.824,3.548   c1.106,0.817,2.654,1.023,3.825,0.249c2.6-1.718,5.313-8.924,6.603-11.565c1.549-3.169,3.565-6.119,6.075-8.663   c1.033-1.047,2.143-1.741,3.675-1.756c1.182-0.012,2.47,0.143,3.533,0.628c1.612,0.735,1.406,0.731,2.677,1.746l9.373,0.642   c-0.241-1.342-1.775-2.848-3.013-4.167c-1.187-1.265-2.491-2.399-4.703-4.393c8.433-10.56,16.267-20.081,24.986-30.406   c0.191-0.227,0.295-0.469,0.342-0.712c0.016-0.02,0.033-0.038,0.049-0.058C569.233,548.248,569.811,546.862,569.438,545.276z"/>
	<path clip-path="url(#SVGID_2_)" fill="#133335" d="M635.82,592.526c-0.552-1.86-1.702-2.627-3.068-3.902   c-2.031-1.895-4.148-3.439-4.467-4.242c-0.81-2.034-0.916-3.479-0.681-5.608c0.243-2.202,0.438-4.41,0.573-6.621   c0.259-4.25,0.303-8.514,0.289-12.771c-0.005-1.483-0.347-3.038-1.484-4.077c-1.468-1.339-3.873-1.392-5.521-0.373   c-1.681,1.039-2.151,2.76-2.213,4.61c-0.008,0.236-0.002,0.472-0.004,0.708c0,0.025-0.005,0.046-0.004,0.071   c0.001,0.041,0.002,0.082,0.003,0.123c-0.003,1.217,0.05,2.434,0.097,3.652c0.011,0.452,0.027,0.905,0.036,1.357   c0.004,0.187,0.012,0.374,0.013,0.561c0,0.01,0.003,0.018,0.003,0.027c0.108,5.905,0.045,11.812-0.179,17.715   c-2.364,0.764-4.728,1.528-7.091,2.292c-2.427,0.785-4.972,1.427-7.287,2.51c-3.639,1.703-6.047,5.339-7.278,9.048   c-0.565,1.703-2.599,8.77-1.776,10.508c0.954,2.013,2.976,1.902,4.449,0.573c1.275-1.151,2.637-6.743,3.343-9.18   c0.388-1.34,1.051-2.941,2.241-3.945c1.574-1.327,3.789-2.218,5.827-2.401c2.231-0.2,4.474,0.007,6.707-0.109   c-0.501,2.884-0.938,5.778-1.297,8.684c-0.27,2.186-0.527,6.751-0.707,8.947c-0.156,1.9,0.105,4.131,2.303,4.665   c2.081,0.506,3.075-1.458,3.461-3.126c0.502-2.163,0.928-6.725,1.281-8.917c0.563-3.494,0.988-7.007,1.381-10.524   c1.334,0.452,2.847,1.133,4.196,1.797c0,0,2.87,0.248,4.669,0.325c0.661,0.028,2.442,0.162,2.442,0.162   S636.036,593.254,635.82,592.526z"/>
	<path clip-path="url(#SVGID_2_)" fill="#133335" d="M613.148,592.526"/>
	<g clip-path="url(#SVGID_2_)">
		<path fill="#F67D28" d="M762.432,390.729c-0.091-0.388-0.188-0.774-0.289-1.159c-0.214-0.814-1.309-1.358-2.051-0.834    c-18.01,12.7-38.07,22.381-59.196,28.646c-10.553,3.129-21.369,5.433-32.292,6.805c-5.458,0.686-10.944,1.151-16.439,1.387    c-5.771,0.248-11.532,0.082-17.304,0.147c-9.649,0.108-20.896,1.921-27.365,9.533c0.014-3.903-0.131-7.805-0.481-11.695    c-0.515-5.723-1.283-11.534-2.813-17.083c-1.337-4.85-3.46-9.44-6.805-13.237c-2.944-3.341-6.691-5.974-10.726-7.831    c-8.565-3.941-18.5-4.823-27.665-2.664c-4.753,1.119-9.317,3.133-13.181,6.14c-3.895,3.03-6.901,7.056-8.94,11.536    c-5.03,11.051-4.309,23.254-3.111,35.046c-0.12,0.153-0.212,0.345-0.254,0.591c-0.037,0.213-0.065,0.426-0.101,0.639    c-5.65-4.966-12.138-8.921-19.161-11.654c-8.716-3.392-18.086-4.652-27.38-5.083c-17.486-0.81-35.253,1.238-52.404-3.201    c-8.566-2.217-16.714-6.078-23.038-12.374c-0.837-0.833-2.421-0.238-2.384,0.987c0.249,8.218,2.978,15.998,7.239,22.895    c0.951,9.23,4.211,18.169,9.581,25.754c0.561,0.793,1.156,1.556,1.758,2.312c-0.074,0.18-0.108,0.393-0.077,0.646    c1.046,8.394,4.027,16.475,8.778,23.486c4.98,7.35,11.674,13.154,19.425,17.438c8.07,4.46,16.923,7.612,25.773,10.123    c9.065,2.572,35.794,8.289,45.951,7.809c3.046,12.294,15.913,30.19,33.132,39.39c9.847,5.261,29.922,10.648,38.528,11.901    c9.238,1.344,18.599,1.718,27.923,1.378c8.736-0.318,17.469-1.243,26.066-2.837c6.549-1.214,13.153-2.761,19.322-5.321    c9.41-3.906,17.586-10.895,24.381-18.361c8.339-9.163,15.136-19.828,19.982-31.227c1.119-2.632,2.139-5.302,3.035-8.017    c0.309-0.935-0.731-2.123-1.718-1.717c-20.473,8.424-38.895,11.289-52.241,8.23c-4.332-0.993-8.635-2.759-11.035-4.626    c17.23,2.021,22.1-1.148,38.817-5.849c10.195-2.867,20.106-6.954,29.284-12.249c8.782-5.066,16.925-11.436,22.977-19.641    c6.912-9.37,11.918-21.009,9.701-32.797c0.487-0.691,0.956-1.391,1.386-2.112c3.757-6.308,4.84-13.991,3.381-21.146    c-0.089-0.439-0.324-0.721-0.62-0.872c1.636-2.688,2.805-5.66,3.259-8.783C763.55,397.676,763.234,394.162,762.432,390.729z     M760.314,394.536C760.317,394.561,760.317,394.566,760.314,394.536L760.314,394.536z"/>
		<g>
			<ellipse fill="#133335" cx="579.536" cy="410.067" rx="3.36" ry="4.16"/>
			<path fill="#133335" d="M557.252,405.907c-1.856,0-3.36,1.862-3.36,4.16s1.504,4.16,3.36,4.16c1.855,0,3.36-1.862,3.36-4.16     S559.108,405.907,557.252,405.907z"/>
		</g>
		<path fill="#133335" d="M564.09,419.596c0.096-1.151,9.01-1.386,9.01,0c0,1.386-3.354,9.935-4.509,9.935    C567.436,429.531,563.859,422.369,564.09,419.596z"/>
		<path fill="#133335" d="M757.816,409.358c-21.596,16.355-46.561,28.047-72.951,34.169c-7.309,1.696-14.713,2.966-22.172,3.778    c-1.208,0.131-2.25,0.94-2.25,2.25c0,1.114,1.034,2.382,2.25,2.25c27.511-2.993,54.283-11.777,78.187-25.737    c6.653-3.885,13.065-8.173,19.207-12.824c0.967-0.732,1.473-1.941,0.807-3.078C760.338,409.212,758.791,408.619,757.816,409.358    L757.816,409.358z"/>
		<path fill="#133335" d="M752.476,435.354c-9.414,10.435-21.041,18.473-33.342,25.138c-5.498,2.979-11.054,5.642-16.99,7.632    c-6.193,2.077-12.563,3.643-18.994,4.779c-6.742,1.191-13.605,1.897-20.457,1.741c-2.897-0.066-2.896,4.434,0,4.5    c12.916,0.294,26.139-2.115,38.433-5.963c12.944-4.052,25.179-10.814,36.226-18.625c6.637-4.693,12.856-9.978,18.306-16.019    C757.594,436.39,754.421,433.198,752.476,435.354L752.476,435.354z"/>
		<path fill="#133335" d="M418.808,431.249c8.597,6.092,17.448,11.821,27.237,15.819c10.349,4.227,21.586,6.289,32.637,7.653    c6.086,0.752,12.201,1.217,18.319,1.615c2.891,0.188,2.88-4.313,0-4.5c-10.729-0.698-21.441-1.659-31.975-3.891    c-5.348-1.133-10.676-2.498-15.794-4.434c-4.708-1.781-9.218-4.053-13.567-6.581c-5.03-2.925-9.842-6.205-14.587-9.568    c-0.992-0.703-2.503-0.177-3.078,0.807C417.342,429.298,417.814,430.544,418.808,431.249L418.808,431.249z"/>
		<path fill="#133335" d="M429.246,459.723c16.829,13.693,36.811,23.111,58.494,25.512c6.048,0.67,12.144,0.765,18.213,0.342    c2.873-0.2,2.895-4.701,0-4.5c-20.733,1.442-41.164-3.758-58.991-14.363c-5.088-3.027-9.943-6.437-14.535-10.173    c-0.942-0.766-2.261-0.921-3.182,0C428.455,457.333,428.299,458.953,429.246,459.723L429.246,459.723z"/>
	</g>
</g>
<g>
</g>
<g>
</g>
<g>
</g>
<g>
</g>
<g>
</g>
<g>
</g>
<g>
</g>
<g>
</g>
<g>
</g>
<g>
</g>
<g>
</g>
<g>
</g>
<g>
</g>
<g>
</g>
<g>
</g>
</svg>